<?xml version="1.0" encoding="utf-8" standalone="no"?>
<!DOCTYPE svg PUBLIC "-//W3C//DTD SVG 1.1//EN"
  "http://www.w3.org/Graphics/SVG/1.1/DTD/svg11.dtd">
<svg xmlns:xlink="http://www.w3.org/1999/xlink" width="999.705pt" height="566.322599pt" viewBox="0 0 999.705 566.322599" xmlns="http://www.w3.org/2000/svg" version="1.1">
 <metadata>
  <rdf:RDF xmlns:dc="http://purl.org/dc/elements/1.1/" xmlns:cc="http://creativecommons.org/ns#" xmlns:rdf="http://www.w3.org/1999/02/22-rdf-syntax-ns#">
   <cc:Work>
    <dc:type rdf:resource="http://purl.org/dc/dcmitype/StillImage"/>
    <dc:date>2025-08-30T03:16:52.199841</dc:date>
    <dc:format>image/svg+xml</dc:format>
    <dc:creator>
     <cc:Agent>
      <dc:title>Matplotlib v3.7.1, https://matplotlib.org/</dc:title>
     </cc:Agent>
    </dc:creator>
   </cc:Work>
  </rdf:RDF>
 </metadata>
 <defs>
  <style type="text/css">*{stroke-linejoin: round; stroke-linecap: butt}</style>
 </defs>
 <g id="figure_1">
  <g id="patch_1">
   <path d="M 0 566.322599 
L 999.705 566.322599 
L 999.705 0 
L 0 0 
z
" style="fill: #ffffff"/>
  </g>
  <g id="axes_1">
   <g id="patch_2">
    <path d="M 42.575 507.688671 
L 992.505 507.688671 
L 992.505 22.7925 
L 42.575 22.7925 
z
" style="fill: #ffffff"/>
   </g>
   <g id="PolyCollection_1">
    <path d="M 189.376686 476.423435 
L 154.845133 476.423435 
L 152.648782 472.063939 
L 150.347072 467.704442 
L 147.955197 463.344945 
L 145.487993 458.985448 
L 142.959014 454.625951 
L 140.379744 450.266454 
L 137.759043 445.906957 
L 135.102904 441.54746 
L 132.414574 437.187963 
L 129.695038 432.828466 
L 126.943852 428.468969 
L 124.160245 424.109472 
L 121.344393 419.749975 
L 118.498736 415.390478 
L 115.629191 411.030981 
L 112.746141 406.671484 
L 109.865087 402.311987 
L 107.006872 397.95249 
L 104.197467 393.592993 
L 101.467309 389.233496 
L 98.850252 384.873999 
L 96.382221 380.514502 
L 94.099652 376.155005 
L 92.037854 371.795508 
L 90.229368 367.436011 
L 88.70243 363.076514 
L 87.4796 358.717017 
L 86.576601 354.35752 
L 86.00141 349.998023 
L 85.753636 345.638526 
L 85.824203 341.279029 
L 86.195366 336.919532 
L 86.841113 332.560035 
L 87.72795 328.200538 
L 88.816114 323.841041 
L 90.061179 319.481544 
L 91.416028 315.122047 
L 92.833095 310.76255 
L 94.266756 306.403054 
L 95.67569 302.043557 
L 97.025034 297.68406 
L 98.288122 293.324563 
L 99.447648 288.965066 
L 100.496095 284.605569 
L 101.435373 280.246072 
L 102.275656 275.886575 
L 103.033495 271.527078 
L 103.729379 267.167581 
L 104.384935 262.808084 
L 105.020054 258.448587 
L 105.650196 254.08909 
L 106.284144 249.729593 
L 106.922431 245.370096 
L 107.556593 241.010599 
L 108.169334 236.651102 
L 108.735618 232.291605 
L 109.22459 227.932108 
L 109.602195 223.572611 
L 109.834275 219.213114 
L 109.88991 214.853617 
L 109.744727 210.49412 
L 109.383915 206.134623 
L 108.804705 201.775126 
L 108.018105 197.415629 
L 107.049721 193.056132 
L 105.939585 188.696635 
L 104.740943 184.337138 
L 103.518067 179.977641 
L 102.343199 175.618144 
L 101.292824 171.258647 
L 100.44352 166.89915 
L 99.867662 162.539653 
L 99.629302 158.180156 
L 99.780517 153.820659 
L 100.358488 149.461162 
L 101.383539 145.101665 
L 102.858253 140.742168 
L 104.767713 136.382672 
L 107.080834 132.023175 
L 109.75262 127.663678 
L 112.727168 123.304181 
L 115.941129 118.944684 
L 119.327365 114.585187 
L 122.8185 110.22569 
L 126.350138 105.866193 
L 129.863526 101.506696 
L 133.307547 97.147199 
L 136.639977 92.787702 
L 139.828004 88.428205 
L 142.848095 84.068708 
L 145.68531 79.709211 
L 148.332213 75.349714 
L 150.787539 70.990217 
L 153.054752 66.63072 
L 155.14065 62.271223 
L 157.054093 57.911726 
L 158.804949 53.552229 
L 160.403284 49.192732 
L 161.858803 44.833235 
L 182.363015 44.833235 
L 182.363015 44.833235 
L 183.818535 49.192732 
L 185.416869 53.552229 
L 187.167725 57.911726 
L 189.081168 62.271223 
L 191.167066 66.63072 
L 193.43428 70.990217 
L 195.889605 75.349714 
L 198.536508 79.709211 
L 201.373723 84.068708 
L 204.393814 88.428205 
L 207.581841 92.787702 
L 210.914271 97.147199 
L 214.358292 101.506696 
L 217.87168 105.866193 
L 221.403318 110.22569 
L 224.894453 114.585187 
L 228.280689 118.944684 
L 231.49465 123.304181 
L 234.469198 127.663678 
L 237.140985 132.023175 
L 239.454105 136.382672 
L 241.363565 140.742168 
L 242.838279 145.101665 
L 243.86333 149.461162 
L 244.441301 153.820659 
L 244.592516 158.180156 
L 244.354156 162.539653 
L 243.778298 166.89915 
L 242.928994 171.258647 
L 241.878619 175.618144 
L 240.703751 179.977641 
L 239.480875 184.337138 
L 238.282233 188.696635 
L 237.172097 193.056132 
L 236.203713 197.415629 
L 235.417113 201.775126 
L 234.837903 206.134623 
L 234.477091 210.49412 
L 234.331908 214.853617 
L 234.387543 219.213114 
L 234.619624 223.572611 
L 234.997228 227.932108 
L 235.4862 232.291605 
L 236.052484 236.651102 
L 236.665225 241.010599 
L 237.299387 245.370096 
L 237.937674 249.729593 
L 238.571622 254.08909 
L 239.201764 258.448587 
L 239.836883 262.808084 
L 240.49244 267.167581 
L 241.188323 271.527078 
L 241.946163 275.886575 
L 242.786445 280.246072 
L 243.725723 284.605569 
L 244.77417 288.965066 
L 245.933696 293.324563 
L 247.196785 297.68406 
L 248.546128 302.043557 
L 249.955062 306.403054 
L 251.388723 310.76255 
L 252.805791 315.122047 
L 254.160639 319.481544 
L 255.405704 323.841041 
L 256.493868 328.200538 
L 257.380705 332.560035 
L 258.026452 336.919532 
L 258.397615 341.279029 
L 258.468182 345.638526 
L 258.220409 349.998023 
L 257.645218 354.35752 
L 256.742218 358.717017 
L 255.519388 363.076514 
L 253.99245 367.436011 
L 252.183964 371.795508 
L 250.122166 376.155005 
L 247.839598 380.514502 
L 245.371566 384.873999 
L 242.75451 389.233496 
L 240.024351 393.592993 
L 237.214946 397.95249 
L 234.356731 402.311987 
L 231.475677 406.671484 
L 228.592627 411.030981 
L 225.723082 415.390478 
L 222.877425 419.749975 
L 220.061573 424.109472 
L 217.277966 428.468969 
L 214.52678 432.828466 
L 211.807244 437.187963 
L 209.118914 441.54746 
L 206.462775 445.906957 
L 203.842074 450.266454 
L 201.262804 454.625951 
L 198.733826 458.985448 
L 196.266621 463.344945 
L 193.874746 467.704442 
L 191.573036 472.063939 
L 189.376686 476.423435 
z
" clip-path="url(#pcc52f23e0b)" style="fill: #1f77b4; fill-opacity: 0.7"/>
   </g>
   <g id="PolyCollection_2">
    <path d="M 545.100363 479.40719 
L 489.979637 479.40719 
L 487.066478 475.335955 
L 484.14135 471.264721 
L 481.243245 467.193487 
L 478.410542 463.122252 
L 475.67987 459.051018 
L 473.085145 454.979783 
L 470.656794 450.908549 
L 468.421191 446.837314 
L 466.400277 442.76608 
L 464.611336 438.694845 
L 463.066876 434.623611 
L 461.774582 430.552376 
L 460.737298 426.481142 
L 459.953012 422.409907 
L 459.414853 418.338673 
L 459.11109 414.267438 
L 459.025189 410.196204 
L 459.13595 406.124969 
L 459.417783 402.053735 
L 459.841155 397.982501 
L 460.373261 393.911266 
L 460.978897 389.840032 
L 461.621562 385.768797 
L 462.264718 381.697563 
L 462.87316 377.626328 
L 463.414403 373.555094 
L 463.859983 369.483859 
L 464.18656 365.412625 
L 464.376738 361.34139 
L 464.419494 357.270156 
L 464.310179 353.198921 
L 464.050069 349.127687 
L 463.645493 345.056452 
L 463.106599 340.985218 
L 462.445883 336.913983 
L 461.676609 332.842749 
L 460.811287 328.771514 
L 459.860366 324.70028 
L 458.831289 320.629046 
L 457.728024 316.557811 
L 456.551126 312.486577 
L 455.298352 308.415342 
L 453.965758 304.344108 
L 452.54918 300.272873 
L 451.045934 296.201639 
L 449.456548 292.130404 
L 447.786339 288.05917 
L 446.046645 283.987935 
L 444.255579 279.916701 
L 442.438208 275.845466 
L 440.626133 271.774232 
L 438.856512 267.702997 
L 437.170612 263.631763 
L 435.612044 259.560528 
L 434.224834 255.489294 
L 433.05151 251.41806 
L 432.131341 247.346825 
L 431.498858 243.275591 
L 431.182727 239.204356 
L 431.204993 235.133122 
L 431.580697 231.061887 
L 432.317808 226.990653 
L 433.417418 222.919418 
L 434.874115 218.848184 
L 436.67649 214.776949 
L 438.807702 210.705715 
L 441.246075 206.63448 
L 443.965704 202.563246 
L 446.937049 198.492011 
L 450.127517 194.420777 
L 453.502033 190.349542 
L 457.023605 186.278308 
L 460.653886 182.207073 
L 464.353744 178.135839 
L 468.083843 174.064605 
L 471.805256 169.99337 
L 475.480104 165.922136 
L 479.07224 161.850901 
L 482.547955 157.779667 
L 485.876707 153.708432 
L 489.031827 149.637198 
L 491.991181 145.565963 
L 494.737717 141.494729 
L 497.25987 137.423494 
L 499.551757 133.35226 
L 501.613146 129.281025 
L 503.449172 125.209791 
L 505.069818 121.138556 
L 506.48917 117.067322 
L 507.724515 112.996087 
L 508.795333 108.924853 
L 509.722254 104.853619 
L 510.52605 100.782384 
L 511.226731 96.71115 
L 511.842785 92.639915 
L 512.390611 88.568681 
L 512.884144 84.497446 
L 513.334687 80.426212 
L 513.750922 76.354977 
L 521.329078 76.354977 
L 521.329078 76.354977 
L 521.745313 80.426212 
L 522.195856 84.497446 
L 522.689389 88.568681 
L 523.237215 92.639915 
L 523.853269 96.71115 
L 524.55395 100.782384 
L 525.357746 104.853619 
L 526.284667 108.924853 
L 527.355485 112.996087 
L 528.59083 117.067322 
L 530.010182 121.138556 
L 531.630828 125.209791 
L 533.466854 129.281025 
L 535.528243 133.35226 
L 537.82013 137.423494 
L 540.342283 141.494729 
L 543.088819 145.565963 
L 546.048173 149.637198 
L 549.203293 153.708432 
L 552.532045 157.779667 
L 556.00776 161.850901 
L 559.599896 165.922136 
L 563.274744 169.99337 
L 566.996157 174.064605 
L 570.726256 178.135839 
L 574.426114 182.207073 
L 578.056395 186.278308 
L 581.577967 190.349542 
L 584.952483 194.420777 
L 588.142951 198.492011 
L 591.114296 202.563246 
L 593.833925 206.63448 
L 596.272298 210.705715 
L 598.40351 214.776949 
L 600.205885 218.848184 
L 601.662582 222.919418 
L 602.762192 226.990653 
L 603.499303 231.061887 
L 603.875007 235.133122 
L 603.897273 239.204356 
L 603.581142 243.275591 
L 602.948659 247.346825 
L 602.02849 251.41806 
L 600.855166 255.489294 
L 599.467956 259.560528 
L 597.909388 263.631763 
L 596.223488 267.702997 
L 594.453867 271.774232 
L 592.641792 275.845466 
L 590.824421 279.916701 
L 589.033355 283.987935 
L 587.293661 288.05917 
L 585.623452 292.130404 
L 584.034066 296.201639 
L 582.53082 300.272873 
L 581.114242 304.344108 
L 579.781648 308.415342 
L 578.528874 312.486577 
L 577.351976 316.557811 
L 576.248711 320.629046 
L 575.219634 324.70028 
L 574.268713 328.771514 
L 573.403391 332.842749 
L 572.634117 336.913983 
L 571.973401 340.985218 
L 571.434507 345.056452 
L 571.029931 349.127687 
L 570.769821 353.198921 
L 570.660506 357.270156 
L 570.703262 361.34139 
L 570.89344 365.412625 
L 571.220017 369.483859 
L 571.665597 373.555094 
L 572.20684 377.626328 
L 572.815282 381.697563 
L 573.458438 385.768797 
L 574.101103 389.840032 
L 574.706739 393.911266 
L 575.238845 397.982501 
L 575.662217 402.053735 
L 575.94405 406.124969 
L 576.054811 410.196204 
L 575.96891 414.267438 
L 575.665147 418.338673 
L 575.126988 422.409907 
L 574.342702 426.481142 
L 573.305418 430.552376 
L 572.013124 434.623611 
L 570.468664 438.694845 
L 568.679723 442.76608 
L 566.658809 446.837314 
L 564.423206 450.908549 
L 561.994855 454.979783 
L 559.40013 459.051018 
L 556.669458 463.122252 
L 553.836755 467.193487 
L 550.93865 471.264721 
L 548.013522 475.335955 
L 545.100363 479.40719 
z
" clip-path="url(#pcc52f23e0b)" style="fill: #ff7f0e; fill-opacity: 0.7"/>
   </g>
   <g id="PolyCollection_3">
    <path d="M 894.657446 485.647936 
L 831.280736 485.647936 
L 828.009971 481.263231 
L 824.80612 476.878526 
L 821.729846 472.493821 
L 818.837985 468.109116 
L 816.180766 463.724411 
L 813.799363 459.339706 
L 811.723928 454.955001 
L 809.972212 450.570296 
L 808.548845 446.185591 
L 807.445298 441.800886 
L 806.640505 437.416181 
L 806.102106 433.031476 
L 805.788208 428.646771 
L 805.649597 424.262066 
L 805.632241 419.877361 
L 805.679987 415.492656 
L 805.737287 411.107951 
L 805.751835 406.723246 
L 805.676949 402.338541 
L 805.473603 397.953836 
L 805.111976 393.569131 
L 804.57246 389.184426 
L 803.846069 384.799721 
L 802.934257 380.415016 
L 801.848165 376.030311 
L 800.607391 371.645606 
L 799.238361 367.260901 
L 797.772452 362.876196 
L 796.243983 358.491491 
L 794.688228 354.106786 
L 793.139566 349.722081 
L 791.629864 345.337376 
L 790.187185 340.952671 
L 788.834842 336.567966 
L 787.590816 332.183261 
L 786.467501 327.798556 
L 785.471746 323.413851 
L 784.605112 319.029146 
L 783.864282 314.644441 
L 783.241575 310.259736 
L 782.725493 305.875031 
L 782.301304 301.490326 
L 781.951645 297.105621 
L 781.65718 292.720916 
L 781.397353 288.336211 
L 781.151266 283.951506 
L 780.898752 279.566801 
L 780.621616 275.182097 
L 780.305056 270.797392 
L 779.939183 266.412687 
L 779.520545 262.027982 
L 779.053497 257.643277 
L 778.551267 253.258572 
L 778.036526 248.873867 
L 777.541332 244.489162 
L 777.106316 240.104457 
L 776.779076 235.719752 
L 776.611818 231.335047 
L 776.65836 226.950342 
L 776.970707 222.565637 
L 777.595468 218.180932 
L 778.570426 213.796227 
L 779.921567 209.411522 
L 781.660864 205.026817 
L 783.785025 200.642112 
L 786.275333 196.257407 
L 789.098597 191.872702 
L 792.209118 187.487997 
L 795.551495 183.103292 
L 799.063985 178.718587 
L 802.682138 174.333882 
L 806.342375 169.949177 
L 809.985241 165.564472 
L 813.558086 161.179767 
L 817.017033 156.795062 
L 820.32813 152.410357 
L 823.467711 148.025652 
L 826.422011 143.640947 
L 829.186164 139.256242 
L 831.76274 134.871537 
L 834.159999 130.486832 
L 836.390029 126.102127 
L 838.466949 121.717422 
L 840.405303 117.332717 
L 842.218764 112.948012 
L 843.919209 108.563307 
L 845.516201 104.178602 
L 847.016854 99.793897 
L 848.426035 95.409192 
L 849.746812 91.024487 
L 850.981064 86.639782 
L 852.130124 82.255077 
L 853.195384 77.870372 
L 854.17876 73.485667 
L 855.082987 69.100962 
L 855.911715 64.716257 
L 856.669428 60.331552 
L 857.361215 55.946847 
L 857.992462 51.562142 
L 867.945719 51.562142 
L 867.945719 51.562142 
L 868.576967 55.946847 
L 869.268754 60.331552 
L 870.026467 64.716257 
L 870.855195 69.100962 
L 871.759422 73.485667 
L 872.742798 77.870372 
L 873.808058 82.255077 
L 874.957118 86.639782 
L 876.19137 91.024487 
L 877.512147 95.409192 
L 878.921328 99.793897 
L 880.421981 104.178602 
L 882.018973 108.563307 
L 883.719418 112.948012 
L 885.532878 117.332717 
L 887.471233 121.717422 
L 889.548153 126.102127 
L 891.778183 130.486832 
L 894.175442 134.871537 
L 896.752018 139.256242 
L 899.516171 143.640947 
L 902.470471 148.025652 
L 905.610052 152.410357 
L 908.921149 156.795062 
L 912.380096 161.179767 
L 915.952941 165.564472 
L 919.595807 169.949177 
L 923.256044 174.333882 
L 926.874197 178.718587 
L 930.386687 183.103292 
L 933.729064 187.487997 
L 936.839585 191.872702 
L 939.662848 196.257407 
L 942.153157 200.642112 
L 944.277318 205.026817 
L 946.016615 209.411522 
L 947.367756 213.796227 
L 948.342713 218.180932 
L 948.967475 222.565637 
L 949.279822 226.950342 
L 949.326364 231.335047 
L 949.159106 235.719752 
L 948.831866 240.104457 
L 948.39685 244.489162 
L 947.901656 248.873867 
L 947.386915 253.258572 
L 946.884684 257.643277 
L 946.417637 262.027982 
L 945.998999 266.412687 
L 945.633126 270.797392 
L 945.316566 275.182097 
L 945.039429 279.566801 
L 944.786915 283.951506 
L 944.540829 288.336211 
L 944.281001 292.720916 
L 943.986537 297.105621 
L 943.636878 301.490326 
L 943.212689 305.875031 
L 942.696607 310.259736 
L 942.073899 314.644441 
L 941.33307 319.029146 
L 940.466435 323.413851 
L 939.470681 327.798556 
L 938.347366 332.183261 
L 937.10334 336.567966 
L 935.750997 340.952671 
L 934.308318 345.337376 
L 932.798616 349.722081 
L 931.249953 354.106786 
L 929.694199 358.491491 
L 928.16573 362.876196 
L 926.699821 367.260901 
L 925.330791 371.645606 
L 924.090017 376.030311 
L 923.003925 380.415016 
L 922.092112 384.799721 
L 921.365722 389.184426 
L 920.826206 393.569131 
L 920.464579 397.953836 
L 920.261233 402.338541 
L 920.186347 406.723246 
L 920.200895 411.107951 
L 920.258195 415.492656 
L 920.30594 419.877361 
L 920.288585 424.262066 
L 920.149974 428.646771 
L 919.836076 433.031476 
L 919.297676 437.416181 
L 918.492884 441.800886 
L 917.389337 446.185591 
L 915.96597 450.570296 
L 914.214253 454.955001 
L 912.138818 459.339706 
L 909.757416 463.724411 
L 907.100197 468.109116 
L 904.208336 472.493821 
L 901.132062 476.878526 
L 897.928211 481.263231 
L 894.657446 485.647936 
z
" clip-path="url(#pcc52f23e0b)" style="fill: #2ca02c; fill-opacity: 0.7"/>
   </g>
   <g id="matplotlib.axis_1">
    <g id="xtick_1">
     <g id="line2d_1">
      <defs>
       <path id="m34037e0c39" d="M 0 0 
L 0 3.5 
" style="stroke: #000000; stroke-width: 0.8"/>
      </defs>
      <g>
       <use xlink:href="#m34037e0c39" x="172.110909" y="507.688671" style="stroke: #000000; stroke-width: 0.8"/>
      </g>
     </g>
     <g id="text_1">
      <!-- original HADNN -->
      <g transform="translate(135.914051 542.185838) rotate(-15) scale(0.1 -0.1)">
       <defs>
        <path id="MicrosoftJhengHeiRegular-6f" d="M 331 1684 
Q 331 2547 801 3042 
Q 1272 3538 2081 3538 
Q 2844 3538 3276 3059 
Q 3709 2581 3709 1738 
Q 3709 919 3240 419 
Q 2772 -81 2000 -81 
Q 1253 -81 792 400 
Q 331 881 331 1684 
z
M 863 1706 
Q 863 1094 1183 728 
Q 1503 363 2038 363 
Q 2581 363 2879 719 
Q 3178 1075 3178 1719 
Q 3178 2378 2883 2736 
Q 2588 3094 2038 3094 
Q 1500 3094 1181 2723 
Q 863 2353 863 1706 
z
" transform="scale(0.015625)"/>
        <path id="MicrosoftJhengHeiRegular-72" d="M 2341 2922 
Q 2197 3031 1925 3031 
Q 1559 3031 1323 2682 
Q 1088 2334 1088 1769 
L 1088 0 
L 566 0 
L 566 3456 
L 1088 3456 
L 1088 2741 
L 1103 2741 
Q 1222 3109 1465 3312 
Q 1709 3516 2003 3516 
Q 2225 3516 2341 3469 
L 2341 2922 
z
" transform="scale(0.015625)"/>
        <path id="MicrosoftJhengHeiRegular-69" d="M 497 4700 
Q 497 4847 595 4948 
Q 694 5050 834 5050 
Q 981 5050 1082 4947 
Q 1184 4844 1184 4700 
Q 1184 4563 1082 4459 
Q 981 4356 834 4356 
Q 688 4356 592 4456 
Q 497 4556 497 4700 
z
M 569 0 
L 569 3456 
L 1088 3456 
L 1088 0 
L 569 0 
z
" transform="scale(0.015625)"/>
        <path id="MicrosoftJhengHeiRegular-67" d="M 3488 272 
Q 3488 -1628 1688 -1628 
Q 1050 -1628 566 -1381 
L 566 -850 
Q 1150 -1175 1684 -1175 
Q 2969 -1175 2969 203 
L 2969 588 
L 2956 588 
Q 2550 -81 1763 -81 
Q 1113 -81 722 384 
Q 331 850 331 1616 
Q 331 2500 759 3019 
Q 1188 3538 1913 3538 
Q 2616 3538 2956 2972 
L 2969 2972 
L 2969 3456 
L 3488 3456 
L 3488 272 
z
M 2969 2081 
Q 2969 2503 2678 2798 
Q 2388 3094 1978 3094 
Q 1459 3094 1161 2712 
Q 863 2331 863 1653 
Q 863 1066 1150 714 
Q 1438 363 1897 363 
Q 2363 363 2666 698 
Q 2969 1034 2969 1556 
L 2969 2081 
z
" transform="scale(0.015625)"/>
        <path id="MicrosoftJhengHeiRegular-6e" d="M 3406 0 
L 2884 0 
L 2884 1975 
Q 2884 3094 2066 3094 
Q 1638 3094 1363 2773 
Q 1088 2453 1088 1972 
L 1088 0 
L 566 0 
L 566 3456 
L 1088 3456 
L 1088 2878 
L 1103 2878 
Q 1491 3538 2238 3538 
Q 2806 3538 3106 3172 
Q 3406 2806 3406 2113 
L 3406 0 
z
" transform="scale(0.015625)"/>
        <path id="MicrosoftJhengHeiRegular-61" d="M 647 3209 
Q 1156 3538 1813 3538 
Q 3016 3538 3016 2259 
L 3016 0 
L 2494 0 
L 2494 544 
L 2475 544 
Q 2116 -81 1413 -81 
Q 900 -81 604 192 
Q 309 466 309 916 
Q 309 1875 1447 2038 
L 2491 2188 
Q 2491 3088 1772 3088 
Q 1144 3088 647 2659 
L 647 3209 
z
M 1644 1641 
Q 1200 1581 1026 1426 
Q 853 1272 853 950 
Q 853 691 1039 528 
Q 1225 366 1525 366 
Q 1941 366 2216 662 
Q 2491 959 2491 1403 
L 2491 1753 
L 1644 1641 
z
" transform="scale(0.015625)"/>
        <path id="MicrosoftJhengHeiRegular-6c" d="M 569 0 
L 569 5116 
L 1088 5116 
L 1088 0 
L 569 0 
z
" transform="scale(0.015625)"/>
        <path id="MicrosoftJhengHeiRegular-20" transform="scale(0.015625)"/>
        <path id="MicrosoftJhengHeiRegular-48" d="M 4241 0 
L 3709 0 
L 3709 2222 
L 1172 2222 
L 1172 0 
L 641 0 
L 641 4841 
L 1172 4841 
L 1172 2703 
L 3709 2703 
L 3709 4841 
L 4241 4841 
L 4241 0 
z
" transform="scale(0.015625)"/>
        <path id="MicrosoftJhengHeiRegular-41" d="M 4353 0 
L 3763 0 
L 3238 1375 
L 1163 1375 
L 672 0 
L 78 0 
L 1941 4841 
L 2481 4841 
L 4353 0 
z
M 3056 1863 
L 2281 3953 
Q 2250 4041 2209 4272 
L 2194 4272 
Q 2159 4059 2116 3953 
L 1350 1863 
L 3056 1863 
z
" transform="scale(0.015625)"/>
        <path id="MicrosoftJhengHeiRegular-44" d="M 641 0 
L 641 4841 
L 1953 4841 
Q 4506 4841 4506 2481 
Q 4506 1350 3818 675 
Q 3131 0 1903 0 
L 641 0 
z
M 1172 4353 
L 1172 488 
L 1909 488 
Q 2875 488 3412 1006 
Q 3950 1525 3950 2466 
Q 3950 4353 1941 4353 
L 1172 4353 
z
" transform="scale(0.015625)"/>
        <path id="MicrosoftJhengHeiRegular-4e" d="M 4513 0 
L 3844 0 
L 1319 3909 
Q 1234 4047 1169 4200 
L 1150 4200 
Q 1175 4050 1175 3550 
L 1175 0 
L 641 0 
L 641 4841 
L 1347 4841 
L 3803 972 
Q 3991 672 4000 641 
L 4013 641 
Q 3978 881 3978 1369 
L 3978 4841 
L 4513 4841 
L 4513 0 
z
" transform="scale(0.015625)"/>
       </defs>
       <use xlink:href="#MicrosoftJhengHeiRegular-6f"/>
       <use xlink:href="#MicrosoftJhengHeiRegular-72" x="63.085938"/>
       <use xlink:href="#MicrosoftJhengHeiRegular-69" x="100.292969"/>
       <use xlink:href="#MicrosoftJhengHeiRegular-67" x="126.220703"/>
       <use xlink:href="#MicrosoftJhengHeiRegular-69" x="189.599609"/>
       <use xlink:href="#MicrosoftJhengHeiRegular-6e" x="215.527344"/>
       <use xlink:href="#MicrosoftJhengHeiRegular-61" x="276.367188"/>
       <use xlink:href="#MicrosoftJhengHeiRegular-6c" x="331.103516"/>
       <use xlink:href="#MicrosoftJhengHeiRegular-20" x="357.03125"/>
       <use xlink:href="#MicrosoftJhengHeiRegular-48" x="382.03125"/>
       <use xlink:href="#MicrosoftJhengHeiRegular-41" x="458.300781"/>
       <use xlink:href="#MicrosoftJhengHeiRegular-44" x="527.587891"/>
       <use xlink:href="#MicrosoftJhengHeiRegular-4e" x="603.076172"/>
       <use xlink:href="#MicrosoftJhengHeiRegular-4e" x="683.59375"/>
      </g>
     </g>
    </g>
    <g id="xtick_2">
     <g id="line2d_2">
      <g>
       <use xlink:href="#m34037e0c39" x="517.54" y="507.688671" style="stroke: #000000; stroke-width: 0.8"/>
      </g>
     </g>
     <g id="text_2">
      <!-- mlp -->
      <g transform="translate(509.473403 527.114886) rotate(-15) scale(0.1 -0.1)">
       <defs>
        <path id="MicrosoftJhengHeiRegular-6d" d="M 5438 0 
L 4916 0 
L 4916 1984 
Q 4916 2588 4733 2841 
Q 4550 3094 4128 3094 
Q 3775 3094 3519 2762 
Q 3263 2431 3263 1975 
L 3263 0 
L 2744 0 
L 2744 2056 
Q 2744 3094 1941 3094 
Q 1572 3094 1330 2778 
Q 1088 2463 1088 1975 
L 1088 0 
L 566 0 
L 566 3456 
L 1088 3456 
L 1088 2909 
L 1103 2909 
Q 1466 3538 2172 3538 
Q 2509 3538 2779 3339 
Q 3050 3141 3147 2816 
Q 3531 3538 4297 3538 
Q 5438 3538 5438 2128 
L 5438 0 
z
" transform="scale(0.015625)"/>
        <path id="MicrosoftJhengHeiRegular-70" d="M 1088 506 
L 1088 -1591 
L 566 -1591 
L 566 3456 
L 1088 3456 
L 1088 2844 
L 1103 2844 
Q 1513 3538 2300 3538 
Q 2959 3538 3340 3077 
Q 3722 2616 3722 1828 
Q 3722 966 3295 442 
Q 2869 -81 2141 -81 
Q 1466 -81 1103 506 
L 1088 506 
z
M 1088 1400 
Q 1088 966 1378 664 
Q 1669 363 2094 363 
Q 2603 363 2895 756 
Q 3188 1150 3188 1844 
Q 3188 2428 2913 2761 
Q 2638 3094 2181 3094 
Q 1706 3094 1397 2758 
Q 1088 2422 1088 1900 
L 1088 1400 
z
" transform="scale(0.015625)"/>
       </defs>
       <use xlink:href="#MicrosoftJhengHeiRegular-6d"/>
       <use xlink:href="#MicrosoftJhengHeiRegular-6c" x="92.626953"/>
       <use xlink:href="#MicrosoftJhengHeiRegular-70" x="118.554688"/>
      </g>
     </g>
    </g>
    <g id="xtick_3">
     <g id="line2d_3">
      <g>
       <use xlink:href="#m34037e0c39" x="862.969091" y="507.688671" style="stroke: #000000; stroke-width: 0.8"/>
      </g>
     </g>
     <g id="text_3">
      <!-- hadnn+rf -->
      <g transform="translate(842.097185 533.97723) rotate(-15) scale(0.1 -0.1)">
       <defs>
        <path id="MicrosoftJhengHeiRegular-68" d="M 3406 0 
L 2888 0 
L 2888 1994 
Q 2888 3094 2066 3094 
Q 1650 3094 1369 2775 
Q 1088 2456 1088 1956 
L 1088 0 
L 566 0 
L 566 5116 
L 1088 5116 
L 1088 2878 
L 1103 2878 
Q 1500 3538 2241 3538 
Q 3406 3538 3406 2128 
L 3406 0 
z
" transform="scale(0.015625)"/>
        <path id="MicrosoftJhengHeiRegular-64" d="M 3488 0 
L 2969 0 
L 2969 594 
L 2956 594 
Q 2572 -81 1763 -81 
Q 1106 -81 718 386 
Q 331 853 331 1647 
Q 331 2497 765 3017 
Q 1200 3538 1913 3538 
Q 2625 3538 2956 2972 
L 2969 2972 
L 2969 5116 
L 3488 5116 
L 3488 0 
z
M 2969 2081 
Q 2969 2506 2680 2800 
Q 2391 3094 1972 3094 
Q 1453 3094 1158 2711 
Q 863 2328 863 1675 
Q 863 1078 1145 720 
Q 1428 363 1906 363 
Q 2366 363 2667 698 
Q 2969 1034 2969 1556 
L 2969 2081 
z
" transform="scale(0.015625)"/>
        <path id="MicrosoftJhengHeiRegular-2b" d="M 3947 1797 
L 2578 1797 
L 2578 434 
L 2147 434 
L 2147 1797 
L 784 1797 
L 784 2234 
L 2147 2234 
L 2147 3597 
L 2578 3597 
L 2578 2234 
L 3947 2234 
L 3947 1797 
z
" transform="scale(0.015625)"/>
        <path id="MicrosoftJhengHeiRegular-66" d="M 2241 4653 
Q 2075 4744 1872 4744 
Q 1288 4744 1288 4000 
L 1288 3456 
L 2097 3456 
L 2097 3006 
L 1288 3006 
L 1288 0 
L 772 0 
L 772 3006 
L 181 3006 
L 181 3456 
L 772 3456 
L 772 4025 
Q 772 4572 1083 4881 
Q 1394 5191 1847 5191 
Q 2100 5191 2241 5131 
L 2241 4653 
z
" transform="scale(0.015625)"/>
       </defs>
       <use xlink:href="#MicrosoftJhengHeiRegular-68"/>
       <use xlink:href="#MicrosoftJhengHeiRegular-61" x="60.888672"/>
       <use xlink:href="#MicrosoftJhengHeiRegular-64" x="115.625"/>
       <use xlink:href="#MicrosoftJhengHeiRegular-6e" x="179.003906"/>
       <use xlink:href="#MicrosoftJhengHeiRegular-6e" x="239.84375"/>
       <use xlink:href="#MicrosoftJhengHeiRegular-2b" x="300.683594"/>
       <use xlink:href="#MicrosoftJhengHeiRegular-72" x="374.414062"/>
       <use xlink:href="#MicrosoftJhengHeiRegular-66" x="413.621094"/>
      </g>
     </g>
    </g>
    <g id="text_4">
     <!-- 模型 -->
     <g transform="translate(507.54 556.636662) scale(0.1 -0.1)">
      <defs>
       <path id="MicrosoftJhengHeiRegular-6a21" d="M 5978 4441 
L 5063 4441 
L 5063 4078 
L 4744 4078 
L 4744 4441 
L 4269 4441 
L 4269 4744 
L 4744 4744 
L 4744 5275 
L 5063 5275 
L 5063 4744 
L 5978 4744 
L 5978 4441 
z
M 4025 4441 
L 3603 4441 
L 3603 4078 
L 3263 4078 
L 3263 4441 
L 2322 4441 
L 2322 4744 
L 3263 4744 
L 3263 5275 
L 3603 5275 
L 3603 4744 
L 4025 4744 
L 4025 4441 
z
M 2431 2444 
L 2181 2234 
Q 1878 2763 1703 2994 
L 1703 -341 
L 1375 -341 
L 1375 2816 
Q 1056 2041 628 1422 
L 403 1672 
Q 984 2497 1369 3634 
L 500 3634 
L 500 3950 
L 1375 3950 
L 1375 5275 
L 1703 5275 
L 1703 3950 
L 2344 3950 
L 2344 3634 
L 1703 3634 
L 1703 3494 
Q 2128 2969 2431 2444 
z
M 5947 991 
L 4109 991 
Q 3838 -25 2369 -341 
L 2181 -44 
Q 3481 191 3775 991 
L 2247 991 
L 2247 1300 
L 3847 1300 
Q 3909 1647 3909 1856 
L 2747 1856 
L 2747 3834 
L 5569 3834 
L 5569 1856 
L 4244 1856 
Q 4234 1619 4184 1300 
L 5947 1300 
L 5947 991 
z
M 5253 3016 
L 5253 3531 
L 3059 3531 
L 3059 3016 
L 5253 3016 
z
M 5253 2156 
L 5253 2719 
L 3059 2719 
L 3059 2156 
L 5253 2156 
z
M 6028 -63 
L 5825 -325 
Q 5241 103 4319 531 
L 4531 788 
Q 5369 400 6028 -63 
z
" transform="scale(0.015625)"/>
       <path id="MicrosoftJhengHeiRegular-578b" d="M 5703 2291 
Q 5703 2109 5600 1992 
Q 5497 1875 5369 1842 
Q 5241 1809 4888 1809 
Q 4700 1809 4422 1819 
L 4281 2169 
Q 4603 2141 4881 2141 
Q 5147 2141 5215 2158 
Q 5284 2175 5329 2256 
Q 5375 2338 5375 2444 
L 5375 5234 
L 5703 5234 
L 5703 2291 
z
M 3834 3406 
L 2919 3406 
L 2919 1959 
L 2591 1959 
L 2591 3406 
L 1734 3406 
Q 1663 2456 819 1791 
L 550 2016 
Q 1347 2647 1409 3406 
L 469 3406 
L 469 3731 
L 1428 3731 
Q 1459 4306 1459 4775 
L 659 4775 
L 659 5088 
L 3750 5088 
L 3750 4775 
L 2919 4775 
L 2919 3731 
L 3834 3731 
L 3834 3406 
z
M 2591 3731 
L 2591 4775 
L 1791 4775 
Q 1791 4397 1753 3731 
L 2591 3731 
z
M 4594 2816 
L 4269 2816 
L 4269 4953 
L 4594 4953 
L 4594 2816 
z
M 5991 -184 
L 428 -184 
L 428 134 
L 3059 134 
L 3059 1038 
L 844 1038 
L 844 1350 
L 3059 1350 
L 3059 2022 
L 3391 2022 
L 3391 1350 
L 5563 1350 
L 5563 1038 
L 3391 1038 
L 3391 134 
L 5991 134 
L 5991 -184 
z
" transform="scale(0.015625)"/>
      </defs>
      <use xlink:href="#MicrosoftJhengHeiRegular-6a21"/>
      <use xlink:href="#MicrosoftJhengHeiRegular-578b" x="100"/>
     </g>
    </g>
   </g>
   <g id="matplotlib.axis_2">
    <g id="ytick_1">
     <g id="line2d_4">
      <path d="M 42.575 497.559755 
L 992.505 497.559755 
" clip-path="url(#pcc52f23e0b)" style="fill: none; stroke-dasharray: 2.96,1.28; stroke-dashoffset: 0; stroke: #b0b0b0; stroke-opacity: 0.7; stroke-width: 0.8"/>
     </g>
     <g id="line2d_5">
      <defs>
       <path id="md91dcbbb33" d="M 0 0 
L -3.5 0 
" style="stroke: #000000; stroke-width: 0.8"/>
      </defs>
      <g>
       <use xlink:href="#md91dcbbb33" x="42.575" y="497.559755" style="stroke: #000000; stroke-width: 0.8"/>
      </g>
     </g>
     <g id="text_5">
      <!-- 0.0 -->
      <g transform="translate(21.679688 501.55663) scale(0.1 -0.1)">
       <defs>
        <path id="MicrosoftJhengHeiRegular-30" d="M 294 2322 
Q 294 3603 711 4262 
Q 1128 4922 1916 4922 
Q 3425 4922 3425 2441 
Q 3425 1234 3011 576 
Q 2597 -81 1806 -81 
Q 1069 -81 681 550 
Q 294 1181 294 2322 
z
M 825 2350 
Q 825 363 1863 363 
Q 2891 363 2891 2378 
Q 2891 4475 1888 4475 
Q 825 4475 825 2350 
z
" transform="scale(0.015625)"/>
        <path id="MicrosoftJhengHeiRegular-2e" d="M 375 291 
Q 375 444 484 551 
Q 594 659 738 659 
Q 888 659 994 551 
Q 1100 444 1100 291 
Q 1100 141 992 33 
Q 884 -75 738 -75 
Q 594 -75 484 29 
Q 375 134 375 291 
z
" transform="scale(0.015625)"/>
       </defs>
       <use xlink:href="#MicrosoftJhengHeiRegular-30"/>
       <use xlink:href="#MicrosoftJhengHeiRegular-2e" x="57.958984"/>
       <use xlink:href="#MicrosoftJhengHeiRegular-30" x="81.005859"/>
      </g>
     </g>
    </g>
    <g id="ytick_2">
     <g id="line2d_6">
      <path d="M 42.575 426.989652 
L 992.505 426.989652 
" clip-path="url(#pcc52f23e0b)" style="fill: none; stroke-dasharray: 2.96,1.28; stroke-dashoffset: 0; stroke: #b0b0b0; stroke-opacity: 0.7; stroke-width: 0.8"/>
     </g>
     <g id="line2d_7">
      <g>
       <use xlink:href="#md91dcbbb33" x="42.575" y="426.989652" style="stroke: #000000; stroke-width: 0.8"/>
      </g>
     </g>
     <g id="text_6">
      <!-- 0.5 -->
      <g transform="translate(21.679688 430.986527) scale(0.1 -0.1)">
       <defs>
        <path id="MicrosoftJhengHeiRegular-35" d="M 553 684 
Q 1047 363 1559 363 
Q 2072 363 2394 658 
Q 2716 953 2716 1441 
Q 2716 1931 2394 2200 
Q 2072 2469 1466 2469 
Q 1275 2469 706 2431 
L 706 4841 
L 3025 4841 
L 3025 4366 
L 1203 4366 
L 1203 2916 
Q 1475 2931 1616 2931 
Q 2378 2931 2811 2548 
Q 3244 2166 3244 1472 
Q 3244 750 2775 334 
Q 2306 -81 1544 -81 
Q 875 -81 553 119 
L 553 684 
z
" transform="scale(0.015625)"/>
       </defs>
       <use xlink:href="#MicrosoftJhengHeiRegular-30"/>
       <use xlink:href="#MicrosoftJhengHeiRegular-2e" x="57.958984"/>
       <use xlink:href="#MicrosoftJhengHeiRegular-35" x="81.005859"/>
      </g>
     </g>
    </g>
    <g id="ytick_3">
     <g id="line2d_8">
      <path d="M 42.575 356.41955 
L 992.505 356.41955 
" clip-path="url(#pcc52f23e0b)" style="fill: none; stroke-dasharray: 2.96,1.28; stroke-dashoffset: 0; stroke: #b0b0b0; stroke-opacity: 0.7; stroke-width: 0.8"/>
     </g>
     <g id="line2d_9">
      <g>
       <use xlink:href="#md91dcbbb33" x="42.575" y="356.41955" style="stroke: #000000; stroke-width: 0.8"/>
      </g>
     </g>
     <g id="text_7">
      <!-- 1.0 -->
      <g transform="translate(21.679688 360.416425) scale(0.1 -0.1)">
       <defs>
        <path id="MicrosoftJhengHeiRegular-31" d="M 3313 0 
L 594 0 
L 594 466 
L 1694 466 
L 1694 4272 
L 566 3931 
L 566 4434 
L 2216 4950 
L 2216 466 
L 3313 466 
L 3313 0 
z
" transform="scale(0.015625)"/>
       </defs>
       <use xlink:href="#MicrosoftJhengHeiRegular-31"/>
       <use xlink:href="#MicrosoftJhengHeiRegular-2e" x="57.958984"/>
       <use xlink:href="#MicrosoftJhengHeiRegular-30" x="81.005859"/>
      </g>
     </g>
    </g>
    <g id="ytick_4">
     <g id="line2d_10">
      <path d="M 42.575 285.849447 
L 992.505 285.849447 
" clip-path="url(#pcc52f23e0b)" style="fill: none; stroke-dasharray: 2.96,1.28; stroke-dashoffset: 0; stroke: #b0b0b0; stroke-opacity: 0.7; stroke-width: 0.8"/>
     </g>
     <g id="line2d_11">
      <g>
       <use xlink:href="#md91dcbbb33" x="42.575" y="285.849447" style="stroke: #000000; stroke-width: 0.8"/>
      </g>
     </g>
     <g id="text_8">
      <!-- 1.5 -->
      <g transform="translate(21.679688 289.846322) scale(0.1 -0.1)">
       <use xlink:href="#MicrosoftJhengHeiRegular-31"/>
       <use xlink:href="#MicrosoftJhengHeiRegular-2e" x="57.958984"/>
       <use xlink:href="#MicrosoftJhengHeiRegular-35" x="81.005859"/>
      </g>
     </g>
    </g>
    <g id="ytick_5">
     <g id="line2d_12">
      <path d="M 42.575 215.279344 
L 992.505 215.279344 
" clip-path="url(#pcc52f23e0b)" style="fill: none; stroke-dasharray: 2.96,1.28; stroke-dashoffset: 0; stroke: #b0b0b0; stroke-opacity: 0.7; stroke-width: 0.8"/>
     </g>
     <g id="line2d_13">
      <g>
       <use xlink:href="#md91dcbbb33" x="42.575" y="215.279344" style="stroke: #000000; stroke-width: 0.8"/>
      </g>
     </g>
     <g id="text_9">
      <!-- 2.0 -->
      <g transform="translate(21.679688 219.276219) scale(0.1 -0.1)">
       <defs>
        <path id="MicrosoftJhengHeiRegular-32" d="M 3219 0 
L 322 0 
L 322 472 
L 1731 1891 
Q 2431 2597 2592 2914 
Q 2753 3231 2753 3588 
Q 2753 4016 2511 4247 
Q 2269 4478 1816 4478 
Q 1169 4478 572 3919 
L 572 4475 
Q 1131 4922 1884 4922 
Q 2509 4922 2886 4575 
Q 3263 4228 3263 3634 
Q 3263 3178 3014 2736 
Q 2766 2294 2075 1603 
L 947 488 
L 947 475 
L 3219 475 
L 3219 0 
z
" transform="scale(0.015625)"/>
       </defs>
       <use xlink:href="#MicrosoftJhengHeiRegular-32"/>
       <use xlink:href="#MicrosoftJhengHeiRegular-2e" x="57.958984"/>
       <use xlink:href="#MicrosoftJhengHeiRegular-30" x="81.005859"/>
      </g>
     </g>
    </g>
    <g id="ytick_6">
     <g id="line2d_14">
      <path d="M 42.575 144.709242 
L 992.505 144.709242 
" clip-path="url(#pcc52f23e0b)" style="fill: none; stroke-dasharray: 2.96,1.28; stroke-dashoffset: 0; stroke: #b0b0b0; stroke-opacity: 0.7; stroke-width: 0.8"/>
     </g>
     <g id="line2d_15">
      <g>
       <use xlink:href="#md91dcbbb33" x="42.575" y="144.709242" style="stroke: #000000; stroke-width: 0.8"/>
      </g>
     </g>
     <g id="text_10">
      <!-- 2.5 -->
      <g transform="translate(21.679688 148.706117) scale(0.1 -0.1)">
       <use xlink:href="#MicrosoftJhengHeiRegular-32"/>
       <use xlink:href="#MicrosoftJhengHeiRegular-2e" x="57.958984"/>
       <use xlink:href="#MicrosoftJhengHeiRegular-35" x="81.005859"/>
      </g>
     </g>
    </g>
    <g id="ytick_7">
     <g id="line2d_16">
      <path d="M 42.575 74.139139 
L 992.505 74.139139 
" clip-path="url(#pcc52f23e0b)" style="fill: none; stroke-dasharray: 2.96,1.28; stroke-dashoffset: 0; stroke: #b0b0b0; stroke-opacity: 0.7; stroke-width: 0.8"/>
     </g>
     <g id="line2d_17">
      <g>
       <use xlink:href="#md91dcbbb33" x="42.575" y="74.139139" style="stroke: #000000; stroke-width: 0.8"/>
      </g>
     </g>
     <g id="text_11">
      <!-- 3.0 -->
      <g transform="translate(21.679688 78.136014) scale(0.1 -0.1)">
       <defs>
        <path id="MicrosoftJhengHeiRegular-33" d="M 438 756 
Q 934 363 1556 363 
Q 2056 363 2370 616 
Q 2684 869 2684 1313 
Q 2684 2281 1319 2281 
L 919 2281 
L 919 2728 
L 1300 2728 
Q 2513 2728 2513 3634 
Q 2513 4475 1588 4475 
Q 1075 4475 625 4122 
L 625 4644 
Q 1088 4922 1719 4922 
Q 2294 4922 2670 4606 
Q 3047 4291 3047 3769 
Q 3047 2819 2075 2538 
L 2075 2525 
Q 2591 2481 2905 2162 
Q 3219 1844 3219 1369 
Q 3219 706 2742 312 
Q 2266 -81 1525 -81 
Q 844 -81 438 178 
L 438 756 
z
" transform="scale(0.015625)"/>
       </defs>
       <use xlink:href="#MicrosoftJhengHeiRegular-33"/>
       <use xlink:href="#MicrosoftJhengHeiRegular-2e" x="57.958984"/>
       <use xlink:href="#MicrosoftJhengHeiRegular-30" x="81.005859"/>
      </g>
     </g>
    </g>
    <g id="text_12">
     <!-- 位置預測誤差 (公尺) -->
     <g transform="translate(15.19375 309.698398) rotate(-90) scale(0.1 -0.1)">
      <defs>
       <path id="MicrosoftJhengHeiRegular-4f4d" d="M 6016 -172 
L 1900 -172 
L 1900 159 
L 3194 159 
Q 3031 1716 2478 3597 
L 2700 3719 
L 1984 3719 
L 1984 4050 
L 3884 4050 
Q 3750 4634 3500 5178 
L 3822 5288 
Q 4053 4759 4244 4050 
L 5913 4050 
L 5913 3719 
L 5269 3719 
L 5472 3641 
Q 5191 1675 4716 159 
L 6016 159 
L 6016 -172 
z
M 5125 3719 
L 2816 3719 
Q 3334 1778 3547 159 
L 4372 159 
Q 4925 1928 5125 3719 
z
M 2131 5147 
Q 2009 4856 1803 4447 
L 1594 4044 
L 1594 -325 
L 1253 -325 
L 1253 3425 
Q 966 2963 544 2456 
L 331 2772 
Q 1222 3825 1791 5269 
L 2131 5147 
z
" transform="scale(0.015625)"/>
       <path id="MicrosoftJhengHeiRegular-7f6e" d="M 5991 -184 
L 453 -184 
L 453 97 
L 1203 97 
L 1203 2803 
L 2694 2803 
L 2853 3256 
L 500 3256 
L 500 3547 
L 2956 3547 
L 3078 3969 
L 756 3969 
L 756 5119 
L 5663 5119 
L 5663 3969 
L 3425 3969 
L 3297 3547 
L 5894 3547 
L 5894 3256 
L 3194 3256 
L 3047 2803 
L 5228 2803 
L 5228 97 
L 5991 97 
L 5991 -184 
z
M 5331 4231 
L 5331 4844 
L 4147 4844 
L 4147 4231 
L 5331 4231 
z
M 3816 4231 
L 3816 4844 
L 2613 4844 
L 2613 4231 
L 3816 4231 
z
M 2278 4231 
L 2278 4844 
L 1081 4844 
L 1081 4231 
L 2278 4231 
z
M 4903 2138 
L 4903 2534 
L 1538 2534 
L 1538 2138 
L 4903 2138 
z
M 4903 1478 
L 4903 1875 
L 1538 1875 
L 1538 1478 
L 4903 1478 
z
M 4903 781 
L 4903 1222 
L 1538 1222 
L 1538 781 
L 4903 781 
z
M 4903 97 
L 4903 513 
L 1538 513 
L 1538 97 
L 4903 97 
z
" transform="scale(0.015625)"/>
       <path id="MicrosoftJhengHeiRegular-9810" d="M 6009 4794 
L 4588 4794 
Q 4519 4447 4384 4063 
L 5703 4063 
L 5703 947 
L 4031 947 
L 4231 744 
Q 3759 156 2894 -378 
L 2675 -91 
Q 3456 341 3969 947 
L 3150 947 
L 3150 4063 
L 4038 4063 
Q 4166 4381 4250 4794 
L 2925 4794 
L 2925 5119 
L 6009 5119 
L 6009 4794 
z
M 5375 3163 
L 5375 3744 
L 3475 3744 
L 3475 3163 
L 5375 3163 
z
M 5375 2234 
L 5375 2853 
L 3475 2853 
L 3475 2234 
L 5375 2234 
z
M 5375 1269 
L 5375 1931 
L 3475 1931 
L 3475 1269 
L 5375 1269 
z
M 2881 3084 
Q 2719 2138 2369 1631 
L 2081 1831 
Q 2366 2228 2478 2753 
L 1753 2753 
L 1753 122 
Q 1753 -56 1608 -197 
Q 1463 -338 703 -306 
L 609 19 
Q 1219 19 1283 26 
Q 1347 34 1397 96 
Q 1447 159 1447 213 
L 1447 2753 
L 441 2753 
L 441 3084 
L 1838 3084 
Q 1450 3513 666 4072 
L 844 4319 
Q 1059 4184 1478 3853 
Q 1991 4363 2234 4728 
L 594 4728 
L 594 5044 
L 2644 5044 
L 2644 4728 
Q 2175 4094 1734 3641 
Q 2006 3403 2150 3219 
L 2041 3084 
L 2881 3084 
z
M 5991 -78 
L 5778 -341 
Q 5194 175 4569 513 
L 4775 763 
Q 5513 338 5991 -78 
z
" transform="scale(0.015625)"/>
       <path id="MicrosoftJhengHeiRegular-6e2c" d="M 5797 128 
Q 5797 -150 5633 -242 
Q 5469 -334 5038 -334 
Q 4800 -334 4563 -319 
L 4481 0 
Q 5288 0 5383 28 
Q 5478 56 5478 225 
L 5478 5253 
L 5797 5253 
L 5797 128 
z
M 1813 4453 
L 1581 4206 
Q 1156 4666 609 5013 
L 794 5253 
Q 1409 4906 1813 4453 
z
M 3853 1075 
L 2578 1075 
L 2766 947 
Q 2406 209 1863 -353 
L 1600 -134 
Q 2138 397 2463 1075 
L 2016 1075 
L 2016 5125 
L 3853 5125 
L 3853 1075 
z
M 3541 3928 
L 3541 4813 
L 2338 4813 
L 2338 3928 
L 3541 3928 
z
M 3541 2681 
L 3541 3609 
L 2338 3609 
L 2338 2681 
L 3541 2681 
z
M 3541 1394 
L 3541 2369 
L 2338 2369 
L 2338 1394 
L 3541 1394 
z
M 4769 825 
L 4447 825 
L 4447 4844 
L 4769 4844 
L 4769 825 
z
M 1594 2803 
L 1356 2572 
Q 994 3019 403 3456 
L 622 3713 
Q 1266 3209 1594 2803 
z
M 1631 1747 
Q 1059 238 678 -325 
L 428 -109 
Q 959 753 1338 1906 
L 1631 1747 
z
M 4019 -25 
L 3744 -191 
Q 3513 350 3116 813 
L 3378 991 
Q 3816 463 4019 -25 
z
" transform="scale(0.015625)"/>
       <path id="MicrosoftJhengHeiRegular-8aa4" d="M 2463 4294 
L 441 4294 
L 441 4609 
L 1325 4609 
Q 1238 4888 1075 5222 
L 1394 5331 
Q 1591 4931 1691 4609 
L 2463 4609 
L 2463 4294 
z
M 5484 3469 
L 3572 3469 
L 3572 5131 
L 5484 5131 
L 5484 3469 
z
M 5172 3775 
L 5172 4813 
L 3891 4813 
L 3891 3775 
L 5172 3775 
z
M 6009 1394 
L 4269 1394 
Q 4038 75 2650 -313 
L 2456 -38 
Q 3716 225 3938 1394 
L 2497 1394 
L 2497 1709 
L 3988 1709 
Q 4028 1994 4050 2606 
L 2741 2606 
L 2741 4697 
L 3066 4697 
L 3066 2925 
L 5703 2925 
L 5703 1709 
L 6009 1709 
L 6009 1394 
z
M 5369 1709 
L 5369 2606 
L 4384 2606 
Q 4359 2109 4325 1709 
L 5369 1709 
z
M 2322 3366 
L 569 3366 
L 569 3681 
L 2322 3681 
L 2322 3366 
z
M 2322 2438 
L 575 2438 
L 575 2753 
L 2322 2753 
L 2322 2438 
z
M 2216 -184 
L 1894 -184 
L 1894 172 
L 959 172 
L 959 -306 
L 641 -306 
L 641 1831 
L 2216 1831 
L 2216 -184 
z
M 1894 494 
L 1894 1509 
L 959 1509 
L 959 494 
L 1894 494 
z
M 5966 -109 
L 5728 -331 
Q 5384 72 4494 775 
L 4684 1019 
Q 5438 478 5966 -109 
z
" transform="scale(0.015625)"/>
       <path id="MicrosoftJhengHeiRegular-5dee" d="M 4916 5113 
Q 4613 4759 4281 4556 
L 4006 4769 
Q 4378 5009 4634 5319 
L 4916 5113 
z
M 2566 4728 
L 2284 4538 
Q 2078 4813 1703 5106 
L 1978 5313 
Q 2378 4997 2566 4728 
z
M 5997 2138 
L 2094 2138 
Q 2009 684 678 -166 
L 434 97 
Q 1688 828 1753 2138 
L 488 2138 
L 488 2444 
L 3072 2444 
L 3072 3116 
L 878 3116 
L 878 3431 
L 3072 3431 
L 3072 4103 
L 684 4103 
L 684 4409 
L 5819 4409 
L 5819 4103 
L 3406 4103 
L 3406 3431 
L 5569 3431 
L 5569 3116 
L 3406 3116 
L 3406 2444 
L 5997 2444 
L 5997 2138 
z
M 6009 -213 
L 1684 -213 
L 1684 103 
L 3681 103 
L 3681 1131 
L 2228 1131 
L 2228 1453 
L 5703 1453 
L 5703 1131 
L 4031 1131 
L 4031 103 
L 6009 103 
L 6009 -213 
z
" transform="scale(0.015625)"/>
       <path id="MicrosoftJhengHeiRegular-28" d="M 1513 -1100 
Q 469 94 469 1847 
Q 469 3609 1513 4841 
L 1988 4841 
Q 925 3556 925 1853 
Q 925 159 1981 -1100 
L 1513 -1100 
z
" transform="scale(0.015625)"/>
       <path id="MicrosoftJhengHeiRegular-516c" d="M 2663 5153 
Q 2097 3406 628 2350 
L 372 2606 
Q 1781 3563 2328 5269 
L 2663 5153 
z
M 6047 2656 
L 5831 2375 
Q 4681 3125 3994 4844 
L 3566 4844 
L 3566 5191 
L 4256 5191 
Q 4819 3456 6047 2656 
z
M 5569 -213 
L 5269 -384 
Q 5069 109 4872 428 
Q 3059 -41 1269 -197 
L 1172 128 
Q 2150 1278 3041 3419 
L 3366 3278 
Q 2556 1356 1672 184 
Q 2909 272 4703 728 
Q 4416 1238 3922 1913 
L 4219 2088 
Q 5106 866 5569 -213 
z
" transform="scale(0.015625)"/>
       <path id="MicrosoftJhengHeiRegular-5c3a" d="M 6053 -31 
L 5856 -366 
Q 4309 13 3332 755 
Q 2356 1497 1797 2772 
L 1656 2772 
Q 1609 656 666 -306 
L 409 -63 
Q 1313 831 1313 3066 
L 1313 5125 
L 5581 5125 
L 5581 2772 
L 2169 2772 
Q 2891 1341 3995 739 
Q 5100 138 6053 -31 
z
M 5228 3116 
L 5228 4788 
L 1678 4788 
L 1678 3116 
L 5228 3116 
z
" transform="scale(0.015625)"/>
       <path id="MicrosoftJhengHeiRegular-29" d="M 84 -1100 
Q 1138 153 1138 1853 
Q 1138 3563 75 4841 
L 553 4841 
Q 1603 3609 1603 1847 
Q 1603 97 553 -1100 
L 84 -1100 
z
" transform="scale(0.015625)"/>
      </defs>
      <use xlink:href="#MicrosoftJhengHeiRegular-4f4d"/>
      <use xlink:href="#MicrosoftJhengHeiRegular-7f6e" x="100"/>
      <use xlink:href="#MicrosoftJhengHeiRegular-9810" x="200"/>
      <use xlink:href="#MicrosoftJhengHeiRegular-6e2c" x="300"/>
      <use xlink:href="#MicrosoftJhengHeiRegular-8aa4" x="400"/>
      <use xlink:href="#MicrosoftJhengHeiRegular-5dee" x="500"/>
      <use xlink:href="#MicrosoftJhengHeiRegular-20" x="600"/>
      <use xlink:href="#MicrosoftJhengHeiRegular-28" x="625"/>
      <use xlink:href="#MicrosoftJhengHeiRegular-516c" x="657.080078"/>
      <use xlink:href="#MicrosoftJhengHeiRegular-5c3a" x="757.080078"/>
      <use xlink:href="#MicrosoftJhengHeiRegular-29" x="857.080078"/>
     </g>
    </g>
   </g>
   <g id="LineCollection_1">
    <path d="M 128.932273 271.178164 
L 215.289545 271.178164 
" clip-path="url(#pcc52f23e0b)" style="fill: none; stroke: #1f77b4; stroke-width: 1.5"/>
    <path d="M 474.361364 302.527431 
L 560.718636 302.527431 
" clip-path="url(#pcc52f23e0b)" style="fill: none; stroke: #1f77b4; stroke-width: 1.5"/>
    <path d="M 819.790455 298.121262 
L 906.147727 298.121262 
" clip-path="url(#pcc52f23e0b)" style="fill: none; stroke: #1f77b4; stroke-width: 1.5"/>
   </g>
   <g id="LineCollection_2">
    <path d="M 128.932273 44.833235 
L 215.289545 44.833235 
" clip-path="url(#pcc52f23e0b)" style="fill: none; stroke: #1f77b4; stroke-width: 1.5"/>
    <path d="M 474.361364 76.354977 
L 560.718636 76.354977 
" clip-path="url(#pcc52f23e0b)" style="fill: none; stroke: #1f77b4; stroke-width: 1.5"/>
    <path d="M 819.790455 51.562142 
L 906.147727 51.562142 
" clip-path="url(#pcc52f23e0b)" style="fill: none; stroke: #1f77b4; stroke-width: 1.5"/>
   </g>
   <g id="LineCollection_3">
    <path d="M 128.932273 476.423435 
L 215.289545 476.423435 
" clip-path="url(#pcc52f23e0b)" style="fill: none; stroke: #1f77b4; stroke-width: 1.5"/>
    <path d="M 474.361364 479.40719 
L 560.718636 479.40719 
" clip-path="url(#pcc52f23e0b)" style="fill: none; stroke: #1f77b4; stroke-width: 1.5"/>
    <path d="M 819.790455 485.647936 
L 906.147727 485.647936 
" clip-path="url(#pcc52f23e0b)" style="fill: none; stroke: #1f77b4; stroke-width: 1.5"/>
   </g>
   <g id="LineCollection_4">
    <path d="M 172.110909 476.423435 
L 172.110909 44.833235 
" clip-path="url(#pcc52f23e0b)" style="fill: none; stroke: #1f77b4; stroke-width: 1.5"/>
    <path d="M 517.54 479.40719 
L 517.54 76.354977 
" clip-path="url(#pcc52f23e0b)" style="fill: none; stroke: #1f77b4; stroke-width: 1.5"/>
    <path d="M 862.969091 485.647936 
L 862.969091 51.562142 
" clip-path="url(#pcc52f23e0b)" style="fill: none; stroke: #1f77b4; stroke-width: 1.5"/>
   </g>
   <g id="LineCollection_5">
    <path d="M 128.932273 281.08148 
L 215.289545 281.08148 
" clip-path="url(#pcc52f23e0b)" style="fill: none; stroke: #1f77b4; stroke-width: 1.5"/>
    <path d="M 474.361364 288.11573 
L 560.718636 288.11573 
" clip-path="url(#pcc52f23e0b)" style="fill: none; stroke: #1f77b4; stroke-width: 1.5"/>
    <path d="M 819.790455 291.259916 
L 906.147727 291.259916 
" clip-path="url(#pcc52f23e0b)" style="fill: none; stroke: #1f77b4; stroke-width: 1.5"/>
   </g>
   <g id="patch_3">
    <path d="M 42.575 507.688671 
L 42.575 22.7925 
" style="fill: none; stroke: #000000; stroke-width: 0.8; stroke-linejoin: miter; stroke-linecap: square"/>
   </g>
   <g id="patch_4">
    <path d="M 992.505 507.688671 
L 992.505 22.7925 
" style="fill: none; stroke: #000000; stroke-width: 0.8; stroke-linejoin: miter; stroke-linecap: square"/>
   </g>
   <g id="patch_5">
    <path d="M 42.575 507.688671 
L 992.505 507.688671 
" style="fill: none; stroke: #000000; stroke-width: 0.8; stroke-linejoin: miter; stroke-linecap: square"/>
   </g>
   <g id="patch_6">
    <path d="M 42.575 22.7925 
L 992.505 22.7925 
" style="fill: none; stroke: #000000; stroke-width: 0.8; stroke-linejoin: miter; stroke-linecap: square"/>
   </g>
   <g id="text_13">
    <!-- 位置預測誤差密度分布 - 設備故障 50% -->
    <g transform="translate(414.213438 16.7925) scale(0.12 -0.12)">
     <defs>
      <path id="MicrosoftJhengHeiRegular-5bc6" d="M 5753 3500 
L 5428 3500 
L 5428 4459 
L 1025 4459 
L 1025 3500 
L 697 3500 
L 697 4781 
L 3097 4781 
Q 3044 4984 2906 5228 
L 3206 5331 
Q 3338 5084 3438 4781 
L 5753 4781 
L 5753 3500 
z
M 3700 3475 
L 3438 3303 
Q 3153 3750 2828 4084 
L 3109 4256 
Q 3406 3959 3700 3475 
z
M 4788 3794 
Q 3894 2753 2509 2053 
Q 2509 1972 2600 1939 
Q 2691 1906 3347 1906 
Q 4028 1906 4218 1961 
Q 4409 2016 4453 2694 
L 4763 2534 
Q 4744 2131 4625 1914 
Q 4506 1697 4334 1645 
Q 4163 1594 3625 1594 
Q 2694 1594 2497 1630 
Q 2300 1666 2194 1894 
Q 1375 1525 603 1247 
L 447 1516 
Q 1416 1853 2163 2216 
L 2163 4031 
L 2497 4031 
L 2497 2388 
Q 3734 3016 4550 3994 
L 4788 3794 
z
M 1941 3547 
Q 1334 2797 678 2297 
L 447 2534 
Q 1034 2959 1672 3731 
L 1941 3547 
z
M 5978 2181 
L 5734 1959 
Q 5353 2522 4716 3138 
L 4959 3341 
Q 5644 2672 5978 2181 
z
M 5331 -331 
L 4997 -331 
L 4997 -166 
L 1088 -166 
L 1088 1147 
L 1422 1147 
L 1422 141 
L 3003 141 
L 3003 1422 
L 3334 1422 
L 3334 141 
L 4997 141 
L 4997 1147 
L 5331 1147 
L 5331 -331 
z
" transform="scale(0.015625)"/>
      <path id="MicrosoftJhengHeiRegular-5ea6" d="M 5941 4422 
L 1319 4422 
L 1319 2638 
Q 1319 897 616 -238 
L 325 -25 
Q 997 1019 997 2963 
L 997 4744 
L 3359 4744 
Q 3219 5003 3047 5222 
L 3419 5313 
Q 3619 5003 3750 4744 
L 5941 4744 
L 5941 4422 
z
M 5941 3397 
L 4838 3397 
L 4838 2356 
L 2541 2356 
L 2541 3397 
L 1569 3397 
L 1569 3713 
L 2541 3713 
L 2541 4238 
L 2875 4238 
L 2875 3713 
L 4506 3713 
L 4506 4238 
L 4838 4238 
L 4838 3713 
L 5941 3713 
L 5941 3397 
z
M 4506 2675 
L 4506 3397 
L 2875 3397 
L 2875 2675 
L 4506 2675 
z
M 6088 -44 
L 5881 -353 
Q 4572 -138 3731 256 
Q 2756 -181 1356 -325 
L 1191 6 
Q 2566 113 3341 447 
Q 2594 903 2194 1625 
L 1953 1625 
L 1953 1959 
L 5191 1959 
L 5191 1625 
Q 4816 894 4084 459 
Q 4803 147 6088 -44 
z
M 4788 1625 
L 2591 1625 
Q 2997 969 3706 628 
Q 4450 1038 4788 1625 
z
" transform="scale(0.015625)"/>
      <path id="MicrosoftJhengHeiRegular-5206" d="M 2688 5141 
Q 1919 3378 647 2503 
L 416 2766 
Q 1650 3591 2350 5241 
L 2688 5141 
z
M 6047 2809 
L 5819 2522 
Q 4553 3422 4063 4878 
L 3584 4878 
L 3584 5222 
L 4300 5222 
Q 4778 3628 6047 2809 
z
M 5013 2894 
Q 4997 1866 4890 1047 
Q 4784 228 4681 31 
Q 4578 -166 4395 -250 
Q 4213 -334 3759 -334 
Q 3563 -334 3250 -319 
L 3175 25 
Q 3525 -6 3822 -6 
Q 4109 -6 4192 31 
Q 4275 69 4336 139 
Q 4397 209 4472 557 
Q 4547 906 4592 1420 
Q 4638 1934 4653 2553 
L 3009 2553 
Q 2794 669 897 -409 
L 691 -141 
Q 2450 847 2644 2553 
L 1434 2553 
L 1434 2894 
L 5013 2894 
z
" transform="scale(0.015625)"/>
      <path id="MicrosoftJhengHeiRegular-5e03" d="M 6022 4500 
L 6016 4159 
L 2925 4159 
Q 2453 3316 1931 2772 
L 3366 2772 
L 3366 3653 
L 3713 3653 
L 3713 2772 
L 5588 2772 
L 5588 544 
Q 5588 31 5044 31 
Q 4609 31 4481 38 
L 4353 403 
Q 4766 381 4956 381 
Q 5150 381 5198 412 
Q 5247 444 5247 513 
L 5247 2425 
L 3713 2425 
L 3713 -347 
L 3366 -347 
L 3366 2425 
L 1913 2425 
L 1913 31 
L 1556 31 
L 1556 2413 
Q 984 1956 691 1759 
L 459 2034 
Q 1797 2859 2522 4159 
L 453 4159 
L 453 4500 
L 2700 4500 
Q 2847 4784 3028 5325 
L 3366 5247 
Q 3250 4866 3084 4500 
L 6022 4500 
z
" transform="scale(0.015625)"/>
      <path id="MicrosoftJhengHeiRegular-2d" d="M 2328 1722 
L 488 1722 
L 488 2138 
L 2328 2138 
L 2328 1722 
z
" transform="scale(0.015625)"/>
      <path id="MicrosoftJhengHeiRegular-8a2d" d="M 2700 4294 
L 434 4294 
L 434 4628 
L 1434 4628 
Q 1350 4906 1178 5191 
L 1472 5325 
Q 1663 5016 1784 4628 
L 2700 4628 
L 2700 4294 
z
M 5978 2950 
L 5356 2950 
Q 4897 2950 4897 3391 
L 4897 4769 
L 3769 4769 
Q 3753 3884 3533 3454 
Q 3313 3025 2925 2778 
L 2675 3009 
Q 3056 3250 3261 3670 
Q 3466 4091 3450 5088 
L 5216 5088 
L 5216 3488 
Q 5216 3272 5428 3272 
L 5978 3272 
L 5978 2950 
z
M 2528 3366 
L 563 3366 
L 563 3688 
L 2528 3688 
L 2528 3366 
z
M 2522 2425 
L 556 2425 
L 556 2747 
L 2522 2747 
L 2522 2425 
z
M 6003 -72 
L 5813 -347 
Q 4841 -25 4313 391 
Q 3697 -47 2778 -313 
L 2578 -38 
Q 3544 247 4031 616 
Q 3369 1225 3066 2247 
L 2847 2247 
L 2847 2572 
L 5528 2572 
L 5528 2247 
Q 5116 1125 4569 609 
Q 5113 219 6003 -72 
z
M 5166 2247 
L 3406 2247 
Q 3738 1303 4306 825 
Q 4878 1353 5166 2247 
z
M 2431 -191 
L 2100 -191 
L 2100 159 
L 941 159 
L 941 -313 
L 609 -313 
L 609 1819 
L 2431 1819 
L 2431 -191 
z
M 2100 488 
L 2100 1478 
L 941 1478 
L 941 488 
L 2100 488 
z
" transform="scale(0.015625)"/>
      <path id="MicrosoftJhengHeiRegular-5099" d="M 1825 5241 
L 1472 4056 
L 1472 -325 
L 1141 -325 
L 1141 3263 
Q 856 2681 616 2328 
L 384 2591 
Q 1094 3663 1509 5356 
L 1825 5241 
z
M 5991 3378 
L 3163 3378 
Q 2984 3059 2834 2859 
L 5613 2859 
L 5613 159 
Q 5613 16 5531 -118 
Q 5450 -253 5314 -300 
Q 5178 -347 4763 -331 
L 4628 -13 
Q 4841 -22 4991 -22 
Q 5300 -22 5300 197 
L 5300 850 
L 4250 850 
L 4250 -256 
L 3928 -256 
L 3928 850 
L 2747 850 
Q 2541 144 2075 -359 
L 1844 -141 
Q 2578 672 2578 1850 
L 2578 2541 
Q 2241 2100 1825 1747 
L 1606 1978 
Q 2309 2578 2816 3378 
L 1759 3378 
L 1759 3694 
L 2963 3694 
L 2963 4325 
L 1900 4325 
L 1900 4647 
L 2963 4647 
L 2963 5269 
L 3291 5269 
L 3291 4647 
L 4513 4647 
L 4513 5269 
L 4844 5269 
L 4844 4647 
L 5856 4647 
L 5856 4325 
L 4844 4325 
L 4844 3694 
L 5991 3694 
L 5991 3378 
z
M 4513 3694 
L 4513 4325 
L 3291 4325 
L 3291 3694 
L 4513 3694 
z
M 5300 2022 
L 5300 2553 
L 4250 2553 
L 4250 2022 
L 5300 2022 
z
M 3928 2022 
L 3928 2553 
L 2900 2553 
L 2900 2022 
L 3928 2022 
z
M 5300 1166 
L 5300 1709 
L 4250 1709 
L 4250 1166 
L 5300 1166 
z
M 3928 1166 
L 3928 1709 
L 2888 1709 
Q 2875 1400 2822 1166 
L 3928 1166 
z
" transform="scale(0.015625)"/>
      <path id="MicrosoftJhengHeiRegular-6545" d="M 6053 -72 
L 5838 -372 
Q 4972 122 4525 684 
Q 3984 81 3169 -359 
L 2925 -91 
Q 3828 369 4306 953 
Q 3853 1591 3609 2669 
L 3922 2772 
Q 4131 1806 4506 1234 
Q 5088 2150 5253 3909 
L 3994 3909 
Q 3728 3138 3250 2419 
L 2981 2619 
Q 3744 3775 4019 5288 
L 4366 5269 
Q 4266 4769 4109 4238 
L 5966 4238 
L 5966 3909 
L 5594 3909 
Q 5372 1900 4709 947 
Q 5228 350 6053 -72 
z
M 3097 3878 
L 1919 3878 
L 1919 2559 
L 2797 2559 
L 2797 -6 
L 2463 -6 
L 2463 403 
L 1050 403 
L 1050 -172 
L 716 -172 
L 716 2559 
L 1606 2559 
L 1606 3878 
L 453 3878 
L 453 4213 
L 1606 4213 
L 1606 5275 
L 1919 5275 
L 1919 4213 
L 3097 4213 
L 3097 3878 
z
M 2463 738 
L 2463 2228 
L 1050 2228 
L 1050 738 
L 2463 738 
z
" transform="scale(0.015625)"/>
      <path id="MicrosoftJhengHeiRegular-969c" d="M 5984 3584 
L 2266 3584 
L 2266 3891 
L 3309 3891 
Q 3175 4238 2994 4506 
L 2472 4506 
L 2472 4819 
L 3916 4819 
Q 3828 4966 3700 5141 
L 4000 5306 
Q 4194 5063 4306 4819 
L 5850 4819 
L 5850 4506 
L 5288 4506 
Q 5097 4094 4978 3891 
L 5984 3891 
L 5984 3584 
z
M 4928 4506 
L 3347 4506 
Q 3506 4222 3647 3891 
L 4634 3891 
Q 4822 4206 4928 4506 
z
M 1697 3291 
Q 2234 2550 2234 1863 
Q 2234 1556 2054 1331 
Q 1875 1106 1209 1147 
L 1088 1478 
Q 1331 1466 1466 1466 
Q 1716 1466 1819 1583 
Q 1922 1700 1922 1894 
Q 1922 2159 1764 2545 
Q 1606 2931 1356 3238 
Q 1616 3994 1850 4813 
L 953 4813 
L 953 -306 
L 634 -306 
L 634 5131 
L 2194 5131 
L 2194 4813 
Q 1997 4150 1697 3291 
z
M 5997 550 
L 4256 550 
L 4256 -331 
L 3938 -331 
L 3938 550 
L 2259 550 
L 2259 872 
L 3938 872 
L 3938 1319 
L 2644 1319 
L 2644 3156 
L 5656 3156 
L 5656 1319 
L 4256 1319 
L 4256 872 
L 5997 872 
L 5997 550 
z
M 5319 2400 
L 5319 2853 
L 2956 2853 
L 2956 2400 
L 5319 2400 
z
M 5319 1631 
L 5319 2113 
L 2956 2113 
L 2956 1631 
L 5319 1631 
z
" transform="scale(0.015625)"/>
      <path id="MicrosoftJhengHeiRegular-25" d="M 266 3625 
Q 266 4219 580 4566 
Q 894 4913 1425 4913 
Q 1938 4913 2223 4589 
Q 2509 4266 2509 3694 
Q 2509 3125 2192 2770 
Q 1875 2416 1356 2416 
Q 856 2416 561 2748 
Q 266 3081 266 3625 
z
M 700 3656 
Q 700 3241 886 3008 
Q 1072 2775 1391 2775 
Q 1716 2775 1897 3014 
Q 2078 3253 2078 3678 
Q 2078 4097 1898 4328 
Q 1719 4559 1403 4559 
Q 1081 4559 890 4312 
Q 700 4066 700 3656 
z
M 4578 4841 
L 1478 -38 
L 1016 -38 
L 4116 4841 
L 4578 4841 
z
M 3144 1134 
Q 3144 1725 3456 2079 
Q 3769 2434 4297 2434 
Q 4806 2434 5093 2106 
Q 5381 1778 5381 1197 
Q 5381 625 5061 275 
Q 4741 -75 4231 -75 
Q 3741 -75 3442 256 
Q 3144 588 3144 1134 
z
M 3572 1163 
Q 3572 756 3761 522 
Q 3950 288 4263 288 
Q 4588 288 4769 530 
Q 4950 772 4950 1194 
Q 4950 1616 4772 1841 
Q 4594 2066 4278 2066 
Q 3947 2066 3759 1823 
Q 3572 1581 3572 1163 
z
" transform="scale(0.015625)"/>
     </defs>
     <use xlink:href="#MicrosoftJhengHeiRegular-4f4d"/>
     <use xlink:href="#MicrosoftJhengHeiRegular-7f6e" x="100"/>
     <use xlink:href="#MicrosoftJhengHeiRegular-9810" x="200"/>
     <use xlink:href="#MicrosoftJhengHeiRegular-6e2c" x="300"/>
     <use xlink:href="#MicrosoftJhengHeiRegular-8aa4" x="400"/>
     <use xlink:href="#MicrosoftJhengHeiRegular-5dee" x="500"/>
     <use xlink:href="#MicrosoftJhengHeiRegular-5bc6" x="600"/>
     <use xlink:href="#MicrosoftJhengHeiRegular-5ea6" x="700"/>
     <use xlink:href="#MicrosoftJhengHeiRegular-5206" x="800"/>
     <use xlink:href="#MicrosoftJhengHeiRegular-5e03" x="900"/>
     <use xlink:href="#MicrosoftJhengHeiRegular-20" x="1000"/>
     <use xlink:href="#MicrosoftJhengHeiRegular-2d" x="1025"/>
     <use xlink:href="#MicrosoftJhengHeiRegular-20" x="1068.164062"/>
     <use xlink:href="#MicrosoftJhengHeiRegular-8a2d" x="1093.164062"/>
     <use xlink:href="#MicrosoftJhengHeiRegular-5099" x="1193.164062"/>
     <use xlink:href="#MicrosoftJhengHeiRegular-6545" x="1293.164062"/>
     <use xlink:href="#MicrosoftJhengHeiRegular-969c" x="1393.164062"/>
     <use xlink:href="#MicrosoftJhengHeiRegular-20" x="1493.164062"/>
     <use xlink:href="#MicrosoftJhengHeiRegular-35" x="1518.164062"/>
     <use xlink:href="#MicrosoftJhengHeiRegular-30" x="1576.123047"/>
     <use xlink:href="#MicrosoftJhengHeiRegular-25" x="1634.082031"/>
    </g>
   </g>
  </g>
 </g>
 <defs>
  <clipPath id="pcc52f23e0b">
   <rect x="42.575" y="22.7925" width="949.93" height="484.896171"/>
  </clipPath>
 </defs>
</svg>
