<?xml version="1.0" encoding="utf-8" standalone="no"?>
<!DOCTYPE svg PUBLIC "-//W3C//DTD SVG 1.1//EN"
  "http://www.w3.org/Graphics/SVG/1.1/DTD/svg11.dtd">
<svg xmlns:xlink="http://www.w3.org/1999/xlink" width="1073.138625pt" height="710.303234pt" viewBox="0 0 1073.138625 710.303234" xmlns="http://www.w3.org/2000/svg" version="1.1">
 <metadata>
  <rdf:RDF xmlns:dc="http://purl.org/dc/elements/1.1/" xmlns:cc="http://creativecommons.org/ns#" xmlns:rdf="http://www.w3.org/1999/02/22-rdf-syntax-ns#">
   <cc:Work>
    <dc:type rdf:resource="http://purl.org/dc/dcmitype/StillImage"/>
    <dc:date>2025-09-03T01:12:27.838333</dc:date>
    <dc:format>image/svg+xml</dc:format>
    <dc:creator>
     <cc:Agent>
      <dc:title>Matplotlib v3.7.1, https://matplotlib.org/</dc:title>
     </cc:Agent>
    </dc:creator>
   </cc:Work>
  </rdf:RDF>
 </metadata>
 <defs>
  <style type="text/css">*{stroke-linejoin: round; stroke-linecap: butt}</style>
 </defs>
 <g id="figure_1">
  <g id="patch_1">
   <path d="M 0 710.303234 
L 1073.138625 710.303234 
L 1073.138625 0 
L 0 0 
z
" style="fill: #ffffff"/>
  </g>
  <g id="axes_1">
   <g id="patch_2">
    <path d="M 40.270313 645.09655 
L 905.280313 645.09655 
L 905.280313 22.7925 
L 40.270313 22.7925 
z
" style="fill: #ffffff"/>
   </g>
   <g id="patch_3">
    <path d="M 79.588949 645.09655 
L 127.734218 645.09655 
L 127.734218 342.835152 
L 79.588949 342.835152 
z
" clip-path="url(#p8d12d16071)" style="fill: #1f77b4"/>
   </g>
   <g id="patch_4">
    <path d="M 400.557409 645.09655 
L 448.702678 645.09655 
L 448.702678 342.835152 
L 400.557409 342.835152 
z
" clip-path="url(#p8d12d16071)" style="fill: #1f77b4"/>
   </g>
   <g id="patch_5">
    <path d="M 721.525869 645.09655 
L 769.671138 645.09655 
L 769.671138 351.450259 
L 721.525869 351.450259 
z
" clip-path="url(#p8d12d16071)" style="fill: #1f77b4"/>
   </g>
   <g id="patch_6">
    <path d="M 127.734218 645.09655 
L 175.879487 645.09655 
L 175.879487 52.426026 
L 127.734218 52.426026 
z
" clip-path="url(#p8d12d16071)" style="fill: #ff7f0e"/>
   </g>
   <g id="patch_7">
    <path d="M 448.702678 645.09655 
L 496.847947 645.09655 
L 496.847947 52.426026 
L 448.702678 52.426026 
z
" clip-path="url(#p8d12d16071)" style="fill: #ff7f0e"/>
   </g>
   <g id="patch_8">
    <path d="M 769.671138 645.09655 
L 817.816407 645.09655 
L 817.816407 52.904965 
L 769.671138 52.904965 
z
" clip-path="url(#p8d12d16071)" style="fill: #ff7f0e"/>
   </g>
   <g id="patch_9">
    <path d="M 175.879487 645.09655 
L 224.024756 645.09655 
L 224.024756 345.620179 
L 175.879487 345.620179 
z
" clip-path="url(#p8d12d16071)" style="fill: #2ca02c"/>
   </g>
   <g id="patch_10">
    <path d="M 496.847947 645.09655 
L 544.993216 645.09655 
L 544.993216 345.620179 
L 496.847947 345.620179 
z
" clip-path="url(#p8d12d16071)" style="fill: #2ca02c"/>
   </g>
   <g id="patch_11">
    <path d="M 817.816407 645.09655 
L 865.961676 645.09655 
L 865.961676 355.182875 
L 817.816407 355.182875 
z
" clip-path="url(#p8d12d16071)" style="fill: #2ca02c"/>
   </g>
   <g id="matplotlib.axis_1">
    <g id="xtick_1">
     <g id="line2d_1">
      <defs>
       <path id="m02caf69aaf" d="M 0 0 
L 0 3.5 
" style="stroke: #000000; stroke-width: 0.8"/>
      </defs>
      <g>
       <use xlink:href="#m02caf69aaf" x="151.806852" y="645.09655" style="stroke: #000000; stroke-width: 0.8"/>
      </g>
     </g>
     <g id="text_1">
      <!-- 雜訊 4db + 故障 10% -->
      <g transform="translate(106.047264 684.722378) rotate(-15) scale(0.1 -0.1)">
       <defs>
        <path id="MicrosoftJhengHeiRegular-96dc" d="M 6003 -44 
L 3922 -44 
L 3922 -319 
L 3609 -319 
L 3609 3284 
Q 3522 3109 3372 2900 
L 3156 3156 
Q 3769 4122 4025 5319 
L 4325 5209 
Q 4228 4763 4013 4159 
L 4959 4159 
Q 4822 4647 4641 5094 
L 4947 5216 
Q 5119 4759 5281 4159 
L 5919 4159 
L 5919 3853 
L 5119 3853 
L 5119 2913 
L 5900 2913 
L 5900 2613 
L 5119 2613 
L 5119 1613 
L 5900 1613 
L 5900 1313 
L 5119 1313 
L 5119 275 
L 6003 275 
L 6003 -44 
z
M 4800 2913 
L 4800 3853 
L 3922 3853 
L 3922 2913 
L 4800 2913 
z
M 4800 1613 
L 4800 2613 
L 3922 2613 
L 3922 1613 
L 4800 1613 
z
M 4800 275 
L 4800 1313 
L 3922 1313 
L 3922 275 
L 4800 275 
z
M 3256 4416 
L 525 4416 
L 525 4716 
L 1778 4716 
Q 1716 4856 1538 5172 
L 1825 5313 
Q 1981 5056 2113 4716 
L 3256 4716 
L 3256 4416 
z
M 1753 3244 
L 1575 2981 
Q 1356 3228 1228 3316 
Q 975 2838 728 2572 
L 481 2753 
Q 1003 3350 1241 4231 
L 1538 4134 
Q 1481 3897 1356 3603 
Q 1591 3416 1753 3244 
z
M 3072 2944 
L 2859 2688 
Q 2572 3097 2369 3297 
Q 2247 3034 1972 2644 
L 1709 2803 
Q 2134 3381 2400 4225 
L 2688 4134 
Q 2613 3897 2491 3578 
Q 2809 3294 3072 2944 
z
M 3256 1747 
L 2053 1747 
L 2053 1472 
Q 2797 981 3181 609 
L 2975 331 
Q 2456 856 2053 1113 
L 2053 -319 
L 1734 -319 
L 1734 1241 
Q 1272 681 609 178 
L 403 434 
Q 1319 1106 1703 1747 
L 441 1747 
L 441 2059 
L 1734 2059 
L 1734 2463 
L 2053 2463 
L 2053 2059 
L 3256 2059 
L 3256 1747 
z
" transform="scale(0.015625)"/>
        <path id="MicrosoftJhengHeiRegular-8a0a" d="M 2541 4300 
L 416 4300 
L 416 4616 
L 1409 4616 
Q 1322 4853 1131 5191 
L 1422 5331 
Q 1613 4994 1753 4616 
L 2541 4616 
L 2541 4300 
z
M 6181 1119 
Q 6113 506 5942 106 
Q 5772 -294 5556 -294 
Q 5222 -294 5100 376 
Q 4978 1047 4978 1491 
L 4978 4788 
L 3700 4788 
L 3700 2778 
L 4709 2778 
L 4709 2472 
L 3700 2472 
L 3700 -341 
L 3366 -341 
L 3366 2472 
L 2625 2472 
L 2625 2778 
L 3366 2778 
L 3366 4788 
L 2675 4788 
L 2675 5094 
L 5306 5094 
L 5306 1716 
Q 5306 891 5404 475 
Q 5503 59 5547 59 
Q 5591 59 5709 465 
Q 5828 872 5869 1300 
L 6181 1119 
z
M 2356 3366 
L 569 3366 
L 569 3681 
L 2356 3681 
L 2356 3366 
z
M 2338 2450 
L 569 2450 
L 569 2753 
L 2338 2753 
L 2338 2450 
z
M 2338 -225 
L 1997 -225 
L 1997 159 
L 959 159 
L 959 -325 
L 622 -325 
L 622 1819 
L 2338 1819 
L 2338 -225 
z
M 1997 469 
L 1997 1503 
L 959 1503 
L 959 469 
L 1997 469 
z
" transform="scale(0.015625)"/>
        <path id="MicrosoftJhengHeiRegular-20" transform="scale(0.015625)"/>
        <path id="MicrosoftJhengHeiRegular-34" d="M 3472 1300 
L 2847 1300 
L 2847 0 
L 2328 0 
L 2328 1300 
L 41 1300 
L 41 1644 
L 2203 4841 
L 2847 4841 
L 2847 1731 
L 3472 1731 
L 3472 1300 
z
M 2328 1731 
L 2328 3863 
Q 2328 4084 2341 4366 
L 2328 4366 
Q 2303 4297 2144 3994 
L 622 1731 
L 2328 1731 
z
" transform="scale(0.015625)"/>
        <path id="MicrosoftJhengHeiRegular-64" d="M 3488 0 
L 2969 0 
L 2969 594 
L 2956 594 
Q 2572 -81 1763 -81 
Q 1106 -81 718 386 
Q 331 853 331 1647 
Q 331 2497 765 3017 
Q 1200 3538 1913 3538 
Q 2625 3538 2956 2972 
L 2969 2972 
L 2969 5116 
L 3488 5116 
L 3488 0 
z
M 2969 2081 
Q 2969 2506 2680 2800 
Q 2391 3094 1972 3094 
Q 1453 3094 1158 2711 
Q 863 2328 863 1675 
Q 863 1078 1145 720 
Q 1428 363 1906 363 
Q 2366 363 2667 698 
Q 2969 1034 2969 1556 
L 2969 2081 
z
" transform="scale(0.015625)"/>
        <path id="MicrosoftJhengHeiRegular-62" d="M 1088 506 
L 1088 0 
L 566 0 
L 566 5116 
L 1088 5116 
L 1088 2844 
L 1103 2844 
Q 1513 3538 2300 3538 
Q 2959 3538 3340 3072 
Q 3722 2606 3722 1828 
Q 3722 966 3295 442 
Q 2869 -81 2141 -81 
Q 1456 -81 1103 506 
L 1088 506 
z
M 1088 1403 
Q 1088 963 1380 663 
Q 1672 363 2094 363 
Q 2603 363 2895 756 
Q 3188 1150 3188 1844 
Q 3188 2422 2916 2758 
Q 2644 3094 2181 3094 
Q 1703 3094 1395 2755 
Q 1088 2416 1088 1897 
L 1088 1403 
z
" transform="scale(0.015625)"/>
        <path id="MicrosoftJhengHeiRegular-2b" d="M 3947 1797 
L 2578 1797 
L 2578 434 
L 2147 434 
L 2147 1797 
L 784 1797 
L 784 2234 
L 2147 2234 
L 2147 3597 
L 2578 3597 
L 2578 2234 
L 3947 2234 
L 3947 1797 
z
" transform="scale(0.015625)"/>
        <path id="MicrosoftJhengHeiRegular-6545" d="M 6053 -72 
L 5838 -372 
Q 4972 122 4525 684 
Q 3984 81 3169 -359 
L 2925 -91 
Q 3828 369 4306 953 
Q 3853 1591 3609 2669 
L 3922 2772 
Q 4131 1806 4506 1234 
Q 5088 2150 5253 3909 
L 3994 3909 
Q 3728 3138 3250 2419 
L 2981 2619 
Q 3744 3775 4019 5288 
L 4366 5269 
Q 4266 4769 4109 4238 
L 5966 4238 
L 5966 3909 
L 5594 3909 
Q 5372 1900 4709 947 
Q 5228 350 6053 -72 
z
M 3097 3878 
L 1919 3878 
L 1919 2559 
L 2797 2559 
L 2797 -6 
L 2463 -6 
L 2463 403 
L 1050 403 
L 1050 -172 
L 716 -172 
L 716 2559 
L 1606 2559 
L 1606 3878 
L 453 3878 
L 453 4213 
L 1606 4213 
L 1606 5275 
L 1919 5275 
L 1919 4213 
L 3097 4213 
L 3097 3878 
z
M 2463 738 
L 2463 2228 
L 1050 2228 
L 1050 738 
L 2463 738 
z
" transform="scale(0.015625)"/>
        <path id="MicrosoftJhengHeiRegular-969c" d="M 5984 3584 
L 2266 3584 
L 2266 3891 
L 3309 3891 
Q 3175 4238 2994 4506 
L 2472 4506 
L 2472 4819 
L 3916 4819 
Q 3828 4966 3700 5141 
L 4000 5306 
Q 4194 5063 4306 4819 
L 5850 4819 
L 5850 4506 
L 5288 4506 
Q 5097 4094 4978 3891 
L 5984 3891 
L 5984 3584 
z
M 4928 4506 
L 3347 4506 
Q 3506 4222 3647 3891 
L 4634 3891 
Q 4822 4206 4928 4506 
z
M 1697 3291 
Q 2234 2550 2234 1863 
Q 2234 1556 2054 1331 
Q 1875 1106 1209 1147 
L 1088 1478 
Q 1331 1466 1466 1466 
Q 1716 1466 1819 1583 
Q 1922 1700 1922 1894 
Q 1922 2159 1764 2545 
Q 1606 2931 1356 3238 
Q 1616 3994 1850 4813 
L 953 4813 
L 953 -306 
L 634 -306 
L 634 5131 
L 2194 5131 
L 2194 4813 
Q 1997 4150 1697 3291 
z
M 5997 550 
L 4256 550 
L 4256 -331 
L 3938 -331 
L 3938 550 
L 2259 550 
L 2259 872 
L 3938 872 
L 3938 1319 
L 2644 1319 
L 2644 3156 
L 5656 3156 
L 5656 1319 
L 4256 1319 
L 4256 872 
L 5997 872 
L 5997 550 
z
M 5319 2400 
L 5319 2853 
L 2956 2853 
L 2956 2400 
L 5319 2400 
z
M 5319 1631 
L 5319 2113 
L 2956 2113 
L 2956 1631 
L 5319 1631 
z
" transform="scale(0.015625)"/>
        <path id="MicrosoftJhengHeiRegular-31" d="M 3313 0 
L 594 0 
L 594 466 
L 1694 466 
L 1694 4272 
L 566 3931 
L 566 4434 
L 2216 4950 
L 2216 466 
L 3313 466 
L 3313 0 
z
" transform="scale(0.015625)"/>
        <path id="MicrosoftJhengHeiRegular-30" d="M 294 2322 
Q 294 3603 711 4262 
Q 1128 4922 1916 4922 
Q 3425 4922 3425 2441 
Q 3425 1234 3011 576 
Q 2597 -81 1806 -81 
Q 1069 -81 681 550 
Q 294 1181 294 2322 
z
M 825 2350 
Q 825 363 1863 363 
Q 2891 363 2891 2378 
Q 2891 4475 1888 4475 
Q 825 4475 825 2350 
z
" transform="scale(0.015625)"/>
        <path id="MicrosoftJhengHeiRegular-25" d="M 266 3625 
Q 266 4219 580 4566 
Q 894 4913 1425 4913 
Q 1938 4913 2223 4589 
Q 2509 4266 2509 3694 
Q 2509 3125 2192 2770 
Q 1875 2416 1356 2416 
Q 856 2416 561 2748 
Q 266 3081 266 3625 
z
M 700 3656 
Q 700 3241 886 3008 
Q 1072 2775 1391 2775 
Q 1716 2775 1897 3014 
Q 2078 3253 2078 3678 
Q 2078 4097 1898 4328 
Q 1719 4559 1403 4559 
Q 1081 4559 890 4312 
Q 700 4066 700 3656 
z
M 4578 4841 
L 1478 -38 
L 1016 -38 
L 4116 4841 
L 4578 4841 
z
M 3144 1134 
Q 3144 1725 3456 2079 
Q 3769 2434 4297 2434 
Q 4806 2434 5093 2106 
Q 5381 1778 5381 1197 
Q 5381 625 5061 275 
Q 4741 -75 4231 -75 
Q 3741 -75 3442 256 
Q 3144 588 3144 1134 
z
M 3572 1163 
Q 3572 756 3761 522 
Q 3950 288 4263 288 
Q 4588 288 4769 530 
Q 4950 772 4950 1194 
Q 4950 1616 4772 1841 
Q 4594 2066 4278 2066 
Q 3947 2066 3759 1823 
Q 3572 1581 3572 1163 
z
" transform="scale(0.015625)"/>
       </defs>
       <use xlink:href="#MicrosoftJhengHeiRegular-96dc"/>
       <use xlink:href="#MicrosoftJhengHeiRegular-8a0a" x="100"/>
       <use xlink:href="#MicrosoftJhengHeiRegular-20" x="200"/>
       <use xlink:href="#MicrosoftJhengHeiRegular-34" x="225"/>
       <use xlink:href="#MicrosoftJhengHeiRegular-64" x="282.958984"/>
       <use xlink:href="#MicrosoftJhengHeiRegular-62" x="346.337891"/>
       <use xlink:href="#MicrosoftJhengHeiRegular-20" x="409.570312"/>
       <use xlink:href="#MicrosoftJhengHeiRegular-2b" x="434.570312"/>
       <use xlink:href="#MicrosoftJhengHeiRegular-20" x="508.300781"/>
       <use xlink:href="#MicrosoftJhengHeiRegular-6545" x="533.300781"/>
       <use xlink:href="#MicrosoftJhengHeiRegular-969c" x="633.300781"/>
       <use xlink:href="#MicrosoftJhengHeiRegular-20" x="733.300781"/>
       <use xlink:href="#MicrosoftJhengHeiRegular-31" x="758.300781"/>
       <use xlink:href="#MicrosoftJhengHeiRegular-30" x="816.259766"/>
       <use xlink:href="#MicrosoftJhengHeiRegular-25" x="874.21875"/>
      </g>
     </g>
    </g>
    <g id="xtick_2">
     <g id="line2d_2">
      <g>
       <use xlink:href="#m02caf69aaf" x="472.775313" y="645.09655" style="stroke: #000000; stroke-width: 0.8"/>
      </g>
     </g>
     <g id="text_2">
      <!-- 雜訊 7db + 故障 10% -->
      <g transform="translate(427.015724 684.722378) rotate(-15) scale(0.1 -0.1)">
       <defs>
        <path id="MicrosoftJhengHeiRegular-37" d="M 3391 4688 
L 1459 0 
L 922 0 
L 2741 4366 
L 288 4366 
L 288 4841 
L 3391 4841 
L 3391 4688 
z
" transform="scale(0.015625)"/>
       </defs>
       <use xlink:href="#MicrosoftJhengHeiRegular-96dc"/>
       <use xlink:href="#MicrosoftJhengHeiRegular-8a0a" x="100"/>
       <use xlink:href="#MicrosoftJhengHeiRegular-20" x="200"/>
       <use xlink:href="#MicrosoftJhengHeiRegular-37" x="225"/>
       <use xlink:href="#MicrosoftJhengHeiRegular-64" x="282.958984"/>
       <use xlink:href="#MicrosoftJhengHeiRegular-62" x="346.337891"/>
       <use xlink:href="#MicrosoftJhengHeiRegular-20" x="409.570312"/>
       <use xlink:href="#MicrosoftJhengHeiRegular-2b" x="434.570312"/>
       <use xlink:href="#MicrosoftJhengHeiRegular-20" x="508.300781"/>
       <use xlink:href="#MicrosoftJhengHeiRegular-6545" x="533.300781"/>
       <use xlink:href="#MicrosoftJhengHeiRegular-969c" x="633.300781"/>
       <use xlink:href="#MicrosoftJhengHeiRegular-20" x="733.300781"/>
       <use xlink:href="#MicrosoftJhengHeiRegular-31" x="758.300781"/>
       <use xlink:href="#MicrosoftJhengHeiRegular-30" x="816.259766"/>
       <use xlink:href="#MicrosoftJhengHeiRegular-25" x="874.21875"/>
      </g>
     </g>
    </g>
    <g id="xtick_3">
     <g id="line2d_3">
      <g>
       <use xlink:href="#m02caf69aaf" x="793.743773" y="645.09655" style="stroke: #000000; stroke-width: 0.8"/>
      </g>
     </g>
     <g id="text_3">
      <!-- 雜訊 10db + 故障 10% -->
      <g transform="translate(745.185263 686.222315) rotate(-15) scale(0.1 -0.1)">
       <use xlink:href="#MicrosoftJhengHeiRegular-96dc"/>
       <use xlink:href="#MicrosoftJhengHeiRegular-8a0a" x="100"/>
       <use xlink:href="#MicrosoftJhengHeiRegular-20" x="200"/>
       <use xlink:href="#MicrosoftJhengHeiRegular-31" x="225"/>
       <use xlink:href="#MicrosoftJhengHeiRegular-30" x="282.958984"/>
       <use xlink:href="#MicrosoftJhengHeiRegular-64" x="340.917969"/>
       <use xlink:href="#MicrosoftJhengHeiRegular-62" x="404.296875"/>
       <use xlink:href="#MicrosoftJhengHeiRegular-20" x="467.529297"/>
       <use xlink:href="#MicrosoftJhengHeiRegular-2b" x="492.529297"/>
       <use xlink:href="#MicrosoftJhengHeiRegular-20" x="566.259766"/>
       <use xlink:href="#MicrosoftJhengHeiRegular-6545" x="591.259766"/>
       <use xlink:href="#MicrosoftJhengHeiRegular-969c" x="691.259766"/>
       <use xlink:href="#MicrosoftJhengHeiRegular-20" x="791.259766"/>
       <use xlink:href="#MicrosoftJhengHeiRegular-31" x="816.259766"/>
       <use xlink:href="#MicrosoftJhengHeiRegular-30" x="874.21875"/>
       <use xlink:href="#MicrosoftJhengHeiRegular-25" x="932.177734"/>
      </g>
     </g>
    </g>
    <g id="text_4">
     <!-- 測試情境 -->
     <g transform="translate(452.775313 700.617296) scale(0.1 -0.1)">
      <defs>
       <path id="MicrosoftJhengHeiRegular-6e2c" d="M 5797 128 
Q 5797 -150 5633 -242 
Q 5469 -334 5038 -334 
Q 4800 -334 4563 -319 
L 4481 0 
Q 5288 0 5383 28 
Q 5478 56 5478 225 
L 5478 5253 
L 5797 5253 
L 5797 128 
z
M 1813 4453 
L 1581 4206 
Q 1156 4666 609 5013 
L 794 5253 
Q 1409 4906 1813 4453 
z
M 3853 1075 
L 2578 1075 
L 2766 947 
Q 2406 209 1863 -353 
L 1600 -134 
Q 2138 397 2463 1075 
L 2016 1075 
L 2016 5125 
L 3853 5125 
L 3853 1075 
z
M 3541 3928 
L 3541 4813 
L 2338 4813 
L 2338 3928 
L 3541 3928 
z
M 3541 2681 
L 3541 3609 
L 2338 3609 
L 2338 2681 
L 3541 2681 
z
M 3541 1394 
L 3541 2369 
L 2338 2369 
L 2338 1394 
L 3541 1394 
z
M 4769 825 
L 4447 825 
L 4447 4844 
L 4769 4844 
L 4769 825 
z
M 1594 2803 
L 1356 2572 
Q 994 3019 403 3456 
L 622 3713 
Q 1266 3209 1594 2803 
z
M 1631 1747 
Q 1059 238 678 -325 
L 428 -109 
Q 959 753 1338 1906 
L 1631 1747 
z
M 4019 -25 
L 3744 -191 
Q 3513 350 3116 813 
L 3378 991 
Q 3816 463 4019 -25 
z
" transform="scale(0.015625)"/>
       <path id="MicrosoftJhengHeiRegular-8a66" d="M 2419 4263 
L 441 4263 
L 441 4575 
L 1313 4575 
Q 1256 4791 1056 5216 
L 1363 5319 
Q 1534 4984 1663 4575 
L 2419 4575 
L 2419 4263 
z
M 6028 903 
Q 5816 -328 5419 -328 
Q 5234 -328 5104 -109 
Q 4975 109 4773 909 
Q 4572 1709 4513 3775 
L 2631 3775 
L 2631 4097 
L 4506 4097 
Q 4494 4684 4506 5288 
L 4831 5288 
L 4831 4097 
L 5947 4097 
L 5947 3775 
L 4844 3775 
Q 4884 1684 5104 859 
Q 5325 34 5416 34 
Q 5463 34 5559 289 
Q 5656 544 5734 1100 
L 6028 903 
z
M 5900 4494 
L 5650 4319 
Q 5384 4731 5147 4978 
L 5381 5153 
Q 5759 4778 5900 4494 
z
M 2284 3341 
L 588 3341 
L 588 3653 
L 2284 3653 
L 2284 3341 
z
M 4447 716 
Q 3478 344 2553 56 
L 2456 378 
Q 2894 503 3272 641 
L 3272 2631 
L 2631 2631 
L 2631 2944 
L 4263 2944 
L 4263 2631 
L 3591 2631 
L 3591 763 
Q 3953 881 4416 1063 
L 4447 716 
z
M 2284 2425 
L 588 2425 
L 588 2731 
L 2284 2731 
L 2284 2425 
z
M 2203 -178 
L 1881 -178 
L 1881 141 
L 991 141 
L 991 -331 
L 647 -331 
L 647 1797 
L 2203 1797 
L 2203 -178 
z
M 1881 459 
L 1881 1478 
L 991 1478 
L 991 459 
L 1881 459 
z
" transform="scale(0.015625)"/>
       <path id="MicrosoftJhengHeiRegular-60c5" d="M 6022 2975 
L 2344 2975 
L 2344 3284 
L 4038 3284 
L 4038 3744 
L 2613 3744 
L 2613 4038 
L 4038 4038 
L 4038 4459 
L 2438 4459 
L 2438 4775 
L 4038 4775 
L 4038 5269 
L 4366 5269 
L 4366 4775 
L 5925 4775 
L 5925 4459 
L 4366 4459 
L 4366 4038 
L 5778 4038 
L 5778 3744 
L 4366 3744 
L 4366 3284 
L 6022 3284 
L 6022 2975 
z
M 2278 2822 
L 2047 2547 
Q 1866 2922 1619 3225 
L 1619 -319 
L 1294 -319 
L 1294 5269 
L 1619 5269 
L 1619 3669 
Q 1991 3297 2278 2822 
z
M 1006 3816 
Q 938 2938 763 2259 
L 441 2369 
Q 613 2972 691 3872 
L 1006 3816 
z
M 5656 116 
Q 5656 -66 5547 -194 
Q 5438 -322 5211 -326 
Q 4984 -331 4634 -331 
L 4513 6 
Q 4775 -13 5166 -13 
Q 5331 -13 5331 153 
L 5331 697 
L 3022 697 
Q 2916 103 2566 -391 
L 2278 -172 
Q 2759 506 2759 1638 
L 2759 2534 
L 5656 2534 
L 5656 116 
z
M 5331 1778 
L 5331 2222 
L 3091 2222 
L 3091 1778 
L 5331 1778 
z
M 5331 1013 
L 5331 1466 
L 3091 1466 
Q 3091 1234 3059 1013 
L 5331 1013 
z
" transform="scale(0.015625)"/>
       <path id="MicrosoftJhengHeiRegular-5883" d="M 6022 3513 
L 2188 3513 
L 2188 3816 
L 3231 3816 
Q 3150 4156 3016 4453 
L 2350 4453 
L 2350 4763 
L 3938 4763 
Q 3869 4963 3756 5209 
L 4056 5300 
Q 4209 5006 4269 4763 
L 5881 4763 
L 5881 4453 
L 5203 4453 
Q 5100 4169 4928 3816 
L 6022 3816 
L 6022 3513 
z
M 4831 4453 
L 3372 4453 
Q 3500 4113 3578 3816 
L 4569 3816 
Q 4734 4119 4831 4453 
z
M 2188 934 
Q 1209 472 513 244 
L 409 544 
L 1131 813 
L 1131 3256 
L 459 3256 
L 459 3566 
L 1131 3566 
L 1131 5184 
L 1447 5184 
L 1447 3566 
L 1947 3566 
L 1947 3256 
L 1447 3256 
L 1447 947 
Q 1809 1091 2131 1253 
L 2188 934 
z
M 6022 744 
Q 5994 259 5945 92 
Q 5897 -75 5756 -167 
Q 5616 -259 5228 -259 
Q 4731 -259 4570 -171 
Q 4409 -84 4409 178 
L 4409 1222 
L 3681 1222 
Q 3634 713 3159 237 
Q 2684 -238 1856 -341 
L 1716 -50 
Q 3163 153 3347 1222 
L 2547 1222 
L 2547 3059 
L 5650 3059 
L 5650 1222 
L 4728 1222 
L 4728 206 
Q 4728 78 4856 78 
L 5297 66 
Q 5519 66 5580 105 
Q 5641 144 5678 314 
Q 5716 484 5716 856 
L 6022 744 
z
M 5325 2291 
L 5325 2753 
L 2875 2753 
L 2875 2291 
L 5325 2291 
z
M 5325 1522 
L 5325 1984 
L 2875 1984 
L 2875 1522 
L 5325 1522 
z
" transform="scale(0.015625)"/>
      </defs>
      <use xlink:href="#MicrosoftJhengHeiRegular-6e2c"/>
      <use xlink:href="#MicrosoftJhengHeiRegular-8a66" x="100"/>
      <use xlink:href="#MicrosoftJhengHeiRegular-60c5" x="200"/>
      <use xlink:href="#MicrosoftJhengHeiRegular-5883" x="300"/>
     </g>
    </g>
   </g>
   <g id="matplotlib.axis_2">
    <g id="ytick_1">
     <g id="line2d_4">
      <path d="M 40.270313 645.09655 
L 905.280313 645.09655 
" clip-path="url(#p8d12d16071)" style="fill: none; stroke-dasharray: 2.96,1.28; stroke-dashoffset: 0; stroke: #b0b0b0; stroke-opacity: 0.7; stroke-width: 0.8"/>
     </g>
     <g id="line2d_5">
      <defs>
       <path id="m40bccdf625" d="M 0 0 
L -3.5 0 
" style="stroke: #000000; stroke-width: 0.8"/>
      </defs>
      <g>
       <use xlink:href="#m40bccdf625" x="40.270313" y="645.09655" style="stroke: #000000; stroke-width: 0.8"/>
      </g>
     </g>
     <g id="text_5">
      <!-- 0 -->
      <g transform="translate(27.475 649.093425) scale(0.1 -0.1)">
       <use xlink:href="#MicrosoftJhengHeiRegular-30"/>
      </g>
     </g>
    </g>
    <g id="ytick_2">
     <g id="line2d_6">
      <path d="M 40.270313 549.608181 
L 905.280313 549.608181 
" clip-path="url(#p8d12d16071)" style="fill: none; stroke-dasharray: 2.96,1.28; stroke-dashoffset: 0; stroke: #b0b0b0; stroke-opacity: 0.7; stroke-width: 0.8"/>
     </g>
     <g id="line2d_7">
      <g>
       <use xlink:href="#m40bccdf625" x="40.270313" y="549.608181" style="stroke: #000000; stroke-width: 0.8"/>
      </g>
     </g>
     <g id="text_6">
      <!-- 5 -->
      <g transform="translate(27.475 553.605056) scale(0.1 -0.1)">
       <defs>
        <path id="MicrosoftJhengHeiRegular-35" d="M 553 684 
Q 1047 363 1559 363 
Q 2072 363 2394 658 
Q 2716 953 2716 1441 
Q 2716 1931 2394 2200 
Q 2072 2469 1466 2469 
Q 1275 2469 706 2431 
L 706 4841 
L 3025 4841 
L 3025 4366 
L 1203 4366 
L 1203 2916 
Q 1475 2931 1616 2931 
Q 2378 2931 2811 2548 
Q 3244 2166 3244 1472 
Q 3244 750 2775 334 
Q 2306 -81 1544 -81 
Q 875 -81 553 119 
L 553 684 
z
" transform="scale(0.015625)"/>
       </defs>
       <use xlink:href="#MicrosoftJhengHeiRegular-35"/>
      </g>
     </g>
    </g>
    <g id="ytick_3">
     <g id="line2d_8">
      <path d="M 40.270313 454.119812 
L 905.280313 454.119812 
" clip-path="url(#p8d12d16071)" style="fill: none; stroke-dasharray: 2.96,1.28; stroke-dashoffset: 0; stroke: #b0b0b0; stroke-opacity: 0.7; stroke-width: 0.8"/>
     </g>
     <g id="line2d_9">
      <g>
       <use xlink:href="#m40bccdf625" x="40.270313" y="454.119812" style="stroke: #000000; stroke-width: 0.8"/>
      </g>
     </g>
     <g id="text_7">
      <!-- 10 -->
      <g transform="translate(21.679688 458.116687) scale(0.1 -0.1)">
       <use xlink:href="#MicrosoftJhengHeiRegular-31"/>
       <use xlink:href="#MicrosoftJhengHeiRegular-30" x="57.958984"/>
      </g>
     </g>
    </g>
    <g id="ytick_4">
     <g id="line2d_10">
      <path d="M 40.270313 358.631443 
L 905.280313 358.631443 
" clip-path="url(#p8d12d16071)" style="fill: none; stroke-dasharray: 2.96,1.28; stroke-dashoffset: 0; stroke: #b0b0b0; stroke-opacity: 0.7; stroke-width: 0.8"/>
     </g>
     <g id="line2d_11">
      <g>
       <use xlink:href="#m40bccdf625" x="40.270313" y="358.631443" style="stroke: #000000; stroke-width: 0.8"/>
      </g>
     </g>
     <g id="text_8">
      <!-- 15 -->
      <g transform="translate(21.679688 362.628318) scale(0.1 -0.1)">
       <use xlink:href="#MicrosoftJhengHeiRegular-31"/>
       <use xlink:href="#MicrosoftJhengHeiRegular-35" x="57.958984"/>
      </g>
     </g>
    </g>
    <g id="ytick_5">
     <g id="line2d_12">
      <path d="M 40.270313 263.143074 
L 905.280313 263.143074 
" clip-path="url(#p8d12d16071)" style="fill: none; stroke-dasharray: 2.96,1.28; stroke-dashoffset: 0; stroke: #b0b0b0; stroke-opacity: 0.7; stroke-width: 0.8"/>
     </g>
     <g id="line2d_13">
      <g>
       <use xlink:href="#m40bccdf625" x="40.270313" y="263.143074" style="stroke: #000000; stroke-width: 0.8"/>
      </g>
     </g>
     <g id="text_9">
      <!-- 20 -->
      <g transform="translate(21.679688 267.139949) scale(0.1 -0.1)">
       <defs>
        <path id="MicrosoftJhengHeiRegular-32" d="M 3219 0 
L 322 0 
L 322 472 
L 1731 1891 
Q 2431 2597 2592 2914 
Q 2753 3231 2753 3588 
Q 2753 4016 2511 4247 
Q 2269 4478 1816 4478 
Q 1169 4478 572 3919 
L 572 4475 
Q 1131 4922 1884 4922 
Q 2509 4922 2886 4575 
Q 3263 4228 3263 3634 
Q 3263 3178 3014 2736 
Q 2766 2294 2075 1603 
L 947 488 
L 947 475 
L 3219 475 
L 3219 0 
z
" transform="scale(0.015625)"/>
       </defs>
       <use xlink:href="#MicrosoftJhengHeiRegular-32"/>
       <use xlink:href="#MicrosoftJhengHeiRegular-30" x="57.958984"/>
      </g>
     </g>
    </g>
    <g id="ytick_6">
     <g id="line2d_14">
      <path d="M 40.270313 167.654705 
L 905.280313 167.654705 
" clip-path="url(#p8d12d16071)" style="fill: none; stroke-dasharray: 2.96,1.28; stroke-dashoffset: 0; stroke: #b0b0b0; stroke-opacity: 0.7; stroke-width: 0.8"/>
     </g>
     <g id="line2d_15">
      <g>
       <use xlink:href="#m40bccdf625" x="40.270313" y="167.654705" style="stroke: #000000; stroke-width: 0.8"/>
      </g>
     </g>
     <g id="text_10">
      <!-- 25 -->
      <g transform="translate(21.679688 171.65158) scale(0.1 -0.1)">
       <use xlink:href="#MicrosoftJhengHeiRegular-32"/>
       <use xlink:href="#MicrosoftJhengHeiRegular-35" x="57.958984"/>
      </g>
     </g>
    </g>
    <g id="ytick_7">
     <g id="line2d_16">
      <path d="M 40.270313 72.166336 
L 905.280313 72.166336 
" clip-path="url(#p8d12d16071)" style="fill: none; stroke-dasharray: 2.96,1.28; stroke-dashoffset: 0; stroke: #b0b0b0; stroke-opacity: 0.7; stroke-width: 0.8"/>
     </g>
     <g id="line2d_17">
      <g>
       <use xlink:href="#m40bccdf625" x="40.270313" y="72.166336" style="stroke: #000000; stroke-width: 0.8"/>
      </g>
     </g>
     <g id="text_11">
      <!-- 30 -->
      <g transform="translate(21.679688 76.163211) scale(0.1 -0.1)">
       <defs>
        <path id="MicrosoftJhengHeiRegular-33" d="M 438 756 
Q 934 363 1556 363 
Q 2056 363 2370 616 
Q 2684 869 2684 1313 
Q 2684 2281 1319 2281 
L 919 2281 
L 919 2728 
L 1300 2728 
Q 2513 2728 2513 3634 
Q 2513 4475 1588 4475 
Q 1075 4475 625 4122 
L 625 4644 
Q 1088 4922 1719 4922 
Q 2294 4922 2670 4606 
Q 3047 4291 3047 3769 
Q 3047 2819 2075 2538 
L 2075 2525 
Q 2591 2481 2905 2162 
Q 3219 1844 3219 1369 
Q 3219 706 2742 312 
Q 2266 -81 1525 -81 
Q 844 -81 438 178 
L 438 756 
z
" transform="scale(0.015625)"/>
       </defs>
       <use xlink:href="#MicrosoftJhengHeiRegular-33"/>
       <use xlink:href="#MicrosoftJhengHeiRegular-30" x="57.958984"/>
      </g>
     </g>
    </g>
    <g id="text_12">
     <!-- 樓層分類準確率 (%) -->
     <g transform="translate(15.19375 377.8039) rotate(-90) scale(0.1 -0.1)">
      <defs>
       <path id="MicrosoftJhengHeiRegular-6a13" d="M 6000 1150 
L 4997 1150 
Q 4806 794 4497 481 
Q 5438 106 5797 -81 
L 5609 -341 
Q 4784 66 4219 253 
Q 3409 -281 2188 -322 
L 2022 0 
Q 3141 -22 3859 378 
Q 3444 534 2606 738 
Q 2859 938 3078 1150 
L 2181 1150 
L 2181 1447 
L 3328 1447 
Q 3506 1606 3731 1875 
L 2553 1875 
L 2553 2922 
L 3931 2922 
L 3931 3234 
L 2641 3234 
L 2641 3972 
L 2200 3972 
L 2200 4263 
L 2641 4263 
L 2641 4975 
L 3931 4975 
L 3931 5288 
L 4259 5288 
L 4259 4975 
L 5569 4975 
L 5569 4263 
L 6000 4263 
L 6000 3972 
L 5569 3972 
L 5569 3234 
L 4259 3234 
L 4259 2922 
L 5634 2922 
L 5634 1875 
L 4138 1875 
Q 3997 1725 3734 1447 
L 4788 1447 
Q 4847 1553 4903 1697 
L 5209 1622 
Q 5191 1534 5138 1447 
L 6000 1447 
L 6000 1150 
z
M 2263 2488 
L 2003 2291 
Q 1803 2713 1544 3072 
L 1544 -303 
L 1222 -303 
L 1222 2741 
Q 878 1809 619 1450 
L 403 1719 
Q 956 2609 1222 3663 
L 503 3663 
L 503 3984 
L 1222 3984 
L 1222 5288 
L 1544 5288 
L 1544 3984 
L 2003 3984 
L 2003 3663 
L 1544 3663 
L 1544 3528 
Q 1988 3034 2263 2488 
z
M 5238 4263 
L 5238 4691 
L 4259 4691 
L 4259 4263 
L 5238 4263 
z
M 5238 3522 
L 5238 3972 
L 4259 3972 
L 4259 3522 
L 5238 3522 
z
M 3931 4263 
L 3931 4691 
L 2963 4691 
L 2963 4263 
L 3931 4263 
z
M 3931 3522 
L 3931 3972 
L 2963 3972 
L 2963 3522 
L 3931 3522 
z
M 5313 2159 
L 5313 2631 
L 4259 2631 
L 4259 2159 
L 5313 2159 
z
M 3931 2159 
L 3931 2631 
L 2878 2631 
L 2878 2159 
L 3931 2159 
z
M 4631 1150 
L 3494 1150 
Q 3381 1047 3178 878 
Q 3672 756 4156 594 
Q 4459 866 4631 1150 
z
" transform="scale(0.015625)"/>
       <path id="MicrosoftJhengHeiRegular-5c64" d="M 5684 3928 
L 1247 3928 
Q 1247 1969 1098 1100 
Q 950 231 703 -294 
L 434 -72 
Q 641 375 778 1145 
Q 916 1916 916 3525 
L 916 5113 
L 5684 5113 
L 5684 3928 
z
M 5356 4231 
L 5356 4800 
L 1247 4800 
L 1247 4231 
L 5356 4231 
z
M 3097 3469 
L 2797 3322 
Q 2572 3547 2363 3694 
L 2669 3841 
Q 2934 3634 3097 3469 
z
M 4884 3659 
Q 4722 3506 4366 3309 
L 4091 3506 
Q 4372 3641 4616 3834 
L 4884 3659 
z
M 5606 1888 
L 1650 1888 
L 1650 3250 
L 5606 3250 
L 5606 1888 
z
M 5281 2188 
L 5281 2950 
L 3781 2950 
L 3781 2188 
L 5281 2188 
z
M 4909 2719 
Q 4772 2525 4459 2253 
L 4213 2413 
Q 4509 2672 4653 2859 
L 4909 2719 
z
M 3456 2188 
L 3456 2950 
L 1984 2950 
L 1984 2188 
L 3456 2188 
z
M 3009 2413 
L 2759 2247 
Q 2563 2513 2356 2694 
L 2619 2859 
Q 2822 2678 3009 2413 
z
M 5416 -313 
L 5081 -313 
L 5081 -25 
L 2209 -25 
L 2209 -313 
L 1881 -313 
L 1881 1600 
L 5416 1600 
L 5416 -313 
z
M 5081 966 
L 5081 1294 
L 2209 1294 
L 2209 966 
L 5081 966 
z
M 5081 275 
L 5081 672 
L 2209 672 
L 2209 275 
L 5081 275 
z
" transform="scale(0.015625)"/>
       <path id="MicrosoftJhengHeiRegular-5206" d="M 2688 5141 
Q 1919 3378 647 2503 
L 416 2766 
Q 1650 3591 2350 5241 
L 2688 5141 
z
M 6047 2809 
L 5819 2522 
Q 4553 3422 4063 4878 
L 3584 4878 
L 3584 5222 
L 4300 5222 
Q 4778 3628 6047 2809 
z
M 5013 2894 
Q 4997 1866 4890 1047 
Q 4784 228 4681 31 
Q 4578 -166 4395 -250 
Q 4213 -334 3759 -334 
Q 3563 -334 3250 -319 
L 3175 25 
Q 3525 -6 3822 -6 
Q 4109 -6 4192 31 
Q 4275 69 4336 139 
Q 4397 209 4472 557 
Q 4547 906 4592 1420 
Q 4638 1934 4653 2553 
L 3009 2553 
Q 2794 669 897 -409 
L 691 -141 
Q 2450 847 2644 2553 
L 1434 2553 
L 1434 2894 
L 5013 2894 
z
" transform="scale(0.015625)"/>
       <path id="MicrosoftJhengHeiRegular-985e" d="M 3181 3659 
L 2088 3659 
L 2088 2394 
L 1766 2394 
L 1766 3659 
L 481 3659 
L 481 3950 
L 1766 3950 
L 1766 5269 
L 2088 5269 
L 2088 3950 
L 3181 3950 
L 3181 3659 
z
M 1428 4319 
L 1147 4172 
Q 931 4653 697 4978 
L 978 5141 
Q 1241 4759 1428 4319 
z
M 3097 4978 
Q 2906 4525 2656 4213 
L 2375 4372 
Q 2678 4781 2803 5131 
L 3097 4978 
z
M 6028 4825 
L 4831 4825 
Q 4772 4506 4634 4056 
L 5734 4056 
L 5734 966 
L 4263 966 
L 4469 750 
Q 3928 34 3378 -306 
L 3156 -78 
Q 3781 319 4213 966 
L 3513 966 
L 3513 4056 
L 4294 4056 
Q 4406 4363 4500 4825 
L 3231 4825 
L 3231 5119 
L 6028 5119 
L 6028 4825 
z
M 5416 3163 
L 5416 3763 
L 3834 3763 
L 3834 3163 
L 5416 3163 
z
M 5416 2247 
L 5416 2859 
L 3834 2859 
L 3834 2247 
L 5416 2247 
z
M 5416 1269 
L 5416 1941 
L 3834 1941 
L 3834 1269 
L 5416 1269 
z
M 1503 3238 
Q 1300 2722 819 2209 
L 563 2406 
Q 991 2884 1241 3378 
L 1503 3238 
z
M 3156 2516 
L 2888 2344 
Q 2691 2744 2356 3194 
L 2625 3359 
Q 2922 2978 3156 2516 
z
M 2900 1984 
L 2650 1844 
Q 2384 2144 2303 2209 
L 2553 2375 
Q 2797 2144 2900 1984 
z
M 3188 1381 
L 2059 1381 
Q 2034 1181 1997 1088 
Q 2541 781 2975 347 
L 2759 109 
Q 2381 494 1906 788 
Q 1525 59 794 -347 
L 531 -122 
Q 1647 488 1728 1381 
L 500 1381 
L 500 1684 
L 1747 1684 
Q 1772 1978 1772 2209 
L 2088 2209 
Q 2094 2119 2094 2019 
Q 2094 1841 2075 1684 
L 3188 1684 
L 3188 1381 
z
M 6028 -91 
L 5813 -331 
Q 5319 216 4788 513 
L 4972 744 
Q 5534 463 6028 -91 
z
" transform="scale(0.015625)"/>
       <path id="MicrosoftJhengHeiRegular-6e96" d="M 6016 738 
L 3391 738 
L 3391 -353 
L 3059 -353 
L 3059 738 
L 447 738 
L 447 1056 
L 3059 1056 
L 3059 1650 
L 2431 1650 
L 2431 3731 
Q 2231 3494 1947 3219 
L 1741 3494 
Q 2491 4175 2944 5269 
L 3263 5166 
Q 3153 4894 2950 4513 
L 4197 4513 
Q 4144 4766 3916 5159 
L 4225 5253 
Q 4428 4878 4538 4513 
L 5856 4513 
L 5856 4206 
L 4372 4206 
L 4372 3675 
L 5619 3675 
L 5619 3366 
L 4372 3366 
L 4372 2834 
L 5619 2834 
L 5619 2522 
L 4372 2522 
L 4372 1972 
L 5941 1972 
L 5941 1650 
L 3391 1650 
L 3391 1056 
L 6016 1056 
L 6016 738 
z
M 4044 3675 
L 4044 4206 
L 2766 4206 
L 2766 3675 
L 4044 3675 
z
M 4044 2834 
L 4044 3366 
L 2766 3366 
L 2766 2834 
L 4044 2834 
z
M 4044 1972 
L 4044 2522 
L 2766 2522 
L 2766 1972 
L 4044 1972 
z
M 2047 4531 
L 1856 4256 
Q 1384 4672 819 4959 
L 1019 5222 
Q 1663 4878 2047 4531 
z
M 1638 3353 
L 1441 3091 
Q 1063 3378 453 3622 
L 641 3897 
Q 1122 3719 1638 3353 
z
M 2003 2591 
Q 1300 1713 672 1363 
L 481 1625 
Q 1063 1963 1778 2828 
L 2003 2591 
z
" transform="scale(0.015625)"/>
       <path id="MicrosoftJhengHeiRegular-78ba" d="M 6003 50 
L 3444 50 
L 3444 -313 
L 3109 -313 
L 3109 2778 
Q 2819 2513 2681 2394 
L 2472 2625 
Q 3541 3547 3853 4384 
L 3009 4384 
L 3009 3647 
L 2681 3647 
L 2681 4703 
L 3988 4703 
Q 4128 5084 4178 5288 
L 4481 5216 
Q 4425 4963 4325 4703 
L 5863 4703 
L 5863 3647 
L 5538 3647 
L 5538 4384 
L 4206 4384 
Q 3956 3769 3444 3144 
L 4575 3144 
Q 4447 3522 4353 3688 
L 4647 3794 
Q 4797 3447 4872 3144 
L 5913 3144 
L 5913 2834 
L 4813 2834 
L 4813 2241 
L 5819 2241 
L 5819 1941 
L 4813 1941 
L 4813 1313 
L 5819 1313 
L 5819 1025 
L 4813 1025 
L 4813 359 
L 6003 359 
L 6003 50 
z
M 4488 2241 
L 4488 2834 
L 3444 2834 
L 3444 2241 
L 4488 2241 
z
M 4488 1313 
L 4488 1941 
L 3444 1941 
L 3444 1313 
L 4488 1313 
z
M 4488 359 
L 4488 1025 
L 3444 1025 
L 3444 359 
L 4488 359 
z
M 2478 4659 
L 1650 4659 
Q 1509 3713 1253 3078 
L 2363 3078 
L 2363 206 
L 2047 206 
L 2047 481 
L 1350 481 
L 1350 78 
L 1031 78 
L 1031 2559 
Q 891 2278 672 1953 
L 409 2169 
Q 1128 3138 1350 4659 
L 538 4659 
L 538 4991 
L 2478 4991 
L 2478 4659 
z
M 2034 794 
L 2034 2753 
L 1350 2753 
L 1350 794 
L 2034 794 
z
" transform="scale(0.015625)"/>
       <path id="MicrosoftJhengHeiRegular-7387" d="M 5825 4372 
L 3163 4372 
L 3391 4225 
Q 3094 3766 2613 3384 
Q 3025 3394 3547 3469 
Q 3719 3650 3903 3897 
L 4184 3731 
Q 3528 2869 2663 2303 
Q 3200 2328 3944 2444 
Q 3825 2650 3681 2816 
L 3950 2981 
Q 4347 2506 4581 1959 
L 4306 1791 
L 4116 2169 
Q 3163 2019 2163 1959 
L 2094 2253 
Q 2597 2553 3206 3128 
Q 2600 3084 2156 3059 
L 2094 3341 
Q 2734 3794 3084 4372 
L 659 4372 
L 659 4684 
L 3084 4684 
Q 2931 5016 2791 5209 
L 3138 5325 
Q 3341 4959 3450 4684 
L 5825 4684 
L 5825 4372 
z
M 1831 3384 
L 1588 3150 
Q 1219 3575 750 3891 
L 997 4122 
Q 1447 3819 1831 3384 
z
M 5663 3884 
Q 5247 3450 4703 3109 
L 4447 3353 
Q 4906 3591 5409 4084 
L 5663 3884 
z
M 1991 2534 
Q 1331 2031 728 1709 
L 563 2003 
Q 1206 2334 1838 2853 
L 1991 2534 
z
M 5888 1991 
L 5663 1734 
Q 5288 2119 4488 2597 
L 4703 2847 
Q 5450 2409 5888 1991 
z
M 6003 916 
L 3406 916 
L 3406 -325 
L 3059 -325 
L 3059 916 
L 434 916 
L 434 1222 
L 3059 1222 
L 3059 1825 
L 3406 1825 
L 3406 1222 
L 6003 1222 
L 6003 916 
z
" transform="scale(0.015625)"/>
       <path id="MicrosoftJhengHeiRegular-28" d="M 1513 -1100 
Q 469 94 469 1847 
Q 469 3609 1513 4841 
L 1988 4841 
Q 925 3556 925 1853 
Q 925 159 1981 -1100 
L 1513 -1100 
z
" transform="scale(0.015625)"/>
       <path id="MicrosoftJhengHeiRegular-29" d="M 84 -1100 
Q 1138 153 1138 1853 
Q 1138 3563 75 4841 
L 553 4841 
Q 1603 3609 1603 1847 
Q 1603 97 553 -1100 
L 84 -1100 
z
" transform="scale(0.015625)"/>
      </defs>
      <use xlink:href="#MicrosoftJhengHeiRegular-6a13"/>
      <use xlink:href="#MicrosoftJhengHeiRegular-5c64" x="100"/>
      <use xlink:href="#MicrosoftJhengHeiRegular-5206" x="200"/>
      <use xlink:href="#MicrosoftJhengHeiRegular-985e" x="300"/>
      <use xlink:href="#MicrosoftJhengHeiRegular-6e96" x="400"/>
      <use xlink:href="#MicrosoftJhengHeiRegular-78ba" x="500"/>
      <use xlink:href="#MicrosoftJhengHeiRegular-7387" x="600"/>
      <use xlink:href="#MicrosoftJhengHeiRegular-20" x="700"/>
      <use xlink:href="#MicrosoftJhengHeiRegular-28" x="725"/>
      <use xlink:href="#MicrosoftJhengHeiRegular-25" x="757.080078"/>
      <use xlink:href="#MicrosoftJhengHeiRegular-29" x="845.117188"/>
     </g>
    </g>
   </g>
   <g id="patch_12">
    <path d="M 40.270313 645.09655 
L 40.270313 22.7925 
" style="fill: none; stroke: #000000; stroke-width: 0.8; stroke-linejoin: miter; stroke-linecap: square"/>
   </g>
   <g id="patch_13">
    <path d="M 905.280313 645.09655 
L 905.280313 22.7925 
" style="fill: none; stroke: #000000; stroke-width: 0.8; stroke-linejoin: miter; stroke-linecap: square"/>
   </g>
   <g id="patch_14">
    <path d="M 40.270313 645.09655 
L 905.280313 645.09655 
" style="fill: none; stroke: #000000; stroke-width: 0.8; stroke-linejoin: miter; stroke-linecap: square"/>
   </g>
   <g id="patch_15">
    <path d="M 40.270313 22.7925 
L 905.280313 22.7925 
" style="fill: none; stroke: #000000; stroke-width: 0.8; stroke-linejoin: miter; stroke-linecap: square"/>
   </g>
   <g id="text_13">
    <!-- 不同情境下的模型穩健性測試 - 樓層分類 -->
    <g transform="translate(365.185 16.7925) scale(0.12 -0.12)">
     <defs>
      <path id="MicrosoftJhengHeiRegular-4e0d" d="M 6100 1422 
L 5888 1147 
Q 4453 2288 3413 2822 
L 3413 -359 
L 3053 -359 
L 3053 3244 
Q 2147 2163 616 1153 
L 391 1447 
Q 2747 2853 3591 4775 
L 519 4775 
L 519 5119 
L 5959 5119 
L 5959 4775 
L 3981 4775 
Q 3750 4278 3413 3731 
L 3413 3219 
Q 5203 2181 6100 1422 
z
" transform="scale(0.015625)"/>
      <path id="MicrosoftJhengHeiRegular-540c" d="M 5722 159 
Q 5722 -156 5500 -247 
Q 5322 -297 5042 -305 
Q 4763 -313 4306 -313 
L 4172 25 
Q 4341 13 5222 13 
Q 5394 13 5394 178 
L 5394 4800 
L 1088 4800 
L 1088 -325 
L 763 -325 
L 763 5119 
L 5722 5119 
L 5722 159 
z
M 4856 3688 
L 1631 3688 
L 1631 4013 
L 4856 4013 
L 4856 3688 
z
M 4494 984 
L 1991 984 
L 1991 2881 
L 4494 2881 
L 4494 984 
z
M 4147 1325 
L 4147 2553 
L 2338 2553 
L 2338 1325 
L 4147 1325 
z
" transform="scale(0.015625)"/>
      <path id="MicrosoftJhengHeiRegular-4e0b" d="M 5997 4781 
L 3097 4781 
L 3097 3413 
Q 4769 2525 5356 2009 
L 5153 1697 
Q 4334 2381 3097 3028 
L 3097 -319 
L 2753 -319 
L 2753 4781 
L 447 4781 
L 447 5125 
L 5997 5125 
L 5997 4781 
z
" transform="scale(0.015625)"/>
      <path id="MicrosoftJhengHeiRegular-7684" d="M 2650 -197 
L 2328 -197 
L 2328 353 
L 947 353 
L 947 -325 
L 622 -325 
L 622 4213 
L 1216 4213 
Q 1456 4641 1672 5313 
L 1991 5247 
Q 1878 4909 1556 4213 
L 2650 4213 
L 2650 -197 
z
M 2328 2516 
L 2328 3891 
L 947 3891 
L 947 2516 
L 2328 2516 
z
M 2328 678 
L 2328 2194 
L 947 2194 
L 947 678 
L 2328 678 
z
M 5856 4206 
Q 5819 2769 5717 1534 
Q 5616 300 5512 81 
Q 5409 -138 5248 -230 
Q 5088 -322 4638 -322 
Q 4441 -322 4122 -313 
L 4019 13 
Q 4281 3 4584 3 
Q 4869 3 4948 9 
Q 5028 16 5115 89 
Q 5203 163 5240 261 
Q 5278 359 5340 996 
Q 5403 1634 5443 2401 
Q 5484 3169 5503 3891 
L 3834 3891 
Q 3500 3225 3059 2625 
L 2797 2809 
Q 3638 3913 3988 5269 
L 4313 5184 
Q 4156 4672 3963 4206 
L 5856 4206 
z
M 4678 1338 
L 4409 1147 
Q 4100 1859 3481 2638 
L 3756 2816 
Q 4331 2122 4678 1338 
z
" transform="scale(0.015625)"/>
      <path id="MicrosoftJhengHeiRegular-6a21" d="M 5978 4441 
L 5063 4441 
L 5063 4078 
L 4744 4078 
L 4744 4441 
L 4269 4441 
L 4269 4744 
L 4744 4744 
L 4744 5275 
L 5063 5275 
L 5063 4744 
L 5978 4744 
L 5978 4441 
z
M 4025 4441 
L 3603 4441 
L 3603 4078 
L 3263 4078 
L 3263 4441 
L 2322 4441 
L 2322 4744 
L 3263 4744 
L 3263 5275 
L 3603 5275 
L 3603 4744 
L 4025 4744 
L 4025 4441 
z
M 2431 2444 
L 2181 2234 
Q 1878 2763 1703 2994 
L 1703 -341 
L 1375 -341 
L 1375 2816 
Q 1056 2041 628 1422 
L 403 1672 
Q 984 2497 1369 3634 
L 500 3634 
L 500 3950 
L 1375 3950 
L 1375 5275 
L 1703 5275 
L 1703 3950 
L 2344 3950 
L 2344 3634 
L 1703 3634 
L 1703 3494 
Q 2128 2969 2431 2444 
z
M 5947 991 
L 4109 991 
Q 3838 -25 2369 -341 
L 2181 -44 
Q 3481 191 3775 991 
L 2247 991 
L 2247 1300 
L 3847 1300 
Q 3909 1647 3909 1856 
L 2747 1856 
L 2747 3834 
L 5569 3834 
L 5569 1856 
L 4244 1856 
Q 4234 1619 4184 1300 
L 5947 1300 
L 5947 991 
z
M 5253 3016 
L 5253 3531 
L 3059 3531 
L 3059 3016 
L 5253 3016 
z
M 5253 2156 
L 5253 2719 
L 3059 2719 
L 3059 2156 
L 5253 2156 
z
M 6028 -63 
L 5825 -325 
Q 5241 103 4319 531 
L 4531 788 
Q 5369 400 6028 -63 
z
" transform="scale(0.015625)"/>
      <path id="MicrosoftJhengHeiRegular-578b" d="M 5703 2291 
Q 5703 2109 5600 1992 
Q 5497 1875 5369 1842 
Q 5241 1809 4888 1809 
Q 4700 1809 4422 1819 
L 4281 2169 
Q 4603 2141 4881 2141 
Q 5147 2141 5215 2158 
Q 5284 2175 5329 2256 
Q 5375 2338 5375 2444 
L 5375 5234 
L 5703 5234 
L 5703 2291 
z
M 3834 3406 
L 2919 3406 
L 2919 1959 
L 2591 1959 
L 2591 3406 
L 1734 3406 
Q 1663 2456 819 1791 
L 550 2016 
Q 1347 2647 1409 3406 
L 469 3406 
L 469 3731 
L 1428 3731 
Q 1459 4306 1459 4775 
L 659 4775 
L 659 5088 
L 3750 5088 
L 3750 4775 
L 2919 4775 
L 2919 3731 
L 3834 3731 
L 3834 3406 
z
M 2591 3731 
L 2591 4775 
L 1791 4775 
Q 1791 4397 1753 3731 
L 2591 3731 
z
M 4594 2816 
L 4269 2816 
L 4269 4953 
L 4594 4953 
L 4594 2816 
z
M 5991 -184 
L 428 -184 
L 428 134 
L 3059 134 
L 3059 1038 
L 844 1038 
L 844 1350 
L 3059 1350 
L 3059 2022 
L 3391 2022 
L 3391 1350 
L 5563 1350 
L 5563 1038 
L 3391 1038 
L 3391 134 
L 5991 134 
L 5991 -184 
z
" transform="scale(0.015625)"/>
      <path id="MicrosoftJhengHeiRegular-7a69" d="M 2316 2484 
L 2119 2247 
Q 1859 2578 1644 2772 
L 1644 -313 
L 1356 -313 
L 1356 2741 
Q 988 1778 569 1166 
L 372 1441 
Q 900 2181 1338 3438 
L 513 3438 
L 513 3738 
L 1356 3738 
L 1356 4684 
Q 1147 4622 641 4525 
L 525 4819 
Q 1516 4978 2125 5313 
L 2284 5075 
Q 1966 4878 1644 4781 
L 1644 3738 
L 2253 3738 
L 2253 3438 
L 1644 3438 
L 1644 3144 
Q 2003 2859 2316 2484 
z
M 5631 5013 
Q 4725 4772 2663 4691 
L 2534 4984 
Q 4281 4997 5497 5281 
L 5631 5013 
z
M 5697 4666 
Q 5550 4475 5184 4178 
L 4909 4353 
Q 5253 4619 5422 4800 
L 5697 4666 
z
M 4403 4294 
L 4128 4172 
Q 4003 4363 3828 4550 
L 4078 4678 
Q 4253 4538 4403 4294 
z
M 3316 4281 
L 3028 4153 
Q 2869 4313 2675 4494 
L 2944 4634 
Q 3053 4544 3316 4281 
z
M 5906 3206 
L 2509 3206 
L 2509 3475 
L 4000 3475 
L 4000 3809 
L 2675 3809 
L 2675 4072 
L 5759 4072 
L 5759 3809 
L 4313 3809 
L 4313 3475 
L 5906 3475 
L 5906 3206 
z
M 5997 2022 
L 5644 2022 
L 5644 1403 
L 2834 1403 
L 2834 1663 
L 5344 1663 
L 5344 2022 
L 2388 2022 
L 2388 2291 
L 5344 2291 
L 5344 2631 
L 2834 2631 
L 2834 2900 
L 5644 2900 
L 5644 2291 
L 5997 2291 
L 5997 2022 
z
M 4506 775 
L 4269 575 
Q 3838 1081 3809 1106 
L 4031 1313 
Q 4338 1006 4506 775 
z
M 5119 563 
Q 5053 88 4948 -54 
Q 4844 -197 4628 -197 
L 3616 -197 
Q 3422 -197 3305 -86 
Q 3188 25 3188 213 
L 3188 1056 
L 3494 1056 
L 3494 275 
Q 3494 78 3688 78 
L 4525 78 
Q 4609 78 4679 139 
Q 4750 200 4763 269 
L 4825 634 
L 5119 563 
z
M 6022 63 
L 5772 -78 
Q 5547 394 5184 844 
L 5422 1006 
Q 5813 516 6022 63 
z
M 2822 850 
Q 2506 175 2247 -91 
L 1997 84 
Q 2325 463 2566 997 
L 2822 850 
z
" transform="scale(0.015625)"/>
      <path id="MicrosoftJhengHeiRegular-5065" d="M 1778 5259 
Q 1713 5019 1559 4575 
L 1409 4141 
L 1409 -325 
L 1081 -325 
L 1081 3413 
Q 891 2988 581 2472 
L 372 2753 
Q 1016 3841 1472 5331 
L 1778 5259 
z
M 5953 978 
L 4575 978 
L 4575 319 
L 4256 319 
L 4256 978 
L 3091 978 
L 3091 1288 
L 4256 1288 
L 4256 1869 
L 3272 1869 
L 3272 2169 
L 4256 2169 
L 4256 2681 
L 3494 2681 
L 3494 2981 
L 4256 2981 
L 4256 3559 
L 3138 3559 
L 3138 3866 
L 4256 3866 
L 4256 4422 
L 3463 4422 
L 3463 4738 
L 4256 4738 
L 4256 5269 
L 4575 5269 
L 4575 4738 
L 5544 4738 
L 5544 3866 
L 5925 3866 
L 5925 3559 
L 5544 3559 
L 5544 2681 
L 4575 2681 
L 4575 2169 
L 5856 2169 
L 5856 1869 
L 4575 1869 
L 4575 1288 
L 5953 1288 
L 5953 978 
z
M 5228 3866 
L 5228 4422 
L 4575 4422 
L 4575 3866 
L 5228 3866 
z
M 5228 2981 
L 5228 3559 
L 4575 3559 
L 4575 2981 
L 5228 2981 
z
M 5991 63 
L 5906 -250 
Q 4272 -272 3587 -98 
Q 2903 75 2516 538 
Q 2228 63 1825 -331 
L 1606 -103 
Q 2053 344 2309 813 
Q 1975 1356 1766 1959 
L 2034 2094 
Q 2228 1556 2456 1166 
Q 2653 1744 2706 2650 
L 1888 2650 
L 1888 2956 
Q 2247 3556 2631 4422 
L 1894 4422 
L 1894 4722 
L 2988 4722 
L 2988 4422 
Q 2556 3509 2259 2963 
L 3034 2963 
Q 3013 1759 2675 825 
Q 3075 325 3667 184 
Q 4259 44 5991 63 
z
" transform="scale(0.015625)"/>
      <path id="MicrosoftJhengHeiRegular-6027" d="M 2438 3263 
L 2228 3016 
Q 1963 3331 1716 3553 
L 1716 -313 
L 1381 -313 
L 1381 5281 
L 1716 5281 
L 1716 3981 
Q 2094 3659 2438 3263 
z
M 5991 -178 
L 2338 -178 
L 2338 153 
L 4122 153 
L 4122 1825 
L 2644 1825 
L 2644 2150 
L 4122 2150 
L 4122 3566 
L 3194 3566 
Q 2950 2925 2638 2472 
L 2363 2644 
Q 3006 3741 3194 4872 
L 3525 4800 
Q 3438 4291 3309 3903 
L 4122 3903 
L 4122 5259 
L 4475 5259 
L 4475 3903 
L 5881 3903 
L 5881 3566 
L 4475 3566 
L 4475 2150 
L 5734 2150 
L 5734 1825 
L 4475 1825 
L 4475 153 
L 5991 153 
L 5991 -178 
z
M 1081 3853 
Q 969 2934 756 2303 
L 428 2394 
Q 650 3081 744 3897 
L 1081 3853 
z
" transform="scale(0.015625)"/>
      <path id="MicrosoftJhengHeiRegular-2d" d="M 2328 1722 
L 488 1722 
L 488 2138 
L 2328 2138 
L 2328 1722 
z
" transform="scale(0.015625)"/>
     </defs>
     <use xlink:href="#MicrosoftJhengHeiRegular-4e0d"/>
     <use xlink:href="#MicrosoftJhengHeiRegular-540c" x="100"/>
     <use xlink:href="#MicrosoftJhengHeiRegular-60c5" x="200"/>
     <use xlink:href="#MicrosoftJhengHeiRegular-5883" x="300"/>
     <use xlink:href="#MicrosoftJhengHeiRegular-4e0b" x="400"/>
     <use xlink:href="#MicrosoftJhengHeiRegular-7684" x="500"/>
     <use xlink:href="#MicrosoftJhengHeiRegular-6a21" x="600"/>
     <use xlink:href="#MicrosoftJhengHeiRegular-578b" x="700"/>
     <use xlink:href="#MicrosoftJhengHeiRegular-7a69" x="800"/>
     <use xlink:href="#MicrosoftJhengHeiRegular-5065" x="900"/>
     <use xlink:href="#MicrosoftJhengHeiRegular-6027" x="1000"/>
     <use xlink:href="#MicrosoftJhengHeiRegular-6e2c" x="1100"/>
     <use xlink:href="#MicrosoftJhengHeiRegular-8a66" x="1200"/>
     <use xlink:href="#MicrosoftJhengHeiRegular-20" x="1300"/>
     <use xlink:href="#MicrosoftJhengHeiRegular-2d" x="1325"/>
     <use xlink:href="#MicrosoftJhengHeiRegular-20" x="1368.164062"/>
     <use xlink:href="#MicrosoftJhengHeiRegular-6a13" x="1393.164062"/>
     <use xlink:href="#MicrosoftJhengHeiRegular-5c64" x="1493.164062"/>
     <use xlink:href="#MicrosoftJhengHeiRegular-5206" x="1593.164062"/>
     <use xlink:href="#MicrosoftJhengHeiRegular-985e" x="1693.164062"/>
    </g>
   </g>
   <g id="legend_1">
    <g id="patch_16">
     <path d="M 955.530813 77.289375 
L 1063.938625 77.289375 
Q 1065.938625 77.289375 1065.938625 75.289375 
L 1065.938625 29.7925 
Q 1065.938625 27.7925 1063.938625 27.7925 
L 955.530813 27.7925 
Q 953.530813 27.7925 953.530813 29.7925 
L 953.530813 75.289375 
Q 953.530813 77.289375 955.530813 77.289375 
z
" style="fill: #ffffff; opacity: 0.8; stroke: #cccccc; stroke-linejoin: miter"/>
    </g>
    <g id="patch_17">
     <path d="M 957.530813 39.78625 
L 977.530813 39.78625 
L 977.530813 32.78625 
L 957.530813 32.78625 
z
" style="fill: #1f77b4"/>
    </g>
    <g id="text_14">
     <!-- hadnn+rf -->
     <g transform="translate(985.530813 39.78625) scale(0.1 -0.1)">
      <defs>
       <path id="MicrosoftJhengHeiRegular-68" d="M 3406 0 
L 2888 0 
L 2888 1994 
Q 2888 3094 2066 3094 
Q 1650 3094 1369 2775 
Q 1088 2456 1088 1956 
L 1088 0 
L 566 0 
L 566 5116 
L 1088 5116 
L 1088 2878 
L 1103 2878 
Q 1500 3538 2241 3538 
Q 3406 3538 3406 2128 
L 3406 0 
z
" transform="scale(0.015625)"/>
       <path id="MicrosoftJhengHeiRegular-61" d="M 647 3209 
Q 1156 3538 1813 3538 
Q 3016 3538 3016 2259 
L 3016 0 
L 2494 0 
L 2494 544 
L 2475 544 
Q 2116 -81 1413 -81 
Q 900 -81 604 192 
Q 309 466 309 916 
Q 309 1875 1447 2038 
L 2491 2188 
Q 2491 3088 1772 3088 
Q 1144 3088 647 2659 
L 647 3209 
z
M 1644 1641 
Q 1200 1581 1026 1426 
Q 853 1272 853 950 
Q 853 691 1039 528 
Q 1225 366 1525 366 
Q 1941 366 2216 662 
Q 2491 959 2491 1403 
L 2491 1753 
L 1644 1641 
z
" transform="scale(0.015625)"/>
       <path id="MicrosoftJhengHeiRegular-6e" d="M 3406 0 
L 2884 0 
L 2884 1975 
Q 2884 3094 2066 3094 
Q 1638 3094 1363 2773 
Q 1088 2453 1088 1972 
L 1088 0 
L 566 0 
L 566 3456 
L 1088 3456 
L 1088 2878 
L 1103 2878 
Q 1491 3538 2238 3538 
Q 2806 3538 3106 3172 
Q 3406 2806 3406 2113 
L 3406 0 
z
" transform="scale(0.015625)"/>
       <path id="MicrosoftJhengHeiRegular-72" d="M 2341 2922 
Q 2197 3031 1925 3031 
Q 1559 3031 1323 2682 
Q 1088 2334 1088 1769 
L 1088 0 
L 566 0 
L 566 3456 
L 1088 3456 
L 1088 2741 
L 1103 2741 
Q 1222 3109 1465 3312 
Q 1709 3516 2003 3516 
Q 2225 3516 2341 3469 
L 2341 2922 
z
" transform="scale(0.015625)"/>
       <path id="MicrosoftJhengHeiRegular-66" d="M 2241 4653 
Q 2075 4744 1872 4744 
Q 1288 4744 1288 4000 
L 1288 3456 
L 2097 3456 
L 2097 3006 
L 1288 3006 
L 1288 0 
L 772 0 
L 772 3006 
L 181 3006 
L 181 3456 
L 772 3456 
L 772 4025 
Q 772 4572 1083 4881 
Q 1394 5191 1847 5191 
Q 2100 5191 2241 5131 
L 2241 4653 
z
" transform="scale(0.015625)"/>
      </defs>
      <use xlink:href="#MicrosoftJhengHeiRegular-68"/>
      <use xlink:href="#MicrosoftJhengHeiRegular-61" x="60.888672"/>
      <use xlink:href="#MicrosoftJhengHeiRegular-64" x="115.625"/>
      <use xlink:href="#MicrosoftJhengHeiRegular-6e" x="179.003906"/>
      <use xlink:href="#MicrosoftJhengHeiRegular-6e" x="239.84375"/>
      <use xlink:href="#MicrosoftJhengHeiRegular-2b" x="300.683594"/>
      <use xlink:href="#MicrosoftJhengHeiRegular-72" x="374.414062"/>
      <use xlink:href="#MicrosoftJhengHeiRegular-66" x="413.621094"/>
     </g>
    </g>
    <g id="patch_18">
     <path d="M 957.530813 55.265937 
L 977.530813 55.265937 
L 977.530813 48.265937 
L 957.530813 48.265937 
z
" style="fill: #ff7f0e"/>
    </g>
    <g id="text_15">
     <!-- mlp -->
     <g transform="translate(985.530813 55.265937) scale(0.1 -0.1)">
      <defs>
       <path id="MicrosoftJhengHeiRegular-6d" d="M 5438 0 
L 4916 0 
L 4916 1984 
Q 4916 2588 4733 2841 
Q 4550 3094 4128 3094 
Q 3775 3094 3519 2762 
Q 3263 2431 3263 1975 
L 3263 0 
L 2744 0 
L 2744 2056 
Q 2744 3094 1941 3094 
Q 1572 3094 1330 2778 
Q 1088 2463 1088 1975 
L 1088 0 
L 566 0 
L 566 3456 
L 1088 3456 
L 1088 2909 
L 1103 2909 
Q 1466 3538 2172 3538 
Q 2509 3538 2779 3339 
Q 3050 3141 3147 2816 
Q 3531 3538 4297 3538 
Q 5438 3538 5438 2128 
L 5438 0 
z
" transform="scale(0.015625)"/>
       <path id="MicrosoftJhengHeiRegular-6c" d="M 569 0 
L 569 5116 
L 1088 5116 
L 1088 0 
L 569 0 
z
" transform="scale(0.015625)"/>
       <path id="MicrosoftJhengHeiRegular-70" d="M 1088 506 
L 1088 -1591 
L 566 -1591 
L 566 3456 
L 1088 3456 
L 1088 2844 
L 1103 2844 
Q 1513 3538 2300 3538 
Q 2959 3538 3340 3077 
Q 3722 2616 3722 1828 
Q 3722 966 3295 442 
Q 2869 -81 2141 -81 
Q 1466 -81 1103 506 
L 1088 506 
z
M 1088 1400 
Q 1088 966 1378 664 
Q 1669 363 2094 363 
Q 2603 363 2895 756 
Q 3188 1150 3188 1844 
Q 3188 2428 2913 2761 
Q 2638 3094 2181 3094 
Q 1706 3094 1397 2758 
Q 1088 2422 1088 1900 
L 1088 1400 
z
" transform="scale(0.015625)"/>
      </defs>
      <use xlink:href="#MicrosoftJhengHeiRegular-6d"/>
      <use xlink:href="#MicrosoftJhengHeiRegular-6c" x="92.626953"/>
      <use xlink:href="#MicrosoftJhengHeiRegular-70" x="118.554688"/>
     </g>
    </g>
    <g id="patch_19">
     <path d="M 957.530813 70.745625 
L 977.530813 70.745625 
L 977.530813 63.745625 
L 957.530813 63.745625 
z
" style="fill: #2ca02c"/>
    </g>
    <g id="text_16">
     <!-- original HADNN -->
     <g transform="translate(985.530813 70.745625) scale(0.1 -0.1)">
      <defs>
       <path id="MicrosoftJhengHeiRegular-6f" d="M 331 1684 
Q 331 2547 801 3042 
Q 1272 3538 2081 3538 
Q 2844 3538 3276 3059 
Q 3709 2581 3709 1738 
Q 3709 919 3240 419 
Q 2772 -81 2000 -81 
Q 1253 -81 792 400 
Q 331 881 331 1684 
z
M 863 1706 
Q 863 1094 1183 728 
Q 1503 363 2038 363 
Q 2581 363 2879 719 
Q 3178 1075 3178 1719 
Q 3178 2378 2883 2736 
Q 2588 3094 2038 3094 
Q 1500 3094 1181 2723 
Q 863 2353 863 1706 
z
" transform="scale(0.015625)"/>
       <path id="MicrosoftJhengHeiRegular-69" d="M 497 4700 
Q 497 4847 595 4948 
Q 694 5050 834 5050 
Q 981 5050 1082 4947 
Q 1184 4844 1184 4700 
Q 1184 4563 1082 4459 
Q 981 4356 834 4356 
Q 688 4356 592 4456 
Q 497 4556 497 4700 
z
M 569 0 
L 569 3456 
L 1088 3456 
L 1088 0 
L 569 0 
z
" transform="scale(0.015625)"/>
       <path id="MicrosoftJhengHeiRegular-67" d="M 3488 272 
Q 3488 -1628 1688 -1628 
Q 1050 -1628 566 -1381 
L 566 -850 
Q 1150 -1175 1684 -1175 
Q 2969 -1175 2969 203 
L 2969 588 
L 2956 588 
Q 2550 -81 1763 -81 
Q 1113 -81 722 384 
Q 331 850 331 1616 
Q 331 2500 759 3019 
Q 1188 3538 1913 3538 
Q 2616 3538 2956 2972 
L 2969 2972 
L 2969 3456 
L 3488 3456 
L 3488 272 
z
M 2969 2081 
Q 2969 2503 2678 2798 
Q 2388 3094 1978 3094 
Q 1459 3094 1161 2712 
Q 863 2331 863 1653 
Q 863 1066 1150 714 
Q 1438 363 1897 363 
Q 2363 363 2666 698 
Q 2969 1034 2969 1556 
L 2969 2081 
z
" transform="scale(0.015625)"/>
       <path id="MicrosoftJhengHeiRegular-48" d="M 4241 0 
L 3709 0 
L 3709 2222 
L 1172 2222 
L 1172 0 
L 641 0 
L 641 4841 
L 1172 4841 
L 1172 2703 
L 3709 2703 
L 3709 4841 
L 4241 4841 
L 4241 0 
z
" transform="scale(0.015625)"/>
       <path id="MicrosoftJhengHeiRegular-41" d="M 4353 0 
L 3763 0 
L 3238 1375 
L 1163 1375 
L 672 0 
L 78 0 
L 1941 4841 
L 2481 4841 
L 4353 0 
z
M 3056 1863 
L 2281 3953 
Q 2250 4041 2209 4272 
L 2194 4272 
Q 2159 4059 2116 3953 
L 1350 1863 
L 3056 1863 
z
" transform="scale(0.015625)"/>
       <path id="MicrosoftJhengHeiRegular-44" d="M 641 0 
L 641 4841 
L 1953 4841 
Q 4506 4841 4506 2481 
Q 4506 1350 3818 675 
Q 3131 0 1903 0 
L 641 0 
z
M 1172 4353 
L 1172 488 
L 1909 488 
Q 2875 488 3412 1006 
Q 3950 1525 3950 2466 
Q 3950 4353 1941 4353 
L 1172 4353 
z
" transform="scale(0.015625)"/>
       <path id="MicrosoftJhengHeiRegular-4e" d="M 4513 0 
L 3844 0 
L 1319 3909 
Q 1234 4047 1169 4200 
L 1150 4200 
Q 1175 4050 1175 3550 
L 1175 0 
L 641 0 
L 641 4841 
L 1347 4841 
L 3803 972 
Q 3991 672 4000 641 
L 4013 641 
Q 3978 881 3978 1369 
L 3978 4841 
L 4513 4841 
L 4513 0 
z
" transform="scale(0.015625)"/>
      </defs>
      <use xlink:href="#MicrosoftJhengHeiRegular-6f"/>
      <use xlink:href="#MicrosoftJhengHeiRegular-72" x="63.085938"/>
      <use xlink:href="#MicrosoftJhengHeiRegular-69" x="100.292969"/>
      <use xlink:href="#MicrosoftJhengHeiRegular-67" x="126.220703"/>
      <use xlink:href="#MicrosoftJhengHeiRegular-69" x="189.599609"/>
      <use xlink:href="#MicrosoftJhengHeiRegular-6e" x="215.527344"/>
      <use xlink:href="#MicrosoftJhengHeiRegular-61" x="276.367188"/>
      <use xlink:href="#MicrosoftJhengHeiRegular-6c" x="331.103516"/>
      <use xlink:href="#MicrosoftJhengHeiRegular-20" x="357.03125"/>
      <use xlink:href="#MicrosoftJhengHeiRegular-48" x="382.03125"/>
      <use xlink:href="#MicrosoftJhengHeiRegular-41" x="458.300781"/>
      <use xlink:href="#MicrosoftJhengHeiRegular-44" x="527.587891"/>
      <use xlink:href="#MicrosoftJhengHeiRegular-4e" x="603.076172"/>
      <use xlink:href="#MicrosoftJhengHeiRegular-4e" x="683.59375"/>
     </g>
    </g>
   </g>
  </g>
 </g>
 <defs>
  <clipPath id="p8d12d16071">
   <rect x="40.270313" y="22.7925" width="865.01" height="622.30405"/>
  </clipPath>
 </defs>
</svg>
