<?xml version="1.0" encoding="utf-8" standalone="no"?>
<!DOCTYPE svg PUBLIC "-//W3C//DTD SVG 1.1//EN"
  "http://www.w3.org/Graphics/SVG/1.1/DTD/svg11.dtd">
<svg xmlns:xlink="http://www.w3.org/1999/xlink" width="999.705pt" height="566.322599pt" viewBox="0 0 999.705 566.322599" xmlns="http://www.w3.org/2000/svg" version="1.1">
 <metadata>
  <rdf:RDF xmlns:dc="http://purl.org/dc/elements/1.1/" xmlns:cc="http://creativecommons.org/ns#" xmlns:rdf="http://www.w3.org/1999/02/22-rdf-syntax-ns#">
   <cc:Work>
    <dc:type rdf:resource="http://purl.org/dc/dcmitype/StillImage"/>
    <dc:date>2025-09-01T07:50:58.500913</dc:date>
    <dc:format>image/svg+xml</dc:format>
    <dc:creator>
     <cc:Agent>
      <dc:title>Matplotlib v3.7.1, https://matplotlib.org/</dc:title>
     </cc:Agent>
    </dc:creator>
   </cc:Work>
  </rdf:RDF>
 </metadata>
 <defs>
  <style type="text/css">*{stroke-linejoin: round; stroke-linecap: butt}</style>
 </defs>
 <g id="figure_1">
  <g id="patch_1">
   <path d="M 0 566.322599 
L 999.705 566.322599 
L 999.705 0 
L 0 0 
z
" style="fill: #ffffff"/>
  </g>
  <g id="axes_1">
   <g id="patch_2">
    <path d="M 42.575 507.688671 
L 992.505 507.688671 
L 992.505 22.7925 
L 42.575 22.7925 
z
" style="fill: #ffffff"/>
   </g>
   <g id="PolyCollection_1">
    <path d="M 196.028943 468.722981 
L 148.192875 468.722981 
L 145.357479 464.441266 
L 142.398682 460.159552 
L 139.338284 455.877837 
L 136.199553 451.596122 
L 133.006422 447.314408 
L 129.782702 443.032693 
L 126.551365 438.750979 
L 123.33396 434.469264 
L 120.150221 430.187549 
L 117.017891 425.905835 
L 113.952796 421.62412 
L 110.969138 417.342406 
L 108.079986 413.060691 
L 105.297894 408.778976 
L 102.63557 404.497262 
L 100.106495 400.215547 
L 97.725398 395.933833 
L 95.508501 391.652118 
L 93.473462 387.370403 
L 91.638975 383.088689 
L 90.024037 378.806974 
L 88.646913 374.52526 
L 87.523874 370.243545 
L 86.667836 365.96183 
L 86.087015 361.680116 
L 85.78375 357.398401 
L 85.753636 353.116687 
L 85.985063 348.834972 
L 86.459253 344.553257 
L 87.150819 340.271543 
L 88.028823 335.989828 
L 89.058251 331.708114 
L 90.201804 327.426399 
L 91.421833 323.144684 
L 92.682259 318.86297 
L 93.950311 314.581255 
L 95.197924 310.299541 
L 96.402698 306.017826 
L 97.548329 301.736111 
L 98.624526 297.454397 
L 99.626423 293.172682 
L 100.55359 288.890968 
L 101.408761 284.609253 
L 102.196403 280.327538 
L 102.921296 276.045824 
L 103.587239 271.764109 
L 104.196006 267.482394 
L 104.746627 263.20068 
L 105.235042 258.918965 
L 105.654132 254.637251 
L 105.99411 250.355536 
L 106.243208 246.073821 
L 106.388603 241.792107 
L 106.417502 237.510392 
L 106.318289 233.228678 
L 106.081673 228.946963 
L 105.701748 224.665248 
L 105.176905 220.383534 
L 104.51055 216.101819 
L 103.711566 211.820105 
L 102.794508 207.53839 
L 101.779503 203.256675 
L 100.691863 198.974961 
L 99.561418 194.693246 
L 98.42161 190.411532 
L 97.308396 186.129817 
L 96.259024 181.848102 
L 95.310759 177.566388 
L 94.499628 173.284673 
L 93.85928 169.002959 
L 93.419998 164.721244 
L 93.207928 160.439529 
L 93.244552 156.157815 
L 93.546388 151.8761 
L 94.124911 147.594386 
L 94.986654 143.312671 
L 96.133424 139.030956 
L 97.56259 134.749242 
L 99.267389 130.467527 
L 101.237211 126.185813 
L 103.457837 121.904098 
L 105.91164 117.622383 
L 108.577761 113.340669 
L 111.432283 109.058954 
L 114.448459 104.77724 
L 117.597019 100.495525 
L 120.846586 96.21381 
L 124.164227 91.932096 
L 127.516127 87.650381 
L 130.868375 83.368666 
L 134.187808 79.086952 
L 137.44288 74.805237 
L 140.604487 70.523523 
L 143.646697 66.241808 
L 146.547337 61.960093 
L 149.288395 57.678379 
L 151.856229 53.396664 
L 154.241572 49.11495 
L 156.439356 44.833235 
L 187.782462 44.833235 
L 187.782462 44.833235 
L 189.980246 49.11495 
L 192.365589 53.396664 
L 194.933423 57.678379 
L 197.674481 61.960093 
L 200.575121 66.241808 
L 203.617332 70.523523 
L 206.778938 74.805237 
L 210.03401 79.086952 
L 213.353443 83.368666 
L 216.705691 87.650381 
L 220.057592 91.932096 
L 223.375232 96.21381 
L 226.624799 100.495525 
L 229.773359 104.77724 
L 232.789536 109.058954 
L 235.644057 113.340669 
L 238.310178 117.622383 
L 240.763981 121.904098 
L 242.984607 126.185813 
L 244.954429 130.467527 
L 246.659229 134.749242 
L 248.088394 139.030956 
L 249.235164 143.312671 
L 250.096907 147.594386 
L 250.67543 151.8761 
L 250.977266 156.157815 
L 251.01389 160.439529 
L 250.80182 164.721244 
L 250.362538 169.002959 
L 249.72219 173.284673 
L 248.91106 177.566388 
L 247.962794 181.848102 
L 246.913422 186.129817 
L 245.800208 190.411532 
L 244.6604 194.693246 
L 243.529955 198.974961 
L 242.442315 203.256675 
L 241.42731 207.53839 
L 240.510252 211.820105 
L 239.711268 216.101819 
L 239.044913 220.383534 
L 238.520071 224.665248 
L 238.140145 228.946963 
L 237.903529 233.228678 
L 237.804316 237.510392 
L 237.833215 241.792107 
L 237.978611 246.073821 
L 238.227708 250.355536 
L 238.567686 254.637251 
L 238.986776 258.918965 
L 239.475191 263.20068 
L 240.025812 267.482394 
L 240.634579 271.764109 
L 241.300522 276.045824 
L 242.025415 280.327538 
L 242.813057 284.609253 
L 243.668228 288.890968 
L 244.595396 293.172682 
L 245.597292 297.454397 
L 246.673489 301.736111 
L 247.81912 306.017826 
L 249.023894 310.299541 
L 250.271508 314.581255 
L 251.539559 318.86297 
L 252.799985 323.144684 
L 254.020014 327.426399 
L 255.163567 331.708114 
L 256.192996 335.989828 
L 257.070999 340.271543 
L 257.762566 344.553257 
L 258.236755 348.834972 
L 258.468182 353.116687 
L 258.438068 357.398401 
L 258.134804 361.680116 
L 257.553982 365.96183 
L 256.697945 370.243545 
L 255.574906 374.52526 
L 254.197781 378.806974 
L 252.582843 383.088689 
L 250.748356 387.370403 
L 248.713317 391.652118 
L 246.49642 395.933833 
L 244.115323 400.215547 
L 241.586248 404.497262 
L 238.923924 408.778976 
L 236.141832 413.060691 
L 233.25268 417.342406 
L 230.269022 421.62412 
L 227.203927 425.905835 
L 224.071598 430.187549 
L 220.887858 434.469264 
L 217.670453 438.750979 
L 214.439116 443.032693 
L 211.215396 447.314408 
L 208.022265 451.596122 
L 204.883534 455.877837 
L 201.823137 460.159552 
L 198.86434 464.441266 
L 196.028943 468.722981 
z
" clip-path="url(#pbf4afbbf5e)" style="fill: #1f77b4; fill-opacity: 0.7"/>
   </g>
   <g id="PolyCollection_2">
    <path d="M 535.282947 485.647936 
L 499.797053 485.647936 
L 497.343326 481.656857 
L 494.722706 477.665779 
L 491.949576 473.6747 
L 489.041522 469.683621 
L 486.018991 465.692543 
L 482.904906 461.701464 
L 479.724262 457.710385 
L 476.503747 453.719306 
L 473.271375 449.728228 
L 470.056165 445.737149 
L 466.887824 441.74607 
L 463.796424 437.754992 
L 460.812038 433.763913 
L 457.964297 429.772834 
L 455.281839 425.781755 
L 452.791655 421.790677 
L 450.518308 417.799598 
L 448.483087 413.808519 
L 446.703123 409.817441 
L 445.190553 405.826362 
L 443.951801 401.835283 
L 442.987052 397.844204 
L 442.28999 393.853126 
L 441.847853 389.862047 
L 441.641796 385.870968 
L 441.64758 381.87989 
L 441.836517 377.888811 
L 442.17662 373.897732 
L 442.633853 369.906653 
L 443.173409 365.915575 
L 443.760905 361.924496 
L 444.363435 357.933417 
L 444.950425 353.942339 
L 445.494264 349.95126 
L 445.97071 345.960181 
L 446.359101 341.969102 
L 446.642417 337.978024 
L 446.807246 333.986945 
L 446.843696 329.995866 
L 446.745327 326.004788 
L 446.509107 322.013709 
L 446.135419 318.02263 
L 445.628104 314.031551 
L 444.994506 310.040473 
L 444.245482 306.049394 
L 443.395312 302.058315 
L 442.461466 298.067237 
L 441.464181 294.076158 
L 440.42583 290.085079 
L 439.370076 286.094 
L 438.320864 282.102922 
L 437.301292 278.111843 
L 436.332465 274.120764 
L 435.432413 270.129686 
L 434.615215 266.138607 
L 433.890384 262.147528 
L 433.262633 258.156449 
L 432.732042 254.165371 
L 432.294634 250.174292 
L 431.943338 246.183213 
L 431.669241 242.192135 
L 431.463028 238.201056 
L 431.316457 234.209977 
L 431.22375 230.218898 
L 431.182727 226.22782 
L 431.195604 222.236741 
L 431.269343 218.245662 
L 431.415547 214.254584 
L 431.649898 210.263505 
L 431.991202 206.272426 
L 432.460132 202.281347 
L 433.077801 198.290269 
L 433.864292 194.29919 
L 434.837264 190.308111 
L 436.010774 186.317032 
L 437.394366 182.325954 
L 438.9925 178.334875 
L 440.804332 174.343796 
L 442.823817 170.352718 
L 445.040106 166.361639 
L 447.438152 162.37056 
L 449.999479 158.379481 
L 452.703018 154.388403 
L 455.525962 150.397324 
L 458.444574 146.406245 
L 461.434914 142.415167 
L 464.473457 138.424088 
L 467.53759 134.433009 
L 470.605981 130.44193 
L 473.658832 126.450852 
L 476.678015 122.459773 
L 479.647115 118.468694 
L 482.551398 114.477616 
L 485.377711 110.486537 
L 488.114357 106.495458 
L 490.750945 102.504379 
L 493.278258 98.513301 
L 495.68814 94.522222 
L 497.973433 90.531143 
L 537.106567 90.531143 
L 537.106567 90.531143 
L 539.39186 94.522222 
L 541.801742 98.513301 
L 544.329055 102.504379 
L 546.965643 106.495458 
L 549.702289 110.486537 
L 552.528602 114.477616 
L 555.432885 118.468694 
L 558.401985 122.459773 
L 561.421168 126.450852 
L 564.474019 130.44193 
L 567.54241 134.433009 
L 570.606543 138.424088 
L 573.645086 142.415167 
L 576.635426 146.406245 
L 579.554038 150.397324 
L 582.376982 154.388403 
L 585.080521 158.379481 
L 587.641848 162.37056 
L 590.039894 166.361639 
L 592.256183 170.352718 
L 594.275668 174.343796 
L 596.0875 178.334875 
L 597.685634 182.325954 
L 599.069226 186.317032 
L 600.242736 190.308111 
L 601.215708 194.29919 
L 602.002199 198.290269 
L 602.619868 202.281347 
L 603.088798 206.272426 
L 603.430102 210.263505 
L 603.664453 214.254584 
L 603.810657 218.245662 
L 603.884396 222.236741 
L 603.897273 226.22782 
L 603.85625 230.218898 
L 603.763543 234.209977 
L 603.616972 238.201056 
L 603.410759 242.192135 
L 603.136662 246.183213 
L 602.785366 250.174292 
L 602.347958 254.165371 
L 601.817367 258.156449 
L 601.189616 262.147528 
L 600.464785 266.138607 
L 599.647587 270.129686 
L 598.747535 274.120764 
L 597.778708 278.111843 
L 596.759136 282.102922 
L 595.709924 286.094 
L 594.65417 290.085079 
L 593.615819 294.076158 
L 592.618534 298.067237 
L 591.684688 302.058315 
L 590.834518 306.049394 
L 590.085494 310.040473 
L 589.451896 314.031551 
L 588.944581 318.02263 
L 588.570893 322.013709 
L 588.334673 326.004788 
L 588.236304 329.995866 
L 588.272754 333.986945 
L 588.437583 337.978024 
L 588.720899 341.969102 
L 589.10929 345.960181 
L 589.585736 349.95126 
L 590.129575 353.942339 
L 590.716565 357.933417 
L 591.319095 361.924496 
L 591.906591 365.915575 
L 592.446147 369.906653 
L 592.90338 373.897732 
L 593.243483 377.888811 
L 593.43242 381.87989 
L 593.438204 385.870968 
L 593.232147 389.862047 
L 592.79001 393.853126 
L 592.092948 397.844204 
L 591.128199 401.835283 
L 589.889447 405.826362 
L 588.376877 409.817441 
L 586.596913 413.808519 
L 584.561692 417.799598 
L 582.288345 421.790677 
L 579.798161 425.781755 
L 577.115703 429.772834 
L 574.267962 433.763913 
L 571.283576 437.754992 
L 568.192176 441.74607 
L 565.023835 445.737149 
L 561.808625 449.728228 
L 558.576253 453.719306 
L 555.355738 457.710385 
L 552.175094 461.701464 
L 549.061009 465.692543 
L 546.038478 469.683621 
L 543.130424 473.6747 
L 540.357294 477.665779 
L 537.736674 481.656857 
L 535.282947 485.647936 
z
" clip-path="url(#pbf4afbbf5e)" style="fill: #ff7f0e; fill-opacity: 0.7"/>
   </g>
   <g id="PolyCollection_3">
    <path d="M 886.441302 481.132018 
L 839.49688 481.132018 
L 836.530041 476.866649 
L 833.436394 472.60128 
L 830.249566 468.335911 
L 827.00683 464.070542 
L 823.747823 459.805173 
L 820.513102 455.539804 
L 817.34259 451.274435 
L 814.274026 447.009066 
L 811.341502 442.743697 
L 808.574181 438.478328 
L 805.995271 434.212959 
L 803.621319 429.94759 
L 801.461872 425.682221 
L 799.519497 421.416852 
L 797.790184 417.151483 
L 796.26406 412.886114 
L 794.926394 408.620745 
L 793.758802 404.355376 
L 792.740574 400.090007 
L 791.850052 395.824638 
L 791.065955 391.559269 
L 790.368587 387.2939 
L 789.740853 383.028531 
L 789.169023 378.763161 
L 788.643208 374.497792 
L 788.157532 370.232423 
L 787.709981 365.967054 
L 787.301955 361.701685 
L 786.937569 357.436316 
L 786.622737 353.170947 
L 786.364126 348.905578 
L 786.168045 344.640209 
L 786.039374 340.37484 
L 785.980593 336.109471 
L 785.991009 331.844102 
L 786.06623 327.578733 
L 786.197939 323.313364 
L 786.373976 319.047995 
L 786.578733 314.782626 
L 786.793832 310.517257 
L 786.999025 306.251888 
L 787.173256 301.986519 
L 787.295817 297.72115 
L 787.347492 293.455781 
L 787.311644 289.190412 
L 787.175148 284.925043 
L 786.929143 280.659674 
L 786.569539 276.394305 
L 786.097287 272.128936 
L 785.518384 267.863567 
L 784.843629 263.598198 
L 784.088169 259.332829 
L 783.270838 255.06746 
L 782.413349 250.802091 
L 781.539377 246.536722 
L 780.673579 242.271353 
L 779.8406 238.005984 
L 779.06412 233.740615 
L 778.365992 229.475246 
L 777.765512 225.209877 
L 777.278872 220.944508 
L 776.91882 216.679139 
L 776.69455 212.41377 
L 776.611818 208.148401 
L 776.673289 203.883032 
L 776.879048 199.617663 
L 777.227264 195.352294 
L 777.714908 191.086925 
L 778.338479 186.821556 
L 779.094654 182.556187 
L 779.980795 178.290818 
L 780.99527 174.025449 
L 782.137547 169.76008 
L 783.408061 165.494711 
L 784.807873 161.229342 
L 786.338162 156.963973 
L 787.999617 152.698604 
L 789.791802 148.433235 
L 791.712577 144.167866 
L 793.757638 139.902497 
L 795.920248 135.637128 
L 798.191176 131.371759 
L 800.558874 127.10639 
L 803.009851 122.841021 
L 805.529216 118.575652 
L 808.101328 114.310283 
L 810.710468 110.044914 
L 813.34148 105.779545 
L 815.98029 101.514176 
L 818.614273 97.248807 
L 821.232429 92.983438 
L 823.82536 88.718069 
L 826.385076 84.4527 
L 828.90466 80.187331 
L 831.377854 75.921962 
L 833.798618 71.656593 
L 836.160738 67.391224 
L 838.457523 63.125855 
L 840.681637 58.860486 
L 885.256545 58.860486 
L 885.256545 58.860486 
L 887.480659 63.125855 
L 889.777444 67.391224 
L 892.139564 71.656593 
L 894.560328 75.921962 
L 897.033521 80.187331 
L 899.553106 84.4527 
L 902.112822 88.718069 
L 904.705753 92.983438 
L 907.323908 97.248807 
L 909.957892 101.514176 
L 912.596702 105.779545 
L 915.227714 110.044914 
L 917.836854 114.310283 
L 920.408966 118.575652 
L 922.928331 122.841021 
L 925.379308 127.10639 
L 927.747006 131.371759 
L 930.017934 135.637128 
L 932.180544 139.902497 
L 934.225605 144.167866 
L 936.14638 148.433235 
L 937.938565 152.698604 
L 939.60002 156.963973 
L 941.130309 161.229342 
L 942.530121 165.494711 
L 943.800634 169.76008 
L 944.942911 174.025449 
L 945.957386 178.290818 
L 946.843528 182.556187 
L 947.599703 186.821556 
L 948.223274 191.086925 
L 948.710917 195.352294 
L 949.059133 199.617663 
L 949.264893 203.883032 
L 949.326364 208.148401 
L 949.243632 212.41377 
L 949.019361 216.679139 
L 948.65931 220.944508 
L 948.17267 225.209877 
L 947.57219 229.475246 
L 946.874062 233.740615 
L 946.097582 238.005984 
L 945.264603 242.271353 
L 944.398805 246.536722 
L 943.524833 250.802091 
L 942.667344 255.06746 
L 941.850012 259.332829 
L 941.094553 263.598198 
L 940.419798 267.863567 
L 939.840894 272.128936 
L 939.368643 276.394305 
L 939.009039 280.659674 
L 938.763033 284.925043 
L 938.626538 289.190412 
L 938.59069 293.455781 
L 938.642365 297.72115 
L 938.764926 301.986519 
L 938.939157 306.251888 
L 939.144349 310.517257 
L 939.359449 314.782626 
L 939.564206 319.047995 
L 939.740243 323.313364 
L 939.871952 327.578733 
L 939.947173 331.844102 
L 939.957589 336.109471 
L 939.898807 340.37484 
L 939.770136 344.640209 
L 939.574056 348.905578 
L 939.315445 353.170947 
L 939.000613 357.436316 
L 938.636227 361.701685 
L 938.228201 365.967054 
L 937.780649 370.232423 
L 937.294974 374.497792 
L 936.769159 378.763161 
L 936.197329 383.028531 
L 935.569594 387.2939 
L 934.872227 391.559269 
L 934.08813 395.824638 
L 933.197608 400.090007 
L 932.17938 404.355376 
L 931.011787 408.620745 
L 929.674122 412.886114 
L 928.147998 417.151483 
L 926.418684 421.416852 
L 924.47631 425.682221 
L 922.316862 429.94759 
L 919.942911 434.212959 
L 917.364001 438.478328 
L 914.59668 442.743697 
L 911.664156 447.009066 
L 908.595592 451.274435 
L 905.42508 455.539804 
L 902.190358 459.805173 
L 898.931352 464.070542 
L 895.688615 468.335911 
L 892.501788 472.60128 
L 889.408141 476.866649 
L 886.441302 481.132018 
z
" clip-path="url(#pbf4afbbf5e)" style="fill: #2ca02c; fill-opacity: 0.7"/>
   </g>
   <g id="matplotlib.axis_1">
    <g id="xtick_1">
     <g id="line2d_1">
      <defs>
       <path id="mb1d3dd01b8" d="M 0 0 
L 0 3.5 
" style="stroke: #000000; stroke-width: 0.8"/>
      </defs>
      <g>
       <use xlink:href="#mb1d3dd01b8" x="172.110909" y="507.688671" style="stroke: #000000; stroke-width: 0.8"/>
      </g>
     </g>
     <g id="text_1">
      <!-- original HADNN -->
      <g transform="translate(135.914051 542.185838) rotate(-15) scale(0.1 -0.1)">
       <defs>
        <path id="MicrosoftJhengHeiRegular-6f" d="M 331 1684 
Q 331 2547 801 3042 
Q 1272 3538 2081 3538 
Q 2844 3538 3276 3059 
Q 3709 2581 3709 1738 
Q 3709 919 3240 419 
Q 2772 -81 2000 -81 
Q 1253 -81 792 400 
Q 331 881 331 1684 
z
M 863 1706 
Q 863 1094 1183 728 
Q 1503 363 2038 363 
Q 2581 363 2879 719 
Q 3178 1075 3178 1719 
Q 3178 2378 2883 2736 
Q 2588 3094 2038 3094 
Q 1500 3094 1181 2723 
Q 863 2353 863 1706 
z
" transform="scale(0.015625)"/>
        <path id="MicrosoftJhengHeiRegular-72" d="M 2341 2922 
Q 2197 3031 1925 3031 
Q 1559 3031 1323 2682 
Q 1088 2334 1088 1769 
L 1088 0 
L 566 0 
L 566 3456 
L 1088 3456 
L 1088 2741 
L 1103 2741 
Q 1222 3109 1465 3312 
Q 1709 3516 2003 3516 
Q 2225 3516 2341 3469 
L 2341 2922 
z
" transform="scale(0.015625)"/>
        <path id="MicrosoftJhengHeiRegular-69" d="M 497 4700 
Q 497 4847 595 4948 
Q 694 5050 834 5050 
Q 981 5050 1082 4947 
Q 1184 4844 1184 4700 
Q 1184 4563 1082 4459 
Q 981 4356 834 4356 
Q 688 4356 592 4456 
Q 497 4556 497 4700 
z
M 569 0 
L 569 3456 
L 1088 3456 
L 1088 0 
L 569 0 
z
" transform="scale(0.015625)"/>
        <path id="MicrosoftJhengHeiRegular-67" d="M 3488 272 
Q 3488 -1628 1688 -1628 
Q 1050 -1628 566 -1381 
L 566 -850 
Q 1150 -1175 1684 -1175 
Q 2969 -1175 2969 203 
L 2969 588 
L 2956 588 
Q 2550 -81 1763 -81 
Q 1113 -81 722 384 
Q 331 850 331 1616 
Q 331 2500 759 3019 
Q 1188 3538 1913 3538 
Q 2616 3538 2956 2972 
L 2969 2972 
L 2969 3456 
L 3488 3456 
L 3488 272 
z
M 2969 2081 
Q 2969 2503 2678 2798 
Q 2388 3094 1978 3094 
Q 1459 3094 1161 2712 
Q 863 2331 863 1653 
Q 863 1066 1150 714 
Q 1438 363 1897 363 
Q 2363 363 2666 698 
Q 2969 1034 2969 1556 
L 2969 2081 
z
" transform="scale(0.015625)"/>
        <path id="MicrosoftJhengHeiRegular-6e" d="M 3406 0 
L 2884 0 
L 2884 1975 
Q 2884 3094 2066 3094 
Q 1638 3094 1363 2773 
Q 1088 2453 1088 1972 
L 1088 0 
L 566 0 
L 566 3456 
L 1088 3456 
L 1088 2878 
L 1103 2878 
Q 1491 3538 2238 3538 
Q 2806 3538 3106 3172 
Q 3406 2806 3406 2113 
L 3406 0 
z
" transform="scale(0.015625)"/>
        <path id="MicrosoftJhengHeiRegular-61" d="M 647 3209 
Q 1156 3538 1813 3538 
Q 3016 3538 3016 2259 
L 3016 0 
L 2494 0 
L 2494 544 
L 2475 544 
Q 2116 -81 1413 -81 
Q 900 -81 604 192 
Q 309 466 309 916 
Q 309 1875 1447 2038 
L 2491 2188 
Q 2491 3088 1772 3088 
Q 1144 3088 647 2659 
L 647 3209 
z
M 1644 1641 
Q 1200 1581 1026 1426 
Q 853 1272 853 950 
Q 853 691 1039 528 
Q 1225 366 1525 366 
Q 1941 366 2216 662 
Q 2491 959 2491 1403 
L 2491 1753 
L 1644 1641 
z
" transform="scale(0.015625)"/>
        <path id="MicrosoftJhengHeiRegular-6c" d="M 569 0 
L 569 5116 
L 1088 5116 
L 1088 0 
L 569 0 
z
" transform="scale(0.015625)"/>
        <path id="MicrosoftJhengHeiRegular-20" transform="scale(0.015625)"/>
        <path id="MicrosoftJhengHeiRegular-48" d="M 4241 0 
L 3709 0 
L 3709 2222 
L 1172 2222 
L 1172 0 
L 641 0 
L 641 4841 
L 1172 4841 
L 1172 2703 
L 3709 2703 
L 3709 4841 
L 4241 4841 
L 4241 0 
z
" transform="scale(0.015625)"/>
        <path id="MicrosoftJhengHeiRegular-41" d="M 4353 0 
L 3763 0 
L 3238 1375 
L 1163 1375 
L 672 0 
L 78 0 
L 1941 4841 
L 2481 4841 
L 4353 0 
z
M 3056 1863 
L 2281 3953 
Q 2250 4041 2209 4272 
L 2194 4272 
Q 2159 4059 2116 3953 
L 1350 1863 
L 3056 1863 
z
" transform="scale(0.015625)"/>
        <path id="MicrosoftJhengHeiRegular-44" d="M 641 0 
L 641 4841 
L 1953 4841 
Q 4506 4841 4506 2481 
Q 4506 1350 3818 675 
Q 3131 0 1903 0 
L 641 0 
z
M 1172 4353 
L 1172 488 
L 1909 488 
Q 2875 488 3412 1006 
Q 3950 1525 3950 2466 
Q 3950 4353 1941 4353 
L 1172 4353 
z
" transform="scale(0.015625)"/>
        <path id="MicrosoftJhengHeiRegular-4e" d="M 4513 0 
L 3844 0 
L 1319 3909 
Q 1234 4047 1169 4200 
L 1150 4200 
Q 1175 4050 1175 3550 
L 1175 0 
L 641 0 
L 641 4841 
L 1347 4841 
L 3803 972 
Q 3991 672 4000 641 
L 4013 641 
Q 3978 881 3978 1369 
L 3978 4841 
L 4513 4841 
L 4513 0 
z
" transform="scale(0.015625)"/>
       </defs>
       <use xlink:href="#MicrosoftJhengHeiRegular-6f"/>
       <use xlink:href="#MicrosoftJhengHeiRegular-72" x="63.085938"/>
       <use xlink:href="#MicrosoftJhengHeiRegular-69" x="100.292969"/>
       <use xlink:href="#MicrosoftJhengHeiRegular-67" x="126.220703"/>
       <use xlink:href="#MicrosoftJhengHeiRegular-69" x="189.599609"/>
       <use xlink:href="#MicrosoftJhengHeiRegular-6e" x="215.527344"/>
       <use xlink:href="#MicrosoftJhengHeiRegular-61" x="276.367188"/>
       <use xlink:href="#MicrosoftJhengHeiRegular-6c" x="331.103516"/>
       <use xlink:href="#MicrosoftJhengHeiRegular-20" x="357.03125"/>
       <use xlink:href="#MicrosoftJhengHeiRegular-48" x="382.03125"/>
       <use xlink:href="#MicrosoftJhengHeiRegular-41" x="458.300781"/>
       <use xlink:href="#MicrosoftJhengHeiRegular-44" x="527.587891"/>
       <use xlink:href="#MicrosoftJhengHeiRegular-4e" x="603.076172"/>
       <use xlink:href="#MicrosoftJhengHeiRegular-4e" x="683.59375"/>
      </g>
     </g>
    </g>
    <g id="xtick_2">
     <g id="line2d_2">
      <g>
       <use xlink:href="#mb1d3dd01b8" x="517.54" y="507.688671" style="stroke: #000000; stroke-width: 0.8"/>
      </g>
     </g>
     <g id="text_2">
      <!-- mlp -->
      <g transform="translate(509.473403 527.114886) rotate(-15) scale(0.1 -0.1)">
       <defs>
        <path id="MicrosoftJhengHeiRegular-6d" d="M 5438 0 
L 4916 0 
L 4916 1984 
Q 4916 2588 4733 2841 
Q 4550 3094 4128 3094 
Q 3775 3094 3519 2762 
Q 3263 2431 3263 1975 
L 3263 0 
L 2744 0 
L 2744 2056 
Q 2744 3094 1941 3094 
Q 1572 3094 1330 2778 
Q 1088 2463 1088 1975 
L 1088 0 
L 566 0 
L 566 3456 
L 1088 3456 
L 1088 2909 
L 1103 2909 
Q 1466 3538 2172 3538 
Q 2509 3538 2779 3339 
Q 3050 3141 3147 2816 
Q 3531 3538 4297 3538 
Q 5438 3538 5438 2128 
L 5438 0 
z
" transform="scale(0.015625)"/>
        <path id="MicrosoftJhengHeiRegular-70" d="M 1088 506 
L 1088 -1591 
L 566 -1591 
L 566 3456 
L 1088 3456 
L 1088 2844 
L 1103 2844 
Q 1513 3538 2300 3538 
Q 2959 3538 3340 3077 
Q 3722 2616 3722 1828 
Q 3722 966 3295 442 
Q 2869 -81 2141 -81 
Q 1466 -81 1103 506 
L 1088 506 
z
M 1088 1400 
Q 1088 966 1378 664 
Q 1669 363 2094 363 
Q 2603 363 2895 756 
Q 3188 1150 3188 1844 
Q 3188 2428 2913 2761 
Q 2638 3094 2181 3094 
Q 1706 3094 1397 2758 
Q 1088 2422 1088 1900 
L 1088 1400 
z
" transform="scale(0.015625)"/>
       </defs>
       <use xlink:href="#MicrosoftJhengHeiRegular-6d"/>
       <use xlink:href="#MicrosoftJhengHeiRegular-6c" x="92.626953"/>
       <use xlink:href="#MicrosoftJhengHeiRegular-70" x="118.554688"/>
      </g>
     </g>
    </g>
    <g id="xtick_3">
     <g id="line2d_3">
      <g>
       <use xlink:href="#mb1d3dd01b8" x="862.969091" y="507.688671" style="stroke: #000000; stroke-width: 0.8"/>
      </g>
     </g>
     <g id="text_3">
      <!-- hadnn+rf -->
      <g transform="translate(842.097185 533.97723) rotate(-15) scale(0.1 -0.1)">
       <defs>
        <path id="MicrosoftJhengHeiRegular-68" d="M 3406 0 
L 2888 0 
L 2888 1994 
Q 2888 3094 2066 3094 
Q 1650 3094 1369 2775 
Q 1088 2456 1088 1956 
L 1088 0 
L 566 0 
L 566 5116 
L 1088 5116 
L 1088 2878 
L 1103 2878 
Q 1500 3538 2241 3538 
Q 3406 3538 3406 2128 
L 3406 0 
z
" transform="scale(0.015625)"/>
        <path id="MicrosoftJhengHeiRegular-64" d="M 3488 0 
L 2969 0 
L 2969 594 
L 2956 594 
Q 2572 -81 1763 -81 
Q 1106 -81 718 386 
Q 331 853 331 1647 
Q 331 2497 765 3017 
Q 1200 3538 1913 3538 
Q 2625 3538 2956 2972 
L 2969 2972 
L 2969 5116 
L 3488 5116 
L 3488 0 
z
M 2969 2081 
Q 2969 2506 2680 2800 
Q 2391 3094 1972 3094 
Q 1453 3094 1158 2711 
Q 863 2328 863 1675 
Q 863 1078 1145 720 
Q 1428 363 1906 363 
Q 2366 363 2667 698 
Q 2969 1034 2969 1556 
L 2969 2081 
z
" transform="scale(0.015625)"/>
        <path id="MicrosoftJhengHeiRegular-2b" d="M 3947 1797 
L 2578 1797 
L 2578 434 
L 2147 434 
L 2147 1797 
L 784 1797 
L 784 2234 
L 2147 2234 
L 2147 3597 
L 2578 3597 
L 2578 2234 
L 3947 2234 
L 3947 1797 
z
" transform="scale(0.015625)"/>
        <path id="MicrosoftJhengHeiRegular-66" d="M 2241 4653 
Q 2075 4744 1872 4744 
Q 1288 4744 1288 4000 
L 1288 3456 
L 2097 3456 
L 2097 3006 
L 1288 3006 
L 1288 0 
L 772 0 
L 772 3006 
L 181 3006 
L 181 3456 
L 772 3456 
L 772 4025 
Q 772 4572 1083 4881 
Q 1394 5191 1847 5191 
Q 2100 5191 2241 5131 
L 2241 4653 
z
" transform="scale(0.015625)"/>
       </defs>
       <use xlink:href="#MicrosoftJhengHeiRegular-68"/>
       <use xlink:href="#MicrosoftJhengHeiRegular-61" x="60.888672"/>
       <use xlink:href="#MicrosoftJhengHeiRegular-64" x="115.625"/>
       <use xlink:href="#MicrosoftJhengHeiRegular-6e" x="179.003906"/>
       <use xlink:href="#MicrosoftJhengHeiRegular-6e" x="239.84375"/>
       <use xlink:href="#MicrosoftJhengHeiRegular-2b" x="300.683594"/>
       <use xlink:href="#MicrosoftJhengHeiRegular-72" x="374.414062"/>
       <use xlink:href="#MicrosoftJhengHeiRegular-66" x="413.621094"/>
      </g>
     </g>
    </g>
    <g id="text_4">
     <!-- 模型 -->
     <g transform="translate(507.54 556.636662) scale(0.1 -0.1)">
      <defs>
       <path id="MicrosoftJhengHeiRegular-6a21" d="M 5978 4441 
L 5063 4441 
L 5063 4078 
L 4744 4078 
L 4744 4441 
L 4269 4441 
L 4269 4744 
L 4744 4744 
L 4744 5275 
L 5063 5275 
L 5063 4744 
L 5978 4744 
L 5978 4441 
z
M 4025 4441 
L 3603 4441 
L 3603 4078 
L 3263 4078 
L 3263 4441 
L 2322 4441 
L 2322 4744 
L 3263 4744 
L 3263 5275 
L 3603 5275 
L 3603 4744 
L 4025 4744 
L 4025 4441 
z
M 2431 2444 
L 2181 2234 
Q 1878 2763 1703 2994 
L 1703 -341 
L 1375 -341 
L 1375 2816 
Q 1056 2041 628 1422 
L 403 1672 
Q 984 2497 1369 3634 
L 500 3634 
L 500 3950 
L 1375 3950 
L 1375 5275 
L 1703 5275 
L 1703 3950 
L 2344 3950 
L 2344 3634 
L 1703 3634 
L 1703 3494 
Q 2128 2969 2431 2444 
z
M 5947 991 
L 4109 991 
Q 3838 -25 2369 -341 
L 2181 -44 
Q 3481 191 3775 991 
L 2247 991 
L 2247 1300 
L 3847 1300 
Q 3909 1647 3909 1856 
L 2747 1856 
L 2747 3834 
L 5569 3834 
L 5569 1856 
L 4244 1856 
Q 4234 1619 4184 1300 
L 5947 1300 
L 5947 991 
z
M 5253 3016 
L 5253 3531 
L 3059 3531 
L 3059 3016 
L 5253 3016 
z
M 5253 2156 
L 5253 2719 
L 3059 2719 
L 3059 2156 
L 5253 2156 
z
M 6028 -63 
L 5825 -325 
Q 5241 103 4319 531 
L 4531 788 
Q 5369 400 6028 -63 
z
" transform="scale(0.015625)"/>
       <path id="MicrosoftJhengHeiRegular-578b" d="M 5703 2291 
Q 5703 2109 5600 1992 
Q 5497 1875 5369 1842 
Q 5241 1809 4888 1809 
Q 4700 1809 4422 1819 
L 4281 2169 
Q 4603 2141 4881 2141 
Q 5147 2141 5215 2158 
Q 5284 2175 5329 2256 
Q 5375 2338 5375 2444 
L 5375 5234 
L 5703 5234 
L 5703 2291 
z
M 3834 3406 
L 2919 3406 
L 2919 1959 
L 2591 1959 
L 2591 3406 
L 1734 3406 
Q 1663 2456 819 1791 
L 550 2016 
Q 1347 2647 1409 3406 
L 469 3406 
L 469 3731 
L 1428 3731 
Q 1459 4306 1459 4775 
L 659 4775 
L 659 5088 
L 3750 5088 
L 3750 4775 
L 2919 4775 
L 2919 3731 
L 3834 3731 
L 3834 3406 
z
M 2591 3731 
L 2591 4775 
L 1791 4775 
Q 1791 4397 1753 3731 
L 2591 3731 
z
M 4594 2816 
L 4269 2816 
L 4269 4953 
L 4594 4953 
L 4594 2816 
z
M 5991 -184 
L 428 -184 
L 428 134 
L 3059 134 
L 3059 1038 
L 844 1038 
L 844 1350 
L 3059 1350 
L 3059 2022 
L 3391 2022 
L 3391 1350 
L 5563 1350 
L 5563 1038 
L 3391 1038 
L 3391 134 
L 5991 134 
L 5991 -184 
z
" transform="scale(0.015625)"/>
      </defs>
      <use xlink:href="#MicrosoftJhengHeiRegular-6a21"/>
      <use xlink:href="#MicrosoftJhengHeiRegular-578b" x="100"/>
     </g>
    </g>
   </g>
   <g id="matplotlib.axis_2">
    <g id="ytick_1">
     <g id="line2d_4">
      <path d="M 42.575 488.533812 
L 992.505 488.533812 
" clip-path="url(#pbf4afbbf5e)" style="fill: none; stroke-dasharray: 2.96,1.28; stroke-dashoffset: 0; stroke: #b0b0b0; stroke-opacity: 0.7; stroke-width: 0.8"/>
     </g>
     <g id="line2d_5">
      <defs>
       <path id="m0d2899308d" d="M 0 0 
L -3.5 0 
" style="stroke: #000000; stroke-width: 0.8"/>
      </defs>
      <g>
       <use xlink:href="#m0d2899308d" x="42.575" y="488.533812" style="stroke: #000000; stroke-width: 0.8"/>
      </g>
     </g>
     <g id="text_5">
      <!-- 0.0 -->
      <g transform="translate(21.679688 492.530687) scale(0.1 -0.1)">
       <defs>
        <path id="MicrosoftJhengHeiRegular-30" d="M 294 2322 
Q 294 3603 711 4262 
Q 1128 4922 1916 4922 
Q 3425 4922 3425 2441 
Q 3425 1234 3011 576 
Q 2597 -81 1806 -81 
Q 1069 -81 681 550 
Q 294 1181 294 2322 
z
M 825 2350 
Q 825 363 1863 363 
Q 2891 363 2891 2378 
Q 2891 4475 1888 4475 
Q 825 4475 825 2350 
z
" transform="scale(0.015625)"/>
        <path id="MicrosoftJhengHeiRegular-2e" d="M 375 291 
Q 375 444 484 551 
Q 594 659 738 659 
Q 888 659 994 551 
Q 1100 444 1100 291 
Q 1100 141 992 33 
Q 884 -75 738 -75 
Q 594 -75 484 29 
Q 375 134 375 291 
z
" transform="scale(0.015625)"/>
       </defs>
       <use xlink:href="#MicrosoftJhengHeiRegular-30"/>
       <use xlink:href="#MicrosoftJhengHeiRegular-2e" x="57.958984"/>
       <use xlink:href="#MicrosoftJhengHeiRegular-30" x="81.005859"/>
      </g>
     </g>
    </g>
    <g id="ytick_2">
     <g id="line2d_6">
      <path d="M 42.575 416.509933 
L 992.505 416.509933 
" clip-path="url(#pbf4afbbf5e)" style="fill: none; stroke-dasharray: 2.96,1.28; stroke-dashoffset: 0; stroke: #b0b0b0; stroke-opacity: 0.7; stroke-width: 0.8"/>
     </g>
     <g id="line2d_7">
      <g>
       <use xlink:href="#m0d2899308d" x="42.575" y="416.509933" style="stroke: #000000; stroke-width: 0.8"/>
      </g>
     </g>
     <g id="text_6">
      <!-- 0.5 -->
      <g transform="translate(21.679688 420.506808) scale(0.1 -0.1)">
       <defs>
        <path id="MicrosoftJhengHeiRegular-35" d="M 553 684 
Q 1047 363 1559 363 
Q 2072 363 2394 658 
Q 2716 953 2716 1441 
Q 2716 1931 2394 2200 
Q 2072 2469 1466 2469 
Q 1275 2469 706 2431 
L 706 4841 
L 3025 4841 
L 3025 4366 
L 1203 4366 
L 1203 2916 
Q 1475 2931 1616 2931 
Q 2378 2931 2811 2548 
Q 3244 2166 3244 1472 
Q 3244 750 2775 334 
Q 2306 -81 1544 -81 
Q 875 -81 553 119 
L 553 684 
z
" transform="scale(0.015625)"/>
       </defs>
       <use xlink:href="#MicrosoftJhengHeiRegular-30"/>
       <use xlink:href="#MicrosoftJhengHeiRegular-2e" x="57.958984"/>
       <use xlink:href="#MicrosoftJhengHeiRegular-35" x="81.005859"/>
      </g>
     </g>
    </g>
    <g id="ytick_3">
     <g id="line2d_8">
      <path d="M 42.575 344.486053 
L 992.505 344.486053 
" clip-path="url(#pbf4afbbf5e)" style="fill: none; stroke-dasharray: 2.96,1.28; stroke-dashoffset: 0; stroke: #b0b0b0; stroke-opacity: 0.7; stroke-width: 0.8"/>
     </g>
     <g id="line2d_9">
      <g>
       <use xlink:href="#m0d2899308d" x="42.575" y="344.486053" style="stroke: #000000; stroke-width: 0.8"/>
      </g>
     </g>
     <g id="text_7">
      <!-- 1.0 -->
      <g transform="translate(21.679688 348.482928) scale(0.1 -0.1)">
       <defs>
        <path id="MicrosoftJhengHeiRegular-31" d="M 3313 0 
L 594 0 
L 594 466 
L 1694 466 
L 1694 4272 
L 566 3931 
L 566 4434 
L 2216 4950 
L 2216 466 
L 3313 466 
L 3313 0 
z
" transform="scale(0.015625)"/>
       </defs>
       <use xlink:href="#MicrosoftJhengHeiRegular-31"/>
       <use xlink:href="#MicrosoftJhengHeiRegular-2e" x="57.958984"/>
       <use xlink:href="#MicrosoftJhengHeiRegular-30" x="81.005859"/>
      </g>
     </g>
    </g>
    <g id="ytick_4">
     <g id="line2d_10">
      <path d="M 42.575 272.462174 
L 992.505 272.462174 
" clip-path="url(#pbf4afbbf5e)" style="fill: none; stroke-dasharray: 2.96,1.28; stroke-dashoffset: 0; stroke: #b0b0b0; stroke-opacity: 0.7; stroke-width: 0.8"/>
     </g>
     <g id="line2d_11">
      <g>
       <use xlink:href="#m0d2899308d" x="42.575" y="272.462174" style="stroke: #000000; stroke-width: 0.8"/>
      </g>
     </g>
     <g id="text_8">
      <!-- 1.5 -->
      <g transform="translate(21.679688 276.459049) scale(0.1 -0.1)">
       <use xlink:href="#MicrosoftJhengHeiRegular-31"/>
       <use xlink:href="#MicrosoftJhengHeiRegular-2e" x="57.958984"/>
       <use xlink:href="#MicrosoftJhengHeiRegular-35" x="81.005859"/>
      </g>
     </g>
    </g>
    <g id="ytick_5">
     <g id="line2d_12">
      <path d="M 42.575 200.438294 
L 992.505 200.438294 
" clip-path="url(#pbf4afbbf5e)" style="fill: none; stroke-dasharray: 2.96,1.28; stroke-dashoffset: 0; stroke: #b0b0b0; stroke-opacity: 0.7; stroke-width: 0.8"/>
     </g>
     <g id="line2d_13">
      <g>
       <use xlink:href="#m0d2899308d" x="42.575" y="200.438294" style="stroke: #000000; stroke-width: 0.8"/>
      </g>
     </g>
     <g id="text_9">
      <!-- 2.0 -->
      <g transform="translate(21.679688 204.435169) scale(0.1 -0.1)">
       <defs>
        <path id="MicrosoftJhengHeiRegular-32" d="M 3219 0 
L 322 0 
L 322 472 
L 1731 1891 
Q 2431 2597 2592 2914 
Q 2753 3231 2753 3588 
Q 2753 4016 2511 4247 
Q 2269 4478 1816 4478 
Q 1169 4478 572 3919 
L 572 4475 
Q 1131 4922 1884 4922 
Q 2509 4922 2886 4575 
Q 3263 4228 3263 3634 
Q 3263 3178 3014 2736 
Q 2766 2294 2075 1603 
L 947 488 
L 947 475 
L 3219 475 
L 3219 0 
z
" transform="scale(0.015625)"/>
       </defs>
       <use xlink:href="#MicrosoftJhengHeiRegular-32"/>
       <use xlink:href="#MicrosoftJhengHeiRegular-2e" x="57.958984"/>
       <use xlink:href="#MicrosoftJhengHeiRegular-30" x="81.005859"/>
      </g>
     </g>
    </g>
    <g id="ytick_6">
     <g id="line2d_14">
      <path d="M 42.575 128.414415 
L 992.505 128.414415 
" clip-path="url(#pbf4afbbf5e)" style="fill: none; stroke-dasharray: 2.96,1.28; stroke-dashoffset: 0; stroke: #b0b0b0; stroke-opacity: 0.7; stroke-width: 0.8"/>
     </g>
     <g id="line2d_15">
      <g>
       <use xlink:href="#m0d2899308d" x="42.575" y="128.414415" style="stroke: #000000; stroke-width: 0.8"/>
      </g>
     </g>
     <g id="text_10">
      <!-- 2.5 -->
      <g transform="translate(21.679688 132.41129) scale(0.1 -0.1)">
       <use xlink:href="#MicrosoftJhengHeiRegular-32"/>
       <use xlink:href="#MicrosoftJhengHeiRegular-2e" x="57.958984"/>
       <use xlink:href="#MicrosoftJhengHeiRegular-35" x="81.005859"/>
      </g>
     </g>
    </g>
    <g id="ytick_7">
     <g id="line2d_16">
      <path d="M 42.575 56.390535 
L 992.505 56.390535 
" clip-path="url(#pbf4afbbf5e)" style="fill: none; stroke-dasharray: 2.96,1.28; stroke-dashoffset: 0; stroke: #b0b0b0; stroke-opacity: 0.7; stroke-width: 0.8"/>
     </g>
     <g id="line2d_17">
      <g>
       <use xlink:href="#m0d2899308d" x="42.575" y="56.390535" style="stroke: #000000; stroke-width: 0.8"/>
      </g>
     </g>
     <g id="text_11">
      <!-- 3.0 -->
      <g transform="translate(21.679688 60.38741) scale(0.1 -0.1)">
       <defs>
        <path id="MicrosoftJhengHeiRegular-33" d="M 438 756 
Q 934 363 1556 363 
Q 2056 363 2370 616 
Q 2684 869 2684 1313 
Q 2684 2281 1319 2281 
L 919 2281 
L 919 2728 
L 1300 2728 
Q 2513 2728 2513 3634 
Q 2513 4475 1588 4475 
Q 1075 4475 625 4122 
L 625 4644 
Q 1088 4922 1719 4922 
Q 2294 4922 2670 4606 
Q 3047 4291 3047 3769 
Q 3047 2819 2075 2538 
L 2075 2525 
Q 2591 2481 2905 2162 
Q 3219 1844 3219 1369 
Q 3219 706 2742 312 
Q 2266 -81 1525 -81 
Q 844 -81 438 178 
L 438 756 
z
" transform="scale(0.015625)"/>
       </defs>
       <use xlink:href="#MicrosoftJhengHeiRegular-33"/>
       <use xlink:href="#MicrosoftJhengHeiRegular-2e" x="57.958984"/>
       <use xlink:href="#MicrosoftJhengHeiRegular-30" x="81.005859"/>
      </g>
     </g>
    </g>
    <g id="text_12">
     <!-- 位置預測誤差 (公尺) -->
     <g transform="translate(15.19375 309.698398) rotate(-90) scale(0.1 -0.1)">
      <defs>
       <path id="MicrosoftJhengHeiRegular-4f4d" d="M 6016 -172 
L 1900 -172 
L 1900 159 
L 3194 159 
Q 3031 1716 2478 3597 
L 2700 3719 
L 1984 3719 
L 1984 4050 
L 3884 4050 
Q 3750 4634 3500 5178 
L 3822 5288 
Q 4053 4759 4244 4050 
L 5913 4050 
L 5913 3719 
L 5269 3719 
L 5472 3641 
Q 5191 1675 4716 159 
L 6016 159 
L 6016 -172 
z
M 5125 3719 
L 2816 3719 
Q 3334 1778 3547 159 
L 4372 159 
Q 4925 1928 5125 3719 
z
M 2131 5147 
Q 2009 4856 1803 4447 
L 1594 4044 
L 1594 -325 
L 1253 -325 
L 1253 3425 
Q 966 2963 544 2456 
L 331 2772 
Q 1222 3825 1791 5269 
L 2131 5147 
z
" transform="scale(0.015625)"/>
       <path id="MicrosoftJhengHeiRegular-7f6e" d="M 5991 -184 
L 453 -184 
L 453 97 
L 1203 97 
L 1203 2803 
L 2694 2803 
L 2853 3256 
L 500 3256 
L 500 3547 
L 2956 3547 
L 3078 3969 
L 756 3969 
L 756 5119 
L 5663 5119 
L 5663 3969 
L 3425 3969 
L 3297 3547 
L 5894 3547 
L 5894 3256 
L 3194 3256 
L 3047 2803 
L 5228 2803 
L 5228 97 
L 5991 97 
L 5991 -184 
z
M 5331 4231 
L 5331 4844 
L 4147 4844 
L 4147 4231 
L 5331 4231 
z
M 3816 4231 
L 3816 4844 
L 2613 4844 
L 2613 4231 
L 3816 4231 
z
M 2278 4231 
L 2278 4844 
L 1081 4844 
L 1081 4231 
L 2278 4231 
z
M 4903 2138 
L 4903 2534 
L 1538 2534 
L 1538 2138 
L 4903 2138 
z
M 4903 1478 
L 4903 1875 
L 1538 1875 
L 1538 1478 
L 4903 1478 
z
M 4903 781 
L 4903 1222 
L 1538 1222 
L 1538 781 
L 4903 781 
z
M 4903 97 
L 4903 513 
L 1538 513 
L 1538 97 
L 4903 97 
z
" transform="scale(0.015625)"/>
       <path id="MicrosoftJhengHeiRegular-9810" d="M 6009 4794 
L 4588 4794 
Q 4519 4447 4384 4063 
L 5703 4063 
L 5703 947 
L 4031 947 
L 4231 744 
Q 3759 156 2894 -378 
L 2675 -91 
Q 3456 341 3969 947 
L 3150 947 
L 3150 4063 
L 4038 4063 
Q 4166 4381 4250 4794 
L 2925 4794 
L 2925 5119 
L 6009 5119 
L 6009 4794 
z
M 5375 3163 
L 5375 3744 
L 3475 3744 
L 3475 3163 
L 5375 3163 
z
M 5375 2234 
L 5375 2853 
L 3475 2853 
L 3475 2234 
L 5375 2234 
z
M 5375 1269 
L 5375 1931 
L 3475 1931 
L 3475 1269 
L 5375 1269 
z
M 2881 3084 
Q 2719 2138 2369 1631 
L 2081 1831 
Q 2366 2228 2478 2753 
L 1753 2753 
L 1753 122 
Q 1753 -56 1608 -197 
Q 1463 -338 703 -306 
L 609 19 
Q 1219 19 1283 26 
Q 1347 34 1397 96 
Q 1447 159 1447 213 
L 1447 2753 
L 441 2753 
L 441 3084 
L 1838 3084 
Q 1450 3513 666 4072 
L 844 4319 
Q 1059 4184 1478 3853 
Q 1991 4363 2234 4728 
L 594 4728 
L 594 5044 
L 2644 5044 
L 2644 4728 
Q 2175 4094 1734 3641 
Q 2006 3403 2150 3219 
L 2041 3084 
L 2881 3084 
z
M 5991 -78 
L 5778 -341 
Q 5194 175 4569 513 
L 4775 763 
Q 5513 338 5991 -78 
z
" transform="scale(0.015625)"/>
       <path id="MicrosoftJhengHeiRegular-6e2c" d="M 5797 128 
Q 5797 -150 5633 -242 
Q 5469 -334 5038 -334 
Q 4800 -334 4563 -319 
L 4481 0 
Q 5288 0 5383 28 
Q 5478 56 5478 225 
L 5478 5253 
L 5797 5253 
L 5797 128 
z
M 1813 4453 
L 1581 4206 
Q 1156 4666 609 5013 
L 794 5253 
Q 1409 4906 1813 4453 
z
M 3853 1075 
L 2578 1075 
L 2766 947 
Q 2406 209 1863 -353 
L 1600 -134 
Q 2138 397 2463 1075 
L 2016 1075 
L 2016 5125 
L 3853 5125 
L 3853 1075 
z
M 3541 3928 
L 3541 4813 
L 2338 4813 
L 2338 3928 
L 3541 3928 
z
M 3541 2681 
L 3541 3609 
L 2338 3609 
L 2338 2681 
L 3541 2681 
z
M 3541 1394 
L 3541 2369 
L 2338 2369 
L 2338 1394 
L 3541 1394 
z
M 4769 825 
L 4447 825 
L 4447 4844 
L 4769 4844 
L 4769 825 
z
M 1594 2803 
L 1356 2572 
Q 994 3019 403 3456 
L 622 3713 
Q 1266 3209 1594 2803 
z
M 1631 1747 
Q 1059 238 678 -325 
L 428 -109 
Q 959 753 1338 1906 
L 1631 1747 
z
M 4019 -25 
L 3744 -191 
Q 3513 350 3116 813 
L 3378 991 
Q 3816 463 4019 -25 
z
" transform="scale(0.015625)"/>
       <path id="MicrosoftJhengHeiRegular-8aa4" d="M 2463 4294 
L 441 4294 
L 441 4609 
L 1325 4609 
Q 1238 4888 1075 5222 
L 1394 5331 
Q 1591 4931 1691 4609 
L 2463 4609 
L 2463 4294 
z
M 5484 3469 
L 3572 3469 
L 3572 5131 
L 5484 5131 
L 5484 3469 
z
M 5172 3775 
L 5172 4813 
L 3891 4813 
L 3891 3775 
L 5172 3775 
z
M 6009 1394 
L 4269 1394 
Q 4038 75 2650 -313 
L 2456 -38 
Q 3716 225 3938 1394 
L 2497 1394 
L 2497 1709 
L 3988 1709 
Q 4028 1994 4050 2606 
L 2741 2606 
L 2741 4697 
L 3066 4697 
L 3066 2925 
L 5703 2925 
L 5703 1709 
L 6009 1709 
L 6009 1394 
z
M 5369 1709 
L 5369 2606 
L 4384 2606 
Q 4359 2109 4325 1709 
L 5369 1709 
z
M 2322 3366 
L 569 3366 
L 569 3681 
L 2322 3681 
L 2322 3366 
z
M 2322 2438 
L 575 2438 
L 575 2753 
L 2322 2753 
L 2322 2438 
z
M 2216 -184 
L 1894 -184 
L 1894 172 
L 959 172 
L 959 -306 
L 641 -306 
L 641 1831 
L 2216 1831 
L 2216 -184 
z
M 1894 494 
L 1894 1509 
L 959 1509 
L 959 494 
L 1894 494 
z
M 5966 -109 
L 5728 -331 
Q 5384 72 4494 775 
L 4684 1019 
Q 5438 478 5966 -109 
z
" transform="scale(0.015625)"/>
       <path id="MicrosoftJhengHeiRegular-5dee" d="M 4916 5113 
Q 4613 4759 4281 4556 
L 4006 4769 
Q 4378 5009 4634 5319 
L 4916 5113 
z
M 2566 4728 
L 2284 4538 
Q 2078 4813 1703 5106 
L 1978 5313 
Q 2378 4997 2566 4728 
z
M 5997 2138 
L 2094 2138 
Q 2009 684 678 -166 
L 434 97 
Q 1688 828 1753 2138 
L 488 2138 
L 488 2444 
L 3072 2444 
L 3072 3116 
L 878 3116 
L 878 3431 
L 3072 3431 
L 3072 4103 
L 684 4103 
L 684 4409 
L 5819 4409 
L 5819 4103 
L 3406 4103 
L 3406 3431 
L 5569 3431 
L 5569 3116 
L 3406 3116 
L 3406 2444 
L 5997 2444 
L 5997 2138 
z
M 6009 -213 
L 1684 -213 
L 1684 103 
L 3681 103 
L 3681 1131 
L 2228 1131 
L 2228 1453 
L 5703 1453 
L 5703 1131 
L 4031 1131 
L 4031 103 
L 6009 103 
L 6009 -213 
z
" transform="scale(0.015625)"/>
       <path id="MicrosoftJhengHeiRegular-28" d="M 1513 -1100 
Q 469 94 469 1847 
Q 469 3609 1513 4841 
L 1988 4841 
Q 925 3556 925 1853 
Q 925 159 1981 -1100 
L 1513 -1100 
z
" transform="scale(0.015625)"/>
       <path id="MicrosoftJhengHeiRegular-516c" d="M 2663 5153 
Q 2097 3406 628 2350 
L 372 2606 
Q 1781 3563 2328 5269 
L 2663 5153 
z
M 6047 2656 
L 5831 2375 
Q 4681 3125 3994 4844 
L 3566 4844 
L 3566 5191 
L 4256 5191 
Q 4819 3456 6047 2656 
z
M 5569 -213 
L 5269 -384 
Q 5069 109 4872 428 
Q 3059 -41 1269 -197 
L 1172 128 
Q 2150 1278 3041 3419 
L 3366 3278 
Q 2556 1356 1672 184 
Q 2909 272 4703 728 
Q 4416 1238 3922 1913 
L 4219 2088 
Q 5106 866 5569 -213 
z
" transform="scale(0.015625)"/>
       <path id="MicrosoftJhengHeiRegular-5c3a" d="M 6053 -31 
L 5856 -366 
Q 4309 13 3332 755 
Q 2356 1497 1797 2772 
L 1656 2772 
Q 1609 656 666 -306 
L 409 -63 
Q 1313 831 1313 3066 
L 1313 5125 
L 5581 5125 
L 5581 2772 
L 2169 2772 
Q 2891 1341 3995 739 
Q 5100 138 6053 -31 
z
M 5228 3116 
L 5228 4788 
L 1678 4788 
L 1678 3116 
L 5228 3116 
z
" transform="scale(0.015625)"/>
       <path id="MicrosoftJhengHeiRegular-29" d="M 84 -1100 
Q 1138 153 1138 1853 
Q 1138 3563 75 4841 
L 553 4841 
Q 1603 3609 1603 1847 
Q 1603 97 553 -1100 
L 84 -1100 
z
" transform="scale(0.015625)"/>
      </defs>
      <use xlink:href="#MicrosoftJhengHeiRegular-4f4d"/>
      <use xlink:href="#MicrosoftJhengHeiRegular-7f6e" x="100"/>
      <use xlink:href="#MicrosoftJhengHeiRegular-9810" x="200"/>
      <use xlink:href="#MicrosoftJhengHeiRegular-6e2c" x="300"/>
      <use xlink:href="#MicrosoftJhengHeiRegular-8aa4" x="400"/>
      <use xlink:href="#MicrosoftJhengHeiRegular-5dee" x="500"/>
      <use xlink:href="#MicrosoftJhengHeiRegular-20" x="600"/>
      <use xlink:href="#MicrosoftJhengHeiRegular-28" x="625"/>
      <use xlink:href="#MicrosoftJhengHeiRegular-516c" x="657.080078"/>
      <use xlink:href="#MicrosoftJhengHeiRegular-5c3a" x="757.080078"/>
      <use xlink:href="#MicrosoftJhengHeiRegular-29" x="857.080078"/>
     </g>
    </g>
   </g>
   <g id="LineCollection_1">
    <path d="M 128.932273 265.637851 
L 215.289545 265.637851 
" clip-path="url(#pbf4afbbf5e)" style="fill: none; stroke: #1f77b4; stroke-width: 1.5"/>
    <path d="M 474.361364 284.621559 
L 560.718636 284.621559 
" clip-path="url(#pbf4afbbf5e)" style="fill: none; stroke: #1f77b4; stroke-width: 1.5"/>
    <path d="M 819.790455 270.026712 
L 906.147727 270.026712 
" clip-path="url(#pbf4afbbf5e)" style="fill: none; stroke: #1f77b4; stroke-width: 1.5"/>
   </g>
   <g id="LineCollection_2">
    <path d="M 128.932273 44.833235 
L 215.289545 44.833235 
" clip-path="url(#pbf4afbbf5e)" style="fill: none; stroke: #1f77b4; stroke-width: 1.5"/>
    <path d="M 474.361364 90.531143 
L 560.718636 90.531143 
" clip-path="url(#pbf4afbbf5e)" style="fill: none; stroke: #1f77b4; stroke-width: 1.5"/>
    <path d="M 819.790455 58.860486 
L 906.147727 58.860486 
" clip-path="url(#pbf4afbbf5e)" style="fill: none; stroke: #1f77b4; stroke-width: 1.5"/>
   </g>
   <g id="LineCollection_3">
    <path d="M 128.932273 468.722981 
L 215.289545 468.722981 
" clip-path="url(#pbf4afbbf5e)" style="fill: none; stroke: #1f77b4; stroke-width: 1.5"/>
    <path d="M 474.361364 485.647936 
L 560.718636 485.647936 
" clip-path="url(#pbf4afbbf5e)" style="fill: none; stroke: #1f77b4; stroke-width: 1.5"/>
    <path d="M 819.790455 481.132018 
L 906.147727 481.132018 
" clip-path="url(#pbf4afbbf5e)" style="fill: none; stroke: #1f77b4; stroke-width: 1.5"/>
   </g>
   <g id="LineCollection_4">
    <path d="M 172.110909 468.722981 
L 172.110909 44.833235 
" clip-path="url(#pbf4afbbf5e)" style="fill: none; stroke: #1f77b4; stroke-width: 1.5"/>
    <path d="M 517.54 485.647936 
L 517.54 90.531143 
" clip-path="url(#pbf4afbbf5e)" style="fill: none; stroke: #1f77b4; stroke-width: 1.5"/>
    <path d="M 862.969091 481.132018 
L 862.969091 58.860486 
" clip-path="url(#pbf4afbbf5e)" style="fill: none; stroke: #1f77b4; stroke-width: 1.5"/>
   </g>
   <g id="LineCollection_5">
    <path d="M 128.932273 272.40438 
L 215.289545 272.40438 
" clip-path="url(#pbf4afbbf5e)" style="fill: none; stroke: #1f77b4; stroke-width: 1.5"/>
    <path d="M 474.361364 273.362658 
L 560.718636 273.362658 
" clip-path="url(#pbf4afbbf5e)" style="fill: none; stroke: #1f77b4; stroke-width: 1.5"/>
    <path d="M 819.790455 266.668877 
L 906.147727 266.668877 
" clip-path="url(#pbf4afbbf5e)" style="fill: none; stroke: #1f77b4; stroke-width: 1.5"/>
   </g>
   <g id="patch_3">
    <path d="M 42.575 507.688671 
L 42.575 22.7925 
" style="fill: none; stroke: #000000; stroke-width: 0.8; stroke-linejoin: miter; stroke-linecap: square"/>
   </g>
   <g id="patch_4">
    <path d="M 992.505 507.688671 
L 992.505 22.7925 
" style="fill: none; stroke: #000000; stroke-width: 0.8; stroke-linejoin: miter; stroke-linecap: square"/>
   </g>
   <g id="patch_5">
    <path d="M 42.575 507.688671 
L 992.505 507.688671 
" style="fill: none; stroke: #000000; stroke-width: 0.8; stroke-linejoin: miter; stroke-linecap: square"/>
   </g>
   <g id="patch_6">
    <path d="M 42.575 22.7925 
L 992.505 22.7925 
" style="fill: none; stroke: #000000; stroke-width: 0.8; stroke-linejoin: miter; stroke-linecap: square"/>
   </g>
   <g id="text_13">
    <!-- 位置預測誤差密度分布 - 設備故障 25% -->
    <g transform="translate(414.213438 16.7925) scale(0.12 -0.12)">
     <defs>
      <path id="MicrosoftJhengHeiRegular-5bc6" d="M 5753 3500 
L 5428 3500 
L 5428 4459 
L 1025 4459 
L 1025 3500 
L 697 3500 
L 697 4781 
L 3097 4781 
Q 3044 4984 2906 5228 
L 3206 5331 
Q 3338 5084 3438 4781 
L 5753 4781 
L 5753 3500 
z
M 3700 3475 
L 3438 3303 
Q 3153 3750 2828 4084 
L 3109 4256 
Q 3406 3959 3700 3475 
z
M 4788 3794 
Q 3894 2753 2509 2053 
Q 2509 1972 2600 1939 
Q 2691 1906 3347 1906 
Q 4028 1906 4218 1961 
Q 4409 2016 4453 2694 
L 4763 2534 
Q 4744 2131 4625 1914 
Q 4506 1697 4334 1645 
Q 4163 1594 3625 1594 
Q 2694 1594 2497 1630 
Q 2300 1666 2194 1894 
Q 1375 1525 603 1247 
L 447 1516 
Q 1416 1853 2163 2216 
L 2163 4031 
L 2497 4031 
L 2497 2388 
Q 3734 3016 4550 3994 
L 4788 3794 
z
M 1941 3547 
Q 1334 2797 678 2297 
L 447 2534 
Q 1034 2959 1672 3731 
L 1941 3547 
z
M 5978 2181 
L 5734 1959 
Q 5353 2522 4716 3138 
L 4959 3341 
Q 5644 2672 5978 2181 
z
M 5331 -331 
L 4997 -331 
L 4997 -166 
L 1088 -166 
L 1088 1147 
L 1422 1147 
L 1422 141 
L 3003 141 
L 3003 1422 
L 3334 1422 
L 3334 141 
L 4997 141 
L 4997 1147 
L 5331 1147 
L 5331 -331 
z
" transform="scale(0.015625)"/>
      <path id="MicrosoftJhengHeiRegular-5ea6" d="M 5941 4422 
L 1319 4422 
L 1319 2638 
Q 1319 897 616 -238 
L 325 -25 
Q 997 1019 997 2963 
L 997 4744 
L 3359 4744 
Q 3219 5003 3047 5222 
L 3419 5313 
Q 3619 5003 3750 4744 
L 5941 4744 
L 5941 4422 
z
M 5941 3397 
L 4838 3397 
L 4838 2356 
L 2541 2356 
L 2541 3397 
L 1569 3397 
L 1569 3713 
L 2541 3713 
L 2541 4238 
L 2875 4238 
L 2875 3713 
L 4506 3713 
L 4506 4238 
L 4838 4238 
L 4838 3713 
L 5941 3713 
L 5941 3397 
z
M 4506 2675 
L 4506 3397 
L 2875 3397 
L 2875 2675 
L 4506 2675 
z
M 6088 -44 
L 5881 -353 
Q 4572 -138 3731 256 
Q 2756 -181 1356 -325 
L 1191 6 
Q 2566 113 3341 447 
Q 2594 903 2194 1625 
L 1953 1625 
L 1953 1959 
L 5191 1959 
L 5191 1625 
Q 4816 894 4084 459 
Q 4803 147 6088 -44 
z
M 4788 1625 
L 2591 1625 
Q 2997 969 3706 628 
Q 4450 1038 4788 1625 
z
" transform="scale(0.015625)"/>
      <path id="MicrosoftJhengHeiRegular-5206" d="M 2688 5141 
Q 1919 3378 647 2503 
L 416 2766 
Q 1650 3591 2350 5241 
L 2688 5141 
z
M 6047 2809 
L 5819 2522 
Q 4553 3422 4063 4878 
L 3584 4878 
L 3584 5222 
L 4300 5222 
Q 4778 3628 6047 2809 
z
M 5013 2894 
Q 4997 1866 4890 1047 
Q 4784 228 4681 31 
Q 4578 -166 4395 -250 
Q 4213 -334 3759 -334 
Q 3563 -334 3250 -319 
L 3175 25 
Q 3525 -6 3822 -6 
Q 4109 -6 4192 31 
Q 4275 69 4336 139 
Q 4397 209 4472 557 
Q 4547 906 4592 1420 
Q 4638 1934 4653 2553 
L 3009 2553 
Q 2794 669 897 -409 
L 691 -141 
Q 2450 847 2644 2553 
L 1434 2553 
L 1434 2894 
L 5013 2894 
z
" transform="scale(0.015625)"/>
      <path id="MicrosoftJhengHeiRegular-5e03" d="M 6022 4500 
L 6016 4159 
L 2925 4159 
Q 2453 3316 1931 2772 
L 3366 2772 
L 3366 3653 
L 3713 3653 
L 3713 2772 
L 5588 2772 
L 5588 544 
Q 5588 31 5044 31 
Q 4609 31 4481 38 
L 4353 403 
Q 4766 381 4956 381 
Q 5150 381 5198 412 
Q 5247 444 5247 513 
L 5247 2425 
L 3713 2425 
L 3713 -347 
L 3366 -347 
L 3366 2425 
L 1913 2425 
L 1913 31 
L 1556 31 
L 1556 2413 
Q 984 1956 691 1759 
L 459 2034 
Q 1797 2859 2522 4159 
L 453 4159 
L 453 4500 
L 2700 4500 
Q 2847 4784 3028 5325 
L 3366 5247 
Q 3250 4866 3084 4500 
L 6022 4500 
z
" transform="scale(0.015625)"/>
      <path id="MicrosoftJhengHeiRegular-2d" d="M 2328 1722 
L 488 1722 
L 488 2138 
L 2328 2138 
L 2328 1722 
z
" transform="scale(0.015625)"/>
      <path id="MicrosoftJhengHeiRegular-8a2d" d="M 2700 4294 
L 434 4294 
L 434 4628 
L 1434 4628 
Q 1350 4906 1178 5191 
L 1472 5325 
Q 1663 5016 1784 4628 
L 2700 4628 
L 2700 4294 
z
M 5978 2950 
L 5356 2950 
Q 4897 2950 4897 3391 
L 4897 4769 
L 3769 4769 
Q 3753 3884 3533 3454 
Q 3313 3025 2925 2778 
L 2675 3009 
Q 3056 3250 3261 3670 
Q 3466 4091 3450 5088 
L 5216 5088 
L 5216 3488 
Q 5216 3272 5428 3272 
L 5978 3272 
L 5978 2950 
z
M 2528 3366 
L 563 3366 
L 563 3688 
L 2528 3688 
L 2528 3366 
z
M 2522 2425 
L 556 2425 
L 556 2747 
L 2522 2747 
L 2522 2425 
z
M 6003 -72 
L 5813 -347 
Q 4841 -25 4313 391 
Q 3697 -47 2778 -313 
L 2578 -38 
Q 3544 247 4031 616 
Q 3369 1225 3066 2247 
L 2847 2247 
L 2847 2572 
L 5528 2572 
L 5528 2247 
Q 5116 1125 4569 609 
Q 5113 219 6003 -72 
z
M 5166 2247 
L 3406 2247 
Q 3738 1303 4306 825 
Q 4878 1353 5166 2247 
z
M 2431 -191 
L 2100 -191 
L 2100 159 
L 941 159 
L 941 -313 
L 609 -313 
L 609 1819 
L 2431 1819 
L 2431 -191 
z
M 2100 488 
L 2100 1478 
L 941 1478 
L 941 488 
L 2100 488 
z
" transform="scale(0.015625)"/>
      <path id="MicrosoftJhengHeiRegular-5099" d="M 1825 5241 
L 1472 4056 
L 1472 -325 
L 1141 -325 
L 1141 3263 
Q 856 2681 616 2328 
L 384 2591 
Q 1094 3663 1509 5356 
L 1825 5241 
z
M 5991 3378 
L 3163 3378 
Q 2984 3059 2834 2859 
L 5613 2859 
L 5613 159 
Q 5613 16 5531 -118 
Q 5450 -253 5314 -300 
Q 5178 -347 4763 -331 
L 4628 -13 
Q 4841 -22 4991 -22 
Q 5300 -22 5300 197 
L 5300 850 
L 4250 850 
L 4250 -256 
L 3928 -256 
L 3928 850 
L 2747 850 
Q 2541 144 2075 -359 
L 1844 -141 
Q 2578 672 2578 1850 
L 2578 2541 
Q 2241 2100 1825 1747 
L 1606 1978 
Q 2309 2578 2816 3378 
L 1759 3378 
L 1759 3694 
L 2963 3694 
L 2963 4325 
L 1900 4325 
L 1900 4647 
L 2963 4647 
L 2963 5269 
L 3291 5269 
L 3291 4647 
L 4513 4647 
L 4513 5269 
L 4844 5269 
L 4844 4647 
L 5856 4647 
L 5856 4325 
L 4844 4325 
L 4844 3694 
L 5991 3694 
L 5991 3378 
z
M 4513 3694 
L 4513 4325 
L 3291 4325 
L 3291 3694 
L 4513 3694 
z
M 5300 2022 
L 5300 2553 
L 4250 2553 
L 4250 2022 
L 5300 2022 
z
M 3928 2022 
L 3928 2553 
L 2900 2553 
L 2900 2022 
L 3928 2022 
z
M 5300 1166 
L 5300 1709 
L 4250 1709 
L 4250 1166 
L 5300 1166 
z
M 3928 1166 
L 3928 1709 
L 2888 1709 
Q 2875 1400 2822 1166 
L 3928 1166 
z
" transform="scale(0.015625)"/>
      <path id="MicrosoftJhengHeiRegular-6545" d="M 6053 -72 
L 5838 -372 
Q 4972 122 4525 684 
Q 3984 81 3169 -359 
L 2925 -91 
Q 3828 369 4306 953 
Q 3853 1591 3609 2669 
L 3922 2772 
Q 4131 1806 4506 1234 
Q 5088 2150 5253 3909 
L 3994 3909 
Q 3728 3138 3250 2419 
L 2981 2619 
Q 3744 3775 4019 5288 
L 4366 5269 
Q 4266 4769 4109 4238 
L 5966 4238 
L 5966 3909 
L 5594 3909 
Q 5372 1900 4709 947 
Q 5228 350 6053 -72 
z
M 3097 3878 
L 1919 3878 
L 1919 2559 
L 2797 2559 
L 2797 -6 
L 2463 -6 
L 2463 403 
L 1050 403 
L 1050 -172 
L 716 -172 
L 716 2559 
L 1606 2559 
L 1606 3878 
L 453 3878 
L 453 4213 
L 1606 4213 
L 1606 5275 
L 1919 5275 
L 1919 4213 
L 3097 4213 
L 3097 3878 
z
M 2463 738 
L 2463 2228 
L 1050 2228 
L 1050 738 
L 2463 738 
z
" transform="scale(0.015625)"/>
      <path id="MicrosoftJhengHeiRegular-969c" d="M 5984 3584 
L 2266 3584 
L 2266 3891 
L 3309 3891 
Q 3175 4238 2994 4506 
L 2472 4506 
L 2472 4819 
L 3916 4819 
Q 3828 4966 3700 5141 
L 4000 5306 
Q 4194 5063 4306 4819 
L 5850 4819 
L 5850 4506 
L 5288 4506 
Q 5097 4094 4978 3891 
L 5984 3891 
L 5984 3584 
z
M 4928 4506 
L 3347 4506 
Q 3506 4222 3647 3891 
L 4634 3891 
Q 4822 4206 4928 4506 
z
M 1697 3291 
Q 2234 2550 2234 1863 
Q 2234 1556 2054 1331 
Q 1875 1106 1209 1147 
L 1088 1478 
Q 1331 1466 1466 1466 
Q 1716 1466 1819 1583 
Q 1922 1700 1922 1894 
Q 1922 2159 1764 2545 
Q 1606 2931 1356 3238 
Q 1616 3994 1850 4813 
L 953 4813 
L 953 -306 
L 634 -306 
L 634 5131 
L 2194 5131 
L 2194 4813 
Q 1997 4150 1697 3291 
z
M 5997 550 
L 4256 550 
L 4256 -331 
L 3938 -331 
L 3938 550 
L 2259 550 
L 2259 872 
L 3938 872 
L 3938 1319 
L 2644 1319 
L 2644 3156 
L 5656 3156 
L 5656 1319 
L 4256 1319 
L 4256 872 
L 5997 872 
L 5997 550 
z
M 5319 2400 
L 5319 2853 
L 2956 2853 
L 2956 2400 
L 5319 2400 
z
M 5319 1631 
L 5319 2113 
L 2956 2113 
L 2956 1631 
L 5319 1631 
z
" transform="scale(0.015625)"/>
      <path id="MicrosoftJhengHeiRegular-25" d="M 266 3625 
Q 266 4219 580 4566 
Q 894 4913 1425 4913 
Q 1938 4913 2223 4589 
Q 2509 4266 2509 3694 
Q 2509 3125 2192 2770 
Q 1875 2416 1356 2416 
Q 856 2416 561 2748 
Q 266 3081 266 3625 
z
M 700 3656 
Q 700 3241 886 3008 
Q 1072 2775 1391 2775 
Q 1716 2775 1897 3014 
Q 2078 3253 2078 3678 
Q 2078 4097 1898 4328 
Q 1719 4559 1403 4559 
Q 1081 4559 890 4312 
Q 700 4066 700 3656 
z
M 4578 4841 
L 1478 -38 
L 1016 -38 
L 4116 4841 
L 4578 4841 
z
M 3144 1134 
Q 3144 1725 3456 2079 
Q 3769 2434 4297 2434 
Q 4806 2434 5093 2106 
Q 5381 1778 5381 1197 
Q 5381 625 5061 275 
Q 4741 -75 4231 -75 
Q 3741 -75 3442 256 
Q 3144 588 3144 1134 
z
M 3572 1163 
Q 3572 756 3761 522 
Q 3950 288 4263 288 
Q 4588 288 4769 530 
Q 4950 772 4950 1194 
Q 4950 1616 4772 1841 
Q 4594 2066 4278 2066 
Q 3947 2066 3759 1823 
Q 3572 1581 3572 1163 
z
" transform="scale(0.015625)"/>
     </defs>
     <use xlink:href="#MicrosoftJhengHeiRegular-4f4d"/>
     <use xlink:href="#MicrosoftJhengHeiRegular-7f6e" x="100"/>
     <use xlink:href="#MicrosoftJhengHeiRegular-9810" x="200"/>
     <use xlink:href="#MicrosoftJhengHeiRegular-6e2c" x="300"/>
     <use xlink:href="#MicrosoftJhengHeiRegular-8aa4" x="400"/>
     <use xlink:href="#MicrosoftJhengHeiRegular-5dee" x="500"/>
     <use xlink:href="#MicrosoftJhengHeiRegular-5bc6" x="600"/>
     <use xlink:href="#MicrosoftJhengHeiRegular-5ea6" x="700"/>
     <use xlink:href="#MicrosoftJhengHeiRegular-5206" x="800"/>
     <use xlink:href="#MicrosoftJhengHeiRegular-5e03" x="900"/>
     <use xlink:href="#MicrosoftJhengHeiRegular-20" x="1000"/>
     <use xlink:href="#MicrosoftJhengHeiRegular-2d" x="1025"/>
     <use xlink:href="#MicrosoftJhengHeiRegular-20" x="1068.164062"/>
     <use xlink:href="#MicrosoftJhengHeiRegular-8a2d" x="1093.164062"/>
     <use xlink:href="#MicrosoftJhengHeiRegular-5099" x="1193.164062"/>
     <use xlink:href="#MicrosoftJhengHeiRegular-6545" x="1293.164062"/>
     <use xlink:href="#MicrosoftJhengHeiRegular-969c" x="1393.164062"/>
     <use xlink:href="#MicrosoftJhengHeiRegular-20" x="1493.164062"/>
     <use xlink:href="#MicrosoftJhengHeiRegular-32" x="1518.164062"/>
     <use xlink:href="#MicrosoftJhengHeiRegular-35" x="1576.123047"/>
     <use xlink:href="#MicrosoftJhengHeiRegular-25" x="1634.082031"/>
    </g>
   </g>
  </g>
 </g>
 <defs>
  <clipPath id="pbf4afbbf5e">
   <rect x="42.575" y="22.7925" width="949.93" height="484.896171"/>
  </clipPath>
 </defs>
</svg>
