<?xml version="1.0" encoding="utf-8" standalone="no"?>
<!DOCTYPE svg PUBLIC "-//W3C//DTD SVG 1.1//EN"
  "http://www.w3.org/Graphics/SVG/1.1/DTD/svg11.dtd">
<svg xmlns:xlink="http://www.w3.org/1999/xlink" width="452.540312pt" height="335.922599pt" viewBox="0 0 452.540312 335.922599" xmlns="http://www.w3.org/2000/svg" version="1.1">
 <metadata>
  <rdf:RDF xmlns:dc="http://purl.org/dc/elements/1.1/" xmlns:cc="http://creativecommons.org/ns#" xmlns:rdf="http://www.w3.org/1999/02/22-rdf-syntax-ns#">
   <cc:Work>
    <dc:type rdf:resource="http://purl.org/dc/dcmitype/StillImage"/>
    <dc:date>2025-09-02T17:35:04.220850</dc:date>
    <dc:format>image/svg+xml</dc:format>
    <dc:creator>
     <cc:Agent>
      <dc:title>Matplotlib v3.7.1, https://matplotlib.org/</dc:title>
     </cc:Agent>
    </dc:creator>
   </cc:Work>
  </rdf:RDF>
 </metadata>
 <defs>
  <style type="text/css">*{stroke-linejoin: round; stroke-linecap: butt}</style>
 </defs>
 <g id="figure_1">
  <g id="patch_1">
   <path d="M 0 335.922599 
L 452.540312 335.922599 
L 452.540312 0 
L 0 0 
z
" style="fill: #ffffff"/>
  </g>
  <g id="axes_1">
   <g id="patch_2">
    <path d="M 40.270313 277.288671 
L 445.340312 277.288671 
L 445.340312 22.7925 
L 40.270313 22.7925 
z
" style="fill: #ffffff"/>
   </g>
   <g id="patch_3">
    <path d="M 75.19014 277.288671 
L 103.126002 277.288671 
L 103.126002 34.911365 
L 75.19014 34.911365 
z
" clip-path="url(#pfa06e9c015)" style="fill: #1f77b4"/>
   </g>
   <g id="patch_4">
    <path d="M 214.86945 277.288671 
L 242.805313 277.288671 
L 242.805313 34.911365 
L 214.86945 34.911365 
z
" clip-path="url(#pfa06e9c015)" style="fill: #1f77b4"/>
   </g>
   <g id="patch_5">
    <path d="M 354.548761 277.288671 
L 382.484623 277.288671 
L 382.484623 34.911365 
L 354.548761 34.911365 
z
" clip-path="url(#pfa06e9c015)" style="fill: #1f77b4"/>
   </g>
   <g id="patch_6">
    <path d="M 103.126002 277.288671 
L 131.061864 277.288671 
L 131.061864 99.713631 
L 103.126002 99.713631 
z
" clip-path="url(#pfa06e9c015)" style="fill: #ff7f0e"/>
   </g>
   <g id="patch_7">
    <path d="M 242.805313 277.288671 
L 270.741175 277.288671 
L 270.741175 99.713631 
L 242.805313 99.713631 
z
" clip-path="url(#pfa06e9c015)" style="fill: #ff7f0e"/>
   </g>
   <g id="patch_8">
    <path d="M 382.484623 277.288671 
L 410.420485 277.288671 
L 410.420485 99.713631 
L 382.484623 99.713631 
z
" clip-path="url(#pfa06e9c015)" style="fill: #ff7f0e"/>
   </g>
   <g id="matplotlib.axis_1">
    <g id="xtick_1">
     <g id="line2d_1">
      <defs>
       <path id="mcdc850d367" d="M 0 0 
L 0 3.5 
" style="stroke: #000000; stroke-width: 0.8"/>
      </defs>
      <g>
       <use xlink:href="#mcdc850d367" x="103.126002" y="277.288671" style="stroke: #000000; stroke-width: 0.8"/>
      </g>
     </g>
     <g id="text_1">
      <!-- original HADNN -->
      <g transform="translate(66.929144 311.785838) rotate(-15) scale(0.1 -0.1)">
       <defs>
        <path id="MicrosoftJhengHeiRegular-6f" d="M 331 1684 
Q 331 2547 801 3042 
Q 1272 3538 2081 3538 
Q 2844 3538 3276 3059 
Q 3709 2581 3709 1738 
Q 3709 919 3240 419 
Q 2772 -81 2000 -81 
Q 1253 -81 792 400 
Q 331 881 331 1684 
z
M 863 1706 
Q 863 1094 1183 728 
Q 1503 363 2038 363 
Q 2581 363 2879 719 
Q 3178 1075 3178 1719 
Q 3178 2378 2883 2736 
Q 2588 3094 2038 3094 
Q 1500 3094 1181 2723 
Q 863 2353 863 1706 
z
" transform="scale(0.015625)"/>
        <path id="MicrosoftJhengHeiRegular-72" d="M 2341 2922 
Q 2197 3031 1925 3031 
Q 1559 3031 1323 2682 
Q 1088 2334 1088 1769 
L 1088 0 
L 566 0 
L 566 3456 
L 1088 3456 
L 1088 2741 
L 1103 2741 
Q 1222 3109 1465 3312 
Q 1709 3516 2003 3516 
Q 2225 3516 2341 3469 
L 2341 2922 
z
" transform="scale(0.015625)"/>
        <path id="MicrosoftJhengHeiRegular-69" d="M 497 4700 
Q 497 4847 595 4948 
Q 694 5050 834 5050 
Q 981 5050 1082 4947 
Q 1184 4844 1184 4700 
Q 1184 4563 1082 4459 
Q 981 4356 834 4356 
Q 688 4356 592 4456 
Q 497 4556 497 4700 
z
M 569 0 
L 569 3456 
L 1088 3456 
L 1088 0 
L 569 0 
z
" transform="scale(0.015625)"/>
        <path id="MicrosoftJhengHeiRegular-67" d="M 3488 272 
Q 3488 -1628 1688 -1628 
Q 1050 -1628 566 -1381 
L 566 -850 
Q 1150 -1175 1684 -1175 
Q 2969 -1175 2969 203 
L 2969 588 
L 2956 588 
Q 2550 -81 1763 -81 
Q 1113 -81 722 384 
Q 331 850 331 1616 
Q 331 2500 759 3019 
Q 1188 3538 1913 3538 
Q 2616 3538 2956 2972 
L 2969 2972 
L 2969 3456 
L 3488 3456 
L 3488 272 
z
M 2969 2081 
Q 2969 2503 2678 2798 
Q 2388 3094 1978 3094 
Q 1459 3094 1161 2712 
Q 863 2331 863 1653 
Q 863 1066 1150 714 
Q 1438 363 1897 363 
Q 2363 363 2666 698 
Q 2969 1034 2969 1556 
L 2969 2081 
z
" transform="scale(0.015625)"/>
        <path id="MicrosoftJhengHeiRegular-6e" d="M 3406 0 
L 2884 0 
L 2884 1975 
Q 2884 3094 2066 3094 
Q 1638 3094 1363 2773 
Q 1088 2453 1088 1972 
L 1088 0 
L 566 0 
L 566 3456 
L 1088 3456 
L 1088 2878 
L 1103 2878 
Q 1491 3538 2238 3538 
Q 2806 3538 3106 3172 
Q 3406 2806 3406 2113 
L 3406 0 
z
" transform="scale(0.015625)"/>
        <path id="MicrosoftJhengHeiRegular-61" d="M 647 3209 
Q 1156 3538 1813 3538 
Q 3016 3538 3016 2259 
L 3016 0 
L 2494 0 
L 2494 544 
L 2475 544 
Q 2116 -81 1413 -81 
Q 900 -81 604 192 
Q 309 466 309 916 
Q 309 1875 1447 2038 
L 2491 2188 
Q 2491 3088 1772 3088 
Q 1144 3088 647 2659 
L 647 3209 
z
M 1644 1641 
Q 1200 1581 1026 1426 
Q 853 1272 853 950 
Q 853 691 1039 528 
Q 1225 366 1525 366 
Q 1941 366 2216 662 
Q 2491 959 2491 1403 
L 2491 1753 
L 1644 1641 
z
" transform="scale(0.015625)"/>
        <path id="MicrosoftJhengHeiRegular-6c" d="M 569 0 
L 569 5116 
L 1088 5116 
L 1088 0 
L 569 0 
z
" transform="scale(0.015625)"/>
        <path id="MicrosoftJhengHeiRegular-20" transform="scale(0.015625)"/>
        <path id="MicrosoftJhengHeiRegular-48" d="M 4241 0 
L 3709 0 
L 3709 2222 
L 1172 2222 
L 1172 0 
L 641 0 
L 641 4841 
L 1172 4841 
L 1172 2703 
L 3709 2703 
L 3709 4841 
L 4241 4841 
L 4241 0 
z
" transform="scale(0.015625)"/>
        <path id="MicrosoftJhengHeiRegular-41" d="M 4353 0 
L 3763 0 
L 3238 1375 
L 1163 1375 
L 672 0 
L 78 0 
L 1941 4841 
L 2481 4841 
L 4353 0 
z
M 3056 1863 
L 2281 3953 
Q 2250 4041 2209 4272 
L 2194 4272 
Q 2159 4059 2116 3953 
L 1350 1863 
L 3056 1863 
z
" transform="scale(0.015625)"/>
        <path id="MicrosoftJhengHeiRegular-44" d="M 641 0 
L 641 4841 
L 1953 4841 
Q 4506 4841 4506 2481 
Q 4506 1350 3818 675 
Q 3131 0 1903 0 
L 641 0 
z
M 1172 4353 
L 1172 488 
L 1909 488 
Q 2875 488 3412 1006 
Q 3950 1525 3950 2466 
Q 3950 4353 1941 4353 
L 1172 4353 
z
" transform="scale(0.015625)"/>
        <path id="MicrosoftJhengHeiRegular-4e" d="M 4513 0 
L 3844 0 
L 1319 3909 
Q 1234 4047 1169 4200 
L 1150 4200 
Q 1175 4050 1175 3550 
L 1175 0 
L 641 0 
L 641 4841 
L 1347 4841 
L 3803 972 
Q 3991 672 4000 641 
L 4013 641 
Q 3978 881 3978 1369 
L 3978 4841 
L 4513 4841 
L 4513 0 
z
" transform="scale(0.015625)"/>
       </defs>
       <use xlink:href="#MicrosoftJhengHeiRegular-6f"/>
       <use xlink:href="#MicrosoftJhengHeiRegular-72" x="63.085938"/>
       <use xlink:href="#MicrosoftJhengHeiRegular-69" x="100.292969"/>
       <use xlink:href="#MicrosoftJhengHeiRegular-67" x="126.220703"/>
       <use xlink:href="#MicrosoftJhengHeiRegular-69" x="189.599609"/>
       <use xlink:href="#MicrosoftJhengHeiRegular-6e" x="215.527344"/>
       <use xlink:href="#MicrosoftJhengHeiRegular-61" x="276.367188"/>
       <use xlink:href="#MicrosoftJhengHeiRegular-6c" x="331.103516"/>
       <use xlink:href="#MicrosoftJhengHeiRegular-20" x="357.03125"/>
       <use xlink:href="#MicrosoftJhengHeiRegular-48" x="382.03125"/>
       <use xlink:href="#MicrosoftJhengHeiRegular-41" x="458.300781"/>
       <use xlink:href="#MicrosoftJhengHeiRegular-44" x="527.587891"/>
       <use xlink:href="#MicrosoftJhengHeiRegular-4e" x="603.076172"/>
       <use xlink:href="#MicrosoftJhengHeiRegular-4e" x="683.59375"/>
      </g>
     </g>
    </g>
    <g id="xtick_2">
     <g id="line2d_2">
      <g>
       <use xlink:href="#mcdc850d367" x="242.805313" y="277.288671" style="stroke: #000000; stroke-width: 0.8"/>
      </g>
     </g>
     <g id="text_2">
      <!-- mlp -->
      <g transform="translate(234.738716 296.714886) rotate(-15) scale(0.1 -0.1)">
       <defs>
        <path id="MicrosoftJhengHeiRegular-6d" d="M 5438 0 
L 4916 0 
L 4916 1984 
Q 4916 2588 4733 2841 
Q 4550 3094 4128 3094 
Q 3775 3094 3519 2762 
Q 3263 2431 3263 1975 
L 3263 0 
L 2744 0 
L 2744 2056 
Q 2744 3094 1941 3094 
Q 1572 3094 1330 2778 
Q 1088 2463 1088 1975 
L 1088 0 
L 566 0 
L 566 3456 
L 1088 3456 
L 1088 2909 
L 1103 2909 
Q 1466 3538 2172 3538 
Q 2509 3538 2779 3339 
Q 3050 3141 3147 2816 
Q 3531 3538 4297 3538 
Q 5438 3538 5438 2128 
L 5438 0 
z
" transform="scale(0.015625)"/>
        <path id="MicrosoftJhengHeiRegular-70" d="M 1088 506 
L 1088 -1591 
L 566 -1591 
L 566 3456 
L 1088 3456 
L 1088 2844 
L 1103 2844 
Q 1513 3538 2300 3538 
Q 2959 3538 3340 3077 
Q 3722 2616 3722 1828 
Q 3722 966 3295 442 
Q 2869 -81 2141 -81 
Q 1466 -81 1103 506 
L 1088 506 
z
M 1088 1400 
Q 1088 966 1378 664 
Q 1669 363 2094 363 
Q 2603 363 2895 756 
Q 3188 1150 3188 1844 
Q 3188 2428 2913 2761 
Q 2638 3094 2181 3094 
Q 1706 3094 1397 2758 
Q 1088 2422 1088 1900 
L 1088 1400 
z
" transform="scale(0.015625)"/>
       </defs>
       <use xlink:href="#MicrosoftJhengHeiRegular-6d"/>
       <use xlink:href="#MicrosoftJhengHeiRegular-6c" x="92.626953"/>
       <use xlink:href="#MicrosoftJhengHeiRegular-70" x="118.554688"/>
      </g>
     </g>
    </g>
    <g id="xtick_3">
     <g id="line2d_3">
      <g>
       <use xlink:href="#mcdc850d367" x="382.484623" y="277.288671" style="stroke: #000000; stroke-width: 0.8"/>
      </g>
     </g>
     <g id="text_3">
      <!-- hadnn+rf -->
      <g transform="translate(361.612717 303.57723) rotate(-15) scale(0.1 -0.1)">
       <defs>
        <path id="MicrosoftJhengHeiRegular-68" d="M 3406 0 
L 2888 0 
L 2888 1994 
Q 2888 3094 2066 3094 
Q 1650 3094 1369 2775 
Q 1088 2456 1088 1956 
L 1088 0 
L 566 0 
L 566 5116 
L 1088 5116 
L 1088 2878 
L 1103 2878 
Q 1500 3538 2241 3538 
Q 3406 3538 3406 2128 
L 3406 0 
z
" transform="scale(0.015625)"/>
        <path id="MicrosoftJhengHeiRegular-64" d="M 3488 0 
L 2969 0 
L 2969 594 
L 2956 594 
Q 2572 -81 1763 -81 
Q 1106 -81 718 386 
Q 331 853 331 1647 
Q 331 2497 765 3017 
Q 1200 3538 1913 3538 
Q 2625 3538 2956 2972 
L 2969 2972 
L 2969 5116 
L 3488 5116 
L 3488 0 
z
M 2969 2081 
Q 2969 2506 2680 2800 
Q 2391 3094 1972 3094 
Q 1453 3094 1158 2711 
Q 863 2328 863 1675 
Q 863 1078 1145 720 
Q 1428 363 1906 363 
Q 2366 363 2667 698 
Q 2969 1034 2969 1556 
L 2969 2081 
z
" transform="scale(0.015625)"/>
        <path id="MicrosoftJhengHeiRegular-2b" d="M 3947 1797 
L 2578 1797 
L 2578 434 
L 2147 434 
L 2147 1797 
L 784 1797 
L 784 2234 
L 2147 2234 
L 2147 3597 
L 2578 3597 
L 2578 2234 
L 3947 2234 
L 3947 1797 
z
" transform="scale(0.015625)"/>
        <path id="MicrosoftJhengHeiRegular-66" d="M 2241 4653 
Q 2075 4744 1872 4744 
Q 1288 4744 1288 4000 
L 1288 3456 
L 2097 3456 
L 2097 3006 
L 1288 3006 
L 1288 0 
L 772 0 
L 772 3006 
L 181 3006 
L 181 3456 
L 772 3456 
L 772 4025 
Q 772 4572 1083 4881 
Q 1394 5191 1847 5191 
Q 2100 5191 2241 5131 
L 2241 4653 
z
" transform="scale(0.015625)"/>
       </defs>
       <use xlink:href="#MicrosoftJhengHeiRegular-68"/>
       <use xlink:href="#MicrosoftJhengHeiRegular-61" x="60.888672"/>
       <use xlink:href="#MicrosoftJhengHeiRegular-64" x="115.625"/>
       <use xlink:href="#MicrosoftJhengHeiRegular-6e" x="179.003906"/>
       <use xlink:href="#MicrosoftJhengHeiRegular-6e" x="239.84375"/>
       <use xlink:href="#MicrosoftJhengHeiRegular-2b" x="300.683594"/>
       <use xlink:href="#MicrosoftJhengHeiRegular-72" x="374.414062"/>
       <use xlink:href="#MicrosoftJhengHeiRegular-66" x="413.621094"/>
      </g>
     </g>
    </g>
    <g id="text_4">
     <!-- 模型 -->
     <g transform="translate(232.805313 326.236662) scale(0.1 -0.1)">
      <defs>
       <path id="MicrosoftJhengHeiRegular-6a21" d="M 5978 4441 
L 5063 4441 
L 5063 4078 
L 4744 4078 
L 4744 4441 
L 4269 4441 
L 4269 4744 
L 4744 4744 
L 4744 5275 
L 5063 5275 
L 5063 4744 
L 5978 4744 
L 5978 4441 
z
M 4025 4441 
L 3603 4441 
L 3603 4078 
L 3263 4078 
L 3263 4441 
L 2322 4441 
L 2322 4744 
L 3263 4744 
L 3263 5275 
L 3603 5275 
L 3603 4744 
L 4025 4744 
L 4025 4441 
z
M 2431 2444 
L 2181 2234 
Q 1878 2763 1703 2994 
L 1703 -341 
L 1375 -341 
L 1375 2816 
Q 1056 2041 628 1422 
L 403 1672 
Q 984 2497 1369 3634 
L 500 3634 
L 500 3950 
L 1375 3950 
L 1375 5275 
L 1703 5275 
L 1703 3950 
L 2344 3950 
L 2344 3634 
L 1703 3634 
L 1703 3494 
Q 2128 2969 2431 2444 
z
M 5947 991 
L 4109 991 
Q 3838 -25 2369 -341 
L 2181 -44 
Q 3481 191 3775 991 
L 2247 991 
L 2247 1300 
L 3847 1300 
Q 3909 1647 3909 1856 
L 2747 1856 
L 2747 3834 
L 5569 3834 
L 5569 1856 
L 4244 1856 
Q 4234 1619 4184 1300 
L 5947 1300 
L 5947 991 
z
M 5253 3016 
L 5253 3531 
L 3059 3531 
L 3059 3016 
L 5253 3016 
z
M 5253 2156 
L 5253 2719 
L 3059 2719 
L 3059 2156 
L 5253 2156 
z
M 6028 -63 
L 5825 -325 
Q 5241 103 4319 531 
L 4531 788 
Q 5369 400 6028 -63 
z
" transform="scale(0.015625)"/>
       <path id="MicrosoftJhengHeiRegular-578b" d="M 5703 2291 
Q 5703 2109 5600 1992 
Q 5497 1875 5369 1842 
Q 5241 1809 4888 1809 
Q 4700 1809 4422 1819 
L 4281 2169 
Q 4603 2141 4881 2141 
Q 5147 2141 5215 2158 
Q 5284 2175 5329 2256 
Q 5375 2338 5375 2444 
L 5375 5234 
L 5703 5234 
L 5703 2291 
z
M 3834 3406 
L 2919 3406 
L 2919 1959 
L 2591 1959 
L 2591 3406 
L 1734 3406 
Q 1663 2456 819 1791 
L 550 2016 
Q 1347 2647 1409 3406 
L 469 3406 
L 469 3731 
L 1428 3731 
Q 1459 4306 1459 4775 
L 659 4775 
L 659 5088 
L 3750 5088 
L 3750 4775 
L 2919 4775 
L 2919 3731 
L 3834 3731 
L 3834 3406 
z
M 2591 3731 
L 2591 4775 
L 1791 4775 
Q 1791 4397 1753 3731 
L 2591 3731 
z
M 4594 2816 
L 4269 2816 
L 4269 4953 
L 4594 4953 
L 4594 2816 
z
M 5991 -184 
L 428 -184 
L 428 134 
L 3059 134 
L 3059 1038 
L 844 1038 
L 844 1350 
L 3059 1350 
L 3059 2022 
L 3391 2022 
L 3391 1350 
L 5563 1350 
L 5563 1038 
L 3391 1038 
L 3391 134 
L 5991 134 
L 5991 -184 
z
" transform="scale(0.015625)"/>
      </defs>
      <use xlink:href="#MicrosoftJhengHeiRegular-6a21"/>
      <use xlink:href="#MicrosoftJhengHeiRegular-578b" x="100"/>
     </g>
    </g>
   </g>
   <g id="matplotlib.axis_2">
    <g id="ytick_1">
     <g id="line2d_4">
      <path d="M 40.270313 277.288671 
L 445.340312 277.288671 
" clip-path="url(#pfa06e9c015)" style="fill: none; stroke-dasharray: 2.96,1.28; stroke-dashoffset: 0; stroke: #b0b0b0; stroke-opacity: 0.7; stroke-width: 0.8"/>
     </g>
     <g id="line2d_5">
      <defs>
       <path id="m62a7686c9d" d="M 0 0 
L -3.5 0 
" style="stroke: #000000; stroke-width: 0.8"/>
      </defs>
      <g>
       <use xlink:href="#m62a7686c9d" x="40.270313" y="277.288671" style="stroke: #000000; stroke-width: 0.8"/>
      </g>
     </g>
     <g id="text_5">
      <!-- 0 -->
      <g transform="translate(27.475 281.285546) scale(0.1 -0.1)">
       <defs>
        <path id="MicrosoftJhengHeiRegular-30" d="M 294 2322 
Q 294 3603 711 4262 
Q 1128 4922 1916 4922 
Q 3425 4922 3425 2441 
Q 3425 1234 3011 576 
Q 2597 -81 1806 -81 
Q 1069 -81 681 550 
Q 294 1181 294 2322 
z
M 825 2350 
Q 825 363 1863 363 
Q 2891 363 2891 2378 
Q 2891 4475 1888 4475 
Q 825 4475 825 2350 
z
" transform="scale(0.015625)"/>
       </defs>
       <use xlink:href="#MicrosoftJhengHeiRegular-30"/>
      </g>
     </g>
    </g>
    <g id="ytick_2">
     <g id="line2d_6">
      <path d="M 40.270313 224.016159 
L 445.340312 224.016159 
" clip-path="url(#pfa06e9c015)" style="fill: none; stroke-dasharray: 2.96,1.28; stroke-dashoffset: 0; stroke: #b0b0b0; stroke-opacity: 0.7; stroke-width: 0.8"/>
     </g>
     <g id="line2d_7">
      <g>
       <use xlink:href="#m62a7686c9d" x="40.270313" y="224.016159" style="stroke: #000000; stroke-width: 0.8"/>
      </g>
     </g>
     <g id="text_6">
      <!-- 10 -->
      <g transform="translate(21.679688 228.013034) scale(0.1 -0.1)">
       <defs>
        <path id="MicrosoftJhengHeiRegular-31" d="M 3313 0 
L 594 0 
L 594 466 
L 1694 466 
L 1694 4272 
L 566 3931 
L 566 4434 
L 2216 4950 
L 2216 466 
L 3313 466 
L 3313 0 
z
" transform="scale(0.015625)"/>
       </defs>
       <use xlink:href="#MicrosoftJhengHeiRegular-31"/>
       <use xlink:href="#MicrosoftJhengHeiRegular-30" x="57.958984"/>
      </g>
     </g>
    </g>
    <g id="ytick_3">
     <g id="line2d_8">
      <path d="M 40.270313 170.743647 
L 445.340312 170.743647 
" clip-path="url(#pfa06e9c015)" style="fill: none; stroke-dasharray: 2.96,1.28; stroke-dashoffset: 0; stroke: #b0b0b0; stroke-opacity: 0.7; stroke-width: 0.8"/>
     </g>
     <g id="line2d_9">
      <g>
       <use xlink:href="#m62a7686c9d" x="40.270313" y="170.743647" style="stroke: #000000; stroke-width: 0.8"/>
      </g>
     </g>
     <g id="text_7">
      <!-- 20 -->
      <g transform="translate(21.679688 174.740522) scale(0.1 -0.1)">
       <defs>
        <path id="MicrosoftJhengHeiRegular-32" d="M 3219 0 
L 322 0 
L 322 472 
L 1731 1891 
Q 2431 2597 2592 2914 
Q 2753 3231 2753 3588 
Q 2753 4016 2511 4247 
Q 2269 4478 1816 4478 
Q 1169 4478 572 3919 
L 572 4475 
Q 1131 4922 1884 4922 
Q 2509 4922 2886 4575 
Q 3263 4228 3263 3634 
Q 3263 3178 3014 2736 
Q 2766 2294 2075 1603 
L 947 488 
L 947 475 
L 3219 475 
L 3219 0 
z
" transform="scale(0.015625)"/>
       </defs>
       <use xlink:href="#MicrosoftJhengHeiRegular-32"/>
       <use xlink:href="#MicrosoftJhengHeiRegular-30" x="57.958984"/>
      </g>
     </g>
    </g>
    <g id="ytick_4">
     <g id="line2d_10">
      <path d="M 40.270313 117.471135 
L 445.340312 117.471135 
" clip-path="url(#pfa06e9c015)" style="fill: none; stroke-dasharray: 2.96,1.28; stroke-dashoffset: 0; stroke: #b0b0b0; stroke-opacity: 0.7; stroke-width: 0.8"/>
     </g>
     <g id="line2d_11">
      <g>
       <use xlink:href="#m62a7686c9d" x="40.270313" y="117.471135" style="stroke: #000000; stroke-width: 0.8"/>
      </g>
     </g>
     <g id="text_8">
      <!-- 30 -->
      <g transform="translate(21.679688 121.46801) scale(0.1 -0.1)">
       <defs>
        <path id="MicrosoftJhengHeiRegular-33" d="M 438 756 
Q 934 363 1556 363 
Q 2056 363 2370 616 
Q 2684 869 2684 1313 
Q 2684 2281 1319 2281 
L 919 2281 
L 919 2728 
L 1300 2728 
Q 2513 2728 2513 3634 
Q 2513 4475 1588 4475 
Q 1075 4475 625 4122 
L 625 4644 
Q 1088 4922 1719 4922 
Q 2294 4922 2670 4606 
Q 3047 4291 3047 3769 
Q 3047 2819 2075 2538 
L 2075 2525 
Q 2591 2481 2905 2162 
Q 3219 1844 3219 1369 
Q 3219 706 2742 312 
Q 2266 -81 1525 -81 
Q 844 -81 438 178 
L 438 756 
z
" transform="scale(0.015625)"/>
       </defs>
       <use xlink:href="#MicrosoftJhengHeiRegular-33"/>
       <use xlink:href="#MicrosoftJhengHeiRegular-30" x="57.958984"/>
      </g>
     </g>
    </g>
    <g id="ytick_5">
     <g id="line2d_12">
      <path d="M 40.270313 64.198623 
L 445.340312 64.198623 
" clip-path="url(#pfa06e9c015)" style="fill: none; stroke-dasharray: 2.96,1.28; stroke-dashoffset: 0; stroke: #b0b0b0; stroke-opacity: 0.7; stroke-width: 0.8"/>
     </g>
     <g id="line2d_13">
      <g>
       <use xlink:href="#m62a7686c9d" x="40.270313" y="64.198623" style="stroke: #000000; stroke-width: 0.8"/>
      </g>
     </g>
     <g id="text_9">
      <!-- 40 -->
      <g transform="translate(21.679688 68.195498) scale(0.1 -0.1)">
       <defs>
        <path id="MicrosoftJhengHeiRegular-34" d="M 3472 1300 
L 2847 1300 
L 2847 0 
L 2328 0 
L 2328 1300 
L 41 1300 
L 41 1644 
L 2203 4841 
L 2847 4841 
L 2847 1731 
L 3472 1731 
L 3472 1300 
z
M 2328 1731 
L 2328 3863 
Q 2328 4084 2341 4366 
L 2328 4366 
Q 2303 4297 2144 3994 
L 622 1731 
L 2328 1731 
z
" transform="scale(0.015625)"/>
       </defs>
       <use xlink:href="#MicrosoftJhengHeiRegular-34"/>
       <use xlink:href="#MicrosoftJhengHeiRegular-30" x="57.958984"/>
      </g>
     </g>
    </g>
    <g id="text_10">
     <!-- 準確率 (%) -->
     <g transform="translate(15.19375 173.899961) rotate(-90) scale(0.1 -0.1)">
      <defs>
       <path id="MicrosoftJhengHeiRegular-6e96" d="M 6016 738 
L 3391 738 
L 3391 -353 
L 3059 -353 
L 3059 738 
L 447 738 
L 447 1056 
L 3059 1056 
L 3059 1650 
L 2431 1650 
L 2431 3731 
Q 2231 3494 1947 3219 
L 1741 3494 
Q 2491 4175 2944 5269 
L 3263 5166 
Q 3153 4894 2950 4513 
L 4197 4513 
Q 4144 4766 3916 5159 
L 4225 5253 
Q 4428 4878 4538 4513 
L 5856 4513 
L 5856 4206 
L 4372 4206 
L 4372 3675 
L 5619 3675 
L 5619 3366 
L 4372 3366 
L 4372 2834 
L 5619 2834 
L 5619 2522 
L 4372 2522 
L 4372 1972 
L 5941 1972 
L 5941 1650 
L 3391 1650 
L 3391 1056 
L 6016 1056 
L 6016 738 
z
M 4044 3675 
L 4044 4206 
L 2766 4206 
L 2766 3675 
L 4044 3675 
z
M 4044 2834 
L 4044 3366 
L 2766 3366 
L 2766 2834 
L 4044 2834 
z
M 4044 1972 
L 4044 2522 
L 2766 2522 
L 2766 1972 
L 4044 1972 
z
M 2047 4531 
L 1856 4256 
Q 1384 4672 819 4959 
L 1019 5222 
Q 1663 4878 2047 4531 
z
M 1638 3353 
L 1441 3091 
Q 1063 3378 453 3622 
L 641 3897 
Q 1122 3719 1638 3353 
z
M 2003 2591 
Q 1300 1713 672 1363 
L 481 1625 
Q 1063 1963 1778 2828 
L 2003 2591 
z
" transform="scale(0.015625)"/>
       <path id="MicrosoftJhengHeiRegular-78ba" d="M 6003 50 
L 3444 50 
L 3444 -313 
L 3109 -313 
L 3109 2778 
Q 2819 2513 2681 2394 
L 2472 2625 
Q 3541 3547 3853 4384 
L 3009 4384 
L 3009 3647 
L 2681 3647 
L 2681 4703 
L 3988 4703 
Q 4128 5084 4178 5288 
L 4481 5216 
Q 4425 4963 4325 4703 
L 5863 4703 
L 5863 3647 
L 5538 3647 
L 5538 4384 
L 4206 4384 
Q 3956 3769 3444 3144 
L 4575 3144 
Q 4447 3522 4353 3688 
L 4647 3794 
Q 4797 3447 4872 3144 
L 5913 3144 
L 5913 2834 
L 4813 2834 
L 4813 2241 
L 5819 2241 
L 5819 1941 
L 4813 1941 
L 4813 1313 
L 5819 1313 
L 5819 1025 
L 4813 1025 
L 4813 359 
L 6003 359 
L 6003 50 
z
M 4488 2241 
L 4488 2834 
L 3444 2834 
L 3444 2241 
L 4488 2241 
z
M 4488 1313 
L 4488 1941 
L 3444 1941 
L 3444 1313 
L 4488 1313 
z
M 4488 359 
L 4488 1025 
L 3444 1025 
L 3444 359 
L 4488 359 
z
M 2478 4659 
L 1650 4659 
Q 1509 3713 1253 3078 
L 2363 3078 
L 2363 206 
L 2047 206 
L 2047 481 
L 1350 481 
L 1350 78 
L 1031 78 
L 1031 2559 
Q 891 2278 672 1953 
L 409 2169 
Q 1128 3138 1350 4659 
L 538 4659 
L 538 4991 
L 2478 4991 
L 2478 4659 
z
M 2034 794 
L 2034 2753 
L 1350 2753 
L 1350 794 
L 2034 794 
z
" transform="scale(0.015625)"/>
       <path id="MicrosoftJhengHeiRegular-7387" d="M 5825 4372 
L 3163 4372 
L 3391 4225 
Q 3094 3766 2613 3384 
Q 3025 3394 3547 3469 
Q 3719 3650 3903 3897 
L 4184 3731 
Q 3528 2869 2663 2303 
Q 3200 2328 3944 2444 
Q 3825 2650 3681 2816 
L 3950 2981 
Q 4347 2506 4581 1959 
L 4306 1791 
L 4116 2169 
Q 3163 2019 2163 1959 
L 2094 2253 
Q 2597 2553 3206 3128 
Q 2600 3084 2156 3059 
L 2094 3341 
Q 2734 3794 3084 4372 
L 659 4372 
L 659 4684 
L 3084 4684 
Q 2931 5016 2791 5209 
L 3138 5325 
Q 3341 4959 3450 4684 
L 5825 4684 
L 5825 4372 
z
M 1831 3384 
L 1588 3150 
Q 1219 3575 750 3891 
L 997 4122 
Q 1447 3819 1831 3384 
z
M 5663 3884 
Q 5247 3450 4703 3109 
L 4447 3353 
Q 4906 3591 5409 4084 
L 5663 3884 
z
M 1991 2534 
Q 1331 2031 728 1709 
L 563 2003 
Q 1206 2334 1838 2853 
L 1991 2534 
z
M 5888 1991 
L 5663 1734 
Q 5288 2119 4488 2597 
L 4703 2847 
Q 5450 2409 5888 1991 
z
M 6003 916 
L 3406 916 
L 3406 -325 
L 3059 -325 
L 3059 916 
L 434 916 
L 434 1222 
L 3059 1222 
L 3059 1825 
L 3406 1825 
L 3406 1222 
L 6003 1222 
L 6003 916 
z
" transform="scale(0.015625)"/>
       <path id="MicrosoftJhengHeiRegular-28" d="M 1513 -1100 
Q 469 94 469 1847 
Q 469 3609 1513 4841 
L 1988 4841 
Q 925 3556 925 1853 
Q 925 159 1981 -1100 
L 1513 -1100 
z
" transform="scale(0.015625)"/>
       <path id="MicrosoftJhengHeiRegular-25" d="M 266 3625 
Q 266 4219 580 4566 
Q 894 4913 1425 4913 
Q 1938 4913 2223 4589 
Q 2509 4266 2509 3694 
Q 2509 3125 2192 2770 
Q 1875 2416 1356 2416 
Q 856 2416 561 2748 
Q 266 3081 266 3625 
z
M 700 3656 
Q 700 3241 886 3008 
Q 1072 2775 1391 2775 
Q 1716 2775 1897 3014 
Q 2078 3253 2078 3678 
Q 2078 4097 1898 4328 
Q 1719 4559 1403 4559 
Q 1081 4559 890 4312 
Q 700 4066 700 3656 
z
M 4578 4841 
L 1478 -38 
L 1016 -38 
L 4116 4841 
L 4578 4841 
z
M 3144 1134 
Q 3144 1725 3456 2079 
Q 3769 2434 4297 2434 
Q 4806 2434 5093 2106 
Q 5381 1778 5381 1197 
Q 5381 625 5061 275 
Q 4741 -75 4231 -75 
Q 3741 -75 3442 256 
Q 3144 588 3144 1134 
z
M 3572 1163 
Q 3572 756 3761 522 
Q 3950 288 4263 288 
Q 4588 288 4769 530 
Q 4950 772 4950 1194 
Q 4950 1616 4772 1841 
Q 4594 2066 4278 2066 
Q 3947 2066 3759 1823 
Q 3572 1581 3572 1163 
z
" transform="scale(0.015625)"/>
       <path id="MicrosoftJhengHeiRegular-29" d="M 84 -1100 
Q 1138 153 1138 1853 
Q 1138 3563 75 4841 
L 553 4841 
Q 1603 3609 1603 1847 
Q 1603 97 553 -1100 
L 84 -1100 
z
" transform="scale(0.015625)"/>
      </defs>
      <use xlink:href="#MicrosoftJhengHeiRegular-6e96"/>
      <use xlink:href="#MicrosoftJhengHeiRegular-78ba" x="100"/>
      <use xlink:href="#MicrosoftJhengHeiRegular-7387" x="200"/>
      <use xlink:href="#MicrosoftJhengHeiRegular-20" x="300"/>
      <use xlink:href="#MicrosoftJhengHeiRegular-28" x="325"/>
      <use xlink:href="#MicrosoftJhengHeiRegular-25" x="357.080078"/>
      <use xlink:href="#MicrosoftJhengHeiRegular-29" x="445.117188"/>
     </g>
    </g>
   </g>
   <g id="patch_9">
    <path d="M 40.270313 277.288671 
L 40.270313 22.7925 
" style="fill: none; stroke: #000000; stroke-width: 0.8; stroke-linejoin: miter; stroke-linecap: square"/>
   </g>
   <g id="patch_10">
    <path d="M 445.340312 277.288671 
L 445.340312 22.7925 
" style="fill: none; stroke: #000000; stroke-width: 0.8; stroke-linejoin: miter; stroke-linecap: square"/>
   </g>
   <g id="patch_11">
    <path d="M 40.270312 277.288671 
L 445.340312 277.288671 
" style="fill: none; stroke: #000000; stroke-width: 0.8; stroke-linejoin: miter; stroke-linecap: square"/>
   </g>
   <g id="patch_12">
    <path d="M 40.270312 22.7925 
L 445.340312 22.7925 
" style="fill: none; stroke: #000000; stroke-width: 0.8; stroke-linejoin: miter; stroke-linecap: square"/>
   </g>
   <g id="text_11">
    <!-- 不同模型的分類準確度對比 - 高斯雜訊 4dB -->
    <g transform="translate(128.75 16.7925) scale(0.12 -0.12)">
     <defs>
      <path id="MicrosoftJhengHeiRegular-4e0d" d="M 6100 1422 
L 5888 1147 
Q 4453 2288 3413 2822 
L 3413 -359 
L 3053 -359 
L 3053 3244 
Q 2147 2163 616 1153 
L 391 1447 
Q 2747 2853 3591 4775 
L 519 4775 
L 519 5119 
L 5959 5119 
L 5959 4775 
L 3981 4775 
Q 3750 4278 3413 3731 
L 3413 3219 
Q 5203 2181 6100 1422 
z
" transform="scale(0.015625)"/>
      <path id="MicrosoftJhengHeiRegular-540c" d="M 5722 159 
Q 5722 -156 5500 -247 
Q 5322 -297 5042 -305 
Q 4763 -313 4306 -313 
L 4172 25 
Q 4341 13 5222 13 
Q 5394 13 5394 178 
L 5394 4800 
L 1088 4800 
L 1088 -325 
L 763 -325 
L 763 5119 
L 5722 5119 
L 5722 159 
z
M 4856 3688 
L 1631 3688 
L 1631 4013 
L 4856 4013 
L 4856 3688 
z
M 4494 984 
L 1991 984 
L 1991 2881 
L 4494 2881 
L 4494 984 
z
M 4147 1325 
L 4147 2553 
L 2338 2553 
L 2338 1325 
L 4147 1325 
z
" transform="scale(0.015625)"/>
      <path id="MicrosoftJhengHeiRegular-7684" d="M 2650 -197 
L 2328 -197 
L 2328 353 
L 947 353 
L 947 -325 
L 622 -325 
L 622 4213 
L 1216 4213 
Q 1456 4641 1672 5313 
L 1991 5247 
Q 1878 4909 1556 4213 
L 2650 4213 
L 2650 -197 
z
M 2328 2516 
L 2328 3891 
L 947 3891 
L 947 2516 
L 2328 2516 
z
M 2328 678 
L 2328 2194 
L 947 2194 
L 947 678 
L 2328 678 
z
M 5856 4206 
Q 5819 2769 5717 1534 
Q 5616 300 5512 81 
Q 5409 -138 5248 -230 
Q 5088 -322 4638 -322 
Q 4441 -322 4122 -313 
L 4019 13 
Q 4281 3 4584 3 
Q 4869 3 4948 9 
Q 5028 16 5115 89 
Q 5203 163 5240 261 
Q 5278 359 5340 996 
Q 5403 1634 5443 2401 
Q 5484 3169 5503 3891 
L 3834 3891 
Q 3500 3225 3059 2625 
L 2797 2809 
Q 3638 3913 3988 5269 
L 4313 5184 
Q 4156 4672 3963 4206 
L 5856 4206 
z
M 4678 1338 
L 4409 1147 
Q 4100 1859 3481 2638 
L 3756 2816 
Q 4331 2122 4678 1338 
z
" transform="scale(0.015625)"/>
      <path id="MicrosoftJhengHeiRegular-5206" d="M 2688 5141 
Q 1919 3378 647 2503 
L 416 2766 
Q 1650 3591 2350 5241 
L 2688 5141 
z
M 6047 2809 
L 5819 2522 
Q 4553 3422 4063 4878 
L 3584 4878 
L 3584 5222 
L 4300 5222 
Q 4778 3628 6047 2809 
z
M 5013 2894 
Q 4997 1866 4890 1047 
Q 4784 228 4681 31 
Q 4578 -166 4395 -250 
Q 4213 -334 3759 -334 
Q 3563 -334 3250 -319 
L 3175 25 
Q 3525 -6 3822 -6 
Q 4109 -6 4192 31 
Q 4275 69 4336 139 
Q 4397 209 4472 557 
Q 4547 906 4592 1420 
Q 4638 1934 4653 2553 
L 3009 2553 
Q 2794 669 897 -409 
L 691 -141 
Q 2450 847 2644 2553 
L 1434 2553 
L 1434 2894 
L 5013 2894 
z
" transform="scale(0.015625)"/>
      <path id="MicrosoftJhengHeiRegular-985e" d="M 3181 3659 
L 2088 3659 
L 2088 2394 
L 1766 2394 
L 1766 3659 
L 481 3659 
L 481 3950 
L 1766 3950 
L 1766 5269 
L 2088 5269 
L 2088 3950 
L 3181 3950 
L 3181 3659 
z
M 1428 4319 
L 1147 4172 
Q 931 4653 697 4978 
L 978 5141 
Q 1241 4759 1428 4319 
z
M 3097 4978 
Q 2906 4525 2656 4213 
L 2375 4372 
Q 2678 4781 2803 5131 
L 3097 4978 
z
M 6028 4825 
L 4831 4825 
Q 4772 4506 4634 4056 
L 5734 4056 
L 5734 966 
L 4263 966 
L 4469 750 
Q 3928 34 3378 -306 
L 3156 -78 
Q 3781 319 4213 966 
L 3513 966 
L 3513 4056 
L 4294 4056 
Q 4406 4363 4500 4825 
L 3231 4825 
L 3231 5119 
L 6028 5119 
L 6028 4825 
z
M 5416 3163 
L 5416 3763 
L 3834 3763 
L 3834 3163 
L 5416 3163 
z
M 5416 2247 
L 5416 2859 
L 3834 2859 
L 3834 2247 
L 5416 2247 
z
M 5416 1269 
L 5416 1941 
L 3834 1941 
L 3834 1269 
L 5416 1269 
z
M 1503 3238 
Q 1300 2722 819 2209 
L 563 2406 
Q 991 2884 1241 3378 
L 1503 3238 
z
M 3156 2516 
L 2888 2344 
Q 2691 2744 2356 3194 
L 2625 3359 
Q 2922 2978 3156 2516 
z
M 2900 1984 
L 2650 1844 
Q 2384 2144 2303 2209 
L 2553 2375 
Q 2797 2144 2900 1984 
z
M 3188 1381 
L 2059 1381 
Q 2034 1181 1997 1088 
Q 2541 781 2975 347 
L 2759 109 
Q 2381 494 1906 788 
Q 1525 59 794 -347 
L 531 -122 
Q 1647 488 1728 1381 
L 500 1381 
L 500 1684 
L 1747 1684 
Q 1772 1978 1772 2209 
L 2088 2209 
Q 2094 2119 2094 2019 
Q 2094 1841 2075 1684 
L 3188 1684 
L 3188 1381 
z
M 6028 -91 
L 5813 -331 
Q 5319 216 4788 513 
L 4972 744 
Q 5534 463 6028 -91 
z
" transform="scale(0.015625)"/>
      <path id="MicrosoftJhengHeiRegular-5ea6" d="M 5941 4422 
L 1319 4422 
L 1319 2638 
Q 1319 897 616 -238 
L 325 -25 
Q 997 1019 997 2963 
L 997 4744 
L 3359 4744 
Q 3219 5003 3047 5222 
L 3419 5313 
Q 3619 5003 3750 4744 
L 5941 4744 
L 5941 4422 
z
M 5941 3397 
L 4838 3397 
L 4838 2356 
L 2541 2356 
L 2541 3397 
L 1569 3397 
L 1569 3713 
L 2541 3713 
L 2541 4238 
L 2875 4238 
L 2875 3713 
L 4506 3713 
L 4506 4238 
L 4838 4238 
L 4838 3713 
L 5941 3713 
L 5941 3397 
z
M 4506 2675 
L 4506 3397 
L 2875 3397 
L 2875 2675 
L 4506 2675 
z
M 6088 -44 
L 5881 -353 
Q 4572 -138 3731 256 
Q 2756 -181 1356 -325 
L 1191 6 
Q 2566 113 3341 447 
Q 2594 903 2194 1625 
L 1953 1625 
L 1953 1959 
L 5191 1959 
L 5191 1625 
Q 4816 894 4084 459 
Q 4803 147 6088 -44 
z
M 4788 1625 
L 2591 1625 
Q 2997 969 3706 628 
Q 4450 1038 4788 1625 
z
" transform="scale(0.015625)"/>
      <path id="MicrosoftJhengHeiRegular-5c0d" d="M 3531 197 
Q 2266 -25 544 -172 
L 447 153 
Q 1100 191 1894 275 
L 1894 1131 
L 653 1131 
L 653 1453 
L 1894 1453 
L 1894 2181 
L 531 2181 
L 531 2497 
L 1369 2497 
Q 1225 2981 1044 3353 
L 525 3353 
L 525 3653 
L 1459 3653 
L 1459 5253 
L 1784 5253 
L 1784 3653 
L 2350 3653 
L 2350 5253 
L 2675 5253 
L 2675 3653 
L 3494 3653 
L 3494 3353 
L 3009 3353 
Q 2866 2916 2675 2497 
L 3438 2497 
L 3438 2181 
L 2216 2181 
L 2216 1453 
L 3297 1453 
L 3297 1131 
L 2216 1131 
L 2216 319 
Q 2834 388 3531 525 
L 3531 197 
z
M 2656 3353 
L 1409 3353 
Q 1575 2969 1716 2497 
L 2322 2497 
Q 2547 3000 2656 3353 
z
M 6009 3531 
L 5422 3531 
L 5422 244 
Q 5422 19 5315 -112 
Q 5209 -244 5075 -286 
Q 4941 -328 4528 -328 
Q 4309 -328 4122 -313 
L 3994 19 
Q 4328 0 4831 0 
Q 5094 0 5094 269 
L 5094 3531 
L 3694 3531 
L 3694 3853 
L 5094 3853 
L 5094 5247 
L 5422 5247 
L 5422 3853 
L 6009 3853 
L 6009 3531 
z
M 3725 4934 
Q 3516 4350 3219 3903 
L 2950 4072 
Q 3309 4656 3425 5063 
L 3725 4934 
z
M 1197 4044 
L 909 3909 
Q 766 4428 506 4891 
L 775 5025 
Q 1038 4572 1197 4044 
z
M 4653 1388 
L 4341 1234 
Q 4109 1997 3694 2753 
L 3969 2913 
Q 4325 2319 4653 1388 
z
" transform="scale(0.015625)"/>
      <path id="MicrosoftJhengHeiRegular-6bd4" d="M 6009 1556 
Q 6009 1166 5948 714 
Q 5888 263 5820 131 
Q 5753 0 5609 -111 
Q 5466 -222 4983 -233 
Q 4500 -244 4366 -244 
Q 3959 -244 3787 -226 
Q 3616 -209 3497 -71 
Q 3378 66 3378 263 
L 3378 5275 
L 3719 5275 
L 3719 3391 
L 5791 3391 
L 5791 3053 
L 3719 3053 
L 3719 288 
Q 3719 184 3795 140 
Q 3872 97 4438 97 
Q 5050 97 5294 125 
Q 5538 153 5600 573 
Q 5663 994 5663 1663 
L 6009 1556 
z
M 3047 581 
Q 1769 -13 794 -347 
L 641 25 
Q 738 116 738 213 
L 738 5275 
L 1081 5275 
L 1081 3391 
L 2950 3391 
L 2950 3053 
L 1081 3053 
L 1081 128 
Q 1753 341 2950 922 
L 3047 581 
z
" transform="scale(0.015625)"/>
      <path id="MicrosoftJhengHeiRegular-2d" d="M 2328 1722 
L 488 1722 
L 488 2138 
L 2328 2138 
L 2328 1722 
z
" transform="scale(0.015625)"/>
      <path id="MicrosoftJhengHeiRegular-9ad8" d="M 5913 4391 
L 525 4391 
L 525 4697 
L 3059 4697 
Q 3034 4881 2875 5209 
L 3200 5313 
Q 3309 5094 3406 4697 
L 5913 4697 
L 5913 4391 
z
M 5013 2766 
L 1428 2766 
L 1428 3981 
L 5013 3981 
L 5013 2766 
z
M 4659 3078 
L 4659 3659 
L 1772 3659 
L 1772 3078 
L 4659 3078 
z
M 5638 178 
Q 5638 -47 5522 -184 
Q 5406 -322 4966 -322 
Q 4822 -322 4616 -313 
L 4506 19 
Q 4894 3 5025 3 
Q 5306 3 5306 238 
L 5306 2016 
L 1147 2016 
L 1147 -319 
L 819 -319 
L 819 2338 
L 5638 2338 
L 5638 178 
z
M 4531 331 
L 1906 331 
L 1906 1581 
L 4531 1581 
L 4531 331 
z
M 4191 641 
L 4191 1269 
L 2253 1269 
L 2253 641 
L 4191 641 
z
" transform="scale(0.015625)"/>
      <path id="MicrosoftJhengHeiRegular-65af" d="M 3450 4238 
L 2994 4238 
L 2994 1606 
L 3438 1606 
L 3438 1294 
L 441 1294 
L 441 1606 
L 997 1606 
L 997 4238 
L 538 4238 
L 538 4544 
L 997 4544 
L 997 5275 
L 1319 5275 
L 1319 4544 
L 2669 4544 
L 2669 5275 
L 2994 5275 
L 2994 4544 
L 3450 4544 
L 3450 4238 
z
M 2669 3616 
L 2669 4238 
L 1319 4238 
L 1319 3616 
L 2669 3616 
z
M 2669 2625 
L 2669 3291 
L 1319 3291 
L 1319 2625 
L 2669 2625 
z
M 2669 1606 
L 2669 2303 
L 1319 2303 
L 1319 1606 
L 2669 1606 
z
M 5997 2925 
L 5288 2925 
L 5288 -319 
L 4959 -319 
L 4959 2925 
L 4097 2925 
Q 4131 794 3366 -325 
L 3059 -147 
Q 3788 891 3788 2741 
L 3788 4744 
Q 4863 4875 5716 5259 
L 5919 4991 
Q 5075 4622 4109 4475 
L 4109 3244 
L 5997 3244 
L 5997 2925 
z
M 1650 891 
Q 1200 169 697 -300 
L 416 -56 
Q 931 334 1375 1081 
L 1650 891 
z
M 3009 250 
L 2725 72 
Q 2559 450 2188 884 
L 2450 1050 
Q 2825 631 3009 250 
z
" transform="scale(0.015625)"/>
      <path id="MicrosoftJhengHeiRegular-96dc" d="M 6003 -44 
L 3922 -44 
L 3922 -319 
L 3609 -319 
L 3609 3284 
Q 3522 3109 3372 2900 
L 3156 3156 
Q 3769 4122 4025 5319 
L 4325 5209 
Q 4228 4763 4013 4159 
L 4959 4159 
Q 4822 4647 4641 5094 
L 4947 5216 
Q 5119 4759 5281 4159 
L 5919 4159 
L 5919 3853 
L 5119 3853 
L 5119 2913 
L 5900 2913 
L 5900 2613 
L 5119 2613 
L 5119 1613 
L 5900 1613 
L 5900 1313 
L 5119 1313 
L 5119 275 
L 6003 275 
L 6003 -44 
z
M 4800 2913 
L 4800 3853 
L 3922 3853 
L 3922 2913 
L 4800 2913 
z
M 4800 1613 
L 4800 2613 
L 3922 2613 
L 3922 1613 
L 4800 1613 
z
M 4800 275 
L 4800 1313 
L 3922 1313 
L 3922 275 
L 4800 275 
z
M 3256 4416 
L 525 4416 
L 525 4716 
L 1778 4716 
Q 1716 4856 1538 5172 
L 1825 5313 
Q 1981 5056 2113 4716 
L 3256 4716 
L 3256 4416 
z
M 1753 3244 
L 1575 2981 
Q 1356 3228 1228 3316 
Q 975 2838 728 2572 
L 481 2753 
Q 1003 3350 1241 4231 
L 1538 4134 
Q 1481 3897 1356 3603 
Q 1591 3416 1753 3244 
z
M 3072 2944 
L 2859 2688 
Q 2572 3097 2369 3297 
Q 2247 3034 1972 2644 
L 1709 2803 
Q 2134 3381 2400 4225 
L 2688 4134 
Q 2613 3897 2491 3578 
Q 2809 3294 3072 2944 
z
M 3256 1747 
L 2053 1747 
L 2053 1472 
Q 2797 981 3181 609 
L 2975 331 
Q 2456 856 2053 1113 
L 2053 -319 
L 1734 -319 
L 1734 1241 
Q 1272 681 609 178 
L 403 434 
Q 1319 1106 1703 1747 
L 441 1747 
L 441 2059 
L 1734 2059 
L 1734 2463 
L 2053 2463 
L 2053 2059 
L 3256 2059 
L 3256 1747 
z
" transform="scale(0.015625)"/>
      <path id="MicrosoftJhengHeiRegular-8a0a" d="M 2541 4300 
L 416 4300 
L 416 4616 
L 1409 4616 
Q 1322 4853 1131 5191 
L 1422 5331 
Q 1613 4994 1753 4616 
L 2541 4616 
L 2541 4300 
z
M 6181 1119 
Q 6113 506 5942 106 
Q 5772 -294 5556 -294 
Q 5222 -294 5100 376 
Q 4978 1047 4978 1491 
L 4978 4788 
L 3700 4788 
L 3700 2778 
L 4709 2778 
L 4709 2472 
L 3700 2472 
L 3700 -341 
L 3366 -341 
L 3366 2472 
L 2625 2472 
L 2625 2778 
L 3366 2778 
L 3366 4788 
L 2675 4788 
L 2675 5094 
L 5306 5094 
L 5306 1716 
Q 5306 891 5404 475 
Q 5503 59 5547 59 
Q 5591 59 5709 465 
Q 5828 872 5869 1300 
L 6181 1119 
z
M 2356 3366 
L 569 3366 
L 569 3681 
L 2356 3681 
L 2356 3366 
z
M 2338 2450 
L 569 2450 
L 569 2753 
L 2338 2753 
L 2338 2450 
z
M 2338 -225 
L 1997 -225 
L 1997 159 
L 959 159 
L 959 -325 
L 622 -325 
L 622 1819 
L 2338 1819 
L 2338 -225 
z
M 1997 469 
L 1997 1503 
L 959 1503 
L 959 469 
L 1997 469 
z
" transform="scale(0.015625)"/>
      <path id="MicrosoftJhengHeiRegular-42" d="M 641 0 
L 641 4841 
L 1994 4841 
Q 2597 4841 2965 4537 
Q 3334 4234 3334 3734 
Q 3334 3328 3117 3022 
Q 2900 2716 2503 2581 
L 2503 2569 
Q 2988 2522 3283 2206 
Q 3578 1891 3578 1388 
Q 3578 772 3136 386 
Q 2694 0 2019 0 
L 641 0 
z
M 1172 4347 
L 1172 2756 
L 1759 2756 
Q 2241 2756 2509 2986 
Q 2778 3216 2778 3628 
Q 2778 4347 1841 4347 
L 1172 4347 
z
M 1172 2266 
L 1172 494 
L 1956 494 
Q 2456 494 2739 733 
Q 3022 972 3022 1394 
Q 3022 2266 1828 2266 
L 1172 2266 
z
" transform="scale(0.015625)"/>
     </defs>
     <use xlink:href="#MicrosoftJhengHeiRegular-4e0d"/>
     <use xlink:href="#MicrosoftJhengHeiRegular-540c" x="100"/>
     <use xlink:href="#MicrosoftJhengHeiRegular-6a21" x="200"/>
     <use xlink:href="#MicrosoftJhengHeiRegular-578b" x="300"/>
     <use xlink:href="#MicrosoftJhengHeiRegular-7684" x="400"/>
     <use xlink:href="#MicrosoftJhengHeiRegular-5206" x="500"/>
     <use xlink:href="#MicrosoftJhengHeiRegular-985e" x="600"/>
     <use xlink:href="#MicrosoftJhengHeiRegular-6e96" x="700"/>
     <use xlink:href="#MicrosoftJhengHeiRegular-78ba" x="800"/>
     <use xlink:href="#MicrosoftJhengHeiRegular-5ea6" x="900"/>
     <use xlink:href="#MicrosoftJhengHeiRegular-5c0d" x="1000"/>
     <use xlink:href="#MicrosoftJhengHeiRegular-6bd4" x="1100"/>
     <use xlink:href="#MicrosoftJhengHeiRegular-20" x="1200"/>
     <use xlink:href="#MicrosoftJhengHeiRegular-2d" x="1225"/>
     <use xlink:href="#MicrosoftJhengHeiRegular-20" x="1268.164062"/>
     <use xlink:href="#MicrosoftJhengHeiRegular-9ad8" x="1293.164062"/>
     <use xlink:href="#MicrosoftJhengHeiRegular-65af" x="1393.164062"/>
     <use xlink:href="#MicrosoftJhengHeiRegular-96dc" x="1493.164062"/>
     <use xlink:href="#MicrosoftJhengHeiRegular-8a0a" x="1593.164062"/>
     <use xlink:href="#MicrosoftJhengHeiRegular-20" x="1693.164062"/>
     <use xlink:href="#MicrosoftJhengHeiRegular-34" x="1718.164062"/>
     <use xlink:href="#MicrosoftJhengHeiRegular-64" x="1776.123047"/>
     <use xlink:href="#MicrosoftJhengHeiRegular-42" x="1839.501953"/>
    </g>
   </g>
   <g id="legend_1">
    <g id="patch_13">
     <path d="M 346.340312 61.751875 
L 438.340312 61.751875 
Q 440.340312 61.751875 440.340312 59.751875 
L 440.340312 29.7925 
Q 440.340312 27.7925 438.340312 27.7925 
L 346.340312 27.7925 
Q 344.340312 27.7925 344.340312 29.7925 
L 344.340312 59.751875 
Q 344.340312 61.751875 346.340312 61.751875 
z
" style="fill: #ffffff; opacity: 0.8; stroke: #cccccc; stroke-linejoin: miter"/>
    </g>
    <g id="patch_14">
     <path d="M 348.340312 39.78625 
L 368.340312 39.78625 
L 368.340312 32.78625 
L 348.340312 32.78625 
z
" style="fill: #1f77b4"/>
    </g>
    <g id="text_12">
     <!-- 建築物準確率 -->
     <g transform="translate(376.340312 39.78625) scale(0.1 -0.1)">
      <defs>
       <path id="MicrosoftJhengHeiRegular-5efa" d="M 5959 3559 
L 5503 3559 
L 5503 2650 
L 4044 2650 
L 4044 2119 
L 5631 2119 
L 5631 1806 
L 4044 1806 
L 4044 1281 
L 5850 1281 
L 5850 966 
L 4044 966 
L 4044 331 
L 3725 331 
L 3725 966 
L 2138 966 
L 2138 1281 
L 3725 1281 
L 3725 1806 
L 2381 1806 
L 2381 2119 
L 3725 2119 
L 3725 2650 
L 2503 2650 
L 2503 2969 
L 3725 2969 
L 3725 3559 
L 2144 3559 
L 2144 3884 
L 3725 3884 
L 3725 4441 
L 2509 4441 
L 2509 4756 
L 3725 4756 
L 3725 5234 
L 4044 5234 
L 4044 4756 
L 5503 4756 
L 5503 3884 
L 5959 3884 
L 5959 3559 
z
M 5178 3884 
L 5178 4428 
L 4044 4428 
L 4044 3884 
L 5178 3884 
z
M 5178 2969 
L 5178 3559 
L 4044 3559 
L 4044 2969 
L 5178 2969 
z
M 6009 91 
L 5931 -250 
Q 5353 -266 4831 -266 
Q 3703 -266 3223 -208 
Q 2744 -150 2276 14 
Q 1809 178 1447 550 
Q 991 -25 581 -347 
L 353 -84 
Q 831 291 1203 800 
Q 847 1281 603 2059 
L 903 2181 
Q 1084 1503 1381 1113 
Q 1719 1813 1759 2753 
L 575 2753 
L 575 3053 
Q 1169 3800 1759 4775 
L 447 4775 
L 447 5094 
L 2119 5094 
L 2119 4775 
Q 1534 3791 997 3078 
L 2106 3078 
Q 2044 1666 1613 838 
Q 1916 528 2295 353 
Q 2675 178 3106 123 
Q 3538 69 4806 69 
Q 5438 69 6009 91 
z
" transform="scale(0.015625)"/>
       <path id="MicrosoftJhengHeiRegular-7bc9" d="M 3206 4525 
L 1409 4525 
Q 1128 4156 716 3809 
L 428 4006 
Q 1113 4544 1556 5325 
L 1875 5209 
Q 1763 5013 1631 4831 
L 3206 4831 
L 3206 4525 
z
M 6003 4525 
L 4044 4525 
Q 3659 4072 3309 3816 
L 3016 4013 
Q 3738 4544 4197 5300 
L 4506 5172 
Q 4391 4978 4275 4831 
L 6003 4831 
L 6003 4525 
z
M 2553 3928 
L 2266 3781 
Q 2047 4113 1856 4294 
L 2150 4434 
Q 2434 4144 2553 3928 
z
M 5125 3872 
L 4831 3738 
Q 4659 4088 4475 4294 
L 4781 4409 
Q 5019 4150 5125 3872 
z
M 2888 3359 
L 1966 3359 
L 1966 2425 
Q 2294 2478 2881 2631 
L 2881 2316 
Q 1688 2038 653 1869 
L 563 2163 
L 1625 2356 
L 1625 3359 
L 691 3359 
L 691 3669 
L 2888 3669 
L 2888 3359 
z
M 6016 2759 
Q 6016 2397 5870 2209 
Q 5725 2022 5350 2022 
Q 4831 2022 4831 2388 
L 4831 3347 
L 4213 3347 
Q 4169 2941 4044 2700 
Q 4291 2553 4594 2278 
L 4372 2081 
Q 4131 2291 3872 2463 
Q 3584 2159 3219 2009 
L 2950 2247 
Q 3388 2413 3609 2631 
Q 3300 2822 3097 2919 
L 3316 3144 
Q 3531 3038 3775 2881 
Q 3875 3088 3884 3347 
L 3188 3347 
L 3188 3647 
L 5159 3647 
L 5159 2444 
Q 5159 2338 5378 2338 
Q 5575 2338 5633 2484 
Q 5691 2631 5691 2869 
L 6016 2759 
z
M 5991 1288 
L 3378 1288 
L 3378 -319 
L 3034 -319 
L 3034 1288 
L 428 1288 
L 428 1588 
L 3034 1588 
L 3034 1881 
L 3378 1881 
L 3378 1588 
L 5991 1588 
L 5991 1288 
z
M 2516 763 
Q 1813 269 666 -178 
L 434 109 
Q 1541 494 2284 991 
L 2516 763 
z
M 6028 44 
L 5806 -206 
Q 5050 294 3975 716 
L 4206 978 
Q 5284 528 6028 44 
z
" transform="scale(0.015625)"/>
       <path id="MicrosoftJhengHeiRegular-7269" d="M 5856 4359 
Q 5850 2981 5772 1659 
Q 5694 338 5603 116 
Q 5513 -106 5327 -228 
Q 5141 -350 4669 -350 
Q 4434 -350 4184 -325 
L 4063 0 
Q 4344 -31 4606 -31 
Q 5019 -31 5150 55 
Q 5281 141 5334 317 
Q 5388 494 5458 1684 
Q 5528 2875 5528 4050 
L 5141 4050 
Q 4881 1434 3084 -103 
L 2816 109 
Q 4616 1556 4831 4050 
L 4325 4050 
Q 3984 2334 2803 1147 
L 2541 1338 
Q 3713 2494 4006 4050 
L 3488 4050 
Q 3125 3284 2784 2888 
L 2516 3072 
Q 3219 3872 3553 5288 
L 3859 5228 
Q 3719 4650 3609 4359 
L 5856 4359 
z
M 2681 2125 
Q 2266 1922 1953 1797 
L 1953 -331 
L 1631 -331 
L 1631 1672 
Q 1022 1422 538 1281 
L 453 1606 
Q 1100 1791 1631 2009 
L 1631 3634 
L 1081 3634 
Q 959 2978 769 2516 
L 475 2638 
Q 875 3681 922 4775 
L 1228 4722 
Q 1209 4372 1131 3950 
L 1631 3950 
L 1631 5281 
L 1953 5281 
L 1953 3950 
L 2619 3950 
L 2619 3634 
L 1953 3634 
L 1953 2144 
Q 2306 2278 2681 2472 
L 2681 2125 
z
" transform="scale(0.015625)"/>
      </defs>
      <use xlink:href="#MicrosoftJhengHeiRegular-5efa"/>
      <use xlink:href="#MicrosoftJhengHeiRegular-7bc9" x="100"/>
      <use xlink:href="#MicrosoftJhengHeiRegular-7269" x="200"/>
      <use xlink:href="#MicrosoftJhengHeiRegular-6e96" x="300"/>
      <use xlink:href="#MicrosoftJhengHeiRegular-78ba" x="400"/>
      <use xlink:href="#MicrosoftJhengHeiRegular-7387" x="500"/>
     </g>
    </g>
    <g id="patch_15">
     <path d="M 348.340312 55.265937 
L 368.340312 55.265937 
L 368.340312 48.265937 
L 348.340312 48.265937 
z
" style="fill: #ff7f0e"/>
    </g>
    <g id="text_13">
     <!-- 樓層準確率 -->
     <g transform="translate(376.340312 55.265937) scale(0.1 -0.1)">
      <defs>
       <path id="MicrosoftJhengHeiRegular-6a13" d="M 6000 1150 
L 4997 1150 
Q 4806 794 4497 481 
Q 5438 106 5797 -81 
L 5609 -341 
Q 4784 66 4219 253 
Q 3409 -281 2188 -322 
L 2022 0 
Q 3141 -22 3859 378 
Q 3444 534 2606 738 
Q 2859 938 3078 1150 
L 2181 1150 
L 2181 1447 
L 3328 1447 
Q 3506 1606 3731 1875 
L 2553 1875 
L 2553 2922 
L 3931 2922 
L 3931 3234 
L 2641 3234 
L 2641 3972 
L 2200 3972 
L 2200 4263 
L 2641 4263 
L 2641 4975 
L 3931 4975 
L 3931 5288 
L 4259 5288 
L 4259 4975 
L 5569 4975 
L 5569 4263 
L 6000 4263 
L 6000 3972 
L 5569 3972 
L 5569 3234 
L 4259 3234 
L 4259 2922 
L 5634 2922 
L 5634 1875 
L 4138 1875 
Q 3997 1725 3734 1447 
L 4788 1447 
Q 4847 1553 4903 1697 
L 5209 1622 
Q 5191 1534 5138 1447 
L 6000 1447 
L 6000 1150 
z
M 2263 2488 
L 2003 2291 
Q 1803 2713 1544 3072 
L 1544 -303 
L 1222 -303 
L 1222 2741 
Q 878 1809 619 1450 
L 403 1719 
Q 956 2609 1222 3663 
L 503 3663 
L 503 3984 
L 1222 3984 
L 1222 5288 
L 1544 5288 
L 1544 3984 
L 2003 3984 
L 2003 3663 
L 1544 3663 
L 1544 3528 
Q 1988 3034 2263 2488 
z
M 5238 4263 
L 5238 4691 
L 4259 4691 
L 4259 4263 
L 5238 4263 
z
M 5238 3522 
L 5238 3972 
L 4259 3972 
L 4259 3522 
L 5238 3522 
z
M 3931 4263 
L 3931 4691 
L 2963 4691 
L 2963 4263 
L 3931 4263 
z
M 3931 3522 
L 3931 3972 
L 2963 3972 
L 2963 3522 
L 3931 3522 
z
M 5313 2159 
L 5313 2631 
L 4259 2631 
L 4259 2159 
L 5313 2159 
z
M 3931 2159 
L 3931 2631 
L 2878 2631 
L 2878 2159 
L 3931 2159 
z
M 4631 1150 
L 3494 1150 
Q 3381 1047 3178 878 
Q 3672 756 4156 594 
Q 4459 866 4631 1150 
z
" transform="scale(0.015625)"/>
       <path id="MicrosoftJhengHeiRegular-5c64" d="M 5684 3928 
L 1247 3928 
Q 1247 1969 1098 1100 
Q 950 231 703 -294 
L 434 -72 
Q 641 375 778 1145 
Q 916 1916 916 3525 
L 916 5113 
L 5684 5113 
L 5684 3928 
z
M 5356 4231 
L 5356 4800 
L 1247 4800 
L 1247 4231 
L 5356 4231 
z
M 3097 3469 
L 2797 3322 
Q 2572 3547 2363 3694 
L 2669 3841 
Q 2934 3634 3097 3469 
z
M 4884 3659 
Q 4722 3506 4366 3309 
L 4091 3506 
Q 4372 3641 4616 3834 
L 4884 3659 
z
M 5606 1888 
L 1650 1888 
L 1650 3250 
L 5606 3250 
L 5606 1888 
z
M 5281 2188 
L 5281 2950 
L 3781 2950 
L 3781 2188 
L 5281 2188 
z
M 4909 2719 
Q 4772 2525 4459 2253 
L 4213 2413 
Q 4509 2672 4653 2859 
L 4909 2719 
z
M 3456 2188 
L 3456 2950 
L 1984 2950 
L 1984 2188 
L 3456 2188 
z
M 3009 2413 
L 2759 2247 
Q 2563 2513 2356 2694 
L 2619 2859 
Q 2822 2678 3009 2413 
z
M 5416 -313 
L 5081 -313 
L 5081 -25 
L 2209 -25 
L 2209 -313 
L 1881 -313 
L 1881 1600 
L 5416 1600 
L 5416 -313 
z
M 5081 966 
L 5081 1294 
L 2209 1294 
L 2209 966 
L 5081 966 
z
M 5081 275 
L 5081 672 
L 2209 672 
L 2209 275 
L 5081 275 
z
" transform="scale(0.015625)"/>
      </defs>
      <use xlink:href="#MicrosoftJhengHeiRegular-6a13"/>
      <use xlink:href="#MicrosoftJhengHeiRegular-5c64" x="100"/>
      <use xlink:href="#MicrosoftJhengHeiRegular-6e96" x="200"/>
      <use xlink:href="#MicrosoftJhengHeiRegular-78ba" x="300"/>
      <use xlink:href="#MicrosoftJhengHeiRegular-7387" x="400"/>
     </g>
    </g>
   </g>
  </g>
 </g>
 <defs>
  <clipPath id="pfa06e9c015">
   <rect x="40.270313" y="22.7925" width="405.07" height="254.496171"/>
  </clipPath>
 </defs>
</svg>
