<?xml version="1.0" encoding="utf-8" standalone="no"?>
<!DOCTYPE svg PUBLIC "-//W3C//DTD SVG 1.1//EN"
  "http://www.w3.org/Graphics/SVG/1.1/DTD/svg11.dtd">
<svg xmlns:xlink="http://www.w3.org/1999/xlink" width="1000.309937pt" height="566.231875pt" viewBox="0 0 1000.309937 566.231875" xmlns="http://www.w3.org/2000/svg" version="1.1">
 <metadata>
  <rdf:RDF xmlns:dc="http://purl.org/dc/elements/1.1/" xmlns:cc="http://creativecommons.org/ns#" xmlns:rdf="http://www.w3.org/1999/02/22-rdf-syntax-ns#">
   <cc:Work>
    <dc:type rdf:resource="http://purl.org/dc/dcmitype/StillImage"/>
    <dc:date>2025-09-02T17:35:34.968825</dc:date>
    <dc:format>image/svg+xml</dc:format>
    <dc:creator>
     <cc:Agent>
      <dc:title>Matplotlib v3.7.1, https://matplotlib.org/</dc:title>
     </cc:Agent>
    </dc:creator>
   </cc:Work>
  </rdf:RDF>
 </metadata>
 <defs>
  <style type="text/css">*{stroke-linejoin: round; stroke-linecap: butt}</style>
 </defs>
 <g id="figure_1">
  <g id="patch_1">
   <path d="M 0 566.231875 
L 1000.309937 566.231875 
L 1000.309937 0 
L 0 0 
z
" style="fill: #ffffff"/>
  </g>
  <g id="axes_1">
   <g id="patch_2">
    <path d="M 46.065625 527.0725 
L 836.195625 527.0725 
L 836.195625 22.7925 
L 46.065625 22.7925 
z
" style="fill: #ffffff"/>
   </g>
   <g id="matplotlib.axis_1">
    <g id="xtick_1">
     <g id="line2d_1">
      <path d="M 46.065625 527.0725 
L 46.065625 22.7925 
" clip-path="url(#pcbcde1756a)" style="fill: none; stroke: #b0b0b0; stroke-opacity: 0.3; stroke-width: 0.8; stroke-linecap: square"/>
     </g>
     <g id="line2d_2">
      <defs>
       <path id="m037d5c3d11" d="M 0 0 
L 0 3.5 
" style="stroke: #000000; stroke-width: 0.8"/>
      </defs>
      <g>
       <use xlink:href="#m037d5c3d11" x="46.065625" y="527.0725" style="stroke: #000000; stroke-width: 0.8"/>
      </g>
     </g>
     <g id="text_1">
      <!-- 0.0 -->
      <g transform="translate(39.117969 542.06625) scale(0.1 -0.1)">
       <defs>
        <path id="MicrosoftJhengHeiRegular-30" d="M 294 2322 
Q 294 3603 711 4262 
Q 1128 4922 1916 4922 
Q 3425 4922 3425 2441 
Q 3425 1234 3011 576 
Q 2597 -81 1806 -81 
Q 1069 -81 681 550 
Q 294 1181 294 2322 
z
M 825 2350 
Q 825 363 1863 363 
Q 2891 363 2891 2378 
Q 2891 4475 1888 4475 
Q 825 4475 825 2350 
z
" transform="scale(0.015625)"/>
        <path id="MicrosoftJhengHeiRegular-2e" d="M 375 291 
Q 375 444 484 551 
Q 594 659 738 659 
Q 888 659 994 551 
Q 1100 444 1100 291 
Q 1100 141 992 33 
Q 884 -75 738 -75 
Q 594 -75 484 29 
Q 375 134 375 291 
z
" transform="scale(0.015625)"/>
       </defs>
       <use xlink:href="#MicrosoftJhengHeiRegular-30"/>
       <use xlink:href="#MicrosoftJhengHeiRegular-2e" x="57.958984"/>
       <use xlink:href="#MicrosoftJhengHeiRegular-30" x="81.005859"/>
      </g>
     </g>
    </g>
    <g id="xtick_2">
     <g id="line2d_3">
      <path d="M 149.077607 527.0725 
L 149.077607 22.7925 
" clip-path="url(#pcbcde1756a)" style="fill: none; stroke: #b0b0b0; stroke-opacity: 0.3; stroke-width: 0.8; stroke-linecap: square"/>
     </g>
     <g id="line2d_4">
      <g>
       <use xlink:href="#m037d5c3d11" x="149.077607" y="527.0725" style="stroke: #000000; stroke-width: 0.8"/>
      </g>
     </g>
     <g id="text_2">
      <!-- 2.5 -->
      <g transform="translate(142.12995 542.06625) scale(0.1 -0.1)">
       <defs>
        <path id="MicrosoftJhengHeiRegular-32" d="M 3219 0 
L 322 0 
L 322 472 
L 1731 1891 
Q 2431 2597 2592 2914 
Q 2753 3231 2753 3588 
Q 2753 4016 2511 4247 
Q 2269 4478 1816 4478 
Q 1169 4478 572 3919 
L 572 4475 
Q 1131 4922 1884 4922 
Q 2509 4922 2886 4575 
Q 3263 4228 3263 3634 
Q 3263 3178 3014 2736 
Q 2766 2294 2075 1603 
L 947 488 
L 947 475 
L 3219 475 
L 3219 0 
z
" transform="scale(0.015625)"/>
        <path id="MicrosoftJhengHeiRegular-35" d="M 553 684 
Q 1047 363 1559 363 
Q 2072 363 2394 658 
Q 2716 953 2716 1441 
Q 2716 1931 2394 2200 
Q 2072 2469 1466 2469 
Q 1275 2469 706 2431 
L 706 4841 
L 3025 4841 
L 3025 4366 
L 1203 4366 
L 1203 2916 
Q 1475 2931 1616 2931 
Q 2378 2931 2811 2548 
Q 3244 2166 3244 1472 
Q 3244 750 2775 334 
Q 2306 -81 1544 -81 
Q 875 -81 553 119 
L 553 684 
z
" transform="scale(0.015625)"/>
       </defs>
       <use xlink:href="#MicrosoftJhengHeiRegular-32"/>
       <use xlink:href="#MicrosoftJhengHeiRegular-2e" x="57.958984"/>
       <use xlink:href="#MicrosoftJhengHeiRegular-35" x="81.005859"/>
      </g>
     </g>
    </g>
    <g id="xtick_3">
     <g id="line2d_5">
      <path d="M 252.089588 527.0725 
L 252.089588 22.7925 
" clip-path="url(#pcbcde1756a)" style="fill: none; stroke: #b0b0b0; stroke-opacity: 0.3; stroke-width: 0.8; stroke-linecap: square"/>
     </g>
     <g id="line2d_6">
      <g>
       <use xlink:href="#m037d5c3d11" x="252.089588" y="527.0725" style="stroke: #000000; stroke-width: 0.8"/>
      </g>
     </g>
     <g id="text_3">
      <!-- 5.0 -->
      <g transform="translate(245.141932 542.06625) scale(0.1 -0.1)">
       <use xlink:href="#MicrosoftJhengHeiRegular-35"/>
       <use xlink:href="#MicrosoftJhengHeiRegular-2e" x="57.958984"/>
       <use xlink:href="#MicrosoftJhengHeiRegular-30" x="81.005859"/>
      </g>
     </g>
    </g>
    <g id="xtick_4">
     <g id="line2d_7">
      <path d="M 355.10157 527.0725 
L 355.10157 22.7925 
" clip-path="url(#pcbcde1756a)" style="fill: none; stroke: #b0b0b0; stroke-opacity: 0.3; stroke-width: 0.8; stroke-linecap: square"/>
     </g>
     <g id="line2d_8">
      <g>
       <use xlink:href="#m037d5c3d11" x="355.10157" y="527.0725" style="stroke: #000000; stroke-width: 0.8"/>
      </g>
     </g>
     <g id="text_4">
      <!-- 7.5 -->
      <g transform="translate(348.153914 542.06625) scale(0.1 -0.1)">
       <defs>
        <path id="MicrosoftJhengHeiRegular-37" d="M 3391 4688 
L 1459 0 
L 922 0 
L 2741 4366 
L 288 4366 
L 288 4841 
L 3391 4841 
L 3391 4688 
z
" transform="scale(0.015625)"/>
       </defs>
       <use xlink:href="#MicrosoftJhengHeiRegular-37"/>
       <use xlink:href="#MicrosoftJhengHeiRegular-2e" x="57.958984"/>
       <use xlink:href="#MicrosoftJhengHeiRegular-35" x="81.005859"/>
      </g>
     </g>
    </g>
    <g id="xtick_5">
     <g id="line2d_9">
      <path d="M 458.113551 527.0725 
L 458.113551 22.7925 
" clip-path="url(#pcbcde1756a)" style="fill: none; stroke: #b0b0b0; stroke-opacity: 0.3; stroke-width: 0.8; stroke-linecap: square"/>
     </g>
     <g id="line2d_10">
      <g>
       <use xlink:href="#m037d5c3d11" x="458.113551" y="527.0725" style="stroke: #000000; stroke-width: 0.8"/>
      </g>
     </g>
     <g id="text_5">
      <!-- 10.0 -->
      <g transform="translate(448.268239 542.06625) scale(0.1 -0.1)">
       <defs>
        <path id="MicrosoftJhengHeiRegular-31" d="M 3313 0 
L 594 0 
L 594 466 
L 1694 466 
L 1694 4272 
L 566 3931 
L 566 4434 
L 2216 4950 
L 2216 466 
L 3313 466 
L 3313 0 
z
" transform="scale(0.015625)"/>
       </defs>
       <use xlink:href="#MicrosoftJhengHeiRegular-31"/>
       <use xlink:href="#MicrosoftJhengHeiRegular-30" x="57.958984"/>
       <use xlink:href="#MicrosoftJhengHeiRegular-2e" x="115.917969"/>
       <use xlink:href="#MicrosoftJhengHeiRegular-30" x="138.964844"/>
      </g>
     </g>
    </g>
    <g id="xtick_6">
     <g id="line2d_11">
      <path d="M 561.125533 527.0725 
L 561.125533 22.7925 
" clip-path="url(#pcbcde1756a)" style="fill: none; stroke: #b0b0b0; stroke-opacity: 0.3; stroke-width: 0.8; stroke-linecap: square"/>
     </g>
     <g id="line2d_12">
      <g>
       <use xlink:href="#m037d5c3d11" x="561.125533" y="527.0725" style="stroke: #000000; stroke-width: 0.8"/>
      </g>
     </g>
     <g id="text_6">
      <!-- 12.5 -->
      <g transform="translate(551.28022 542.06625) scale(0.1 -0.1)">
       <use xlink:href="#MicrosoftJhengHeiRegular-31"/>
       <use xlink:href="#MicrosoftJhengHeiRegular-32" x="57.958984"/>
       <use xlink:href="#MicrosoftJhengHeiRegular-2e" x="115.917969"/>
       <use xlink:href="#MicrosoftJhengHeiRegular-35" x="138.964844"/>
      </g>
     </g>
    </g>
    <g id="xtick_7">
     <g id="line2d_13">
      <path d="M 664.137515 527.0725 
L 664.137515 22.7925 
" clip-path="url(#pcbcde1756a)" style="fill: none; stroke: #b0b0b0; stroke-opacity: 0.3; stroke-width: 0.8; stroke-linecap: square"/>
     </g>
     <g id="line2d_14">
      <g>
       <use xlink:href="#m037d5c3d11" x="664.137515" y="527.0725" style="stroke: #000000; stroke-width: 0.8"/>
      </g>
     </g>
     <g id="text_7">
      <!-- 15.0 -->
      <g transform="translate(654.292202 542.06625) scale(0.1 -0.1)">
       <use xlink:href="#MicrosoftJhengHeiRegular-31"/>
       <use xlink:href="#MicrosoftJhengHeiRegular-35" x="57.958984"/>
       <use xlink:href="#MicrosoftJhengHeiRegular-2e" x="115.917969"/>
       <use xlink:href="#MicrosoftJhengHeiRegular-30" x="138.964844"/>
      </g>
     </g>
    </g>
    <g id="xtick_8">
     <g id="line2d_15">
      <path d="M 767.149496 527.0725 
L 767.149496 22.7925 
" clip-path="url(#pcbcde1756a)" style="fill: none; stroke: #b0b0b0; stroke-opacity: 0.3; stroke-width: 0.8; stroke-linecap: square"/>
     </g>
     <g id="line2d_16">
      <g>
       <use xlink:href="#m037d5c3d11" x="767.149496" y="527.0725" style="stroke: #000000; stroke-width: 0.8"/>
      </g>
     </g>
     <g id="text_8">
      <!-- 17.5 -->
      <g transform="translate(757.304184 542.06625) scale(0.1 -0.1)">
       <use xlink:href="#MicrosoftJhengHeiRegular-31"/>
       <use xlink:href="#MicrosoftJhengHeiRegular-37" x="57.958984"/>
       <use xlink:href="#MicrosoftJhengHeiRegular-2e" x="115.917969"/>
       <use xlink:href="#MicrosoftJhengHeiRegular-35" x="138.964844"/>
      </g>
     </g>
    </g>
    <g id="text_9">
     <!-- 位置預測誤差 (公尺) -->
     <g transform="translate(396.672813 556.545937) scale(0.1 -0.1)">
      <defs>
       <path id="MicrosoftJhengHeiRegular-4f4d" d="M 6016 -172 
L 1900 -172 
L 1900 159 
L 3194 159 
Q 3031 1716 2478 3597 
L 2700 3719 
L 1984 3719 
L 1984 4050 
L 3884 4050 
Q 3750 4634 3500 5178 
L 3822 5288 
Q 4053 4759 4244 4050 
L 5913 4050 
L 5913 3719 
L 5269 3719 
L 5472 3641 
Q 5191 1675 4716 159 
L 6016 159 
L 6016 -172 
z
M 5125 3719 
L 2816 3719 
Q 3334 1778 3547 159 
L 4372 159 
Q 4925 1928 5125 3719 
z
M 2131 5147 
Q 2009 4856 1803 4447 
L 1594 4044 
L 1594 -325 
L 1253 -325 
L 1253 3425 
Q 966 2963 544 2456 
L 331 2772 
Q 1222 3825 1791 5269 
L 2131 5147 
z
" transform="scale(0.015625)"/>
       <path id="MicrosoftJhengHeiRegular-7f6e" d="M 5991 -184 
L 453 -184 
L 453 97 
L 1203 97 
L 1203 2803 
L 2694 2803 
L 2853 3256 
L 500 3256 
L 500 3547 
L 2956 3547 
L 3078 3969 
L 756 3969 
L 756 5119 
L 5663 5119 
L 5663 3969 
L 3425 3969 
L 3297 3547 
L 5894 3547 
L 5894 3256 
L 3194 3256 
L 3047 2803 
L 5228 2803 
L 5228 97 
L 5991 97 
L 5991 -184 
z
M 5331 4231 
L 5331 4844 
L 4147 4844 
L 4147 4231 
L 5331 4231 
z
M 3816 4231 
L 3816 4844 
L 2613 4844 
L 2613 4231 
L 3816 4231 
z
M 2278 4231 
L 2278 4844 
L 1081 4844 
L 1081 4231 
L 2278 4231 
z
M 4903 2138 
L 4903 2534 
L 1538 2534 
L 1538 2138 
L 4903 2138 
z
M 4903 1478 
L 4903 1875 
L 1538 1875 
L 1538 1478 
L 4903 1478 
z
M 4903 781 
L 4903 1222 
L 1538 1222 
L 1538 781 
L 4903 781 
z
M 4903 97 
L 4903 513 
L 1538 513 
L 1538 97 
L 4903 97 
z
" transform="scale(0.015625)"/>
       <path id="MicrosoftJhengHeiRegular-9810" d="M 6009 4794 
L 4588 4794 
Q 4519 4447 4384 4063 
L 5703 4063 
L 5703 947 
L 4031 947 
L 4231 744 
Q 3759 156 2894 -378 
L 2675 -91 
Q 3456 341 3969 947 
L 3150 947 
L 3150 4063 
L 4038 4063 
Q 4166 4381 4250 4794 
L 2925 4794 
L 2925 5119 
L 6009 5119 
L 6009 4794 
z
M 5375 3163 
L 5375 3744 
L 3475 3744 
L 3475 3163 
L 5375 3163 
z
M 5375 2234 
L 5375 2853 
L 3475 2853 
L 3475 2234 
L 5375 2234 
z
M 5375 1269 
L 5375 1931 
L 3475 1931 
L 3475 1269 
L 5375 1269 
z
M 2881 3084 
Q 2719 2138 2369 1631 
L 2081 1831 
Q 2366 2228 2478 2753 
L 1753 2753 
L 1753 122 
Q 1753 -56 1608 -197 
Q 1463 -338 703 -306 
L 609 19 
Q 1219 19 1283 26 
Q 1347 34 1397 96 
Q 1447 159 1447 213 
L 1447 2753 
L 441 2753 
L 441 3084 
L 1838 3084 
Q 1450 3513 666 4072 
L 844 4319 
Q 1059 4184 1478 3853 
Q 1991 4363 2234 4728 
L 594 4728 
L 594 5044 
L 2644 5044 
L 2644 4728 
Q 2175 4094 1734 3641 
Q 2006 3403 2150 3219 
L 2041 3084 
L 2881 3084 
z
M 5991 -78 
L 5778 -341 
Q 5194 175 4569 513 
L 4775 763 
Q 5513 338 5991 -78 
z
" transform="scale(0.015625)"/>
       <path id="MicrosoftJhengHeiRegular-6e2c" d="M 5797 128 
Q 5797 -150 5633 -242 
Q 5469 -334 5038 -334 
Q 4800 -334 4563 -319 
L 4481 0 
Q 5288 0 5383 28 
Q 5478 56 5478 225 
L 5478 5253 
L 5797 5253 
L 5797 128 
z
M 1813 4453 
L 1581 4206 
Q 1156 4666 609 5013 
L 794 5253 
Q 1409 4906 1813 4453 
z
M 3853 1075 
L 2578 1075 
L 2766 947 
Q 2406 209 1863 -353 
L 1600 -134 
Q 2138 397 2463 1075 
L 2016 1075 
L 2016 5125 
L 3853 5125 
L 3853 1075 
z
M 3541 3928 
L 3541 4813 
L 2338 4813 
L 2338 3928 
L 3541 3928 
z
M 3541 2681 
L 3541 3609 
L 2338 3609 
L 2338 2681 
L 3541 2681 
z
M 3541 1394 
L 3541 2369 
L 2338 2369 
L 2338 1394 
L 3541 1394 
z
M 4769 825 
L 4447 825 
L 4447 4844 
L 4769 4844 
L 4769 825 
z
M 1594 2803 
L 1356 2572 
Q 994 3019 403 3456 
L 622 3713 
Q 1266 3209 1594 2803 
z
M 1631 1747 
Q 1059 238 678 -325 
L 428 -109 
Q 959 753 1338 1906 
L 1631 1747 
z
M 4019 -25 
L 3744 -191 
Q 3513 350 3116 813 
L 3378 991 
Q 3816 463 4019 -25 
z
" transform="scale(0.015625)"/>
       <path id="MicrosoftJhengHeiRegular-8aa4" d="M 2463 4294 
L 441 4294 
L 441 4609 
L 1325 4609 
Q 1238 4888 1075 5222 
L 1394 5331 
Q 1591 4931 1691 4609 
L 2463 4609 
L 2463 4294 
z
M 5484 3469 
L 3572 3469 
L 3572 5131 
L 5484 5131 
L 5484 3469 
z
M 5172 3775 
L 5172 4813 
L 3891 4813 
L 3891 3775 
L 5172 3775 
z
M 6009 1394 
L 4269 1394 
Q 4038 75 2650 -313 
L 2456 -38 
Q 3716 225 3938 1394 
L 2497 1394 
L 2497 1709 
L 3988 1709 
Q 4028 1994 4050 2606 
L 2741 2606 
L 2741 4697 
L 3066 4697 
L 3066 2925 
L 5703 2925 
L 5703 1709 
L 6009 1709 
L 6009 1394 
z
M 5369 1709 
L 5369 2606 
L 4384 2606 
Q 4359 2109 4325 1709 
L 5369 1709 
z
M 2322 3366 
L 569 3366 
L 569 3681 
L 2322 3681 
L 2322 3366 
z
M 2322 2438 
L 575 2438 
L 575 2753 
L 2322 2753 
L 2322 2438 
z
M 2216 -184 
L 1894 -184 
L 1894 172 
L 959 172 
L 959 -306 
L 641 -306 
L 641 1831 
L 2216 1831 
L 2216 -184 
z
M 1894 494 
L 1894 1509 
L 959 1509 
L 959 494 
L 1894 494 
z
M 5966 -109 
L 5728 -331 
Q 5384 72 4494 775 
L 4684 1019 
Q 5438 478 5966 -109 
z
" transform="scale(0.015625)"/>
       <path id="MicrosoftJhengHeiRegular-5dee" d="M 4916 5113 
Q 4613 4759 4281 4556 
L 4006 4769 
Q 4378 5009 4634 5319 
L 4916 5113 
z
M 2566 4728 
L 2284 4538 
Q 2078 4813 1703 5106 
L 1978 5313 
Q 2378 4997 2566 4728 
z
M 5997 2138 
L 2094 2138 
Q 2009 684 678 -166 
L 434 97 
Q 1688 828 1753 2138 
L 488 2138 
L 488 2444 
L 3072 2444 
L 3072 3116 
L 878 3116 
L 878 3431 
L 3072 3431 
L 3072 4103 
L 684 4103 
L 684 4409 
L 5819 4409 
L 5819 4103 
L 3406 4103 
L 3406 3431 
L 5569 3431 
L 5569 3116 
L 3406 3116 
L 3406 2444 
L 5997 2444 
L 5997 2138 
z
M 6009 -213 
L 1684 -213 
L 1684 103 
L 3681 103 
L 3681 1131 
L 2228 1131 
L 2228 1453 
L 5703 1453 
L 5703 1131 
L 4031 1131 
L 4031 103 
L 6009 103 
L 6009 -213 
z
" transform="scale(0.015625)"/>
       <path id="MicrosoftJhengHeiRegular-20" transform="scale(0.015625)"/>
       <path id="MicrosoftJhengHeiRegular-28" d="M 1513 -1100 
Q 469 94 469 1847 
Q 469 3609 1513 4841 
L 1988 4841 
Q 925 3556 925 1853 
Q 925 159 1981 -1100 
L 1513 -1100 
z
" transform="scale(0.015625)"/>
       <path id="MicrosoftJhengHeiRegular-516c" d="M 2663 5153 
Q 2097 3406 628 2350 
L 372 2606 
Q 1781 3563 2328 5269 
L 2663 5153 
z
M 6047 2656 
L 5831 2375 
Q 4681 3125 3994 4844 
L 3566 4844 
L 3566 5191 
L 4256 5191 
Q 4819 3456 6047 2656 
z
M 5569 -213 
L 5269 -384 
Q 5069 109 4872 428 
Q 3059 -41 1269 -197 
L 1172 128 
Q 2150 1278 3041 3419 
L 3366 3278 
Q 2556 1356 1672 184 
Q 2909 272 4703 728 
Q 4416 1238 3922 1913 
L 4219 2088 
Q 5106 866 5569 -213 
z
" transform="scale(0.015625)"/>
       <path id="MicrosoftJhengHeiRegular-5c3a" d="M 6053 -31 
L 5856 -366 
Q 4309 13 3332 755 
Q 2356 1497 1797 2772 
L 1656 2772 
Q 1609 656 666 -306 
L 409 -63 
Q 1313 831 1313 3066 
L 1313 5125 
L 5581 5125 
L 5581 2772 
L 2169 2772 
Q 2891 1341 3995 739 
Q 5100 138 6053 -31 
z
M 5228 3116 
L 5228 4788 
L 1678 4788 
L 1678 3116 
L 5228 3116 
z
" transform="scale(0.015625)"/>
       <path id="MicrosoftJhengHeiRegular-29" d="M 84 -1100 
Q 1138 153 1138 1853 
Q 1138 3563 75 4841 
L 553 4841 
Q 1603 3609 1603 1847 
Q 1603 97 553 -1100 
L 84 -1100 
z
" transform="scale(0.015625)"/>
      </defs>
      <use xlink:href="#MicrosoftJhengHeiRegular-4f4d"/>
      <use xlink:href="#MicrosoftJhengHeiRegular-7f6e" x="100"/>
      <use xlink:href="#MicrosoftJhengHeiRegular-9810" x="200"/>
      <use xlink:href="#MicrosoftJhengHeiRegular-6e2c" x="300"/>
      <use xlink:href="#MicrosoftJhengHeiRegular-8aa4" x="400"/>
      <use xlink:href="#MicrosoftJhengHeiRegular-5dee" x="500"/>
      <use xlink:href="#MicrosoftJhengHeiRegular-20" x="600"/>
      <use xlink:href="#MicrosoftJhengHeiRegular-28" x="625"/>
      <use xlink:href="#MicrosoftJhengHeiRegular-516c" x="657.080078"/>
      <use xlink:href="#MicrosoftJhengHeiRegular-5c3a" x="757.080078"/>
      <use xlink:href="#MicrosoftJhengHeiRegular-29" x="857.080078"/>
     </g>
    </g>
   </g>
   <g id="matplotlib.axis_2">
    <g id="ytick_1">
     <g id="line2d_17">
      <path d="M 46.065625 527.0725 
L 836.195625 527.0725 
" clip-path="url(#pcbcde1756a)" style="fill: none; stroke: #b0b0b0; stroke-opacity: 0.3; stroke-width: 0.8; stroke-linecap: square"/>
     </g>
     <g id="line2d_18">
      <defs>
       <path id="mfb5830417b" d="M 0 0 
L -3.5 0 
" style="stroke: #000000; stroke-width: 0.8"/>
      </defs>
      <g>
       <use xlink:href="#mfb5830417b" x="46.065625" y="527.0725" style="stroke: #000000; stroke-width: 0.8"/>
      </g>
     </g>
     <g id="text_10">
      <!-- 0 -->
      <g transform="translate(33.270313 531.069375) scale(0.1 -0.1)">
       <use xlink:href="#MicrosoftJhengHeiRegular-30"/>
      </g>
     </g>
    </g>
    <g id="ytick_2">
     <g id="line2d_19">
      <path d="M 46.065625 426.2165 
L 836.195625 426.2165 
" clip-path="url(#pcbcde1756a)" style="fill: none; stroke: #b0b0b0; stroke-opacity: 0.3; stroke-width: 0.8; stroke-linecap: square"/>
     </g>
     <g id="line2d_20">
      <g>
       <use xlink:href="#mfb5830417b" x="46.065625" y="426.2165" style="stroke: #000000; stroke-width: 0.8"/>
      </g>
     </g>
     <g id="text_11">
      <!-- 20 -->
      <g transform="translate(27.475 430.213375) scale(0.1 -0.1)">
       <use xlink:href="#MicrosoftJhengHeiRegular-32"/>
       <use xlink:href="#MicrosoftJhengHeiRegular-30" x="57.958984"/>
      </g>
     </g>
    </g>
    <g id="ytick_3">
     <g id="line2d_21">
      <path d="M 46.065625 325.3605 
L 836.195625 325.3605 
" clip-path="url(#pcbcde1756a)" style="fill: none; stroke: #b0b0b0; stroke-opacity: 0.3; stroke-width: 0.8; stroke-linecap: square"/>
     </g>
     <g id="line2d_22">
      <g>
       <use xlink:href="#mfb5830417b" x="46.065625" y="325.3605" style="stroke: #000000; stroke-width: 0.8"/>
      </g>
     </g>
     <g id="text_12">
      <!-- 40 -->
      <g transform="translate(27.475 329.357375) scale(0.1 -0.1)">
       <defs>
        <path id="MicrosoftJhengHeiRegular-34" d="M 3472 1300 
L 2847 1300 
L 2847 0 
L 2328 0 
L 2328 1300 
L 41 1300 
L 41 1644 
L 2203 4841 
L 2847 4841 
L 2847 1731 
L 3472 1731 
L 3472 1300 
z
M 2328 1731 
L 2328 3863 
Q 2328 4084 2341 4366 
L 2328 4366 
Q 2303 4297 2144 3994 
L 622 1731 
L 2328 1731 
z
" transform="scale(0.015625)"/>
       </defs>
       <use xlink:href="#MicrosoftJhengHeiRegular-34"/>
       <use xlink:href="#MicrosoftJhengHeiRegular-30" x="57.958984"/>
      </g>
     </g>
    </g>
    <g id="ytick_4">
     <g id="line2d_23">
      <path d="M 46.065625 224.5045 
L 836.195625 224.5045 
" clip-path="url(#pcbcde1756a)" style="fill: none; stroke: #b0b0b0; stroke-opacity: 0.3; stroke-width: 0.8; stroke-linecap: square"/>
     </g>
     <g id="line2d_24">
      <g>
       <use xlink:href="#mfb5830417b" x="46.065625" y="224.5045" style="stroke: #000000; stroke-width: 0.8"/>
      </g>
     </g>
     <g id="text_13">
      <!-- 60 -->
      <g transform="translate(27.475 228.501375) scale(0.1 -0.1)">
       <defs>
        <path id="MicrosoftJhengHeiRegular-36" d="M 3138 4284 
Q 2756 4475 2347 4475 
Q 1681 4475 1297 3892 
Q 913 3309 916 2328 
L 931 2328 
Q 1266 3022 2041 3022 
Q 2675 3022 3053 2609 
Q 3431 2197 3431 1525 
Q 3431 834 3006 376 
Q 2581 -81 1922 -81 
Q 1166 -81 770 509 
Q 375 1100 375 2125 
Q 375 3353 890 4137 
Q 1406 4922 2338 4922 
Q 2844 4922 3138 4781 
L 3138 4284 
z
M 953 1584 
Q 953 1072 1226 717 
Q 1500 363 1941 363 
Q 2369 363 2631 675 
Q 2894 988 2894 1459 
Q 2894 1988 2637 2281 
Q 2381 2575 1934 2575 
Q 1525 2575 1239 2287 
Q 953 2000 953 1584 
z
" transform="scale(0.015625)"/>
       </defs>
       <use xlink:href="#MicrosoftJhengHeiRegular-36"/>
       <use xlink:href="#MicrosoftJhengHeiRegular-30" x="57.958984"/>
      </g>
     </g>
    </g>
    <g id="ytick_5">
     <g id="line2d_25">
      <path d="M 46.065625 123.6485 
L 836.195625 123.6485 
" clip-path="url(#pcbcde1756a)" style="fill: none; stroke: #b0b0b0; stroke-opacity: 0.3; stroke-width: 0.8; stroke-linecap: square"/>
     </g>
     <g id="line2d_26">
      <g>
       <use xlink:href="#mfb5830417b" x="46.065625" y="123.6485" style="stroke: #000000; stroke-width: 0.8"/>
      </g>
     </g>
     <g id="text_14">
      <!-- 80 -->
      <g transform="translate(27.475 127.645375) scale(0.1 -0.1)">
       <defs>
        <path id="MicrosoftJhengHeiRegular-38" d="M 1394 2550 
Q 519 2963 519 3731 
Q 519 4263 925 4592 
Q 1331 4922 1931 4922 
Q 2469 4922 2841 4614 
Q 3213 4306 3213 3806 
Q 3213 3000 2313 2550 
L 2313 2538 
Q 3372 2138 3372 1225 
Q 3372 606 2931 262 
Q 2491 -81 1753 -81 
Q 1150 -81 745 267 
Q 341 616 341 1178 
Q 341 2109 1394 2538 
L 1394 2550 
z
M 2672 3738 
Q 2672 4081 2455 4276 
Q 2238 4472 1878 4472 
Q 1547 4472 1303 4267 
Q 1059 4063 1059 3750 
Q 1059 3106 1856 2778 
Q 2672 3122 2672 3738 
z
M 1819 2284 
Q 878 1909 878 1203 
Q 878 813 1159 589 
Q 1441 366 1875 366 
Q 2294 366 2566 589 
Q 2838 813 2838 1181 
Q 2838 1919 1819 2284 
z
" transform="scale(0.015625)"/>
       </defs>
       <use xlink:href="#MicrosoftJhengHeiRegular-38"/>
       <use xlink:href="#MicrosoftJhengHeiRegular-30" x="57.958984"/>
      </g>
     </g>
    </g>
    <g id="ytick_6">
     <g id="line2d_27">
      <path d="M 46.065625 22.7925 
L 836.195625 22.7925 
" clip-path="url(#pcbcde1756a)" style="fill: none; stroke: #b0b0b0; stroke-opacity: 0.3; stroke-width: 0.8; stroke-linecap: square"/>
     </g>
     <g id="line2d_28">
      <g>
       <use xlink:href="#mfb5830417b" x="46.065625" y="22.7925" style="stroke: #000000; stroke-width: 0.8"/>
      </g>
     </g>
     <g id="text_15">
      <!-- 100 -->
      <g transform="translate(21.679688 26.789375) scale(0.1 -0.1)">
       <use xlink:href="#MicrosoftJhengHeiRegular-31"/>
       <use xlink:href="#MicrosoftJhengHeiRegular-30" x="57.958984"/>
       <use xlink:href="#MicrosoftJhengHeiRegular-30" x="115.917969"/>
      </g>
     </g>
    </g>
    <g id="text_16">
     <!-- 累積百分比 (%) -->
     <g transform="translate(15.19375 308.791875) rotate(-90) scale(0.1 -0.1)">
      <defs>
       <path id="MicrosoftJhengHeiRegular-7d2f" d="M 5900 1088 
L 5672 863 
Q 5428 1166 5313 1281 
Q 4000 1156 3406 1113 
L 3406 172 
Q 3406 -119 3262 -223 
Q 3119 -328 2688 -328 
Q 2556 -328 2419 -319 
L 2291 25 
Q 2463 3 2716 3 
Q 2956 3 3014 45 
Q 3072 88 3072 172 
L 3072 1081 
Q 1841 1019 844 1019 
L 728 1325 
Q 1738 1513 3138 2119 
Q 2106 2016 1338 2009 
L 1247 2278 
Q 2072 2603 2747 3059 
L 1013 3059 
L 1013 5113 
L 5472 5113 
L 5472 3059 
L 3309 3059 
Q 2581 2547 1819 2259 
L 2353 2303 
L 3541 2422 
Q 3922 2466 4025 2509 
L 4603 2791 
L 4863 2591 
Q 2978 1647 1625 1288 
Q 3359 1356 5031 1544 
Q 4778 1784 4525 1966 
L 4756 2188 
Q 5384 1734 5900 1088 
z
M 5147 4238 
L 5147 4800 
L 3397 4800 
L 3397 4238 
L 5147 4238 
z
M 3066 4238 
L 3066 4800 
L 1338 4800 
L 1338 4238 
L 3066 4238 
z
M 5147 3372 
L 5147 3938 
L 3397 3938 
L 3397 3372 
L 5147 3372 
z
M 3066 3372 
L 3066 3938 
L 1338 3938 
L 1338 3372 
L 3066 3372 
z
M 6016 38 
L 5819 -225 
Q 5069 222 3938 588 
L 4122 850 
Q 5219 497 6016 38 
z
M 2541 634 
Q 1834 181 628 -147 
L 441 134 
Q 1606 434 2259 825 
L 2541 634 
z
" transform="scale(0.015625)"/>
       <path id="MicrosoftJhengHeiRegular-7a4d" d="M 6009 3238 
L 2484 3238 
L 2484 3513 
L 4097 3513 
L 4097 3909 
L 2772 3909 
L 2772 4184 
L 4097 4184 
L 4097 4556 
L 2619 4556 
L 2619 4831 
L 4097 4831 
L 4097 5288 
L 4416 5288 
L 4416 4831 
L 5863 4831 
L 5863 4556 
L 4416 4556 
L 4416 4184 
L 5703 4184 
L 5703 3909 
L 4416 3909 
L 4416 3513 
L 6009 3513 
L 6009 3238 
z
M 2528 2113 
L 2356 1825 
Q 2016 2281 1650 2619 
L 1650 -319 
L 1319 -319 
L 1319 2484 
Q 1019 1741 622 1184 
L 378 1416 
Q 906 2163 1319 3353 
L 441 3353 
L 441 3659 
L 1319 3659 
L 1319 4628 
Q 947 4528 641 4488 
L 481 4769 
Q 1656 5006 2188 5241 
L 2400 4984 
Q 2072 4838 1650 4722 
L 1650 3659 
L 2222 3659 
L 2222 3353 
L 1650 3353 
L 1650 3028 
Q 2234 2497 2528 2113 
z
M 5644 538 
L 3769 538 
L 3922 359 
Q 3150 -100 2425 -306 
L 2247 -31 
Q 3025 203 3609 538 
L 2834 538 
L 2834 2875 
L 5644 2875 
L 5644 538 
z
M 5325 2175 
L 5325 2578 
L 3150 2578 
L 3150 2175 
L 5325 2175 
z
M 5325 1497 
L 5325 1900 
L 3150 1900 
L 3150 1497 
L 5325 1497 
z
M 5325 819 
L 5325 1228 
L 3150 1228 
L 3150 819 
L 5325 819 
z
M 5997 -50 
L 5838 -331 
Q 5331 -94 4513 116 
L 4647 409 
Q 5513 172 5997 -50 
z
" transform="scale(0.015625)"/>
       <path id="MicrosoftJhengHeiRegular-767e" d="M 6028 4775 
L 3481 4775 
Q 3213 4175 2913 3647 
L 5422 3647 
L 5422 -331 
L 5088 -331 
L 5088 103 
L 1381 103 
L 1381 -331 
L 1044 -331 
L 1044 3647 
L 2522 3647 
Q 2891 4222 3097 4775 
L 481 4775 
L 481 5106 
L 6028 5106 
L 6028 4775 
z
M 5088 2113 
L 5088 3316 
L 1381 3316 
L 1381 2113 
L 5088 2113 
z
M 5088 447 
L 5088 1778 
L 1381 1778 
L 1381 447 
L 5088 447 
z
" transform="scale(0.015625)"/>
       <path id="MicrosoftJhengHeiRegular-5206" d="M 2688 5141 
Q 1919 3378 647 2503 
L 416 2766 
Q 1650 3591 2350 5241 
L 2688 5141 
z
M 6047 2809 
L 5819 2522 
Q 4553 3422 4063 4878 
L 3584 4878 
L 3584 5222 
L 4300 5222 
Q 4778 3628 6047 2809 
z
M 5013 2894 
Q 4997 1866 4890 1047 
Q 4784 228 4681 31 
Q 4578 -166 4395 -250 
Q 4213 -334 3759 -334 
Q 3563 -334 3250 -319 
L 3175 25 
Q 3525 -6 3822 -6 
Q 4109 -6 4192 31 
Q 4275 69 4336 139 
Q 4397 209 4472 557 
Q 4547 906 4592 1420 
Q 4638 1934 4653 2553 
L 3009 2553 
Q 2794 669 897 -409 
L 691 -141 
Q 2450 847 2644 2553 
L 1434 2553 
L 1434 2894 
L 5013 2894 
z
" transform="scale(0.015625)"/>
       <path id="MicrosoftJhengHeiRegular-6bd4" d="M 6009 1556 
Q 6009 1166 5948 714 
Q 5888 263 5820 131 
Q 5753 0 5609 -111 
Q 5466 -222 4983 -233 
Q 4500 -244 4366 -244 
Q 3959 -244 3787 -226 
Q 3616 -209 3497 -71 
Q 3378 66 3378 263 
L 3378 5275 
L 3719 5275 
L 3719 3391 
L 5791 3391 
L 5791 3053 
L 3719 3053 
L 3719 288 
Q 3719 184 3795 140 
Q 3872 97 4438 97 
Q 5050 97 5294 125 
Q 5538 153 5600 573 
Q 5663 994 5663 1663 
L 6009 1556 
z
M 3047 581 
Q 1769 -13 794 -347 
L 641 25 
Q 738 116 738 213 
L 738 5275 
L 1081 5275 
L 1081 3391 
L 2950 3391 
L 2950 3053 
L 1081 3053 
L 1081 128 
Q 1753 341 2950 922 
L 3047 581 
z
" transform="scale(0.015625)"/>
       <path id="MicrosoftJhengHeiRegular-25" d="M 266 3625 
Q 266 4219 580 4566 
Q 894 4913 1425 4913 
Q 1938 4913 2223 4589 
Q 2509 4266 2509 3694 
Q 2509 3125 2192 2770 
Q 1875 2416 1356 2416 
Q 856 2416 561 2748 
Q 266 3081 266 3625 
z
M 700 3656 
Q 700 3241 886 3008 
Q 1072 2775 1391 2775 
Q 1716 2775 1897 3014 
Q 2078 3253 2078 3678 
Q 2078 4097 1898 4328 
Q 1719 4559 1403 4559 
Q 1081 4559 890 4312 
Q 700 4066 700 3656 
z
M 4578 4841 
L 1478 -38 
L 1016 -38 
L 4116 4841 
L 4578 4841 
z
M 3144 1134 
Q 3144 1725 3456 2079 
Q 3769 2434 4297 2434 
Q 4806 2434 5093 2106 
Q 5381 1778 5381 1197 
Q 5381 625 5061 275 
Q 4741 -75 4231 -75 
Q 3741 -75 3442 256 
Q 3144 588 3144 1134 
z
M 3572 1163 
Q 3572 756 3761 522 
Q 3950 288 4263 288 
Q 4588 288 4769 530 
Q 4950 772 4950 1194 
Q 4950 1616 4772 1841 
Q 4594 2066 4278 2066 
Q 3947 2066 3759 1823 
Q 3572 1581 3572 1163 
z
" transform="scale(0.015625)"/>
      </defs>
      <use xlink:href="#MicrosoftJhengHeiRegular-7d2f"/>
      <use xlink:href="#MicrosoftJhengHeiRegular-7a4d" x="100"/>
      <use xlink:href="#MicrosoftJhengHeiRegular-767e" x="200"/>
      <use xlink:href="#MicrosoftJhengHeiRegular-5206" x="300"/>
      <use xlink:href="#MicrosoftJhengHeiRegular-6bd4" x="400"/>
      <use xlink:href="#MicrosoftJhengHeiRegular-20" x="500"/>
      <use xlink:href="#MicrosoftJhengHeiRegular-28" x="525"/>
      <use xlink:href="#MicrosoftJhengHeiRegular-25" x="557.080078"/>
      <use xlink:href="#MicrosoftJhengHeiRegular-29" x="645.117188"/>
     </g>
    </g>
   </g>
   <g id="line2d_29">
    <path d="M 65.234349 524.682547 
L 65.415364 522.292595 
L 73.044219 519.902642 
L 73.112144 517.51269 
L 79.466144 515.122737 
L 81.224283 510.342832 
L 83.472736 507.952879 
L 93.111632 505.562927 
L 93.61684 503.172974 
L 94.722134 500.783021 
L 96.041922 498.393069 
L 96.820373 496.003116 
L 96.887616 493.613164 
L 100.624968 491.223211 
L 103.18832 488.833258 
L 112.579341 486.443306 
L 113.097395 484.053353 
L 115.287587 481.6634 
L 115.659573 474.493543 
L 116.912722 472.10359 
L 119.878885 469.713637 
L 121.498664 467.323685 
L 122.761175 464.933732 
L 124.218302 462.54378 
L 129.680238 460.153827 
L 131.340444 457.763874 
L 136.169815 455.373922 
L 137.348943 452.983969 
L 138.402799 450.594017 
L 140.695034 448.204064 
L 140.720843 445.814111 
L 141.9617 443.424159 
L 142.095 441.034206 
L 144.795561 438.644254 
L 146.382333 436.254301 
L 146.521059 433.864348 
L 149.545194 431.474396 
L 149.771534 429.084443 
L 153.275909 426.694491 
L 155.240177 424.304538 
L 155.747889 421.914585 
L 157.270249 417.13468 
L 158.43268 414.744727 
L 159.757654 412.354775 
L 159.981499 407.57487 
L 160.796189 405.184917 
L 162.081452 402.794964 
L 162.269496 400.405012 
L 163.176481 398.015059 
L 163.316703 393.235154 
L 165.733324 390.845201 
L 169.745985 388.455249 
L 170.404686 386.065296 
L 170.549594 381.285391 
L 170.857806 378.895438 
L 171.280279 376.505486 
L 172.604003 374.115533 
L 172.851776 371.725581 
L 174.21168 369.335628 
L 174.28634 366.945675 
L 176.160795 362.16577 
L 176.75559 359.775818 
L 177.779021 357.385865 
L 177.864324 354.995912 
L 178.463085 352.60596 
L 179.382259 350.216007 
L 179.433947 347.826055 
L 182.868134 345.436102 
L 183.356499 343.046149 
L 185.884415 340.656197 
L 186.433491 338.266244 
L 187.903143 335.876291 
L 188.172659 333.486339 
L 190.153989 331.096386 
L 190.456174 328.706434 
L 190.77584 321.536576 
L 194.324928 316.756671 
L 194.900833 314.366718 
L 195.556857 309.586813 
L 195.684422 307.19686 
L 197.4884 304.806908 
L 198.515446 302.416955 
L 199.296988 300.027002 
L 199.369479 297.63705 
L 204.275272 295.247097 
L 204.560515 292.857145 
L 204.63898 290.467192 
L 204.992071 288.077239 
L 210.313371 285.687287 
L 211.073296 283.297334 
L 212.432624 280.907382 
L 213.036275 278.517429 
L 214.750211 276.127476 
L 215.132611 273.737524 
L 217.496523 271.347571 
L 218.080879 268.957618 
L 218.173626 266.567666 
L 218.779969 264.177713 
L 219.845899 261.787761 
L 220.262556 259.397808 
L 222.910646 252.22795 
L 225.72398 249.837998 
L 226.658103 247.448045 
L 227.745054 245.058092 
L 227.816572 242.66814 
L 229.048272 240.278187 
L 229.182536 237.888235 
L 230.437782 235.498282 
L 231.225693 233.108329 
L 232.884065 230.718377 
L 233.710369 228.328424 
L 234.687966 225.938472 
L 235.09737 223.548519 
L 237.306732 218.768614 
L 238.705832 216.378661 
L 238.844783 213.988709 
L 240.255453 211.598756 
L 240.730174 209.208803 
L 241.509731 206.818851 
L 243.233754 204.428898 
L 243.538194 202.038945 
L 243.557976 199.648993 
L 244.624023 192.479135 
L 247.690365 190.089182 
L 248.366742 187.69923 
L 251.834312 185.309277 
L 252.306597 182.919325 
L 253.640336 180.529372 
L 254.068115 178.139419 
L 254.273896 175.749467 
L 254.990748 173.359514 
L 255.549118 168.579609 
L 255.66611 166.189656 
L 260.550794 161.409751 
L 260.768798 159.019799 
L 266.687214 154.239893 
L 266.6908 151.849941 
L 268.429345 149.459988 
L 269.522756 147.070036 
L 270.898142 144.680083 
L 276.376809 142.29013 
L 276.423176 139.900178 
L 277.45538 137.510225 
L 281.29991 135.120273 
L 282.93854 132.73032 
L 284.767966 130.340367 
L 289.577127 127.950415 
L 291.298211 125.560462 
L 291.980851 123.170509 
L 293.581713 120.780557 
L 294.845582 118.390604 
L 300.184901 116.000652 
L 303.975739 113.610699 
L 305.747026 111.220746 
L 306.24219 108.830794 
L 309.236528 106.440841 
L 311.437841 104.050889 
L 317.717633 101.660936 
L 319.327651 99.270983 
L 320.319215 96.881031 
L 320.837232 94.491078 
L 326.781671 92.101126 
L 338.609569 89.711173 
L 343.271808 87.32122 
L 346.983885 84.931268 
L 348.754507 82.541315 
L 350.277442 80.151363 
L 360.801803 77.76141 
L 360.970101 75.371457 
L 363.983062 72.981505 
L 365.713802 70.591552 
L 366.34694 68.2016 
L 376.266784 65.811647 
L 396.522814 63.421694 
L 398.985111 61.031742 
L 402.377892 58.641789 
L 407.472594 56.251836 
L 420.0417 53.861884 
L 429.026323 51.471931 
L 429.187914 49.081979 
L 451.953917 46.692026 
L 454.163976 44.302073 
L 475.402216 41.912121 
L 478.92616 39.522168 
L 480.39335 37.132216 
L 486.246001 34.742263 
L 499.784302 32.35231 
L 511.877423 29.962358 
L 522.412987 27.572405 
L 547.333699 25.182453 
L 646.481801 22.7925 
L 646.481801 22.7925 
" clip-path="url(#pcbcde1756a)" style="fill: none; stroke: #1f77b4; stroke-width: 2; stroke-linecap: square"/>
   </g>
   <g id="line2d_30">
    <path d="M 50.929049 524.682547 
L 52.280351 522.292595 
L 73.590108 519.902642 
L 74.487747 517.51269 
L 83.490596 515.122737 
L 84.468204 512.732784 
L 85.811163 510.342832 
L 86.389123 507.952879 
L 89.434552 505.562927 
L 89.678909 500.783021 
L 90.333667 498.393069 
L 90.843144 496.003116 
L 102.770434 493.613164 
L 105.337261 491.223211 
L 107.225423 488.833258 
L 112.936613 484.053353 
L 112.952498 481.6634 
L 115.366559 479.273448 
L 117.19683 476.883495 
L 117.427659 474.493543 
L 124.011597 472.10359 
L 124.15087 469.713637 
L 126.156498 467.323685 
L 127.614986 464.933732 
L 128.360682 462.54378 
L 128.657873 460.153827 
L 129.554865 457.763874 
L 130.171542 455.373922 
L 132.461686 452.983969 
L 132.671971 450.594017 
L 134.251346 448.204064 
L 136.409536 445.814111 
L 138.171991 443.424159 
L 140.819992 441.034206 
L 141.427935 438.644254 
L 145.463483 433.864348 
L 146.68959 429.084443 
L 147.162277 426.694491 
L 148.782011 421.914585 
L 151.54247 419.524633 
L 151.768978 417.13468 
L 152.419348 414.744727 
L 152.45248 412.354775 
L 153.413596 409.964822 
L 154.714859 407.57487 
L 155.107844 405.184917 
L 156.893549 402.794964 
L 159.983457 400.405012 
L 160.252503 398.015059 
L 160.795626 395.625107 
L 166.081584 393.235154 
L 166.635931 390.845201 
L 168.290858 388.455249 
L 168.572259 386.065296 
L 168.606904 383.675344 
L 173.964335 381.285391 
L 175.240083 378.895438 
L 178.581622 376.505486 
L 180.597859 371.725581 
L 181.205569 369.335628 
L 183.533042 366.945675 
L 184.512882 364.555723 
L 187.019914 362.16577 
L 187.322065 359.775818 
L 190.114689 352.60596 
L 193.030215 350.216007 
L 193.977141 347.826055 
L 196.535096 345.436102 
L 198.104273 343.046149 
L 199.11146 340.656197 
L 199.343231 338.266244 
L 199.882708 335.876291 
L 200.273604 333.486339 
L 201.58099 331.096386 
L 202.455271 328.706434 
L 202.750633 326.316481 
L 202.836976 323.926528 
L 203.213294 321.536576 
L 207.345751 319.146623 
L 208.1438 316.756671 
L 212.378216 314.366718 
L 213.070718 311.976765 
L 216.551315 307.19686 
L 217.793954 304.806908 
L 219.881841 302.416955 
L 219.931708 297.63705 
L 220.73433 292.857145 
L 221.44624 290.467192 
L 225.662588 288.077239 
L 227.424751 285.687287 
L 227.544981 283.297334 
L 229.049652 280.907382 
L 231.883214 278.517429 
L 233.440451 276.127476 
L 233.685584 273.737524 
L 234.100943 271.347571 
L 236.168815 268.957618 
L 237.268052 266.567666 
L 238.653857 264.177713 
L 239.30039 261.787761 
L 240.218222 259.397808 
L 241.301932 257.007855 
L 241.71744 254.617903 
L 242.899935 252.22795 
L 243.017247 249.837998 
L 243.899223 247.448045 
L 246.098263 245.058092 
L 254.056081 242.66814 
L 257.453628 240.278187 
L 257.550142 237.888235 
L 258.610168 235.498282 
L 263.185099 230.718377 
L 266.087787 228.328424 
L 267.662257 225.938472 
L 269.566349 223.548519 
L 270.336574 221.158566 
L 270.368254 218.768614 
L 271.170418 216.378661 
L 276.091381 213.988709 
L 278.500358 211.598756 
L 282.136688 209.208803 
L 284.051762 206.818851 
L 290.667054 204.428898 
L 291.292003 202.038945 
L 292.825794 199.648993 
L 293.119162 197.25904 
L 294.016045 194.869088 
L 294.464763 192.479135 
L 297.310167 187.69923 
L 299.464397 185.309277 
L 301.261772 182.919325 
L 301.584784 180.529372 
L 302.766714 178.139419 
L 306.281397 175.749467 
L 307.587088 173.359514 
L 309.00286 166.189656 
L 314.266981 163.799704 
L 314.331997 161.409751 
L 316.662738 159.019799 
L 316.684289 156.629846 
L 320.774263 154.239893 
L 323.736223 151.849941 
L 325.200565 149.459988 
L 329.70166 147.070036 
L 332.365002 144.680083 
L 333.265676 142.29013 
L 333.457602 139.900178 
L 334.375107 137.510225 
L 342.162174 135.120273 
L 342.848737 132.73032 
L 346.464043 130.340367 
L 349.107208 127.950415 
L 350.639341 125.560462 
L 350.776536 123.170509 
L 351.660029 120.780557 
L 352.407833 118.390604 
L 356.23861 116.000652 
L 357.300964 113.610699 
L 363.93541 111.220746 
L 367.079146 108.830794 
L 369.28397 106.440841 
L 374.150398 101.660936 
L 375.019422 99.270983 
L 382.804513 94.491078 
L 383.953609 92.101126 
L 384.159446 89.711173 
L 388.334613 87.32122 
L 392.838552 84.931268 
L 394.971926 82.541315 
L 394.981211 80.151363 
L 400.552524 77.76141 
L 402.814762 75.371457 
L 415.820015 72.981505 
L 451.946307 70.591552 
L 455.85013 68.2016 
L 459.027875 65.811647 
L 466.62087 63.421694 
L 484.10259 61.031742 
L 488.338673 58.641789 
L 498.063402 56.251836 
L 508.786145 53.861884 
L 514.255745 51.471931 
L 527.717637 46.692026 
L 541.679307 44.302073 
L 549.554391 41.912121 
L 568.772126 39.522168 
L 572.556647 37.132216 
L 606.076513 34.742263 
L 609.070412 32.35231 
L 731.072611 29.962358 
L 731.967818 27.572405 
L 750.798644 25.182453 
L 798.801979 22.7925 
L 798.801979 22.7925 
" clip-path="url(#pcbcde1756a)" style="fill: none; stroke: #ff7f0e; stroke-width: 2; stroke-linecap: square"/>
   </g>
   <g id="line2d_31">
    <path d="M 58.893733 524.682547 
L 61.059897 522.292595 
L 65.670255 519.902642 
L 74.843358 517.51269 
L 79.389342 515.122737 
L 83.180829 512.732784 
L 86.15945 510.342832 
L 86.600546 507.952879 
L 88.644086 505.562927 
L 89.938815 503.172974 
L 90.389147 500.783021 
L 90.597101 498.393069 
L 91.642963 496.003116 
L 95.729253 493.613164 
L 96.076024 488.833258 
L 96.83079 486.443306 
L 101.04034 484.053353 
L 101.157178 481.6634 
L 101.694005 479.273448 
L 101.741957 476.883495 
L 102.318331 474.493543 
L 103.126172 472.10359 
L 103.681495 469.713637 
L 103.801612 467.323685 
L 105.234895 464.933732 
L 108.005525 462.54378 
L 108.057926 460.153827 
L 112.22516 457.763874 
L 113.255614 455.373922 
L 117.172451 450.594017 
L 117.284861 448.204064 
L 122.308388 443.424159 
L 124.4395 441.034206 
L 125.953863 438.644254 
L 129.184825 436.254301 
L 130.596834 433.864348 
L 130.85098 431.474396 
L 131.487876 429.084443 
L 133.216721 426.694491 
L 136.320777 424.304538 
L 136.524273 421.914585 
L 139.041676 419.524633 
L 139.282906 417.13468 
L 139.724952 414.744727 
L 139.769387 412.354775 
L 140.609735 409.964822 
L 141.169492 407.57487 
L 141.613104 405.184917 
L 141.703292 402.794964 
L 142.227134 398.015059 
L 143.686186 395.625107 
L 143.99625 393.235154 
L 146.718425 390.845201 
L 147.61731 388.455249 
L 147.958518 386.065296 
L 149.018248 383.675344 
L 149.26647 381.285391 
L 150.673816 378.895438 
L 151.619897 376.505486 
L 154.454981 371.725581 
L 154.786302 369.335628 
L 154.994872 366.945675 
L 155.786957 364.555723 
L 156.094607 362.16577 
L 156.652273 359.775818 
L 156.702999 357.385865 
L 157.928794 354.995912 
L 158.039806 352.60596 
L 158.429553 350.216007 
L 159.519729 347.826055 
L 162.276754 345.436102 
L 162.731666 343.046149 
L 165.651642 340.656197 
L 165.720664 338.266244 
L 165.988778 335.876291 
L 167.519904 333.486339 
L 168.591986 331.096386 
L 169.182989 328.706434 
L 169.369286 326.316481 
L 170.959061 321.536576 
L 172.970782 319.146623 
L 174.458469 316.756671 
L 175.067158 314.366718 
L 177.346166 311.976765 
L 178.684131 309.586813 
L 179.244559 307.19686 
L 181.000025 304.806908 
L 182.1572 302.416955 
L 184.427514 300.027002 
L 185.269574 297.63705 
L 185.306306 295.247097 
L 186.531079 292.857145 
L 188.079265 290.467192 
L 188.701255 288.077239 
L 191.565964 285.687287 
L 192.149389 283.297334 
L 192.386207 280.907382 
L 193.679668 278.517429 
L 195.62548 276.127476 
L 197.172965 273.737524 
L 198.9497 271.347571 
L 200.102644 268.957618 
L 200.70019 264.177713 
L 201.701732 261.787761 
L 202.845037 259.397808 
L 202.933027 257.007855 
L 203.579869 254.617903 
L 205.223115 252.22795 
L 206.544268 247.448045 
L 206.78287 245.058092 
L 208.894716 242.66814 
L 209.386553 240.278187 
L 210.503405 237.888235 
L 210.711492 235.498282 
L 212.084966 233.108329 
L 213.323248 230.718377 
L 214.92818 228.328424 
L 215.405847 225.938472 
L 215.457343 223.548519 
L 219.88352 221.158566 
L 220.1941 216.378661 
L 220.671457 213.988709 
L 222.557678 211.598756 
L 222.848636 209.208803 
L 227.263719 206.818851 
L 227.969917 204.428898 
L 231.191225 202.038945 
L 232.876537 199.648993 
L 232.999645 197.25904 
L 234.14774 192.479135 
L 235.865136 190.089182 
L 236.914379 187.69923 
L 237.448208 182.919325 
L 238.552617 180.529372 
L 238.674826 178.139419 
L 238.969152 175.749467 
L 239.760009 173.359514 
L 244.452065 170.969562 
L 245.141635 168.579609 
L 247.564209 166.189656 
L 250.658741 163.799704 
L 252.850719 161.409751 
L 253.353217 159.019799 
L 254.682487 156.629846 
L 254.783584 154.239893 
L 257.731435 151.849941 
L 258.19759 149.459988 
L 260.190031 147.070036 
L 265.154505 144.680083 
L 265.688354 139.900178 
L 268.200151 137.510225 
L 268.207039 135.120273 
L 280.46266 132.73032 
L 281.977225 130.340367 
L 282.267941 127.950415 
L 284.15391 125.560462 
L 286.630406 123.170509 
L 288.032801 120.780557 
L 288.437763 118.390604 
L 289.22292 116.000652 
L 295.590253 113.610699 
L 297.032554 111.220746 
L 299.413294 108.830794 
L 299.42247 106.440841 
L 303.199962 104.050889 
L 308.093694 101.660936 
L 313.905759 99.270983 
L 314.213408 96.881031 
L 315.754374 94.491078 
L 316.272522 92.101126 
L 317.054898 89.711173 
L 317.149849 87.32122 
L 321.317313 84.931268 
L 321.737561 82.541315 
L 325.426446 80.151363 
L 325.840897 77.76141 
L 329.789081 75.371457 
L 334.632187 72.981505 
L 341.813599 70.591552 
L 346.377682 68.2016 
L 350.493363 65.811647 
L 351.033874 63.421694 
L 355.456954 61.031742 
L 362.719282 58.641789 
L 363.087622 56.251836 
L 367.004422 53.861884 
L 368.766014 51.471931 
L 373.602547 49.081979 
L 383.577791 46.692026 
L 388.603845 44.302073 
L 392.947497 41.912121 
L 393.252709 39.522168 
L 403.590746 37.132216 
L 412.446549 34.742263 
L 420.192312 32.35231 
L 426.748999 29.962358 
L 431.8794 27.572405 
L 579.794552 25.182453 
L 608.082436 22.7925 
L 608.082436 22.7925 
" clip-path="url(#pcbcde1756a)" style="fill: none; stroke: #2ca02c; stroke-width: 2; stroke-linecap: square"/>
   </g>
   <g id="line2d_32">
    <path d="M 87.270418 527.0725 
L 87.270418 22.7925 
" clip-path="url(#pcbcde1756a)" style="fill: none; stroke-dasharray: 5.55,2.4; stroke-dashoffset: 0; stroke: #808080; stroke-opacity: 0.5; stroke-width: 1.5"/>
   </g>
   <g id="line2d_33">
    <path d="M 128.47521 527.0725 
L 128.47521 22.7925 
" clip-path="url(#pcbcde1756a)" style="fill: none; stroke-dasharray: 5.55,2.4; stroke-dashoffset: 0; stroke: #808080; stroke-opacity: 0.5; stroke-width: 1.5"/>
   </g>
   <g id="line2d_34">
    <path d="M 169.680003 527.0725 
L 169.680003 22.7925 
" clip-path="url(#pcbcde1756a)" style="fill: none; stroke-dasharray: 5.55,2.4; stroke-dashoffset: 0; stroke: #808080; stroke-opacity: 0.5; stroke-width: 1.5"/>
   </g>
   <g id="patch_3">
    <path d="M 46.065625 527.0725 
L 46.065625 22.7925 
" style="fill: none; stroke: #000000; stroke-width: 0.8; stroke-linejoin: miter; stroke-linecap: square"/>
   </g>
   <g id="patch_4">
    <path d="M 836.195625 527.0725 
L 836.195625 22.7925 
" style="fill: none; stroke: #000000; stroke-width: 0.8; stroke-linejoin: miter; stroke-linecap: square"/>
   </g>
   <g id="patch_5">
    <path d="M 46.065625 527.0725 
L 836.195625 527.0725 
" style="fill: none; stroke: #000000; stroke-width: 0.8; stroke-linejoin: miter; stroke-linecap: square"/>
   </g>
   <g id="patch_6">
    <path d="M 46.065625 22.7925 
L 836.195625 22.7925 
" style="fill: none; stroke: #000000; stroke-width: 0.8; stroke-linejoin: miter; stroke-linecap: square"/>
   </g>
   <g id="text_17">
    <!-- 1.0m -->
    <g transform="translate(85.033074 501.8585) rotate(-90) scale(0.09 -0.09)">
     <defs>
      <path id="MicrosoftJhengHeiRegular-6d" d="M 5438 0 
L 4916 0 
L 4916 1984 
Q 4916 2588 4733 2841 
Q 4550 3094 4128 3094 
Q 3775 3094 3519 2762 
Q 3263 2431 3263 1975 
L 3263 0 
L 2744 0 
L 2744 2056 
Q 2744 3094 1941 3094 
Q 1572 3094 1330 2778 
Q 1088 2463 1088 1975 
L 1088 0 
L 566 0 
L 566 3456 
L 1088 3456 
L 1088 2909 
L 1103 2909 
Q 1466 3538 2172 3538 
Q 2509 3538 2779 3339 
Q 3050 3141 3147 2816 
Q 3531 3538 4297 3538 
Q 5438 3538 5438 2128 
L 5438 0 
z
" transform="scale(0.015625)"/>
     </defs>
     <use xlink:href="#MicrosoftJhengHeiRegular-31"/>
     <use xlink:href="#MicrosoftJhengHeiRegular-2e" x="57.958984"/>
     <use xlink:href="#MicrosoftJhengHeiRegular-30" x="81.005859"/>
     <use xlink:href="#MicrosoftJhengHeiRegular-6d" x="138.964844"/>
    </g>
   </g>
   <g id="text_18">
    <!-- 2.0m -->
    <g transform="translate(126.237867 501.8585) rotate(-90) scale(0.09 -0.09)">
     <use xlink:href="#MicrosoftJhengHeiRegular-32"/>
     <use xlink:href="#MicrosoftJhengHeiRegular-2e" x="57.958984"/>
     <use xlink:href="#MicrosoftJhengHeiRegular-30" x="81.005859"/>
     <use xlink:href="#MicrosoftJhengHeiRegular-6d" x="138.964844"/>
    </g>
   </g>
   <g id="text_19">
    <!-- 3.0m -->
    <g transform="translate(167.442659 501.8585) rotate(-90) scale(0.09 -0.09)">
     <defs>
      <path id="MicrosoftJhengHeiRegular-33" d="M 438 756 
Q 934 363 1556 363 
Q 2056 363 2370 616 
Q 2684 869 2684 1313 
Q 2684 2281 1319 2281 
L 919 2281 
L 919 2728 
L 1300 2728 
Q 2513 2728 2513 3634 
Q 2513 4475 1588 4475 
Q 1075 4475 625 4122 
L 625 4644 
Q 1088 4922 1719 4922 
Q 2294 4922 2670 4606 
Q 3047 4291 3047 3769 
Q 3047 2819 2075 2538 
L 2075 2525 
Q 2591 2481 2905 2162 
Q 3219 1844 3219 1369 
Q 3219 706 2742 312 
Q 2266 -81 1525 -81 
Q 844 -81 438 178 
L 438 756 
z
" transform="scale(0.015625)"/>
     </defs>
     <use xlink:href="#MicrosoftJhengHeiRegular-33"/>
     <use xlink:href="#MicrosoftJhengHeiRegular-2e" x="57.958984"/>
     <use xlink:href="#MicrosoftJhengHeiRegular-30" x="81.005859"/>
     <use xlink:href="#MicrosoftJhengHeiRegular-6d" x="138.964844"/>
    </g>
   </g>
   <g id="text_20">
    <!-- 位置預測誤差累積分布函數 - 設備故障 5% -->
    <g transform="translate(329.28125 16.7925) scale(0.12 -0.12)">
     <defs>
      <path id="MicrosoftJhengHeiRegular-5e03" d="M 6022 4500 
L 6016 4159 
L 2925 4159 
Q 2453 3316 1931 2772 
L 3366 2772 
L 3366 3653 
L 3713 3653 
L 3713 2772 
L 5588 2772 
L 5588 544 
Q 5588 31 5044 31 
Q 4609 31 4481 38 
L 4353 403 
Q 4766 381 4956 381 
Q 5150 381 5198 412 
Q 5247 444 5247 513 
L 5247 2425 
L 3713 2425 
L 3713 -347 
L 3366 -347 
L 3366 2425 
L 1913 2425 
L 1913 31 
L 1556 31 
L 1556 2413 
Q 984 1956 691 1759 
L 459 2034 
Q 1797 2859 2522 4159 
L 453 4159 
L 453 4500 
L 2700 4500 
Q 2847 4784 3028 5325 
L 3366 5247 
Q 3250 4866 3084 4500 
L 6022 4500 
z
" transform="scale(0.015625)"/>
      <path id="MicrosoftJhengHeiRegular-51fd" d="M 4916 4800 
Q 4416 4303 3438 3578 
L 3438 1119 
Q 3438 834 3302 721 
Q 3166 609 2809 609 
Q 2666 609 2509 622 
L 2375 972 
Q 2566 956 2741 956 
Q 3000 956 3054 987 
Q 3109 1019 3109 1113 
L 3109 3769 
Q 3834 4250 4422 4800 
L 1600 4800 
L 1600 5125 
L 4916 5125 
L 4916 4800 
z
M 5709 -313 
L 5381 -313 
L 5381 -13 
L 738 -13 
L 738 4109 
L 1063 4109 
L 1063 306 
L 5381 306 
L 5381 4103 
L 5709 4103 
L 5709 -313 
z
M 2731 2994 
L 2484 2772 
Q 2044 3278 1528 3609 
L 1778 3834 
Q 2275 3522 2731 2994 
z
M 5113 3553 
Q 4609 3059 4044 2713 
L 3828 2975 
Q 4441 3356 4884 3781 
L 5113 3553 
z
M 5069 1331 
L 4831 1094 
Q 4297 1713 3756 2138 
L 3994 2381 
Q 4628 1881 5069 1331 
z
M 2784 2075 
Q 2184 1453 1600 1106 
L 1403 1375 
Q 1988 1697 2559 2322 
L 2784 2075 
z
" transform="scale(0.015625)"/>
      <path id="MicrosoftJhengHeiRegular-6578" d="M 6000 3928 
L 5706 3928 
Q 5641 1925 5031 834 
Q 5369 344 5988 -81 
L 5800 -344 
Q 5184 41 4816 563 
Q 4359 53 3719 -344 
L 3525 -81 
Q 4228 369 4625 841 
Q 4188 1703 4091 2634 
L 4391 2738 
Q 4563 1675 4841 1150 
Q 5134 1669 5266 2466 
Q 5356 3009 5397 3928 
L 4525 3928 
Q 4219 3150 3831 2666 
L 3578 2853 
Q 4194 3653 4563 5291 
L 4872 5234 
Q 4806 4831 4625 4244 
L 6000 4244 
L 6000 3928 
z
M 3863 3947 
L 3428 3947 
L 3428 3216 
L 2322 3216 
L 2322 2838 
L 3431 2838 
L 3431 1856 
L 2306 1856 
Q 2128 1569 1978 1378 
L 2759 1378 
Q 2813 1469 2853 1606 
L 3172 1528 
Q 3159 1447 3128 1378 
L 3806 1378 
L 3806 1094 
L 2997 1094 
Q 2766 650 2416 375 
Q 2963 128 3338 -81 
L 3128 -319 
Q 2663 -56 2125 166 
Q 1525 -203 603 -319 
L 484 -16 
Q 1294 88 1753 319 
Q 1278 519 900 634 
Q 1069 813 1313 1094 
L 428 1094 
L 428 1378 
L 1559 1378 
Q 1756 1628 1906 1856 
L 881 1856 
L 881 2838 
L 2006 2838 
L 2006 3216 
L 881 3216 
L 881 3947 
L 428 3947 
L 428 4244 
L 881 4244 
L 881 4919 
L 2006 4919 
L 2006 5266 
L 2322 5266 
L 2322 4919 
L 3428 4919 
L 3428 4244 
L 3863 4244 
L 3863 3947 
z
M 3113 4244 
L 3113 4641 
L 2322 4641 
L 2322 4244 
L 3113 4244 
z
M 3113 3506 
L 3113 3947 
L 2322 3947 
L 2322 3506 
L 3113 3506 
z
M 2006 4244 
L 2006 4641 
L 1200 4641 
L 1200 4244 
L 2006 4244 
z
M 2006 3506 
L 2006 3947 
L 1200 3947 
L 1200 3506 
L 2006 3506 
z
M 3113 2147 
L 3113 2547 
L 2322 2547 
L 2322 2147 
L 3113 2147 
z
M 2006 2147 
L 2006 2547 
L 1203 2547 
L 1203 2147 
L 2006 2147 
z
M 2606 1094 
L 1744 1094 
Q 1672 1000 1463 753 
Q 1738 669 2072 531 
Q 2388 731 2606 1094 
z
" transform="scale(0.015625)"/>
      <path id="MicrosoftJhengHeiRegular-2d" d="M 2328 1722 
L 488 1722 
L 488 2138 
L 2328 2138 
L 2328 1722 
z
" transform="scale(0.015625)"/>
      <path id="MicrosoftJhengHeiRegular-8a2d" d="M 2700 4294 
L 434 4294 
L 434 4628 
L 1434 4628 
Q 1350 4906 1178 5191 
L 1472 5325 
Q 1663 5016 1784 4628 
L 2700 4628 
L 2700 4294 
z
M 5978 2950 
L 5356 2950 
Q 4897 2950 4897 3391 
L 4897 4769 
L 3769 4769 
Q 3753 3884 3533 3454 
Q 3313 3025 2925 2778 
L 2675 3009 
Q 3056 3250 3261 3670 
Q 3466 4091 3450 5088 
L 5216 5088 
L 5216 3488 
Q 5216 3272 5428 3272 
L 5978 3272 
L 5978 2950 
z
M 2528 3366 
L 563 3366 
L 563 3688 
L 2528 3688 
L 2528 3366 
z
M 2522 2425 
L 556 2425 
L 556 2747 
L 2522 2747 
L 2522 2425 
z
M 6003 -72 
L 5813 -347 
Q 4841 -25 4313 391 
Q 3697 -47 2778 -313 
L 2578 -38 
Q 3544 247 4031 616 
Q 3369 1225 3066 2247 
L 2847 2247 
L 2847 2572 
L 5528 2572 
L 5528 2247 
Q 5116 1125 4569 609 
Q 5113 219 6003 -72 
z
M 5166 2247 
L 3406 2247 
Q 3738 1303 4306 825 
Q 4878 1353 5166 2247 
z
M 2431 -191 
L 2100 -191 
L 2100 159 
L 941 159 
L 941 -313 
L 609 -313 
L 609 1819 
L 2431 1819 
L 2431 -191 
z
M 2100 488 
L 2100 1478 
L 941 1478 
L 941 488 
L 2100 488 
z
" transform="scale(0.015625)"/>
      <path id="MicrosoftJhengHeiRegular-5099" d="M 1825 5241 
L 1472 4056 
L 1472 -325 
L 1141 -325 
L 1141 3263 
Q 856 2681 616 2328 
L 384 2591 
Q 1094 3663 1509 5356 
L 1825 5241 
z
M 5991 3378 
L 3163 3378 
Q 2984 3059 2834 2859 
L 5613 2859 
L 5613 159 
Q 5613 16 5531 -118 
Q 5450 -253 5314 -300 
Q 5178 -347 4763 -331 
L 4628 -13 
Q 4841 -22 4991 -22 
Q 5300 -22 5300 197 
L 5300 850 
L 4250 850 
L 4250 -256 
L 3928 -256 
L 3928 850 
L 2747 850 
Q 2541 144 2075 -359 
L 1844 -141 
Q 2578 672 2578 1850 
L 2578 2541 
Q 2241 2100 1825 1747 
L 1606 1978 
Q 2309 2578 2816 3378 
L 1759 3378 
L 1759 3694 
L 2963 3694 
L 2963 4325 
L 1900 4325 
L 1900 4647 
L 2963 4647 
L 2963 5269 
L 3291 5269 
L 3291 4647 
L 4513 4647 
L 4513 5269 
L 4844 5269 
L 4844 4647 
L 5856 4647 
L 5856 4325 
L 4844 4325 
L 4844 3694 
L 5991 3694 
L 5991 3378 
z
M 4513 3694 
L 4513 4325 
L 3291 4325 
L 3291 3694 
L 4513 3694 
z
M 5300 2022 
L 5300 2553 
L 4250 2553 
L 4250 2022 
L 5300 2022 
z
M 3928 2022 
L 3928 2553 
L 2900 2553 
L 2900 2022 
L 3928 2022 
z
M 5300 1166 
L 5300 1709 
L 4250 1709 
L 4250 1166 
L 5300 1166 
z
M 3928 1166 
L 3928 1709 
L 2888 1709 
Q 2875 1400 2822 1166 
L 3928 1166 
z
" transform="scale(0.015625)"/>
      <path id="MicrosoftJhengHeiRegular-6545" d="M 6053 -72 
L 5838 -372 
Q 4972 122 4525 684 
Q 3984 81 3169 -359 
L 2925 -91 
Q 3828 369 4306 953 
Q 3853 1591 3609 2669 
L 3922 2772 
Q 4131 1806 4506 1234 
Q 5088 2150 5253 3909 
L 3994 3909 
Q 3728 3138 3250 2419 
L 2981 2619 
Q 3744 3775 4019 5288 
L 4366 5269 
Q 4266 4769 4109 4238 
L 5966 4238 
L 5966 3909 
L 5594 3909 
Q 5372 1900 4709 947 
Q 5228 350 6053 -72 
z
M 3097 3878 
L 1919 3878 
L 1919 2559 
L 2797 2559 
L 2797 -6 
L 2463 -6 
L 2463 403 
L 1050 403 
L 1050 -172 
L 716 -172 
L 716 2559 
L 1606 2559 
L 1606 3878 
L 453 3878 
L 453 4213 
L 1606 4213 
L 1606 5275 
L 1919 5275 
L 1919 4213 
L 3097 4213 
L 3097 3878 
z
M 2463 738 
L 2463 2228 
L 1050 2228 
L 1050 738 
L 2463 738 
z
" transform="scale(0.015625)"/>
      <path id="MicrosoftJhengHeiRegular-969c" d="M 5984 3584 
L 2266 3584 
L 2266 3891 
L 3309 3891 
Q 3175 4238 2994 4506 
L 2472 4506 
L 2472 4819 
L 3916 4819 
Q 3828 4966 3700 5141 
L 4000 5306 
Q 4194 5063 4306 4819 
L 5850 4819 
L 5850 4506 
L 5288 4506 
Q 5097 4094 4978 3891 
L 5984 3891 
L 5984 3584 
z
M 4928 4506 
L 3347 4506 
Q 3506 4222 3647 3891 
L 4634 3891 
Q 4822 4206 4928 4506 
z
M 1697 3291 
Q 2234 2550 2234 1863 
Q 2234 1556 2054 1331 
Q 1875 1106 1209 1147 
L 1088 1478 
Q 1331 1466 1466 1466 
Q 1716 1466 1819 1583 
Q 1922 1700 1922 1894 
Q 1922 2159 1764 2545 
Q 1606 2931 1356 3238 
Q 1616 3994 1850 4813 
L 953 4813 
L 953 -306 
L 634 -306 
L 634 5131 
L 2194 5131 
L 2194 4813 
Q 1997 4150 1697 3291 
z
M 5997 550 
L 4256 550 
L 4256 -331 
L 3938 -331 
L 3938 550 
L 2259 550 
L 2259 872 
L 3938 872 
L 3938 1319 
L 2644 1319 
L 2644 3156 
L 5656 3156 
L 5656 1319 
L 4256 1319 
L 4256 872 
L 5997 872 
L 5997 550 
z
M 5319 2400 
L 5319 2853 
L 2956 2853 
L 2956 2400 
L 5319 2400 
z
M 5319 1631 
L 5319 2113 
L 2956 2113 
L 2956 1631 
L 5319 1631 
z
" transform="scale(0.015625)"/>
     </defs>
     <use xlink:href="#MicrosoftJhengHeiRegular-4f4d"/>
     <use xlink:href="#MicrosoftJhengHeiRegular-7f6e" x="100"/>
     <use xlink:href="#MicrosoftJhengHeiRegular-9810" x="200"/>
     <use xlink:href="#MicrosoftJhengHeiRegular-6e2c" x="300"/>
     <use xlink:href="#MicrosoftJhengHeiRegular-8aa4" x="400"/>
     <use xlink:href="#MicrosoftJhengHeiRegular-5dee" x="500"/>
     <use xlink:href="#MicrosoftJhengHeiRegular-7d2f" x="600"/>
     <use xlink:href="#MicrosoftJhengHeiRegular-7a4d" x="700"/>
     <use xlink:href="#MicrosoftJhengHeiRegular-5206" x="800"/>
     <use xlink:href="#MicrosoftJhengHeiRegular-5e03" x="900"/>
     <use xlink:href="#MicrosoftJhengHeiRegular-51fd" x="1000"/>
     <use xlink:href="#MicrosoftJhengHeiRegular-6578" x="1100"/>
     <use xlink:href="#MicrosoftJhengHeiRegular-20" x="1200"/>
     <use xlink:href="#MicrosoftJhengHeiRegular-2d" x="1225"/>
     <use xlink:href="#MicrosoftJhengHeiRegular-20" x="1268.164062"/>
     <use xlink:href="#MicrosoftJhengHeiRegular-8a2d" x="1293.164062"/>
     <use xlink:href="#MicrosoftJhengHeiRegular-5099" x="1393.164062"/>
     <use xlink:href="#MicrosoftJhengHeiRegular-6545" x="1493.164062"/>
     <use xlink:href="#MicrosoftJhengHeiRegular-969c" x="1593.164062"/>
     <use xlink:href="#MicrosoftJhengHeiRegular-20" x="1693.164062"/>
     <use xlink:href="#MicrosoftJhengHeiRegular-35" x="1718.164062"/>
     <use xlink:href="#MicrosoftJhengHeiRegular-25" x="1776.123047"/>
    </g>
   </g>
   <g id="PathCollection_1">
    <defs>
     <path id="m2895553def" d="M 0 3.535534 
C 0.937635 3.535534 1.836992 3.163008 2.5 2.5 
C 3.163008 1.836992 3.535534 0.937635 3.535534 0 
C 3.535534 -0.937635 3.163008 -1.836992 2.5 -2.5 
C 1.836992 -3.163008 0.937635 -3.535534 0 -3.535534 
C -0.937635 -3.535534 -1.836992 -3.163008 -2.5 -2.5 
C -3.163008 -1.836992 -3.535534 -0.937635 -3.535534 0 
C -3.535534 0.937635 -3.163008 1.836992 -2.5 2.5 
C -1.836992 3.163008 -0.937635 3.535534 0 3.535534 
z
" style="stroke: #1f77b4; stroke-opacity: 0.8"/>
    </defs>
    <g clip-path="url(#pcbcde1756a)">
     <use xlink:href="#m2895553def" x="87.270418" y="507.952879" style="fill: #1f77b4; fill-opacity: 0.8; stroke: #1f77b4; stroke-opacity: 0.8"/>
    </g>
   </g>
   <g id="PathCollection_2">
    <g clip-path="url(#pcbcde1756a)">
     <use xlink:href="#m2895553def" x="128.47521" y="462.54378" style="fill: #1f77b4; fill-opacity: 0.8; stroke: #1f77b4; stroke-opacity: 0.8"/>
    </g>
   </g>
   <g id="PathCollection_3">
    <g clip-path="url(#pcbcde1756a)">
     <use xlink:href="#m2895553def" x="169.680003" y="390.845201" style="fill: #1f77b4; fill-opacity: 0.8; stroke: #1f77b4; stroke-opacity: 0.8"/>
    </g>
   </g>
   <g id="PathCollection_4">
    <defs>
     <path id="mdaf3de1368" d="M 0 3.535534 
C 0.937635 3.535534 1.836992 3.163008 2.5 2.5 
C 3.163008 1.836992 3.535534 0.937635 3.535534 0 
C 3.535534 -0.937635 3.163008 -1.836992 2.5 -2.5 
C 1.836992 -3.163008 0.937635 -3.535534 0 -3.535534 
C -0.937635 -3.535534 -1.836992 -3.163008 -2.5 -2.5 
C -3.163008 -1.836992 -3.535534 -0.937635 -3.535534 0 
C -3.535534 0.937635 -3.163008 1.836992 -2.5 2.5 
C -1.836992 3.163008 -0.937635 3.535534 0 3.535534 
z
" style="stroke: #ff7f0e; stroke-opacity: 0.8"/>
    </defs>
    <g clip-path="url(#pcbcde1756a)">
     <use xlink:href="#mdaf3de1368" x="87.270418" y="507.952879" style="fill: #ff7f0e; fill-opacity: 0.8; stroke: #ff7f0e; stroke-opacity: 0.8"/>
    </g>
   </g>
   <g id="PathCollection_5">
    <g clip-path="url(#pcbcde1756a)">
     <use xlink:href="#mdaf3de1368" x="128.47521" y="462.54378" style="fill: #ff7f0e; fill-opacity: 0.8; stroke: #ff7f0e; stroke-opacity: 0.8"/>
    </g>
   </g>
   <g id="PathCollection_6">
    <g clip-path="url(#pcbcde1756a)">
     <use xlink:href="#mdaf3de1368" x="169.680003" y="383.675344" style="fill: #ff7f0e; fill-opacity: 0.8; stroke: #ff7f0e; stroke-opacity: 0.8"/>
    </g>
   </g>
   <g id="PathCollection_7">
    <defs>
     <path id="mca01f2f37a" d="M 0 3.535534 
C 0.937635 3.535534 1.836992 3.163008 2.5 2.5 
C 3.163008 1.836992 3.535534 0.937635 3.535534 0 
C 3.535534 -0.937635 3.163008 -1.836992 2.5 -2.5 
C 1.836992 -3.163008 0.937635 -3.535534 0 -3.535534 
C -0.937635 -3.535534 -1.836992 -3.163008 -2.5 -2.5 
C -3.163008 -1.836992 -3.535534 -0.937635 -3.535534 0 
C -3.535534 0.937635 -3.163008 1.836992 -2.5 2.5 
C -1.836992 3.163008 -0.937635 3.535534 0 3.535534 
z
" style="stroke: #2ca02c; stroke-opacity: 0.8"/>
    </defs>
    <g clip-path="url(#pcbcde1756a)">
     <use xlink:href="#mca01f2f37a" x="87.270418" y="507.952879" style="fill: #2ca02c; fill-opacity: 0.8; stroke: #2ca02c; stroke-opacity: 0.8"/>
    </g>
   </g>
   <g id="PathCollection_8">
    <g clip-path="url(#pcbcde1756a)">
     <use xlink:href="#mca01f2f37a" x="128.47521" y="438.644254" style="fill: #2ca02c; fill-opacity: 0.8; stroke: #2ca02c; stroke-opacity: 0.8"/>
    </g>
   </g>
   <g id="PathCollection_9">
    <g clip-path="url(#pcbcde1756a)">
     <use xlink:href="#mca01f2f37a" x="169.680003" y="326.316481" style="fill: #2ca02c; fill-opacity: 0.8; stroke: #2ca02c; stroke-opacity: 0.8"/>
    </g>
   </g>
   <g id="legend_1">
    <g id="patch_7">
     <path d="M 882.702125 77.289375 
L 991.109938 77.289375 
Q 993.109938 77.289375 993.109938 75.289375 
L 993.109938 29.7925 
Q 993.109938 27.7925 991.109938 27.7925 
L 882.702125 27.7925 
Q 880.702125 27.7925 880.702125 29.7925 
L 880.702125 75.289375 
Q 880.702125 77.289375 882.702125 77.289375 
z
" style="fill: #ffffff; opacity: 0.8; stroke: #cccccc; stroke-linejoin: miter"/>
    </g>
    <g id="line2d_35">
     <path d="M 884.702125 36.28625 
L 894.702125 36.28625 
L 904.702125 36.28625 
" style="fill: none; stroke: #1f77b4; stroke-width: 2; stroke-linecap: square"/>
    </g>
    <g id="text_21">
     <!-- original HADNN -->
     <g transform="translate(912.702125 39.78625) scale(0.1 -0.1)">
      <defs>
       <path id="MicrosoftJhengHeiRegular-6f" d="M 331 1684 
Q 331 2547 801 3042 
Q 1272 3538 2081 3538 
Q 2844 3538 3276 3059 
Q 3709 2581 3709 1738 
Q 3709 919 3240 419 
Q 2772 -81 2000 -81 
Q 1253 -81 792 400 
Q 331 881 331 1684 
z
M 863 1706 
Q 863 1094 1183 728 
Q 1503 363 2038 363 
Q 2581 363 2879 719 
Q 3178 1075 3178 1719 
Q 3178 2378 2883 2736 
Q 2588 3094 2038 3094 
Q 1500 3094 1181 2723 
Q 863 2353 863 1706 
z
" transform="scale(0.015625)"/>
       <path id="MicrosoftJhengHeiRegular-72" d="M 2341 2922 
Q 2197 3031 1925 3031 
Q 1559 3031 1323 2682 
Q 1088 2334 1088 1769 
L 1088 0 
L 566 0 
L 566 3456 
L 1088 3456 
L 1088 2741 
L 1103 2741 
Q 1222 3109 1465 3312 
Q 1709 3516 2003 3516 
Q 2225 3516 2341 3469 
L 2341 2922 
z
" transform="scale(0.015625)"/>
       <path id="MicrosoftJhengHeiRegular-69" d="M 497 4700 
Q 497 4847 595 4948 
Q 694 5050 834 5050 
Q 981 5050 1082 4947 
Q 1184 4844 1184 4700 
Q 1184 4563 1082 4459 
Q 981 4356 834 4356 
Q 688 4356 592 4456 
Q 497 4556 497 4700 
z
M 569 0 
L 569 3456 
L 1088 3456 
L 1088 0 
L 569 0 
z
" transform="scale(0.015625)"/>
       <path id="MicrosoftJhengHeiRegular-67" d="M 3488 272 
Q 3488 -1628 1688 -1628 
Q 1050 -1628 566 -1381 
L 566 -850 
Q 1150 -1175 1684 -1175 
Q 2969 -1175 2969 203 
L 2969 588 
L 2956 588 
Q 2550 -81 1763 -81 
Q 1113 -81 722 384 
Q 331 850 331 1616 
Q 331 2500 759 3019 
Q 1188 3538 1913 3538 
Q 2616 3538 2956 2972 
L 2969 2972 
L 2969 3456 
L 3488 3456 
L 3488 272 
z
M 2969 2081 
Q 2969 2503 2678 2798 
Q 2388 3094 1978 3094 
Q 1459 3094 1161 2712 
Q 863 2331 863 1653 
Q 863 1066 1150 714 
Q 1438 363 1897 363 
Q 2363 363 2666 698 
Q 2969 1034 2969 1556 
L 2969 2081 
z
" transform="scale(0.015625)"/>
       <path id="MicrosoftJhengHeiRegular-6e" d="M 3406 0 
L 2884 0 
L 2884 1975 
Q 2884 3094 2066 3094 
Q 1638 3094 1363 2773 
Q 1088 2453 1088 1972 
L 1088 0 
L 566 0 
L 566 3456 
L 1088 3456 
L 1088 2878 
L 1103 2878 
Q 1491 3538 2238 3538 
Q 2806 3538 3106 3172 
Q 3406 2806 3406 2113 
L 3406 0 
z
" transform="scale(0.015625)"/>
       <path id="MicrosoftJhengHeiRegular-61" d="M 647 3209 
Q 1156 3538 1813 3538 
Q 3016 3538 3016 2259 
L 3016 0 
L 2494 0 
L 2494 544 
L 2475 544 
Q 2116 -81 1413 -81 
Q 900 -81 604 192 
Q 309 466 309 916 
Q 309 1875 1447 2038 
L 2491 2188 
Q 2491 3088 1772 3088 
Q 1144 3088 647 2659 
L 647 3209 
z
M 1644 1641 
Q 1200 1581 1026 1426 
Q 853 1272 853 950 
Q 853 691 1039 528 
Q 1225 366 1525 366 
Q 1941 366 2216 662 
Q 2491 959 2491 1403 
L 2491 1753 
L 1644 1641 
z
" transform="scale(0.015625)"/>
       <path id="MicrosoftJhengHeiRegular-6c" d="M 569 0 
L 569 5116 
L 1088 5116 
L 1088 0 
L 569 0 
z
" transform="scale(0.015625)"/>
       <path id="MicrosoftJhengHeiRegular-48" d="M 4241 0 
L 3709 0 
L 3709 2222 
L 1172 2222 
L 1172 0 
L 641 0 
L 641 4841 
L 1172 4841 
L 1172 2703 
L 3709 2703 
L 3709 4841 
L 4241 4841 
L 4241 0 
z
" transform="scale(0.015625)"/>
       <path id="MicrosoftJhengHeiRegular-41" d="M 4353 0 
L 3763 0 
L 3238 1375 
L 1163 1375 
L 672 0 
L 78 0 
L 1941 4841 
L 2481 4841 
L 4353 0 
z
M 3056 1863 
L 2281 3953 
Q 2250 4041 2209 4272 
L 2194 4272 
Q 2159 4059 2116 3953 
L 1350 1863 
L 3056 1863 
z
" transform="scale(0.015625)"/>
       <path id="MicrosoftJhengHeiRegular-44" d="M 641 0 
L 641 4841 
L 1953 4841 
Q 4506 4841 4506 2481 
Q 4506 1350 3818 675 
Q 3131 0 1903 0 
L 641 0 
z
M 1172 4353 
L 1172 488 
L 1909 488 
Q 2875 488 3412 1006 
Q 3950 1525 3950 2466 
Q 3950 4353 1941 4353 
L 1172 4353 
z
" transform="scale(0.015625)"/>
       <path id="MicrosoftJhengHeiRegular-4e" d="M 4513 0 
L 3844 0 
L 1319 3909 
Q 1234 4047 1169 4200 
L 1150 4200 
Q 1175 4050 1175 3550 
L 1175 0 
L 641 0 
L 641 4841 
L 1347 4841 
L 3803 972 
Q 3991 672 4000 641 
L 4013 641 
Q 3978 881 3978 1369 
L 3978 4841 
L 4513 4841 
L 4513 0 
z
" transform="scale(0.015625)"/>
      </defs>
      <use xlink:href="#MicrosoftJhengHeiRegular-6f"/>
      <use xlink:href="#MicrosoftJhengHeiRegular-72" x="63.085938"/>
      <use xlink:href="#MicrosoftJhengHeiRegular-69" x="100.292969"/>
      <use xlink:href="#MicrosoftJhengHeiRegular-67" x="126.220703"/>
      <use xlink:href="#MicrosoftJhengHeiRegular-69" x="189.599609"/>
      <use xlink:href="#MicrosoftJhengHeiRegular-6e" x="215.527344"/>
      <use xlink:href="#MicrosoftJhengHeiRegular-61" x="276.367188"/>
      <use xlink:href="#MicrosoftJhengHeiRegular-6c" x="331.103516"/>
      <use xlink:href="#MicrosoftJhengHeiRegular-20" x="357.03125"/>
      <use xlink:href="#MicrosoftJhengHeiRegular-48" x="382.03125"/>
      <use xlink:href="#MicrosoftJhengHeiRegular-41" x="458.300781"/>
      <use xlink:href="#MicrosoftJhengHeiRegular-44" x="527.587891"/>
      <use xlink:href="#MicrosoftJhengHeiRegular-4e" x="603.076172"/>
      <use xlink:href="#MicrosoftJhengHeiRegular-4e" x="683.59375"/>
     </g>
    </g>
    <g id="line2d_36">
     <path d="M 884.702125 51.82375 
L 894.702125 51.82375 
L 904.702125 51.82375 
" style="fill: none; stroke: #ff7f0e; stroke-width: 2; stroke-linecap: square"/>
    </g>
    <g id="text_22">
     <!-- mlp -->
     <g transform="translate(912.702125 55.32375) scale(0.1 -0.1)">
      <defs>
       <path id="MicrosoftJhengHeiRegular-70" d="M 1088 506 
L 1088 -1591 
L 566 -1591 
L 566 3456 
L 1088 3456 
L 1088 2844 
L 1103 2844 
Q 1513 3538 2300 3538 
Q 2959 3538 3340 3077 
Q 3722 2616 3722 1828 
Q 3722 966 3295 442 
Q 2869 -81 2141 -81 
Q 1466 -81 1103 506 
L 1088 506 
z
M 1088 1400 
Q 1088 966 1378 664 
Q 1669 363 2094 363 
Q 2603 363 2895 756 
Q 3188 1150 3188 1844 
Q 3188 2428 2913 2761 
Q 2638 3094 2181 3094 
Q 1706 3094 1397 2758 
Q 1088 2422 1088 1900 
L 1088 1400 
z
" transform="scale(0.015625)"/>
      </defs>
      <use xlink:href="#MicrosoftJhengHeiRegular-6d"/>
      <use xlink:href="#MicrosoftJhengHeiRegular-6c" x="92.626953"/>
      <use xlink:href="#MicrosoftJhengHeiRegular-70" x="118.554688"/>
     </g>
    </g>
    <g id="line2d_37">
     <path d="M 884.702125 67.303437 
L 894.702125 67.303437 
L 904.702125 67.303437 
" style="fill: none; stroke: #2ca02c; stroke-width: 2; stroke-linecap: square"/>
    </g>
    <g id="text_23">
     <!-- hadnn+rf -->
     <g transform="translate(912.702125 70.803437) scale(0.1 -0.1)">
      <defs>
       <path id="MicrosoftJhengHeiRegular-68" d="M 3406 0 
L 2888 0 
L 2888 1994 
Q 2888 3094 2066 3094 
Q 1650 3094 1369 2775 
Q 1088 2456 1088 1956 
L 1088 0 
L 566 0 
L 566 5116 
L 1088 5116 
L 1088 2878 
L 1103 2878 
Q 1500 3538 2241 3538 
Q 3406 3538 3406 2128 
L 3406 0 
z
" transform="scale(0.015625)"/>
       <path id="MicrosoftJhengHeiRegular-64" d="M 3488 0 
L 2969 0 
L 2969 594 
L 2956 594 
Q 2572 -81 1763 -81 
Q 1106 -81 718 386 
Q 331 853 331 1647 
Q 331 2497 765 3017 
Q 1200 3538 1913 3538 
Q 2625 3538 2956 2972 
L 2969 2972 
L 2969 5116 
L 3488 5116 
L 3488 0 
z
M 2969 2081 
Q 2969 2506 2680 2800 
Q 2391 3094 1972 3094 
Q 1453 3094 1158 2711 
Q 863 2328 863 1675 
Q 863 1078 1145 720 
Q 1428 363 1906 363 
Q 2366 363 2667 698 
Q 2969 1034 2969 1556 
L 2969 2081 
z
" transform="scale(0.015625)"/>
       <path id="MicrosoftJhengHeiRegular-2b" d="M 3947 1797 
L 2578 1797 
L 2578 434 
L 2147 434 
L 2147 1797 
L 784 1797 
L 784 2234 
L 2147 2234 
L 2147 3597 
L 2578 3597 
L 2578 2234 
L 3947 2234 
L 3947 1797 
z
" transform="scale(0.015625)"/>
       <path id="MicrosoftJhengHeiRegular-66" d="M 2241 4653 
Q 2075 4744 1872 4744 
Q 1288 4744 1288 4000 
L 1288 3456 
L 2097 3456 
L 2097 3006 
L 1288 3006 
L 1288 0 
L 772 0 
L 772 3006 
L 181 3006 
L 181 3456 
L 772 3456 
L 772 4025 
Q 772 4572 1083 4881 
Q 1394 5191 1847 5191 
Q 2100 5191 2241 5131 
L 2241 4653 
z
" transform="scale(0.015625)"/>
      </defs>
      <use xlink:href="#MicrosoftJhengHeiRegular-68"/>
      <use xlink:href="#MicrosoftJhengHeiRegular-61" x="60.888672"/>
      <use xlink:href="#MicrosoftJhengHeiRegular-64" x="115.625"/>
      <use xlink:href="#MicrosoftJhengHeiRegular-6e" x="179.003906"/>
      <use xlink:href="#MicrosoftJhengHeiRegular-6e" x="239.84375"/>
      <use xlink:href="#MicrosoftJhengHeiRegular-2b" x="300.683594"/>
      <use xlink:href="#MicrosoftJhengHeiRegular-72" x="374.414062"/>
      <use xlink:href="#MicrosoftJhengHeiRegular-66" x="413.621094"/>
     </g>
    </g>
   </g>
  </g>
 </g>
 <defs>
  <clipPath id="pcbcde1756a">
   <rect x="46.065625" y="22.7925" width="790.13" height="504.28"/>
  </clipPath>
 </defs>
</svg>
