<?xml version="1.0" encoding="utf-8" standalone="no"?>
<!DOCTYPE svg PUBLIC "-//W3C//DTD SVG 1.1//EN"
  "http://www.w3.org/Graphics/SVG/1.1/DTD/svg11.dtd">
<svg xmlns:xlink="http://www.w3.org/1999/xlink" width="1000.309937pt" height="566.231875pt" viewBox="0 0 1000.309937 566.231875" xmlns="http://www.w3.org/2000/svg" version="1.1">
 <metadata>
  <rdf:RDF xmlns:dc="http://purl.org/dc/elements/1.1/" xmlns:cc="http://creativecommons.org/ns#" xmlns:rdf="http://www.w3.org/1999/02/22-rdf-syntax-ns#">
   <cc:Work>
    <dc:type rdf:resource="http://purl.org/dc/dcmitype/StillImage"/>
    <dc:date>2025-09-02T17:35:51.262164</dc:date>
    <dc:format>image/svg+xml</dc:format>
    <dc:creator>
     <cc:Agent>
      <dc:title>Matplotlib v3.7.1, https://matplotlib.org/</dc:title>
     </cc:Agent>
    </dc:creator>
   </cc:Work>
  </rdf:RDF>
 </metadata>
 <defs>
  <style type="text/css">*{stroke-linejoin: round; stroke-linecap: butt}</style>
 </defs>
 <g id="figure_1">
  <g id="patch_1">
   <path d="M 0 566.231875 
L 1000.309937 566.231875 
L 1000.309937 0 
L 0 0 
z
" style="fill: #ffffff"/>
  </g>
  <g id="axes_1">
   <g id="patch_2">
    <path d="M 46.065625 527.0725 
L 836.195625 527.0725 
L 836.195625 22.7925 
L 46.065625 22.7925 
z
" style="fill: #ffffff"/>
   </g>
   <g id="matplotlib.axis_1">
    <g id="xtick_1">
     <g id="line2d_1">
      <path d="M 46.065625 527.0725 
L 46.065625 22.7925 
" clip-path="url(#pe1cb415c2c)" style="fill: none; stroke: #b0b0b0; stroke-opacity: 0.3; stroke-width: 0.8; stroke-linecap: square"/>
     </g>
     <g id="line2d_2">
      <defs>
       <path id="mf36acb42dd" d="M 0 0 
L 0 3.5 
" style="stroke: #000000; stroke-width: 0.8"/>
      </defs>
      <g>
       <use xlink:href="#mf36acb42dd" x="46.065625" y="527.0725" style="stroke: #000000; stroke-width: 0.8"/>
      </g>
     </g>
     <g id="text_1">
      <!-- 0.0 -->
      <g transform="translate(39.117969 542.06625) scale(0.1 -0.1)">
       <defs>
        <path id="MicrosoftJhengHeiRegular-30" d="M 294 2322 
Q 294 3603 711 4262 
Q 1128 4922 1916 4922 
Q 3425 4922 3425 2441 
Q 3425 1234 3011 576 
Q 2597 -81 1806 -81 
Q 1069 -81 681 550 
Q 294 1181 294 2322 
z
M 825 2350 
Q 825 363 1863 363 
Q 2891 363 2891 2378 
Q 2891 4475 1888 4475 
Q 825 4475 825 2350 
z
" transform="scale(0.015625)"/>
        <path id="MicrosoftJhengHeiRegular-2e" d="M 375 291 
Q 375 444 484 551 
Q 594 659 738 659 
Q 888 659 994 551 
Q 1100 444 1100 291 
Q 1100 141 992 33 
Q 884 -75 738 -75 
Q 594 -75 484 29 
Q 375 134 375 291 
z
" transform="scale(0.015625)"/>
       </defs>
       <use xlink:href="#MicrosoftJhengHeiRegular-30"/>
       <use xlink:href="#MicrosoftJhengHeiRegular-2e" x="57.958984"/>
       <use xlink:href="#MicrosoftJhengHeiRegular-30" x="81.005859"/>
      </g>
     </g>
    </g>
    <g id="xtick_2">
     <g id="line2d_3">
      <path d="M 168.254116 527.0725 
L 168.254116 22.7925 
" clip-path="url(#pe1cb415c2c)" style="fill: none; stroke: #b0b0b0; stroke-opacity: 0.3; stroke-width: 0.8; stroke-linecap: square"/>
     </g>
     <g id="line2d_4">
      <g>
       <use xlink:href="#mf36acb42dd" x="168.254116" y="527.0725" style="stroke: #000000; stroke-width: 0.8"/>
      </g>
     </g>
     <g id="text_2">
      <!-- 0.5 -->
      <g transform="translate(161.306459 542.06625) scale(0.1 -0.1)">
       <defs>
        <path id="MicrosoftJhengHeiRegular-35" d="M 553 684 
Q 1047 363 1559 363 
Q 2072 363 2394 658 
Q 2716 953 2716 1441 
Q 2716 1931 2394 2200 
Q 2072 2469 1466 2469 
Q 1275 2469 706 2431 
L 706 4841 
L 3025 4841 
L 3025 4366 
L 1203 4366 
L 1203 2916 
Q 1475 2931 1616 2931 
Q 2378 2931 2811 2548 
Q 3244 2166 3244 1472 
Q 3244 750 2775 334 
Q 2306 -81 1544 -81 
Q 875 -81 553 119 
L 553 684 
z
" transform="scale(0.015625)"/>
       </defs>
       <use xlink:href="#MicrosoftJhengHeiRegular-30"/>
       <use xlink:href="#MicrosoftJhengHeiRegular-2e" x="57.958984"/>
       <use xlink:href="#MicrosoftJhengHeiRegular-35" x="81.005859"/>
      </g>
     </g>
    </g>
    <g id="xtick_3">
     <g id="line2d_5">
      <path d="M 290.442606 527.0725 
L 290.442606 22.7925 
" clip-path="url(#pe1cb415c2c)" style="fill: none; stroke: #b0b0b0; stroke-opacity: 0.3; stroke-width: 0.8; stroke-linecap: square"/>
     </g>
     <g id="line2d_6">
      <g>
       <use xlink:href="#mf36acb42dd" x="290.442606" y="527.0725" style="stroke: #000000; stroke-width: 0.8"/>
      </g>
     </g>
     <g id="text_3">
      <!-- 1.0 -->
      <g transform="translate(283.49495 542.06625) scale(0.1 -0.1)">
       <defs>
        <path id="MicrosoftJhengHeiRegular-31" d="M 3313 0 
L 594 0 
L 594 466 
L 1694 466 
L 1694 4272 
L 566 3931 
L 566 4434 
L 2216 4950 
L 2216 466 
L 3313 466 
L 3313 0 
z
" transform="scale(0.015625)"/>
       </defs>
       <use xlink:href="#MicrosoftJhengHeiRegular-31"/>
       <use xlink:href="#MicrosoftJhengHeiRegular-2e" x="57.958984"/>
       <use xlink:href="#MicrosoftJhengHeiRegular-30" x="81.005859"/>
      </g>
     </g>
    </g>
    <g id="xtick_4">
     <g id="line2d_7">
      <path d="M 412.631097 527.0725 
L 412.631097 22.7925 
" clip-path="url(#pe1cb415c2c)" style="fill: none; stroke: #b0b0b0; stroke-opacity: 0.3; stroke-width: 0.8; stroke-linecap: square"/>
     </g>
     <g id="line2d_8">
      <g>
       <use xlink:href="#mf36acb42dd" x="412.631097" y="527.0725" style="stroke: #000000; stroke-width: 0.8"/>
      </g>
     </g>
     <g id="text_4">
      <!-- 1.5 -->
      <g transform="translate(405.68344 542.06625) scale(0.1 -0.1)">
       <use xlink:href="#MicrosoftJhengHeiRegular-31"/>
       <use xlink:href="#MicrosoftJhengHeiRegular-2e" x="57.958984"/>
       <use xlink:href="#MicrosoftJhengHeiRegular-35" x="81.005859"/>
      </g>
     </g>
    </g>
    <g id="xtick_5">
     <g id="line2d_9">
      <path d="M 534.819587 527.0725 
L 534.819587 22.7925 
" clip-path="url(#pe1cb415c2c)" style="fill: none; stroke: #b0b0b0; stroke-opacity: 0.3; stroke-width: 0.8; stroke-linecap: square"/>
     </g>
     <g id="line2d_10">
      <g>
       <use xlink:href="#mf36acb42dd" x="534.819587" y="527.0725" style="stroke: #000000; stroke-width: 0.8"/>
      </g>
     </g>
     <g id="text_5">
      <!-- 2.0 -->
      <g transform="translate(527.871931 542.06625) scale(0.1 -0.1)">
       <defs>
        <path id="MicrosoftJhengHeiRegular-32" d="M 3219 0 
L 322 0 
L 322 472 
L 1731 1891 
Q 2431 2597 2592 2914 
Q 2753 3231 2753 3588 
Q 2753 4016 2511 4247 
Q 2269 4478 1816 4478 
Q 1169 4478 572 3919 
L 572 4475 
Q 1131 4922 1884 4922 
Q 2509 4922 2886 4575 
Q 3263 4228 3263 3634 
Q 3263 3178 3014 2736 
Q 2766 2294 2075 1603 
L 947 488 
L 947 475 
L 3219 475 
L 3219 0 
z
" transform="scale(0.015625)"/>
       </defs>
       <use xlink:href="#MicrosoftJhengHeiRegular-32"/>
       <use xlink:href="#MicrosoftJhengHeiRegular-2e" x="57.958984"/>
       <use xlink:href="#MicrosoftJhengHeiRegular-30" x="81.005859"/>
      </g>
     </g>
    </g>
    <g id="xtick_6">
     <g id="line2d_11">
      <path d="M 657.008078 527.0725 
L 657.008078 22.7925 
" clip-path="url(#pe1cb415c2c)" style="fill: none; stroke: #b0b0b0; stroke-opacity: 0.3; stroke-width: 0.8; stroke-linecap: square"/>
     </g>
     <g id="line2d_12">
      <g>
       <use xlink:href="#mf36acb42dd" x="657.008078" y="527.0725" style="stroke: #000000; stroke-width: 0.8"/>
      </g>
     </g>
     <g id="text_6">
      <!-- 2.5 -->
      <g transform="translate(650.060421 542.06625) scale(0.1 -0.1)">
       <use xlink:href="#MicrosoftJhengHeiRegular-32"/>
       <use xlink:href="#MicrosoftJhengHeiRegular-2e" x="57.958984"/>
       <use xlink:href="#MicrosoftJhengHeiRegular-35" x="81.005859"/>
      </g>
     </g>
    </g>
    <g id="xtick_7">
     <g id="line2d_13">
      <path d="M 779.196568 527.0725 
L 779.196568 22.7925 
" clip-path="url(#pe1cb415c2c)" style="fill: none; stroke: #b0b0b0; stroke-opacity: 0.3; stroke-width: 0.8; stroke-linecap: square"/>
     </g>
     <g id="line2d_14">
      <g>
       <use xlink:href="#mf36acb42dd" x="779.196568" y="527.0725" style="stroke: #000000; stroke-width: 0.8"/>
      </g>
     </g>
     <g id="text_7">
      <!-- 3.0 -->
      <g transform="translate(772.248912 542.06625) scale(0.1 -0.1)">
       <defs>
        <path id="MicrosoftJhengHeiRegular-33" d="M 438 756 
Q 934 363 1556 363 
Q 2056 363 2370 616 
Q 2684 869 2684 1313 
Q 2684 2281 1319 2281 
L 919 2281 
L 919 2728 
L 1300 2728 
Q 2513 2728 2513 3634 
Q 2513 4475 1588 4475 
Q 1075 4475 625 4122 
L 625 4644 
Q 1088 4922 1719 4922 
Q 2294 4922 2670 4606 
Q 3047 4291 3047 3769 
Q 3047 2819 2075 2538 
L 2075 2525 
Q 2591 2481 2905 2162 
Q 3219 1844 3219 1369 
Q 3219 706 2742 312 
Q 2266 -81 1525 -81 
Q 844 -81 438 178 
L 438 756 
z
" transform="scale(0.015625)"/>
       </defs>
       <use xlink:href="#MicrosoftJhengHeiRegular-33"/>
       <use xlink:href="#MicrosoftJhengHeiRegular-2e" x="57.958984"/>
       <use xlink:href="#MicrosoftJhengHeiRegular-30" x="81.005859"/>
      </g>
     </g>
    </g>
    <g id="text_8">
     <!-- 位置預測誤差 (公尺) -->
     <g transform="translate(396.672813 556.545937) scale(0.1 -0.1)">
      <defs>
       <path id="MicrosoftJhengHeiRegular-4f4d" d="M 6016 -172 
L 1900 -172 
L 1900 159 
L 3194 159 
Q 3031 1716 2478 3597 
L 2700 3719 
L 1984 3719 
L 1984 4050 
L 3884 4050 
Q 3750 4634 3500 5178 
L 3822 5288 
Q 4053 4759 4244 4050 
L 5913 4050 
L 5913 3719 
L 5269 3719 
L 5472 3641 
Q 5191 1675 4716 159 
L 6016 159 
L 6016 -172 
z
M 5125 3719 
L 2816 3719 
Q 3334 1778 3547 159 
L 4372 159 
Q 4925 1928 5125 3719 
z
M 2131 5147 
Q 2009 4856 1803 4447 
L 1594 4044 
L 1594 -325 
L 1253 -325 
L 1253 3425 
Q 966 2963 544 2456 
L 331 2772 
Q 1222 3825 1791 5269 
L 2131 5147 
z
" transform="scale(0.015625)"/>
       <path id="MicrosoftJhengHeiRegular-7f6e" d="M 5991 -184 
L 453 -184 
L 453 97 
L 1203 97 
L 1203 2803 
L 2694 2803 
L 2853 3256 
L 500 3256 
L 500 3547 
L 2956 3547 
L 3078 3969 
L 756 3969 
L 756 5119 
L 5663 5119 
L 5663 3969 
L 3425 3969 
L 3297 3547 
L 5894 3547 
L 5894 3256 
L 3194 3256 
L 3047 2803 
L 5228 2803 
L 5228 97 
L 5991 97 
L 5991 -184 
z
M 5331 4231 
L 5331 4844 
L 4147 4844 
L 4147 4231 
L 5331 4231 
z
M 3816 4231 
L 3816 4844 
L 2613 4844 
L 2613 4231 
L 3816 4231 
z
M 2278 4231 
L 2278 4844 
L 1081 4844 
L 1081 4231 
L 2278 4231 
z
M 4903 2138 
L 4903 2534 
L 1538 2534 
L 1538 2138 
L 4903 2138 
z
M 4903 1478 
L 4903 1875 
L 1538 1875 
L 1538 1478 
L 4903 1478 
z
M 4903 781 
L 4903 1222 
L 1538 1222 
L 1538 781 
L 4903 781 
z
M 4903 97 
L 4903 513 
L 1538 513 
L 1538 97 
L 4903 97 
z
" transform="scale(0.015625)"/>
       <path id="MicrosoftJhengHeiRegular-9810" d="M 6009 4794 
L 4588 4794 
Q 4519 4447 4384 4063 
L 5703 4063 
L 5703 947 
L 4031 947 
L 4231 744 
Q 3759 156 2894 -378 
L 2675 -91 
Q 3456 341 3969 947 
L 3150 947 
L 3150 4063 
L 4038 4063 
Q 4166 4381 4250 4794 
L 2925 4794 
L 2925 5119 
L 6009 5119 
L 6009 4794 
z
M 5375 3163 
L 5375 3744 
L 3475 3744 
L 3475 3163 
L 5375 3163 
z
M 5375 2234 
L 5375 2853 
L 3475 2853 
L 3475 2234 
L 5375 2234 
z
M 5375 1269 
L 5375 1931 
L 3475 1931 
L 3475 1269 
L 5375 1269 
z
M 2881 3084 
Q 2719 2138 2369 1631 
L 2081 1831 
Q 2366 2228 2478 2753 
L 1753 2753 
L 1753 122 
Q 1753 -56 1608 -197 
Q 1463 -338 703 -306 
L 609 19 
Q 1219 19 1283 26 
Q 1347 34 1397 96 
Q 1447 159 1447 213 
L 1447 2753 
L 441 2753 
L 441 3084 
L 1838 3084 
Q 1450 3513 666 4072 
L 844 4319 
Q 1059 4184 1478 3853 
Q 1991 4363 2234 4728 
L 594 4728 
L 594 5044 
L 2644 5044 
L 2644 4728 
Q 2175 4094 1734 3641 
Q 2006 3403 2150 3219 
L 2041 3084 
L 2881 3084 
z
M 5991 -78 
L 5778 -341 
Q 5194 175 4569 513 
L 4775 763 
Q 5513 338 5991 -78 
z
" transform="scale(0.015625)"/>
       <path id="MicrosoftJhengHeiRegular-6e2c" d="M 5797 128 
Q 5797 -150 5633 -242 
Q 5469 -334 5038 -334 
Q 4800 -334 4563 -319 
L 4481 0 
Q 5288 0 5383 28 
Q 5478 56 5478 225 
L 5478 5253 
L 5797 5253 
L 5797 128 
z
M 1813 4453 
L 1581 4206 
Q 1156 4666 609 5013 
L 794 5253 
Q 1409 4906 1813 4453 
z
M 3853 1075 
L 2578 1075 
L 2766 947 
Q 2406 209 1863 -353 
L 1600 -134 
Q 2138 397 2463 1075 
L 2016 1075 
L 2016 5125 
L 3853 5125 
L 3853 1075 
z
M 3541 3928 
L 3541 4813 
L 2338 4813 
L 2338 3928 
L 3541 3928 
z
M 3541 2681 
L 3541 3609 
L 2338 3609 
L 2338 2681 
L 3541 2681 
z
M 3541 1394 
L 3541 2369 
L 2338 2369 
L 2338 1394 
L 3541 1394 
z
M 4769 825 
L 4447 825 
L 4447 4844 
L 4769 4844 
L 4769 825 
z
M 1594 2803 
L 1356 2572 
Q 994 3019 403 3456 
L 622 3713 
Q 1266 3209 1594 2803 
z
M 1631 1747 
Q 1059 238 678 -325 
L 428 -109 
Q 959 753 1338 1906 
L 1631 1747 
z
M 4019 -25 
L 3744 -191 
Q 3513 350 3116 813 
L 3378 991 
Q 3816 463 4019 -25 
z
" transform="scale(0.015625)"/>
       <path id="MicrosoftJhengHeiRegular-8aa4" d="M 2463 4294 
L 441 4294 
L 441 4609 
L 1325 4609 
Q 1238 4888 1075 5222 
L 1394 5331 
Q 1591 4931 1691 4609 
L 2463 4609 
L 2463 4294 
z
M 5484 3469 
L 3572 3469 
L 3572 5131 
L 5484 5131 
L 5484 3469 
z
M 5172 3775 
L 5172 4813 
L 3891 4813 
L 3891 3775 
L 5172 3775 
z
M 6009 1394 
L 4269 1394 
Q 4038 75 2650 -313 
L 2456 -38 
Q 3716 225 3938 1394 
L 2497 1394 
L 2497 1709 
L 3988 1709 
Q 4028 1994 4050 2606 
L 2741 2606 
L 2741 4697 
L 3066 4697 
L 3066 2925 
L 5703 2925 
L 5703 1709 
L 6009 1709 
L 6009 1394 
z
M 5369 1709 
L 5369 2606 
L 4384 2606 
Q 4359 2109 4325 1709 
L 5369 1709 
z
M 2322 3366 
L 569 3366 
L 569 3681 
L 2322 3681 
L 2322 3366 
z
M 2322 2438 
L 575 2438 
L 575 2753 
L 2322 2753 
L 2322 2438 
z
M 2216 -184 
L 1894 -184 
L 1894 172 
L 959 172 
L 959 -306 
L 641 -306 
L 641 1831 
L 2216 1831 
L 2216 -184 
z
M 1894 494 
L 1894 1509 
L 959 1509 
L 959 494 
L 1894 494 
z
M 5966 -109 
L 5728 -331 
Q 5384 72 4494 775 
L 4684 1019 
Q 5438 478 5966 -109 
z
" transform="scale(0.015625)"/>
       <path id="MicrosoftJhengHeiRegular-5dee" d="M 4916 5113 
Q 4613 4759 4281 4556 
L 4006 4769 
Q 4378 5009 4634 5319 
L 4916 5113 
z
M 2566 4728 
L 2284 4538 
Q 2078 4813 1703 5106 
L 1978 5313 
Q 2378 4997 2566 4728 
z
M 5997 2138 
L 2094 2138 
Q 2009 684 678 -166 
L 434 97 
Q 1688 828 1753 2138 
L 488 2138 
L 488 2444 
L 3072 2444 
L 3072 3116 
L 878 3116 
L 878 3431 
L 3072 3431 
L 3072 4103 
L 684 4103 
L 684 4409 
L 5819 4409 
L 5819 4103 
L 3406 4103 
L 3406 3431 
L 5569 3431 
L 5569 3116 
L 3406 3116 
L 3406 2444 
L 5997 2444 
L 5997 2138 
z
M 6009 -213 
L 1684 -213 
L 1684 103 
L 3681 103 
L 3681 1131 
L 2228 1131 
L 2228 1453 
L 5703 1453 
L 5703 1131 
L 4031 1131 
L 4031 103 
L 6009 103 
L 6009 -213 
z
" transform="scale(0.015625)"/>
       <path id="MicrosoftJhengHeiRegular-20" transform="scale(0.015625)"/>
       <path id="MicrosoftJhengHeiRegular-28" d="M 1513 -1100 
Q 469 94 469 1847 
Q 469 3609 1513 4841 
L 1988 4841 
Q 925 3556 925 1853 
Q 925 159 1981 -1100 
L 1513 -1100 
z
" transform="scale(0.015625)"/>
       <path id="MicrosoftJhengHeiRegular-516c" d="M 2663 5153 
Q 2097 3406 628 2350 
L 372 2606 
Q 1781 3563 2328 5269 
L 2663 5153 
z
M 6047 2656 
L 5831 2375 
Q 4681 3125 3994 4844 
L 3566 4844 
L 3566 5191 
L 4256 5191 
Q 4819 3456 6047 2656 
z
M 5569 -213 
L 5269 -384 
Q 5069 109 4872 428 
Q 3059 -41 1269 -197 
L 1172 128 
Q 2150 1278 3041 3419 
L 3366 3278 
Q 2556 1356 1672 184 
Q 2909 272 4703 728 
Q 4416 1238 3922 1913 
L 4219 2088 
Q 5106 866 5569 -213 
z
" transform="scale(0.015625)"/>
       <path id="MicrosoftJhengHeiRegular-5c3a" d="M 6053 -31 
L 5856 -366 
Q 4309 13 3332 755 
Q 2356 1497 1797 2772 
L 1656 2772 
Q 1609 656 666 -306 
L 409 -63 
Q 1313 831 1313 3066 
L 1313 5125 
L 5581 5125 
L 5581 2772 
L 2169 2772 
Q 2891 1341 3995 739 
Q 5100 138 6053 -31 
z
M 5228 3116 
L 5228 4788 
L 1678 4788 
L 1678 3116 
L 5228 3116 
z
" transform="scale(0.015625)"/>
       <path id="MicrosoftJhengHeiRegular-29" d="M 84 -1100 
Q 1138 153 1138 1853 
Q 1138 3563 75 4841 
L 553 4841 
Q 1603 3609 1603 1847 
Q 1603 97 553 -1100 
L 84 -1100 
z
" transform="scale(0.015625)"/>
      </defs>
      <use xlink:href="#MicrosoftJhengHeiRegular-4f4d"/>
      <use xlink:href="#MicrosoftJhengHeiRegular-7f6e" x="100"/>
      <use xlink:href="#MicrosoftJhengHeiRegular-9810" x="200"/>
      <use xlink:href="#MicrosoftJhengHeiRegular-6e2c" x="300"/>
      <use xlink:href="#MicrosoftJhengHeiRegular-8aa4" x="400"/>
      <use xlink:href="#MicrosoftJhengHeiRegular-5dee" x="500"/>
      <use xlink:href="#MicrosoftJhengHeiRegular-20" x="600"/>
      <use xlink:href="#MicrosoftJhengHeiRegular-28" x="625"/>
      <use xlink:href="#MicrosoftJhengHeiRegular-516c" x="657.080078"/>
      <use xlink:href="#MicrosoftJhengHeiRegular-5c3a" x="757.080078"/>
      <use xlink:href="#MicrosoftJhengHeiRegular-29" x="857.080078"/>
     </g>
    </g>
   </g>
   <g id="matplotlib.axis_2">
    <g id="ytick_1">
     <g id="line2d_15">
      <path d="M 46.065625 527.0725 
L 836.195625 527.0725 
" clip-path="url(#pe1cb415c2c)" style="fill: none; stroke: #b0b0b0; stroke-opacity: 0.3; stroke-width: 0.8; stroke-linecap: square"/>
     </g>
     <g id="line2d_16">
      <defs>
       <path id="m92467faed4" d="M 0 0 
L -3.5 0 
" style="stroke: #000000; stroke-width: 0.8"/>
      </defs>
      <g>
       <use xlink:href="#m92467faed4" x="46.065625" y="527.0725" style="stroke: #000000; stroke-width: 0.8"/>
      </g>
     </g>
     <g id="text_9">
      <!-- 0 -->
      <g transform="translate(33.270313 531.069375) scale(0.1 -0.1)">
       <use xlink:href="#MicrosoftJhengHeiRegular-30"/>
      </g>
     </g>
    </g>
    <g id="ytick_2">
     <g id="line2d_17">
      <path d="M 46.065625 426.2165 
L 836.195625 426.2165 
" clip-path="url(#pe1cb415c2c)" style="fill: none; stroke: #b0b0b0; stroke-opacity: 0.3; stroke-width: 0.8; stroke-linecap: square"/>
     </g>
     <g id="line2d_18">
      <g>
       <use xlink:href="#m92467faed4" x="46.065625" y="426.2165" style="stroke: #000000; stroke-width: 0.8"/>
      </g>
     </g>
     <g id="text_10">
      <!-- 20 -->
      <g transform="translate(27.475 430.213375) scale(0.1 -0.1)">
       <use xlink:href="#MicrosoftJhengHeiRegular-32"/>
       <use xlink:href="#MicrosoftJhengHeiRegular-30" x="57.958984"/>
      </g>
     </g>
    </g>
    <g id="ytick_3">
     <g id="line2d_19">
      <path d="M 46.065625 325.3605 
L 836.195625 325.3605 
" clip-path="url(#pe1cb415c2c)" style="fill: none; stroke: #b0b0b0; stroke-opacity: 0.3; stroke-width: 0.8; stroke-linecap: square"/>
     </g>
     <g id="line2d_20">
      <g>
       <use xlink:href="#m92467faed4" x="46.065625" y="325.3605" style="stroke: #000000; stroke-width: 0.8"/>
      </g>
     </g>
     <g id="text_11">
      <!-- 40 -->
      <g transform="translate(27.475 329.357375) scale(0.1 -0.1)">
       <defs>
        <path id="MicrosoftJhengHeiRegular-34" d="M 3472 1300 
L 2847 1300 
L 2847 0 
L 2328 0 
L 2328 1300 
L 41 1300 
L 41 1644 
L 2203 4841 
L 2847 4841 
L 2847 1731 
L 3472 1731 
L 3472 1300 
z
M 2328 1731 
L 2328 3863 
Q 2328 4084 2341 4366 
L 2328 4366 
Q 2303 4297 2144 3994 
L 622 1731 
L 2328 1731 
z
" transform="scale(0.015625)"/>
       </defs>
       <use xlink:href="#MicrosoftJhengHeiRegular-34"/>
       <use xlink:href="#MicrosoftJhengHeiRegular-30" x="57.958984"/>
      </g>
     </g>
    </g>
    <g id="ytick_4">
     <g id="line2d_21">
      <path d="M 46.065625 224.5045 
L 836.195625 224.5045 
" clip-path="url(#pe1cb415c2c)" style="fill: none; stroke: #b0b0b0; stroke-opacity: 0.3; stroke-width: 0.8; stroke-linecap: square"/>
     </g>
     <g id="line2d_22">
      <g>
       <use xlink:href="#m92467faed4" x="46.065625" y="224.5045" style="stroke: #000000; stroke-width: 0.8"/>
      </g>
     </g>
     <g id="text_12">
      <!-- 60 -->
      <g transform="translate(27.475 228.501375) scale(0.1 -0.1)">
       <defs>
        <path id="MicrosoftJhengHeiRegular-36" d="M 3138 4284 
Q 2756 4475 2347 4475 
Q 1681 4475 1297 3892 
Q 913 3309 916 2328 
L 931 2328 
Q 1266 3022 2041 3022 
Q 2675 3022 3053 2609 
Q 3431 2197 3431 1525 
Q 3431 834 3006 376 
Q 2581 -81 1922 -81 
Q 1166 -81 770 509 
Q 375 1100 375 2125 
Q 375 3353 890 4137 
Q 1406 4922 2338 4922 
Q 2844 4922 3138 4781 
L 3138 4284 
z
M 953 1584 
Q 953 1072 1226 717 
Q 1500 363 1941 363 
Q 2369 363 2631 675 
Q 2894 988 2894 1459 
Q 2894 1988 2637 2281 
Q 2381 2575 1934 2575 
Q 1525 2575 1239 2287 
Q 953 2000 953 1584 
z
" transform="scale(0.015625)"/>
       </defs>
       <use xlink:href="#MicrosoftJhengHeiRegular-36"/>
       <use xlink:href="#MicrosoftJhengHeiRegular-30" x="57.958984"/>
      </g>
     </g>
    </g>
    <g id="ytick_5">
     <g id="line2d_23">
      <path d="M 46.065625 123.6485 
L 836.195625 123.6485 
" clip-path="url(#pe1cb415c2c)" style="fill: none; stroke: #b0b0b0; stroke-opacity: 0.3; stroke-width: 0.8; stroke-linecap: square"/>
     </g>
     <g id="line2d_24">
      <g>
       <use xlink:href="#m92467faed4" x="46.065625" y="123.6485" style="stroke: #000000; stroke-width: 0.8"/>
      </g>
     </g>
     <g id="text_13">
      <!-- 80 -->
      <g transform="translate(27.475 127.645375) scale(0.1 -0.1)">
       <defs>
        <path id="MicrosoftJhengHeiRegular-38" d="M 1394 2550 
Q 519 2963 519 3731 
Q 519 4263 925 4592 
Q 1331 4922 1931 4922 
Q 2469 4922 2841 4614 
Q 3213 4306 3213 3806 
Q 3213 3000 2313 2550 
L 2313 2538 
Q 3372 2138 3372 1225 
Q 3372 606 2931 262 
Q 2491 -81 1753 -81 
Q 1150 -81 745 267 
Q 341 616 341 1178 
Q 341 2109 1394 2538 
L 1394 2550 
z
M 2672 3738 
Q 2672 4081 2455 4276 
Q 2238 4472 1878 4472 
Q 1547 4472 1303 4267 
Q 1059 4063 1059 3750 
Q 1059 3106 1856 2778 
Q 2672 3122 2672 3738 
z
M 1819 2284 
Q 878 1909 878 1203 
Q 878 813 1159 589 
Q 1441 366 1875 366 
Q 2294 366 2566 589 
Q 2838 813 2838 1181 
Q 2838 1919 1819 2284 
z
" transform="scale(0.015625)"/>
       </defs>
       <use xlink:href="#MicrosoftJhengHeiRegular-38"/>
       <use xlink:href="#MicrosoftJhengHeiRegular-30" x="57.958984"/>
      </g>
     </g>
    </g>
    <g id="ytick_6">
     <g id="line2d_25">
      <path d="M 46.065625 22.7925 
L 836.195625 22.7925 
" clip-path="url(#pe1cb415c2c)" style="fill: none; stroke: #b0b0b0; stroke-opacity: 0.3; stroke-width: 0.8; stroke-linecap: square"/>
     </g>
     <g id="line2d_26">
      <g>
       <use xlink:href="#m92467faed4" x="46.065625" y="22.7925" style="stroke: #000000; stroke-width: 0.8"/>
      </g>
     </g>
     <g id="text_14">
      <!-- 100 -->
      <g transform="translate(21.679688 26.789375) scale(0.1 -0.1)">
       <use xlink:href="#MicrosoftJhengHeiRegular-31"/>
       <use xlink:href="#MicrosoftJhengHeiRegular-30" x="57.958984"/>
       <use xlink:href="#MicrosoftJhengHeiRegular-30" x="115.917969"/>
      </g>
     </g>
    </g>
    <g id="text_15">
     <!-- 累積百分比 (%) -->
     <g transform="translate(15.19375 308.791875) rotate(-90) scale(0.1 -0.1)">
      <defs>
       <path id="MicrosoftJhengHeiRegular-7d2f" d="M 5900 1088 
L 5672 863 
Q 5428 1166 5313 1281 
Q 4000 1156 3406 1113 
L 3406 172 
Q 3406 -119 3262 -223 
Q 3119 -328 2688 -328 
Q 2556 -328 2419 -319 
L 2291 25 
Q 2463 3 2716 3 
Q 2956 3 3014 45 
Q 3072 88 3072 172 
L 3072 1081 
Q 1841 1019 844 1019 
L 728 1325 
Q 1738 1513 3138 2119 
Q 2106 2016 1338 2009 
L 1247 2278 
Q 2072 2603 2747 3059 
L 1013 3059 
L 1013 5113 
L 5472 5113 
L 5472 3059 
L 3309 3059 
Q 2581 2547 1819 2259 
L 2353 2303 
L 3541 2422 
Q 3922 2466 4025 2509 
L 4603 2791 
L 4863 2591 
Q 2978 1647 1625 1288 
Q 3359 1356 5031 1544 
Q 4778 1784 4525 1966 
L 4756 2188 
Q 5384 1734 5900 1088 
z
M 5147 4238 
L 5147 4800 
L 3397 4800 
L 3397 4238 
L 5147 4238 
z
M 3066 4238 
L 3066 4800 
L 1338 4800 
L 1338 4238 
L 3066 4238 
z
M 5147 3372 
L 5147 3938 
L 3397 3938 
L 3397 3372 
L 5147 3372 
z
M 3066 3372 
L 3066 3938 
L 1338 3938 
L 1338 3372 
L 3066 3372 
z
M 6016 38 
L 5819 -225 
Q 5069 222 3938 588 
L 4122 850 
Q 5219 497 6016 38 
z
M 2541 634 
Q 1834 181 628 -147 
L 441 134 
Q 1606 434 2259 825 
L 2541 634 
z
" transform="scale(0.015625)"/>
       <path id="MicrosoftJhengHeiRegular-7a4d" d="M 6009 3238 
L 2484 3238 
L 2484 3513 
L 4097 3513 
L 4097 3909 
L 2772 3909 
L 2772 4184 
L 4097 4184 
L 4097 4556 
L 2619 4556 
L 2619 4831 
L 4097 4831 
L 4097 5288 
L 4416 5288 
L 4416 4831 
L 5863 4831 
L 5863 4556 
L 4416 4556 
L 4416 4184 
L 5703 4184 
L 5703 3909 
L 4416 3909 
L 4416 3513 
L 6009 3513 
L 6009 3238 
z
M 2528 2113 
L 2356 1825 
Q 2016 2281 1650 2619 
L 1650 -319 
L 1319 -319 
L 1319 2484 
Q 1019 1741 622 1184 
L 378 1416 
Q 906 2163 1319 3353 
L 441 3353 
L 441 3659 
L 1319 3659 
L 1319 4628 
Q 947 4528 641 4488 
L 481 4769 
Q 1656 5006 2188 5241 
L 2400 4984 
Q 2072 4838 1650 4722 
L 1650 3659 
L 2222 3659 
L 2222 3353 
L 1650 3353 
L 1650 3028 
Q 2234 2497 2528 2113 
z
M 5644 538 
L 3769 538 
L 3922 359 
Q 3150 -100 2425 -306 
L 2247 -31 
Q 3025 203 3609 538 
L 2834 538 
L 2834 2875 
L 5644 2875 
L 5644 538 
z
M 5325 2175 
L 5325 2578 
L 3150 2578 
L 3150 2175 
L 5325 2175 
z
M 5325 1497 
L 5325 1900 
L 3150 1900 
L 3150 1497 
L 5325 1497 
z
M 5325 819 
L 5325 1228 
L 3150 1228 
L 3150 819 
L 5325 819 
z
M 5997 -50 
L 5838 -331 
Q 5331 -94 4513 116 
L 4647 409 
Q 5513 172 5997 -50 
z
" transform="scale(0.015625)"/>
       <path id="MicrosoftJhengHeiRegular-767e" d="M 6028 4775 
L 3481 4775 
Q 3213 4175 2913 3647 
L 5422 3647 
L 5422 -331 
L 5088 -331 
L 5088 103 
L 1381 103 
L 1381 -331 
L 1044 -331 
L 1044 3647 
L 2522 3647 
Q 2891 4222 3097 4775 
L 481 4775 
L 481 5106 
L 6028 5106 
L 6028 4775 
z
M 5088 2113 
L 5088 3316 
L 1381 3316 
L 1381 2113 
L 5088 2113 
z
M 5088 447 
L 5088 1778 
L 1381 1778 
L 1381 447 
L 5088 447 
z
" transform="scale(0.015625)"/>
       <path id="MicrosoftJhengHeiRegular-5206" d="M 2688 5141 
Q 1919 3378 647 2503 
L 416 2766 
Q 1650 3591 2350 5241 
L 2688 5141 
z
M 6047 2809 
L 5819 2522 
Q 4553 3422 4063 4878 
L 3584 4878 
L 3584 5222 
L 4300 5222 
Q 4778 3628 6047 2809 
z
M 5013 2894 
Q 4997 1866 4890 1047 
Q 4784 228 4681 31 
Q 4578 -166 4395 -250 
Q 4213 -334 3759 -334 
Q 3563 -334 3250 -319 
L 3175 25 
Q 3525 -6 3822 -6 
Q 4109 -6 4192 31 
Q 4275 69 4336 139 
Q 4397 209 4472 557 
Q 4547 906 4592 1420 
Q 4638 1934 4653 2553 
L 3009 2553 
Q 2794 669 897 -409 
L 691 -141 
Q 2450 847 2644 2553 
L 1434 2553 
L 1434 2894 
L 5013 2894 
z
" transform="scale(0.015625)"/>
       <path id="MicrosoftJhengHeiRegular-6bd4" d="M 6009 1556 
Q 6009 1166 5948 714 
Q 5888 263 5820 131 
Q 5753 0 5609 -111 
Q 5466 -222 4983 -233 
Q 4500 -244 4366 -244 
Q 3959 -244 3787 -226 
Q 3616 -209 3497 -71 
Q 3378 66 3378 263 
L 3378 5275 
L 3719 5275 
L 3719 3391 
L 5791 3391 
L 5791 3053 
L 3719 3053 
L 3719 288 
Q 3719 184 3795 140 
Q 3872 97 4438 97 
Q 5050 97 5294 125 
Q 5538 153 5600 573 
Q 5663 994 5663 1663 
L 6009 1556 
z
M 3047 581 
Q 1769 -13 794 -347 
L 641 25 
Q 738 116 738 213 
L 738 5275 
L 1081 5275 
L 1081 3391 
L 2950 3391 
L 2950 3053 
L 1081 3053 
L 1081 128 
Q 1753 341 2950 922 
L 3047 581 
z
" transform="scale(0.015625)"/>
       <path id="MicrosoftJhengHeiRegular-25" d="M 266 3625 
Q 266 4219 580 4566 
Q 894 4913 1425 4913 
Q 1938 4913 2223 4589 
Q 2509 4266 2509 3694 
Q 2509 3125 2192 2770 
Q 1875 2416 1356 2416 
Q 856 2416 561 2748 
Q 266 3081 266 3625 
z
M 700 3656 
Q 700 3241 886 3008 
Q 1072 2775 1391 2775 
Q 1716 2775 1897 3014 
Q 2078 3253 2078 3678 
Q 2078 4097 1898 4328 
Q 1719 4559 1403 4559 
Q 1081 4559 890 4312 
Q 700 4066 700 3656 
z
M 4578 4841 
L 1478 -38 
L 1016 -38 
L 4116 4841 
L 4578 4841 
z
M 3144 1134 
Q 3144 1725 3456 2079 
Q 3769 2434 4297 2434 
Q 4806 2434 5093 2106 
Q 5381 1778 5381 1197 
Q 5381 625 5061 275 
Q 4741 -75 4231 -75 
Q 3741 -75 3442 256 
Q 3144 588 3144 1134 
z
M 3572 1163 
Q 3572 756 3761 522 
Q 3950 288 4263 288 
Q 4588 288 4769 530 
Q 4950 772 4950 1194 
Q 4950 1616 4772 1841 
Q 4594 2066 4278 2066 
Q 3947 2066 3759 1823 
Q 3572 1581 3572 1163 
z
" transform="scale(0.015625)"/>
      </defs>
      <use xlink:href="#MicrosoftJhengHeiRegular-7d2f"/>
      <use xlink:href="#MicrosoftJhengHeiRegular-7a4d" x="100"/>
      <use xlink:href="#MicrosoftJhengHeiRegular-767e" x="200"/>
      <use xlink:href="#MicrosoftJhengHeiRegular-5206" x="300"/>
      <use xlink:href="#MicrosoftJhengHeiRegular-6bd4" x="400"/>
      <use xlink:href="#MicrosoftJhengHeiRegular-20" x="500"/>
      <use xlink:href="#MicrosoftJhengHeiRegular-28" x="525"/>
      <use xlink:href="#MicrosoftJhengHeiRegular-25" x="557.080078"/>
      <use xlink:href="#MicrosoftJhengHeiRegular-29" x="645.117188"/>
     </g>
    </g>
   </g>
   <g id="line2d_27">
    <path d="M 79.674695 524.682547 
L 91.979007 522.292595 
L 98.639955 519.902642 
L 107.394687 517.51269 
L 108.873242 515.122737 
L 114.222483 512.732784 
L 132.593919 510.342832 
L 138.413861 507.952879 
L 139.950642 505.562927 
L 140.399905 503.172974 
L 148.798263 500.783021 
L 150.304247 498.393069 
L 151.012319 496.003116 
L 152.524937 493.613164 
L 153.178218 491.223211 
L 161.58813 488.833258 
L 164.954515 486.443306 
L 165.882443 484.053353 
L 167.061226 481.6634 
L 167.635047 479.273448 
L 168.523555 476.883495 
L 170.566398 474.493543 
L 174.812078 472.10359 
L 185.551602 469.713637 
L 187.69811 467.323685 
L 193.928436 464.933732 
L 194.88432 462.54378 
L 197.594085 460.153827 
L 200.789016 457.763874 
L 204.812671 455.373922 
L 214.129417 452.983969 
L 214.399237 450.594017 
L 218.91052 448.204064 
L 221.391533 445.814111 
L 223.025434 443.424159 
L 223.811346 441.034206 
L 228.832832 438.644254 
L 228.950804 436.254301 
L 236.974393 433.864348 
L 237.135416 431.474396 
L 239.887905 429.084443 
L 240.837895 426.694491 
L 242.670128 424.304538 
L 243.54493 421.914585 
L 243.728226 419.524633 
L 244.414315 417.13468 
L 250.497094 414.744727 
L 251.992941 412.354775 
L 254.39241 409.964822 
L 259.200383 407.57487 
L 261.002456 405.184917 
L 263.372104 402.794964 
L 266.322163 400.405012 
L 267.026868 398.015059 
L 271.727353 393.235154 
L 278.653697 390.845201 
L 281.585875 388.455249 
L 282.90773 383.675344 
L 283.064218 381.285391 
L 288.164022 378.895438 
L 288.487967 376.505486 
L 289.068011 374.115533 
L 289.969323 371.725581 
L 290.055833 369.335628 
L 290.628783 366.945675 
L 292.032171 364.555723 
L 292.204606 362.16577 
L 293.287494 359.775818 
L 297.58719 357.385865 
L 299.838415 354.995912 
L 300.641621 352.60596 
L 300.970345 350.216007 
L 301.529213 347.826055 
L 310.363617 345.436102 
L 313.082607 343.046149 
L 313.978277 338.266244 
L 315.368275 335.876291 
L 321.614084 333.486339 
L 331.297478 331.096386 
L 333.375869 328.706434 
L 338.515773 326.316481 
L 349.47279 323.926528 
L 355.571152 321.536576 
L 355.675735 319.146623 
L 360.020751 316.756671 
L 363.773838 314.366718 
L 366.172004 311.976765 
L 367.052073 309.586813 
L 367.105263 307.19686 
L 374.795597 302.416955 
L 382.045589 300.027002 
L 390.51248 297.63705 
L 390.681973 295.247097 
L 400.859826 292.857145 
L 401.249901 290.467192 
L 402.331723 288.077239 
L 403.556973 285.687287 
L 403.774276 283.297334 
L 405.969886 280.907382 
L 409.220859 278.517429 
L 409.819429 276.127476 
L 412.729144 273.737524 
L 413.900783 271.347571 
L 415.838331 268.957618 
L 417.119708 266.567666 
L 417.367008 264.177713 
L 418.014962 261.787761 
L 419.763575 259.397808 
L 430.281734 257.007855 
L 434.316085 254.617903 
L 446.386308 252.22795 
L 447.420559 249.837998 
L 447.824076 247.448045 
L 460.120951 245.058092 
L 460.12353 242.66814 
L 467.428659 240.278187 
L 467.520145 237.888235 
L 468.162717 235.498282 
L 478.678275 233.108329 
L 479.320073 230.718377 
L 481.459408 228.328424 
L 485.132067 225.938472 
L 492.234202 223.548519 
L 494.446732 221.158566 
L 495.070125 218.768614 
L 501.572091 216.378661 
L 502.378817 213.988709 
L 506.768989 211.598756 
L 512.220048 209.208803 
L 513.048211 206.818851 
L 516.404607 204.428898 
L 517.342269 202.038945 
L 532.02596 199.648993 
L 534.18122 197.25904 
L 538.222572 194.869088 
L 540.63815 192.479135 
L 545.255904 190.089182 
L 551.356573 187.69923 
L 554.547336 185.309277 
L 558.259497 182.919325 
L 561.262187 180.529372 
L 562.777081 178.139419 
L 563.24656 175.749467 
L 569.015012 173.359514 
L 569.659157 170.969562 
L 574.499173 168.579609 
L 577.344832 166.189656 
L 583.972185 163.799704 
L 584.290242 161.409751 
L 585.76578 159.019799 
L 586.882234 156.629846 
L 587.819408 154.239893 
L 590.261845 151.849941 
L 590.631188 149.459988 
L 594.081019 147.070036 
L 594.187631 144.680083 
L 594.502443 142.29013 
L 598.280737 139.900178 
L 600.311666 137.510225 
L 601.482907 135.120273 
L 607.244778 132.73032 
L 609.398248 130.340367 
L 610.084167 127.950415 
L 610.895133 125.560462 
L 613.87459 123.170509 
L 617.309553 120.780557 
L 622.912132 118.390604 
L 624.715782 116.000652 
L 624.928788 113.610699 
L 626.448183 111.220746 
L 629.664996 108.830794 
L 632.439675 106.440841 
L 633.829652 104.050889 
L 635.64266 101.660936 
L 643.060885 99.270983 
L 652.656342 94.491078 
L 656.200155 92.101126 
L 657.366443 89.711173 
L 658.404246 87.32122 
L 660.886237 84.931268 
L 667.320631 82.541315 
L 667.697641 80.151363 
L 668.642788 77.76141 
L 670.833848 75.371457 
L 672.285706 72.981505 
L 682.564318 70.591552 
L 683.659559 68.2016 
L 685.36491 65.811647 
L 689.677759 63.421694 
L 689.838797 61.031742 
L 692.875575 58.641789 
L 699.342676 56.251836 
L 703.115679 53.861884 
L 704.856072 51.471931 
L 706.208253 49.081979 
L 706.507577 46.692026 
L 708.87962 44.302073 
L 709.001293 41.912121 
L 713.378047 39.522168 
L 723.467819 37.132216 
L 731.838242 32.35231 
L 752.350912 29.962358 
L 761.259216 27.572405 
L 793.248755 25.182453 
L 798.803524 22.7925 
L 798.803524 22.7925 
" clip-path="url(#pe1cb415c2c)" style="fill: none; stroke: #1f77b4; stroke-width: 2; stroke-linecap: square"/>
   </g>
   <g id="line2d_28">
    <path d="M 50.961513 524.682547 
L 78.95451 522.292595 
L 80.747559 519.902642 
L 102.395943 517.51269 
L 102.857315 515.122737 
L 104.910904 512.732784 
L 109.387436 510.342832 
L 110.960211 507.952879 
L 116.507834 505.562927 
L 117.350596 503.172974 
L 121.52784 500.783021 
L 124.600289 498.393069 
L 125.093787 496.003116 
L 130.436697 493.613164 
L 134.638155 491.223211 
L 138.369872 488.833258 
L 146.343635 486.443306 
L 157.069648 484.053353 
L 158.782703 481.6634 
L 159.085937 479.273448 
L 160.100529 476.883495 
L 169.384184 474.493543 
L 170.763241 472.10359 
L 172.07811 467.323685 
L 174.201025 464.933732 
L 174.801776 462.54378 
L 180.820986 460.153827 
L 187.544016 457.763874 
L 187.951799 455.373922 
L 190.460772 452.983969 
L 190.852141 450.594017 
L 192.685908 448.204064 
L 197.269787 445.814111 
L 197.604265 443.424159 
L 197.754648 441.034206 
L 201.120023 438.644254 
L 203.172062 436.254301 
L 203.769225 431.474396 
L 204.777339 429.084443 
L 205.222037 426.694491 
L 212.672296 421.914585 
L 214.574397 419.524633 
L 218.079224 417.13468 
L 222.76164 414.744727 
L 224.242085 412.354775 
L 228.759273 409.964822 
L 229.960733 407.57487 
L 230.699924 405.184917 
L 238.721707 402.794964 
L 238.902105 400.405012 
L 242.148265 398.015059 
L 242.472342 395.625107 
L 245.644864 393.235154 
L 250.196936 390.845201 
L 252.258691 388.455249 
L 255.595055 386.065296 
L 266.27415 383.675344 
L 267.168996 381.285391 
L 272.741742 376.505486 
L 274.844153 374.115533 
L 276.649436 371.725581 
L 277.51367 369.335628 
L 279.693183 366.945675 
L 279.776854 364.555723 
L 286.063359 362.16577 
L 293.488222 359.775818 
L 298.07385 357.385865 
L 301.253231 354.995912 
L 304.98863 352.60596 
L 311.349934 350.216007 
L 312.588222 347.826055 
L 313.194861 345.436102 
L 315.171821 343.046149 
L 315.798723 340.656197 
L 322.655122 338.266244 
L 325.001869 335.876291 
L 326.502531 333.486339 
L 328.135169 331.096386 
L 328.381521 328.706434 
L 338.973873 326.316481 
L 343.420878 321.536576 
L 349.288108 319.146623 
L 352.202853 316.756671 
L 354.347625 314.366718 
L 360.993103 311.976765 
L 364.179514 309.586813 
L 364.446764 307.19686 
L 364.599186 304.806908 
L 372.247541 302.416955 
L 375.492111 300.027002 
L 376.252518 297.63705 
L 378.035517 295.247097 
L 383.795768 292.857145 
L 385.429286 290.467192 
L 387.480944 288.077239 
L 392.358032 285.687287 
L 396.399282 283.297334 
L 397.820455 280.907382 
L 405.115058 278.517429 
L 405.636821 276.127476 
L 411.103425 273.737524 
L 413.670825 271.347571 
L 414.301907 268.957618 
L 420.242287 266.567666 
L 420.2953 264.177713 
L 421.248849 259.397808 
L 423.436261 254.617903 
L 424.45164 252.22795 
L 427.950046 249.837998 
L 429.230024 247.448045 
L 431.594246 245.058092 
L 432.685725 242.66814 
L 436.319671 240.278187 
L 436.451222 237.888235 
L 441.672622 235.498282 
L 443.73468 233.108329 
L 444.557989 230.718377 
L 447.189536 228.328424 
L 448.761674 225.938472 
L 449.45493 223.548519 
L 453.42214 221.158566 
L 454.468244 218.768614 
L 456.407728 216.378661 
L 459.273936 213.988709 
L 463.471082 211.598756 
L 470.738759 209.208803 
L 473.188097 206.818851 
L 474.243731 204.428898 
L 477.166199 202.038945 
L 479.531747 199.648993 
L 480.118733 197.25904 
L 484.168624 194.869088 
L 484.298102 192.479135 
L 486.947996 190.089182 
L 486.971442 187.69923 
L 493.488441 185.309277 
L 496.644889 182.919325 
L 497.704194 180.529372 
L 502.412974 178.139419 
L 509.762709 175.749467 
L 515.075921 173.359514 
L 516.383153 170.969562 
L 521.343325 166.189656 
L 522.230123 163.799704 
L 525.065752 161.409751 
L 528.609257 159.019799 
L 530.006506 156.629846 
L 530.849779 154.239893 
L 533.081284 151.849941 
L 533.134119 149.459988 
L 537.325524 147.070036 
L 539.568217 144.680083 
L 540.14316 142.29013 
L 542.301457 137.510225 
L 543.617647 135.120273 
L 544.520566 132.73032 
L 556.737036 130.340367 
L 557.894177 127.950415 
L 557.92565 125.560462 
L 559.161039 123.170509 
L 559.796514 120.780557 
L 561.13088 118.390604 
L 562.248331 116.000652 
L 563.026997 113.610699 
L 565.012787 111.220746 
L 566.228171 106.440841 
L 573.051875 104.050889 
L 574.435999 101.660936 
L 575.564276 99.270983 
L 586.924344 96.881031 
L 587.937566 94.491078 
L 587.99482 92.101126 
L 588.630774 89.711173 
L 588.634944 87.32122 
L 594.735574 84.931268 
L 597.121359 82.541315 
L 606.855645 80.151363 
L 606.894042 77.76141 
L 609.121618 75.371457 
L 615.11668 72.981505 
L 620.781061 70.591552 
L 621.433474 68.2016 
L 623.96512 65.811647 
L 624.335517 63.421694 
L 628.837551 61.031742 
L 630.533934 58.641789 
L 632.36937 56.251836 
L 636.319914 53.861884 
L 636.57592 51.471931 
L 646.447974 49.081979 
L 651.709666 46.692026 
L 652.253343 44.302073 
L 659.667882 41.912121 
L 662.81338 39.522168 
L 677.103248 37.132216 
L 689.902908 34.742263 
L 695.205543 32.35231 
L 697.671303 29.962358 
L 708.075794 27.572405 
L 716.254504 25.182453 
L 721.277036 22.7925 
L 721.277036 22.7925 
" clip-path="url(#pe1cb415c2c)" style="fill: none; stroke: #ff7f0e; stroke-width: 2; stroke-linecap: square"/>
   </g>
   <g id="line2d_29">
    <path d="M 58.622767 524.682547 
L 87.332521 522.292595 
L 93.43419 519.902642 
L 103.423056 517.51269 
L 103.899051 515.122737 
L 104.573854 512.732784 
L 109.92527 510.342832 
L 111.676094 507.952879 
L 121.134853 505.562927 
L 123.724648 503.172974 
L 125.836318 500.783021 
L 127.116932 498.393069 
L 131.177424 496.003116 
L 134.041148 493.613164 
L 135.460792 491.223211 
L 139.468653 488.833258 
L 144.066369 486.443306 
L 146.442528 484.053353 
L 148.560293 481.6634 
L 150.327489 479.273448 
L 159.687481 476.883495 
L 160.211914 474.493543 
L 162.946538 472.10359 
L 164.182843 469.713637 
L 166.148139 467.323685 
L 168.780854 464.933732 
L 169.877774 462.54378 
L 176.030754 460.153827 
L 176.062082 457.763874 
L 180.588458 455.373922 
L 183.819122 452.983969 
L 185.679436 450.594017 
L 186.158695 448.204064 
L 200.16859 445.814111 
L 205.795637 443.424159 
L 206.568326 441.034206 
L 208.786784 438.644254 
L 213.284046 436.254301 
L 217.303098 433.864348 
L 217.718673 431.474396 
L 218.576783 429.084443 
L 222.200013 426.694491 
L 223.401861 424.304538 
L 226.842229 421.914585 
L 231.829825 419.524633 
L 235.450279 417.13468 
L 237.619615 414.744727 
L 237.852165 412.354775 
L 242.507553 409.964822 
L 252.68578 407.57487 
L 255.665525 405.184917 
L 256.443668 402.794964 
L 256.861402 400.405012 
L 265.060663 398.015059 
L 268.337028 395.625107 
L 268.959097 393.235154 
L 272.03235 390.845201 
L 280.128629 388.455249 
L 284.273243 386.065296 
L 286.064741 383.675344 
L 286.840199 381.285391 
L 291.809378 378.895438 
L 291.854882 376.505486 
L 292.877869 374.115533 
L 300.397903 371.725581 
L 302.508397 369.335628 
L 303.340642 366.945675 
L 304.883449 364.555723 
L 307.602427 362.16577 
L 308.914742 359.775818 
L 311.319138 357.385865 
L 314.932681 354.995912 
L 315.586262 352.60596 
L 319.850579 347.826055 
L 325.258243 345.436102 
L 328.262245 343.046149 
L 331.920923 340.656197 
L 336.517485 338.266244 
L 336.526203 335.876291 
L 336.714701 333.486339 
L 339.038103 331.096386 
L 344.336187 328.706434 
L 346.182842 326.316481 
L 349.431925 323.926528 
L 351.922462 321.536576 
L 356.168284 319.146623 
L 361.657102 316.756671 
L 363.197678 314.366718 
L 371.693544 311.976765 
L 372.651797 309.586813 
L 375.973892 307.19686 
L 381.207808 304.806908 
L 385.209844 302.416955 
L 386.453885 300.027002 
L 390.404258 297.63705 
L 400.135782 292.857145 
L 407.414609 290.467192 
L 408.557633 288.077239 
L 409.532836 285.687287 
L 415.049297 283.297334 
L 415.857099 280.907382 
L 419.080375 278.517429 
L 421.293324 276.127476 
L 422.459422 273.737524 
L 425.7392 271.347571 
L 436.067732 268.957618 
L 438.206793 266.567666 
L 441.023573 264.177713 
L 442.950757 261.787761 
L 443.009588 259.397808 
L 445.263968 257.007855 
L 448.314501 254.617903 
L 449.599473 252.22795 
L 456.991731 249.837998 
L 460.646379 247.448045 
L 465.506986 245.058092 
L 466.389919 242.66814 
L 470.516199 240.278187 
L 473.205571 237.888235 
L 473.756779 235.498282 
L 477.381602 233.108329 
L 483.233245 230.718377 
L 487.792003 228.328424 
L 488.517079 225.938472 
L 492.801665 221.158566 
L 493.662582 218.768614 
L 494.977108 216.378661 
L 495.797756 213.988709 
L 496.42567 211.598756 
L 497.878632 209.208803 
L 501.346656 206.818851 
L 508.190552 204.428898 
L 510.725864 202.038945 
L 510.84878 199.648993 
L 514.294379 197.25904 
L 514.617085 194.869088 
L 520.671447 192.479135 
L 522.030078 190.089182 
L 525.392534 187.69923 
L 526.799385 185.309277 
L 527.278193 182.919325 
L 527.464728 180.529372 
L 528.339046 178.139419 
L 533.438167 175.749467 
L 537.976576 173.359514 
L 538.60022 170.969562 
L 540.271984 168.579609 
L 551.804989 166.189656 
L 557.041025 163.799704 
L 559.20037 159.019799 
L 559.506855 156.629846 
L 559.602708 154.239893 
L 561.205254 151.849941 
L 562.508341 149.459988 
L 563.653221 147.070036 
L 564.976486 144.680083 
L 567.024314 142.29013 
L 567.065251 139.900178 
L 569.306492 137.510225 
L 587.513066 135.120273 
L 589.450252 132.73032 
L 596.259981 130.340367 
L 597.115803 127.950415 
L 602.010069 125.560462 
L 603.024848 123.170509 
L 604.53979 120.780557 
L 610.354224 116.000652 
L 610.804357 113.610699 
L 615.473062 111.220746 
L 616.077474 108.830794 
L 617.193597 106.440841 
L 619.217438 104.050889 
L 623.599985 101.660936 
L 629.456277 99.270983 
L 629.903965 96.881031 
L 632.582457 94.491078 
L 634.106577 92.101126 
L 638.907974 89.711173 
L 642.68046 87.32122 
L 644.521578 84.931268 
L 645.067399 82.541315 
L 647.449564 80.151363 
L 649.05868 77.76141 
L 649.256542 75.371457 
L 650.089193 72.981505 
L 656.962623 70.591552 
L 658.6783 68.2016 
L 674.527309 65.811647 
L 680.339005 63.421694 
L 680.712885 61.031742 
L 681.878003 58.641789 
L 687.757067 56.251836 
L 692.570998 53.861884 
L 696.34606 51.471931 
L 713.673385 49.081979 
L 714.04768 46.692026 
L 714.70174 44.302073 
L 720.71089 41.912121 
L 725.921493 39.522168 
L 750.781437 37.132216 
L 756.162011 34.742263 
L 756.590567 32.35231 
L 758.940929 29.962358 
L 765.075841 27.572405 
L 768.114449 25.182453 
L 775.006298 22.7925 
L 775.006298 22.7925 
" clip-path="url(#pe1cb415c2c)" style="fill: none; stroke: #2ca02c; stroke-width: 2; stroke-linecap: square"/>
   </g>
   <g id="line2d_30">
    <path d="M 290.442606 527.0725 
L 290.442606 22.7925 
" clip-path="url(#pe1cb415c2c)" style="fill: none; stroke-dasharray: 5.55,2.4; stroke-dashoffset: 0; stroke: #808080; stroke-opacity: 0.5; stroke-width: 1.5"/>
   </g>
   <g id="line2d_31">
    <path d="M 534.819587 527.0725 
L 534.819587 22.7925 
" clip-path="url(#pe1cb415c2c)" style="fill: none; stroke-dasharray: 5.55,2.4; stroke-dashoffset: 0; stroke: #808080; stroke-opacity: 0.5; stroke-width: 1.5"/>
   </g>
   <g id="line2d_32">
    <path d="M 779.196568 527.0725 
L 779.196568 22.7925 
" clip-path="url(#pe1cb415c2c)" style="fill: none; stroke-dasharray: 5.55,2.4; stroke-dashoffset: 0; stroke: #808080; stroke-opacity: 0.5; stroke-width: 1.5"/>
   </g>
   <g id="patch_3">
    <path d="M 46.065625 527.0725 
L 46.065625 22.7925 
" style="fill: none; stroke: #000000; stroke-width: 0.8; stroke-linejoin: miter; stroke-linecap: square"/>
   </g>
   <g id="patch_4">
    <path d="M 836.195625 527.0725 
L 836.195625 22.7925 
" style="fill: none; stroke: #000000; stroke-width: 0.8; stroke-linejoin: miter; stroke-linecap: square"/>
   </g>
   <g id="patch_5">
    <path d="M 46.065625 527.0725 
L 836.195625 527.0725 
" style="fill: none; stroke: #000000; stroke-width: 0.8; stroke-linejoin: miter; stroke-linecap: square"/>
   </g>
   <g id="patch_6">
    <path d="M 46.065625 22.7925 
L 836.195625 22.7925 
" style="fill: none; stroke: #000000; stroke-width: 0.8; stroke-linejoin: miter; stroke-linecap: square"/>
   </g>
   <g id="text_16">
    <!-- 1.0m -->
    <g transform="translate(288.205262 501.8585) rotate(-90) scale(0.09 -0.09)">
     <defs>
      <path id="MicrosoftJhengHeiRegular-6d" d="M 5438 0 
L 4916 0 
L 4916 1984 
Q 4916 2588 4733 2841 
Q 4550 3094 4128 3094 
Q 3775 3094 3519 2762 
Q 3263 2431 3263 1975 
L 3263 0 
L 2744 0 
L 2744 2056 
Q 2744 3094 1941 3094 
Q 1572 3094 1330 2778 
Q 1088 2463 1088 1975 
L 1088 0 
L 566 0 
L 566 3456 
L 1088 3456 
L 1088 2909 
L 1103 2909 
Q 1466 3538 2172 3538 
Q 2509 3538 2779 3339 
Q 3050 3141 3147 2816 
Q 3531 3538 4297 3538 
Q 5438 3538 5438 2128 
L 5438 0 
z
" transform="scale(0.015625)"/>
     </defs>
     <use xlink:href="#MicrosoftJhengHeiRegular-31"/>
     <use xlink:href="#MicrosoftJhengHeiRegular-2e" x="57.958984"/>
     <use xlink:href="#MicrosoftJhengHeiRegular-30" x="81.005859"/>
     <use xlink:href="#MicrosoftJhengHeiRegular-6d" x="138.964844"/>
    </g>
   </g>
   <g id="text_17">
    <!-- 2.0m -->
    <g transform="translate(532.582243 501.8585) rotate(-90) scale(0.09 -0.09)">
     <use xlink:href="#MicrosoftJhengHeiRegular-32"/>
     <use xlink:href="#MicrosoftJhengHeiRegular-2e" x="57.958984"/>
     <use xlink:href="#MicrosoftJhengHeiRegular-30" x="81.005859"/>
     <use xlink:href="#MicrosoftJhengHeiRegular-6d" x="138.964844"/>
    </g>
   </g>
   <g id="text_18">
    <!-- 3.0m -->
    <g transform="translate(776.959224 501.8585) rotate(-90) scale(0.09 -0.09)">
     <use xlink:href="#MicrosoftJhengHeiRegular-33"/>
     <use xlink:href="#MicrosoftJhengHeiRegular-2e" x="57.958984"/>
     <use xlink:href="#MicrosoftJhengHeiRegular-30" x="81.005859"/>
     <use xlink:href="#MicrosoftJhengHeiRegular-6d" x="138.964844"/>
    </g>
   </g>
   <g id="text_19">
    <!-- 位置預測誤差累積分布函數 - 設備故障 25% -->
    <g transform="translate(325.804063 16.7925) scale(0.12 -0.12)">
     <defs>
      <path id="MicrosoftJhengHeiRegular-5e03" d="M 6022 4500 
L 6016 4159 
L 2925 4159 
Q 2453 3316 1931 2772 
L 3366 2772 
L 3366 3653 
L 3713 3653 
L 3713 2772 
L 5588 2772 
L 5588 544 
Q 5588 31 5044 31 
Q 4609 31 4481 38 
L 4353 403 
Q 4766 381 4956 381 
Q 5150 381 5198 412 
Q 5247 444 5247 513 
L 5247 2425 
L 3713 2425 
L 3713 -347 
L 3366 -347 
L 3366 2425 
L 1913 2425 
L 1913 31 
L 1556 31 
L 1556 2413 
Q 984 1956 691 1759 
L 459 2034 
Q 1797 2859 2522 4159 
L 453 4159 
L 453 4500 
L 2700 4500 
Q 2847 4784 3028 5325 
L 3366 5247 
Q 3250 4866 3084 4500 
L 6022 4500 
z
" transform="scale(0.015625)"/>
      <path id="MicrosoftJhengHeiRegular-51fd" d="M 4916 4800 
Q 4416 4303 3438 3578 
L 3438 1119 
Q 3438 834 3302 721 
Q 3166 609 2809 609 
Q 2666 609 2509 622 
L 2375 972 
Q 2566 956 2741 956 
Q 3000 956 3054 987 
Q 3109 1019 3109 1113 
L 3109 3769 
Q 3834 4250 4422 4800 
L 1600 4800 
L 1600 5125 
L 4916 5125 
L 4916 4800 
z
M 5709 -313 
L 5381 -313 
L 5381 -13 
L 738 -13 
L 738 4109 
L 1063 4109 
L 1063 306 
L 5381 306 
L 5381 4103 
L 5709 4103 
L 5709 -313 
z
M 2731 2994 
L 2484 2772 
Q 2044 3278 1528 3609 
L 1778 3834 
Q 2275 3522 2731 2994 
z
M 5113 3553 
Q 4609 3059 4044 2713 
L 3828 2975 
Q 4441 3356 4884 3781 
L 5113 3553 
z
M 5069 1331 
L 4831 1094 
Q 4297 1713 3756 2138 
L 3994 2381 
Q 4628 1881 5069 1331 
z
M 2784 2075 
Q 2184 1453 1600 1106 
L 1403 1375 
Q 1988 1697 2559 2322 
L 2784 2075 
z
" transform="scale(0.015625)"/>
      <path id="MicrosoftJhengHeiRegular-6578" d="M 6000 3928 
L 5706 3928 
Q 5641 1925 5031 834 
Q 5369 344 5988 -81 
L 5800 -344 
Q 5184 41 4816 563 
Q 4359 53 3719 -344 
L 3525 -81 
Q 4228 369 4625 841 
Q 4188 1703 4091 2634 
L 4391 2738 
Q 4563 1675 4841 1150 
Q 5134 1669 5266 2466 
Q 5356 3009 5397 3928 
L 4525 3928 
Q 4219 3150 3831 2666 
L 3578 2853 
Q 4194 3653 4563 5291 
L 4872 5234 
Q 4806 4831 4625 4244 
L 6000 4244 
L 6000 3928 
z
M 3863 3947 
L 3428 3947 
L 3428 3216 
L 2322 3216 
L 2322 2838 
L 3431 2838 
L 3431 1856 
L 2306 1856 
Q 2128 1569 1978 1378 
L 2759 1378 
Q 2813 1469 2853 1606 
L 3172 1528 
Q 3159 1447 3128 1378 
L 3806 1378 
L 3806 1094 
L 2997 1094 
Q 2766 650 2416 375 
Q 2963 128 3338 -81 
L 3128 -319 
Q 2663 -56 2125 166 
Q 1525 -203 603 -319 
L 484 -16 
Q 1294 88 1753 319 
Q 1278 519 900 634 
Q 1069 813 1313 1094 
L 428 1094 
L 428 1378 
L 1559 1378 
Q 1756 1628 1906 1856 
L 881 1856 
L 881 2838 
L 2006 2838 
L 2006 3216 
L 881 3216 
L 881 3947 
L 428 3947 
L 428 4244 
L 881 4244 
L 881 4919 
L 2006 4919 
L 2006 5266 
L 2322 5266 
L 2322 4919 
L 3428 4919 
L 3428 4244 
L 3863 4244 
L 3863 3947 
z
M 3113 4244 
L 3113 4641 
L 2322 4641 
L 2322 4244 
L 3113 4244 
z
M 3113 3506 
L 3113 3947 
L 2322 3947 
L 2322 3506 
L 3113 3506 
z
M 2006 4244 
L 2006 4641 
L 1200 4641 
L 1200 4244 
L 2006 4244 
z
M 2006 3506 
L 2006 3947 
L 1200 3947 
L 1200 3506 
L 2006 3506 
z
M 3113 2147 
L 3113 2547 
L 2322 2547 
L 2322 2147 
L 3113 2147 
z
M 2006 2147 
L 2006 2547 
L 1203 2547 
L 1203 2147 
L 2006 2147 
z
M 2606 1094 
L 1744 1094 
Q 1672 1000 1463 753 
Q 1738 669 2072 531 
Q 2388 731 2606 1094 
z
" transform="scale(0.015625)"/>
      <path id="MicrosoftJhengHeiRegular-2d" d="M 2328 1722 
L 488 1722 
L 488 2138 
L 2328 2138 
L 2328 1722 
z
" transform="scale(0.015625)"/>
      <path id="MicrosoftJhengHeiRegular-8a2d" d="M 2700 4294 
L 434 4294 
L 434 4628 
L 1434 4628 
Q 1350 4906 1178 5191 
L 1472 5325 
Q 1663 5016 1784 4628 
L 2700 4628 
L 2700 4294 
z
M 5978 2950 
L 5356 2950 
Q 4897 2950 4897 3391 
L 4897 4769 
L 3769 4769 
Q 3753 3884 3533 3454 
Q 3313 3025 2925 2778 
L 2675 3009 
Q 3056 3250 3261 3670 
Q 3466 4091 3450 5088 
L 5216 5088 
L 5216 3488 
Q 5216 3272 5428 3272 
L 5978 3272 
L 5978 2950 
z
M 2528 3366 
L 563 3366 
L 563 3688 
L 2528 3688 
L 2528 3366 
z
M 2522 2425 
L 556 2425 
L 556 2747 
L 2522 2747 
L 2522 2425 
z
M 6003 -72 
L 5813 -347 
Q 4841 -25 4313 391 
Q 3697 -47 2778 -313 
L 2578 -38 
Q 3544 247 4031 616 
Q 3369 1225 3066 2247 
L 2847 2247 
L 2847 2572 
L 5528 2572 
L 5528 2247 
Q 5116 1125 4569 609 
Q 5113 219 6003 -72 
z
M 5166 2247 
L 3406 2247 
Q 3738 1303 4306 825 
Q 4878 1353 5166 2247 
z
M 2431 -191 
L 2100 -191 
L 2100 159 
L 941 159 
L 941 -313 
L 609 -313 
L 609 1819 
L 2431 1819 
L 2431 -191 
z
M 2100 488 
L 2100 1478 
L 941 1478 
L 941 488 
L 2100 488 
z
" transform="scale(0.015625)"/>
      <path id="MicrosoftJhengHeiRegular-5099" d="M 1825 5241 
L 1472 4056 
L 1472 -325 
L 1141 -325 
L 1141 3263 
Q 856 2681 616 2328 
L 384 2591 
Q 1094 3663 1509 5356 
L 1825 5241 
z
M 5991 3378 
L 3163 3378 
Q 2984 3059 2834 2859 
L 5613 2859 
L 5613 159 
Q 5613 16 5531 -118 
Q 5450 -253 5314 -300 
Q 5178 -347 4763 -331 
L 4628 -13 
Q 4841 -22 4991 -22 
Q 5300 -22 5300 197 
L 5300 850 
L 4250 850 
L 4250 -256 
L 3928 -256 
L 3928 850 
L 2747 850 
Q 2541 144 2075 -359 
L 1844 -141 
Q 2578 672 2578 1850 
L 2578 2541 
Q 2241 2100 1825 1747 
L 1606 1978 
Q 2309 2578 2816 3378 
L 1759 3378 
L 1759 3694 
L 2963 3694 
L 2963 4325 
L 1900 4325 
L 1900 4647 
L 2963 4647 
L 2963 5269 
L 3291 5269 
L 3291 4647 
L 4513 4647 
L 4513 5269 
L 4844 5269 
L 4844 4647 
L 5856 4647 
L 5856 4325 
L 4844 4325 
L 4844 3694 
L 5991 3694 
L 5991 3378 
z
M 4513 3694 
L 4513 4325 
L 3291 4325 
L 3291 3694 
L 4513 3694 
z
M 5300 2022 
L 5300 2553 
L 4250 2553 
L 4250 2022 
L 5300 2022 
z
M 3928 2022 
L 3928 2553 
L 2900 2553 
L 2900 2022 
L 3928 2022 
z
M 5300 1166 
L 5300 1709 
L 4250 1709 
L 4250 1166 
L 5300 1166 
z
M 3928 1166 
L 3928 1709 
L 2888 1709 
Q 2875 1400 2822 1166 
L 3928 1166 
z
" transform="scale(0.015625)"/>
      <path id="MicrosoftJhengHeiRegular-6545" d="M 6053 -72 
L 5838 -372 
Q 4972 122 4525 684 
Q 3984 81 3169 -359 
L 2925 -91 
Q 3828 369 4306 953 
Q 3853 1591 3609 2669 
L 3922 2772 
Q 4131 1806 4506 1234 
Q 5088 2150 5253 3909 
L 3994 3909 
Q 3728 3138 3250 2419 
L 2981 2619 
Q 3744 3775 4019 5288 
L 4366 5269 
Q 4266 4769 4109 4238 
L 5966 4238 
L 5966 3909 
L 5594 3909 
Q 5372 1900 4709 947 
Q 5228 350 6053 -72 
z
M 3097 3878 
L 1919 3878 
L 1919 2559 
L 2797 2559 
L 2797 -6 
L 2463 -6 
L 2463 403 
L 1050 403 
L 1050 -172 
L 716 -172 
L 716 2559 
L 1606 2559 
L 1606 3878 
L 453 3878 
L 453 4213 
L 1606 4213 
L 1606 5275 
L 1919 5275 
L 1919 4213 
L 3097 4213 
L 3097 3878 
z
M 2463 738 
L 2463 2228 
L 1050 2228 
L 1050 738 
L 2463 738 
z
" transform="scale(0.015625)"/>
      <path id="MicrosoftJhengHeiRegular-969c" d="M 5984 3584 
L 2266 3584 
L 2266 3891 
L 3309 3891 
Q 3175 4238 2994 4506 
L 2472 4506 
L 2472 4819 
L 3916 4819 
Q 3828 4966 3700 5141 
L 4000 5306 
Q 4194 5063 4306 4819 
L 5850 4819 
L 5850 4506 
L 5288 4506 
Q 5097 4094 4978 3891 
L 5984 3891 
L 5984 3584 
z
M 4928 4506 
L 3347 4506 
Q 3506 4222 3647 3891 
L 4634 3891 
Q 4822 4206 4928 4506 
z
M 1697 3291 
Q 2234 2550 2234 1863 
Q 2234 1556 2054 1331 
Q 1875 1106 1209 1147 
L 1088 1478 
Q 1331 1466 1466 1466 
Q 1716 1466 1819 1583 
Q 1922 1700 1922 1894 
Q 1922 2159 1764 2545 
Q 1606 2931 1356 3238 
Q 1616 3994 1850 4813 
L 953 4813 
L 953 -306 
L 634 -306 
L 634 5131 
L 2194 5131 
L 2194 4813 
Q 1997 4150 1697 3291 
z
M 5997 550 
L 4256 550 
L 4256 -331 
L 3938 -331 
L 3938 550 
L 2259 550 
L 2259 872 
L 3938 872 
L 3938 1319 
L 2644 1319 
L 2644 3156 
L 5656 3156 
L 5656 1319 
L 4256 1319 
L 4256 872 
L 5997 872 
L 5997 550 
z
M 5319 2400 
L 5319 2853 
L 2956 2853 
L 2956 2400 
L 5319 2400 
z
M 5319 1631 
L 5319 2113 
L 2956 2113 
L 2956 1631 
L 5319 1631 
z
" transform="scale(0.015625)"/>
     </defs>
     <use xlink:href="#MicrosoftJhengHeiRegular-4f4d"/>
     <use xlink:href="#MicrosoftJhengHeiRegular-7f6e" x="100"/>
     <use xlink:href="#MicrosoftJhengHeiRegular-9810" x="200"/>
     <use xlink:href="#MicrosoftJhengHeiRegular-6e2c" x="300"/>
     <use xlink:href="#MicrosoftJhengHeiRegular-8aa4" x="400"/>
     <use xlink:href="#MicrosoftJhengHeiRegular-5dee" x="500"/>
     <use xlink:href="#MicrosoftJhengHeiRegular-7d2f" x="600"/>
     <use xlink:href="#MicrosoftJhengHeiRegular-7a4d" x="700"/>
     <use xlink:href="#MicrosoftJhengHeiRegular-5206" x="800"/>
     <use xlink:href="#MicrosoftJhengHeiRegular-5e03" x="900"/>
     <use xlink:href="#MicrosoftJhengHeiRegular-51fd" x="1000"/>
     <use xlink:href="#MicrosoftJhengHeiRegular-6578" x="1100"/>
     <use xlink:href="#MicrosoftJhengHeiRegular-20" x="1200"/>
     <use xlink:href="#MicrosoftJhengHeiRegular-2d" x="1225"/>
     <use xlink:href="#MicrosoftJhengHeiRegular-20" x="1268.164062"/>
     <use xlink:href="#MicrosoftJhengHeiRegular-8a2d" x="1293.164062"/>
     <use xlink:href="#MicrosoftJhengHeiRegular-5099" x="1393.164062"/>
     <use xlink:href="#MicrosoftJhengHeiRegular-6545" x="1493.164062"/>
     <use xlink:href="#MicrosoftJhengHeiRegular-969c" x="1593.164062"/>
     <use xlink:href="#MicrosoftJhengHeiRegular-20" x="1693.164062"/>
     <use xlink:href="#MicrosoftJhengHeiRegular-32" x="1718.164062"/>
     <use xlink:href="#MicrosoftJhengHeiRegular-35" x="1776.123047"/>
     <use xlink:href="#MicrosoftJhengHeiRegular-25" x="1834.082031"/>
    </g>
   </g>
   <g id="PathCollection_1">
    <defs>
     <path id="m073ab66b1f" d="M 0 3.535534 
C 0.937635 3.535534 1.836992 3.163008 2.5 2.5 
C 3.163008 1.836992 3.535534 0.937635 3.535534 0 
C 3.535534 -0.937635 3.163008 -1.836992 2.5 -2.5 
C 1.836992 -3.163008 0.937635 -3.535534 0 -3.535534 
C -0.937635 -3.535534 -1.836992 -3.163008 -2.5 -2.5 
C -3.163008 -1.836992 -3.535534 -0.937635 -3.535534 0 
C -3.535534 0.937635 -3.163008 1.836992 -2.5 2.5 
C -1.836992 3.163008 -0.937635 3.535534 0 3.535534 
z
" style="stroke: #1f77b4; stroke-opacity: 0.8"/>
    </defs>
    <g clip-path="url(#pe1cb415c2c)">
     <use xlink:href="#m073ab66b1f" x="290.442606" y="369.335628" style="fill: #1f77b4; fill-opacity: 0.8; stroke: #1f77b4; stroke-opacity: 0.8"/>
    </g>
   </g>
   <g id="PathCollection_2">
    <g clip-path="url(#pe1cb415c2c)">
     <use xlink:href="#m073ab66b1f" x="534.819587" y="197.25904" style="fill: #1f77b4; fill-opacity: 0.8; stroke: #1f77b4; stroke-opacity: 0.8"/>
    </g>
   </g>
   <g id="PathCollection_3">
    <g clip-path="url(#pe1cb415c2c)">
     <use xlink:href="#m073ab66b1f" x="779.196568" y="27.572405" style="fill: #1f77b4; fill-opacity: 0.8; stroke: #1f77b4; stroke-opacity: 0.8"/>
    </g>
   </g>
   <g id="PathCollection_4">
    <defs>
     <path id="m055a796d16" d="M 0 3.535534 
C 0.937635 3.535534 1.836992 3.163008 2.5 2.5 
C 3.163008 1.836992 3.535534 0.937635 3.535534 0 
C 3.535534 -0.937635 3.163008 -1.836992 2.5 -2.5 
C 1.836992 -3.163008 0.937635 -3.535534 0 -3.535534 
C -0.937635 -3.535534 -1.836992 -3.163008 -2.5 -2.5 
C -3.163008 -1.836992 -3.535534 -0.937635 -3.535534 0 
C -3.535534 0.937635 -3.163008 1.836992 -2.5 2.5 
C -1.836992 3.163008 -0.937635 3.535534 0 3.535534 
z
" style="stroke: #ff7f0e; stroke-opacity: 0.8"/>
    </defs>
    <g clip-path="url(#pe1cb415c2c)">
     <use xlink:href="#m055a796d16" x="290.442606" y="362.16577" style="fill: #ff7f0e; fill-opacity: 0.8; stroke: #ff7f0e; stroke-opacity: 0.8"/>
    </g>
   </g>
   <g id="PathCollection_5">
    <g clip-path="url(#pe1cb415c2c)">
     <use xlink:href="#m055a796d16" x="534.819587" y="149.459988" style="fill: #ff7f0e; fill-opacity: 0.8; stroke: #ff7f0e; stroke-opacity: 0.8"/>
    </g>
   </g>
   <g id="PathCollection_6">
    <defs>
     <path id="m129f8278ca" d="M 0 3.535534 
C 0.937635 3.535534 1.836992 3.163008 2.5 2.5 
C 3.163008 1.836992 3.535534 0.937635 3.535534 0 
C 3.535534 -0.937635 3.163008 -1.836992 2.5 -2.5 
C 1.836992 -3.163008 0.937635 -3.535534 0 -3.535534 
C -0.937635 -3.535534 -1.836992 -3.163008 -2.5 -2.5 
C -3.163008 -1.836992 -3.535534 -0.937635 -3.535534 0 
C -3.535534 0.937635 -3.163008 1.836992 -2.5 2.5 
C -1.836992 3.163008 -0.937635 3.535534 0 3.535534 
z
" style="stroke: #2ca02c; stroke-opacity: 0.8"/>
    </defs>
    <g clip-path="url(#pe1cb415c2c)">
     <use xlink:href="#m129f8278ca" x="290.442606" y="381.285391" style="fill: #2ca02c; fill-opacity: 0.8; stroke: #2ca02c; stroke-opacity: 0.8"/>
    </g>
   </g>
   <g id="PathCollection_7">
    <g clip-path="url(#pe1cb415c2c)">
     <use xlink:href="#m129f8278ca" x="534.819587" y="175.749467" style="fill: #2ca02c; fill-opacity: 0.8; stroke: #2ca02c; stroke-opacity: 0.8"/>
    </g>
   </g>
   <g id="legend_1">
    <g id="patch_7">
     <path d="M 882.702125 77.289375 
L 991.109938 77.289375 
Q 993.109938 77.289375 993.109938 75.289375 
L 993.109938 29.7925 
Q 993.109938 27.7925 991.109938 27.7925 
L 882.702125 27.7925 
Q 880.702125 27.7925 880.702125 29.7925 
L 880.702125 75.289375 
Q 880.702125 77.289375 882.702125 77.289375 
z
" style="fill: #ffffff; opacity: 0.8; stroke: #cccccc; stroke-linejoin: miter"/>
    </g>
    <g id="line2d_33">
     <path d="M 884.702125 36.28625 
L 894.702125 36.28625 
L 904.702125 36.28625 
" style="fill: none; stroke: #1f77b4; stroke-width: 2; stroke-linecap: square"/>
    </g>
    <g id="text_20">
     <!-- original HADNN -->
     <g transform="translate(912.702125 39.78625) scale(0.1 -0.1)">
      <defs>
       <path id="MicrosoftJhengHeiRegular-6f" d="M 331 1684 
Q 331 2547 801 3042 
Q 1272 3538 2081 3538 
Q 2844 3538 3276 3059 
Q 3709 2581 3709 1738 
Q 3709 919 3240 419 
Q 2772 -81 2000 -81 
Q 1253 -81 792 400 
Q 331 881 331 1684 
z
M 863 1706 
Q 863 1094 1183 728 
Q 1503 363 2038 363 
Q 2581 363 2879 719 
Q 3178 1075 3178 1719 
Q 3178 2378 2883 2736 
Q 2588 3094 2038 3094 
Q 1500 3094 1181 2723 
Q 863 2353 863 1706 
z
" transform="scale(0.015625)"/>
       <path id="MicrosoftJhengHeiRegular-72" d="M 2341 2922 
Q 2197 3031 1925 3031 
Q 1559 3031 1323 2682 
Q 1088 2334 1088 1769 
L 1088 0 
L 566 0 
L 566 3456 
L 1088 3456 
L 1088 2741 
L 1103 2741 
Q 1222 3109 1465 3312 
Q 1709 3516 2003 3516 
Q 2225 3516 2341 3469 
L 2341 2922 
z
" transform="scale(0.015625)"/>
       <path id="MicrosoftJhengHeiRegular-69" d="M 497 4700 
Q 497 4847 595 4948 
Q 694 5050 834 5050 
Q 981 5050 1082 4947 
Q 1184 4844 1184 4700 
Q 1184 4563 1082 4459 
Q 981 4356 834 4356 
Q 688 4356 592 4456 
Q 497 4556 497 4700 
z
M 569 0 
L 569 3456 
L 1088 3456 
L 1088 0 
L 569 0 
z
" transform="scale(0.015625)"/>
       <path id="MicrosoftJhengHeiRegular-67" d="M 3488 272 
Q 3488 -1628 1688 -1628 
Q 1050 -1628 566 -1381 
L 566 -850 
Q 1150 -1175 1684 -1175 
Q 2969 -1175 2969 203 
L 2969 588 
L 2956 588 
Q 2550 -81 1763 -81 
Q 1113 -81 722 384 
Q 331 850 331 1616 
Q 331 2500 759 3019 
Q 1188 3538 1913 3538 
Q 2616 3538 2956 2972 
L 2969 2972 
L 2969 3456 
L 3488 3456 
L 3488 272 
z
M 2969 2081 
Q 2969 2503 2678 2798 
Q 2388 3094 1978 3094 
Q 1459 3094 1161 2712 
Q 863 2331 863 1653 
Q 863 1066 1150 714 
Q 1438 363 1897 363 
Q 2363 363 2666 698 
Q 2969 1034 2969 1556 
L 2969 2081 
z
" transform="scale(0.015625)"/>
       <path id="MicrosoftJhengHeiRegular-6e" d="M 3406 0 
L 2884 0 
L 2884 1975 
Q 2884 3094 2066 3094 
Q 1638 3094 1363 2773 
Q 1088 2453 1088 1972 
L 1088 0 
L 566 0 
L 566 3456 
L 1088 3456 
L 1088 2878 
L 1103 2878 
Q 1491 3538 2238 3538 
Q 2806 3538 3106 3172 
Q 3406 2806 3406 2113 
L 3406 0 
z
" transform="scale(0.015625)"/>
       <path id="MicrosoftJhengHeiRegular-61" d="M 647 3209 
Q 1156 3538 1813 3538 
Q 3016 3538 3016 2259 
L 3016 0 
L 2494 0 
L 2494 544 
L 2475 544 
Q 2116 -81 1413 -81 
Q 900 -81 604 192 
Q 309 466 309 916 
Q 309 1875 1447 2038 
L 2491 2188 
Q 2491 3088 1772 3088 
Q 1144 3088 647 2659 
L 647 3209 
z
M 1644 1641 
Q 1200 1581 1026 1426 
Q 853 1272 853 950 
Q 853 691 1039 528 
Q 1225 366 1525 366 
Q 1941 366 2216 662 
Q 2491 959 2491 1403 
L 2491 1753 
L 1644 1641 
z
" transform="scale(0.015625)"/>
       <path id="MicrosoftJhengHeiRegular-6c" d="M 569 0 
L 569 5116 
L 1088 5116 
L 1088 0 
L 569 0 
z
" transform="scale(0.015625)"/>
       <path id="MicrosoftJhengHeiRegular-48" d="M 4241 0 
L 3709 0 
L 3709 2222 
L 1172 2222 
L 1172 0 
L 641 0 
L 641 4841 
L 1172 4841 
L 1172 2703 
L 3709 2703 
L 3709 4841 
L 4241 4841 
L 4241 0 
z
" transform="scale(0.015625)"/>
       <path id="MicrosoftJhengHeiRegular-41" d="M 4353 0 
L 3763 0 
L 3238 1375 
L 1163 1375 
L 672 0 
L 78 0 
L 1941 4841 
L 2481 4841 
L 4353 0 
z
M 3056 1863 
L 2281 3953 
Q 2250 4041 2209 4272 
L 2194 4272 
Q 2159 4059 2116 3953 
L 1350 1863 
L 3056 1863 
z
" transform="scale(0.015625)"/>
       <path id="MicrosoftJhengHeiRegular-44" d="M 641 0 
L 641 4841 
L 1953 4841 
Q 4506 4841 4506 2481 
Q 4506 1350 3818 675 
Q 3131 0 1903 0 
L 641 0 
z
M 1172 4353 
L 1172 488 
L 1909 488 
Q 2875 488 3412 1006 
Q 3950 1525 3950 2466 
Q 3950 4353 1941 4353 
L 1172 4353 
z
" transform="scale(0.015625)"/>
       <path id="MicrosoftJhengHeiRegular-4e" d="M 4513 0 
L 3844 0 
L 1319 3909 
Q 1234 4047 1169 4200 
L 1150 4200 
Q 1175 4050 1175 3550 
L 1175 0 
L 641 0 
L 641 4841 
L 1347 4841 
L 3803 972 
Q 3991 672 4000 641 
L 4013 641 
Q 3978 881 3978 1369 
L 3978 4841 
L 4513 4841 
L 4513 0 
z
" transform="scale(0.015625)"/>
      </defs>
      <use xlink:href="#MicrosoftJhengHeiRegular-6f"/>
      <use xlink:href="#MicrosoftJhengHeiRegular-72" x="63.085938"/>
      <use xlink:href="#MicrosoftJhengHeiRegular-69" x="100.292969"/>
      <use xlink:href="#MicrosoftJhengHeiRegular-67" x="126.220703"/>
      <use xlink:href="#MicrosoftJhengHeiRegular-69" x="189.599609"/>
      <use xlink:href="#MicrosoftJhengHeiRegular-6e" x="215.527344"/>
      <use xlink:href="#MicrosoftJhengHeiRegular-61" x="276.367188"/>
      <use xlink:href="#MicrosoftJhengHeiRegular-6c" x="331.103516"/>
      <use xlink:href="#MicrosoftJhengHeiRegular-20" x="357.03125"/>
      <use xlink:href="#MicrosoftJhengHeiRegular-48" x="382.03125"/>
      <use xlink:href="#MicrosoftJhengHeiRegular-41" x="458.300781"/>
      <use xlink:href="#MicrosoftJhengHeiRegular-44" x="527.587891"/>
      <use xlink:href="#MicrosoftJhengHeiRegular-4e" x="603.076172"/>
      <use xlink:href="#MicrosoftJhengHeiRegular-4e" x="683.59375"/>
     </g>
    </g>
    <g id="line2d_34">
     <path d="M 884.702125 51.82375 
L 894.702125 51.82375 
L 904.702125 51.82375 
" style="fill: none; stroke: #ff7f0e; stroke-width: 2; stroke-linecap: square"/>
    </g>
    <g id="text_21">
     <!-- mlp -->
     <g transform="translate(912.702125 55.32375) scale(0.1 -0.1)">
      <defs>
       <path id="MicrosoftJhengHeiRegular-70" d="M 1088 506 
L 1088 -1591 
L 566 -1591 
L 566 3456 
L 1088 3456 
L 1088 2844 
L 1103 2844 
Q 1513 3538 2300 3538 
Q 2959 3538 3340 3077 
Q 3722 2616 3722 1828 
Q 3722 966 3295 442 
Q 2869 -81 2141 -81 
Q 1466 -81 1103 506 
L 1088 506 
z
M 1088 1400 
Q 1088 966 1378 664 
Q 1669 363 2094 363 
Q 2603 363 2895 756 
Q 3188 1150 3188 1844 
Q 3188 2428 2913 2761 
Q 2638 3094 2181 3094 
Q 1706 3094 1397 2758 
Q 1088 2422 1088 1900 
L 1088 1400 
z
" transform="scale(0.015625)"/>
      </defs>
      <use xlink:href="#MicrosoftJhengHeiRegular-6d"/>
      <use xlink:href="#MicrosoftJhengHeiRegular-6c" x="92.626953"/>
      <use xlink:href="#MicrosoftJhengHeiRegular-70" x="118.554688"/>
     </g>
    </g>
    <g id="line2d_35">
     <path d="M 884.702125 67.303437 
L 894.702125 67.303437 
L 904.702125 67.303437 
" style="fill: none; stroke: #2ca02c; stroke-width: 2; stroke-linecap: square"/>
    </g>
    <g id="text_22">
     <!-- hadnn+rf -->
     <g transform="translate(912.702125 70.803437) scale(0.1 -0.1)">
      <defs>
       <path id="MicrosoftJhengHeiRegular-68" d="M 3406 0 
L 2888 0 
L 2888 1994 
Q 2888 3094 2066 3094 
Q 1650 3094 1369 2775 
Q 1088 2456 1088 1956 
L 1088 0 
L 566 0 
L 566 5116 
L 1088 5116 
L 1088 2878 
L 1103 2878 
Q 1500 3538 2241 3538 
Q 3406 3538 3406 2128 
L 3406 0 
z
" transform="scale(0.015625)"/>
       <path id="MicrosoftJhengHeiRegular-64" d="M 3488 0 
L 2969 0 
L 2969 594 
L 2956 594 
Q 2572 -81 1763 -81 
Q 1106 -81 718 386 
Q 331 853 331 1647 
Q 331 2497 765 3017 
Q 1200 3538 1913 3538 
Q 2625 3538 2956 2972 
L 2969 2972 
L 2969 5116 
L 3488 5116 
L 3488 0 
z
M 2969 2081 
Q 2969 2506 2680 2800 
Q 2391 3094 1972 3094 
Q 1453 3094 1158 2711 
Q 863 2328 863 1675 
Q 863 1078 1145 720 
Q 1428 363 1906 363 
Q 2366 363 2667 698 
Q 2969 1034 2969 1556 
L 2969 2081 
z
" transform="scale(0.015625)"/>
       <path id="MicrosoftJhengHeiRegular-2b" d="M 3947 1797 
L 2578 1797 
L 2578 434 
L 2147 434 
L 2147 1797 
L 784 1797 
L 784 2234 
L 2147 2234 
L 2147 3597 
L 2578 3597 
L 2578 2234 
L 3947 2234 
L 3947 1797 
z
" transform="scale(0.015625)"/>
       <path id="MicrosoftJhengHeiRegular-66" d="M 2241 4653 
Q 2075 4744 1872 4744 
Q 1288 4744 1288 4000 
L 1288 3456 
L 2097 3456 
L 2097 3006 
L 1288 3006 
L 1288 0 
L 772 0 
L 772 3006 
L 181 3006 
L 181 3456 
L 772 3456 
L 772 4025 
Q 772 4572 1083 4881 
Q 1394 5191 1847 5191 
Q 2100 5191 2241 5131 
L 2241 4653 
z
" transform="scale(0.015625)"/>
      </defs>
      <use xlink:href="#MicrosoftJhengHeiRegular-68"/>
      <use xlink:href="#MicrosoftJhengHeiRegular-61" x="60.888672"/>
      <use xlink:href="#MicrosoftJhengHeiRegular-64" x="115.625"/>
      <use xlink:href="#MicrosoftJhengHeiRegular-6e" x="179.003906"/>
      <use xlink:href="#MicrosoftJhengHeiRegular-6e" x="239.84375"/>
      <use xlink:href="#MicrosoftJhengHeiRegular-2b" x="300.683594"/>
      <use xlink:href="#MicrosoftJhengHeiRegular-72" x="374.414062"/>
      <use xlink:href="#MicrosoftJhengHeiRegular-66" x="413.621094"/>
     </g>
    </g>
   </g>
  </g>
 </g>
 <defs>
  <clipPath id="pe1cb415c2c">
   <rect x="46.065625" y="22.7925" width="790.13" height="504.28"/>
  </clipPath>
 </defs>
</svg>
