<?xml version="1.0" encoding="utf-8" standalone="no"?>
<!DOCTYPE svg PUBLIC "-//W3C//DTD SVG 1.1//EN"
  "http://www.w3.org/Graphics/SVG/1.1/DTD/svg11.dtd">
<svg xmlns:xlink="http://www.w3.org/1999/xlink" width="999.705pt" height="566.322599pt" viewBox="0 0 999.705 566.322599" xmlns="http://www.w3.org/2000/svg" version="1.1">
 <metadata>
  <rdf:RDF xmlns:dc="http://purl.org/dc/elements/1.1/" xmlns:cc="http://creativecommons.org/ns#" xmlns:rdf="http://www.w3.org/1999/02/22-rdf-syntax-ns#">
   <cc:Work>
    <dc:type rdf:resource="http://purl.org/dc/dcmitype/StillImage"/>
    <dc:date>2025-09-01T01:23:52.582536</dc:date>
    <dc:format>image/svg+xml</dc:format>
    <dc:creator>
     <cc:Agent>
      <dc:title>Matplotlib v3.7.1, https://matplotlib.org/</dc:title>
     </cc:Agent>
    </dc:creator>
   </cc:Work>
  </rdf:RDF>
 </metadata>
 <defs>
  <style type="text/css">*{stroke-linejoin: round; stroke-linecap: butt}</style>
 </defs>
 <g id="figure_1">
  <g id="patch_1">
   <path d="M 0 566.322599 
L 999.705 566.322599 
L 999.705 0 
L 0 0 
z
" style="fill: #ffffff"/>
  </g>
  <g id="axes_1">
   <g id="patch_2">
    <path d="M 34.475 507.688671 
L 992.505 507.688671 
L 992.505 22.7925 
L 34.475 22.7925 
z
" style="fill: #ffffff"/>
   </g>
   <g id="PolyCollection_1">
    <path d="M 188.900156 483.90426 
L 141.330753 483.90426 
L 138.661424 479.4692 
L 135.970385 475.034139 
L 133.301917 470.599078 
L 130.701267 466.164017 
L 128.212604 461.728956 
L 125.876882 457.293895 
L 123.729731 452.858834 
L 121.799497 448.423774 
L 120.105571 443.988713 
L 118.657111 439.553652 
L 117.452253 435.118591 
L 116.477885 430.68353 
L 115.709997 426.248469 
L 115.11463 421.813408 
L 114.649358 417.378348 
L 114.26526 412.943287 
L 113.909257 408.508226 
L 113.526708 404.073165 
L 113.064125 399.638104 
L 112.471854 395.203043 
L 111.70659 390.767982 
L 110.733581 386.332921 
L 109.528419 381.897861 
L 108.078312 377.4628 
L 106.382781 373.027739 
L 104.453771 368.592678 
L 102.315151 364.157617 
L 100.001692 359.722556 
L 97.557565 355.287495 
L 95.034483 350.852435 
L 92.489597 346.417374 
L 89.983274 341.982313 
L 87.576883 337.547252 
L 85.330683 333.112191 
L 83.301905 328.67713 
L 81.543077 324.242069 
L 80.100616 319.807009 
L 79.013692 315.371948 
L 78.313344 310.936887 
L 78.021818 306.501826 
L 78.152115 302.066765 
L 78.707709 297.631704 
L 79.682462 293.196643 
L 81.060722 288.761583 
L 82.817634 284.326522 
L 84.919707 279.891461 
L 87.325628 275.4564 
L 89.987352 271.021339 
L 92.85146 266.586278 
L 95.860722 262.151217 
L 98.955834 257.716156 
L 102.077232 253.281096 
L 105.166909 248.846035 
L 108.170128 244.410974 
L 111.036981 239.975913 
L 113.723705 235.540852 
L 116.19374 231.105791 
L 118.418501 226.67073 
L 120.377878 222.23567 
L 122.060469 217.800609 
L 123.463593 213.365548 
L 124.593094 208.930487 
L 125.462955 204.495426 
L 126.094737 200.060365 
L 126.516844 195.625304 
L 126.763597 191.190244 
L 126.874111 186.755183 
L 126.89098 182.320122 
L 126.858765 177.885061 
L 126.822316 173.45 
L 126.824992 169.014939 
L 126.906829 164.579878 
L 127.102783 160.144817 
L 127.44113 155.709757 
L 127.942157 151.274696 
L 128.617253 146.839635 
L 129.46847 142.404574 
L 130.488649 137.969513 
L 131.662091 133.534452 
L 132.96578 129.099391 
L 134.371059 124.664331 
L 135.845663 120.22927 
L 137.355946 115.794209 
L 138.86913 111.359148 
L 140.355414 106.924087 
L 141.789753 102.489026 
L 143.15319 98.053965 
L 144.433636 93.618905 
L 145.626053 89.183844 
L 146.732051 84.748783 
L 147.758967 80.313722 
L 148.718529 75.878661 
L 149.625263 71.4436 
L 150.494794 67.008539 
L 151.342203 62.573479 
L 152.180598 58.138418 
L 153.020007 53.703357 
L 153.86666 49.268296 
L 154.722711 44.833235 
L 175.508198 44.833235 
L 175.508198 44.833235 
L 176.364249 49.268296 
L 177.210903 53.703357 
L 178.050311 58.138418 
L 178.888706 62.573479 
L 179.736115 67.008539 
L 180.605646 71.4436 
L 181.51238 75.878661 
L 182.471942 80.313722 
L 183.498858 84.748783 
L 184.604856 89.183844 
L 185.797273 93.618905 
L 187.077719 98.053965 
L 188.441156 102.489026 
L 189.875495 106.924087 
L 191.361779 111.359148 
L 192.874963 115.794209 
L 194.385246 120.22927 
L 195.85985 124.664331 
L 197.265129 129.099391 
L 198.568818 133.534452 
L 199.74226 137.969513 
L 200.762439 142.404574 
L 201.613656 146.839635 
L 202.288752 151.274696 
L 202.78978 155.709757 
L 203.128126 160.144817 
L 203.32408 164.579878 
L 203.405917 169.014939 
L 203.408593 173.45 
L 203.372144 177.885061 
L 203.339929 182.320122 
L 203.356799 186.755183 
L 203.467312 191.190244 
L 203.714065 195.625304 
L 204.136172 200.060365 
L 204.767954 204.495426 
L 205.637815 208.930487 
L 206.767316 213.365548 
L 208.170441 217.800609 
L 209.853031 222.23567 
L 211.812408 226.67073 
L 214.03717 231.105791 
L 216.507204 235.540852 
L 219.193928 239.975913 
L 222.060781 244.410974 
L 225.064 248.846035 
L 228.153677 253.281096 
L 231.275075 257.716156 
L 234.370187 262.151217 
L 237.379449 266.586278 
L 240.243557 271.021339 
L 242.905282 275.4564 
L 245.311202 279.891461 
L 247.413275 284.326522 
L 249.170188 288.761583 
L 250.548447 293.196643 
L 251.5232 297.631704 
L 252.078794 302.066765 
L 252.209091 306.501826 
L 251.917565 310.936887 
L 251.217217 315.371948 
L 250.130293 319.807009 
L 248.687832 324.242069 
L 246.929004 328.67713 
L 244.900226 333.112191 
L 242.654026 337.547252 
L 240.247635 341.982313 
L 237.741312 346.417374 
L 235.196426 350.852435 
L 232.673344 355.287495 
L 230.229217 359.722556 
L 227.915758 364.157617 
L 225.777139 368.592678 
L 223.848128 373.027739 
L 222.152598 377.4628 
L 220.70249 381.897861 
L 219.497328 386.332921 
L 218.524319 390.767982 
L 217.759055 395.203043 
L 217.166784 399.638104 
L 216.704201 404.073165 
L 216.321652 408.508226 
L 215.965649 412.943287 
L 215.581551 417.378348 
L 215.116279 421.813408 
L 214.520912 426.248469 
L 213.753025 430.68353 
L 212.778656 435.118591 
L 211.573798 439.553652 
L 210.125338 443.988713 
L 208.431412 448.423774 
L 206.501178 452.858834 
L 204.354027 457.293895 
L 202.018305 461.728956 
L 199.529642 466.164017 
L 196.928992 470.599078 
L 194.260525 475.034139 
L 191.569485 479.4692 
L 188.900156 483.90426 
z
" clip-path="url(#p9954baa1f4)" style="fill: #1f77b4; fill-opacity: 0.7"/>
   </g>
   <g id="PolyCollection_2">
    <path d="M 532.312725 468.001637 
L 494.667275 468.001637 
L 492.42164 464.953099 
L 490.086866 461.904561 
L 487.668725 458.856023 
L 485.170035 455.807485 
L 482.591122 452.758947 
L 479.93086 449.710409 
L 477.188216 446.661871 
L 474.364109 443.613333 
L 471.463358 440.564795 
L 468.496422 437.516257 
L 465.480649 434.467719 
L 462.440756 431.41918 
L 459.408362 428.370642 
L 456.42051 425.322104 
L 453.51723 422.273566 
L 450.73837 419.225028 
L 448.120047 416.17649 
L 445.691157 413.127952 
L 443.470434 410.079414 
L 441.464515 407.030876 
L 439.66736 403.982338 
L 438.061212 400.9338 
L 436.619074 397.885262 
L 435.308462 394.836724 
L 434.096002 391.788186 
L 432.95229 388.739648 
L 431.856376 385.69111 
L 430.799271 382.642572 
L 429.785994 379.594034 
L 428.835861 376.545496 
L 427.980955 373.496958 
L 427.262982 370.44842 
L 426.728903 367.399882 
L 426.425905 364.351344 
L 426.396364 361.302806 
L 426.673396 358.254268 
L 427.277551 355.20573 
L 428.214969 352.157192 
L 429.477164 349.108654 
L 431.042326 346.060116 
L 432.877885 343.011578 
L 434.943892 339.96304 
L 437.196705 336.914502 
L 439.5925 333.865964 
L 442.090159 330.817426 
L 444.653243 327.768888 
L 447.250941 324.72035 
L 449.858013 321.671812 
L 452.453941 318.623274 
L 455.021577 315.574736 
L 457.545639 312.526198 
L 460.011378 309.47766 
L 462.403707 306.429122 
L 464.706941 303.380584 
L 466.905204 300.332046 
L 468.983425 297.283508 
L 470.928746 294.23497 
L 472.732098 291.186432 
L 474.389671 288.137894 
L 475.904021 285.089356 
L 477.284607 282.040818 
L 478.547635 278.99228 
L 479.715186 275.943742 
L 480.81368 272.895204 
L 481.87185 269.846666 
L 482.918423 266.798128 
L 483.979771 263.74959 
L 485.077752 260.701052 
L 486.227972 257.652514 
L 487.438606 254.603976 
L 488.709873 251.555438 
L 490.034169 248.5069 
L 491.396807 245.458362 
L 492.777261 242.409824 
L 494.150787 239.361286 
L 495.490258 236.312748 
L 496.768102 233.26421 
L 497.95818 230.215672 
L 499.037527 227.167134 
L 499.987851 224.118596 
L 500.796725 221.070058 
L 501.458408 218.02152 
L 501.974259 214.972982 
L 502.352708 211.924444 
L 502.608779 208.875906 
L 502.763181 205.827368 
L 502.841017 202.77883 
L 502.870196 199.730292 
L 502.879661 196.681754 
L 502.897572 193.633216 
L 502.949573 190.584678 
L 503.05731 187.53614 
L 503.237278 184.487602 
L 503.500105 181.439064 
L 503.850286 178.390526 
L 504.28637 175.341988 
L 504.801548 172.29345 
L 505.384547 169.244912 
L 506.020751 166.196374 
L 520.959249 166.196374 
L 520.959249 166.196374 
L 521.595453 169.244912 
L 522.178452 172.29345 
L 522.69363 175.341988 
L 523.129714 178.390526 
L 523.479895 181.439064 
L 523.742722 184.487602 
L 523.92269 187.53614 
L 524.030427 190.584678 
L 524.082428 193.633216 
L 524.100339 196.681754 
L 524.109804 199.730292 
L 524.138983 202.77883 
L 524.216819 205.827368 
L 524.371221 208.875906 
L 524.627292 211.924444 
L 525.005741 214.972982 
L 525.521592 218.02152 
L 526.183275 221.070058 
L 526.992149 224.118596 
L 527.942473 227.167134 
L 529.02182 230.215672 
L 530.211898 233.26421 
L 531.489742 236.312748 
L 532.829213 239.361286 
L 534.202739 242.409824 
L 535.583193 245.458362 
L 536.945831 248.5069 
L 538.270127 251.555438 
L 539.541394 254.603976 
L 540.752028 257.652514 
L 541.902248 260.701052 
L 543.000229 263.74959 
L 544.061577 266.798128 
L 545.10815 269.846666 
L 546.16632 272.895204 
L 547.264814 275.943742 
L 548.432365 278.99228 
L 549.695393 282.040818 
L 551.075979 285.089356 
L 552.590329 288.137894 
L 554.247902 291.186432 
L 556.051254 294.23497 
L 557.996575 297.283508 
L 560.074796 300.332046 
L 562.273059 303.380584 
L 564.576293 306.429122 
L 566.968622 309.47766 
L 569.434361 312.526198 
L 571.958423 315.574736 
L 574.526059 318.623274 
L 577.121987 321.671812 
L 579.729059 324.72035 
L 582.326757 327.768888 
L 584.889841 330.817426 
L 587.3875 333.865964 
L 589.783295 336.914502 
L 592.036108 339.96304 
L 594.102115 343.011578 
L 595.937674 346.060116 
L 597.502836 349.108654 
L 598.765031 352.157192 
L 599.702449 355.20573 
L 600.306604 358.254268 
L 600.583636 361.302806 
L 600.554095 364.351344 
L 600.251097 367.399882 
L 599.717018 370.44842 
L 598.999045 373.496958 
L 598.144139 376.545496 
L 597.194006 379.594034 
L 596.180729 382.642572 
L 595.123624 385.69111 
L 594.02771 388.739648 
L 592.883998 391.788186 
L 591.671538 394.836724 
L 590.360926 397.885262 
L 588.918788 400.9338 
L 587.31264 403.982338 
L 585.515485 407.030876 
L 583.509566 410.079414 
L 581.288843 413.127952 
L 578.859953 416.17649 
L 576.24163 419.225028 
L 573.46277 422.273566 
L 570.55949 425.322104 
L 567.571638 428.370642 
L 564.539244 431.41918 
L 561.499351 434.467719 
L 558.483578 437.516257 
L 555.516642 440.564795 
L 552.615891 443.613333 
L 549.791784 446.661871 
L 547.04914 449.710409 
L 544.388878 452.758947 
L 541.809965 455.807485 
L 539.311275 458.856023 
L 536.893134 461.904561 
L 534.55836 464.953099 
L 532.312725 468.001637 
z
" clip-path="url(#p9954baa1f4)" style="fill: #ff7f0e; fill-opacity: 0.7"/>
   </g>
   <g id="PolyCollection_3">
    <path d="M 875.478241 485.647936 
L 848.25085 485.647936 
L 846.321844 482.614416 
L 844.272036 479.580895 
L 842.108647 476.547374 
L 839.839019 473.513854 
L 837.471121 470.480333 
L 835.014477 467.446813 
L 832.48141 464.413292 
L 829.888393 461.379772 
L 827.257255 458.346251 
L 824.615915 455.31273 
L 821.998381 452.27921 
L 819.443793 449.245689 
L 816.994415 446.212169 
L 814.692664 443.178648 
L 812.577406 440.145128 
L 810.679939 437.111607 
L 809.020169 434.078086 
L 807.603543 431.044566 
L 806.419259 428.011045 
L 805.44012 424.977525 
L 804.624238 421.944004 
L 803.91849 418.910484 
L 803.263402 415.876963 
L 802.598912 412.843442 
L 801.870297 409.809922 
L 801.033504 406.776401 
L 800.059197 403.742881 
L 798.934983 400.70936 
L 797.665547 397.675839 
L 796.270707 394.642319 
L 794.781707 391.608798 
L 793.236316 388.575278 
L 791.673444 385.541757 
L 790.128082 382.508237 
L 788.627284 379.474716 
L 787.18775 376.441195 
L 785.815336 373.407675 
L 784.50651 370.374154 
L 783.251486 367.340634 
L 782.038526 364.307113 
L 780.858704 361.273593 
L 779.710392 358.240072 
L 778.602744 355.206551 
L 777.557608 352.173031 
L 776.609538 349.13951 
L 775.803857 346.10599 
L 775.192995 343.072469 
L 774.831573 340.038949 
L 774.770909 337.005428 
L 775.053651 333.971907 
L 775.709243 330.938387 
L 776.750808 327.904866 
L 778.173793 324.871346 
L 779.956517 321.837825 
L 782.062474 318.804304 
L 784.444053 315.770784 
L 787.047133 312.737263 
L 789.815973 309.703743 
L 792.697776 306.670222 
L 795.646427 303.636702 
L 798.625004 300.603181 
L 801.606898 297.56966 
L 804.575535 294.53614 
L 807.522891 291.502619 
L 810.447135 288.469099 
L 813.3498 285.435578 
L 816.232911 282.402058 
L 819.09646 279.368537 
L 821.936499 276.335016 
L 824.744035 273.301496 
L 827.504754 270.267975 
L 830.1995 267.234455 
L 832.805354 264.200934 
L 835.297115 261.167414 
L 837.648966 258.133893 
L 839.836161 255.100372 
L 841.836586 252.066852 
L 843.632109 249.033331 
L 845.209689 245.999811 
L 846.562212 242.96629 
L 847.689061 239.93277 
L 848.596402 236.899249 
L 849.297183 233.865728 
L 849.810799 230.832208 
L 850.162427 227.798687 
L 850.382002 224.765167 
L 850.502859 221.731646 
L 850.560115 218.698125 
L 850.588871 215.664605 
L 850.622377 212.631084 
L 850.690298 209.597564 
L 850.817236 206.564043 
L 851.021621 203.530523 
L 851.315069 200.497002 
L 851.702222 197.463481 
L 852.181079 194.429961 
L 852.743744 191.39644 
L 853.377494 188.36292 
L 854.066066 185.329399 
L 869.663025 185.329399 
L 869.663025 185.329399 
L 870.351596 188.36292 
L 870.985347 191.39644 
L 871.548012 194.429961 
L 872.026869 197.463481 
L 872.414022 200.497002 
L 872.70747 203.530523 
L 872.911855 206.564043 
L 873.038793 209.597564 
L 873.106714 212.631084 
L 873.14022 215.664605 
L 873.168976 218.698125 
L 873.226232 221.731646 
L 873.347089 224.765167 
L 873.566663 227.798687 
L 873.918292 230.832208 
L 874.431908 233.865728 
L 875.132689 236.899249 
L 876.04003 239.93277 
L 877.166879 242.96629 
L 878.519402 245.999811 
L 880.096982 249.033331 
L 881.892505 252.066852 
L 883.89293 255.100372 
L 886.080125 258.133893 
L 888.431976 261.167414 
L 890.923737 264.200934 
L 893.529591 267.234455 
L 896.224337 270.267975 
L 898.985056 273.301496 
L 901.792592 276.335016 
L 904.632631 279.368537 
L 907.49618 282.402058 
L 910.379291 285.435578 
L 913.281956 288.469099 
L 916.2062 291.502619 
L 919.153556 294.53614 
L 922.122193 297.56966 
L 925.104087 300.603181 
L 928.082664 303.636702 
L 931.031315 306.670222 
L 933.913118 309.703743 
L 936.681957 312.737263 
L 939.285038 315.770784 
L 941.666617 318.804304 
L 943.772574 321.837825 
L 945.555298 324.871346 
L 946.978283 327.904866 
L 948.019848 330.938387 
L 948.67544 333.971907 
L 948.958182 337.005428 
L 948.897518 340.038949 
L 948.536096 343.072469 
L 947.925233 346.10599 
L 947.119553 349.13951 
L 946.171483 352.173031 
L 945.126347 355.206551 
L 944.018699 358.240072 
L 942.870387 361.273593 
L 941.690565 364.307113 
L 940.477604 367.340634 
L 939.222581 370.374154 
L 937.913755 373.407675 
L 936.541341 376.441195 
L 935.101807 379.474716 
L 933.601009 382.508237 
L 932.055647 385.541757 
L 930.492775 388.575278 
L 928.947384 391.608798 
L 927.458384 394.642319 
L 926.063544 397.675839 
L 924.794108 400.70936 
L 923.669894 403.742881 
L 922.695587 406.776401 
L 921.858794 409.809922 
L 921.130179 412.843442 
L 920.465689 415.876963 
L 919.810601 418.910484 
L 919.104853 421.944004 
L 918.288971 424.977525 
L 917.309832 428.011045 
L 916.125548 431.044566 
L 914.708922 434.078086 
L 913.049152 437.111607 
L 911.151685 440.145128 
L 909.036427 443.178648 
L 906.734676 446.212169 
L 904.285298 449.245689 
L 901.73071 452.27921 
L 899.113176 455.31273 
L 896.471836 458.346251 
L 893.840697 461.379772 
L 891.247681 464.413292 
L 888.714614 467.446813 
L 886.25797 470.480333 
L 883.890072 473.513854 
L 881.620444 476.547374 
L 879.457054 479.580895 
L 877.407247 482.614416 
L 875.478241 485.647936 
z
" clip-path="url(#p9954baa1f4)" style="fill: #2ca02c; fill-opacity: 0.7"/>
   </g>
   <g id="matplotlib.axis_1">
    <g id="xtick_1">
     <g id="line2d_1">
      <defs>
       <path id="m124c3ad437" d="M 0 0 
L 0 3.5 
" style="stroke: #000000; stroke-width: 0.8"/>
      </defs>
      <g>
       <use xlink:href="#m124c3ad437" x="165.115455" y="507.688671" style="stroke: #000000; stroke-width: 0.8"/>
      </g>
     </g>
     <g id="text_1">
      <!-- original HADNN -->
      <g transform="translate(128.918597 542.185838) rotate(-15) scale(0.1 -0.1)">
       <defs>
        <path id="MicrosoftJhengHeiRegular-6f" d="M 331 1684 
Q 331 2547 801 3042 
Q 1272 3538 2081 3538 
Q 2844 3538 3276 3059 
Q 3709 2581 3709 1738 
Q 3709 919 3240 419 
Q 2772 -81 2000 -81 
Q 1253 -81 792 400 
Q 331 881 331 1684 
z
M 863 1706 
Q 863 1094 1183 728 
Q 1503 363 2038 363 
Q 2581 363 2879 719 
Q 3178 1075 3178 1719 
Q 3178 2378 2883 2736 
Q 2588 3094 2038 3094 
Q 1500 3094 1181 2723 
Q 863 2353 863 1706 
z
" transform="scale(0.015625)"/>
        <path id="MicrosoftJhengHeiRegular-72" d="M 2341 2922 
Q 2197 3031 1925 3031 
Q 1559 3031 1323 2682 
Q 1088 2334 1088 1769 
L 1088 0 
L 566 0 
L 566 3456 
L 1088 3456 
L 1088 2741 
L 1103 2741 
Q 1222 3109 1465 3312 
Q 1709 3516 2003 3516 
Q 2225 3516 2341 3469 
L 2341 2922 
z
" transform="scale(0.015625)"/>
        <path id="MicrosoftJhengHeiRegular-69" d="M 497 4700 
Q 497 4847 595 4948 
Q 694 5050 834 5050 
Q 981 5050 1082 4947 
Q 1184 4844 1184 4700 
Q 1184 4563 1082 4459 
Q 981 4356 834 4356 
Q 688 4356 592 4456 
Q 497 4556 497 4700 
z
M 569 0 
L 569 3456 
L 1088 3456 
L 1088 0 
L 569 0 
z
" transform="scale(0.015625)"/>
        <path id="MicrosoftJhengHeiRegular-67" d="M 3488 272 
Q 3488 -1628 1688 -1628 
Q 1050 -1628 566 -1381 
L 566 -850 
Q 1150 -1175 1684 -1175 
Q 2969 -1175 2969 203 
L 2969 588 
L 2956 588 
Q 2550 -81 1763 -81 
Q 1113 -81 722 384 
Q 331 850 331 1616 
Q 331 2500 759 3019 
Q 1188 3538 1913 3538 
Q 2616 3538 2956 2972 
L 2969 2972 
L 2969 3456 
L 3488 3456 
L 3488 272 
z
M 2969 2081 
Q 2969 2503 2678 2798 
Q 2388 3094 1978 3094 
Q 1459 3094 1161 2712 
Q 863 2331 863 1653 
Q 863 1066 1150 714 
Q 1438 363 1897 363 
Q 2363 363 2666 698 
Q 2969 1034 2969 1556 
L 2969 2081 
z
" transform="scale(0.015625)"/>
        <path id="MicrosoftJhengHeiRegular-6e" d="M 3406 0 
L 2884 0 
L 2884 1975 
Q 2884 3094 2066 3094 
Q 1638 3094 1363 2773 
Q 1088 2453 1088 1972 
L 1088 0 
L 566 0 
L 566 3456 
L 1088 3456 
L 1088 2878 
L 1103 2878 
Q 1491 3538 2238 3538 
Q 2806 3538 3106 3172 
Q 3406 2806 3406 2113 
L 3406 0 
z
" transform="scale(0.015625)"/>
        <path id="MicrosoftJhengHeiRegular-61" d="M 647 3209 
Q 1156 3538 1813 3538 
Q 3016 3538 3016 2259 
L 3016 0 
L 2494 0 
L 2494 544 
L 2475 544 
Q 2116 -81 1413 -81 
Q 900 -81 604 192 
Q 309 466 309 916 
Q 309 1875 1447 2038 
L 2491 2188 
Q 2491 3088 1772 3088 
Q 1144 3088 647 2659 
L 647 3209 
z
M 1644 1641 
Q 1200 1581 1026 1426 
Q 853 1272 853 950 
Q 853 691 1039 528 
Q 1225 366 1525 366 
Q 1941 366 2216 662 
Q 2491 959 2491 1403 
L 2491 1753 
L 1644 1641 
z
" transform="scale(0.015625)"/>
        <path id="MicrosoftJhengHeiRegular-6c" d="M 569 0 
L 569 5116 
L 1088 5116 
L 1088 0 
L 569 0 
z
" transform="scale(0.015625)"/>
        <path id="MicrosoftJhengHeiRegular-20" transform="scale(0.015625)"/>
        <path id="MicrosoftJhengHeiRegular-48" d="M 4241 0 
L 3709 0 
L 3709 2222 
L 1172 2222 
L 1172 0 
L 641 0 
L 641 4841 
L 1172 4841 
L 1172 2703 
L 3709 2703 
L 3709 4841 
L 4241 4841 
L 4241 0 
z
" transform="scale(0.015625)"/>
        <path id="MicrosoftJhengHeiRegular-41" d="M 4353 0 
L 3763 0 
L 3238 1375 
L 1163 1375 
L 672 0 
L 78 0 
L 1941 4841 
L 2481 4841 
L 4353 0 
z
M 3056 1863 
L 2281 3953 
Q 2250 4041 2209 4272 
L 2194 4272 
Q 2159 4059 2116 3953 
L 1350 1863 
L 3056 1863 
z
" transform="scale(0.015625)"/>
        <path id="MicrosoftJhengHeiRegular-44" d="M 641 0 
L 641 4841 
L 1953 4841 
Q 4506 4841 4506 2481 
Q 4506 1350 3818 675 
Q 3131 0 1903 0 
L 641 0 
z
M 1172 4353 
L 1172 488 
L 1909 488 
Q 2875 488 3412 1006 
Q 3950 1525 3950 2466 
Q 3950 4353 1941 4353 
L 1172 4353 
z
" transform="scale(0.015625)"/>
        <path id="MicrosoftJhengHeiRegular-4e" d="M 4513 0 
L 3844 0 
L 1319 3909 
Q 1234 4047 1169 4200 
L 1150 4200 
Q 1175 4050 1175 3550 
L 1175 0 
L 641 0 
L 641 4841 
L 1347 4841 
L 3803 972 
Q 3991 672 4000 641 
L 4013 641 
Q 3978 881 3978 1369 
L 3978 4841 
L 4513 4841 
L 4513 0 
z
" transform="scale(0.015625)"/>
       </defs>
       <use xlink:href="#MicrosoftJhengHeiRegular-6f"/>
       <use xlink:href="#MicrosoftJhengHeiRegular-72" x="63.085938"/>
       <use xlink:href="#MicrosoftJhengHeiRegular-69" x="100.292969"/>
       <use xlink:href="#MicrosoftJhengHeiRegular-67" x="126.220703"/>
       <use xlink:href="#MicrosoftJhengHeiRegular-69" x="189.599609"/>
       <use xlink:href="#MicrosoftJhengHeiRegular-6e" x="215.527344"/>
       <use xlink:href="#MicrosoftJhengHeiRegular-61" x="276.367188"/>
       <use xlink:href="#MicrosoftJhengHeiRegular-6c" x="331.103516"/>
       <use xlink:href="#MicrosoftJhengHeiRegular-20" x="357.03125"/>
       <use xlink:href="#MicrosoftJhengHeiRegular-48" x="382.03125"/>
       <use xlink:href="#MicrosoftJhengHeiRegular-41" x="458.300781"/>
       <use xlink:href="#MicrosoftJhengHeiRegular-44" x="527.587891"/>
       <use xlink:href="#MicrosoftJhengHeiRegular-4e" x="603.076172"/>
       <use xlink:href="#MicrosoftJhengHeiRegular-4e" x="683.59375"/>
      </g>
     </g>
    </g>
    <g id="xtick_2">
     <g id="line2d_2">
      <g>
       <use xlink:href="#m124c3ad437" x="513.49" y="507.688671" style="stroke: #000000; stroke-width: 0.8"/>
      </g>
     </g>
     <g id="text_2">
      <!-- mlp -->
      <g transform="translate(505.423403 527.114886) rotate(-15) scale(0.1 -0.1)">
       <defs>
        <path id="MicrosoftJhengHeiRegular-6d" d="M 5438 0 
L 4916 0 
L 4916 1984 
Q 4916 2588 4733 2841 
Q 4550 3094 4128 3094 
Q 3775 3094 3519 2762 
Q 3263 2431 3263 1975 
L 3263 0 
L 2744 0 
L 2744 2056 
Q 2744 3094 1941 3094 
Q 1572 3094 1330 2778 
Q 1088 2463 1088 1975 
L 1088 0 
L 566 0 
L 566 3456 
L 1088 3456 
L 1088 2909 
L 1103 2909 
Q 1466 3538 2172 3538 
Q 2509 3538 2779 3339 
Q 3050 3141 3147 2816 
Q 3531 3538 4297 3538 
Q 5438 3538 5438 2128 
L 5438 0 
z
" transform="scale(0.015625)"/>
        <path id="MicrosoftJhengHeiRegular-70" d="M 1088 506 
L 1088 -1591 
L 566 -1591 
L 566 3456 
L 1088 3456 
L 1088 2844 
L 1103 2844 
Q 1513 3538 2300 3538 
Q 2959 3538 3340 3077 
Q 3722 2616 3722 1828 
Q 3722 966 3295 442 
Q 2869 -81 2141 -81 
Q 1466 -81 1103 506 
L 1088 506 
z
M 1088 1400 
Q 1088 966 1378 664 
Q 1669 363 2094 363 
Q 2603 363 2895 756 
Q 3188 1150 3188 1844 
Q 3188 2428 2913 2761 
Q 2638 3094 2181 3094 
Q 1706 3094 1397 2758 
Q 1088 2422 1088 1900 
L 1088 1400 
z
" transform="scale(0.015625)"/>
       </defs>
       <use xlink:href="#MicrosoftJhengHeiRegular-6d"/>
       <use xlink:href="#MicrosoftJhengHeiRegular-6c" x="92.626953"/>
       <use xlink:href="#MicrosoftJhengHeiRegular-70" x="118.554688"/>
      </g>
     </g>
    </g>
    <g id="xtick_3">
     <g id="line2d_3">
      <g>
       <use xlink:href="#m124c3ad437" x="861.864545" y="507.688671" style="stroke: #000000; stroke-width: 0.8"/>
      </g>
     </g>
     <g id="text_3">
      <!-- hadnn+rf -->
      <g transform="translate(840.99264 533.97723) rotate(-15) scale(0.1 -0.1)">
       <defs>
        <path id="MicrosoftJhengHeiRegular-68" d="M 3406 0 
L 2888 0 
L 2888 1994 
Q 2888 3094 2066 3094 
Q 1650 3094 1369 2775 
Q 1088 2456 1088 1956 
L 1088 0 
L 566 0 
L 566 5116 
L 1088 5116 
L 1088 2878 
L 1103 2878 
Q 1500 3538 2241 3538 
Q 3406 3538 3406 2128 
L 3406 0 
z
" transform="scale(0.015625)"/>
        <path id="MicrosoftJhengHeiRegular-64" d="M 3488 0 
L 2969 0 
L 2969 594 
L 2956 594 
Q 2572 -81 1763 -81 
Q 1106 -81 718 386 
Q 331 853 331 1647 
Q 331 2497 765 3017 
Q 1200 3538 1913 3538 
Q 2625 3538 2956 2972 
L 2969 2972 
L 2969 5116 
L 3488 5116 
L 3488 0 
z
M 2969 2081 
Q 2969 2506 2680 2800 
Q 2391 3094 1972 3094 
Q 1453 3094 1158 2711 
Q 863 2328 863 1675 
Q 863 1078 1145 720 
Q 1428 363 1906 363 
Q 2366 363 2667 698 
Q 2969 1034 2969 1556 
L 2969 2081 
z
" transform="scale(0.015625)"/>
        <path id="MicrosoftJhengHeiRegular-2b" d="M 3947 1797 
L 2578 1797 
L 2578 434 
L 2147 434 
L 2147 1797 
L 784 1797 
L 784 2234 
L 2147 2234 
L 2147 3597 
L 2578 3597 
L 2578 2234 
L 3947 2234 
L 3947 1797 
z
" transform="scale(0.015625)"/>
        <path id="MicrosoftJhengHeiRegular-66" d="M 2241 4653 
Q 2075 4744 1872 4744 
Q 1288 4744 1288 4000 
L 1288 3456 
L 2097 3456 
L 2097 3006 
L 1288 3006 
L 1288 0 
L 772 0 
L 772 3006 
L 181 3006 
L 181 3456 
L 772 3456 
L 772 4025 
Q 772 4572 1083 4881 
Q 1394 5191 1847 5191 
Q 2100 5191 2241 5131 
L 2241 4653 
z
" transform="scale(0.015625)"/>
       </defs>
       <use xlink:href="#MicrosoftJhengHeiRegular-68"/>
       <use xlink:href="#MicrosoftJhengHeiRegular-61" x="60.888672"/>
       <use xlink:href="#MicrosoftJhengHeiRegular-64" x="115.625"/>
       <use xlink:href="#MicrosoftJhengHeiRegular-6e" x="179.003906"/>
       <use xlink:href="#MicrosoftJhengHeiRegular-6e" x="239.84375"/>
       <use xlink:href="#MicrosoftJhengHeiRegular-2b" x="300.683594"/>
       <use xlink:href="#MicrosoftJhengHeiRegular-72" x="374.414062"/>
       <use xlink:href="#MicrosoftJhengHeiRegular-66" x="413.621094"/>
      </g>
     </g>
    </g>
    <g id="text_4">
     <!-- 模型 -->
     <g transform="translate(503.49 556.636662) scale(0.1 -0.1)">
      <defs>
       <path id="MicrosoftJhengHeiRegular-6a21" d="M 5978 4441 
L 5063 4441 
L 5063 4078 
L 4744 4078 
L 4744 4441 
L 4269 4441 
L 4269 4744 
L 4744 4744 
L 4744 5275 
L 5063 5275 
L 5063 4744 
L 5978 4744 
L 5978 4441 
z
M 4025 4441 
L 3603 4441 
L 3603 4078 
L 3263 4078 
L 3263 4441 
L 2322 4441 
L 2322 4744 
L 3263 4744 
L 3263 5275 
L 3603 5275 
L 3603 4744 
L 4025 4744 
L 4025 4441 
z
M 2431 2444 
L 2181 2234 
Q 1878 2763 1703 2994 
L 1703 -341 
L 1375 -341 
L 1375 2816 
Q 1056 2041 628 1422 
L 403 1672 
Q 984 2497 1369 3634 
L 500 3634 
L 500 3950 
L 1375 3950 
L 1375 5275 
L 1703 5275 
L 1703 3950 
L 2344 3950 
L 2344 3634 
L 1703 3634 
L 1703 3494 
Q 2128 2969 2431 2444 
z
M 5947 991 
L 4109 991 
Q 3838 -25 2369 -341 
L 2181 -44 
Q 3481 191 3775 991 
L 2247 991 
L 2247 1300 
L 3847 1300 
Q 3909 1647 3909 1856 
L 2747 1856 
L 2747 3834 
L 5569 3834 
L 5569 1856 
L 4244 1856 
Q 4234 1619 4184 1300 
L 5947 1300 
L 5947 991 
z
M 5253 3016 
L 5253 3531 
L 3059 3531 
L 3059 3016 
L 5253 3016 
z
M 5253 2156 
L 5253 2719 
L 3059 2719 
L 3059 2156 
L 5253 2156 
z
M 6028 -63 
L 5825 -325 
Q 5241 103 4319 531 
L 4531 788 
Q 5369 400 6028 -63 
z
" transform="scale(0.015625)"/>
       <path id="MicrosoftJhengHeiRegular-578b" d="M 5703 2291 
Q 5703 2109 5600 1992 
Q 5497 1875 5369 1842 
Q 5241 1809 4888 1809 
Q 4700 1809 4422 1819 
L 4281 2169 
Q 4603 2141 4881 2141 
Q 5147 2141 5215 2158 
Q 5284 2175 5329 2256 
Q 5375 2338 5375 2444 
L 5375 5234 
L 5703 5234 
L 5703 2291 
z
M 3834 3406 
L 2919 3406 
L 2919 1959 
L 2591 1959 
L 2591 3406 
L 1734 3406 
Q 1663 2456 819 1791 
L 550 2016 
Q 1347 2647 1409 3406 
L 469 3406 
L 469 3731 
L 1428 3731 
Q 1459 4306 1459 4775 
L 659 4775 
L 659 5088 
L 3750 5088 
L 3750 4775 
L 2919 4775 
L 2919 3731 
L 3834 3731 
L 3834 3406 
z
M 2591 3731 
L 2591 4775 
L 1791 4775 
Q 1791 4397 1753 3731 
L 2591 3731 
z
M 4594 2816 
L 4269 2816 
L 4269 4953 
L 4594 4953 
L 4594 2816 
z
M 5991 -184 
L 428 -184 
L 428 134 
L 3059 134 
L 3059 1038 
L 844 1038 
L 844 1350 
L 3059 1350 
L 3059 2022 
L 3391 2022 
L 3391 1350 
L 5563 1350 
L 5563 1038 
L 3391 1038 
L 3391 134 
L 5991 134 
L 5991 -184 
z
" transform="scale(0.015625)"/>
      </defs>
      <use xlink:href="#MicrosoftJhengHeiRegular-6a21"/>
      <use xlink:href="#MicrosoftJhengHeiRegular-578b" x="100"/>
     </g>
    </g>
   </g>
   <g id="matplotlib.axis_2">
    <g id="ytick_1">
     <g id="line2d_4">
      <path d="M 34.475 488.17776 
L 992.505 488.17776 
" clip-path="url(#p9954baa1f4)" style="fill: none; stroke-dasharray: 2.96,1.28; stroke-dashoffset: 0; stroke: #b0b0b0; stroke-opacity: 0.7; stroke-width: 0.8"/>
     </g>
     <g id="line2d_5">
      <defs>
       <path id="m73a0a0e080" d="M 0 0 
L -3.5 0 
" style="stroke: #000000; stroke-width: 0.8"/>
      </defs>
      <g>
       <use xlink:href="#m73a0a0e080" x="34.475" y="488.17776" style="stroke: #000000; stroke-width: 0.8"/>
      </g>
     </g>
     <g id="text_5">
      <!-- 0 -->
      <g transform="translate(21.679688 492.174635) scale(0.1 -0.1)">
       <defs>
        <path id="MicrosoftJhengHeiRegular-30" d="M 294 2322 
Q 294 3603 711 4262 
Q 1128 4922 1916 4922 
Q 3425 4922 3425 2441 
Q 3425 1234 3011 576 
Q 2597 -81 1806 -81 
Q 1069 -81 681 550 
Q 294 1181 294 2322 
z
M 825 2350 
Q 825 363 1863 363 
Q 2891 363 2891 2378 
Q 2891 4475 1888 4475 
Q 825 4475 825 2350 
z
" transform="scale(0.015625)"/>
       </defs>
       <use xlink:href="#MicrosoftJhengHeiRegular-30"/>
      </g>
     </g>
    </g>
    <g id="ytick_2">
     <g id="line2d_6">
      <path d="M 34.475 389.522159 
L 992.505 389.522159 
" clip-path="url(#p9954baa1f4)" style="fill: none; stroke-dasharray: 2.96,1.28; stroke-dashoffset: 0; stroke: #b0b0b0; stroke-opacity: 0.7; stroke-width: 0.8"/>
     </g>
     <g id="line2d_7">
      <g>
       <use xlink:href="#m73a0a0e080" x="34.475" y="389.522159" style="stroke: #000000; stroke-width: 0.8"/>
      </g>
     </g>
     <g id="text_6">
      <!-- 1 -->
      <g transform="translate(21.679688 393.519034) scale(0.1 -0.1)">
       <defs>
        <path id="MicrosoftJhengHeiRegular-31" d="M 3313 0 
L 594 0 
L 594 466 
L 1694 466 
L 1694 4272 
L 566 3931 
L 566 4434 
L 2216 4950 
L 2216 466 
L 3313 466 
L 3313 0 
z
" transform="scale(0.015625)"/>
       </defs>
       <use xlink:href="#MicrosoftJhengHeiRegular-31"/>
      </g>
     </g>
    </g>
    <g id="ytick_3">
     <g id="line2d_8">
      <path d="M 34.475 290.866559 
L 992.505 290.866559 
" clip-path="url(#p9954baa1f4)" style="fill: none; stroke-dasharray: 2.96,1.28; stroke-dashoffset: 0; stroke: #b0b0b0; stroke-opacity: 0.7; stroke-width: 0.8"/>
     </g>
     <g id="line2d_9">
      <g>
       <use xlink:href="#m73a0a0e080" x="34.475" y="290.866559" style="stroke: #000000; stroke-width: 0.8"/>
      </g>
     </g>
     <g id="text_7">
      <!-- 2 -->
      <g transform="translate(21.679688 294.863434) scale(0.1 -0.1)">
       <defs>
        <path id="MicrosoftJhengHeiRegular-32" d="M 3219 0 
L 322 0 
L 322 472 
L 1731 1891 
Q 2431 2597 2592 2914 
Q 2753 3231 2753 3588 
Q 2753 4016 2511 4247 
Q 2269 4478 1816 4478 
Q 1169 4478 572 3919 
L 572 4475 
Q 1131 4922 1884 4922 
Q 2509 4922 2886 4575 
Q 3263 4228 3263 3634 
Q 3263 3178 3014 2736 
Q 2766 2294 2075 1603 
L 947 488 
L 947 475 
L 3219 475 
L 3219 0 
z
" transform="scale(0.015625)"/>
       </defs>
       <use xlink:href="#MicrosoftJhengHeiRegular-32"/>
      </g>
     </g>
    </g>
    <g id="ytick_4">
     <g id="line2d_10">
      <path d="M 34.475 192.210959 
L 992.505 192.210959 
" clip-path="url(#p9954baa1f4)" style="fill: none; stroke-dasharray: 2.96,1.28; stroke-dashoffset: 0; stroke: #b0b0b0; stroke-opacity: 0.7; stroke-width: 0.8"/>
     </g>
     <g id="line2d_11">
      <g>
       <use xlink:href="#m73a0a0e080" x="34.475" y="192.210959" style="stroke: #000000; stroke-width: 0.8"/>
      </g>
     </g>
     <g id="text_8">
      <!-- 3 -->
      <g transform="translate(21.679688 196.207834) scale(0.1 -0.1)">
       <defs>
        <path id="MicrosoftJhengHeiRegular-33" d="M 438 756 
Q 934 363 1556 363 
Q 2056 363 2370 616 
Q 2684 869 2684 1313 
Q 2684 2281 1319 2281 
L 919 2281 
L 919 2728 
L 1300 2728 
Q 2513 2728 2513 3634 
Q 2513 4475 1588 4475 
Q 1075 4475 625 4122 
L 625 4644 
Q 1088 4922 1719 4922 
Q 2294 4922 2670 4606 
Q 3047 4291 3047 3769 
Q 3047 2819 2075 2538 
L 2075 2525 
Q 2591 2481 2905 2162 
Q 3219 1844 3219 1369 
Q 3219 706 2742 312 
Q 2266 -81 1525 -81 
Q 844 -81 438 178 
L 438 756 
z
" transform="scale(0.015625)"/>
       </defs>
       <use xlink:href="#MicrosoftJhengHeiRegular-33"/>
      </g>
     </g>
    </g>
    <g id="ytick_5">
     <g id="line2d_12">
      <path d="M 34.475 93.555359 
L 992.505 93.555359 
" clip-path="url(#p9954baa1f4)" style="fill: none; stroke-dasharray: 2.96,1.28; stroke-dashoffset: 0; stroke: #b0b0b0; stroke-opacity: 0.7; stroke-width: 0.8"/>
     </g>
     <g id="line2d_13">
      <g>
       <use xlink:href="#m73a0a0e080" x="34.475" y="93.555359" style="stroke: #000000; stroke-width: 0.8"/>
      </g>
     </g>
     <g id="text_9">
      <!-- 4 -->
      <g transform="translate(21.679688 97.552234) scale(0.1 -0.1)">
       <defs>
        <path id="MicrosoftJhengHeiRegular-34" d="M 3472 1300 
L 2847 1300 
L 2847 0 
L 2328 0 
L 2328 1300 
L 41 1300 
L 41 1644 
L 2203 4841 
L 2847 4841 
L 2847 1731 
L 3472 1731 
L 3472 1300 
z
M 2328 1731 
L 2328 3863 
Q 2328 4084 2341 4366 
L 2328 4366 
Q 2303 4297 2144 3994 
L 622 1731 
L 2328 1731 
z
" transform="scale(0.015625)"/>
       </defs>
       <use xlink:href="#MicrosoftJhengHeiRegular-34"/>
      </g>
     </g>
    </g>
    <g id="text_10">
     <!-- 位置預測誤差 (公尺) -->
     <g transform="translate(15.19375 309.698398) rotate(-90) scale(0.1 -0.1)">
      <defs>
       <path id="MicrosoftJhengHeiRegular-4f4d" d="M 6016 -172 
L 1900 -172 
L 1900 159 
L 3194 159 
Q 3031 1716 2478 3597 
L 2700 3719 
L 1984 3719 
L 1984 4050 
L 3884 4050 
Q 3750 4634 3500 5178 
L 3822 5288 
Q 4053 4759 4244 4050 
L 5913 4050 
L 5913 3719 
L 5269 3719 
L 5472 3641 
Q 5191 1675 4716 159 
L 6016 159 
L 6016 -172 
z
M 5125 3719 
L 2816 3719 
Q 3334 1778 3547 159 
L 4372 159 
Q 4925 1928 5125 3719 
z
M 2131 5147 
Q 2009 4856 1803 4447 
L 1594 4044 
L 1594 -325 
L 1253 -325 
L 1253 3425 
Q 966 2963 544 2456 
L 331 2772 
Q 1222 3825 1791 5269 
L 2131 5147 
z
" transform="scale(0.015625)"/>
       <path id="MicrosoftJhengHeiRegular-7f6e" d="M 5991 -184 
L 453 -184 
L 453 97 
L 1203 97 
L 1203 2803 
L 2694 2803 
L 2853 3256 
L 500 3256 
L 500 3547 
L 2956 3547 
L 3078 3969 
L 756 3969 
L 756 5119 
L 5663 5119 
L 5663 3969 
L 3425 3969 
L 3297 3547 
L 5894 3547 
L 5894 3256 
L 3194 3256 
L 3047 2803 
L 5228 2803 
L 5228 97 
L 5991 97 
L 5991 -184 
z
M 5331 4231 
L 5331 4844 
L 4147 4844 
L 4147 4231 
L 5331 4231 
z
M 3816 4231 
L 3816 4844 
L 2613 4844 
L 2613 4231 
L 3816 4231 
z
M 2278 4231 
L 2278 4844 
L 1081 4844 
L 1081 4231 
L 2278 4231 
z
M 4903 2138 
L 4903 2534 
L 1538 2534 
L 1538 2138 
L 4903 2138 
z
M 4903 1478 
L 4903 1875 
L 1538 1875 
L 1538 1478 
L 4903 1478 
z
M 4903 781 
L 4903 1222 
L 1538 1222 
L 1538 781 
L 4903 781 
z
M 4903 97 
L 4903 513 
L 1538 513 
L 1538 97 
L 4903 97 
z
" transform="scale(0.015625)"/>
       <path id="MicrosoftJhengHeiRegular-9810" d="M 6009 4794 
L 4588 4794 
Q 4519 4447 4384 4063 
L 5703 4063 
L 5703 947 
L 4031 947 
L 4231 744 
Q 3759 156 2894 -378 
L 2675 -91 
Q 3456 341 3969 947 
L 3150 947 
L 3150 4063 
L 4038 4063 
Q 4166 4381 4250 4794 
L 2925 4794 
L 2925 5119 
L 6009 5119 
L 6009 4794 
z
M 5375 3163 
L 5375 3744 
L 3475 3744 
L 3475 3163 
L 5375 3163 
z
M 5375 2234 
L 5375 2853 
L 3475 2853 
L 3475 2234 
L 5375 2234 
z
M 5375 1269 
L 5375 1931 
L 3475 1931 
L 3475 1269 
L 5375 1269 
z
M 2881 3084 
Q 2719 2138 2369 1631 
L 2081 1831 
Q 2366 2228 2478 2753 
L 1753 2753 
L 1753 122 
Q 1753 -56 1608 -197 
Q 1463 -338 703 -306 
L 609 19 
Q 1219 19 1283 26 
Q 1347 34 1397 96 
Q 1447 159 1447 213 
L 1447 2753 
L 441 2753 
L 441 3084 
L 1838 3084 
Q 1450 3513 666 4072 
L 844 4319 
Q 1059 4184 1478 3853 
Q 1991 4363 2234 4728 
L 594 4728 
L 594 5044 
L 2644 5044 
L 2644 4728 
Q 2175 4094 1734 3641 
Q 2006 3403 2150 3219 
L 2041 3084 
L 2881 3084 
z
M 5991 -78 
L 5778 -341 
Q 5194 175 4569 513 
L 4775 763 
Q 5513 338 5991 -78 
z
" transform="scale(0.015625)"/>
       <path id="MicrosoftJhengHeiRegular-6e2c" d="M 5797 128 
Q 5797 -150 5633 -242 
Q 5469 -334 5038 -334 
Q 4800 -334 4563 -319 
L 4481 0 
Q 5288 0 5383 28 
Q 5478 56 5478 225 
L 5478 5253 
L 5797 5253 
L 5797 128 
z
M 1813 4453 
L 1581 4206 
Q 1156 4666 609 5013 
L 794 5253 
Q 1409 4906 1813 4453 
z
M 3853 1075 
L 2578 1075 
L 2766 947 
Q 2406 209 1863 -353 
L 1600 -134 
Q 2138 397 2463 1075 
L 2016 1075 
L 2016 5125 
L 3853 5125 
L 3853 1075 
z
M 3541 3928 
L 3541 4813 
L 2338 4813 
L 2338 3928 
L 3541 3928 
z
M 3541 2681 
L 3541 3609 
L 2338 3609 
L 2338 2681 
L 3541 2681 
z
M 3541 1394 
L 3541 2369 
L 2338 2369 
L 2338 1394 
L 3541 1394 
z
M 4769 825 
L 4447 825 
L 4447 4844 
L 4769 4844 
L 4769 825 
z
M 1594 2803 
L 1356 2572 
Q 994 3019 403 3456 
L 622 3713 
Q 1266 3209 1594 2803 
z
M 1631 1747 
Q 1059 238 678 -325 
L 428 -109 
Q 959 753 1338 1906 
L 1631 1747 
z
M 4019 -25 
L 3744 -191 
Q 3513 350 3116 813 
L 3378 991 
Q 3816 463 4019 -25 
z
" transform="scale(0.015625)"/>
       <path id="MicrosoftJhengHeiRegular-8aa4" d="M 2463 4294 
L 441 4294 
L 441 4609 
L 1325 4609 
Q 1238 4888 1075 5222 
L 1394 5331 
Q 1591 4931 1691 4609 
L 2463 4609 
L 2463 4294 
z
M 5484 3469 
L 3572 3469 
L 3572 5131 
L 5484 5131 
L 5484 3469 
z
M 5172 3775 
L 5172 4813 
L 3891 4813 
L 3891 3775 
L 5172 3775 
z
M 6009 1394 
L 4269 1394 
Q 4038 75 2650 -313 
L 2456 -38 
Q 3716 225 3938 1394 
L 2497 1394 
L 2497 1709 
L 3988 1709 
Q 4028 1994 4050 2606 
L 2741 2606 
L 2741 4697 
L 3066 4697 
L 3066 2925 
L 5703 2925 
L 5703 1709 
L 6009 1709 
L 6009 1394 
z
M 5369 1709 
L 5369 2606 
L 4384 2606 
Q 4359 2109 4325 1709 
L 5369 1709 
z
M 2322 3366 
L 569 3366 
L 569 3681 
L 2322 3681 
L 2322 3366 
z
M 2322 2438 
L 575 2438 
L 575 2753 
L 2322 2753 
L 2322 2438 
z
M 2216 -184 
L 1894 -184 
L 1894 172 
L 959 172 
L 959 -306 
L 641 -306 
L 641 1831 
L 2216 1831 
L 2216 -184 
z
M 1894 494 
L 1894 1509 
L 959 1509 
L 959 494 
L 1894 494 
z
M 5966 -109 
L 5728 -331 
Q 5384 72 4494 775 
L 4684 1019 
Q 5438 478 5966 -109 
z
" transform="scale(0.015625)"/>
       <path id="MicrosoftJhengHeiRegular-5dee" d="M 4916 5113 
Q 4613 4759 4281 4556 
L 4006 4769 
Q 4378 5009 4634 5319 
L 4916 5113 
z
M 2566 4728 
L 2284 4538 
Q 2078 4813 1703 5106 
L 1978 5313 
Q 2378 4997 2566 4728 
z
M 5997 2138 
L 2094 2138 
Q 2009 684 678 -166 
L 434 97 
Q 1688 828 1753 2138 
L 488 2138 
L 488 2444 
L 3072 2444 
L 3072 3116 
L 878 3116 
L 878 3431 
L 3072 3431 
L 3072 4103 
L 684 4103 
L 684 4409 
L 5819 4409 
L 5819 4103 
L 3406 4103 
L 3406 3431 
L 5569 3431 
L 5569 3116 
L 3406 3116 
L 3406 2444 
L 5997 2444 
L 5997 2138 
z
M 6009 -213 
L 1684 -213 
L 1684 103 
L 3681 103 
L 3681 1131 
L 2228 1131 
L 2228 1453 
L 5703 1453 
L 5703 1131 
L 4031 1131 
L 4031 103 
L 6009 103 
L 6009 -213 
z
" transform="scale(0.015625)"/>
       <path id="MicrosoftJhengHeiRegular-28" d="M 1513 -1100 
Q 469 94 469 1847 
Q 469 3609 1513 4841 
L 1988 4841 
Q 925 3556 925 1853 
Q 925 159 1981 -1100 
L 1513 -1100 
z
" transform="scale(0.015625)"/>
       <path id="MicrosoftJhengHeiRegular-516c" d="M 2663 5153 
Q 2097 3406 628 2350 
L 372 2606 
Q 1781 3563 2328 5269 
L 2663 5153 
z
M 6047 2656 
L 5831 2375 
Q 4681 3125 3994 4844 
L 3566 4844 
L 3566 5191 
L 4256 5191 
Q 4819 3456 6047 2656 
z
M 5569 -213 
L 5269 -384 
Q 5069 109 4872 428 
Q 3059 -41 1269 -197 
L 1172 128 
Q 2150 1278 3041 3419 
L 3366 3278 
Q 2556 1356 1672 184 
Q 2909 272 4703 728 
Q 4416 1238 3922 1913 
L 4219 2088 
Q 5106 866 5569 -213 
z
" transform="scale(0.015625)"/>
       <path id="MicrosoftJhengHeiRegular-5c3a" d="M 6053 -31 
L 5856 -366 
Q 4309 13 3332 755 
Q 2356 1497 1797 2772 
L 1656 2772 
Q 1609 656 666 -306 
L 409 -63 
Q 1313 831 1313 3066 
L 1313 5125 
L 5581 5125 
L 5581 2772 
L 2169 2772 
Q 2891 1341 3995 739 
Q 5100 138 6053 -31 
z
M 5228 3116 
L 5228 4788 
L 1678 4788 
L 1678 3116 
L 5228 3116 
z
" transform="scale(0.015625)"/>
       <path id="MicrosoftJhengHeiRegular-29" d="M 84 -1100 
Q 1138 153 1138 1853 
Q 1138 3563 75 4841 
L 553 4841 
Q 1603 3609 1603 1847 
Q 1603 97 553 -1100 
L 84 -1100 
z
" transform="scale(0.015625)"/>
      </defs>
      <use xlink:href="#MicrosoftJhengHeiRegular-4f4d"/>
      <use xlink:href="#MicrosoftJhengHeiRegular-7f6e" x="100"/>
      <use xlink:href="#MicrosoftJhengHeiRegular-9810" x="200"/>
      <use xlink:href="#MicrosoftJhengHeiRegular-6e2c" x="300"/>
      <use xlink:href="#MicrosoftJhengHeiRegular-8aa4" x="400"/>
      <use xlink:href="#MicrosoftJhengHeiRegular-5dee" x="500"/>
      <use xlink:href="#MicrosoftJhengHeiRegular-20" x="600"/>
      <use xlink:href="#MicrosoftJhengHeiRegular-28" x="625"/>
      <use xlink:href="#MicrosoftJhengHeiRegular-516c" x="657.080078"/>
      <use xlink:href="#MicrosoftJhengHeiRegular-5c3a" x="757.080078"/>
      <use xlink:href="#MicrosoftJhengHeiRegular-29" x="857.080078"/>
     </g>
    </g>
   </g>
   <g id="LineCollection_1">
    <path d="M 121.568636 294.938332 
L 208.662273 294.938332 
" clip-path="url(#p9954baa1f4)" style="fill: none; stroke: #1f77b4; stroke-width: 1.5"/>
    <path d="M 469.943182 351.888551 
L 557.036818 351.888551 
" clip-path="url(#p9954baa1f4)" style="fill: none; stroke: #1f77b4; stroke-width: 1.5"/>
    <path d="M 818.317727 355.150977 
L 905.411364 355.150977 
" clip-path="url(#p9954baa1f4)" style="fill: none; stroke: #1f77b4; stroke-width: 1.5"/>
   </g>
   <g id="LineCollection_2">
    <path d="M 121.568636 44.833235 
L 208.662273 44.833235 
" clip-path="url(#p9954baa1f4)" style="fill: none; stroke: #1f77b4; stroke-width: 1.5"/>
    <path d="M 469.943182 166.196374 
L 557.036818 166.196374 
" clip-path="url(#p9954baa1f4)" style="fill: none; stroke: #1f77b4; stroke-width: 1.5"/>
    <path d="M 818.317727 185.329399 
L 905.411364 185.329399 
" clip-path="url(#p9954baa1f4)" style="fill: none; stroke: #1f77b4; stroke-width: 1.5"/>
   </g>
   <g id="LineCollection_3">
    <path d="M 121.568636 483.90426 
L 208.662273 483.90426 
" clip-path="url(#p9954baa1f4)" style="fill: none; stroke: #1f77b4; stroke-width: 1.5"/>
    <path d="M 469.943182 468.001637 
L 557.036818 468.001637 
" clip-path="url(#p9954baa1f4)" style="fill: none; stroke: #1f77b4; stroke-width: 1.5"/>
    <path d="M 818.317727 485.647936 
L 905.411364 485.647936 
" clip-path="url(#p9954baa1f4)" style="fill: none; stroke: #1f77b4; stroke-width: 1.5"/>
   </g>
   <g id="LineCollection_4">
    <path d="M 165.115455 483.90426 
L 165.115455 44.833235 
" clip-path="url(#p9954baa1f4)" style="fill: none; stroke: #1f77b4; stroke-width: 1.5"/>
    <path d="M 513.49 468.001637 
L 513.49 166.196374 
" clip-path="url(#p9954baa1f4)" style="fill: none; stroke: #1f77b4; stroke-width: 1.5"/>
    <path d="M 861.864545 485.647936 
L 861.864545 185.329399 
" clip-path="url(#p9954baa1f4)" style="fill: none; stroke: #1f77b4; stroke-width: 1.5"/>
   </g>
   <g id="LineCollection_5">
    <path d="M 121.568636 303.089487 
L 208.662273 303.089487 
" clip-path="url(#p9954baa1f4)" style="fill: none; stroke: #1f77b4; stroke-width: 1.5"/>
    <path d="M 469.943182 357.493591 
L 557.036818 357.493591 
" clip-path="url(#p9954baa1f4)" style="fill: none; stroke: #1f77b4; stroke-width: 1.5"/>
    <path d="M 818.317727 355.002768 
L 905.411364 355.002768 
" clip-path="url(#p9954baa1f4)" style="fill: none; stroke: #1f77b4; stroke-width: 1.5"/>
   </g>
   <g id="patch_3">
    <path d="M 34.475 507.688671 
L 34.475 22.7925 
" style="fill: none; stroke: #000000; stroke-width: 0.8; stroke-linejoin: miter; stroke-linecap: square"/>
   </g>
   <g id="patch_4">
    <path d="M 992.505 507.688671 
L 992.505 22.7925 
" style="fill: none; stroke: #000000; stroke-width: 0.8; stroke-linejoin: miter; stroke-linecap: square"/>
   </g>
   <g id="patch_5">
    <path d="M 34.475 507.688671 
L 992.505 507.688671 
" style="fill: none; stroke: #000000; stroke-width: 0.8; stroke-linejoin: miter; stroke-linecap: square"/>
   </g>
   <g id="patch_6">
    <path d="M 34.475 22.7925 
L 992.505 22.7925 
" style="fill: none; stroke: #000000; stroke-width: 0.8; stroke-linejoin: miter; stroke-linecap: square"/>
   </g>
   <g id="text_11">
    <!-- 位置預測誤差密度分布 - 高斯雜訊 1dB -->
    <g transform="translate(411.434687 16.7925) scale(0.12 -0.12)">
     <defs>
      <path id="MicrosoftJhengHeiRegular-5bc6" d="M 5753 3500 
L 5428 3500 
L 5428 4459 
L 1025 4459 
L 1025 3500 
L 697 3500 
L 697 4781 
L 3097 4781 
Q 3044 4984 2906 5228 
L 3206 5331 
Q 3338 5084 3438 4781 
L 5753 4781 
L 5753 3500 
z
M 3700 3475 
L 3438 3303 
Q 3153 3750 2828 4084 
L 3109 4256 
Q 3406 3959 3700 3475 
z
M 4788 3794 
Q 3894 2753 2509 2053 
Q 2509 1972 2600 1939 
Q 2691 1906 3347 1906 
Q 4028 1906 4218 1961 
Q 4409 2016 4453 2694 
L 4763 2534 
Q 4744 2131 4625 1914 
Q 4506 1697 4334 1645 
Q 4163 1594 3625 1594 
Q 2694 1594 2497 1630 
Q 2300 1666 2194 1894 
Q 1375 1525 603 1247 
L 447 1516 
Q 1416 1853 2163 2216 
L 2163 4031 
L 2497 4031 
L 2497 2388 
Q 3734 3016 4550 3994 
L 4788 3794 
z
M 1941 3547 
Q 1334 2797 678 2297 
L 447 2534 
Q 1034 2959 1672 3731 
L 1941 3547 
z
M 5978 2181 
L 5734 1959 
Q 5353 2522 4716 3138 
L 4959 3341 
Q 5644 2672 5978 2181 
z
M 5331 -331 
L 4997 -331 
L 4997 -166 
L 1088 -166 
L 1088 1147 
L 1422 1147 
L 1422 141 
L 3003 141 
L 3003 1422 
L 3334 1422 
L 3334 141 
L 4997 141 
L 4997 1147 
L 5331 1147 
L 5331 -331 
z
" transform="scale(0.015625)"/>
      <path id="MicrosoftJhengHeiRegular-5ea6" d="M 5941 4422 
L 1319 4422 
L 1319 2638 
Q 1319 897 616 -238 
L 325 -25 
Q 997 1019 997 2963 
L 997 4744 
L 3359 4744 
Q 3219 5003 3047 5222 
L 3419 5313 
Q 3619 5003 3750 4744 
L 5941 4744 
L 5941 4422 
z
M 5941 3397 
L 4838 3397 
L 4838 2356 
L 2541 2356 
L 2541 3397 
L 1569 3397 
L 1569 3713 
L 2541 3713 
L 2541 4238 
L 2875 4238 
L 2875 3713 
L 4506 3713 
L 4506 4238 
L 4838 4238 
L 4838 3713 
L 5941 3713 
L 5941 3397 
z
M 4506 2675 
L 4506 3397 
L 2875 3397 
L 2875 2675 
L 4506 2675 
z
M 6088 -44 
L 5881 -353 
Q 4572 -138 3731 256 
Q 2756 -181 1356 -325 
L 1191 6 
Q 2566 113 3341 447 
Q 2594 903 2194 1625 
L 1953 1625 
L 1953 1959 
L 5191 1959 
L 5191 1625 
Q 4816 894 4084 459 
Q 4803 147 6088 -44 
z
M 4788 1625 
L 2591 1625 
Q 2997 969 3706 628 
Q 4450 1038 4788 1625 
z
" transform="scale(0.015625)"/>
      <path id="MicrosoftJhengHeiRegular-5206" d="M 2688 5141 
Q 1919 3378 647 2503 
L 416 2766 
Q 1650 3591 2350 5241 
L 2688 5141 
z
M 6047 2809 
L 5819 2522 
Q 4553 3422 4063 4878 
L 3584 4878 
L 3584 5222 
L 4300 5222 
Q 4778 3628 6047 2809 
z
M 5013 2894 
Q 4997 1866 4890 1047 
Q 4784 228 4681 31 
Q 4578 -166 4395 -250 
Q 4213 -334 3759 -334 
Q 3563 -334 3250 -319 
L 3175 25 
Q 3525 -6 3822 -6 
Q 4109 -6 4192 31 
Q 4275 69 4336 139 
Q 4397 209 4472 557 
Q 4547 906 4592 1420 
Q 4638 1934 4653 2553 
L 3009 2553 
Q 2794 669 897 -409 
L 691 -141 
Q 2450 847 2644 2553 
L 1434 2553 
L 1434 2894 
L 5013 2894 
z
" transform="scale(0.015625)"/>
      <path id="MicrosoftJhengHeiRegular-5e03" d="M 6022 4500 
L 6016 4159 
L 2925 4159 
Q 2453 3316 1931 2772 
L 3366 2772 
L 3366 3653 
L 3713 3653 
L 3713 2772 
L 5588 2772 
L 5588 544 
Q 5588 31 5044 31 
Q 4609 31 4481 38 
L 4353 403 
Q 4766 381 4956 381 
Q 5150 381 5198 412 
Q 5247 444 5247 513 
L 5247 2425 
L 3713 2425 
L 3713 -347 
L 3366 -347 
L 3366 2425 
L 1913 2425 
L 1913 31 
L 1556 31 
L 1556 2413 
Q 984 1956 691 1759 
L 459 2034 
Q 1797 2859 2522 4159 
L 453 4159 
L 453 4500 
L 2700 4500 
Q 2847 4784 3028 5325 
L 3366 5247 
Q 3250 4866 3084 4500 
L 6022 4500 
z
" transform="scale(0.015625)"/>
      <path id="MicrosoftJhengHeiRegular-2d" d="M 2328 1722 
L 488 1722 
L 488 2138 
L 2328 2138 
L 2328 1722 
z
" transform="scale(0.015625)"/>
      <path id="MicrosoftJhengHeiRegular-9ad8" d="M 5913 4391 
L 525 4391 
L 525 4697 
L 3059 4697 
Q 3034 4881 2875 5209 
L 3200 5313 
Q 3309 5094 3406 4697 
L 5913 4697 
L 5913 4391 
z
M 5013 2766 
L 1428 2766 
L 1428 3981 
L 5013 3981 
L 5013 2766 
z
M 4659 3078 
L 4659 3659 
L 1772 3659 
L 1772 3078 
L 4659 3078 
z
M 5638 178 
Q 5638 -47 5522 -184 
Q 5406 -322 4966 -322 
Q 4822 -322 4616 -313 
L 4506 19 
Q 4894 3 5025 3 
Q 5306 3 5306 238 
L 5306 2016 
L 1147 2016 
L 1147 -319 
L 819 -319 
L 819 2338 
L 5638 2338 
L 5638 178 
z
M 4531 331 
L 1906 331 
L 1906 1581 
L 4531 1581 
L 4531 331 
z
M 4191 641 
L 4191 1269 
L 2253 1269 
L 2253 641 
L 4191 641 
z
" transform="scale(0.015625)"/>
      <path id="MicrosoftJhengHeiRegular-65af" d="M 3450 4238 
L 2994 4238 
L 2994 1606 
L 3438 1606 
L 3438 1294 
L 441 1294 
L 441 1606 
L 997 1606 
L 997 4238 
L 538 4238 
L 538 4544 
L 997 4544 
L 997 5275 
L 1319 5275 
L 1319 4544 
L 2669 4544 
L 2669 5275 
L 2994 5275 
L 2994 4544 
L 3450 4544 
L 3450 4238 
z
M 2669 3616 
L 2669 4238 
L 1319 4238 
L 1319 3616 
L 2669 3616 
z
M 2669 2625 
L 2669 3291 
L 1319 3291 
L 1319 2625 
L 2669 2625 
z
M 2669 1606 
L 2669 2303 
L 1319 2303 
L 1319 1606 
L 2669 1606 
z
M 5997 2925 
L 5288 2925 
L 5288 -319 
L 4959 -319 
L 4959 2925 
L 4097 2925 
Q 4131 794 3366 -325 
L 3059 -147 
Q 3788 891 3788 2741 
L 3788 4744 
Q 4863 4875 5716 5259 
L 5919 4991 
Q 5075 4622 4109 4475 
L 4109 3244 
L 5997 3244 
L 5997 2925 
z
M 1650 891 
Q 1200 169 697 -300 
L 416 -56 
Q 931 334 1375 1081 
L 1650 891 
z
M 3009 250 
L 2725 72 
Q 2559 450 2188 884 
L 2450 1050 
Q 2825 631 3009 250 
z
" transform="scale(0.015625)"/>
      <path id="MicrosoftJhengHeiRegular-96dc" d="M 6003 -44 
L 3922 -44 
L 3922 -319 
L 3609 -319 
L 3609 3284 
Q 3522 3109 3372 2900 
L 3156 3156 
Q 3769 4122 4025 5319 
L 4325 5209 
Q 4228 4763 4013 4159 
L 4959 4159 
Q 4822 4647 4641 5094 
L 4947 5216 
Q 5119 4759 5281 4159 
L 5919 4159 
L 5919 3853 
L 5119 3853 
L 5119 2913 
L 5900 2913 
L 5900 2613 
L 5119 2613 
L 5119 1613 
L 5900 1613 
L 5900 1313 
L 5119 1313 
L 5119 275 
L 6003 275 
L 6003 -44 
z
M 4800 2913 
L 4800 3853 
L 3922 3853 
L 3922 2913 
L 4800 2913 
z
M 4800 1613 
L 4800 2613 
L 3922 2613 
L 3922 1613 
L 4800 1613 
z
M 4800 275 
L 4800 1313 
L 3922 1313 
L 3922 275 
L 4800 275 
z
M 3256 4416 
L 525 4416 
L 525 4716 
L 1778 4716 
Q 1716 4856 1538 5172 
L 1825 5313 
Q 1981 5056 2113 4716 
L 3256 4716 
L 3256 4416 
z
M 1753 3244 
L 1575 2981 
Q 1356 3228 1228 3316 
Q 975 2838 728 2572 
L 481 2753 
Q 1003 3350 1241 4231 
L 1538 4134 
Q 1481 3897 1356 3603 
Q 1591 3416 1753 3244 
z
M 3072 2944 
L 2859 2688 
Q 2572 3097 2369 3297 
Q 2247 3034 1972 2644 
L 1709 2803 
Q 2134 3381 2400 4225 
L 2688 4134 
Q 2613 3897 2491 3578 
Q 2809 3294 3072 2944 
z
M 3256 1747 
L 2053 1747 
L 2053 1472 
Q 2797 981 3181 609 
L 2975 331 
Q 2456 856 2053 1113 
L 2053 -319 
L 1734 -319 
L 1734 1241 
Q 1272 681 609 178 
L 403 434 
Q 1319 1106 1703 1747 
L 441 1747 
L 441 2059 
L 1734 2059 
L 1734 2463 
L 2053 2463 
L 2053 2059 
L 3256 2059 
L 3256 1747 
z
" transform="scale(0.015625)"/>
      <path id="MicrosoftJhengHeiRegular-8a0a" d="M 2541 4300 
L 416 4300 
L 416 4616 
L 1409 4616 
Q 1322 4853 1131 5191 
L 1422 5331 
Q 1613 4994 1753 4616 
L 2541 4616 
L 2541 4300 
z
M 6181 1119 
Q 6113 506 5942 106 
Q 5772 -294 5556 -294 
Q 5222 -294 5100 376 
Q 4978 1047 4978 1491 
L 4978 4788 
L 3700 4788 
L 3700 2778 
L 4709 2778 
L 4709 2472 
L 3700 2472 
L 3700 -341 
L 3366 -341 
L 3366 2472 
L 2625 2472 
L 2625 2778 
L 3366 2778 
L 3366 4788 
L 2675 4788 
L 2675 5094 
L 5306 5094 
L 5306 1716 
Q 5306 891 5404 475 
Q 5503 59 5547 59 
Q 5591 59 5709 465 
Q 5828 872 5869 1300 
L 6181 1119 
z
M 2356 3366 
L 569 3366 
L 569 3681 
L 2356 3681 
L 2356 3366 
z
M 2338 2450 
L 569 2450 
L 569 2753 
L 2338 2753 
L 2338 2450 
z
M 2338 -225 
L 1997 -225 
L 1997 159 
L 959 159 
L 959 -325 
L 622 -325 
L 622 1819 
L 2338 1819 
L 2338 -225 
z
M 1997 469 
L 1997 1503 
L 959 1503 
L 959 469 
L 1997 469 
z
" transform="scale(0.015625)"/>
      <path id="MicrosoftJhengHeiRegular-42" d="M 641 0 
L 641 4841 
L 1994 4841 
Q 2597 4841 2965 4537 
Q 3334 4234 3334 3734 
Q 3334 3328 3117 3022 
Q 2900 2716 2503 2581 
L 2503 2569 
Q 2988 2522 3283 2206 
Q 3578 1891 3578 1388 
Q 3578 772 3136 386 
Q 2694 0 2019 0 
L 641 0 
z
M 1172 4347 
L 1172 2756 
L 1759 2756 
Q 2241 2756 2509 2986 
Q 2778 3216 2778 3628 
Q 2778 4347 1841 4347 
L 1172 4347 
z
M 1172 2266 
L 1172 494 
L 1956 494 
Q 2456 494 2739 733 
Q 3022 972 3022 1394 
Q 3022 2266 1828 2266 
L 1172 2266 
z
" transform="scale(0.015625)"/>
     </defs>
     <use xlink:href="#MicrosoftJhengHeiRegular-4f4d"/>
     <use xlink:href="#MicrosoftJhengHeiRegular-7f6e" x="100"/>
     <use xlink:href="#MicrosoftJhengHeiRegular-9810" x="200"/>
     <use xlink:href="#MicrosoftJhengHeiRegular-6e2c" x="300"/>
     <use xlink:href="#MicrosoftJhengHeiRegular-8aa4" x="400"/>
     <use xlink:href="#MicrosoftJhengHeiRegular-5dee" x="500"/>
     <use xlink:href="#MicrosoftJhengHeiRegular-5bc6" x="600"/>
     <use xlink:href="#MicrosoftJhengHeiRegular-5ea6" x="700"/>
     <use xlink:href="#MicrosoftJhengHeiRegular-5206" x="800"/>
     <use xlink:href="#MicrosoftJhengHeiRegular-5e03" x="900"/>
     <use xlink:href="#MicrosoftJhengHeiRegular-20" x="1000"/>
     <use xlink:href="#MicrosoftJhengHeiRegular-2d" x="1025"/>
     <use xlink:href="#MicrosoftJhengHeiRegular-20" x="1068.164062"/>
     <use xlink:href="#MicrosoftJhengHeiRegular-9ad8" x="1093.164062"/>
     <use xlink:href="#MicrosoftJhengHeiRegular-65af" x="1193.164062"/>
     <use xlink:href="#MicrosoftJhengHeiRegular-96dc" x="1293.164062"/>
     <use xlink:href="#MicrosoftJhengHeiRegular-8a0a" x="1393.164062"/>
     <use xlink:href="#MicrosoftJhengHeiRegular-20" x="1493.164062"/>
     <use xlink:href="#MicrosoftJhengHeiRegular-31" x="1518.164062"/>
     <use xlink:href="#MicrosoftJhengHeiRegular-64" x="1576.123047"/>
     <use xlink:href="#MicrosoftJhengHeiRegular-42" x="1639.501953"/>
    </g>
   </g>
  </g>
 </g>
 <defs>
  <clipPath id="p9954baa1f4">
   <rect x="34.475" y="22.7925" width="958.03" height="484.896171"/>
  </clipPath>
 </defs>
</svg>
