<?xml version="1.0" encoding="utf-8" standalone="no"?>
<!DOCTYPE svg PUBLIC "-//W3C//DTD SVG 1.1//EN"
  "http://www.w3.org/Graphics/SVG/1.1/DTD/svg11.dtd">
<svg xmlns:xlink="http://www.w3.org/1999/xlink" width="999.705pt" height="566.322599pt" viewBox="0 0 999.705 566.322599" xmlns="http://www.w3.org/2000/svg" version="1.1">
 <metadata>
  <rdf:RDF xmlns:dc="http://purl.org/dc/elements/1.1/" xmlns:cc="http://creativecommons.org/ns#" xmlns:rdf="http://www.w3.org/1999/02/22-rdf-syntax-ns#">
   <cc:Work>
    <dc:type rdf:resource="http://purl.org/dc/dcmitype/StillImage"/>
    <dc:date>2025-09-01T01:24:50.210594</dc:date>
    <dc:format>image/svg+xml</dc:format>
    <dc:creator>
     <cc:Agent>
      <dc:title>Matplotlib v3.7.1, https://matplotlib.org/</dc:title>
     </cc:Agent>
    </dc:creator>
   </cc:Work>
  </rdf:RDF>
 </metadata>
 <defs>
  <style type="text/css">*{stroke-linejoin: round; stroke-linecap: butt}</style>
 </defs>
 <g id="figure_1">
  <g id="patch_1">
   <path d="M 0 566.322599 
L 999.705 566.322599 
L 999.705 0 
L 0 0 
z
" style="fill: #ffffff"/>
  </g>
  <g id="axes_1">
   <g id="patch_2">
    <path d="M 42.575 507.688671 
L 992.505 507.688671 
L 992.505 22.7925 
L 42.575 22.7925 
z
" style="fill: #ffffff"/>
   </g>
   <g id="PolyCollection_1">
    <path d="M 188.773368 480.363784 
L 155.44845 480.363784 
L 153.004286 476.47703 
L 150.359146 472.590277 
L 147.524354 468.703523 
L 144.516288 464.81677 
L 141.356226 460.930016 
L 138.069937 457.043262 
L 134.687014 453.156509 
L 131.239995 449.269755 
L 127.763316 445.383001 
L 124.292175 441.496248 
L 120.861399 437.609494 
L 117.504401 433.722741 
L 114.252312 429.835987 
L 111.133366 425.949233 
L 108.172555 422.06248 
L 105.391582 418.175726 
L 102.809066 414.288972 
L 100.44094 410.402219 
L 98.300945 406.515465 
L 96.401132 402.628712 
L 94.75224 398.741958 
L 93.363895 394.855204 
L 92.244538 390.968451 
L 91.401086 387.081697 
L 90.838336 383.194943 
L 90.558174 379.30819 
L 90.558693 375.421436 
L 90.833329 371.534683 
L 91.370154 367.647929 
L 92.15141 363.761175 
L 93.153402 359.874422 
L 94.346762 355.987668 
L 95.697117 352.100914 
L 97.166095 348.214161 
L 98.712604 344.327407 
L 100.294274 340.440654 
L 101.868937 336.5539 
L 103.396038 332.667146 
L 104.837869 328.780393 
L 106.160545 324.893639 
L 107.334692 321.006885 
L 108.335826 317.120132 
L 109.144449 313.233378 
L 109.745921 309.346625 
L 110.130161 305.459871 
L 110.291271 301.573117 
L 110.227145 297.686364 
L 109.939129 293.79961 
L 109.431783 289.912856 
L 108.712771 286.026103 
L 107.792866 282.139349 
L 106.686059 278.252596 
L 105.409719 274.365842 
L 103.98474 270.479088 
L 102.435622 266.592335 
L 100.790403 262.705581 
L 99.080398 258.818827 
L 97.339703 254.932074 
L 95.604457 251.04532 
L 93.911868 247.158567 
L 92.299061 243.271813 
L 90.801814 239.385059 
L 89.453266 235.498306 
L 88.282718 231.611552 
L 87.314607 227.724798 
L 86.567766 223.838045 
L 86.055033 219.951291 
L 85.783245 216.064538 
L 85.753636 212.177784 
L 85.962601 208.29103 
L 86.402752 204.404277 
L 87.064177 200.517523 
L 87.935783 196.630769 
L 89.006578 192.744016 
L 90.266784 188.857262 
L 91.70866 184.970509 
L 93.32696 181.083755 
L 95.11898 177.197001 
L 97.084181 173.310248 
L 99.223455 169.423494 
L 101.538087 165.53674 
L 104.028539 161.649987 
L 106.693175 157.763233 
L 109.527073 153.87648 
L 112.521035 149.989726 
L 115.660908 146.102972 
L 118.927288 142.216219 
L 122.295633 138.329465 
L 125.736795 134.442712 
L 129.217908 130.555958 
L 132.703575 126.669204 
L 136.157242 122.782451 
L 139.542661 118.895697 
L 142.825322 115.008943 
L 145.973752 111.12219 
L 148.960607 107.235436 
L 151.763486 103.348683 
L 154.365441 99.461929 
L 156.755174 95.575175 
L 187.466644 95.575175 
L 187.466644 95.575175 
L 189.856377 99.461929 
L 192.458332 103.348683 
L 195.261211 107.235436 
L 198.248066 111.12219 
L 201.396496 115.008943 
L 204.679157 118.895697 
L 208.064576 122.782451 
L 211.518244 126.669204 
L 215.00391 130.555958 
L 218.485023 134.442712 
L 221.926185 138.329465 
L 225.294531 142.216219 
L 228.56091 146.102972 
L 231.700783 149.989726 
L 234.694745 153.87648 
L 237.528643 157.763233 
L 240.19328 161.649987 
L 242.683731 165.53674 
L 244.998364 169.423494 
L 247.137638 173.310248 
L 249.102839 177.197001 
L 250.894858 181.083755 
L 252.513159 184.970509 
L 253.955035 188.857262 
L 255.21524 192.744016 
L 256.286035 196.630769 
L 257.157641 200.517523 
L 257.819067 204.404277 
L 258.259217 208.29103 
L 258.468182 212.177784 
L 258.438573 216.064538 
L 258.166785 219.951291 
L 257.654052 223.838045 
L 256.907211 227.724798 
L 255.9391 231.611552 
L 254.768552 235.498306 
L 253.420005 239.385059 
L 251.922757 243.271813 
L 250.309951 247.158567 
L 248.617361 251.04532 
L 246.882115 254.932074 
L 245.141421 258.818827 
L 243.431415 262.705581 
L 241.786196 266.592335 
L 240.237078 270.479088 
L 238.812099 274.365842 
L 237.535759 278.252596 
L 236.428952 282.139349 
L 235.509048 286.026103 
L 234.790035 289.912856 
L 234.282689 293.79961 
L 233.994673 297.686364 
L 233.930547 301.573117 
L 234.091658 305.459871 
L 234.475898 309.346625 
L 235.077369 313.233378 
L 235.885992 317.120132 
L 236.887126 321.006885 
L 238.061274 324.893639 
L 239.38395 328.780393 
L 240.82578 332.667146 
L 242.352881 336.5539 
L 243.927544 340.440654 
L 245.509214 344.327407 
L 247.055723 348.214161 
L 248.524701 352.100914 
L 249.875056 355.987668 
L 251.068416 359.874422 
L 252.070408 363.761175 
L 252.851664 367.647929 
L 253.388489 371.534683 
L 253.663125 375.421436 
L 253.663644 379.30819 
L 253.383482 383.194943 
L 252.820732 387.081697 
L 251.977281 390.968451 
L 250.857923 394.855204 
L 249.469578 398.741958 
L 247.820686 402.628712 
L 245.920873 406.515465 
L 243.780879 410.402219 
L 241.412752 414.288972 
L 238.830236 418.175726 
L 236.049263 422.06248 
L 233.088452 425.949233 
L 229.969506 429.835987 
L 226.717417 433.722741 
L 223.360419 437.609494 
L 219.929643 441.496248 
L 216.458502 445.383001 
L 212.981823 449.269755 
L 209.534804 453.156509 
L 206.151881 457.043262 
L 202.865592 460.930016 
L 199.70553 464.81677 
L 196.697464 468.703523 
L 193.862672 472.590277 
L 191.217533 476.47703 
L 188.773368 480.363784 
z
" clip-path="url(#p5b0c76a1eb)" style="fill: #1f77b4; fill-opacity: 0.7"/>
   </g>
   <g id="PolyCollection_2">
    <path d="M 535.227299 485.647936 
L 499.852701 485.647936 
L 497.611242 481.710121 
L 495.255861 477.772306 
L 492.80477 473.834491 
L 490.277753 469.896676 
L 487.695231 465.958861 
L 485.077261 462.021046 
L 482.442567 458.083231 
L 479.807687 454.145416 
L 477.18634 450.207602 
L 474.589073 446.269787 
L 472.023259 442.331972 
L 469.493455 438.394157 
L 467.002106 434.456342 
L 464.550542 430.518527 
L 462.140161 426.580712 
L 459.773701 422.642897 
L 457.456438 418.705082 
L 455.19719 414.767267 
L 453.008997 410.829452 
L 450.909378 406.891637 
L 448.920121 402.953822 
L 447.066576 399.016007 
L 445.376522 395.078192 
L 443.878651 391.140377 
L 442.600825 387.202562 
L 441.568218 383.264747 
L 440.801505 379.326932 
L 440.315246 375.389117 
L 440.116572 371.451302 
L 440.204279 367.513487 
L 440.568388 363.575672 
L 441.190197 359.637857 
L 442.0428 355.700042 
L 443.092048 351.762227 
L 444.297868 347.824412 
L 445.61587 343.886597 
L 446.999133 339.948782 
L 448.400089 336.010968 
L 449.772386 332.073153 
L 451.072654 328.135338 
L 452.262077 324.197523 
L 453.307705 320.259708 
L 454.183433 316.321893 
L 454.870611 312.384078 
L 455.358245 308.446263 
L 455.642807 304.508448 
L 455.727643 300.570633 
L 455.622045 296.632818 
L 455.340049 292.695003 
L 454.89904 288.757188 
L 454.318274 284.819373 
L 453.617427 280.881558 
L 452.815283 276.943743 
L 451.928656 273.005928 
L 450.971629 269.068113 
L 449.955172 265.130298 
L 448.887143 261.192483 
L 447.772683 257.254668 
L 446.614934 253.316853 
L 445.416025 249.379038 
L 444.178224 245.441223 
L 442.905142 241.503408 
L 441.60289 237.565593 
L 440.28108 233.627778 
L 438.95359 229.689963 
L 437.639027 225.752149 
L 436.360858 221.814334 
L 435.147193 217.876519 
L 434.030232 213.938704 
L 433.045414 210.000889 
L 432.230314 206.063074 
L 431.62333 202.125259 
L 431.262249 198.187444 
L 431.182727 194.249629 
L 431.416773 190.311814 
L 431.991285 186.373999 
L 432.926729 182.436184 
L 434.236 178.498369 
L 435.923558 174.560554 
L 437.984874 170.622739 
L 440.406248 166.684924 
L 443.16502 162.747109 
L 446.230186 158.809294 
L 449.563396 154.871479 
L 453.120291 150.933664 
L 456.852112 146.995849 
L 460.707472 143.058034 
L 464.634203 139.120219 
L 468.581154 135.182404 
L 472.499842 131.244589 
L 476.345858 127.306774 
L 480.07997 123.368959 
L 483.668874 119.431144 
L 487.085594 115.49333 
L 490.309543 111.555515 
L 493.326287 107.6177 
L 496.127074 103.679885 
L 498.708203 99.74207 
L 501.070281 95.804255 
L 534.009719 95.804255 
L 534.009719 95.804255 
L 536.371797 99.74207 
L 538.952926 103.679885 
L 541.753713 107.6177 
L 544.770457 111.555515 
L 547.994406 115.49333 
L 551.411126 119.431144 
L 555.00003 123.368959 
L 558.734142 127.306774 
L 562.580158 131.244589 
L 566.498846 135.182404 
L 570.445797 139.120219 
L 574.372528 143.058034 
L 578.227888 146.995849 
L 581.959709 150.933664 
L 585.516604 154.871479 
L 588.849814 158.809294 
L 591.91498 162.747109 
L 594.673752 166.684924 
L 597.095126 170.622739 
L 599.156442 174.560554 
L 600.844 178.498369 
L 602.153271 182.436184 
L 603.088715 186.373999 
L 603.663227 190.311814 
L 603.897273 194.249629 
L 603.817751 198.187444 
L 603.45667 202.125259 
L 602.849686 206.063074 
L 602.034586 210.000889 
L 601.049768 213.938704 
L 599.932807 217.876519 
L 598.719142 221.814334 
L 597.440973 225.752149 
L 596.12641 229.689963 
L 594.79892 233.627778 
L 593.47711 237.565593 
L 592.174858 241.503408 
L 590.901776 245.441223 
L 589.663975 249.379038 
L 588.465066 253.316853 
L 587.307317 257.254668 
L 586.192857 261.192483 
L 585.124828 265.130298 
L 584.108371 269.068113 
L 583.151344 273.005928 
L 582.264717 276.943743 
L 581.462573 280.881558 
L 580.761726 284.819373 
L 580.18096 288.757188 
L 579.739951 292.695003 
L 579.457955 296.632818 
L 579.352357 300.570633 
L 579.437193 304.508448 
L 579.721755 308.446263 
L 580.209389 312.384078 
L 580.896567 316.321893 
L 581.772295 320.259708 
L 582.817923 324.197523 
L 584.007346 328.135338 
L 585.307614 332.073153 
L 586.679911 336.010968 
L 588.080867 339.948782 
L 589.46413 343.886597 
L 590.782132 347.824412 
L 591.987952 351.762227 
L 593.0372 355.700042 
L 593.889803 359.637857 
L 594.511612 363.575672 
L 594.875721 367.513487 
L 594.963428 371.451302 
L 594.764754 375.389117 
L 594.278495 379.326932 
L 593.511782 383.264747 
L 592.479175 387.202562 
L 591.201349 391.140377 
L 589.703478 395.078192 
L 588.013424 399.016007 
L 586.159879 402.953822 
L 584.170622 406.891637 
L 582.071003 410.829452 
L 579.88281 414.767267 
L 577.623562 418.705082 
L 575.306299 422.642897 
L 572.939839 426.580712 
L 570.529458 430.518527 
L 568.077894 434.456342 
L 565.586545 438.394157 
L 563.056741 442.331972 
L 560.490927 446.269787 
L 557.89366 450.207602 
L 555.272313 454.145416 
L 552.637433 458.083231 
L 550.002739 462.021046 
L 547.384769 465.958861 
L 544.802247 469.896676 
L 542.27523 473.834491 
L 539.824139 477.772306 
L 537.468758 481.710121 
L 535.227299 485.647936 
z
" clip-path="url(#p5b0c76a1eb)" style="fill: #ff7f0e; fill-opacity: 0.7"/>
   </g>
   <g id="PolyCollection_3">
    <path d="M 888.067743 461.712286 
L 837.870439 461.712286 
L 835.023449 457.501387 
L 832.046474 453.290487 
L 828.95468 449.079588 
L 825.764918 444.868688 
L 822.49572 440.657789 
L 819.16732 436.446889 
L 815.801691 432.23599 
L 812.422544 428.02509 
L 809.055255 423.814191 
L 805.726663 419.603291 
L 802.46474 415.392392 
L 799.298085 411.181492 
L 796.255279 406.970593 
L 793.364116 402.759693 
L 790.65077 398.548794 
L 788.138965 394.337894 
L 785.849217 390.126995 
L 783.798223 385.916095 
L 781.998447 381.705196 
L 780.457951 377.494296 
L 779.180456 373.283397 
L 778.165633 369.072497 
L 777.409545 364.861598 
L 776.905204 360.650698 
L 776.643122 356.439799 
L 776.611818 352.228899 
L 776.798175 348.018 
L 777.187639 343.8071 
L 777.76423 339.596201 
L 778.510389 335.385301 
L 779.406721 331.174402 
L 780.431687 326.963502 
L 781.561352 322.752603 
L 782.769264 318.541703 
L 784.026525 314.330804 
L 785.302125 310.119904 
L 786.563541 305.909005 
L 787.777592 301.698105 
L 788.911511 297.487206 
L 789.934153 293.276306 
L 790.817257 289.065407 
L 791.536664 284.854507 
L 792.073391 280.643608 
L 792.414486 276.432708 
L 792.553598 272.221809 
L 792.491211 268.010909 
L 792.23455 263.800009 
L 791.797145 259.58911 
L 791.198103 255.37821 
L 790.461134 251.167311 
L 789.613381 246.956411 
L 788.684155 242.745512 
L 787.703611 238.534612 
L 786.70147 234.323713 
L 785.705839 230.112813 
L 784.742192 225.901914 
L 783.832566 221.691014 
L 782.995018 217.480115 
L 782.243353 213.269215 
L 781.587145 209.058316 
L 781.032047 204.847416 
L 780.580349 200.636517 
L 780.231757 196.425617 
L 779.984326 192.214718 
L 779.835469 188.003818 
L 779.782976 183.792919 
L 779.825933 179.582019 
L 779.965489 175.37112 
L 780.205376 171.16022 
L 780.552137 166.949321 
L 781.01505 162.738421 
L 781.605713 158.527522 
L 782.337359 154.316622 
L 783.223916 150.105723 
L 784.278932 145.894823 
L 785.514423 141.683924 
L 786.939773 137.473024 
L 788.560775 133.262125 
L 790.378893 129.051225 
L 792.390821 124.840326 
L 794.588366 120.629426 
L 796.95866 116.418527 
L 799.484668 112.207627 
L 802.145948 107.996728 
L 804.919572 103.785828 
L 807.781125 99.574929 
L 810.705695 95.364029 
L 813.668773 91.15313 
L 816.646989 86.94223 
L 819.618655 82.731331 
L 822.564098 78.520431 
L 825.465782 74.309532 
L 828.308262 70.098632 
L 831.078012 65.887733 
L 833.763172 61.676833 
L 836.353283 57.465934 
L 838.839047 53.255034 
L 841.21215 49.044135 
L 843.465169 44.833235 
L 882.473013 44.833235 
L 882.473013 44.833235 
L 884.726032 49.044135 
L 887.099135 53.255034 
L 889.584899 57.465934 
L 892.17501 61.676833 
L 894.86017 65.887733 
L 897.629919 70.098632 
L 900.4724 74.309532 
L 903.374084 78.520431 
L 906.319527 82.731331 
L 909.291193 86.94223 
L 912.269408 91.15313 
L 915.232486 95.364029 
L 918.157057 99.574929 
L 921.01861 103.785828 
L 923.792233 107.996728 
L 926.453514 112.207627 
L 928.979522 116.418527 
L 931.349815 120.629426 
L 933.547361 124.840326 
L 935.559289 129.051225 
L 937.377407 133.262125 
L 938.998409 137.473024 
L 940.423759 141.683924 
L 941.65925 145.894823 
L 942.714266 150.105723 
L 943.600823 154.316622 
L 944.332468 158.527522 
L 944.923132 162.738421 
L 945.386045 166.949321 
L 945.732806 171.16022 
L 945.972692 175.37112 
L 946.112249 179.582019 
L 946.155206 183.792919 
L 946.102713 188.003818 
L 945.953856 192.214718 
L 945.706425 196.425617 
L 945.357833 200.636517 
L 944.906135 204.847416 
L 944.351037 209.058316 
L 943.694829 213.269215 
L 942.943164 217.480115 
L 942.105616 221.691014 
L 941.19599 225.901914 
L 940.232343 230.112813 
L 939.236712 234.323713 
L 938.234571 238.534612 
L 937.254027 242.745512 
L 936.324801 246.956411 
L 935.477048 251.167311 
L 934.740078 255.37821 
L 934.141037 259.58911 
L 933.703632 263.800009 
L 933.446971 268.010909 
L 933.384584 272.221809 
L 933.523696 276.432708 
L 933.864791 280.643608 
L 934.401518 284.854507 
L 935.120925 289.065407 
L 936.004029 293.276306 
L 937.026671 297.487206 
L 938.16059 301.698105 
L 939.374641 305.909005 
L 940.636057 310.119904 
L 941.911657 314.330804 
L 943.168918 318.541703 
L 944.376829 322.752603 
L 945.506495 326.963502 
L 946.531461 331.174402 
L 947.427792 335.385301 
L 948.173952 339.596201 
L 948.750543 343.8071 
L 949.140007 348.018 
L 949.326364 352.228899 
L 949.295059 356.439799 
L 949.032978 360.650698 
L 948.528637 364.861598 
L 947.772549 369.072497 
L 946.757725 373.283397 
L 945.480231 377.494296 
L 943.939735 381.705196 
L 942.139959 385.916095 
L 940.088964 390.126995 
L 937.799217 394.337894 
L 935.287412 398.548794 
L 932.574066 402.759693 
L 929.682902 406.970593 
L 926.640096 411.181492 
L 923.473442 415.392392 
L 920.211519 419.603291 
L 916.882927 423.814191 
L 913.515637 428.02509 
L 910.136491 432.23599 
L 906.770862 436.446889 
L 903.442462 440.657789 
L 900.173264 444.868688 
L 896.983502 449.079588 
L 893.891708 453.290487 
L 890.914733 457.501387 
L 888.067743 461.712286 
z
" clip-path="url(#p5b0c76a1eb)" style="fill: #2ca02c; fill-opacity: 0.7"/>
   </g>
   <g id="matplotlib.axis_1">
    <g id="xtick_1">
     <g id="line2d_1">
      <defs>
       <path id="m8e622d88c0" d="M 0 0 
L 0 3.5 
" style="stroke: #000000; stroke-width: 0.8"/>
      </defs>
      <g>
       <use xlink:href="#m8e622d88c0" x="172.110909" y="507.688671" style="stroke: #000000; stroke-width: 0.8"/>
      </g>
     </g>
     <g id="text_1">
      <!-- original HADNN -->
      <g transform="translate(135.914051 542.185838) rotate(-15) scale(0.1 -0.1)">
       <defs>
        <path id="MicrosoftJhengHeiRegular-6f" d="M 331 1684 
Q 331 2547 801 3042 
Q 1272 3538 2081 3538 
Q 2844 3538 3276 3059 
Q 3709 2581 3709 1738 
Q 3709 919 3240 419 
Q 2772 -81 2000 -81 
Q 1253 -81 792 400 
Q 331 881 331 1684 
z
M 863 1706 
Q 863 1094 1183 728 
Q 1503 363 2038 363 
Q 2581 363 2879 719 
Q 3178 1075 3178 1719 
Q 3178 2378 2883 2736 
Q 2588 3094 2038 3094 
Q 1500 3094 1181 2723 
Q 863 2353 863 1706 
z
" transform="scale(0.015625)"/>
        <path id="MicrosoftJhengHeiRegular-72" d="M 2341 2922 
Q 2197 3031 1925 3031 
Q 1559 3031 1323 2682 
Q 1088 2334 1088 1769 
L 1088 0 
L 566 0 
L 566 3456 
L 1088 3456 
L 1088 2741 
L 1103 2741 
Q 1222 3109 1465 3312 
Q 1709 3516 2003 3516 
Q 2225 3516 2341 3469 
L 2341 2922 
z
" transform="scale(0.015625)"/>
        <path id="MicrosoftJhengHeiRegular-69" d="M 497 4700 
Q 497 4847 595 4948 
Q 694 5050 834 5050 
Q 981 5050 1082 4947 
Q 1184 4844 1184 4700 
Q 1184 4563 1082 4459 
Q 981 4356 834 4356 
Q 688 4356 592 4456 
Q 497 4556 497 4700 
z
M 569 0 
L 569 3456 
L 1088 3456 
L 1088 0 
L 569 0 
z
" transform="scale(0.015625)"/>
        <path id="MicrosoftJhengHeiRegular-67" d="M 3488 272 
Q 3488 -1628 1688 -1628 
Q 1050 -1628 566 -1381 
L 566 -850 
Q 1150 -1175 1684 -1175 
Q 2969 -1175 2969 203 
L 2969 588 
L 2956 588 
Q 2550 -81 1763 -81 
Q 1113 -81 722 384 
Q 331 850 331 1616 
Q 331 2500 759 3019 
Q 1188 3538 1913 3538 
Q 2616 3538 2956 2972 
L 2969 2972 
L 2969 3456 
L 3488 3456 
L 3488 272 
z
M 2969 2081 
Q 2969 2503 2678 2798 
Q 2388 3094 1978 3094 
Q 1459 3094 1161 2712 
Q 863 2331 863 1653 
Q 863 1066 1150 714 
Q 1438 363 1897 363 
Q 2363 363 2666 698 
Q 2969 1034 2969 1556 
L 2969 2081 
z
" transform="scale(0.015625)"/>
        <path id="MicrosoftJhengHeiRegular-6e" d="M 3406 0 
L 2884 0 
L 2884 1975 
Q 2884 3094 2066 3094 
Q 1638 3094 1363 2773 
Q 1088 2453 1088 1972 
L 1088 0 
L 566 0 
L 566 3456 
L 1088 3456 
L 1088 2878 
L 1103 2878 
Q 1491 3538 2238 3538 
Q 2806 3538 3106 3172 
Q 3406 2806 3406 2113 
L 3406 0 
z
" transform="scale(0.015625)"/>
        <path id="MicrosoftJhengHeiRegular-61" d="M 647 3209 
Q 1156 3538 1813 3538 
Q 3016 3538 3016 2259 
L 3016 0 
L 2494 0 
L 2494 544 
L 2475 544 
Q 2116 -81 1413 -81 
Q 900 -81 604 192 
Q 309 466 309 916 
Q 309 1875 1447 2038 
L 2491 2188 
Q 2491 3088 1772 3088 
Q 1144 3088 647 2659 
L 647 3209 
z
M 1644 1641 
Q 1200 1581 1026 1426 
Q 853 1272 853 950 
Q 853 691 1039 528 
Q 1225 366 1525 366 
Q 1941 366 2216 662 
Q 2491 959 2491 1403 
L 2491 1753 
L 1644 1641 
z
" transform="scale(0.015625)"/>
        <path id="MicrosoftJhengHeiRegular-6c" d="M 569 0 
L 569 5116 
L 1088 5116 
L 1088 0 
L 569 0 
z
" transform="scale(0.015625)"/>
        <path id="MicrosoftJhengHeiRegular-20" transform="scale(0.015625)"/>
        <path id="MicrosoftJhengHeiRegular-48" d="M 4241 0 
L 3709 0 
L 3709 2222 
L 1172 2222 
L 1172 0 
L 641 0 
L 641 4841 
L 1172 4841 
L 1172 2703 
L 3709 2703 
L 3709 4841 
L 4241 4841 
L 4241 0 
z
" transform="scale(0.015625)"/>
        <path id="MicrosoftJhengHeiRegular-41" d="M 4353 0 
L 3763 0 
L 3238 1375 
L 1163 1375 
L 672 0 
L 78 0 
L 1941 4841 
L 2481 4841 
L 4353 0 
z
M 3056 1863 
L 2281 3953 
Q 2250 4041 2209 4272 
L 2194 4272 
Q 2159 4059 2116 3953 
L 1350 1863 
L 3056 1863 
z
" transform="scale(0.015625)"/>
        <path id="MicrosoftJhengHeiRegular-44" d="M 641 0 
L 641 4841 
L 1953 4841 
Q 4506 4841 4506 2481 
Q 4506 1350 3818 675 
Q 3131 0 1903 0 
L 641 0 
z
M 1172 4353 
L 1172 488 
L 1909 488 
Q 2875 488 3412 1006 
Q 3950 1525 3950 2466 
Q 3950 4353 1941 4353 
L 1172 4353 
z
" transform="scale(0.015625)"/>
        <path id="MicrosoftJhengHeiRegular-4e" d="M 4513 0 
L 3844 0 
L 1319 3909 
Q 1234 4047 1169 4200 
L 1150 4200 
Q 1175 4050 1175 3550 
L 1175 0 
L 641 0 
L 641 4841 
L 1347 4841 
L 3803 972 
Q 3991 672 4000 641 
L 4013 641 
Q 3978 881 3978 1369 
L 3978 4841 
L 4513 4841 
L 4513 0 
z
" transform="scale(0.015625)"/>
       </defs>
       <use xlink:href="#MicrosoftJhengHeiRegular-6f"/>
       <use xlink:href="#MicrosoftJhengHeiRegular-72" x="63.085938"/>
       <use xlink:href="#MicrosoftJhengHeiRegular-69" x="100.292969"/>
       <use xlink:href="#MicrosoftJhengHeiRegular-67" x="126.220703"/>
       <use xlink:href="#MicrosoftJhengHeiRegular-69" x="189.599609"/>
       <use xlink:href="#MicrosoftJhengHeiRegular-6e" x="215.527344"/>
       <use xlink:href="#MicrosoftJhengHeiRegular-61" x="276.367188"/>
       <use xlink:href="#MicrosoftJhengHeiRegular-6c" x="331.103516"/>
       <use xlink:href="#MicrosoftJhengHeiRegular-20" x="357.03125"/>
       <use xlink:href="#MicrosoftJhengHeiRegular-48" x="382.03125"/>
       <use xlink:href="#MicrosoftJhengHeiRegular-41" x="458.300781"/>
       <use xlink:href="#MicrosoftJhengHeiRegular-44" x="527.587891"/>
       <use xlink:href="#MicrosoftJhengHeiRegular-4e" x="603.076172"/>
       <use xlink:href="#MicrosoftJhengHeiRegular-4e" x="683.59375"/>
      </g>
     </g>
    </g>
    <g id="xtick_2">
     <g id="line2d_2">
      <g>
       <use xlink:href="#m8e622d88c0" x="517.54" y="507.688671" style="stroke: #000000; stroke-width: 0.8"/>
      </g>
     </g>
     <g id="text_2">
      <!-- mlp -->
      <g transform="translate(509.473403 527.114886) rotate(-15) scale(0.1 -0.1)">
       <defs>
        <path id="MicrosoftJhengHeiRegular-6d" d="M 5438 0 
L 4916 0 
L 4916 1984 
Q 4916 2588 4733 2841 
Q 4550 3094 4128 3094 
Q 3775 3094 3519 2762 
Q 3263 2431 3263 1975 
L 3263 0 
L 2744 0 
L 2744 2056 
Q 2744 3094 1941 3094 
Q 1572 3094 1330 2778 
Q 1088 2463 1088 1975 
L 1088 0 
L 566 0 
L 566 3456 
L 1088 3456 
L 1088 2909 
L 1103 2909 
Q 1466 3538 2172 3538 
Q 2509 3538 2779 3339 
Q 3050 3141 3147 2816 
Q 3531 3538 4297 3538 
Q 5438 3538 5438 2128 
L 5438 0 
z
" transform="scale(0.015625)"/>
        <path id="MicrosoftJhengHeiRegular-70" d="M 1088 506 
L 1088 -1591 
L 566 -1591 
L 566 3456 
L 1088 3456 
L 1088 2844 
L 1103 2844 
Q 1513 3538 2300 3538 
Q 2959 3538 3340 3077 
Q 3722 2616 3722 1828 
Q 3722 966 3295 442 
Q 2869 -81 2141 -81 
Q 1466 -81 1103 506 
L 1088 506 
z
M 1088 1400 
Q 1088 966 1378 664 
Q 1669 363 2094 363 
Q 2603 363 2895 756 
Q 3188 1150 3188 1844 
Q 3188 2428 2913 2761 
Q 2638 3094 2181 3094 
Q 1706 3094 1397 2758 
Q 1088 2422 1088 1900 
L 1088 1400 
z
" transform="scale(0.015625)"/>
       </defs>
       <use xlink:href="#MicrosoftJhengHeiRegular-6d"/>
       <use xlink:href="#MicrosoftJhengHeiRegular-6c" x="92.626953"/>
       <use xlink:href="#MicrosoftJhengHeiRegular-70" x="118.554688"/>
      </g>
     </g>
    </g>
    <g id="xtick_3">
     <g id="line2d_3">
      <g>
       <use xlink:href="#m8e622d88c0" x="862.969091" y="507.688671" style="stroke: #000000; stroke-width: 0.8"/>
      </g>
     </g>
     <g id="text_3">
      <!-- hadnn+rf -->
      <g transform="translate(842.097185 533.97723) rotate(-15) scale(0.1 -0.1)">
       <defs>
        <path id="MicrosoftJhengHeiRegular-68" d="M 3406 0 
L 2888 0 
L 2888 1994 
Q 2888 3094 2066 3094 
Q 1650 3094 1369 2775 
Q 1088 2456 1088 1956 
L 1088 0 
L 566 0 
L 566 5116 
L 1088 5116 
L 1088 2878 
L 1103 2878 
Q 1500 3538 2241 3538 
Q 3406 3538 3406 2128 
L 3406 0 
z
" transform="scale(0.015625)"/>
        <path id="MicrosoftJhengHeiRegular-64" d="M 3488 0 
L 2969 0 
L 2969 594 
L 2956 594 
Q 2572 -81 1763 -81 
Q 1106 -81 718 386 
Q 331 853 331 1647 
Q 331 2497 765 3017 
Q 1200 3538 1913 3538 
Q 2625 3538 2956 2972 
L 2969 2972 
L 2969 5116 
L 3488 5116 
L 3488 0 
z
M 2969 2081 
Q 2969 2506 2680 2800 
Q 2391 3094 1972 3094 
Q 1453 3094 1158 2711 
Q 863 2328 863 1675 
Q 863 1078 1145 720 
Q 1428 363 1906 363 
Q 2366 363 2667 698 
Q 2969 1034 2969 1556 
L 2969 2081 
z
" transform="scale(0.015625)"/>
        <path id="MicrosoftJhengHeiRegular-2b" d="M 3947 1797 
L 2578 1797 
L 2578 434 
L 2147 434 
L 2147 1797 
L 784 1797 
L 784 2234 
L 2147 2234 
L 2147 3597 
L 2578 3597 
L 2578 2234 
L 3947 2234 
L 3947 1797 
z
" transform="scale(0.015625)"/>
        <path id="MicrosoftJhengHeiRegular-66" d="M 2241 4653 
Q 2075 4744 1872 4744 
Q 1288 4744 1288 4000 
L 1288 3456 
L 2097 3456 
L 2097 3006 
L 1288 3006 
L 1288 0 
L 772 0 
L 772 3006 
L 181 3006 
L 181 3456 
L 772 3456 
L 772 4025 
Q 772 4572 1083 4881 
Q 1394 5191 1847 5191 
Q 2100 5191 2241 5131 
L 2241 4653 
z
" transform="scale(0.015625)"/>
       </defs>
       <use xlink:href="#MicrosoftJhengHeiRegular-68"/>
       <use xlink:href="#MicrosoftJhengHeiRegular-61" x="60.888672"/>
       <use xlink:href="#MicrosoftJhengHeiRegular-64" x="115.625"/>
       <use xlink:href="#MicrosoftJhengHeiRegular-6e" x="179.003906"/>
       <use xlink:href="#MicrosoftJhengHeiRegular-6e" x="239.84375"/>
       <use xlink:href="#MicrosoftJhengHeiRegular-2b" x="300.683594"/>
       <use xlink:href="#MicrosoftJhengHeiRegular-72" x="374.414062"/>
       <use xlink:href="#MicrosoftJhengHeiRegular-66" x="413.621094"/>
      </g>
     </g>
    </g>
    <g id="text_4">
     <!-- 模型 -->
     <g transform="translate(507.54 556.636662) scale(0.1 -0.1)">
      <defs>
       <path id="MicrosoftJhengHeiRegular-6a21" d="M 5978 4441 
L 5063 4441 
L 5063 4078 
L 4744 4078 
L 4744 4441 
L 4269 4441 
L 4269 4744 
L 4744 4744 
L 4744 5275 
L 5063 5275 
L 5063 4744 
L 5978 4744 
L 5978 4441 
z
M 4025 4441 
L 3603 4441 
L 3603 4078 
L 3263 4078 
L 3263 4441 
L 2322 4441 
L 2322 4744 
L 3263 4744 
L 3263 5275 
L 3603 5275 
L 3603 4744 
L 4025 4744 
L 4025 4441 
z
M 2431 2444 
L 2181 2234 
Q 1878 2763 1703 2994 
L 1703 -341 
L 1375 -341 
L 1375 2816 
Q 1056 2041 628 1422 
L 403 1672 
Q 984 2497 1369 3634 
L 500 3634 
L 500 3950 
L 1375 3950 
L 1375 5275 
L 1703 5275 
L 1703 3950 
L 2344 3950 
L 2344 3634 
L 1703 3634 
L 1703 3494 
Q 2128 2969 2431 2444 
z
M 5947 991 
L 4109 991 
Q 3838 -25 2369 -341 
L 2181 -44 
Q 3481 191 3775 991 
L 2247 991 
L 2247 1300 
L 3847 1300 
Q 3909 1647 3909 1856 
L 2747 1856 
L 2747 3834 
L 5569 3834 
L 5569 1856 
L 4244 1856 
Q 4234 1619 4184 1300 
L 5947 1300 
L 5947 991 
z
M 5253 3016 
L 5253 3531 
L 3059 3531 
L 3059 3016 
L 5253 3016 
z
M 5253 2156 
L 5253 2719 
L 3059 2719 
L 3059 2156 
L 5253 2156 
z
M 6028 -63 
L 5825 -325 
Q 5241 103 4319 531 
L 4531 788 
Q 5369 400 6028 -63 
z
" transform="scale(0.015625)"/>
       <path id="MicrosoftJhengHeiRegular-578b" d="M 5703 2291 
Q 5703 2109 5600 1992 
Q 5497 1875 5369 1842 
Q 5241 1809 4888 1809 
Q 4700 1809 4422 1819 
L 4281 2169 
Q 4603 2141 4881 2141 
Q 5147 2141 5215 2158 
Q 5284 2175 5329 2256 
Q 5375 2338 5375 2444 
L 5375 5234 
L 5703 5234 
L 5703 2291 
z
M 3834 3406 
L 2919 3406 
L 2919 1959 
L 2591 1959 
L 2591 3406 
L 1734 3406 
Q 1663 2456 819 1791 
L 550 2016 
Q 1347 2647 1409 3406 
L 469 3406 
L 469 3731 
L 1428 3731 
Q 1459 4306 1459 4775 
L 659 4775 
L 659 5088 
L 3750 5088 
L 3750 4775 
L 2919 4775 
L 2919 3731 
L 3834 3731 
L 3834 3406 
z
M 2591 3731 
L 2591 4775 
L 1791 4775 
Q 1791 4397 1753 3731 
L 2591 3731 
z
M 4594 2816 
L 4269 2816 
L 4269 4953 
L 4594 4953 
L 4594 2816 
z
M 5991 -184 
L 428 -184 
L 428 134 
L 3059 134 
L 3059 1038 
L 844 1038 
L 844 1350 
L 3059 1350 
L 3059 2022 
L 3391 2022 
L 3391 1350 
L 5563 1350 
L 5563 1038 
L 3391 1038 
L 3391 134 
L 5991 134 
L 5991 -184 
z
" transform="scale(0.015625)"/>
      </defs>
      <use xlink:href="#MicrosoftJhengHeiRegular-6a21"/>
      <use xlink:href="#MicrosoftJhengHeiRegular-578b" x="100"/>
     </g>
    </g>
   </g>
   <g id="matplotlib.axis_2">
    <g id="ytick_1">
     <g id="line2d_4">
      <path d="M 42.575 487.209343 
L 992.505 487.209343 
" clip-path="url(#p5b0c76a1eb)" style="fill: none; stroke-dasharray: 2.96,1.28; stroke-dashoffset: 0; stroke: #b0b0b0; stroke-opacity: 0.7; stroke-width: 0.8"/>
     </g>
     <g id="line2d_5">
      <defs>
       <path id="m6cdec8e0f5" d="M 0 0 
L -3.5 0 
" style="stroke: #000000; stroke-width: 0.8"/>
      </defs>
      <g>
       <use xlink:href="#m6cdec8e0f5" x="42.575" y="487.209343" style="stroke: #000000; stroke-width: 0.8"/>
      </g>
     </g>
     <g id="text_5">
      <!-- 0.0 -->
      <g transform="translate(21.679688 491.206218) scale(0.1 -0.1)">
       <defs>
        <path id="MicrosoftJhengHeiRegular-30" d="M 294 2322 
Q 294 3603 711 4262 
Q 1128 4922 1916 4922 
Q 3425 4922 3425 2441 
Q 3425 1234 3011 576 
Q 2597 -81 1806 -81 
Q 1069 -81 681 550 
Q 294 1181 294 2322 
z
M 825 2350 
Q 825 363 1863 363 
Q 2891 363 2891 2378 
Q 2891 4475 1888 4475 
Q 825 4475 825 2350 
z
" transform="scale(0.015625)"/>
        <path id="MicrosoftJhengHeiRegular-2e" d="M 375 291 
Q 375 444 484 551 
Q 594 659 738 659 
Q 888 659 994 551 
Q 1100 444 1100 291 
Q 1100 141 992 33 
Q 884 -75 738 -75 
Q 594 -75 484 29 
Q 375 134 375 291 
z
" transform="scale(0.015625)"/>
       </defs>
       <use xlink:href="#MicrosoftJhengHeiRegular-30"/>
       <use xlink:href="#MicrosoftJhengHeiRegular-2e" x="57.958984"/>
       <use xlink:href="#MicrosoftJhengHeiRegular-30" x="81.005859"/>
      </g>
     </g>
    </g>
    <g id="ytick_2">
     <g id="line2d_6">
      <path d="M 42.575 417.614199 
L 992.505 417.614199 
" clip-path="url(#p5b0c76a1eb)" style="fill: none; stroke-dasharray: 2.96,1.28; stroke-dashoffset: 0; stroke: #b0b0b0; stroke-opacity: 0.7; stroke-width: 0.8"/>
     </g>
     <g id="line2d_7">
      <g>
       <use xlink:href="#m6cdec8e0f5" x="42.575" y="417.614199" style="stroke: #000000; stroke-width: 0.8"/>
      </g>
     </g>
     <g id="text_6">
      <!-- 0.5 -->
      <g transform="translate(21.679688 421.611074) scale(0.1 -0.1)">
       <defs>
        <path id="MicrosoftJhengHeiRegular-35" d="M 553 684 
Q 1047 363 1559 363 
Q 2072 363 2394 658 
Q 2716 953 2716 1441 
Q 2716 1931 2394 2200 
Q 2072 2469 1466 2469 
Q 1275 2469 706 2431 
L 706 4841 
L 3025 4841 
L 3025 4366 
L 1203 4366 
L 1203 2916 
Q 1475 2931 1616 2931 
Q 2378 2931 2811 2548 
Q 3244 2166 3244 1472 
Q 3244 750 2775 334 
Q 2306 -81 1544 -81 
Q 875 -81 553 119 
L 553 684 
z
" transform="scale(0.015625)"/>
       </defs>
       <use xlink:href="#MicrosoftJhengHeiRegular-30"/>
       <use xlink:href="#MicrosoftJhengHeiRegular-2e" x="57.958984"/>
       <use xlink:href="#MicrosoftJhengHeiRegular-35" x="81.005859"/>
      </g>
     </g>
    </g>
    <g id="ytick_3">
     <g id="line2d_8">
      <path d="M 42.575 348.019055 
L 992.505 348.019055 
" clip-path="url(#p5b0c76a1eb)" style="fill: none; stroke-dasharray: 2.96,1.28; stroke-dashoffset: 0; stroke: #b0b0b0; stroke-opacity: 0.7; stroke-width: 0.8"/>
     </g>
     <g id="line2d_9">
      <g>
       <use xlink:href="#m6cdec8e0f5" x="42.575" y="348.019055" style="stroke: #000000; stroke-width: 0.8"/>
      </g>
     </g>
     <g id="text_7">
      <!-- 1.0 -->
      <g transform="translate(21.679688 352.01593) scale(0.1 -0.1)">
       <defs>
        <path id="MicrosoftJhengHeiRegular-31" d="M 3313 0 
L 594 0 
L 594 466 
L 1694 466 
L 1694 4272 
L 566 3931 
L 566 4434 
L 2216 4950 
L 2216 466 
L 3313 466 
L 3313 0 
z
" transform="scale(0.015625)"/>
       </defs>
       <use xlink:href="#MicrosoftJhengHeiRegular-31"/>
       <use xlink:href="#MicrosoftJhengHeiRegular-2e" x="57.958984"/>
       <use xlink:href="#MicrosoftJhengHeiRegular-30" x="81.005859"/>
      </g>
     </g>
    </g>
    <g id="ytick_4">
     <g id="line2d_10">
      <path d="M 42.575 278.423911 
L 992.505 278.423911 
" clip-path="url(#p5b0c76a1eb)" style="fill: none; stroke-dasharray: 2.96,1.28; stroke-dashoffset: 0; stroke: #b0b0b0; stroke-opacity: 0.7; stroke-width: 0.8"/>
     </g>
     <g id="line2d_11">
      <g>
       <use xlink:href="#m6cdec8e0f5" x="42.575" y="278.423911" style="stroke: #000000; stroke-width: 0.8"/>
      </g>
     </g>
     <g id="text_8">
      <!-- 1.5 -->
      <g transform="translate(21.679688 282.420786) scale(0.1 -0.1)">
       <use xlink:href="#MicrosoftJhengHeiRegular-31"/>
       <use xlink:href="#MicrosoftJhengHeiRegular-2e" x="57.958984"/>
       <use xlink:href="#MicrosoftJhengHeiRegular-35" x="81.005859"/>
      </g>
     </g>
    </g>
    <g id="ytick_5">
     <g id="line2d_12">
      <path d="M 42.575 208.828767 
L 992.505 208.828767 
" clip-path="url(#p5b0c76a1eb)" style="fill: none; stroke-dasharray: 2.96,1.28; stroke-dashoffset: 0; stroke: #b0b0b0; stroke-opacity: 0.7; stroke-width: 0.8"/>
     </g>
     <g id="line2d_13">
      <g>
       <use xlink:href="#m6cdec8e0f5" x="42.575" y="208.828767" style="stroke: #000000; stroke-width: 0.8"/>
      </g>
     </g>
     <g id="text_9">
      <!-- 2.0 -->
      <g transform="translate(21.679688 212.825642) scale(0.1 -0.1)">
       <defs>
        <path id="MicrosoftJhengHeiRegular-32" d="M 3219 0 
L 322 0 
L 322 472 
L 1731 1891 
Q 2431 2597 2592 2914 
Q 2753 3231 2753 3588 
Q 2753 4016 2511 4247 
Q 2269 4478 1816 4478 
Q 1169 4478 572 3919 
L 572 4475 
Q 1131 4922 1884 4922 
Q 2509 4922 2886 4575 
Q 3263 4228 3263 3634 
Q 3263 3178 3014 2736 
Q 2766 2294 2075 1603 
L 947 488 
L 947 475 
L 3219 475 
L 3219 0 
z
" transform="scale(0.015625)"/>
       </defs>
       <use xlink:href="#MicrosoftJhengHeiRegular-32"/>
       <use xlink:href="#MicrosoftJhengHeiRegular-2e" x="57.958984"/>
       <use xlink:href="#MicrosoftJhengHeiRegular-30" x="81.005859"/>
      </g>
     </g>
    </g>
    <g id="ytick_6">
     <g id="line2d_14">
      <path d="M 42.575 139.233623 
L 992.505 139.233623 
" clip-path="url(#p5b0c76a1eb)" style="fill: none; stroke-dasharray: 2.96,1.28; stroke-dashoffset: 0; stroke: #b0b0b0; stroke-opacity: 0.7; stroke-width: 0.8"/>
     </g>
     <g id="line2d_15">
      <g>
       <use xlink:href="#m6cdec8e0f5" x="42.575" y="139.233623" style="stroke: #000000; stroke-width: 0.8"/>
      </g>
     </g>
     <g id="text_10">
      <!-- 2.5 -->
      <g transform="translate(21.679688 143.230498) scale(0.1 -0.1)">
       <use xlink:href="#MicrosoftJhengHeiRegular-32"/>
       <use xlink:href="#MicrosoftJhengHeiRegular-2e" x="57.958984"/>
       <use xlink:href="#MicrosoftJhengHeiRegular-35" x="81.005859"/>
      </g>
     </g>
    </g>
    <g id="ytick_7">
     <g id="line2d_16">
      <path d="M 42.575 69.638478 
L 992.505 69.638478 
" clip-path="url(#p5b0c76a1eb)" style="fill: none; stroke-dasharray: 2.96,1.28; stroke-dashoffset: 0; stroke: #b0b0b0; stroke-opacity: 0.7; stroke-width: 0.8"/>
     </g>
     <g id="line2d_17">
      <g>
       <use xlink:href="#m6cdec8e0f5" x="42.575" y="69.638478" style="stroke: #000000; stroke-width: 0.8"/>
      </g>
     </g>
     <g id="text_11">
      <!-- 3.0 -->
      <g transform="translate(21.679688 73.635353) scale(0.1 -0.1)">
       <defs>
        <path id="MicrosoftJhengHeiRegular-33" d="M 438 756 
Q 934 363 1556 363 
Q 2056 363 2370 616 
Q 2684 869 2684 1313 
Q 2684 2281 1319 2281 
L 919 2281 
L 919 2728 
L 1300 2728 
Q 2513 2728 2513 3634 
Q 2513 4475 1588 4475 
Q 1075 4475 625 4122 
L 625 4644 
Q 1088 4922 1719 4922 
Q 2294 4922 2670 4606 
Q 3047 4291 3047 3769 
Q 3047 2819 2075 2538 
L 2075 2525 
Q 2591 2481 2905 2162 
Q 3219 1844 3219 1369 
Q 3219 706 2742 312 
Q 2266 -81 1525 -81 
Q 844 -81 438 178 
L 438 756 
z
" transform="scale(0.015625)"/>
       </defs>
       <use xlink:href="#MicrosoftJhengHeiRegular-33"/>
       <use xlink:href="#MicrosoftJhengHeiRegular-2e" x="57.958984"/>
       <use xlink:href="#MicrosoftJhengHeiRegular-30" x="81.005859"/>
      </g>
     </g>
    </g>
    <g id="text_12">
     <!-- 位置預測誤差 (公尺) -->
     <g transform="translate(15.19375 309.698398) rotate(-90) scale(0.1 -0.1)">
      <defs>
       <path id="MicrosoftJhengHeiRegular-4f4d" d="M 6016 -172 
L 1900 -172 
L 1900 159 
L 3194 159 
Q 3031 1716 2478 3597 
L 2700 3719 
L 1984 3719 
L 1984 4050 
L 3884 4050 
Q 3750 4634 3500 5178 
L 3822 5288 
Q 4053 4759 4244 4050 
L 5913 4050 
L 5913 3719 
L 5269 3719 
L 5472 3641 
Q 5191 1675 4716 159 
L 6016 159 
L 6016 -172 
z
M 5125 3719 
L 2816 3719 
Q 3334 1778 3547 159 
L 4372 159 
Q 4925 1928 5125 3719 
z
M 2131 5147 
Q 2009 4856 1803 4447 
L 1594 4044 
L 1594 -325 
L 1253 -325 
L 1253 3425 
Q 966 2963 544 2456 
L 331 2772 
Q 1222 3825 1791 5269 
L 2131 5147 
z
" transform="scale(0.015625)"/>
       <path id="MicrosoftJhengHeiRegular-7f6e" d="M 5991 -184 
L 453 -184 
L 453 97 
L 1203 97 
L 1203 2803 
L 2694 2803 
L 2853 3256 
L 500 3256 
L 500 3547 
L 2956 3547 
L 3078 3969 
L 756 3969 
L 756 5119 
L 5663 5119 
L 5663 3969 
L 3425 3969 
L 3297 3547 
L 5894 3547 
L 5894 3256 
L 3194 3256 
L 3047 2803 
L 5228 2803 
L 5228 97 
L 5991 97 
L 5991 -184 
z
M 5331 4231 
L 5331 4844 
L 4147 4844 
L 4147 4231 
L 5331 4231 
z
M 3816 4231 
L 3816 4844 
L 2613 4844 
L 2613 4231 
L 3816 4231 
z
M 2278 4231 
L 2278 4844 
L 1081 4844 
L 1081 4231 
L 2278 4231 
z
M 4903 2138 
L 4903 2534 
L 1538 2534 
L 1538 2138 
L 4903 2138 
z
M 4903 1478 
L 4903 1875 
L 1538 1875 
L 1538 1478 
L 4903 1478 
z
M 4903 781 
L 4903 1222 
L 1538 1222 
L 1538 781 
L 4903 781 
z
M 4903 97 
L 4903 513 
L 1538 513 
L 1538 97 
L 4903 97 
z
" transform="scale(0.015625)"/>
       <path id="MicrosoftJhengHeiRegular-9810" d="M 6009 4794 
L 4588 4794 
Q 4519 4447 4384 4063 
L 5703 4063 
L 5703 947 
L 4031 947 
L 4231 744 
Q 3759 156 2894 -378 
L 2675 -91 
Q 3456 341 3969 947 
L 3150 947 
L 3150 4063 
L 4038 4063 
Q 4166 4381 4250 4794 
L 2925 4794 
L 2925 5119 
L 6009 5119 
L 6009 4794 
z
M 5375 3163 
L 5375 3744 
L 3475 3744 
L 3475 3163 
L 5375 3163 
z
M 5375 2234 
L 5375 2853 
L 3475 2853 
L 3475 2234 
L 5375 2234 
z
M 5375 1269 
L 5375 1931 
L 3475 1931 
L 3475 1269 
L 5375 1269 
z
M 2881 3084 
Q 2719 2138 2369 1631 
L 2081 1831 
Q 2366 2228 2478 2753 
L 1753 2753 
L 1753 122 
Q 1753 -56 1608 -197 
Q 1463 -338 703 -306 
L 609 19 
Q 1219 19 1283 26 
Q 1347 34 1397 96 
Q 1447 159 1447 213 
L 1447 2753 
L 441 2753 
L 441 3084 
L 1838 3084 
Q 1450 3513 666 4072 
L 844 4319 
Q 1059 4184 1478 3853 
Q 1991 4363 2234 4728 
L 594 4728 
L 594 5044 
L 2644 5044 
L 2644 4728 
Q 2175 4094 1734 3641 
Q 2006 3403 2150 3219 
L 2041 3084 
L 2881 3084 
z
M 5991 -78 
L 5778 -341 
Q 5194 175 4569 513 
L 4775 763 
Q 5513 338 5991 -78 
z
" transform="scale(0.015625)"/>
       <path id="MicrosoftJhengHeiRegular-6e2c" d="M 5797 128 
Q 5797 -150 5633 -242 
Q 5469 -334 5038 -334 
Q 4800 -334 4563 -319 
L 4481 0 
Q 5288 0 5383 28 
Q 5478 56 5478 225 
L 5478 5253 
L 5797 5253 
L 5797 128 
z
M 1813 4453 
L 1581 4206 
Q 1156 4666 609 5013 
L 794 5253 
Q 1409 4906 1813 4453 
z
M 3853 1075 
L 2578 1075 
L 2766 947 
Q 2406 209 1863 -353 
L 1600 -134 
Q 2138 397 2463 1075 
L 2016 1075 
L 2016 5125 
L 3853 5125 
L 3853 1075 
z
M 3541 3928 
L 3541 4813 
L 2338 4813 
L 2338 3928 
L 3541 3928 
z
M 3541 2681 
L 3541 3609 
L 2338 3609 
L 2338 2681 
L 3541 2681 
z
M 3541 1394 
L 3541 2369 
L 2338 2369 
L 2338 1394 
L 3541 1394 
z
M 4769 825 
L 4447 825 
L 4447 4844 
L 4769 4844 
L 4769 825 
z
M 1594 2803 
L 1356 2572 
Q 994 3019 403 3456 
L 622 3713 
Q 1266 3209 1594 2803 
z
M 1631 1747 
Q 1059 238 678 -325 
L 428 -109 
Q 959 753 1338 1906 
L 1631 1747 
z
M 4019 -25 
L 3744 -191 
Q 3513 350 3116 813 
L 3378 991 
Q 3816 463 4019 -25 
z
" transform="scale(0.015625)"/>
       <path id="MicrosoftJhengHeiRegular-8aa4" d="M 2463 4294 
L 441 4294 
L 441 4609 
L 1325 4609 
Q 1238 4888 1075 5222 
L 1394 5331 
Q 1591 4931 1691 4609 
L 2463 4609 
L 2463 4294 
z
M 5484 3469 
L 3572 3469 
L 3572 5131 
L 5484 5131 
L 5484 3469 
z
M 5172 3775 
L 5172 4813 
L 3891 4813 
L 3891 3775 
L 5172 3775 
z
M 6009 1394 
L 4269 1394 
Q 4038 75 2650 -313 
L 2456 -38 
Q 3716 225 3938 1394 
L 2497 1394 
L 2497 1709 
L 3988 1709 
Q 4028 1994 4050 2606 
L 2741 2606 
L 2741 4697 
L 3066 4697 
L 3066 2925 
L 5703 2925 
L 5703 1709 
L 6009 1709 
L 6009 1394 
z
M 5369 1709 
L 5369 2606 
L 4384 2606 
Q 4359 2109 4325 1709 
L 5369 1709 
z
M 2322 3366 
L 569 3366 
L 569 3681 
L 2322 3681 
L 2322 3366 
z
M 2322 2438 
L 575 2438 
L 575 2753 
L 2322 2753 
L 2322 2438 
z
M 2216 -184 
L 1894 -184 
L 1894 172 
L 959 172 
L 959 -306 
L 641 -306 
L 641 1831 
L 2216 1831 
L 2216 -184 
z
M 1894 494 
L 1894 1509 
L 959 1509 
L 959 494 
L 1894 494 
z
M 5966 -109 
L 5728 -331 
Q 5384 72 4494 775 
L 4684 1019 
Q 5438 478 5966 -109 
z
" transform="scale(0.015625)"/>
       <path id="MicrosoftJhengHeiRegular-5dee" d="M 4916 5113 
Q 4613 4759 4281 4556 
L 4006 4769 
Q 4378 5009 4634 5319 
L 4916 5113 
z
M 2566 4728 
L 2284 4538 
Q 2078 4813 1703 5106 
L 1978 5313 
Q 2378 4997 2566 4728 
z
M 5997 2138 
L 2094 2138 
Q 2009 684 678 -166 
L 434 97 
Q 1688 828 1753 2138 
L 488 2138 
L 488 2444 
L 3072 2444 
L 3072 3116 
L 878 3116 
L 878 3431 
L 3072 3431 
L 3072 4103 
L 684 4103 
L 684 4409 
L 5819 4409 
L 5819 4103 
L 3406 4103 
L 3406 3431 
L 5569 3431 
L 5569 3116 
L 3406 3116 
L 3406 2444 
L 5997 2444 
L 5997 2138 
z
M 6009 -213 
L 1684 -213 
L 1684 103 
L 3681 103 
L 3681 1131 
L 2228 1131 
L 2228 1453 
L 5703 1453 
L 5703 1131 
L 4031 1131 
L 4031 103 
L 6009 103 
L 6009 -213 
z
" transform="scale(0.015625)"/>
       <path id="MicrosoftJhengHeiRegular-28" d="M 1513 -1100 
Q 469 94 469 1847 
Q 469 3609 1513 4841 
L 1988 4841 
Q 925 3556 925 1853 
Q 925 159 1981 -1100 
L 1513 -1100 
z
" transform="scale(0.015625)"/>
       <path id="MicrosoftJhengHeiRegular-516c" d="M 2663 5153 
Q 2097 3406 628 2350 
L 372 2606 
Q 1781 3563 2328 5269 
L 2663 5153 
z
M 6047 2656 
L 5831 2375 
Q 4681 3125 3994 4844 
L 3566 4844 
L 3566 5191 
L 4256 5191 
Q 4819 3456 6047 2656 
z
M 5569 -213 
L 5269 -384 
Q 5069 109 4872 428 
Q 3059 -41 1269 -197 
L 1172 128 
Q 2150 1278 3041 3419 
L 3366 3278 
Q 2556 1356 1672 184 
Q 2909 272 4703 728 
Q 4416 1238 3922 1913 
L 4219 2088 
Q 5106 866 5569 -213 
z
" transform="scale(0.015625)"/>
       <path id="MicrosoftJhengHeiRegular-5c3a" d="M 6053 -31 
L 5856 -366 
Q 4309 13 3332 755 
Q 2356 1497 1797 2772 
L 1656 2772 
Q 1609 656 666 -306 
L 409 -63 
Q 1313 831 1313 3066 
L 1313 5125 
L 5581 5125 
L 5581 2772 
L 2169 2772 
Q 2891 1341 3995 739 
Q 5100 138 6053 -31 
z
M 5228 3116 
L 5228 4788 
L 1678 4788 
L 1678 3116 
L 5228 3116 
z
" transform="scale(0.015625)"/>
       <path id="MicrosoftJhengHeiRegular-29" d="M 84 -1100 
Q 1138 153 1138 1853 
Q 1138 3563 75 4841 
L 553 4841 
Q 1603 3609 1603 1847 
Q 1603 97 553 -1100 
L 84 -1100 
z
" transform="scale(0.015625)"/>
      </defs>
      <use xlink:href="#MicrosoftJhengHeiRegular-4f4d"/>
      <use xlink:href="#MicrosoftJhengHeiRegular-7f6e" x="100"/>
      <use xlink:href="#MicrosoftJhengHeiRegular-9810" x="200"/>
      <use xlink:href="#MicrosoftJhengHeiRegular-6e2c" x="300"/>
      <use xlink:href="#MicrosoftJhengHeiRegular-8aa4" x="400"/>
      <use xlink:href="#MicrosoftJhengHeiRegular-5dee" x="500"/>
      <use xlink:href="#MicrosoftJhengHeiRegular-20" x="600"/>
      <use xlink:href="#MicrosoftJhengHeiRegular-28" x="625"/>
      <use xlink:href="#MicrosoftJhengHeiRegular-516c" x="657.080078"/>
      <use xlink:href="#MicrosoftJhengHeiRegular-5c3a" x="757.080078"/>
      <use xlink:href="#MicrosoftJhengHeiRegular-29" x="857.080078"/>
     </g>
    </g>
   </g>
   <g id="LineCollection_1">
    <path d="M 128.932273 287.660344 
L 215.289545 287.660344 
" clip-path="url(#p5b0c76a1eb)" style="fill: none; stroke: #1f77b4; stroke-width: 1.5"/>
    <path d="M 474.361364 286.017743 
L 560.718636 286.017743 
" clip-path="url(#p5b0c76a1eb)" style="fill: none; stroke: #1f77b4; stroke-width: 1.5"/>
    <path d="M 819.790455 259.55154 
L 906.147727 259.55154 
" clip-path="url(#p5b0c76a1eb)" style="fill: none; stroke: #1f77b4; stroke-width: 1.5"/>
   </g>
   <g id="LineCollection_2">
    <path d="M 128.932273 95.575175 
L 215.289545 95.575175 
" clip-path="url(#p5b0c76a1eb)" style="fill: none; stroke: #1f77b4; stroke-width: 1.5"/>
    <path d="M 474.361364 95.804255 
L 560.718636 95.804255 
" clip-path="url(#p5b0c76a1eb)" style="fill: none; stroke: #1f77b4; stroke-width: 1.5"/>
    <path d="M 819.790455 44.833235 
L 906.147727 44.833235 
" clip-path="url(#p5b0c76a1eb)" style="fill: none; stroke: #1f77b4; stroke-width: 1.5"/>
   </g>
   <g id="LineCollection_3">
    <path d="M 128.932273 480.363784 
L 215.289545 480.363784 
" clip-path="url(#p5b0c76a1eb)" style="fill: none; stroke: #1f77b4; stroke-width: 1.5"/>
    <path d="M 474.361364 485.647936 
L 560.718636 485.647936 
" clip-path="url(#p5b0c76a1eb)" style="fill: none; stroke: #1f77b4; stroke-width: 1.5"/>
    <path d="M 819.790455 461.712286 
L 906.147727 461.712286 
" clip-path="url(#p5b0c76a1eb)" style="fill: none; stroke: #1f77b4; stroke-width: 1.5"/>
   </g>
   <g id="LineCollection_4">
    <path d="M 172.110909 480.363784 
L 172.110909 95.575175 
" clip-path="url(#p5b0c76a1eb)" style="fill: none; stroke: #1f77b4; stroke-width: 1.5"/>
    <path d="M 517.54 485.647936 
L 517.54 95.804255 
" clip-path="url(#p5b0c76a1eb)" style="fill: none; stroke: #1f77b4; stroke-width: 1.5"/>
    <path d="M 862.969091 461.712286 
L 862.969091 44.833235 
" clip-path="url(#p5b0c76a1eb)" style="fill: none; stroke: #1f77b4; stroke-width: 1.5"/>
   </g>
   <g id="LineCollection_5">
    <path d="M 128.932273 282.003351 
L 215.289545 282.003351 
" clip-path="url(#p5b0c76a1eb)" style="fill: none; stroke: #1f77b4; stroke-width: 1.5"/>
    <path d="M 474.361364 276.506234 
L 560.718636 276.506234 
" clip-path="url(#p5b0c76a1eb)" style="fill: none; stroke: #1f77b4; stroke-width: 1.5"/>
    <path d="M 819.790455 256.682203 
L 906.147727 256.682203 
" clip-path="url(#p5b0c76a1eb)" style="fill: none; stroke: #1f77b4; stroke-width: 1.5"/>
   </g>
   <g id="patch_3">
    <path d="M 42.575 507.688671 
L 42.575 22.7925 
" style="fill: none; stroke: #000000; stroke-width: 0.8; stroke-linejoin: miter; stroke-linecap: square"/>
   </g>
   <g id="patch_4">
    <path d="M 992.505 507.688671 
L 992.505 22.7925 
" style="fill: none; stroke: #000000; stroke-width: 0.8; stroke-linejoin: miter; stroke-linecap: square"/>
   </g>
   <g id="patch_5">
    <path d="M 42.575 507.688671 
L 992.505 507.688671 
" style="fill: none; stroke: #000000; stroke-width: 0.8; stroke-linejoin: miter; stroke-linecap: square"/>
   </g>
   <g id="patch_6">
    <path d="M 42.575 22.7925 
L 992.505 22.7925 
" style="fill: none; stroke: #000000; stroke-width: 0.8; stroke-linejoin: miter; stroke-linecap: square"/>
   </g>
   <g id="text_13">
    <!-- 位置預測誤差密度分布 - 雜訊 5dB + 故障 10% -->
    <g transform="translate(394.324375 16.7925) scale(0.12 -0.12)">
     <defs>
      <path id="MicrosoftJhengHeiRegular-5bc6" d="M 5753 3500 
L 5428 3500 
L 5428 4459 
L 1025 4459 
L 1025 3500 
L 697 3500 
L 697 4781 
L 3097 4781 
Q 3044 4984 2906 5228 
L 3206 5331 
Q 3338 5084 3438 4781 
L 5753 4781 
L 5753 3500 
z
M 3700 3475 
L 3438 3303 
Q 3153 3750 2828 4084 
L 3109 4256 
Q 3406 3959 3700 3475 
z
M 4788 3794 
Q 3894 2753 2509 2053 
Q 2509 1972 2600 1939 
Q 2691 1906 3347 1906 
Q 4028 1906 4218 1961 
Q 4409 2016 4453 2694 
L 4763 2534 
Q 4744 2131 4625 1914 
Q 4506 1697 4334 1645 
Q 4163 1594 3625 1594 
Q 2694 1594 2497 1630 
Q 2300 1666 2194 1894 
Q 1375 1525 603 1247 
L 447 1516 
Q 1416 1853 2163 2216 
L 2163 4031 
L 2497 4031 
L 2497 2388 
Q 3734 3016 4550 3994 
L 4788 3794 
z
M 1941 3547 
Q 1334 2797 678 2297 
L 447 2534 
Q 1034 2959 1672 3731 
L 1941 3547 
z
M 5978 2181 
L 5734 1959 
Q 5353 2522 4716 3138 
L 4959 3341 
Q 5644 2672 5978 2181 
z
M 5331 -331 
L 4997 -331 
L 4997 -166 
L 1088 -166 
L 1088 1147 
L 1422 1147 
L 1422 141 
L 3003 141 
L 3003 1422 
L 3334 1422 
L 3334 141 
L 4997 141 
L 4997 1147 
L 5331 1147 
L 5331 -331 
z
" transform="scale(0.015625)"/>
      <path id="MicrosoftJhengHeiRegular-5ea6" d="M 5941 4422 
L 1319 4422 
L 1319 2638 
Q 1319 897 616 -238 
L 325 -25 
Q 997 1019 997 2963 
L 997 4744 
L 3359 4744 
Q 3219 5003 3047 5222 
L 3419 5313 
Q 3619 5003 3750 4744 
L 5941 4744 
L 5941 4422 
z
M 5941 3397 
L 4838 3397 
L 4838 2356 
L 2541 2356 
L 2541 3397 
L 1569 3397 
L 1569 3713 
L 2541 3713 
L 2541 4238 
L 2875 4238 
L 2875 3713 
L 4506 3713 
L 4506 4238 
L 4838 4238 
L 4838 3713 
L 5941 3713 
L 5941 3397 
z
M 4506 2675 
L 4506 3397 
L 2875 3397 
L 2875 2675 
L 4506 2675 
z
M 6088 -44 
L 5881 -353 
Q 4572 -138 3731 256 
Q 2756 -181 1356 -325 
L 1191 6 
Q 2566 113 3341 447 
Q 2594 903 2194 1625 
L 1953 1625 
L 1953 1959 
L 5191 1959 
L 5191 1625 
Q 4816 894 4084 459 
Q 4803 147 6088 -44 
z
M 4788 1625 
L 2591 1625 
Q 2997 969 3706 628 
Q 4450 1038 4788 1625 
z
" transform="scale(0.015625)"/>
      <path id="MicrosoftJhengHeiRegular-5206" d="M 2688 5141 
Q 1919 3378 647 2503 
L 416 2766 
Q 1650 3591 2350 5241 
L 2688 5141 
z
M 6047 2809 
L 5819 2522 
Q 4553 3422 4063 4878 
L 3584 4878 
L 3584 5222 
L 4300 5222 
Q 4778 3628 6047 2809 
z
M 5013 2894 
Q 4997 1866 4890 1047 
Q 4784 228 4681 31 
Q 4578 -166 4395 -250 
Q 4213 -334 3759 -334 
Q 3563 -334 3250 -319 
L 3175 25 
Q 3525 -6 3822 -6 
Q 4109 -6 4192 31 
Q 4275 69 4336 139 
Q 4397 209 4472 557 
Q 4547 906 4592 1420 
Q 4638 1934 4653 2553 
L 3009 2553 
Q 2794 669 897 -409 
L 691 -141 
Q 2450 847 2644 2553 
L 1434 2553 
L 1434 2894 
L 5013 2894 
z
" transform="scale(0.015625)"/>
      <path id="MicrosoftJhengHeiRegular-5e03" d="M 6022 4500 
L 6016 4159 
L 2925 4159 
Q 2453 3316 1931 2772 
L 3366 2772 
L 3366 3653 
L 3713 3653 
L 3713 2772 
L 5588 2772 
L 5588 544 
Q 5588 31 5044 31 
Q 4609 31 4481 38 
L 4353 403 
Q 4766 381 4956 381 
Q 5150 381 5198 412 
Q 5247 444 5247 513 
L 5247 2425 
L 3713 2425 
L 3713 -347 
L 3366 -347 
L 3366 2425 
L 1913 2425 
L 1913 31 
L 1556 31 
L 1556 2413 
Q 984 1956 691 1759 
L 459 2034 
Q 1797 2859 2522 4159 
L 453 4159 
L 453 4500 
L 2700 4500 
Q 2847 4784 3028 5325 
L 3366 5247 
Q 3250 4866 3084 4500 
L 6022 4500 
z
" transform="scale(0.015625)"/>
      <path id="MicrosoftJhengHeiRegular-2d" d="M 2328 1722 
L 488 1722 
L 488 2138 
L 2328 2138 
L 2328 1722 
z
" transform="scale(0.015625)"/>
      <path id="MicrosoftJhengHeiRegular-96dc" d="M 6003 -44 
L 3922 -44 
L 3922 -319 
L 3609 -319 
L 3609 3284 
Q 3522 3109 3372 2900 
L 3156 3156 
Q 3769 4122 4025 5319 
L 4325 5209 
Q 4228 4763 4013 4159 
L 4959 4159 
Q 4822 4647 4641 5094 
L 4947 5216 
Q 5119 4759 5281 4159 
L 5919 4159 
L 5919 3853 
L 5119 3853 
L 5119 2913 
L 5900 2913 
L 5900 2613 
L 5119 2613 
L 5119 1613 
L 5900 1613 
L 5900 1313 
L 5119 1313 
L 5119 275 
L 6003 275 
L 6003 -44 
z
M 4800 2913 
L 4800 3853 
L 3922 3853 
L 3922 2913 
L 4800 2913 
z
M 4800 1613 
L 4800 2613 
L 3922 2613 
L 3922 1613 
L 4800 1613 
z
M 4800 275 
L 4800 1313 
L 3922 1313 
L 3922 275 
L 4800 275 
z
M 3256 4416 
L 525 4416 
L 525 4716 
L 1778 4716 
Q 1716 4856 1538 5172 
L 1825 5313 
Q 1981 5056 2113 4716 
L 3256 4716 
L 3256 4416 
z
M 1753 3244 
L 1575 2981 
Q 1356 3228 1228 3316 
Q 975 2838 728 2572 
L 481 2753 
Q 1003 3350 1241 4231 
L 1538 4134 
Q 1481 3897 1356 3603 
Q 1591 3416 1753 3244 
z
M 3072 2944 
L 2859 2688 
Q 2572 3097 2369 3297 
Q 2247 3034 1972 2644 
L 1709 2803 
Q 2134 3381 2400 4225 
L 2688 4134 
Q 2613 3897 2491 3578 
Q 2809 3294 3072 2944 
z
M 3256 1747 
L 2053 1747 
L 2053 1472 
Q 2797 981 3181 609 
L 2975 331 
Q 2456 856 2053 1113 
L 2053 -319 
L 1734 -319 
L 1734 1241 
Q 1272 681 609 178 
L 403 434 
Q 1319 1106 1703 1747 
L 441 1747 
L 441 2059 
L 1734 2059 
L 1734 2463 
L 2053 2463 
L 2053 2059 
L 3256 2059 
L 3256 1747 
z
" transform="scale(0.015625)"/>
      <path id="MicrosoftJhengHeiRegular-8a0a" d="M 2541 4300 
L 416 4300 
L 416 4616 
L 1409 4616 
Q 1322 4853 1131 5191 
L 1422 5331 
Q 1613 4994 1753 4616 
L 2541 4616 
L 2541 4300 
z
M 6181 1119 
Q 6113 506 5942 106 
Q 5772 -294 5556 -294 
Q 5222 -294 5100 376 
Q 4978 1047 4978 1491 
L 4978 4788 
L 3700 4788 
L 3700 2778 
L 4709 2778 
L 4709 2472 
L 3700 2472 
L 3700 -341 
L 3366 -341 
L 3366 2472 
L 2625 2472 
L 2625 2778 
L 3366 2778 
L 3366 4788 
L 2675 4788 
L 2675 5094 
L 5306 5094 
L 5306 1716 
Q 5306 891 5404 475 
Q 5503 59 5547 59 
Q 5591 59 5709 465 
Q 5828 872 5869 1300 
L 6181 1119 
z
M 2356 3366 
L 569 3366 
L 569 3681 
L 2356 3681 
L 2356 3366 
z
M 2338 2450 
L 569 2450 
L 569 2753 
L 2338 2753 
L 2338 2450 
z
M 2338 -225 
L 1997 -225 
L 1997 159 
L 959 159 
L 959 -325 
L 622 -325 
L 622 1819 
L 2338 1819 
L 2338 -225 
z
M 1997 469 
L 1997 1503 
L 959 1503 
L 959 469 
L 1997 469 
z
" transform="scale(0.015625)"/>
      <path id="MicrosoftJhengHeiRegular-42" d="M 641 0 
L 641 4841 
L 1994 4841 
Q 2597 4841 2965 4537 
Q 3334 4234 3334 3734 
Q 3334 3328 3117 3022 
Q 2900 2716 2503 2581 
L 2503 2569 
Q 2988 2522 3283 2206 
Q 3578 1891 3578 1388 
Q 3578 772 3136 386 
Q 2694 0 2019 0 
L 641 0 
z
M 1172 4347 
L 1172 2756 
L 1759 2756 
Q 2241 2756 2509 2986 
Q 2778 3216 2778 3628 
Q 2778 4347 1841 4347 
L 1172 4347 
z
M 1172 2266 
L 1172 494 
L 1956 494 
Q 2456 494 2739 733 
Q 3022 972 3022 1394 
Q 3022 2266 1828 2266 
L 1172 2266 
z
" transform="scale(0.015625)"/>
      <path id="MicrosoftJhengHeiRegular-6545" d="M 6053 -72 
L 5838 -372 
Q 4972 122 4525 684 
Q 3984 81 3169 -359 
L 2925 -91 
Q 3828 369 4306 953 
Q 3853 1591 3609 2669 
L 3922 2772 
Q 4131 1806 4506 1234 
Q 5088 2150 5253 3909 
L 3994 3909 
Q 3728 3138 3250 2419 
L 2981 2619 
Q 3744 3775 4019 5288 
L 4366 5269 
Q 4266 4769 4109 4238 
L 5966 4238 
L 5966 3909 
L 5594 3909 
Q 5372 1900 4709 947 
Q 5228 350 6053 -72 
z
M 3097 3878 
L 1919 3878 
L 1919 2559 
L 2797 2559 
L 2797 -6 
L 2463 -6 
L 2463 403 
L 1050 403 
L 1050 -172 
L 716 -172 
L 716 2559 
L 1606 2559 
L 1606 3878 
L 453 3878 
L 453 4213 
L 1606 4213 
L 1606 5275 
L 1919 5275 
L 1919 4213 
L 3097 4213 
L 3097 3878 
z
M 2463 738 
L 2463 2228 
L 1050 2228 
L 1050 738 
L 2463 738 
z
" transform="scale(0.015625)"/>
      <path id="MicrosoftJhengHeiRegular-969c" d="M 5984 3584 
L 2266 3584 
L 2266 3891 
L 3309 3891 
Q 3175 4238 2994 4506 
L 2472 4506 
L 2472 4819 
L 3916 4819 
Q 3828 4966 3700 5141 
L 4000 5306 
Q 4194 5063 4306 4819 
L 5850 4819 
L 5850 4506 
L 5288 4506 
Q 5097 4094 4978 3891 
L 5984 3891 
L 5984 3584 
z
M 4928 4506 
L 3347 4506 
Q 3506 4222 3647 3891 
L 4634 3891 
Q 4822 4206 4928 4506 
z
M 1697 3291 
Q 2234 2550 2234 1863 
Q 2234 1556 2054 1331 
Q 1875 1106 1209 1147 
L 1088 1478 
Q 1331 1466 1466 1466 
Q 1716 1466 1819 1583 
Q 1922 1700 1922 1894 
Q 1922 2159 1764 2545 
Q 1606 2931 1356 3238 
Q 1616 3994 1850 4813 
L 953 4813 
L 953 -306 
L 634 -306 
L 634 5131 
L 2194 5131 
L 2194 4813 
Q 1997 4150 1697 3291 
z
M 5997 550 
L 4256 550 
L 4256 -331 
L 3938 -331 
L 3938 550 
L 2259 550 
L 2259 872 
L 3938 872 
L 3938 1319 
L 2644 1319 
L 2644 3156 
L 5656 3156 
L 5656 1319 
L 4256 1319 
L 4256 872 
L 5997 872 
L 5997 550 
z
M 5319 2400 
L 5319 2853 
L 2956 2853 
L 2956 2400 
L 5319 2400 
z
M 5319 1631 
L 5319 2113 
L 2956 2113 
L 2956 1631 
L 5319 1631 
z
" transform="scale(0.015625)"/>
      <path id="MicrosoftJhengHeiRegular-25" d="M 266 3625 
Q 266 4219 580 4566 
Q 894 4913 1425 4913 
Q 1938 4913 2223 4589 
Q 2509 4266 2509 3694 
Q 2509 3125 2192 2770 
Q 1875 2416 1356 2416 
Q 856 2416 561 2748 
Q 266 3081 266 3625 
z
M 700 3656 
Q 700 3241 886 3008 
Q 1072 2775 1391 2775 
Q 1716 2775 1897 3014 
Q 2078 3253 2078 3678 
Q 2078 4097 1898 4328 
Q 1719 4559 1403 4559 
Q 1081 4559 890 4312 
Q 700 4066 700 3656 
z
M 4578 4841 
L 1478 -38 
L 1016 -38 
L 4116 4841 
L 4578 4841 
z
M 3144 1134 
Q 3144 1725 3456 2079 
Q 3769 2434 4297 2434 
Q 4806 2434 5093 2106 
Q 5381 1778 5381 1197 
Q 5381 625 5061 275 
Q 4741 -75 4231 -75 
Q 3741 -75 3442 256 
Q 3144 588 3144 1134 
z
M 3572 1163 
Q 3572 756 3761 522 
Q 3950 288 4263 288 
Q 4588 288 4769 530 
Q 4950 772 4950 1194 
Q 4950 1616 4772 1841 
Q 4594 2066 4278 2066 
Q 3947 2066 3759 1823 
Q 3572 1581 3572 1163 
z
" transform="scale(0.015625)"/>
     </defs>
     <use xlink:href="#MicrosoftJhengHeiRegular-4f4d"/>
     <use xlink:href="#MicrosoftJhengHeiRegular-7f6e" x="100"/>
     <use xlink:href="#MicrosoftJhengHeiRegular-9810" x="200"/>
     <use xlink:href="#MicrosoftJhengHeiRegular-6e2c" x="300"/>
     <use xlink:href="#MicrosoftJhengHeiRegular-8aa4" x="400"/>
     <use xlink:href="#MicrosoftJhengHeiRegular-5dee" x="500"/>
     <use xlink:href="#MicrosoftJhengHeiRegular-5bc6" x="600"/>
     <use xlink:href="#MicrosoftJhengHeiRegular-5ea6" x="700"/>
     <use xlink:href="#MicrosoftJhengHeiRegular-5206" x="800"/>
     <use xlink:href="#MicrosoftJhengHeiRegular-5e03" x="900"/>
     <use xlink:href="#MicrosoftJhengHeiRegular-20" x="1000"/>
     <use xlink:href="#MicrosoftJhengHeiRegular-2d" x="1025"/>
     <use xlink:href="#MicrosoftJhengHeiRegular-20" x="1068.164062"/>
     <use xlink:href="#MicrosoftJhengHeiRegular-96dc" x="1093.164062"/>
     <use xlink:href="#MicrosoftJhengHeiRegular-8a0a" x="1193.164062"/>
     <use xlink:href="#MicrosoftJhengHeiRegular-20" x="1293.164062"/>
     <use xlink:href="#MicrosoftJhengHeiRegular-35" x="1318.164062"/>
     <use xlink:href="#MicrosoftJhengHeiRegular-64" x="1376.123047"/>
     <use xlink:href="#MicrosoftJhengHeiRegular-42" x="1439.501953"/>
     <use xlink:href="#MicrosoftJhengHeiRegular-20" x="1500.927734"/>
     <use xlink:href="#MicrosoftJhengHeiRegular-2b" x="1525.927734"/>
     <use xlink:href="#MicrosoftJhengHeiRegular-20" x="1599.658203"/>
     <use xlink:href="#MicrosoftJhengHeiRegular-6545" x="1624.658203"/>
     <use xlink:href="#MicrosoftJhengHeiRegular-969c" x="1724.658203"/>
     <use xlink:href="#MicrosoftJhengHeiRegular-20" x="1824.658203"/>
     <use xlink:href="#MicrosoftJhengHeiRegular-31" x="1849.658203"/>
     <use xlink:href="#MicrosoftJhengHeiRegular-30" x="1907.617188"/>
     <use xlink:href="#MicrosoftJhengHeiRegular-25" x="1965.576172"/>
    </g>
   </g>
  </g>
 </g>
 <defs>
  <clipPath id="p5b0c76a1eb">
   <rect x="42.575" y="22.7925" width="949.93" height="484.896171"/>
  </clipPath>
 </defs>
</svg>
