<?xml version="1.0" encoding="utf-8" standalone="no"?>
<!DOCTYPE svg PUBLIC "-//W3C//DTD SVG 1.1//EN"
  "http://www.w3.org/Graphics/SVG/1.1/DTD/svg11.dtd">
<svg xmlns:xlink="http://www.w3.org/1999/xlink" width="1000.309937pt" height="566.231875pt" viewBox="0 0 1000.309937 566.231875" xmlns="http://www.w3.org/2000/svg" version="1.1">
 <metadata>
  <rdf:RDF xmlns:dc="http://purl.org/dc/elements/1.1/" xmlns:cc="http://creativecommons.org/ns#" xmlns:rdf="http://www.w3.org/1999/02/22-rdf-syntax-ns#">
   <cc:Work>
    <dc:type rdf:resource="http://purl.org/dc/dcmitype/StillImage"/>
    <dc:date>2025-09-01T01:24:20.940832</dc:date>
    <dc:format>image/svg+xml</dc:format>
    <dc:creator>
     <cc:Agent>
      <dc:title>Matplotlib v3.7.1, https://matplotlib.org/</dc:title>
     </cc:Agent>
    </dc:creator>
   </cc:Work>
  </rdf:RDF>
 </metadata>
 <defs>
  <style type="text/css">*{stroke-linejoin: round; stroke-linecap: butt}</style>
 </defs>
 <g id="figure_1">
  <g id="patch_1">
   <path d="M 0 566.231875 
L 1000.309937 566.231875 
L 1000.309937 0 
L 0 0 
z
" style="fill: #ffffff"/>
  </g>
  <g id="axes_1">
   <g id="patch_2">
    <path d="M 46.065625 527.0725 
L 836.195625 527.0725 
L 836.195625 22.7925 
L 46.065625 22.7925 
z
" style="fill: #ffffff"/>
   </g>
   <g id="matplotlib.axis_1">
    <g id="xtick_1">
     <g id="line2d_1">
      <path d="M 46.065625 527.0725 
L 46.065625 22.7925 
" clip-path="url(#p99d36696c5)" style="fill: none; stroke: #b0b0b0; stroke-opacity: 0.3; stroke-width: 0.8; stroke-linecap: square"/>
     </g>
     <g id="line2d_2">
      <defs>
       <path id="m6e9968f580" d="M 0 0 
L 0 3.5 
" style="stroke: #000000; stroke-width: 0.8"/>
      </defs>
      <g>
       <use xlink:href="#m6e9968f580" x="46.065625" y="527.0725" style="stroke: #000000; stroke-width: 0.8"/>
      </g>
     </g>
     <g id="text_1">
      <!-- 0 -->
      <g transform="translate(43.167969 542.06625) scale(0.1 -0.1)">
       <defs>
        <path id="MicrosoftJhengHeiRegular-30" d="M 294 2322 
Q 294 3603 711 4262 
Q 1128 4922 1916 4922 
Q 3425 4922 3425 2441 
Q 3425 1234 3011 576 
Q 2597 -81 1806 -81 
Q 1069 -81 681 550 
Q 294 1181 294 2322 
z
M 825 2350 
Q 825 363 1863 363 
Q 2891 363 2891 2378 
Q 2891 4475 1888 4475 
Q 825 4475 825 2350 
z
" transform="scale(0.015625)"/>
       </defs>
       <use xlink:href="#MicrosoftJhengHeiRegular-30"/>
      </g>
     </g>
    </g>
    <g id="xtick_2">
     <g id="line2d_3">
      <path d="M 213.562871 527.0725 
L 213.562871 22.7925 
" clip-path="url(#p99d36696c5)" style="fill: none; stroke: #b0b0b0; stroke-opacity: 0.3; stroke-width: 0.8; stroke-linecap: square"/>
     </g>
     <g id="line2d_4">
      <g>
       <use xlink:href="#m6e9968f580" x="213.562871" y="527.0725" style="stroke: #000000; stroke-width: 0.8"/>
      </g>
     </g>
     <g id="text_2">
      <!-- 1 -->
      <g transform="translate(210.665215 542.06625) scale(0.1 -0.1)">
       <defs>
        <path id="MicrosoftJhengHeiRegular-31" d="M 3313 0 
L 594 0 
L 594 466 
L 1694 466 
L 1694 4272 
L 566 3931 
L 566 4434 
L 2216 4950 
L 2216 466 
L 3313 466 
L 3313 0 
z
" transform="scale(0.015625)"/>
       </defs>
       <use xlink:href="#MicrosoftJhengHeiRegular-31"/>
      </g>
     </g>
    </g>
    <g id="xtick_3">
     <g id="line2d_5">
      <path d="M 381.060117 527.0725 
L 381.060117 22.7925 
" clip-path="url(#p99d36696c5)" style="fill: none; stroke: #b0b0b0; stroke-opacity: 0.3; stroke-width: 0.8; stroke-linecap: square"/>
     </g>
     <g id="line2d_6">
      <g>
       <use xlink:href="#m6e9968f580" x="381.060117" y="527.0725" style="stroke: #000000; stroke-width: 0.8"/>
      </g>
     </g>
     <g id="text_3">
      <!-- 2 -->
      <g transform="translate(378.162461 542.06625) scale(0.1 -0.1)">
       <defs>
        <path id="MicrosoftJhengHeiRegular-32" d="M 3219 0 
L 322 0 
L 322 472 
L 1731 1891 
Q 2431 2597 2592 2914 
Q 2753 3231 2753 3588 
Q 2753 4016 2511 4247 
Q 2269 4478 1816 4478 
Q 1169 4478 572 3919 
L 572 4475 
Q 1131 4922 1884 4922 
Q 2509 4922 2886 4575 
Q 3263 4228 3263 3634 
Q 3263 3178 3014 2736 
Q 2766 2294 2075 1603 
L 947 488 
L 947 475 
L 3219 475 
L 3219 0 
z
" transform="scale(0.015625)"/>
       </defs>
       <use xlink:href="#MicrosoftJhengHeiRegular-32"/>
      </g>
     </g>
    </g>
    <g id="xtick_4">
     <g id="line2d_7">
      <path d="M 548.557364 527.0725 
L 548.557364 22.7925 
" clip-path="url(#p99d36696c5)" style="fill: none; stroke: #b0b0b0; stroke-opacity: 0.3; stroke-width: 0.8; stroke-linecap: square"/>
     </g>
     <g id="line2d_8">
      <g>
       <use xlink:href="#m6e9968f580" x="548.557364" y="527.0725" style="stroke: #000000; stroke-width: 0.8"/>
      </g>
     </g>
     <g id="text_4">
      <!-- 3 -->
      <g transform="translate(545.659707 542.06625) scale(0.1 -0.1)">
       <defs>
        <path id="MicrosoftJhengHeiRegular-33" d="M 438 756 
Q 934 363 1556 363 
Q 2056 363 2370 616 
Q 2684 869 2684 1313 
Q 2684 2281 1319 2281 
L 919 2281 
L 919 2728 
L 1300 2728 
Q 2513 2728 2513 3634 
Q 2513 4475 1588 4475 
Q 1075 4475 625 4122 
L 625 4644 
Q 1088 4922 1719 4922 
Q 2294 4922 2670 4606 
Q 3047 4291 3047 3769 
Q 3047 2819 2075 2538 
L 2075 2525 
Q 2591 2481 2905 2162 
Q 3219 1844 3219 1369 
Q 3219 706 2742 312 
Q 2266 -81 1525 -81 
Q 844 -81 438 178 
L 438 756 
z
" transform="scale(0.015625)"/>
       </defs>
       <use xlink:href="#MicrosoftJhengHeiRegular-33"/>
      </g>
     </g>
    </g>
    <g id="xtick_5">
     <g id="line2d_9">
      <path d="M 716.05461 527.0725 
L 716.05461 22.7925 
" clip-path="url(#p99d36696c5)" style="fill: none; stroke: #b0b0b0; stroke-opacity: 0.3; stroke-width: 0.8; stroke-linecap: square"/>
     </g>
     <g id="line2d_10">
      <g>
       <use xlink:href="#m6e9968f580" x="716.05461" y="527.0725" style="stroke: #000000; stroke-width: 0.8"/>
      </g>
     </g>
     <g id="text_5">
      <!-- 4 -->
      <g transform="translate(713.156954 542.06625) scale(0.1 -0.1)">
       <defs>
        <path id="MicrosoftJhengHeiRegular-34" d="M 3472 1300 
L 2847 1300 
L 2847 0 
L 2328 0 
L 2328 1300 
L 41 1300 
L 41 1644 
L 2203 4841 
L 2847 4841 
L 2847 1731 
L 3472 1731 
L 3472 1300 
z
M 2328 1731 
L 2328 3863 
Q 2328 4084 2341 4366 
L 2328 4366 
Q 2303 4297 2144 3994 
L 622 1731 
L 2328 1731 
z
" transform="scale(0.015625)"/>
       </defs>
       <use xlink:href="#MicrosoftJhengHeiRegular-34"/>
      </g>
     </g>
    </g>
    <g id="text_6">
     <!-- 位置預測誤差 (公尺) -->
     <g transform="translate(396.672813 556.545937) scale(0.1 -0.1)">
      <defs>
       <path id="MicrosoftJhengHeiRegular-4f4d" d="M 6016 -172 
L 1900 -172 
L 1900 159 
L 3194 159 
Q 3031 1716 2478 3597 
L 2700 3719 
L 1984 3719 
L 1984 4050 
L 3884 4050 
Q 3750 4634 3500 5178 
L 3822 5288 
Q 4053 4759 4244 4050 
L 5913 4050 
L 5913 3719 
L 5269 3719 
L 5472 3641 
Q 5191 1675 4716 159 
L 6016 159 
L 6016 -172 
z
M 5125 3719 
L 2816 3719 
Q 3334 1778 3547 159 
L 4372 159 
Q 4925 1928 5125 3719 
z
M 2131 5147 
Q 2009 4856 1803 4447 
L 1594 4044 
L 1594 -325 
L 1253 -325 
L 1253 3425 
Q 966 2963 544 2456 
L 331 2772 
Q 1222 3825 1791 5269 
L 2131 5147 
z
" transform="scale(0.015625)"/>
       <path id="MicrosoftJhengHeiRegular-7f6e" d="M 5991 -184 
L 453 -184 
L 453 97 
L 1203 97 
L 1203 2803 
L 2694 2803 
L 2853 3256 
L 500 3256 
L 500 3547 
L 2956 3547 
L 3078 3969 
L 756 3969 
L 756 5119 
L 5663 5119 
L 5663 3969 
L 3425 3969 
L 3297 3547 
L 5894 3547 
L 5894 3256 
L 3194 3256 
L 3047 2803 
L 5228 2803 
L 5228 97 
L 5991 97 
L 5991 -184 
z
M 5331 4231 
L 5331 4844 
L 4147 4844 
L 4147 4231 
L 5331 4231 
z
M 3816 4231 
L 3816 4844 
L 2613 4844 
L 2613 4231 
L 3816 4231 
z
M 2278 4231 
L 2278 4844 
L 1081 4844 
L 1081 4231 
L 2278 4231 
z
M 4903 2138 
L 4903 2534 
L 1538 2534 
L 1538 2138 
L 4903 2138 
z
M 4903 1478 
L 4903 1875 
L 1538 1875 
L 1538 1478 
L 4903 1478 
z
M 4903 781 
L 4903 1222 
L 1538 1222 
L 1538 781 
L 4903 781 
z
M 4903 97 
L 4903 513 
L 1538 513 
L 1538 97 
L 4903 97 
z
" transform="scale(0.015625)"/>
       <path id="MicrosoftJhengHeiRegular-9810" d="M 6009 4794 
L 4588 4794 
Q 4519 4447 4384 4063 
L 5703 4063 
L 5703 947 
L 4031 947 
L 4231 744 
Q 3759 156 2894 -378 
L 2675 -91 
Q 3456 341 3969 947 
L 3150 947 
L 3150 4063 
L 4038 4063 
Q 4166 4381 4250 4794 
L 2925 4794 
L 2925 5119 
L 6009 5119 
L 6009 4794 
z
M 5375 3163 
L 5375 3744 
L 3475 3744 
L 3475 3163 
L 5375 3163 
z
M 5375 2234 
L 5375 2853 
L 3475 2853 
L 3475 2234 
L 5375 2234 
z
M 5375 1269 
L 5375 1931 
L 3475 1931 
L 3475 1269 
L 5375 1269 
z
M 2881 3084 
Q 2719 2138 2369 1631 
L 2081 1831 
Q 2366 2228 2478 2753 
L 1753 2753 
L 1753 122 
Q 1753 -56 1608 -197 
Q 1463 -338 703 -306 
L 609 19 
Q 1219 19 1283 26 
Q 1347 34 1397 96 
Q 1447 159 1447 213 
L 1447 2753 
L 441 2753 
L 441 3084 
L 1838 3084 
Q 1450 3513 666 4072 
L 844 4319 
Q 1059 4184 1478 3853 
Q 1991 4363 2234 4728 
L 594 4728 
L 594 5044 
L 2644 5044 
L 2644 4728 
Q 2175 4094 1734 3641 
Q 2006 3403 2150 3219 
L 2041 3084 
L 2881 3084 
z
M 5991 -78 
L 5778 -341 
Q 5194 175 4569 513 
L 4775 763 
Q 5513 338 5991 -78 
z
" transform="scale(0.015625)"/>
       <path id="MicrosoftJhengHeiRegular-6e2c" d="M 5797 128 
Q 5797 -150 5633 -242 
Q 5469 -334 5038 -334 
Q 4800 -334 4563 -319 
L 4481 0 
Q 5288 0 5383 28 
Q 5478 56 5478 225 
L 5478 5253 
L 5797 5253 
L 5797 128 
z
M 1813 4453 
L 1581 4206 
Q 1156 4666 609 5013 
L 794 5253 
Q 1409 4906 1813 4453 
z
M 3853 1075 
L 2578 1075 
L 2766 947 
Q 2406 209 1863 -353 
L 1600 -134 
Q 2138 397 2463 1075 
L 2016 1075 
L 2016 5125 
L 3853 5125 
L 3853 1075 
z
M 3541 3928 
L 3541 4813 
L 2338 4813 
L 2338 3928 
L 3541 3928 
z
M 3541 2681 
L 3541 3609 
L 2338 3609 
L 2338 2681 
L 3541 2681 
z
M 3541 1394 
L 3541 2369 
L 2338 2369 
L 2338 1394 
L 3541 1394 
z
M 4769 825 
L 4447 825 
L 4447 4844 
L 4769 4844 
L 4769 825 
z
M 1594 2803 
L 1356 2572 
Q 994 3019 403 3456 
L 622 3713 
Q 1266 3209 1594 2803 
z
M 1631 1747 
Q 1059 238 678 -325 
L 428 -109 
Q 959 753 1338 1906 
L 1631 1747 
z
M 4019 -25 
L 3744 -191 
Q 3513 350 3116 813 
L 3378 991 
Q 3816 463 4019 -25 
z
" transform="scale(0.015625)"/>
       <path id="MicrosoftJhengHeiRegular-8aa4" d="M 2463 4294 
L 441 4294 
L 441 4609 
L 1325 4609 
Q 1238 4888 1075 5222 
L 1394 5331 
Q 1591 4931 1691 4609 
L 2463 4609 
L 2463 4294 
z
M 5484 3469 
L 3572 3469 
L 3572 5131 
L 5484 5131 
L 5484 3469 
z
M 5172 3775 
L 5172 4813 
L 3891 4813 
L 3891 3775 
L 5172 3775 
z
M 6009 1394 
L 4269 1394 
Q 4038 75 2650 -313 
L 2456 -38 
Q 3716 225 3938 1394 
L 2497 1394 
L 2497 1709 
L 3988 1709 
Q 4028 1994 4050 2606 
L 2741 2606 
L 2741 4697 
L 3066 4697 
L 3066 2925 
L 5703 2925 
L 5703 1709 
L 6009 1709 
L 6009 1394 
z
M 5369 1709 
L 5369 2606 
L 4384 2606 
Q 4359 2109 4325 1709 
L 5369 1709 
z
M 2322 3366 
L 569 3366 
L 569 3681 
L 2322 3681 
L 2322 3366 
z
M 2322 2438 
L 575 2438 
L 575 2753 
L 2322 2753 
L 2322 2438 
z
M 2216 -184 
L 1894 -184 
L 1894 172 
L 959 172 
L 959 -306 
L 641 -306 
L 641 1831 
L 2216 1831 
L 2216 -184 
z
M 1894 494 
L 1894 1509 
L 959 1509 
L 959 494 
L 1894 494 
z
M 5966 -109 
L 5728 -331 
Q 5384 72 4494 775 
L 4684 1019 
Q 5438 478 5966 -109 
z
" transform="scale(0.015625)"/>
       <path id="MicrosoftJhengHeiRegular-5dee" d="M 4916 5113 
Q 4613 4759 4281 4556 
L 4006 4769 
Q 4378 5009 4634 5319 
L 4916 5113 
z
M 2566 4728 
L 2284 4538 
Q 2078 4813 1703 5106 
L 1978 5313 
Q 2378 4997 2566 4728 
z
M 5997 2138 
L 2094 2138 
Q 2009 684 678 -166 
L 434 97 
Q 1688 828 1753 2138 
L 488 2138 
L 488 2444 
L 3072 2444 
L 3072 3116 
L 878 3116 
L 878 3431 
L 3072 3431 
L 3072 4103 
L 684 4103 
L 684 4409 
L 5819 4409 
L 5819 4103 
L 3406 4103 
L 3406 3431 
L 5569 3431 
L 5569 3116 
L 3406 3116 
L 3406 2444 
L 5997 2444 
L 5997 2138 
z
M 6009 -213 
L 1684 -213 
L 1684 103 
L 3681 103 
L 3681 1131 
L 2228 1131 
L 2228 1453 
L 5703 1453 
L 5703 1131 
L 4031 1131 
L 4031 103 
L 6009 103 
L 6009 -213 
z
" transform="scale(0.015625)"/>
       <path id="MicrosoftJhengHeiRegular-20" transform="scale(0.015625)"/>
       <path id="MicrosoftJhengHeiRegular-28" d="M 1513 -1100 
Q 469 94 469 1847 
Q 469 3609 1513 4841 
L 1988 4841 
Q 925 3556 925 1853 
Q 925 159 1981 -1100 
L 1513 -1100 
z
" transform="scale(0.015625)"/>
       <path id="MicrosoftJhengHeiRegular-516c" d="M 2663 5153 
Q 2097 3406 628 2350 
L 372 2606 
Q 1781 3563 2328 5269 
L 2663 5153 
z
M 6047 2656 
L 5831 2375 
Q 4681 3125 3994 4844 
L 3566 4844 
L 3566 5191 
L 4256 5191 
Q 4819 3456 6047 2656 
z
M 5569 -213 
L 5269 -384 
Q 5069 109 4872 428 
Q 3059 -41 1269 -197 
L 1172 128 
Q 2150 1278 3041 3419 
L 3366 3278 
Q 2556 1356 1672 184 
Q 2909 272 4703 728 
Q 4416 1238 3922 1913 
L 4219 2088 
Q 5106 866 5569 -213 
z
" transform="scale(0.015625)"/>
       <path id="MicrosoftJhengHeiRegular-5c3a" d="M 6053 -31 
L 5856 -366 
Q 4309 13 3332 755 
Q 2356 1497 1797 2772 
L 1656 2772 
Q 1609 656 666 -306 
L 409 -63 
Q 1313 831 1313 3066 
L 1313 5125 
L 5581 5125 
L 5581 2772 
L 2169 2772 
Q 2891 1341 3995 739 
Q 5100 138 6053 -31 
z
M 5228 3116 
L 5228 4788 
L 1678 4788 
L 1678 3116 
L 5228 3116 
z
" transform="scale(0.015625)"/>
       <path id="MicrosoftJhengHeiRegular-29" d="M 84 -1100 
Q 1138 153 1138 1853 
Q 1138 3563 75 4841 
L 553 4841 
Q 1603 3609 1603 1847 
Q 1603 97 553 -1100 
L 84 -1100 
z
" transform="scale(0.015625)"/>
      </defs>
      <use xlink:href="#MicrosoftJhengHeiRegular-4f4d"/>
      <use xlink:href="#MicrosoftJhengHeiRegular-7f6e" x="100"/>
      <use xlink:href="#MicrosoftJhengHeiRegular-9810" x="200"/>
      <use xlink:href="#MicrosoftJhengHeiRegular-6e2c" x="300"/>
      <use xlink:href="#MicrosoftJhengHeiRegular-8aa4" x="400"/>
      <use xlink:href="#MicrosoftJhengHeiRegular-5dee" x="500"/>
      <use xlink:href="#MicrosoftJhengHeiRegular-20" x="600"/>
      <use xlink:href="#MicrosoftJhengHeiRegular-28" x="625"/>
      <use xlink:href="#MicrosoftJhengHeiRegular-516c" x="657.080078"/>
      <use xlink:href="#MicrosoftJhengHeiRegular-5c3a" x="757.080078"/>
      <use xlink:href="#MicrosoftJhengHeiRegular-29" x="857.080078"/>
     </g>
    </g>
   </g>
   <g id="matplotlib.axis_2">
    <g id="ytick_1">
     <g id="line2d_11">
      <path d="M 46.065625 527.0725 
L 836.195625 527.0725 
" clip-path="url(#p99d36696c5)" style="fill: none; stroke: #b0b0b0; stroke-opacity: 0.3; stroke-width: 0.8; stroke-linecap: square"/>
     </g>
     <g id="line2d_12">
      <defs>
       <path id="m9bce686954" d="M 0 0 
L -3.5 0 
" style="stroke: #000000; stroke-width: 0.8"/>
      </defs>
      <g>
       <use xlink:href="#m9bce686954" x="46.065625" y="527.0725" style="stroke: #000000; stroke-width: 0.8"/>
      </g>
     </g>
     <g id="text_7">
      <!-- 0 -->
      <g transform="translate(33.270313 531.069375) scale(0.1 -0.1)">
       <use xlink:href="#MicrosoftJhengHeiRegular-30"/>
      </g>
     </g>
    </g>
    <g id="ytick_2">
     <g id="line2d_13">
      <path d="M 46.065625 426.2165 
L 836.195625 426.2165 
" clip-path="url(#p99d36696c5)" style="fill: none; stroke: #b0b0b0; stroke-opacity: 0.3; stroke-width: 0.8; stroke-linecap: square"/>
     </g>
     <g id="line2d_14">
      <g>
       <use xlink:href="#m9bce686954" x="46.065625" y="426.2165" style="stroke: #000000; stroke-width: 0.8"/>
      </g>
     </g>
     <g id="text_8">
      <!-- 20 -->
      <g transform="translate(27.475 430.213375) scale(0.1 -0.1)">
       <use xlink:href="#MicrosoftJhengHeiRegular-32"/>
       <use xlink:href="#MicrosoftJhengHeiRegular-30" x="57.958984"/>
      </g>
     </g>
    </g>
    <g id="ytick_3">
     <g id="line2d_15">
      <path d="M 46.065625 325.3605 
L 836.195625 325.3605 
" clip-path="url(#p99d36696c5)" style="fill: none; stroke: #b0b0b0; stroke-opacity: 0.3; stroke-width: 0.8; stroke-linecap: square"/>
     </g>
     <g id="line2d_16">
      <g>
       <use xlink:href="#m9bce686954" x="46.065625" y="325.3605" style="stroke: #000000; stroke-width: 0.8"/>
      </g>
     </g>
     <g id="text_9">
      <!-- 40 -->
      <g transform="translate(27.475 329.357375) scale(0.1 -0.1)">
       <use xlink:href="#MicrosoftJhengHeiRegular-34"/>
       <use xlink:href="#MicrosoftJhengHeiRegular-30" x="57.958984"/>
      </g>
     </g>
    </g>
    <g id="ytick_4">
     <g id="line2d_17">
      <path d="M 46.065625 224.5045 
L 836.195625 224.5045 
" clip-path="url(#p99d36696c5)" style="fill: none; stroke: #b0b0b0; stroke-opacity: 0.3; stroke-width: 0.8; stroke-linecap: square"/>
     </g>
     <g id="line2d_18">
      <g>
       <use xlink:href="#m9bce686954" x="46.065625" y="224.5045" style="stroke: #000000; stroke-width: 0.8"/>
      </g>
     </g>
     <g id="text_10">
      <!-- 60 -->
      <g transform="translate(27.475 228.501375) scale(0.1 -0.1)">
       <defs>
        <path id="MicrosoftJhengHeiRegular-36" d="M 3138 4284 
Q 2756 4475 2347 4475 
Q 1681 4475 1297 3892 
Q 913 3309 916 2328 
L 931 2328 
Q 1266 3022 2041 3022 
Q 2675 3022 3053 2609 
Q 3431 2197 3431 1525 
Q 3431 834 3006 376 
Q 2581 -81 1922 -81 
Q 1166 -81 770 509 
Q 375 1100 375 2125 
Q 375 3353 890 4137 
Q 1406 4922 2338 4922 
Q 2844 4922 3138 4781 
L 3138 4284 
z
M 953 1584 
Q 953 1072 1226 717 
Q 1500 363 1941 363 
Q 2369 363 2631 675 
Q 2894 988 2894 1459 
Q 2894 1988 2637 2281 
Q 2381 2575 1934 2575 
Q 1525 2575 1239 2287 
Q 953 2000 953 1584 
z
" transform="scale(0.015625)"/>
       </defs>
       <use xlink:href="#MicrosoftJhengHeiRegular-36"/>
       <use xlink:href="#MicrosoftJhengHeiRegular-30" x="57.958984"/>
      </g>
     </g>
    </g>
    <g id="ytick_5">
     <g id="line2d_19">
      <path d="M 46.065625 123.6485 
L 836.195625 123.6485 
" clip-path="url(#p99d36696c5)" style="fill: none; stroke: #b0b0b0; stroke-opacity: 0.3; stroke-width: 0.8; stroke-linecap: square"/>
     </g>
     <g id="line2d_20">
      <g>
       <use xlink:href="#m9bce686954" x="46.065625" y="123.6485" style="stroke: #000000; stroke-width: 0.8"/>
      </g>
     </g>
     <g id="text_11">
      <!-- 80 -->
      <g transform="translate(27.475 127.645375) scale(0.1 -0.1)">
       <defs>
        <path id="MicrosoftJhengHeiRegular-38" d="M 1394 2550 
Q 519 2963 519 3731 
Q 519 4263 925 4592 
Q 1331 4922 1931 4922 
Q 2469 4922 2841 4614 
Q 3213 4306 3213 3806 
Q 3213 3000 2313 2550 
L 2313 2538 
Q 3372 2138 3372 1225 
Q 3372 606 2931 262 
Q 2491 -81 1753 -81 
Q 1150 -81 745 267 
Q 341 616 341 1178 
Q 341 2109 1394 2538 
L 1394 2550 
z
M 2672 3738 
Q 2672 4081 2455 4276 
Q 2238 4472 1878 4472 
Q 1547 4472 1303 4267 
Q 1059 4063 1059 3750 
Q 1059 3106 1856 2778 
Q 2672 3122 2672 3738 
z
M 1819 2284 
Q 878 1909 878 1203 
Q 878 813 1159 589 
Q 1441 366 1875 366 
Q 2294 366 2566 589 
Q 2838 813 2838 1181 
Q 2838 1919 1819 2284 
z
" transform="scale(0.015625)"/>
       </defs>
       <use xlink:href="#MicrosoftJhengHeiRegular-38"/>
       <use xlink:href="#MicrosoftJhengHeiRegular-30" x="57.958984"/>
      </g>
     </g>
    </g>
    <g id="ytick_6">
     <g id="line2d_21">
      <path d="M 46.065625 22.7925 
L 836.195625 22.7925 
" clip-path="url(#p99d36696c5)" style="fill: none; stroke: #b0b0b0; stroke-opacity: 0.3; stroke-width: 0.8; stroke-linecap: square"/>
     </g>
     <g id="line2d_22">
      <g>
       <use xlink:href="#m9bce686954" x="46.065625" y="22.7925" style="stroke: #000000; stroke-width: 0.8"/>
      </g>
     </g>
     <g id="text_12">
      <!-- 100 -->
      <g transform="translate(21.679688 26.789375) scale(0.1 -0.1)">
       <use xlink:href="#MicrosoftJhengHeiRegular-31"/>
       <use xlink:href="#MicrosoftJhengHeiRegular-30" x="57.958984"/>
       <use xlink:href="#MicrosoftJhengHeiRegular-30" x="115.917969"/>
      </g>
     </g>
    </g>
    <g id="text_13">
     <!-- 累積百分比 (%) -->
     <g transform="translate(15.19375 308.791875) rotate(-90) scale(0.1 -0.1)">
      <defs>
       <path id="MicrosoftJhengHeiRegular-7d2f" d="M 5900 1088 
L 5672 863 
Q 5428 1166 5313 1281 
Q 4000 1156 3406 1113 
L 3406 172 
Q 3406 -119 3262 -223 
Q 3119 -328 2688 -328 
Q 2556 -328 2419 -319 
L 2291 25 
Q 2463 3 2716 3 
Q 2956 3 3014 45 
Q 3072 88 3072 172 
L 3072 1081 
Q 1841 1019 844 1019 
L 728 1325 
Q 1738 1513 3138 2119 
Q 2106 2016 1338 2009 
L 1247 2278 
Q 2072 2603 2747 3059 
L 1013 3059 
L 1013 5113 
L 5472 5113 
L 5472 3059 
L 3309 3059 
Q 2581 2547 1819 2259 
L 2353 2303 
L 3541 2422 
Q 3922 2466 4025 2509 
L 4603 2791 
L 4863 2591 
Q 2978 1647 1625 1288 
Q 3359 1356 5031 1544 
Q 4778 1784 4525 1966 
L 4756 2188 
Q 5384 1734 5900 1088 
z
M 5147 4238 
L 5147 4800 
L 3397 4800 
L 3397 4238 
L 5147 4238 
z
M 3066 4238 
L 3066 4800 
L 1338 4800 
L 1338 4238 
L 3066 4238 
z
M 5147 3372 
L 5147 3938 
L 3397 3938 
L 3397 3372 
L 5147 3372 
z
M 3066 3372 
L 3066 3938 
L 1338 3938 
L 1338 3372 
L 3066 3372 
z
M 6016 38 
L 5819 -225 
Q 5069 222 3938 588 
L 4122 850 
Q 5219 497 6016 38 
z
M 2541 634 
Q 1834 181 628 -147 
L 441 134 
Q 1606 434 2259 825 
L 2541 634 
z
" transform="scale(0.015625)"/>
       <path id="MicrosoftJhengHeiRegular-7a4d" d="M 6009 3238 
L 2484 3238 
L 2484 3513 
L 4097 3513 
L 4097 3909 
L 2772 3909 
L 2772 4184 
L 4097 4184 
L 4097 4556 
L 2619 4556 
L 2619 4831 
L 4097 4831 
L 4097 5288 
L 4416 5288 
L 4416 4831 
L 5863 4831 
L 5863 4556 
L 4416 4556 
L 4416 4184 
L 5703 4184 
L 5703 3909 
L 4416 3909 
L 4416 3513 
L 6009 3513 
L 6009 3238 
z
M 2528 2113 
L 2356 1825 
Q 2016 2281 1650 2619 
L 1650 -319 
L 1319 -319 
L 1319 2484 
Q 1019 1741 622 1184 
L 378 1416 
Q 906 2163 1319 3353 
L 441 3353 
L 441 3659 
L 1319 3659 
L 1319 4628 
Q 947 4528 641 4488 
L 481 4769 
Q 1656 5006 2188 5241 
L 2400 4984 
Q 2072 4838 1650 4722 
L 1650 3659 
L 2222 3659 
L 2222 3353 
L 1650 3353 
L 1650 3028 
Q 2234 2497 2528 2113 
z
M 5644 538 
L 3769 538 
L 3922 359 
Q 3150 -100 2425 -306 
L 2247 -31 
Q 3025 203 3609 538 
L 2834 538 
L 2834 2875 
L 5644 2875 
L 5644 538 
z
M 5325 2175 
L 5325 2578 
L 3150 2578 
L 3150 2175 
L 5325 2175 
z
M 5325 1497 
L 5325 1900 
L 3150 1900 
L 3150 1497 
L 5325 1497 
z
M 5325 819 
L 5325 1228 
L 3150 1228 
L 3150 819 
L 5325 819 
z
M 5997 -50 
L 5838 -331 
Q 5331 -94 4513 116 
L 4647 409 
Q 5513 172 5997 -50 
z
" transform="scale(0.015625)"/>
       <path id="MicrosoftJhengHeiRegular-767e" d="M 6028 4775 
L 3481 4775 
Q 3213 4175 2913 3647 
L 5422 3647 
L 5422 -331 
L 5088 -331 
L 5088 103 
L 1381 103 
L 1381 -331 
L 1044 -331 
L 1044 3647 
L 2522 3647 
Q 2891 4222 3097 4775 
L 481 4775 
L 481 5106 
L 6028 5106 
L 6028 4775 
z
M 5088 2113 
L 5088 3316 
L 1381 3316 
L 1381 2113 
L 5088 2113 
z
M 5088 447 
L 5088 1778 
L 1381 1778 
L 1381 447 
L 5088 447 
z
" transform="scale(0.015625)"/>
       <path id="MicrosoftJhengHeiRegular-5206" d="M 2688 5141 
Q 1919 3378 647 2503 
L 416 2766 
Q 1650 3591 2350 5241 
L 2688 5141 
z
M 6047 2809 
L 5819 2522 
Q 4553 3422 4063 4878 
L 3584 4878 
L 3584 5222 
L 4300 5222 
Q 4778 3628 6047 2809 
z
M 5013 2894 
Q 4997 1866 4890 1047 
Q 4784 228 4681 31 
Q 4578 -166 4395 -250 
Q 4213 -334 3759 -334 
Q 3563 -334 3250 -319 
L 3175 25 
Q 3525 -6 3822 -6 
Q 4109 -6 4192 31 
Q 4275 69 4336 139 
Q 4397 209 4472 557 
Q 4547 906 4592 1420 
Q 4638 1934 4653 2553 
L 3009 2553 
Q 2794 669 897 -409 
L 691 -141 
Q 2450 847 2644 2553 
L 1434 2553 
L 1434 2894 
L 5013 2894 
z
" transform="scale(0.015625)"/>
       <path id="MicrosoftJhengHeiRegular-6bd4" d="M 6009 1556 
Q 6009 1166 5948 714 
Q 5888 263 5820 131 
Q 5753 0 5609 -111 
Q 5466 -222 4983 -233 
Q 4500 -244 4366 -244 
Q 3959 -244 3787 -226 
Q 3616 -209 3497 -71 
Q 3378 66 3378 263 
L 3378 5275 
L 3719 5275 
L 3719 3391 
L 5791 3391 
L 5791 3053 
L 3719 3053 
L 3719 288 
Q 3719 184 3795 140 
Q 3872 97 4438 97 
Q 5050 97 5294 125 
Q 5538 153 5600 573 
Q 5663 994 5663 1663 
L 6009 1556 
z
M 3047 581 
Q 1769 -13 794 -347 
L 641 25 
Q 738 116 738 213 
L 738 5275 
L 1081 5275 
L 1081 3391 
L 2950 3391 
L 2950 3053 
L 1081 3053 
L 1081 128 
Q 1753 341 2950 922 
L 3047 581 
z
" transform="scale(0.015625)"/>
       <path id="MicrosoftJhengHeiRegular-25" d="M 266 3625 
Q 266 4219 580 4566 
Q 894 4913 1425 4913 
Q 1938 4913 2223 4589 
Q 2509 4266 2509 3694 
Q 2509 3125 2192 2770 
Q 1875 2416 1356 2416 
Q 856 2416 561 2748 
Q 266 3081 266 3625 
z
M 700 3656 
Q 700 3241 886 3008 
Q 1072 2775 1391 2775 
Q 1716 2775 1897 3014 
Q 2078 3253 2078 3678 
Q 2078 4097 1898 4328 
Q 1719 4559 1403 4559 
Q 1081 4559 890 4312 
Q 700 4066 700 3656 
z
M 4578 4841 
L 1478 -38 
L 1016 -38 
L 4116 4841 
L 4578 4841 
z
M 3144 1134 
Q 3144 1725 3456 2079 
Q 3769 2434 4297 2434 
Q 4806 2434 5093 2106 
Q 5381 1778 5381 1197 
Q 5381 625 5061 275 
Q 4741 -75 4231 -75 
Q 3741 -75 3442 256 
Q 3144 588 3144 1134 
z
M 3572 1163 
Q 3572 756 3761 522 
Q 3950 288 4263 288 
Q 4588 288 4769 530 
Q 4950 772 4950 1194 
Q 4950 1616 4772 1841 
Q 4594 2066 4278 2066 
Q 3947 2066 3759 1823 
Q 3572 1581 3572 1163 
z
" transform="scale(0.015625)"/>
      </defs>
      <use xlink:href="#MicrosoftJhengHeiRegular-7d2f"/>
      <use xlink:href="#MicrosoftJhengHeiRegular-7a4d" x="100"/>
      <use xlink:href="#MicrosoftJhengHeiRegular-767e" x="200"/>
      <use xlink:href="#MicrosoftJhengHeiRegular-5206" x="300"/>
      <use xlink:href="#MicrosoftJhengHeiRegular-6bd4" x="400"/>
      <use xlink:href="#MicrosoftJhengHeiRegular-20" x="500"/>
      <use xlink:href="#MicrosoftJhengHeiRegular-28" x="525"/>
      <use xlink:href="#MicrosoftJhengHeiRegular-25" x="557.080078"/>
      <use xlink:href="#MicrosoftJhengHeiRegular-29" x="645.117188"/>
     </g>
    </g>
   </g>
   <g id="line2d_23">
    <path d="M 51.497765 524.682547 
L 53.321162 522.292595 
L 53.321162 519.902642 
L 56.756106 517.51269 
L 73.827178 515.122737 
L 77.245621 512.732784 
L 81.655116 510.342832 
L 91.088579 507.952879 
L 99.519771 505.562927 
L 99.662637 503.172974 
L 100.783668 500.783021 
L 102.396879 498.393069 
L 102.396879 496.003116 
L 104.255258 493.613164 
L 104.255258 491.223211 
L 106.994027 488.833258 
L 112.570964 486.443306 
L 112.805169 484.053353 
L 115.572511 481.6634 
L 119.309897 479.273448 
L 120.119757 476.883495 
L 120.469903 474.493543 
L 125.216904 472.10359 
L 129.285015 469.713637 
L 146.008282 467.323685 
L 146.008282 464.933732 
L 147.317638 462.54378 
L 148.390277 457.763874 
L 148.61213 455.373922 
L 153.496501 452.983969 
L 153.921503 450.594017 
L 158.041556 448.204064 
L 161.100948 445.814111 
L 162.873822 443.424159 
L 164.434194 441.034206 
L 165.383699 438.644254 
L 166.854813 436.254301 
L 175.856282 433.864348 
L 175.856282 431.474396 
L 176.443731 429.084443 
L 178.227941 426.694491 
L 179.592301 424.304538 
L 180.32862 421.914585 
L 183.168877 419.524633 
L 191.562232 417.13468 
L 192.465893 414.744727 
L 194.810777 412.354775 
L 210.320951 409.964822 
L 216.305016 407.57487 
L 226.955479 405.184917 
L 227.795668 402.794964 
L 233.051293 400.405012 
L 241.730529 398.015059 
L 245.433277 395.625107 
L 245.597046 393.235154 
L 247.593309 390.845201 
L 247.843544 388.455249 
L 250.336951 386.065296 
L 263.42382 383.675344 
L 263.42382 381.285391 
L 267.314716 378.895438 
L 273.09903 376.505486 
L 273.128903 374.115533 
L 281.639409 371.725581 
L 281.799625 369.335628 
L 281.823303 364.555723 
L 286.126044 362.16577 
L 288.280827 359.775818 
L 288.280827 357.385865 
L 290.826816 354.995912 
L 293.631186 352.60596 
L 294.693638 350.216007 
L 296.639713 347.826055 
L 300.676472 345.436102 
L 300.692633 343.046149 
L 301.844522 338.266244 
L 303.02165 335.876291 
L 307.905767 333.486339 
L 308.561195 331.096386 
L 310.554488 328.706434 
L 313.243813 326.316481 
L 313.274599 323.926528 
L 315.716118 321.536576 
L 317.316567 319.146623 
L 317.580504 316.756671 
L 318.881996 314.366718 
L 320.383163 311.976765 
L 320.902939 309.586813 
L 320.921094 304.806908 
L 323.029776 302.416955 
L 323.065133 300.027002 
L 323.491562 297.63705 
L 324.093402 295.247097 
L 326.371881 292.857145 
L 330.223223 290.467192 
L 331.018923 288.077239 
L 331.618945 285.687287 
L 332.053398 283.297334 
L 334.040846 280.907382 
L 335.75128 278.517429 
L 335.945678 276.127476 
L 336.295318 273.737524 
L 336.77622 271.347571 
L 337.518918 268.957618 
L 341.170976 266.567666 
L 347.855788 264.177713 
L 348.204585 261.787761 
L 357.16705 259.397808 
L 360.30806 257.007855 
L 360.30806 254.617903 
L 360.470726 252.22795 
L 370.039755 249.837998 
L 370.302396 247.448045 
L 374.474667 245.058092 
L 374.56277 242.66814 
L 377.776175 240.278187 
L 377.928545 237.888235 
L 378.96518 235.498282 
L 380.863776 233.108329 
L 381.213949 230.718377 
L 382.368537 228.328424 
L 384.841319 225.938472 
L 386.394051 223.548519 
L 387.378791 221.158566 
L 387.633542 218.768614 
L 388.949251 216.378661 
L 388.99804 213.988709 
L 392.071354 211.598756 
L 393.596062 209.208803 
L 394.604644 206.818851 
L 395.378251 204.428898 
L 395.452374 202.038945 
L 398.889041 199.648993 
L 400.825388 197.25904 
L 401.052971 194.869088 
L 404.748176 192.479135 
L 406.246783 190.089182 
L 406.246853 187.69923 
L 409.993645 185.309277 
L 412.020933 182.919325 
L 412.774617 180.529372 
L 412.806747 178.139419 
L 416.166942 175.749467 
L 416.749831 173.359514 
L 418.523371 170.969562 
L 418.531354 168.579609 
L 426.9351 166.189656 
L 427.239859 163.799704 
L 433.861807 161.409751 
L 439.779673 159.019799 
L 441.074195 156.629846 
L 448.707271 154.239893 
L 460.341061 151.849941 
L 463.482023 149.459988 
L 465.932852 147.070036 
L 467.091918 144.680083 
L 477.937113 139.900178 
L 479.043501 137.510225 
L 480.29365 135.120273 
L 486.605729 132.73032 
L 495.457984 130.340367 
L 511.136147 127.950415 
L 511.940888 125.560462 
L 517.352391 123.170509 
L 530.255677 120.780557 
L 537.24164 118.390604 
L 552.146542 116.000652 
L 556.478422 113.610699 
L 559.479242 111.220746 
L 563.679895 108.830794 
L 565.452086 106.440841 
L 565.560654 104.050889 
L 570.22169 101.660936 
L 581.433171 99.270983 
L 591.2606 96.881031 
L 600.470236 94.491078 
L 602.236938 92.101126 
L 604.168985 89.711173 
L 605.784982 87.32122 
L 610.803035 84.931268 
L 611.917394 82.541315 
L 614.239191 80.151363 
L 614.408539 77.76141 
L 616.3987 75.371457 
L 617.858501 72.981505 
L 620.01373 70.591552 
L 625.703333 68.2016 
L 627.774306 65.811647 
L 627.774306 63.421694 
L 630.157331 61.031742 
L 640.53498 58.641789 
L 647.672377 56.251836 
L 648.891715 53.861884 
L 653.779488 51.471931 
L 675.466309 49.081979 
L 677.445646 46.692026 
L 690.643828 44.302073 
L 721.802365 41.912121 
L 743.098123 39.522168 
L 750.911695 37.132216 
L 757.310088 34.742263 
L 761.752613 32.35231 
L 778.174264 29.962358 
L 778.174275 27.572405 
L 798.774917 25.182453 
L 798.774917 22.7925 
L 798.774917 22.7925 
" clip-path="url(#p99d36696c5)" style="fill: none; stroke: #1f77b4; stroke-width: 2; stroke-linecap: square"/>
   </g>
   <g id="line2d_24">
    <path d="M 71.263967 524.682547 
L 79.406896 522.292595 
L 82.323209 519.902642 
L 82.585767 517.51269 
L 83.497737 515.122737 
L 83.497737 512.732784 
L 98.206449 510.342832 
L 100.973086 507.952879 
L 100.973086 505.562927 
L 108.258449 503.172974 
L 118.552378 500.783021 
L 121.19546 498.393069 
L 122.566621 496.003116 
L 123.402467 493.613164 
L 124.558207 491.223211 
L 125.492573 488.833258 
L 127.776111 486.443306 
L 130.495853 484.053353 
L 134.665869 481.6634 
L 140.259674 479.273448 
L 148.23801 476.883495 
L 148.900506 474.493543 
L 148.941033 472.10359 
L 149.870452 469.713637 
L 149.977229 467.323685 
L 150.410017 464.933732 
L 150.456413 462.54378 
L 155.140966 460.153827 
L 155.68066 457.763874 
L 157.28626 452.983969 
L 162.187548 450.594017 
L 167.988723 448.204064 
L 170.79066 445.814111 
L 171.03382 443.424159 
L 174.722929 441.034206 
L 174.992619 438.644254 
L 176.883172 436.254301 
L 176.883172 433.864348 
L 178.217431 431.474396 
L 178.248426 429.084443 
L 178.530923 426.694491 
L 179.397601 424.304538 
L 182.16424 421.914585 
L 182.834302 419.524633 
L 185.121868 417.13468 
L 186.246119 414.744727 
L 189.799706 412.354775 
L 191.467246 407.57487 
L 191.555786 405.184917 
L 192.097969 402.794964 
L 193.929561 400.405012 
L 194.176109 398.015059 
L 197.656191 395.625107 
L 197.66553 393.235154 
L 199.836454 390.845201 
L 202.819899 388.455249 
L 202.819899 386.065296 
L 205.412094 383.675344 
L 206.050032 381.285391 
L 207.341012 378.895438 
L 208.297133 374.115533 
L 212.478447 371.725581 
L 213.907579 366.945675 
L 217.128466 364.555723 
L 217.128466 362.16577 
L 220.365733 359.775818 
L 221.695596 357.385865 
L 224.768081 354.995912 
L 225.377573 352.60596 
L 228.84175 350.216007 
L 229.030085 347.826055 
L 231.441934 345.436102 
L 233.061589 343.046149 
L 237.939175 340.656197 
L 238.585527 338.266244 
L 240.039138 335.876291 
L 240.727932 333.486339 
L 242.323303 331.096386 
L 242.753355 326.316481 
L 243.257421 323.926528 
L 243.890803 321.536576 
L 245.245796 319.146623 
L 247.515839 316.756671 
L 247.527932 314.366718 
L 248.845836 311.976765 
L 251.546882 309.586813 
L 252.214079 307.19686 
L 252.758307 304.806908 
L 255.369934 302.416955 
L 255.807535 300.027002 
L 257.596957 295.247097 
L 257.596957 292.857145 
L 258.062192 290.467192 
L 260.579506 288.077239 
L 264.732052 285.687287 
L 264.732052 283.297334 
L 267.521434 280.907382 
L 267.805563 278.517429 
L 267.940899 273.737524 
L 269.634394 271.347571 
L 270.439318 266.567666 
L 271.113572 264.177713 
L 272.966951 261.787761 
L 274.017814 259.397808 
L 274.234354 257.007855 
L 274.719624 254.617903 
L 274.961407 252.22795 
L 275.717387 249.837998 
L 275.749419 247.448045 
L 276.834601 245.058092 
L 279.433963 242.66814 
L 279.66272 237.888235 
L 282.602245 235.498282 
L 282.771737 233.108329 
L 283.664289 228.328424 
L 283.664289 225.938472 
L 283.816645 223.548519 
L 285.244433 221.158566 
L 285.244433 218.768614 
L 287.653932 216.378661 
L 288.42135 213.988709 
L 289.956731 211.598756 
L 289.956731 209.208803 
L 296.853186 206.818851 
L 298.769949 204.428898 
L 300.994965 202.038945 
L 308.036024 199.648993 
L 309.684048 197.25904 
L 309.887158 194.869088 
L 310.53524 192.479135 
L 311.895428 190.089182 
L 316.389642 187.69923 
L 318.380767 185.309277 
L 319.181598 182.919325 
L 319.25694 180.529372 
L 321.288817 178.139419 
L 321.687971 175.749467 
L 321.687976 173.359514 
L 331.951565 168.579609 
L 332.031177 166.189656 
L 333.99867 163.799704 
L 336.458893 161.409751 
L 336.977573 159.019799 
L 338.372408 156.629846 
L 338.946307 154.239893 
L 339.671065 151.849941 
L 342.929362 149.459988 
L 343.219617 147.070036 
L 345.718134 144.680083 
L 348.733527 142.29013 
L 349.135845 139.900178 
L 349.969716 137.510225 
L 350.282718 135.120273 
L 351.575516 130.340367 
L 358.188171 127.950415 
L 359.785454 125.560462 
L 360.38441 120.780557 
L 365.121868 118.390604 
L 369.296877 116.000652 
L 371.644833 113.610699 
L 378.298709 111.220746 
L 380.574501 108.830794 
L 381.097114 106.440841 
L 381.500304 104.050889 
L 387.536918 101.660936 
L 392.715419 99.270983 
L 397.411974 96.881031 
L 397.848964 94.491078 
L 404.003144 92.101126 
L 405.118138 89.711173 
L 407.794251 87.32122 
L 411.878078 84.931268 
L 416.5174 82.541315 
L 416.768459 80.151363 
L 420.537139 77.76141 
L 420.736798 75.371457 
L 422.373076 72.981505 
L 426.106705 70.591552 
L 434.934488 68.2016 
L 441.903069 65.811647 
L 447.695519 63.421694 
L 447.695519 61.031742 
L 448.952633 58.641789 
L 456.784886 56.251836 
L 461.190954 53.861884 
L 462.93626 51.471931 
L 467.049397 49.081979 
L 488.061509 46.692026 
L 488.557816 44.302073 
L 538.837812 41.912121 
L 543.834227 39.522168 
L 546.589348 37.132216 
L 548.759391 34.742263 
L 557.484369 32.35231 
L 571.107237 29.962358 
L 571.107248 27.572405 
L 592.724866 25.182453 
L 592.724866 22.7925 
L 592.724866 22.7925 
" clip-path="url(#p99d36696c5)" style="fill: none; stroke: #ff7f0e; stroke-width: 2; stroke-linecap: square"/>
   </g>
   <g id="line2d_25">
    <path d="M 50.360753 524.682547 
L 64.951818 522.292595 
L 67.513379 519.902642 
L 67.513379 517.51269 
L 71.412884 515.122737 
L 71.623519 512.732784 
L 82.287425 510.342832 
L 87.183358 507.952879 
L 87.183358 505.562927 
L 89.614499 503.172974 
L 98.160729 500.783021 
L 102.780852 498.393069 
L 106.09138 496.003116 
L 110.986883 493.613164 
L 114.22689 491.223211 
L 117.017949 488.833258 
L 121.68021 486.443306 
L 122.086313 484.053353 
L 122.092815 481.6634 
L 125.731151 479.273448 
L 128.764241 476.883495 
L 133.098834 472.10359 
L 133.61261 469.713637 
L 134.273797 467.323685 
L 135.979204 464.933732 
L 136.805823 462.54378 
L 139.966056 460.153827 
L 140.633739 457.763874 
L 140.955687 455.373922 
L 142.781398 450.594017 
L 142.877848 448.204064 
L 144.182064 445.814111 
L 147.257486 443.424159 
L 150.973168 441.034206 
L 152.609336 438.644254 
L 153.072442 436.254301 
L 153.221153 433.864348 
L 155.246288 431.474396 
L 155.246288 429.084443 
L 157.674225 426.694491 
L 157.747153 424.304538 
L 159.802543 421.914585 
L 165.248003 419.524633 
L 166.538456 417.13468 
L 169.768504 414.744727 
L 174.397512 412.354775 
L 174.836511 409.964822 
L 177.777269 407.57487 
L 184.110891 402.794964 
L 190.827492 400.405012 
L 191.953627 398.015059 
L 194.093348 395.625107 
L 200.44872 393.235154 
L 203.837854 390.845201 
L 205.956648 388.455249 
L 207.481366 386.065296 
L 209.359803 383.675344 
L 210.595825 381.285391 
L 213.892197 378.895438 
L 219.985698 376.505486 
L 220.402851 374.115533 
L 220.463498 371.725581 
L 221.536251 369.335628 
L 222.918516 366.945675 
L 222.951936 364.555723 
L 224.042043 362.16577 
L 225.485899 359.775818 
L 225.914066 357.385865 
L 227.372125 354.995912 
L 227.372125 352.60596 
L 230.358484 350.216007 
L 235.598843 345.436102 
L 236.415541 343.046149 
L 236.971506 340.656197 
L 238.744901 338.266244 
L 241.334241 335.876291 
L 241.472094 333.486339 
L 243.271664 331.096386 
L 244.425654 328.706434 
L 244.721252 326.316481 
L 244.750356 323.926528 
L 245.713317 321.536576 
L 245.917178 319.146623 
L 248.207152 316.756671 
L 249.421935 314.366718 
L 249.860407 311.976765 
L 250.529549 309.586813 
L 250.529549 307.19686 
L 252.673314 304.806908 
L 254.305727 302.416955 
L 254.990552 300.027002 
L 257.554792 297.63705 
L 259.185556 295.247097 
L 263.742242 292.857145 
L 264.934674 290.467192 
L 272.169813 288.077239 
L 273.137164 285.687287 
L 273.23092 283.297334 
L 275.679907 280.907382 
L 276.335516 278.517429 
L 276.693262 276.127476 
L 278.602167 273.737524 
L 280.847448 271.347571 
L 282.396485 268.957618 
L 282.795323 266.567666 
L 286.04447 264.177713 
L 287.941362 261.787761 
L 287.941362 259.397808 
L 289.836787 257.007855 
L 292.335546 254.617903 
L 295.304936 252.22795 
L 295.370991 247.448045 
L 297.412933 245.058092 
L 297.412933 242.66814 
L 298.574391 240.278187 
L 298.583599 237.888235 
L 300.191725 233.108329 
L 300.229411 230.718377 
L 301.183668 228.328424 
L 302.838082 225.938472 
L 303.416719 223.548519 
L 303.487725 221.158566 
L 304.548614 218.768614 
L 304.842561 216.378661 
L 304.869788 211.598756 
L 308.251978 209.208803 
L 308.707741 206.818851 
L 310.411679 204.428898 
L 311.24242 202.038945 
L 311.437658 199.648993 
L 312.371651 197.25904 
L 312.778777 194.869088 
L 312.831803 192.479135 
L 317.742605 190.089182 
L 317.930698 187.69923 
L 317.930698 185.309277 
L 321.615321 180.529372 
L 323.195212 178.139419 
L 324.086018 175.749467 
L 328.949449 173.359514 
L 328.949454 170.969562 
L 330.53575 168.579609 
L 330.825004 166.189656 
L 331.001042 163.799704 
L 332.136926 161.409751 
L 332.716247 156.629846 
L 334.5307 154.239893 
L 335.776378 151.849941 
L 339.790384 149.459988 
L 339.916474 147.070036 
L 342.198275 144.680083 
L 344.870696 142.29013 
L 346.628232 139.900178 
L 346.644928 137.510225 
L 350.60732 135.120273 
L 351.075145 132.73032 
L 351.780736 130.340367 
L 354.03571 127.950415 
L 355.355756 125.560462 
L 357.732089 123.170509 
L 363.978813 120.780557 
L 366.641215 118.390604 
L 368.4296 116.000652 
L 368.519793 113.610699 
L 369.842114 111.220746 
L 371.994927 106.440841 
L 373.807297 104.050889 
L 376.991333 101.660936 
L 377.070158 99.270983 
L 383.190123 94.491078 
L 385.681684 92.101126 
L 387.173082 89.711173 
L 387.382345 87.32122 
L 388.25723 84.931268 
L 388.449558 82.541315 
L 393.141895 80.151363 
L 396.904623 77.76141 
L 401.491092 75.371457 
L 402.349517 70.591552 
L 405.922705 68.2016 
L 419.803001 65.811647 
L 419.803001 63.421694 
L 420.846612 61.031742 
L 423.574622 58.641789 
L 423.602423 56.251836 
L 426.919795 53.861884 
L 429.645109 51.471931 
L 431.85351 49.081979 
L 456.776654 46.692026 
L 458.635772 44.302073 
L 511.278089 41.912121 
L 515.164807 39.522168 
L 515.246706 37.132216 
L 516.020239 34.742263 
L 525.270552 32.35231 
L 538.522241 29.962358 
L 538.522241 27.572405 
L 560.24086 25.182453 
L 560.24086 22.7925 
L 560.24086 22.7925 
" clip-path="url(#p99d36696c5)" style="fill: none; stroke: #2ca02c; stroke-width: 2; stroke-linecap: square"/>
   </g>
   <g id="line2d_26">
    <path d="M 213.562871 527.0725 
L 213.562871 22.7925 
" clip-path="url(#p99d36696c5)" style="fill: none; stroke-dasharray: 5.55,2.4; stroke-dashoffset: 0; stroke: #808080; stroke-opacity: 0.5; stroke-width: 1.5"/>
   </g>
   <g id="line2d_27">
    <path d="M 381.060117 527.0725 
L 381.060117 22.7925 
" clip-path="url(#p99d36696c5)" style="fill: none; stroke-dasharray: 5.55,2.4; stroke-dashoffset: 0; stroke: #808080; stroke-opacity: 0.5; stroke-width: 1.5"/>
   </g>
   <g id="line2d_28">
    <path d="M 548.557364 527.0725 
L 548.557364 22.7925 
" clip-path="url(#p99d36696c5)" style="fill: none; stroke-dasharray: 5.55,2.4; stroke-dashoffset: 0; stroke: #808080; stroke-opacity: 0.5; stroke-width: 1.5"/>
   </g>
   <g id="patch_3">
    <path d="M 46.065625 527.0725 
L 46.065625 22.7925 
" style="fill: none; stroke: #000000; stroke-width: 0.8; stroke-linejoin: miter; stroke-linecap: square"/>
   </g>
   <g id="patch_4">
    <path d="M 836.195625 527.0725 
L 836.195625 22.7925 
" style="fill: none; stroke: #000000; stroke-width: 0.8; stroke-linejoin: miter; stroke-linecap: square"/>
   </g>
   <g id="patch_5">
    <path d="M 46.065625 527.0725 
L 836.195625 527.0725 
" style="fill: none; stroke: #000000; stroke-width: 0.8; stroke-linejoin: miter; stroke-linecap: square"/>
   </g>
   <g id="patch_6">
    <path d="M 46.065625 22.7925 
L 836.195625 22.7925 
" style="fill: none; stroke: #000000; stroke-width: 0.8; stroke-linejoin: miter; stroke-linecap: square"/>
   </g>
   <g id="text_14">
    <!-- 1.0m -->
    <g transform="translate(211.325527 501.8585) rotate(-90) scale(0.09 -0.09)">
     <defs>
      <path id="MicrosoftJhengHeiRegular-2e" d="M 375 291 
Q 375 444 484 551 
Q 594 659 738 659 
Q 888 659 994 551 
Q 1100 444 1100 291 
Q 1100 141 992 33 
Q 884 -75 738 -75 
Q 594 -75 484 29 
Q 375 134 375 291 
z
" transform="scale(0.015625)"/>
      <path id="MicrosoftJhengHeiRegular-6d" d="M 5438 0 
L 4916 0 
L 4916 1984 
Q 4916 2588 4733 2841 
Q 4550 3094 4128 3094 
Q 3775 3094 3519 2762 
Q 3263 2431 3263 1975 
L 3263 0 
L 2744 0 
L 2744 2056 
Q 2744 3094 1941 3094 
Q 1572 3094 1330 2778 
Q 1088 2463 1088 1975 
L 1088 0 
L 566 0 
L 566 3456 
L 1088 3456 
L 1088 2909 
L 1103 2909 
Q 1466 3538 2172 3538 
Q 2509 3538 2779 3339 
Q 3050 3141 3147 2816 
Q 3531 3538 4297 3538 
Q 5438 3538 5438 2128 
L 5438 0 
z
" transform="scale(0.015625)"/>
     </defs>
     <use xlink:href="#MicrosoftJhengHeiRegular-31"/>
     <use xlink:href="#MicrosoftJhengHeiRegular-2e" x="57.958984"/>
     <use xlink:href="#MicrosoftJhengHeiRegular-30" x="81.005859"/>
     <use xlink:href="#MicrosoftJhengHeiRegular-6d" x="138.964844"/>
    </g>
   </g>
   <g id="text_15">
    <!-- 2.0m -->
    <g transform="translate(378.822774 501.8585) rotate(-90) scale(0.09 -0.09)">
     <use xlink:href="#MicrosoftJhengHeiRegular-32"/>
     <use xlink:href="#MicrosoftJhengHeiRegular-2e" x="57.958984"/>
     <use xlink:href="#MicrosoftJhengHeiRegular-30" x="81.005859"/>
     <use xlink:href="#MicrosoftJhengHeiRegular-6d" x="138.964844"/>
    </g>
   </g>
   <g id="text_16">
    <!-- 3.0m -->
    <g transform="translate(546.32002 501.8585) rotate(-90) scale(0.09 -0.09)">
     <use xlink:href="#MicrosoftJhengHeiRegular-33"/>
     <use xlink:href="#MicrosoftJhengHeiRegular-2e" x="57.958984"/>
     <use xlink:href="#MicrosoftJhengHeiRegular-30" x="81.005859"/>
     <use xlink:href="#MicrosoftJhengHeiRegular-6d" x="138.964844"/>
    </g>
   </g>
   <g id="text_17">
    <!-- 位置預測誤差累積分布函數 - 高斯雜訊 10dB -->
    <g transform="translate(323.598125 16.7925) scale(0.12 -0.12)">
     <defs>
      <path id="MicrosoftJhengHeiRegular-5e03" d="M 6022 4500 
L 6016 4159 
L 2925 4159 
Q 2453 3316 1931 2772 
L 3366 2772 
L 3366 3653 
L 3713 3653 
L 3713 2772 
L 5588 2772 
L 5588 544 
Q 5588 31 5044 31 
Q 4609 31 4481 38 
L 4353 403 
Q 4766 381 4956 381 
Q 5150 381 5198 412 
Q 5247 444 5247 513 
L 5247 2425 
L 3713 2425 
L 3713 -347 
L 3366 -347 
L 3366 2425 
L 1913 2425 
L 1913 31 
L 1556 31 
L 1556 2413 
Q 984 1956 691 1759 
L 459 2034 
Q 1797 2859 2522 4159 
L 453 4159 
L 453 4500 
L 2700 4500 
Q 2847 4784 3028 5325 
L 3366 5247 
Q 3250 4866 3084 4500 
L 6022 4500 
z
" transform="scale(0.015625)"/>
      <path id="MicrosoftJhengHeiRegular-51fd" d="M 4916 4800 
Q 4416 4303 3438 3578 
L 3438 1119 
Q 3438 834 3302 721 
Q 3166 609 2809 609 
Q 2666 609 2509 622 
L 2375 972 
Q 2566 956 2741 956 
Q 3000 956 3054 987 
Q 3109 1019 3109 1113 
L 3109 3769 
Q 3834 4250 4422 4800 
L 1600 4800 
L 1600 5125 
L 4916 5125 
L 4916 4800 
z
M 5709 -313 
L 5381 -313 
L 5381 -13 
L 738 -13 
L 738 4109 
L 1063 4109 
L 1063 306 
L 5381 306 
L 5381 4103 
L 5709 4103 
L 5709 -313 
z
M 2731 2994 
L 2484 2772 
Q 2044 3278 1528 3609 
L 1778 3834 
Q 2275 3522 2731 2994 
z
M 5113 3553 
Q 4609 3059 4044 2713 
L 3828 2975 
Q 4441 3356 4884 3781 
L 5113 3553 
z
M 5069 1331 
L 4831 1094 
Q 4297 1713 3756 2138 
L 3994 2381 
Q 4628 1881 5069 1331 
z
M 2784 2075 
Q 2184 1453 1600 1106 
L 1403 1375 
Q 1988 1697 2559 2322 
L 2784 2075 
z
" transform="scale(0.015625)"/>
      <path id="MicrosoftJhengHeiRegular-6578" d="M 6000 3928 
L 5706 3928 
Q 5641 1925 5031 834 
Q 5369 344 5988 -81 
L 5800 -344 
Q 5184 41 4816 563 
Q 4359 53 3719 -344 
L 3525 -81 
Q 4228 369 4625 841 
Q 4188 1703 4091 2634 
L 4391 2738 
Q 4563 1675 4841 1150 
Q 5134 1669 5266 2466 
Q 5356 3009 5397 3928 
L 4525 3928 
Q 4219 3150 3831 2666 
L 3578 2853 
Q 4194 3653 4563 5291 
L 4872 5234 
Q 4806 4831 4625 4244 
L 6000 4244 
L 6000 3928 
z
M 3863 3947 
L 3428 3947 
L 3428 3216 
L 2322 3216 
L 2322 2838 
L 3431 2838 
L 3431 1856 
L 2306 1856 
Q 2128 1569 1978 1378 
L 2759 1378 
Q 2813 1469 2853 1606 
L 3172 1528 
Q 3159 1447 3128 1378 
L 3806 1378 
L 3806 1094 
L 2997 1094 
Q 2766 650 2416 375 
Q 2963 128 3338 -81 
L 3128 -319 
Q 2663 -56 2125 166 
Q 1525 -203 603 -319 
L 484 -16 
Q 1294 88 1753 319 
Q 1278 519 900 634 
Q 1069 813 1313 1094 
L 428 1094 
L 428 1378 
L 1559 1378 
Q 1756 1628 1906 1856 
L 881 1856 
L 881 2838 
L 2006 2838 
L 2006 3216 
L 881 3216 
L 881 3947 
L 428 3947 
L 428 4244 
L 881 4244 
L 881 4919 
L 2006 4919 
L 2006 5266 
L 2322 5266 
L 2322 4919 
L 3428 4919 
L 3428 4244 
L 3863 4244 
L 3863 3947 
z
M 3113 4244 
L 3113 4641 
L 2322 4641 
L 2322 4244 
L 3113 4244 
z
M 3113 3506 
L 3113 3947 
L 2322 3947 
L 2322 3506 
L 3113 3506 
z
M 2006 4244 
L 2006 4641 
L 1200 4641 
L 1200 4244 
L 2006 4244 
z
M 2006 3506 
L 2006 3947 
L 1200 3947 
L 1200 3506 
L 2006 3506 
z
M 3113 2147 
L 3113 2547 
L 2322 2547 
L 2322 2147 
L 3113 2147 
z
M 2006 2147 
L 2006 2547 
L 1203 2547 
L 1203 2147 
L 2006 2147 
z
M 2606 1094 
L 1744 1094 
Q 1672 1000 1463 753 
Q 1738 669 2072 531 
Q 2388 731 2606 1094 
z
" transform="scale(0.015625)"/>
      <path id="MicrosoftJhengHeiRegular-2d" d="M 2328 1722 
L 488 1722 
L 488 2138 
L 2328 2138 
L 2328 1722 
z
" transform="scale(0.015625)"/>
      <path id="MicrosoftJhengHeiRegular-9ad8" d="M 5913 4391 
L 525 4391 
L 525 4697 
L 3059 4697 
Q 3034 4881 2875 5209 
L 3200 5313 
Q 3309 5094 3406 4697 
L 5913 4697 
L 5913 4391 
z
M 5013 2766 
L 1428 2766 
L 1428 3981 
L 5013 3981 
L 5013 2766 
z
M 4659 3078 
L 4659 3659 
L 1772 3659 
L 1772 3078 
L 4659 3078 
z
M 5638 178 
Q 5638 -47 5522 -184 
Q 5406 -322 4966 -322 
Q 4822 -322 4616 -313 
L 4506 19 
Q 4894 3 5025 3 
Q 5306 3 5306 238 
L 5306 2016 
L 1147 2016 
L 1147 -319 
L 819 -319 
L 819 2338 
L 5638 2338 
L 5638 178 
z
M 4531 331 
L 1906 331 
L 1906 1581 
L 4531 1581 
L 4531 331 
z
M 4191 641 
L 4191 1269 
L 2253 1269 
L 2253 641 
L 4191 641 
z
" transform="scale(0.015625)"/>
      <path id="MicrosoftJhengHeiRegular-65af" d="M 3450 4238 
L 2994 4238 
L 2994 1606 
L 3438 1606 
L 3438 1294 
L 441 1294 
L 441 1606 
L 997 1606 
L 997 4238 
L 538 4238 
L 538 4544 
L 997 4544 
L 997 5275 
L 1319 5275 
L 1319 4544 
L 2669 4544 
L 2669 5275 
L 2994 5275 
L 2994 4544 
L 3450 4544 
L 3450 4238 
z
M 2669 3616 
L 2669 4238 
L 1319 4238 
L 1319 3616 
L 2669 3616 
z
M 2669 2625 
L 2669 3291 
L 1319 3291 
L 1319 2625 
L 2669 2625 
z
M 2669 1606 
L 2669 2303 
L 1319 2303 
L 1319 1606 
L 2669 1606 
z
M 5997 2925 
L 5288 2925 
L 5288 -319 
L 4959 -319 
L 4959 2925 
L 4097 2925 
Q 4131 794 3366 -325 
L 3059 -147 
Q 3788 891 3788 2741 
L 3788 4744 
Q 4863 4875 5716 5259 
L 5919 4991 
Q 5075 4622 4109 4475 
L 4109 3244 
L 5997 3244 
L 5997 2925 
z
M 1650 891 
Q 1200 169 697 -300 
L 416 -56 
Q 931 334 1375 1081 
L 1650 891 
z
M 3009 250 
L 2725 72 
Q 2559 450 2188 884 
L 2450 1050 
Q 2825 631 3009 250 
z
" transform="scale(0.015625)"/>
      <path id="MicrosoftJhengHeiRegular-96dc" d="M 6003 -44 
L 3922 -44 
L 3922 -319 
L 3609 -319 
L 3609 3284 
Q 3522 3109 3372 2900 
L 3156 3156 
Q 3769 4122 4025 5319 
L 4325 5209 
Q 4228 4763 4013 4159 
L 4959 4159 
Q 4822 4647 4641 5094 
L 4947 5216 
Q 5119 4759 5281 4159 
L 5919 4159 
L 5919 3853 
L 5119 3853 
L 5119 2913 
L 5900 2913 
L 5900 2613 
L 5119 2613 
L 5119 1613 
L 5900 1613 
L 5900 1313 
L 5119 1313 
L 5119 275 
L 6003 275 
L 6003 -44 
z
M 4800 2913 
L 4800 3853 
L 3922 3853 
L 3922 2913 
L 4800 2913 
z
M 4800 1613 
L 4800 2613 
L 3922 2613 
L 3922 1613 
L 4800 1613 
z
M 4800 275 
L 4800 1313 
L 3922 1313 
L 3922 275 
L 4800 275 
z
M 3256 4416 
L 525 4416 
L 525 4716 
L 1778 4716 
Q 1716 4856 1538 5172 
L 1825 5313 
Q 1981 5056 2113 4716 
L 3256 4716 
L 3256 4416 
z
M 1753 3244 
L 1575 2981 
Q 1356 3228 1228 3316 
Q 975 2838 728 2572 
L 481 2753 
Q 1003 3350 1241 4231 
L 1538 4134 
Q 1481 3897 1356 3603 
Q 1591 3416 1753 3244 
z
M 3072 2944 
L 2859 2688 
Q 2572 3097 2369 3297 
Q 2247 3034 1972 2644 
L 1709 2803 
Q 2134 3381 2400 4225 
L 2688 4134 
Q 2613 3897 2491 3578 
Q 2809 3294 3072 2944 
z
M 3256 1747 
L 2053 1747 
L 2053 1472 
Q 2797 981 3181 609 
L 2975 331 
Q 2456 856 2053 1113 
L 2053 -319 
L 1734 -319 
L 1734 1241 
Q 1272 681 609 178 
L 403 434 
Q 1319 1106 1703 1747 
L 441 1747 
L 441 2059 
L 1734 2059 
L 1734 2463 
L 2053 2463 
L 2053 2059 
L 3256 2059 
L 3256 1747 
z
" transform="scale(0.015625)"/>
      <path id="MicrosoftJhengHeiRegular-8a0a" d="M 2541 4300 
L 416 4300 
L 416 4616 
L 1409 4616 
Q 1322 4853 1131 5191 
L 1422 5331 
Q 1613 4994 1753 4616 
L 2541 4616 
L 2541 4300 
z
M 6181 1119 
Q 6113 506 5942 106 
Q 5772 -294 5556 -294 
Q 5222 -294 5100 376 
Q 4978 1047 4978 1491 
L 4978 4788 
L 3700 4788 
L 3700 2778 
L 4709 2778 
L 4709 2472 
L 3700 2472 
L 3700 -341 
L 3366 -341 
L 3366 2472 
L 2625 2472 
L 2625 2778 
L 3366 2778 
L 3366 4788 
L 2675 4788 
L 2675 5094 
L 5306 5094 
L 5306 1716 
Q 5306 891 5404 475 
Q 5503 59 5547 59 
Q 5591 59 5709 465 
Q 5828 872 5869 1300 
L 6181 1119 
z
M 2356 3366 
L 569 3366 
L 569 3681 
L 2356 3681 
L 2356 3366 
z
M 2338 2450 
L 569 2450 
L 569 2753 
L 2338 2753 
L 2338 2450 
z
M 2338 -225 
L 1997 -225 
L 1997 159 
L 959 159 
L 959 -325 
L 622 -325 
L 622 1819 
L 2338 1819 
L 2338 -225 
z
M 1997 469 
L 1997 1503 
L 959 1503 
L 959 469 
L 1997 469 
z
" transform="scale(0.015625)"/>
      <path id="MicrosoftJhengHeiRegular-64" d="M 3488 0 
L 2969 0 
L 2969 594 
L 2956 594 
Q 2572 -81 1763 -81 
Q 1106 -81 718 386 
Q 331 853 331 1647 
Q 331 2497 765 3017 
Q 1200 3538 1913 3538 
Q 2625 3538 2956 2972 
L 2969 2972 
L 2969 5116 
L 3488 5116 
L 3488 0 
z
M 2969 2081 
Q 2969 2506 2680 2800 
Q 2391 3094 1972 3094 
Q 1453 3094 1158 2711 
Q 863 2328 863 1675 
Q 863 1078 1145 720 
Q 1428 363 1906 363 
Q 2366 363 2667 698 
Q 2969 1034 2969 1556 
L 2969 2081 
z
" transform="scale(0.015625)"/>
      <path id="MicrosoftJhengHeiRegular-42" d="M 641 0 
L 641 4841 
L 1994 4841 
Q 2597 4841 2965 4537 
Q 3334 4234 3334 3734 
Q 3334 3328 3117 3022 
Q 2900 2716 2503 2581 
L 2503 2569 
Q 2988 2522 3283 2206 
Q 3578 1891 3578 1388 
Q 3578 772 3136 386 
Q 2694 0 2019 0 
L 641 0 
z
M 1172 4347 
L 1172 2756 
L 1759 2756 
Q 2241 2756 2509 2986 
Q 2778 3216 2778 3628 
Q 2778 4347 1841 4347 
L 1172 4347 
z
M 1172 2266 
L 1172 494 
L 1956 494 
Q 2456 494 2739 733 
Q 3022 972 3022 1394 
Q 3022 2266 1828 2266 
L 1172 2266 
z
" transform="scale(0.015625)"/>
     </defs>
     <use xlink:href="#MicrosoftJhengHeiRegular-4f4d"/>
     <use xlink:href="#MicrosoftJhengHeiRegular-7f6e" x="100"/>
     <use xlink:href="#MicrosoftJhengHeiRegular-9810" x="200"/>
     <use xlink:href="#MicrosoftJhengHeiRegular-6e2c" x="300"/>
     <use xlink:href="#MicrosoftJhengHeiRegular-8aa4" x="400"/>
     <use xlink:href="#MicrosoftJhengHeiRegular-5dee" x="500"/>
     <use xlink:href="#MicrosoftJhengHeiRegular-7d2f" x="600"/>
     <use xlink:href="#MicrosoftJhengHeiRegular-7a4d" x="700"/>
     <use xlink:href="#MicrosoftJhengHeiRegular-5206" x="800"/>
     <use xlink:href="#MicrosoftJhengHeiRegular-5e03" x="900"/>
     <use xlink:href="#MicrosoftJhengHeiRegular-51fd" x="1000"/>
     <use xlink:href="#MicrosoftJhengHeiRegular-6578" x="1100"/>
     <use xlink:href="#MicrosoftJhengHeiRegular-20" x="1200"/>
     <use xlink:href="#MicrosoftJhengHeiRegular-2d" x="1225"/>
     <use xlink:href="#MicrosoftJhengHeiRegular-20" x="1268.164062"/>
     <use xlink:href="#MicrosoftJhengHeiRegular-9ad8" x="1293.164062"/>
     <use xlink:href="#MicrosoftJhengHeiRegular-65af" x="1393.164062"/>
     <use xlink:href="#MicrosoftJhengHeiRegular-96dc" x="1493.164062"/>
     <use xlink:href="#MicrosoftJhengHeiRegular-8a0a" x="1593.164062"/>
     <use xlink:href="#MicrosoftJhengHeiRegular-20" x="1693.164062"/>
     <use xlink:href="#MicrosoftJhengHeiRegular-31" x="1718.164062"/>
     <use xlink:href="#MicrosoftJhengHeiRegular-30" x="1776.123047"/>
     <use xlink:href="#MicrosoftJhengHeiRegular-64" x="1834.082031"/>
     <use xlink:href="#MicrosoftJhengHeiRegular-42" x="1897.460938"/>
    </g>
   </g>
   <g id="PathCollection_1">
    <defs>
     <path id="m75b6e13907" d="M 0 3.535534 
C 0.937635 3.535534 1.836992 3.163008 2.5 2.5 
C 3.163008 1.836992 3.535534 0.937635 3.535534 0 
C 3.535534 -0.937635 3.163008 -1.836992 2.5 -2.5 
C 1.836992 -3.163008 0.937635 -3.535534 0 -3.535534 
C -0.937635 -3.535534 -1.836992 -3.163008 -2.5 -2.5 
C -3.163008 -1.836992 -3.535534 -0.937635 -3.535534 0 
C -3.535534 0.937635 -3.163008 1.836992 -2.5 2.5 
C -1.836992 3.163008 -0.937635 3.535534 0 3.535534 
z
" style="stroke: #1f77b4; stroke-opacity: 0.8"/>
    </defs>
    <g clip-path="url(#p99d36696c5)">
     <use xlink:href="#m75b6e13907" x="213.562871" y="409.964822" style="fill: #1f77b4; fill-opacity: 0.8; stroke: #1f77b4; stroke-opacity: 0.8"/>
    </g>
   </g>
   <g id="PathCollection_2">
    <g clip-path="url(#p99d36696c5)">
     <use xlink:href="#m75b6e13907" x="381.060117" y="233.108329" style="fill: #1f77b4; fill-opacity: 0.8; stroke: #1f77b4; stroke-opacity: 0.8"/>
    </g>
   </g>
   <g id="PathCollection_3">
    <g clip-path="url(#p99d36696c5)">
     <use xlink:href="#m75b6e13907" x="548.557364" y="118.390604" style="fill: #1f77b4; fill-opacity: 0.8; stroke: #1f77b4; stroke-opacity: 0.8"/>
    </g>
   </g>
   <g id="PathCollection_4">
    <defs>
     <path id="m1289e7c840" d="M 0 3.535534 
C 0.937635 3.535534 1.836992 3.163008 2.5 2.5 
C 3.163008 1.836992 3.535534 0.937635 3.535534 0 
C 3.535534 -0.937635 3.163008 -1.836992 2.5 -2.5 
C 1.836992 -3.163008 0.937635 -3.535534 0 -3.535534 
C -0.937635 -3.535534 -1.836992 -3.163008 -2.5 -2.5 
C -3.163008 -1.836992 -3.535534 -0.937635 -3.535534 0 
C -3.535534 0.937635 -3.163008 1.836992 -2.5 2.5 
C -1.836992 3.163008 -0.937635 3.535534 0 3.535534 
z
" style="stroke: #ff7f0e; stroke-opacity: 0.8"/>
    </defs>
    <g clip-path="url(#p99d36696c5)">
     <use xlink:href="#m1289e7c840" x="213.562871" y="369.335628" style="fill: #ff7f0e; fill-opacity: 0.8; stroke: #ff7f0e; stroke-opacity: 0.8"/>
    </g>
   </g>
   <g id="PathCollection_5">
    <g clip-path="url(#p99d36696c5)">
     <use xlink:href="#m1289e7c840" x="381.060117" y="108.830794" style="fill: #ff7f0e; fill-opacity: 0.8; stroke: #ff7f0e; stroke-opacity: 0.8"/>
    </g>
   </g>
   <g id="PathCollection_6">
    <g clip-path="url(#p99d36696c5)">
     <use xlink:href="#m1289e7c840" x="548.557364" y="37.132216" style="fill: #ff7f0e; fill-opacity: 0.8; stroke: #ff7f0e; stroke-opacity: 0.8"/>
    </g>
   </g>
   <g id="PathCollection_7">
    <defs>
     <path id="m275a8950ba" d="M 0 3.535534 
C 0.937635 3.535534 1.836992 3.163008 2.5 2.5 
C 3.163008 1.836992 3.535534 0.937635 3.535534 0 
C 3.535534 -0.937635 3.163008 -1.836992 2.5 -2.5 
C 1.836992 -3.163008 0.937635 -3.535534 0 -3.535534 
C -0.937635 -3.535534 -1.836992 -3.163008 -2.5 -2.5 
C -3.163008 -1.836992 -3.535534 -0.937635 -3.535534 0 
C -3.535534 0.937635 -3.163008 1.836992 -2.5 2.5 
C -1.836992 3.163008 -0.937635 3.535534 0 3.535534 
z
" style="stroke: #2ca02c; stroke-opacity: 0.8"/>
    </defs>
    <g clip-path="url(#p99d36696c5)">
     <use xlink:href="#m275a8950ba" x="213.562871" y="381.285391" style="fill: #2ca02c; fill-opacity: 0.8; stroke: #2ca02c; stroke-opacity: 0.8"/>
    </g>
   </g>
   <g id="PathCollection_8">
    <g clip-path="url(#p99d36696c5)">
     <use xlink:href="#m275a8950ba" x="381.060117" y="96.881031" style="fill: #2ca02c; fill-opacity: 0.8; stroke: #2ca02c; stroke-opacity: 0.8"/>
    </g>
   </g>
   <g id="PathCollection_9">
    <g clip-path="url(#p99d36696c5)">
     <use xlink:href="#m275a8950ba" x="548.557364" y="27.572405" style="fill: #2ca02c; fill-opacity: 0.8; stroke: #2ca02c; stroke-opacity: 0.8"/>
    </g>
   </g>
   <g id="legend_1">
    <g id="patch_7">
     <path d="M 882.702125 77.289375 
L 991.109938 77.289375 
Q 993.109938 77.289375 993.109938 75.289375 
L 993.109938 29.7925 
Q 993.109938 27.7925 991.109938 27.7925 
L 882.702125 27.7925 
Q 880.702125 27.7925 880.702125 29.7925 
L 880.702125 75.289375 
Q 880.702125 77.289375 882.702125 77.289375 
z
" style="fill: #ffffff; opacity: 0.8; stroke: #cccccc; stroke-linejoin: miter"/>
    </g>
    <g id="line2d_29">
     <path d="M 884.702125 36.28625 
L 894.702125 36.28625 
L 904.702125 36.28625 
" style="fill: none; stroke: #1f77b4; stroke-width: 2; stroke-linecap: square"/>
    </g>
    <g id="text_18">
     <!-- original HADNN -->
     <g transform="translate(912.702125 39.78625) scale(0.1 -0.1)">
      <defs>
       <path id="MicrosoftJhengHeiRegular-6f" d="M 331 1684 
Q 331 2547 801 3042 
Q 1272 3538 2081 3538 
Q 2844 3538 3276 3059 
Q 3709 2581 3709 1738 
Q 3709 919 3240 419 
Q 2772 -81 2000 -81 
Q 1253 -81 792 400 
Q 331 881 331 1684 
z
M 863 1706 
Q 863 1094 1183 728 
Q 1503 363 2038 363 
Q 2581 363 2879 719 
Q 3178 1075 3178 1719 
Q 3178 2378 2883 2736 
Q 2588 3094 2038 3094 
Q 1500 3094 1181 2723 
Q 863 2353 863 1706 
z
" transform="scale(0.015625)"/>
       <path id="MicrosoftJhengHeiRegular-72" d="M 2341 2922 
Q 2197 3031 1925 3031 
Q 1559 3031 1323 2682 
Q 1088 2334 1088 1769 
L 1088 0 
L 566 0 
L 566 3456 
L 1088 3456 
L 1088 2741 
L 1103 2741 
Q 1222 3109 1465 3312 
Q 1709 3516 2003 3516 
Q 2225 3516 2341 3469 
L 2341 2922 
z
" transform="scale(0.015625)"/>
       <path id="MicrosoftJhengHeiRegular-69" d="M 497 4700 
Q 497 4847 595 4948 
Q 694 5050 834 5050 
Q 981 5050 1082 4947 
Q 1184 4844 1184 4700 
Q 1184 4563 1082 4459 
Q 981 4356 834 4356 
Q 688 4356 592 4456 
Q 497 4556 497 4700 
z
M 569 0 
L 569 3456 
L 1088 3456 
L 1088 0 
L 569 0 
z
" transform="scale(0.015625)"/>
       <path id="MicrosoftJhengHeiRegular-67" d="M 3488 272 
Q 3488 -1628 1688 -1628 
Q 1050 -1628 566 -1381 
L 566 -850 
Q 1150 -1175 1684 -1175 
Q 2969 -1175 2969 203 
L 2969 588 
L 2956 588 
Q 2550 -81 1763 -81 
Q 1113 -81 722 384 
Q 331 850 331 1616 
Q 331 2500 759 3019 
Q 1188 3538 1913 3538 
Q 2616 3538 2956 2972 
L 2969 2972 
L 2969 3456 
L 3488 3456 
L 3488 272 
z
M 2969 2081 
Q 2969 2503 2678 2798 
Q 2388 3094 1978 3094 
Q 1459 3094 1161 2712 
Q 863 2331 863 1653 
Q 863 1066 1150 714 
Q 1438 363 1897 363 
Q 2363 363 2666 698 
Q 2969 1034 2969 1556 
L 2969 2081 
z
" transform="scale(0.015625)"/>
       <path id="MicrosoftJhengHeiRegular-6e" d="M 3406 0 
L 2884 0 
L 2884 1975 
Q 2884 3094 2066 3094 
Q 1638 3094 1363 2773 
Q 1088 2453 1088 1972 
L 1088 0 
L 566 0 
L 566 3456 
L 1088 3456 
L 1088 2878 
L 1103 2878 
Q 1491 3538 2238 3538 
Q 2806 3538 3106 3172 
Q 3406 2806 3406 2113 
L 3406 0 
z
" transform="scale(0.015625)"/>
       <path id="MicrosoftJhengHeiRegular-61" d="M 647 3209 
Q 1156 3538 1813 3538 
Q 3016 3538 3016 2259 
L 3016 0 
L 2494 0 
L 2494 544 
L 2475 544 
Q 2116 -81 1413 -81 
Q 900 -81 604 192 
Q 309 466 309 916 
Q 309 1875 1447 2038 
L 2491 2188 
Q 2491 3088 1772 3088 
Q 1144 3088 647 2659 
L 647 3209 
z
M 1644 1641 
Q 1200 1581 1026 1426 
Q 853 1272 853 950 
Q 853 691 1039 528 
Q 1225 366 1525 366 
Q 1941 366 2216 662 
Q 2491 959 2491 1403 
L 2491 1753 
L 1644 1641 
z
" transform="scale(0.015625)"/>
       <path id="MicrosoftJhengHeiRegular-6c" d="M 569 0 
L 569 5116 
L 1088 5116 
L 1088 0 
L 569 0 
z
" transform="scale(0.015625)"/>
       <path id="MicrosoftJhengHeiRegular-48" d="M 4241 0 
L 3709 0 
L 3709 2222 
L 1172 2222 
L 1172 0 
L 641 0 
L 641 4841 
L 1172 4841 
L 1172 2703 
L 3709 2703 
L 3709 4841 
L 4241 4841 
L 4241 0 
z
" transform="scale(0.015625)"/>
       <path id="MicrosoftJhengHeiRegular-41" d="M 4353 0 
L 3763 0 
L 3238 1375 
L 1163 1375 
L 672 0 
L 78 0 
L 1941 4841 
L 2481 4841 
L 4353 0 
z
M 3056 1863 
L 2281 3953 
Q 2250 4041 2209 4272 
L 2194 4272 
Q 2159 4059 2116 3953 
L 1350 1863 
L 3056 1863 
z
" transform="scale(0.015625)"/>
       <path id="MicrosoftJhengHeiRegular-44" d="M 641 0 
L 641 4841 
L 1953 4841 
Q 4506 4841 4506 2481 
Q 4506 1350 3818 675 
Q 3131 0 1903 0 
L 641 0 
z
M 1172 4353 
L 1172 488 
L 1909 488 
Q 2875 488 3412 1006 
Q 3950 1525 3950 2466 
Q 3950 4353 1941 4353 
L 1172 4353 
z
" transform="scale(0.015625)"/>
       <path id="MicrosoftJhengHeiRegular-4e" d="M 4513 0 
L 3844 0 
L 1319 3909 
Q 1234 4047 1169 4200 
L 1150 4200 
Q 1175 4050 1175 3550 
L 1175 0 
L 641 0 
L 641 4841 
L 1347 4841 
L 3803 972 
Q 3991 672 4000 641 
L 4013 641 
Q 3978 881 3978 1369 
L 3978 4841 
L 4513 4841 
L 4513 0 
z
" transform="scale(0.015625)"/>
      </defs>
      <use xlink:href="#MicrosoftJhengHeiRegular-6f"/>
      <use xlink:href="#MicrosoftJhengHeiRegular-72" x="63.085938"/>
      <use xlink:href="#MicrosoftJhengHeiRegular-69" x="100.292969"/>
      <use xlink:href="#MicrosoftJhengHeiRegular-67" x="126.220703"/>
      <use xlink:href="#MicrosoftJhengHeiRegular-69" x="189.599609"/>
      <use xlink:href="#MicrosoftJhengHeiRegular-6e" x="215.527344"/>
      <use xlink:href="#MicrosoftJhengHeiRegular-61" x="276.367188"/>
      <use xlink:href="#MicrosoftJhengHeiRegular-6c" x="331.103516"/>
      <use xlink:href="#MicrosoftJhengHeiRegular-20" x="357.03125"/>
      <use xlink:href="#MicrosoftJhengHeiRegular-48" x="382.03125"/>
      <use xlink:href="#MicrosoftJhengHeiRegular-41" x="458.300781"/>
      <use xlink:href="#MicrosoftJhengHeiRegular-44" x="527.587891"/>
      <use xlink:href="#MicrosoftJhengHeiRegular-4e" x="603.076172"/>
      <use xlink:href="#MicrosoftJhengHeiRegular-4e" x="683.59375"/>
     </g>
    </g>
    <g id="line2d_30">
     <path d="M 884.702125 51.82375 
L 894.702125 51.82375 
L 904.702125 51.82375 
" style="fill: none; stroke: #ff7f0e; stroke-width: 2; stroke-linecap: square"/>
    </g>
    <g id="text_19">
     <!-- mlp -->
     <g transform="translate(912.702125 55.32375) scale(0.1 -0.1)">
      <defs>
       <path id="MicrosoftJhengHeiRegular-70" d="M 1088 506 
L 1088 -1591 
L 566 -1591 
L 566 3456 
L 1088 3456 
L 1088 2844 
L 1103 2844 
Q 1513 3538 2300 3538 
Q 2959 3538 3340 3077 
Q 3722 2616 3722 1828 
Q 3722 966 3295 442 
Q 2869 -81 2141 -81 
Q 1466 -81 1103 506 
L 1088 506 
z
M 1088 1400 
Q 1088 966 1378 664 
Q 1669 363 2094 363 
Q 2603 363 2895 756 
Q 3188 1150 3188 1844 
Q 3188 2428 2913 2761 
Q 2638 3094 2181 3094 
Q 1706 3094 1397 2758 
Q 1088 2422 1088 1900 
L 1088 1400 
z
" transform="scale(0.015625)"/>
      </defs>
      <use xlink:href="#MicrosoftJhengHeiRegular-6d"/>
      <use xlink:href="#MicrosoftJhengHeiRegular-6c" x="92.626953"/>
      <use xlink:href="#MicrosoftJhengHeiRegular-70" x="118.554688"/>
     </g>
    </g>
    <g id="line2d_31">
     <path d="M 884.702125 67.303437 
L 894.702125 67.303437 
L 904.702125 67.303437 
" style="fill: none; stroke: #2ca02c; stroke-width: 2; stroke-linecap: square"/>
    </g>
    <g id="text_20">
     <!-- hadnn+rf -->
     <g transform="translate(912.702125 70.803437) scale(0.1 -0.1)">
      <defs>
       <path id="MicrosoftJhengHeiRegular-68" d="M 3406 0 
L 2888 0 
L 2888 1994 
Q 2888 3094 2066 3094 
Q 1650 3094 1369 2775 
Q 1088 2456 1088 1956 
L 1088 0 
L 566 0 
L 566 5116 
L 1088 5116 
L 1088 2878 
L 1103 2878 
Q 1500 3538 2241 3538 
Q 3406 3538 3406 2128 
L 3406 0 
z
" transform="scale(0.015625)"/>
       <path id="MicrosoftJhengHeiRegular-2b" d="M 3947 1797 
L 2578 1797 
L 2578 434 
L 2147 434 
L 2147 1797 
L 784 1797 
L 784 2234 
L 2147 2234 
L 2147 3597 
L 2578 3597 
L 2578 2234 
L 3947 2234 
L 3947 1797 
z
" transform="scale(0.015625)"/>
       <path id="MicrosoftJhengHeiRegular-66" d="M 2241 4653 
Q 2075 4744 1872 4744 
Q 1288 4744 1288 4000 
L 1288 3456 
L 2097 3456 
L 2097 3006 
L 1288 3006 
L 1288 0 
L 772 0 
L 772 3006 
L 181 3006 
L 181 3456 
L 772 3456 
L 772 4025 
Q 772 4572 1083 4881 
Q 1394 5191 1847 5191 
Q 2100 5191 2241 5131 
L 2241 4653 
z
" transform="scale(0.015625)"/>
      </defs>
      <use xlink:href="#MicrosoftJhengHeiRegular-68"/>
      <use xlink:href="#MicrosoftJhengHeiRegular-61" x="60.888672"/>
      <use xlink:href="#MicrosoftJhengHeiRegular-64" x="115.625"/>
      <use xlink:href="#MicrosoftJhengHeiRegular-6e" x="179.003906"/>
      <use xlink:href="#MicrosoftJhengHeiRegular-6e" x="239.84375"/>
      <use xlink:href="#MicrosoftJhengHeiRegular-2b" x="300.683594"/>
      <use xlink:href="#MicrosoftJhengHeiRegular-72" x="374.414062"/>
      <use xlink:href="#MicrosoftJhengHeiRegular-66" x="413.621094"/>
     </g>
    </g>
   </g>
  </g>
 </g>
 <defs>
  <clipPath id="p99d36696c5">
   <rect x="46.065625" y="22.7925" width="790.13" height="504.28"/>
  </clipPath>
 </defs>
</svg>
