<?xml version="1.0" encoding="utf-8" standalone="no"?>
<!DOCTYPE svg PUBLIC "-//W3C//DTD SVG 1.1//EN"
  "http://www.w3.org/Graphics/SVG/1.1/DTD/svg11.dtd">
<svg xmlns:xlink="http://www.w3.org/1999/xlink" width="999.705pt" height="566.322599pt" viewBox="0 0 999.705 566.322599" xmlns="http://www.w3.org/2000/svg" version="1.1">
 <metadata>
  <rdf:RDF xmlns:dc="http://purl.org/dc/elements/1.1/" xmlns:cc="http://creativecommons.org/ns#" xmlns:rdf="http://www.w3.org/1999/02/22-rdf-syntax-ns#">
   <cc:Work>
    <dc:type rdf:resource="http://purl.org/dc/dcmitype/StillImage"/>
    <dc:date>2025-09-01T01:24:32.124251</dc:date>
    <dc:format>image/svg+xml</dc:format>
    <dc:creator>
     <cc:Agent>
      <dc:title>Matplotlib v3.7.1, https://matplotlib.org/</dc:title>
     </cc:Agent>
    </dc:creator>
   </cc:Work>
  </rdf:RDF>
 </metadata>
 <defs>
  <style type="text/css">*{stroke-linejoin: round; stroke-linecap: butt}</style>
 </defs>
 <g id="figure_1">
  <g id="patch_1">
   <path d="M 0 566.322599 
L 999.705 566.322599 
L 999.705 0 
L 0 0 
z
" style="fill: #ffffff"/>
  </g>
  <g id="axes_1">
   <g id="patch_2">
    <path d="M 42.575 507.688671 
L 992.505 507.688671 
L 992.505 22.7925 
L 42.575 22.7925 
z
" style="fill: #ffffff"/>
   </g>
   <g id="PolyCollection_1">
    <path d="M 190.247816 478.783182 
L 153.974002 478.783182 
L 151.701251 474.889278 
L 149.294986 470.995375 
L 146.764071 467.101472 
L 144.11784 463.207569 
L 141.36577 459.313666 
L 138.517281 455.419763 
L 135.581716 451.525859 
L 132.568506 447.631956 
L 129.487529 443.738053 
L 126.349629 439.84415 
L 123.167234 435.950247 
L 119.955016 432.056343 
L 116.730479 428.16244 
L 113.514418 424.268537 
L 110.331141 420.374634 
L 107.208406 416.480731 
L 104.177047 412.586827 
L 101.270273 408.692924 
L 98.522686 404.799021 
L 95.969088 400.905118 
L 93.643142 397.011215 
L 91.576015 393.117312 
L 89.795084 389.223408 
L 88.322798 385.329505 
L 87.175772 381.435602 
L 86.364155 377.541699 
L 85.891288 373.647796 
L 85.753636 369.753892 
L 85.940983 365.859989 
L 86.43682 361.966086 
L 87.218901 358.072183 
L 88.259908 354.17828 
L 89.528175 350.284376 
L 90.988465 346.390473 
L 92.602759 342.49657 
L 94.33105 338.602667 
L 96.132154 334.708764 
L 97.964506 330.814861 
L 99.786967 326.920957 
L 101.559611 323.027054 
L 103.244484 319.133151 
L 104.806332 315.239248 
L 106.213253 311.345345 
L 107.437282 307.451441 
L 108.45488 303.557538 
L 109.247324 299.663635 
L 109.800995 295.769732 
L 110.107572 291.875829 
L 110.164136 287.981925 
L 109.973189 284.088022 
L 109.542598 280.194119 
L 108.885455 276.300216 
L 108.019854 272.406313 
L 106.968565 268.51241 
L 105.758587 264.618506 
L 104.420577 260.724603 
L 102.988128 256.8307 
L 101.496905 252.936797 
L 99.983663 249.042894 
L 98.485154 245.14899 
L 97.037001 241.255087 
L 95.672573 237.361184 
L 94.421944 233.467281 
L 93.311002 229.573378 
L 92.360771 225.679474 
L 91.586994 221.785571 
L 91.000005 217.891668 
L 90.604897 213.997765 
L 90.401964 210.103862 
L 90.387373 206.209959 
L 90.55401 202.316055 
L 90.89242 198.422152 
L 91.391774 194.528249 
L 92.040784 190.634346 
L 92.828515 186.740443 
L 93.745045 182.846539 
L 94.781941 178.952636 
L 95.932563 175.058733 
L 97.19218 171.16483 
L 98.557939 167.270927 
L 100.028698 163.377023 
L 101.604755 159.48312 
L 103.287507 155.589217 
L 105.079048 151.695314 
L 106.981731 147.801411 
L 108.9977 143.907507 
L 111.128414 140.013604 
L 113.374155 136.119701 
L 115.733548 132.225798 
L 118.203118 128.331895 
L 120.776882 124.437992 
L 123.446036 120.544088 
L 126.198745 116.650185 
L 129.020082 112.756282 
L 131.892126 108.862379 
L 134.794239 104.968476 
L 137.703523 101.074572 
L 140.595443 97.180669 
L 143.444582 93.286766 
L 200.777236 93.286766 
L 200.777236 93.286766 
L 203.626375 97.180669 
L 206.518295 101.074572 
L 209.427579 104.968476 
L 212.329692 108.862379 
L 215.201736 112.756282 
L 218.023073 116.650185 
L 220.775782 120.544088 
L 223.444936 124.437992 
L 226.0187 128.331895 
L 228.48827 132.225798 
L 230.847664 136.119701 
L 233.093404 140.013604 
L 235.224118 143.907507 
L 237.240087 147.801411 
L 239.14277 151.695314 
L 240.934311 155.589217 
L 242.617063 159.48312 
L 244.19312 163.377023 
L 245.663879 167.270927 
L 247.029638 171.16483 
L 248.289256 175.058733 
L 249.439877 178.952636 
L 250.476773 182.846539 
L 251.393303 186.740443 
L 252.181035 190.634346 
L 252.830045 194.528249 
L 253.329398 198.422152 
L 253.667808 202.316055 
L 253.834445 206.209959 
L 253.819854 210.103862 
L 253.616921 213.997765 
L 253.221813 217.891668 
L 252.634824 221.785571 
L 251.861047 225.679474 
L 250.910816 229.573378 
L 249.799874 233.467281 
L 248.549245 237.361184 
L 247.184817 241.255087 
L 245.736664 245.14899 
L 244.238156 249.042894 
L 242.724913 252.936797 
L 241.233691 256.8307 
L 239.801241 260.724603 
L 238.463231 264.618506 
L 237.253253 268.51241 
L 236.201964 272.406313 
L 235.336363 276.300216 
L 234.67922 280.194119 
L 234.248629 284.088022 
L 234.057682 287.981925 
L 234.114246 291.875829 
L 234.420823 295.769732 
L 234.974494 299.663635 
L 235.766938 303.557538 
L 236.784536 307.451441 
L 238.008565 311.345345 
L 239.415486 315.239248 
L 240.977334 319.133151 
L 242.662208 323.027054 
L 244.434851 326.920957 
L 246.257312 330.814861 
L 248.089664 334.708764 
L 249.890768 338.602667 
L 251.619059 342.49657 
L 253.233353 346.390473 
L 254.693643 350.284376 
L 255.96191 354.17828 
L 257.002917 358.072183 
L 257.784999 361.966086 
L 258.280835 365.859989 
L 258.468182 369.753892 
L 258.33053 373.647796 
L 257.857663 377.541699 
L 257.046047 381.435602 
L 255.89902 385.329505 
L 254.426734 389.223408 
L 252.645803 393.117312 
L 250.578676 397.011215 
L 248.25273 400.905118 
L 245.699132 404.799021 
L 242.951545 408.692924 
L 240.044771 412.586827 
L 237.013412 416.480731 
L 233.890677 420.374634 
L 230.7074 424.268537 
L 227.491339 428.16244 
L 224.266802 432.056343 
L 221.054584 435.950247 
L 217.872189 439.84415 
L 214.734289 443.738053 
L 211.653313 447.631956 
L 208.640103 451.525859 
L 205.704537 455.419763 
L 202.856048 459.313666 
L 200.103978 463.207569 
L 197.457747 467.101472 
L 194.926832 470.995375 
L 192.520567 474.889278 
L 190.247816 478.783182 
z
" clip-path="url(#pfa13a79453)" style="fill: #1f77b4; fill-opacity: 0.7"/>
   </g>
   <g id="PolyCollection_2">
    <path d="M 536.097159 485.647936 
L 498.982841 485.647936 
L 496.692031 481.785339 
L 494.255553 477.922743 
L 491.680447 474.060146 
L 488.976087 470.197549 
L 486.154495 466.334953 
L 483.230661 462.472356 
L 480.222837 458.609759 
L 477.15275 454.747162 
L 474.045664 450.884566 
L 470.930268 447.021969 
L 467.838317 443.159372 
L 464.804021 439.296775 
L 461.863171 435.434179 
L 459.052021 431.571582 
L 456.405972 427.708985 
L 453.958143 423.846389 
L 451.737897 419.983792 
L 449.769436 416.121195 
L 448.070573 412.258598 
L 446.651773 408.396002 
L 445.51554 404.533405 
L 444.656223 400.670808 
L 444.060258 396.808212 
L 443.706846 392.945615 
L 443.569027 389.083018 
L 443.615081 385.220421 
L 443.810159 381.357825 
L 444.118033 377.495228 
L 444.502844 373.632631 
L 444.930727 369.770034 
L 445.371202 365.907438 
L 445.798264 362.044841 
L 446.191088 358.182244 
L 446.53435 354.319648 
L 446.81816 350.457051 
L 447.037646 346.594454 
L 447.19227 342.731857 
L 447.284936 338.869261 
L 447.321003 335.006664 
L 447.30729 331.144067 
L 447.251147 327.28147 
L 447.159662 323.418874 
L 447.03905 319.556277 
L 446.894231 315.69368 
L 446.728605 311.831084 
L 446.543993 307.968487 
L 446.340703 304.10589 
L 446.117689 300.243293 
L 445.872755 296.380697 
L 445.60277 292.5181 
L 445.303872 288.655503 
L 444.971659 284.792907 
L 444.601364 280.93031 
L 444.188033 277.067713 
L 443.726742 273.205116 
L 443.212853 269.34252 
L 442.642347 265.479923 
L 442.012233 261.617326 
L 441.321024 257.754729 
L 440.569263 253.892133 
L 439.760058 250.029536 
L 438.899577 246.166939 
L 437.997454 242.304343 
L 437.067043 238.441746 
L 436.125492 234.579149 
L 435.193585 230.716552 
L 434.295361 226.853956 
L 433.457506 222.991359 
L 432.708555 219.128762 
L 432.077948 215.266165 
L 431.595012 211.403569 
L 431.287923 207.540972 
L 431.182727 203.678375 
L 431.302474 199.815779 
L 431.666502 195.953182 
L 432.289913 192.090585 
L 433.183236 188.227988 
L 434.352276 184.365392 
L 435.798121 180.502795 
L 437.517285 176.640198 
L 439.501942 172.777601 
L 441.740233 168.915005 
L 444.216605 165.052408 
L 446.912182 161.189811 
L 449.805138 157.327215 
L 452.871096 153.464618 
L 456.083532 149.602021 
L 459.414212 145.739424 
L 462.83365 141.876828 
L 466.311596 138.014231 
L 469.817549 134.151634 
L 473.32129 130.289038 
L 476.793408 126.426441 
L 480.205827 122.563844 
L 483.532283 118.701247 
L 486.74877 114.838651 
L 489.833908 110.976054 
L 492.769251 107.113457 
L 495.539503 103.25086 
L 539.540497 103.25086 
L 539.540497 103.25086 
L 542.310749 107.113457 
L 545.246092 110.976054 
L 548.33123 114.838651 
L 551.547717 118.701247 
L 554.874173 122.563844 
L 558.286592 126.426441 
L 561.75871 130.289038 
L 565.262451 134.151634 
L 568.768404 138.014231 
L 572.24635 141.876828 
L 575.665788 145.739424 
L 578.996468 149.602021 
L 582.208904 153.464618 
L 585.274862 157.327215 
L 588.167818 161.189811 
L 590.863395 165.052408 
L 593.339767 168.915005 
L 595.578058 172.777601 
L 597.562715 176.640198 
L 599.281879 180.502795 
L 600.727724 184.365392 
L 601.896764 188.227988 
L 602.790087 192.090585 
L 603.413498 195.953182 
L 603.777526 199.815779 
L 603.897273 203.678375 
L 603.792077 207.540972 
L 603.484988 211.403569 
L 603.002052 215.266165 
L 602.371445 219.128762 
L 601.622494 222.991359 
L 600.784639 226.853956 
L 599.886415 230.716552 
L 598.954508 234.579149 
L 598.012957 238.441746 
L 597.082546 242.304343 
L 596.180423 246.166939 
L 595.319942 250.029536 
L 594.510737 253.892133 
L 593.758976 257.754729 
L 593.067767 261.617326 
L 592.437653 265.479923 
L 591.867147 269.34252 
L 591.353258 273.205116 
L 590.891967 277.067713 
L 590.478636 280.93031 
L 590.108341 284.792907 
L 589.776128 288.655503 
L 589.47723 292.5181 
L 589.207245 296.380697 
L 588.962311 300.243293 
L 588.739297 304.10589 
L 588.536007 307.968487 
L 588.351395 311.831084 
L 588.185769 315.69368 
L 588.04095 319.556277 
L 587.920338 323.418874 
L 587.828853 327.28147 
L 587.77271 331.144067 
L 587.758997 335.006664 
L 587.795064 338.869261 
L 587.88773 342.731857 
L 588.042354 346.594454 
L 588.26184 350.457051 
L 588.54565 354.319648 
L 588.888912 358.182244 
L 589.281736 362.044841 
L 589.708798 365.907438 
L 590.149273 369.770034 
L 590.577156 373.632631 
L 590.961967 377.495228 
L 591.269841 381.357825 
L 591.464919 385.220421 
L 591.510973 389.083018 
L 591.373154 392.945615 
L 591.019742 396.808212 
L 590.423777 400.670808 
L 589.56446 404.533405 
L 588.428227 408.396002 
L 587.009427 412.258598 
L 585.310564 416.121195 
L 583.342103 419.983792 
L 581.121857 423.846389 
L 578.674028 427.708985 
L 576.027979 431.571582 
L 573.216829 435.434179 
L 570.275979 439.296775 
L 567.241683 443.159372 
L 564.149732 447.021969 
L 561.034336 450.884566 
L 557.92725 454.747162 
L 554.857163 458.609759 
L 551.849339 462.472356 
L 548.925505 466.334953 
L 546.103913 470.197549 
L 543.399553 474.060146 
L 540.824447 477.922743 
L 538.387969 481.785339 
L 536.097159 485.647936 
z
" clip-path="url(#pfa13a79453)" style="fill: #ff7f0e; fill-opacity: 0.7"/>
   </g>
   <g id="PolyCollection_3">
    <path d="M 881.704685 483.179111 
L 844.233497 483.179111 
L 841.716353 478.751375 
L 839.043936 474.323639 
L 836.233593 469.895903 
L 833.305416 465.468166 
L 830.281507 461.04043 
L 827.185153 456.612694 
L 824.039982 452.184958 
L 820.869173 447.757222 
L 817.694805 443.329486 
L 814.537402 438.90175 
L 811.415732 434.474014 
L 808.346866 430.046277 
L 805.346498 425.618541 
L 802.429475 421.190805 
L 799.610456 416.763069 
L 796.904609 412.335333 
L 794.328231 407.907597 
L 791.899189 403.479861 
L 789.637069 399.052125 
L 787.562995 394.624388 
L 785.699057 390.196652 
L 784.067376 385.768916 
L 782.688855 381.34118 
L 781.581696 376.913444 
L 780.759824 372.485708 
L 780.231337 368.057972 
L 779.997143 363.630236 
L 780.049913 359.2025 
L 780.373469 354.774763 
L 780.942693 350.347027 
L 781.723998 345.919291 
L 782.676372 341.491555 
L 783.752931 337.063819 
L 784.90291 332.636083 
L 786.073961 328.208347 
L 787.214596 323.780611 
L 788.276619 319.352874 
L 789.217365 314.925138 
L 790.001587 310.497402 
L 790.602865 306.069666 
L 791.004424 301.64193 
L 791.199332 297.214194 
L 791.190055 292.786458 
L 790.987454 288.358722 
L 790.609295 283.930986 
L 790.078448 279.503249 
L 789.420905 275.075513 
L 788.663826 270.647777 
L 787.833757 266.220041 
L 786.955168 261.792305 
L 786.049425 257.364569 
L 785.13423 252.936833 
L 784.223564 248.509097 
L 783.32805 244.08136 
L 782.455685 239.653624 
L 781.61279 235.225888 
L 780.805053 230.798152 
L 780.03853 226.370416 
L 779.320466 221.94268 
L 778.659844 217.514944 
L 778.067607 213.087208 
L 777.55653 208.659471 
L 777.140768 204.231735 
L 776.835152 199.803999 
L 776.654323 195.376263 
L 776.611818 190.948527 
L 776.719224 186.520791 
L 776.985503 182.093055 
L 777.416571 177.665319 
L 778.015178 173.237583 
L 778.781087 168.809846 
L 779.711541 164.38211 
L 780.801928 159.954374 
L 782.046576 155.526638 
L 783.439552 151.098902 
L 784.975385 146.671166 
L 786.649605 142.24343 
L 788.459038 137.815694 
L 790.401835 133.387957 
L 792.477214 128.960221 
L 794.684968 124.532485 
L 797.024792 120.104749 
L 799.495502 115.677013 
L 802.094238 111.249277 
L 804.815735 106.821541 
L 807.65173 102.393805 
L 810.590568 97.966068 
L 813.617032 93.538332 
L 816.712427 89.110596 
L 819.854893 84.68286 
L 823.019942 80.255124 
L 826.18116 75.827388 
L 829.31105 71.399652 
L 832.381942 66.971916 
L 835.366926 62.54418 
L 838.240758 58.116443 
L 840.980669 53.688707 
L 843.567063 49.260971 
L 845.984052 44.833235 
L 879.95413 44.833235 
L 879.95413 44.833235 
L 882.371119 49.260971 
L 884.957513 53.688707 
L 887.697424 58.116443 
L 890.571255 62.54418 
L 893.55624 66.971916 
L 896.627132 71.399652 
L 899.757022 75.827388 
L 902.91824 80.255124 
L 906.083288 84.68286 
L 909.225755 89.110596 
L 912.32115 93.538332 
L 915.347614 97.966068 
L 918.286451 102.393805 
L 921.122447 106.821541 
L 923.843944 111.249277 
L 926.44268 115.677013 
L 928.91339 120.104749 
L 931.253214 124.532485 
L 933.460968 128.960221 
L 935.536347 133.387957 
L 937.479143 137.815694 
L 939.288577 142.24343 
L 940.962797 146.671166 
L 942.49863 151.098902 
L 943.891606 155.526638 
L 945.136254 159.954374 
L 946.226641 164.38211 
L 947.157095 168.809846 
L 947.923004 173.237583 
L 948.52161 177.665319 
L 948.952679 182.093055 
L 949.218958 186.520791 
L 949.326364 190.948527 
L 949.283859 195.376263 
L 949.10303 199.803999 
L 948.797414 204.231735 
L 948.381652 208.659471 
L 947.870575 213.087208 
L 947.278338 217.514944 
L 946.617716 221.94268 
L 945.899652 226.370416 
L 945.133129 230.798152 
L 944.325392 235.225888 
L 943.482496 239.653624 
L 942.610132 244.08136 
L 941.714618 248.509097 
L 940.803951 252.936833 
L 939.888757 257.364569 
L 938.983014 261.792305 
L 938.104425 266.220041 
L 937.274355 270.647777 
L 936.517277 275.075513 
L 935.859734 279.503249 
L 935.328887 283.930986 
L 934.950728 288.358722 
L 934.748127 292.786458 
L 934.73885 297.214194 
L 934.933758 301.64193 
L 935.335317 306.069666 
L 935.936595 310.497402 
L 936.720817 314.925138 
L 937.661563 319.352874 
L 938.723586 323.780611 
L 939.864221 328.208347 
L 941.035272 332.636083 
L 942.185251 337.063819 
L 943.26181 341.491555 
L 944.214183 345.919291 
L 944.995489 350.347027 
L 945.564712 354.774763 
L 945.888269 359.2025 
L 945.941039 363.630236 
L 945.706845 368.057972 
L 945.178358 372.485708 
L 944.356485 376.913444 
L 943.249327 381.34118 
L 941.870805 385.768916 
L 940.239125 390.196652 
L 938.375187 394.624388 
L 936.301113 399.052125 
L 934.038993 403.479861 
L 931.60995 407.907597 
L 929.033573 412.335333 
L 926.327726 416.763069 
L 923.508707 421.190805 
L 920.591684 425.618541 
L 917.591316 430.046277 
L 914.522449 434.474014 
L 911.400779 438.90175 
L 908.243377 443.329486 
L 905.069009 447.757222 
L 901.8982 452.184958 
L 898.753028 456.612694 
L 895.656674 461.04043 
L 892.632766 465.468166 
L 889.704589 469.895903 
L 886.894246 474.323639 
L 884.221828 478.751375 
L 881.704685 483.179111 
z
" clip-path="url(#pfa13a79453)" style="fill: #2ca02c; fill-opacity: 0.7"/>
   </g>
   <g id="matplotlib.axis_1">
    <g id="xtick_1">
     <g id="line2d_1">
      <defs>
       <path id="m858cd850af" d="M 0 0 
L 0 3.5 
" style="stroke: #000000; stroke-width: 0.8"/>
      </defs>
      <g>
       <use xlink:href="#m858cd850af" x="172.110909" y="507.688671" style="stroke: #000000; stroke-width: 0.8"/>
      </g>
     </g>
     <g id="text_1">
      <!-- original HADNN -->
      <g transform="translate(135.914051 542.185838) rotate(-15) scale(0.1 -0.1)">
       <defs>
        <path id="MicrosoftJhengHeiRegular-6f" d="M 331 1684 
Q 331 2547 801 3042 
Q 1272 3538 2081 3538 
Q 2844 3538 3276 3059 
Q 3709 2581 3709 1738 
Q 3709 919 3240 419 
Q 2772 -81 2000 -81 
Q 1253 -81 792 400 
Q 331 881 331 1684 
z
M 863 1706 
Q 863 1094 1183 728 
Q 1503 363 2038 363 
Q 2581 363 2879 719 
Q 3178 1075 3178 1719 
Q 3178 2378 2883 2736 
Q 2588 3094 2038 3094 
Q 1500 3094 1181 2723 
Q 863 2353 863 1706 
z
" transform="scale(0.015625)"/>
        <path id="MicrosoftJhengHeiRegular-72" d="M 2341 2922 
Q 2197 3031 1925 3031 
Q 1559 3031 1323 2682 
Q 1088 2334 1088 1769 
L 1088 0 
L 566 0 
L 566 3456 
L 1088 3456 
L 1088 2741 
L 1103 2741 
Q 1222 3109 1465 3312 
Q 1709 3516 2003 3516 
Q 2225 3516 2341 3469 
L 2341 2922 
z
" transform="scale(0.015625)"/>
        <path id="MicrosoftJhengHeiRegular-69" d="M 497 4700 
Q 497 4847 595 4948 
Q 694 5050 834 5050 
Q 981 5050 1082 4947 
Q 1184 4844 1184 4700 
Q 1184 4563 1082 4459 
Q 981 4356 834 4356 
Q 688 4356 592 4456 
Q 497 4556 497 4700 
z
M 569 0 
L 569 3456 
L 1088 3456 
L 1088 0 
L 569 0 
z
" transform="scale(0.015625)"/>
        <path id="MicrosoftJhengHeiRegular-67" d="M 3488 272 
Q 3488 -1628 1688 -1628 
Q 1050 -1628 566 -1381 
L 566 -850 
Q 1150 -1175 1684 -1175 
Q 2969 -1175 2969 203 
L 2969 588 
L 2956 588 
Q 2550 -81 1763 -81 
Q 1113 -81 722 384 
Q 331 850 331 1616 
Q 331 2500 759 3019 
Q 1188 3538 1913 3538 
Q 2616 3538 2956 2972 
L 2969 2972 
L 2969 3456 
L 3488 3456 
L 3488 272 
z
M 2969 2081 
Q 2969 2503 2678 2798 
Q 2388 3094 1978 3094 
Q 1459 3094 1161 2712 
Q 863 2331 863 1653 
Q 863 1066 1150 714 
Q 1438 363 1897 363 
Q 2363 363 2666 698 
Q 2969 1034 2969 1556 
L 2969 2081 
z
" transform="scale(0.015625)"/>
        <path id="MicrosoftJhengHeiRegular-6e" d="M 3406 0 
L 2884 0 
L 2884 1975 
Q 2884 3094 2066 3094 
Q 1638 3094 1363 2773 
Q 1088 2453 1088 1972 
L 1088 0 
L 566 0 
L 566 3456 
L 1088 3456 
L 1088 2878 
L 1103 2878 
Q 1491 3538 2238 3538 
Q 2806 3538 3106 3172 
Q 3406 2806 3406 2113 
L 3406 0 
z
" transform="scale(0.015625)"/>
        <path id="MicrosoftJhengHeiRegular-61" d="M 647 3209 
Q 1156 3538 1813 3538 
Q 3016 3538 3016 2259 
L 3016 0 
L 2494 0 
L 2494 544 
L 2475 544 
Q 2116 -81 1413 -81 
Q 900 -81 604 192 
Q 309 466 309 916 
Q 309 1875 1447 2038 
L 2491 2188 
Q 2491 3088 1772 3088 
Q 1144 3088 647 2659 
L 647 3209 
z
M 1644 1641 
Q 1200 1581 1026 1426 
Q 853 1272 853 950 
Q 853 691 1039 528 
Q 1225 366 1525 366 
Q 1941 366 2216 662 
Q 2491 959 2491 1403 
L 2491 1753 
L 1644 1641 
z
" transform="scale(0.015625)"/>
        <path id="MicrosoftJhengHeiRegular-6c" d="M 569 0 
L 569 5116 
L 1088 5116 
L 1088 0 
L 569 0 
z
" transform="scale(0.015625)"/>
        <path id="MicrosoftJhengHeiRegular-20" transform="scale(0.015625)"/>
        <path id="MicrosoftJhengHeiRegular-48" d="M 4241 0 
L 3709 0 
L 3709 2222 
L 1172 2222 
L 1172 0 
L 641 0 
L 641 4841 
L 1172 4841 
L 1172 2703 
L 3709 2703 
L 3709 4841 
L 4241 4841 
L 4241 0 
z
" transform="scale(0.015625)"/>
        <path id="MicrosoftJhengHeiRegular-41" d="M 4353 0 
L 3763 0 
L 3238 1375 
L 1163 1375 
L 672 0 
L 78 0 
L 1941 4841 
L 2481 4841 
L 4353 0 
z
M 3056 1863 
L 2281 3953 
Q 2250 4041 2209 4272 
L 2194 4272 
Q 2159 4059 2116 3953 
L 1350 1863 
L 3056 1863 
z
" transform="scale(0.015625)"/>
        <path id="MicrosoftJhengHeiRegular-44" d="M 641 0 
L 641 4841 
L 1953 4841 
Q 4506 4841 4506 2481 
Q 4506 1350 3818 675 
Q 3131 0 1903 0 
L 641 0 
z
M 1172 4353 
L 1172 488 
L 1909 488 
Q 2875 488 3412 1006 
Q 3950 1525 3950 2466 
Q 3950 4353 1941 4353 
L 1172 4353 
z
" transform="scale(0.015625)"/>
        <path id="MicrosoftJhengHeiRegular-4e" d="M 4513 0 
L 3844 0 
L 1319 3909 
Q 1234 4047 1169 4200 
L 1150 4200 
Q 1175 4050 1175 3550 
L 1175 0 
L 641 0 
L 641 4841 
L 1347 4841 
L 3803 972 
Q 3991 672 4000 641 
L 4013 641 
Q 3978 881 3978 1369 
L 3978 4841 
L 4513 4841 
L 4513 0 
z
" transform="scale(0.015625)"/>
       </defs>
       <use xlink:href="#MicrosoftJhengHeiRegular-6f"/>
       <use xlink:href="#MicrosoftJhengHeiRegular-72" x="63.085938"/>
       <use xlink:href="#MicrosoftJhengHeiRegular-69" x="100.292969"/>
       <use xlink:href="#MicrosoftJhengHeiRegular-67" x="126.220703"/>
       <use xlink:href="#MicrosoftJhengHeiRegular-69" x="189.599609"/>
       <use xlink:href="#MicrosoftJhengHeiRegular-6e" x="215.527344"/>
       <use xlink:href="#MicrosoftJhengHeiRegular-61" x="276.367188"/>
       <use xlink:href="#MicrosoftJhengHeiRegular-6c" x="331.103516"/>
       <use xlink:href="#MicrosoftJhengHeiRegular-20" x="357.03125"/>
       <use xlink:href="#MicrosoftJhengHeiRegular-48" x="382.03125"/>
       <use xlink:href="#MicrosoftJhengHeiRegular-41" x="458.300781"/>
       <use xlink:href="#MicrosoftJhengHeiRegular-44" x="527.587891"/>
       <use xlink:href="#MicrosoftJhengHeiRegular-4e" x="603.076172"/>
       <use xlink:href="#MicrosoftJhengHeiRegular-4e" x="683.59375"/>
      </g>
     </g>
    </g>
    <g id="xtick_2">
     <g id="line2d_2">
      <g>
       <use xlink:href="#m858cd850af" x="517.54" y="507.688671" style="stroke: #000000; stroke-width: 0.8"/>
      </g>
     </g>
     <g id="text_2">
      <!-- mlp -->
      <g transform="translate(509.473403 527.114886) rotate(-15) scale(0.1 -0.1)">
       <defs>
        <path id="MicrosoftJhengHeiRegular-6d" d="M 5438 0 
L 4916 0 
L 4916 1984 
Q 4916 2588 4733 2841 
Q 4550 3094 4128 3094 
Q 3775 3094 3519 2762 
Q 3263 2431 3263 1975 
L 3263 0 
L 2744 0 
L 2744 2056 
Q 2744 3094 1941 3094 
Q 1572 3094 1330 2778 
Q 1088 2463 1088 1975 
L 1088 0 
L 566 0 
L 566 3456 
L 1088 3456 
L 1088 2909 
L 1103 2909 
Q 1466 3538 2172 3538 
Q 2509 3538 2779 3339 
Q 3050 3141 3147 2816 
Q 3531 3538 4297 3538 
Q 5438 3538 5438 2128 
L 5438 0 
z
" transform="scale(0.015625)"/>
        <path id="MicrosoftJhengHeiRegular-70" d="M 1088 506 
L 1088 -1591 
L 566 -1591 
L 566 3456 
L 1088 3456 
L 1088 2844 
L 1103 2844 
Q 1513 3538 2300 3538 
Q 2959 3538 3340 3077 
Q 3722 2616 3722 1828 
Q 3722 966 3295 442 
Q 2869 -81 2141 -81 
Q 1466 -81 1103 506 
L 1088 506 
z
M 1088 1400 
Q 1088 966 1378 664 
Q 1669 363 2094 363 
Q 2603 363 2895 756 
Q 3188 1150 3188 1844 
Q 3188 2428 2913 2761 
Q 2638 3094 2181 3094 
Q 1706 3094 1397 2758 
Q 1088 2422 1088 1900 
L 1088 1400 
z
" transform="scale(0.015625)"/>
       </defs>
       <use xlink:href="#MicrosoftJhengHeiRegular-6d"/>
       <use xlink:href="#MicrosoftJhengHeiRegular-6c" x="92.626953"/>
       <use xlink:href="#MicrosoftJhengHeiRegular-70" x="118.554688"/>
      </g>
     </g>
    </g>
    <g id="xtick_3">
     <g id="line2d_3">
      <g>
       <use xlink:href="#m858cd850af" x="862.969091" y="507.688671" style="stroke: #000000; stroke-width: 0.8"/>
      </g>
     </g>
     <g id="text_3">
      <!-- hadnn+rf -->
      <g transform="translate(842.097185 533.97723) rotate(-15) scale(0.1 -0.1)">
       <defs>
        <path id="MicrosoftJhengHeiRegular-68" d="M 3406 0 
L 2888 0 
L 2888 1994 
Q 2888 3094 2066 3094 
Q 1650 3094 1369 2775 
Q 1088 2456 1088 1956 
L 1088 0 
L 566 0 
L 566 5116 
L 1088 5116 
L 1088 2878 
L 1103 2878 
Q 1500 3538 2241 3538 
Q 3406 3538 3406 2128 
L 3406 0 
z
" transform="scale(0.015625)"/>
        <path id="MicrosoftJhengHeiRegular-64" d="M 3488 0 
L 2969 0 
L 2969 594 
L 2956 594 
Q 2572 -81 1763 -81 
Q 1106 -81 718 386 
Q 331 853 331 1647 
Q 331 2497 765 3017 
Q 1200 3538 1913 3538 
Q 2625 3538 2956 2972 
L 2969 2972 
L 2969 5116 
L 3488 5116 
L 3488 0 
z
M 2969 2081 
Q 2969 2506 2680 2800 
Q 2391 3094 1972 3094 
Q 1453 3094 1158 2711 
Q 863 2328 863 1675 
Q 863 1078 1145 720 
Q 1428 363 1906 363 
Q 2366 363 2667 698 
Q 2969 1034 2969 1556 
L 2969 2081 
z
" transform="scale(0.015625)"/>
        <path id="MicrosoftJhengHeiRegular-2b" d="M 3947 1797 
L 2578 1797 
L 2578 434 
L 2147 434 
L 2147 1797 
L 784 1797 
L 784 2234 
L 2147 2234 
L 2147 3597 
L 2578 3597 
L 2578 2234 
L 3947 2234 
L 3947 1797 
z
" transform="scale(0.015625)"/>
        <path id="MicrosoftJhengHeiRegular-66" d="M 2241 4653 
Q 2075 4744 1872 4744 
Q 1288 4744 1288 4000 
L 1288 3456 
L 2097 3456 
L 2097 3006 
L 1288 3006 
L 1288 0 
L 772 0 
L 772 3006 
L 181 3006 
L 181 3456 
L 772 3456 
L 772 4025 
Q 772 4572 1083 4881 
Q 1394 5191 1847 5191 
Q 2100 5191 2241 5131 
L 2241 4653 
z
" transform="scale(0.015625)"/>
       </defs>
       <use xlink:href="#MicrosoftJhengHeiRegular-68"/>
       <use xlink:href="#MicrosoftJhengHeiRegular-61" x="60.888672"/>
       <use xlink:href="#MicrosoftJhengHeiRegular-64" x="115.625"/>
       <use xlink:href="#MicrosoftJhengHeiRegular-6e" x="179.003906"/>
       <use xlink:href="#MicrosoftJhengHeiRegular-6e" x="239.84375"/>
       <use xlink:href="#MicrosoftJhengHeiRegular-2b" x="300.683594"/>
       <use xlink:href="#MicrosoftJhengHeiRegular-72" x="374.414062"/>
       <use xlink:href="#MicrosoftJhengHeiRegular-66" x="413.621094"/>
      </g>
     </g>
    </g>
    <g id="text_4">
     <!-- 模型 -->
     <g transform="translate(507.54 556.636662) scale(0.1 -0.1)">
      <defs>
       <path id="MicrosoftJhengHeiRegular-6a21" d="M 5978 4441 
L 5063 4441 
L 5063 4078 
L 4744 4078 
L 4744 4441 
L 4269 4441 
L 4269 4744 
L 4744 4744 
L 4744 5275 
L 5063 5275 
L 5063 4744 
L 5978 4744 
L 5978 4441 
z
M 4025 4441 
L 3603 4441 
L 3603 4078 
L 3263 4078 
L 3263 4441 
L 2322 4441 
L 2322 4744 
L 3263 4744 
L 3263 5275 
L 3603 5275 
L 3603 4744 
L 4025 4744 
L 4025 4441 
z
M 2431 2444 
L 2181 2234 
Q 1878 2763 1703 2994 
L 1703 -341 
L 1375 -341 
L 1375 2816 
Q 1056 2041 628 1422 
L 403 1672 
Q 984 2497 1369 3634 
L 500 3634 
L 500 3950 
L 1375 3950 
L 1375 5275 
L 1703 5275 
L 1703 3950 
L 2344 3950 
L 2344 3634 
L 1703 3634 
L 1703 3494 
Q 2128 2969 2431 2444 
z
M 5947 991 
L 4109 991 
Q 3838 -25 2369 -341 
L 2181 -44 
Q 3481 191 3775 991 
L 2247 991 
L 2247 1300 
L 3847 1300 
Q 3909 1647 3909 1856 
L 2747 1856 
L 2747 3834 
L 5569 3834 
L 5569 1856 
L 4244 1856 
Q 4234 1619 4184 1300 
L 5947 1300 
L 5947 991 
z
M 5253 3016 
L 5253 3531 
L 3059 3531 
L 3059 3016 
L 5253 3016 
z
M 5253 2156 
L 5253 2719 
L 3059 2719 
L 3059 2156 
L 5253 2156 
z
M 6028 -63 
L 5825 -325 
Q 5241 103 4319 531 
L 4531 788 
Q 5369 400 6028 -63 
z
" transform="scale(0.015625)"/>
       <path id="MicrosoftJhengHeiRegular-578b" d="M 5703 2291 
Q 5703 2109 5600 1992 
Q 5497 1875 5369 1842 
Q 5241 1809 4888 1809 
Q 4700 1809 4422 1819 
L 4281 2169 
Q 4603 2141 4881 2141 
Q 5147 2141 5215 2158 
Q 5284 2175 5329 2256 
Q 5375 2338 5375 2444 
L 5375 5234 
L 5703 5234 
L 5703 2291 
z
M 3834 3406 
L 2919 3406 
L 2919 1959 
L 2591 1959 
L 2591 3406 
L 1734 3406 
Q 1663 2456 819 1791 
L 550 2016 
Q 1347 2647 1409 3406 
L 469 3406 
L 469 3731 
L 1428 3731 
Q 1459 4306 1459 4775 
L 659 4775 
L 659 5088 
L 3750 5088 
L 3750 4775 
L 2919 4775 
L 2919 3731 
L 3834 3731 
L 3834 3406 
z
M 2591 3731 
L 2591 4775 
L 1791 4775 
Q 1791 4397 1753 3731 
L 2591 3731 
z
M 4594 2816 
L 4269 2816 
L 4269 4953 
L 4594 4953 
L 4594 2816 
z
M 5991 -184 
L 428 -184 
L 428 134 
L 3059 134 
L 3059 1038 
L 844 1038 
L 844 1350 
L 3059 1350 
L 3059 2022 
L 3391 2022 
L 3391 1350 
L 5563 1350 
L 5563 1038 
L 3391 1038 
L 3391 134 
L 5991 134 
L 5991 -184 
z
" transform="scale(0.015625)"/>
      </defs>
      <use xlink:href="#MicrosoftJhengHeiRegular-6a21"/>
      <use xlink:href="#MicrosoftJhengHeiRegular-578b" x="100"/>
     </g>
    </g>
   </g>
   <g id="matplotlib.axis_2">
    <g id="ytick_1">
     <g id="line2d_4">
      <path d="M 42.575 489.462212 
L 992.505 489.462212 
" clip-path="url(#pfa13a79453)" style="fill: none; stroke-dasharray: 2.96,1.28; stroke-dashoffset: 0; stroke: #b0b0b0; stroke-opacity: 0.7; stroke-width: 0.8"/>
     </g>
     <g id="line2d_5">
      <defs>
       <path id="mc0f519f762" d="M 0 0 
L -3.5 0 
" style="stroke: #000000; stroke-width: 0.8"/>
      </defs>
      <g>
       <use xlink:href="#mc0f519f762" x="42.575" y="489.462212" style="stroke: #000000; stroke-width: 0.8"/>
      </g>
     </g>
     <g id="text_5">
      <!-- 0.0 -->
      <g transform="translate(21.679688 493.459087) scale(0.1 -0.1)">
       <defs>
        <path id="MicrosoftJhengHeiRegular-30" d="M 294 2322 
Q 294 3603 711 4262 
Q 1128 4922 1916 4922 
Q 3425 4922 3425 2441 
Q 3425 1234 3011 576 
Q 2597 -81 1806 -81 
Q 1069 -81 681 550 
Q 294 1181 294 2322 
z
M 825 2350 
Q 825 363 1863 363 
Q 2891 363 2891 2378 
Q 2891 4475 1888 4475 
Q 825 4475 825 2350 
z
" transform="scale(0.015625)"/>
        <path id="MicrosoftJhengHeiRegular-2e" d="M 375 291 
Q 375 444 484 551 
Q 594 659 738 659 
Q 888 659 994 551 
Q 1100 444 1100 291 
Q 1100 141 992 33 
Q 884 -75 738 -75 
Q 594 -75 484 29 
Q 375 134 375 291 
z
" transform="scale(0.015625)"/>
       </defs>
       <use xlink:href="#MicrosoftJhengHeiRegular-30"/>
       <use xlink:href="#MicrosoftJhengHeiRegular-2e" x="57.958984"/>
       <use xlink:href="#MicrosoftJhengHeiRegular-30" x="81.005859"/>
      </g>
     </g>
    </g>
    <g id="ytick_2">
     <g id="line2d_6">
      <path d="M 42.575 419.519623 
L 992.505 419.519623 
" clip-path="url(#pfa13a79453)" style="fill: none; stroke-dasharray: 2.96,1.28; stroke-dashoffset: 0; stroke: #b0b0b0; stroke-opacity: 0.7; stroke-width: 0.8"/>
     </g>
     <g id="line2d_7">
      <g>
       <use xlink:href="#mc0f519f762" x="42.575" y="419.519623" style="stroke: #000000; stroke-width: 0.8"/>
      </g>
     </g>
     <g id="text_6">
      <!-- 0.5 -->
      <g transform="translate(21.679688 423.516498) scale(0.1 -0.1)">
       <defs>
        <path id="MicrosoftJhengHeiRegular-35" d="M 553 684 
Q 1047 363 1559 363 
Q 2072 363 2394 658 
Q 2716 953 2716 1441 
Q 2716 1931 2394 2200 
Q 2072 2469 1466 2469 
Q 1275 2469 706 2431 
L 706 4841 
L 3025 4841 
L 3025 4366 
L 1203 4366 
L 1203 2916 
Q 1475 2931 1616 2931 
Q 2378 2931 2811 2548 
Q 3244 2166 3244 1472 
Q 3244 750 2775 334 
Q 2306 -81 1544 -81 
Q 875 -81 553 119 
L 553 684 
z
" transform="scale(0.015625)"/>
       </defs>
       <use xlink:href="#MicrosoftJhengHeiRegular-30"/>
       <use xlink:href="#MicrosoftJhengHeiRegular-2e" x="57.958984"/>
       <use xlink:href="#MicrosoftJhengHeiRegular-35" x="81.005859"/>
      </g>
     </g>
    </g>
    <g id="ytick_3">
     <g id="line2d_8">
      <path d="M 42.575 349.577034 
L 992.505 349.577034 
" clip-path="url(#pfa13a79453)" style="fill: none; stroke-dasharray: 2.96,1.28; stroke-dashoffset: 0; stroke: #b0b0b0; stroke-opacity: 0.7; stroke-width: 0.8"/>
     </g>
     <g id="line2d_9">
      <g>
       <use xlink:href="#mc0f519f762" x="42.575" y="349.577034" style="stroke: #000000; stroke-width: 0.8"/>
      </g>
     </g>
     <g id="text_7">
      <!-- 1.0 -->
      <g transform="translate(21.679688 353.573909) scale(0.1 -0.1)">
       <defs>
        <path id="MicrosoftJhengHeiRegular-31" d="M 3313 0 
L 594 0 
L 594 466 
L 1694 466 
L 1694 4272 
L 566 3931 
L 566 4434 
L 2216 4950 
L 2216 466 
L 3313 466 
L 3313 0 
z
" transform="scale(0.015625)"/>
       </defs>
       <use xlink:href="#MicrosoftJhengHeiRegular-31"/>
       <use xlink:href="#MicrosoftJhengHeiRegular-2e" x="57.958984"/>
       <use xlink:href="#MicrosoftJhengHeiRegular-30" x="81.005859"/>
      </g>
     </g>
    </g>
    <g id="ytick_4">
     <g id="line2d_10">
      <path d="M 42.575 279.634445 
L 992.505 279.634445 
" clip-path="url(#pfa13a79453)" style="fill: none; stroke-dasharray: 2.96,1.28; stroke-dashoffset: 0; stroke: #b0b0b0; stroke-opacity: 0.7; stroke-width: 0.8"/>
     </g>
     <g id="line2d_11">
      <g>
       <use xlink:href="#mc0f519f762" x="42.575" y="279.634445" style="stroke: #000000; stroke-width: 0.8"/>
      </g>
     </g>
     <g id="text_8">
      <!-- 1.5 -->
      <g transform="translate(21.679688 283.63132) scale(0.1 -0.1)">
       <use xlink:href="#MicrosoftJhengHeiRegular-31"/>
       <use xlink:href="#MicrosoftJhengHeiRegular-2e" x="57.958984"/>
       <use xlink:href="#MicrosoftJhengHeiRegular-35" x="81.005859"/>
      </g>
     </g>
    </g>
    <g id="ytick_5">
     <g id="line2d_12">
      <path d="M 42.575 209.691856 
L 992.505 209.691856 
" clip-path="url(#pfa13a79453)" style="fill: none; stroke-dasharray: 2.96,1.28; stroke-dashoffset: 0; stroke: #b0b0b0; stroke-opacity: 0.7; stroke-width: 0.8"/>
     </g>
     <g id="line2d_13">
      <g>
       <use xlink:href="#mc0f519f762" x="42.575" y="209.691856" style="stroke: #000000; stroke-width: 0.8"/>
      </g>
     </g>
     <g id="text_9">
      <!-- 2.0 -->
      <g transform="translate(21.679688 213.688731) scale(0.1 -0.1)">
       <defs>
        <path id="MicrosoftJhengHeiRegular-32" d="M 3219 0 
L 322 0 
L 322 472 
L 1731 1891 
Q 2431 2597 2592 2914 
Q 2753 3231 2753 3588 
Q 2753 4016 2511 4247 
Q 2269 4478 1816 4478 
Q 1169 4478 572 3919 
L 572 4475 
Q 1131 4922 1884 4922 
Q 2509 4922 2886 4575 
Q 3263 4228 3263 3634 
Q 3263 3178 3014 2736 
Q 2766 2294 2075 1603 
L 947 488 
L 947 475 
L 3219 475 
L 3219 0 
z
" transform="scale(0.015625)"/>
       </defs>
       <use xlink:href="#MicrosoftJhengHeiRegular-32"/>
       <use xlink:href="#MicrosoftJhengHeiRegular-2e" x="57.958984"/>
       <use xlink:href="#MicrosoftJhengHeiRegular-30" x="81.005859"/>
      </g>
     </g>
    </g>
    <g id="ytick_6">
     <g id="line2d_14">
      <path d="M 42.575 139.749266 
L 992.505 139.749266 
" clip-path="url(#pfa13a79453)" style="fill: none; stroke-dasharray: 2.96,1.28; stroke-dashoffset: 0; stroke: #b0b0b0; stroke-opacity: 0.7; stroke-width: 0.8"/>
     </g>
     <g id="line2d_15">
      <g>
       <use xlink:href="#mc0f519f762" x="42.575" y="139.749266" style="stroke: #000000; stroke-width: 0.8"/>
      </g>
     </g>
     <g id="text_10">
      <!-- 2.5 -->
      <g transform="translate(21.679688 143.746141) scale(0.1 -0.1)">
       <use xlink:href="#MicrosoftJhengHeiRegular-32"/>
       <use xlink:href="#MicrosoftJhengHeiRegular-2e" x="57.958984"/>
       <use xlink:href="#MicrosoftJhengHeiRegular-35" x="81.005859"/>
      </g>
     </g>
    </g>
    <g id="ytick_7">
     <g id="line2d_16">
      <path d="M 42.575 69.806677 
L 992.505 69.806677 
" clip-path="url(#pfa13a79453)" style="fill: none; stroke-dasharray: 2.96,1.28; stroke-dashoffset: 0; stroke: #b0b0b0; stroke-opacity: 0.7; stroke-width: 0.8"/>
     </g>
     <g id="line2d_17">
      <g>
       <use xlink:href="#mc0f519f762" x="42.575" y="69.806677" style="stroke: #000000; stroke-width: 0.8"/>
      </g>
     </g>
     <g id="text_11">
      <!-- 3.0 -->
      <g transform="translate(21.679688 73.803552) scale(0.1 -0.1)">
       <defs>
        <path id="MicrosoftJhengHeiRegular-33" d="M 438 756 
Q 934 363 1556 363 
Q 2056 363 2370 616 
Q 2684 869 2684 1313 
Q 2684 2281 1319 2281 
L 919 2281 
L 919 2728 
L 1300 2728 
Q 2513 2728 2513 3634 
Q 2513 4475 1588 4475 
Q 1075 4475 625 4122 
L 625 4644 
Q 1088 4922 1719 4922 
Q 2294 4922 2670 4606 
Q 3047 4291 3047 3769 
Q 3047 2819 2075 2538 
L 2075 2525 
Q 2591 2481 2905 2162 
Q 3219 1844 3219 1369 
Q 3219 706 2742 312 
Q 2266 -81 1525 -81 
Q 844 -81 438 178 
L 438 756 
z
" transform="scale(0.015625)"/>
       </defs>
       <use xlink:href="#MicrosoftJhengHeiRegular-33"/>
       <use xlink:href="#MicrosoftJhengHeiRegular-2e" x="57.958984"/>
       <use xlink:href="#MicrosoftJhengHeiRegular-30" x="81.005859"/>
      </g>
     </g>
    </g>
    <g id="text_12">
     <!-- 位置預測誤差 (公尺) -->
     <g transform="translate(15.19375 309.698398) rotate(-90) scale(0.1 -0.1)">
      <defs>
       <path id="MicrosoftJhengHeiRegular-4f4d" d="M 6016 -172 
L 1900 -172 
L 1900 159 
L 3194 159 
Q 3031 1716 2478 3597 
L 2700 3719 
L 1984 3719 
L 1984 4050 
L 3884 4050 
Q 3750 4634 3500 5178 
L 3822 5288 
Q 4053 4759 4244 4050 
L 5913 4050 
L 5913 3719 
L 5269 3719 
L 5472 3641 
Q 5191 1675 4716 159 
L 6016 159 
L 6016 -172 
z
M 5125 3719 
L 2816 3719 
Q 3334 1778 3547 159 
L 4372 159 
Q 4925 1928 5125 3719 
z
M 2131 5147 
Q 2009 4856 1803 4447 
L 1594 4044 
L 1594 -325 
L 1253 -325 
L 1253 3425 
Q 966 2963 544 2456 
L 331 2772 
Q 1222 3825 1791 5269 
L 2131 5147 
z
" transform="scale(0.015625)"/>
       <path id="MicrosoftJhengHeiRegular-7f6e" d="M 5991 -184 
L 453 -184 
L 453 97 
L 1203 97 
L 1203 2803 
L 2694 2803 
L 2853 3256 
L 500 3256 
L 500 3547 
L 2956 3547 
L 3078 3969 
L 756 3969 
L 756 5119 
L 5663 5119 
L 5663 3969 
L 3425 3969 
L 3297 3547 
L 5894 3547 
L 5894 3256 
L 3194 3256 
L 3047 2803 
L 5228 2803 
L 5228 97 
L 5991 97 
L 5991 -184 
z
M 5331 4231 
L 5331 4844 
L 4147 4844 
L 4147 4231 
L 5331 4231 
z
M 3816 4231 
L 3816 4844 
L 2613 4844 
L 2613 4231 
L 3816 4231 
z
M 2278 4231 
L 2278 4844 
L 1081 4844 
L 1081 4231 
L 2278 4231 
z
M 4903 2138 
L 4903 2534 
L 1538 2534 
L 1538 2138 
L 4903 2138 
z
M 4903 1478 
L 4903 1875 
L 1538 1875 
L 1538 1478 
L 4903 1478 
z
M 4903 781 
L 4903 1222 
L 1538 1222 
L 1538 781 
L 4903 781 
z
M 4903 97 
L 4903 513 
L 1538 513 
L 1538 97 
L 4903 97 
z
" transform="scale(0.015625)"/>
       <path id="MicrosoftJhengHeiRegular-9810" d="M 6009 4794 
L 4588 4794 
Q 4519 4447 4384 4063 
L 5703 4063 
L 5703 947 
L 4031 947 
L 4231 744 
Q 3759 156 2894 -378 
L 2675 -91 
Q 3456 341 3969 947 
L 3150 947 
L 3150 4063 
L 4038 4063 
Q 4166 4381 4250 4794 
L 2925 4794 
L 2925 5119 
L 6009 5119 
L 6009 4794 
z
M 5375 3163 
L 5375 3744 
L 3475 3744 
L 3475 3163 
L 5375 3163 
z
M 5375 2234 
L 5375 2853 
L 3475 2853 
L 3475 2234 
L 5375 2234 
z
M 5375 1269 
L 5375 1931 
L 3475 1931 
L 3475 1269 
L 5375 1269 
z
M 2881 3084 
Q 2719 2138 2369 1631 
L 2081 1831 
Q 2366 2228 2478 2753 
L 1753 2753 
L 1753 122 
Q 1753 -56 1608 -197 
Q 1463 -338 703 -306 
L 609 19 
Q 1219 19 1283 26 
Q 1347 34 1397 96 
Q 1447 159 1447 213 
L 1447 2753 
L 441 2753 
L 441 3084 
L 1838 3084 
Q 1450 3513 666 4072 
L 844 4319 
Q 1059 4184 1478 3853 
Q 1991 4363 2234 4728 
L 594 4728 
L 594 5044 
L 2644 5044 
L 2644 4728 
Q 2175 4094 1734 3641 
Q 2006 3403 2150 3219 
L 2041 3084 
L 2881 3084 
z
M 5991 -78 
L 5778 -341 
Q 5194 175 4569 513 
L 4775 763 
Q 5513 338 5991 -78 
z
" transform="scale(0.015625)"/>
       <path id="MicrosoftJhengHeiRegular-6e2c" d="M 5797 128 
Q 5797 -150 5633 -242 
Q 5469 -334 5038 -334 
Q 4800 -334 4563 -319 
L 4481 0 
Q 5288 0 5383 28 
Q 5478 56 5478 225 
L 5478 5253 
L 5797 5253 
L 5797 128 
z
M 1813 4453 
L 1581 4206 
Q 1156 4666 609 5013 
L 794 5253 
Q 1409 4906 1813 4453 
z
M 3853 1075 
L 2578 1075 
L 2766 947 
Q 2406 209 1863 -353 
L 1600 -134 
Q 2138 397 2463 1075 
L 2016 1075 
L 2016 5125 
L 3853 5125 
L 3853 1075 
z
M 3541 3928 
L 3541 4813 
L 2338 4813 
L 2338 3928 
L 3541 3928 
z
M 3541 2681 
L 3541 3609 
L 2338 3609 
L 2338 2681 
L 3541 2681 
z
M 3541 1394 
L 3541 2369 
L 2338 2369 
L 2338 1394 
L 3541 1394 
z
M 4769 825 
L 4447 825 
L 4447 4844 
L 4769 4844 
L 4769 825 
z
M 1594 2803 
L 1356 2572 
Q 994 3019 403 3456 
L 622 3713 
Q 1266 3209 1594 2803 
z
M 1631 1747 
Q 1059 238 678 -325 
L 428 -109 
Q 959 753 1338 1906 
L 1631 1747 
z
M 4019 -25 
L 3744 -191 
Q 3513 350 3116 813 
L 3378 991 
Q 3816 463 4019 -25 
z
" transform="scale(0.015625)"/>
       <path id="MicrosoftJhengHeiRegular-8aa4" d="M 2463 4294 
L 441 4294 
L 441 4609 
L 1325 4609 
Q 1238 4888 1075 5222 
L 1394 5331 
Q 1591 4931 1691 4609 
L 2463 4609 
L 2463 4294 
z
M 5484 3469 
L 3572 3469 
L 3572 5131 
L 5484 5131 
L 5484 3469 
z
M 5172 3775 
L 5172 4813 
L 3891 4813 
L 3891 3775 
L 5172 3775 
z
M 6009 1394 
L 4269 1394 
Q 4038 75 2650 -313 
L 2456 -38 
Q 3716 225 3938 1394 
L 2497 1394 
L 2497 1709 
L 3988 1709 
Q 4028 1994 4050 2606 
L 2741 2606 
L 2741 4697 
L 3066 4697 
L 3066 2925 
L 5703 2925 
L 5703 1709 
L 6009 1709 
L 6009 1394 
z
M 5369 1709 
L 5369 2606 
L 4384 2606 
Q 4359 2109 4325 1709 
L 5369 1709 
z
M 2322 3366 
L 569 3366 
L 569 3681 
L 2322 3681 
L 2322 3366 
z
M 2322 2438 
L 575 2438 
L 575 2753 
L 2322 2753 
L 2322 2438 
z
M 2216 -184 
L 1894 -184 
L 1894 172 
L 959 172 
L 959 -306 
L 641 -306 
L 641 1831 
L 2216 1831 
L 2216 -184 
z
M 1894 494 
L 1894 1509 
L 959 1509 
L 959 494 
L 1894 494 
z
M 5966 -109 
L 5728 -331 
Q 5384 72 4494 775 
L 4684 1019 
Q 5438 478 5966 -109 
z
" transform="scale(0.015625)"/>
       <path id="MicrosoftJhengHeiRegular-5dee" d="M 4916 5113 
Q 4613 4759 4281 4556 
L 4006 4769 
Q 4378 5009 4634 5319 
L 4916 5113 
z
M 2566 4728 
L 2284 4538 
Q 2078 4813 1703 5106 
L 1978 5313 
Q 2378 4997 2566 4728 
z
M 5997 2138 
L 2094 2138 
Q 2009 684 678 -166 
L 434 97 
Q 1688 828 1753 2138 
L 488 2138 
L 488 2444 
L 3072 2444 
L 3072 3116 
L 878 3116 
L 878 3431 
L 3072 3431 
L 3072 4103 
L 684 4103 
L 684 4409 
L 5819 4409 
L 5819 4103 
L 3406 4103 
L 3406 3431 
L 5569 3431 
L 5569 3116 
L 3406 3116 
L 3406 2444 
L 5997 2444 
L 5997 2138 
z
M 6009 -213 
L 1684 -213 
L 1684 103 
L 3681 103 
L 3681 1131 
L 2228 1131 
L 2228 1453 
L 5703 1453 
L 5703 1131 
L 4031 1131 
L 4031 103 
L 6009 103 
L 6009 -213 
z
" transform="scale(0.015625)"/>
       <path id="MicrosoftJhengHeiRegular-28" d="M 1513 -1100 
Q 469 94 469 1847 
Q 469 3609 1513 4841 
L 1988 4841 
Q 925 3556 925 1853 
Q 925 159 1981 -1100 
L 1513 -1100 
z
" transform="scale(0.015625)"/>
       <path id="MicrosoftJhengHeiRegular-516c" d="M 2663 5153 
Q 2097 3406 628 2350 
L 372 2606 
Q 1781 3563 2328 5269 
L 2663 5153 
z
M 6047 2656 
L 5831 2375 
Q 4681 3125 3994 4844 
L 3566 4844 
L 3566 5191 
L 4256 5191 
Q 4819 3456 6047 2656 
z
M 5569 -213 
L 5269 -384 
Q 5069 109 4872 428 
Q 3059 -41 1269 -197 
L 1172 128 
Q 2150 1278 3041 3419 
L 3366 3278 
Q 2556 1356 1672 184 
Q 2909 272 4703 728 
Q 4416 1238 3922 1913 
L 4219 2088 
Q 5106 866 5569 -213 
z
" transform="scale(0.015625)"/>
       <path id="MicrosoftJhengHeiRegular-5c3a" d="M 6053 -31 
L 5856 -366 
Q 4309 13 3332 755 
Q 2356 1497 1797 2772 
L 1656 2772 
Q 1609 656 666 -306 
L 409 -63 
Q 1313 831 1313 3066 
L 1313 5125 
L 5581 5125 
L 5581 2772 
L 2169 2772 
Q 2891 1341 3995 739 
Q 5100 138 6053 -31 
z
M 5228 3116 
L 5228 4788 
L 1678 4788 
L 1678 3116 
L 5228 3116 
z
" transform="scale(0.015625)"/>
       <path id="MicrosoftJhengHeiRegular-29" d="M 84 -1100 
Q 1138 153 1138 1853 
Q 1138 3563 75 4841 
L 553 4841 
Q 1603 3609 1603 1847 
Q 1603 97 553 -1100 
L 84 -1100 
z
" transform="scale(0.015625)"/>
      </defs>
      <use xlink:href="#MicrosoftJhengHeiRegular-4f4d"/>
      <use xlink:href="#MicrosoftJhengHeiRegular-7f6e" x="100"/>
      <use xlink:href="#MicrosoftJhengHeiRegular-9810" x="200"/>
      <use xlink:href="#MicrosoftJhengHeiRegular-6e2c" x="300"/>
      <use xlink:href="#MicrosoftJhengHeiRegular-8aa4" x="400"/>
      <use xlink:href="#MicrosoftJhengHeiRegular-5dee" x="500"/>
      <use xlink:href="#MicrosoftJhengHeiRegular-20" x="600"/>
      <use xlink:href="#MicrosoftJhengHeiRegular-28" x="625"/>
      <use xlink:href="#MicrosoftJhengHeiRegular-516c" x="657.080078"/>
      <use xlink:href="#MicrosoftJhengHeiRegular-5c3a" x="757.080078"/>
      <use xlink:href="#MicrosoftJhengHeiRegular-29" x="857.080078"/>
     </g>
    </g>
   </g>
   <g id="LineCollection_1">
    <path d="M 128.932273 279.851117 
L 215.289545 279.851117 
" clip-path="url(#pfa13a79453)" style="fill: none; stroke: #1f77b4; stroke-width: 1.5"/>
    <path d="M 474.361364 287.90535 
L 560.718636 287.90535 
" clip-path="url(#pfa13a79453)" style="fill: none; stroke: #1f77b4; stroke-width: 1.5"/>
    <path d="M 819.790455 264.777265 
L 906.147727 264.777265 
" clip-path="url(#pfa13a79453)" style="fill: none; stroke: #1f77b4; stroke-width: 1.5"/>
   </g>
   <g id="LineCollection_2">
    <path d="M 128.932273 93.286766 
L 215.289545 93.286766 
" clip-path="url(#pfa13a79453)" style="fill: none; stroke: #1f77b4; stroke-width: 1.5"/>
    <path d="M 474.361364 103.25086 
L 560.718636 103.25086 
" clip-path="url(#pfa13a79453)" style="fill: none; stroke: #1f77b4; stroke-width: 1.5"/>
    <path d="M 819.790455 44.833235 
L 906.147727 44.833235 
" clip-path="url(#pfa13a79453)" style="fill: none; stroke: #1f77b4; stroke-width: 1.5"/>
   </g>
   <g id="LineCollection_3">
    <path d="M 128.932273 478.783182 
L 215.289545 478.783182 
" clip-path="url(#pfa13a79453)" style="fill: none; stroke: #1f77b4; stroke-width: 1.5"/>
    <path d="M 474.361364 485.647936 
L 560.718636 485.647936 
" clip-path="url(#pfa13a79453)" style="fill: none; stroke: #1f77b4; stroke-width: 1.5"/>
    <path d="M 819.790455 483.179111 
L 906.147727 483.179111 
" clip-path="url(#pfa13a79453)" style="fill: none; stroke: #1f77b4; stroke-width: 1.5"/>
   </g>
   <g id="LineCollection_4">
    <path d="M 172.110909 478.783182 
L 172.110909 93.286766 
" clip-path="url(#pfa13a79453)" style="fill: none; stroke: #1f77b4; stroke-width: 1.5"/>
    <path d="M 517.54 485.647936 
L 517.54 103.25086 
" clip-path="url(#pfa13a79453)" style="fill: none; stroke: #1f77b4; stroke-width: 1.5"/>
    <path d="M 862.969091 483.179111 
L 862.969091 44.833235 
" clip-path="url(#pfa13a79453)" style="fill: none; stroke: #1f77b4; stroke-width: 1.5"/>
   </g>
   <g id="LineCollection_5">
    <path d="M 128.932273 277.40403 
L 215.289545 277.40403 
" clip-path="url(#pfa13a79453)" style="fill: none; stroke: #1f77b4; stroke-width: 1.5"/>
    <path d="M 474.361364 283.533774 
L 560.718636 283.533774 
" clip-path="url(#pfa13a79453)" style="fill: none; stroke: #1f77b4; stroke-width: 1.5"/>
    <path d="M 819.790455 261.727276 
L 906.147727 261.727276 
" clip-path="url(#pfa13a79453)" style="fill: none; stroke: #1f77b4; stroke-width: 1.5"/>
   </g>
   <g id="patch_3">
    <path d="M 42.575 507.688671 
L 42.575 22.7925 
" style="fill: none; stroke: #000000; stroke-width: 0.8; stroke-linejoin: miter; stroke-linecap: square"/>
   </g>
   <g id="patch_4">
    <path d="M 992.505 507.688671 
L 992.505 22.7925 
" style="fill: none; stroke: #000000; stroke-width: 0.8; stroke-linejoin: miter; stroke-linecap: square"/>
   </g>
   <g id="patch_5">
    <path d="M 42.575 507.688671 
L 992.505 507.688671 
" style="fill: none; stroke: #000000; stroke-width: 0.8; stroke-linejoin: miter; stroke-linecap: square"/>
   </g>
   <g id="patch_6">
    <path d="M 42.575 22.7925 
L 992.505 22.7925 
" style="fill: none; stroke: #000000; stroke-width: 0.8; stroke-linejoin: miter; stroke-linecap: square"/>
   </g>
   <g id="text_13">
    <!-- 位置預測誤差密度分布 - 設備故障 15% -->
    <g transform="translate(414.213438 16.7925) scale(0.12 -0.12)">
     <defs>
      <path id="MicrosoftJhengHeiRegular-5bc6" d="M 5753 3500 
L 5428 3500 
L 5428 4459 
L 1025 4459 
L 1025 3500 
L 697 3500 
L 697 4781 
L 3097 4781 
Q 3044 4984 2906 5228 
L 3206 5331 
Q 3338 5084 3438 4781 
L 5753 4781 
L 5753 3500 
z
M 3700 3475 
L 3438 3303 
Q 3153 3750 2828 4084 
L 3109 4256 
Q 3406 3959 3700 3475 
z
M 4788 3794 
Q 3894 2753 2509 2053 
Q 2509 1972 2600 1939 
Q 2691 1906 3347 1906 
Q 4028 1906 4218 1961 
Q 4409 2016 4453 2694 
L 4763 2534 
Q 4744 2131 4625 1914 
Q 4506 1697 4334 1645 
Q 4163 1594 3625 1594 
Q 2694 1594 2497 1630 
Q 2300 1666 2194 1894 
Q 1375 1525 603 1247 
L 447 1516 
Q 1416 1853 2163 2216 
L 2163 4031 
L 2497 4031 
L 2497 2388 
Q 3734 3016 4550 3994 
L 4788 3794 
z
M 1941 3547 
Q 1334 2797 678 2297 
L 447 2534 
Q 1034 2959 1672 3731 
L 1941 3547 
z
M 5978 2181 
L 5734 1959 
Q 5353 2522 4716 3138 
L 4959 3341 
Q 5644 2672 5978 2181 
z
M 5331 -331 
L 4997 -331 
L 4997 -166 
L 1088 -166 
L 1088 1147 
L 1422 1147 
L 1422 141 
L 3003 141 
L 3003 1422 
L 3334 1422 
L 3334 141 
L 4997 141 
L 4997 1147 
L 5331 1147 
L 5331 -331 
z
" transform="scale(0.015625)"/>
      <path id="MicrosoftJhengHeiRegular-5ea6" d="M 5941 4422 
L 1319 4422 
L 1319 2638 
Q 1319 897 616 -238 
L 325 -25 
Q 997 1019 997 2963 
L 997 4744 
L 3359 4744 
Q 3219 5003 3047 5222 
L 3419 5313 
Q 3619 5003 3750 4744 
L 5941 4744 
L 5941 4422 
z
M 5941 3397 
L 4838 3397 
L 4838 2356 
L 2541 2356 
L 2541 3397 
L 1569 3397 
L 1569 3713 
L 2541 3713 
L 2541 4238 
L 2875 4238 
L 2875 3713 
L 4506 3713 
L 4506 4238 
L 4838 4238 
L 4838 3713 
L 5941 3713 
L 5941 3397 
z
M 4506 2675 
L 4506 3397 
L 2875 3397 
L 2875 2675 
L 4506 2675 
z
M 6088 -44 
L 5881 -353 
Q 4572 -138 3731 256 
Q 2756 -181 1356 -325 
L 1191 6 
Q 2566 113 3341 447 
Q 2594 903 2194 1625 
L 1953 1625 
L 1953 1959 
L 5191 1959 
L 5191 1625 
Q 4816 894 4084 459 
Q 4803 147 6088 -44 
z
M 4788 1625 
L 2591 1625 
Q 2997 969 3706 628 
Q 4450 1038 4788 1625 
z
" transform="scale(0.015625)"/>
      <path id="MicrosoftJhengHeiRegular-5206" d="M 2688 5141 
Q 1919 3378 647 2503 
L 416 2766 
Q 1650 3591 2350 5241 
L 2688 5141 
z
M 6047 2809 
L 5819 2522 
Q 4553 3422 4063 4878 
L 3584 4878 
L 3584 5222 
L 4300 5222 
Q 4778 3628 6047 2809 
z
M 5013 2894 
Q 4997 1866 4890 1047 
Q 4784 228 4681 31 
Q 4578 -166 4395 -250 
Q 4213 -334 3759 -334 
Q 3563 -334 3250 -319 
L 3175 25 
Q 3525 -6 3822 -6 
Q 4109 -6 4192 31 
Q 4275 69 4336 139 
Q 4397 209 4472 557 
Q 4547 906 4592 1420 
Q 4638 1934 4653 2553 
L 3009 2553 
Q 2794 669 897 -409 
L 691 -141 
Q 2450 847 2644 2553 
L 1434 2553 
L 1434 2894 
L 5013 2894 
z
" transform="scale(0.015625)"/>
      <path id="MicrosoftJhengHeiRegular-5e03" d="M 6022 4500 
L 6016 4159 
L 2925 4159 
Q 2453 3316 1931 2772 
L 3366 2772 
L 3366 3653 
L 3713 3653 
L 3713 2772 
L 5588 2772 
L 5588 544 
Q 5588 31 5044 31 
Q 4609 31 4481 38 
L 4353 403 
Q 4766 381 4956 381 
Q 5150 381 5198 412 
Q 5247 444 5247 513 
L 5247 2425 
L 3713 2425 
L 3713 -347 
L 3366 -347 
L 3366 2425 
L 1913 2425 
L 1913 31 
L 1556 31 
L 1556 2413 
Q 984 1956 691 1759 
L 459 2034 
Q 1797 2859 2522 4159 
L 453 4159 
L 453 4500 
L 2700 4500 
Q 2847 4784 3028 5325 
L 3366 5247 
Q 3250 4866 3084 4500 
L 6022 4500 
z
" transform="scale(0.015625)"/>
      <path id="MicrosoftJhengHeiRegular-2d" d="M 2328 1722 
L 488 1722 
L 488 2138 
L 2328 2138 
L 2328 1722 
z
" transform="scale(0.015625)"/>
      <path id="MicrosoftJhengHeiRegular-8a2d" d="M 2700 4294 
L 434 4294 
L 434 4628 
L 1434 4628 
Q 1350 4906 1178 5191 
L 1472 5325 
Q 1663 5016 1784 4628 
L 2700 4628 
L 2700 4294 
z
M 5978 2950 
L 5356 2950 
Q 4897 2950 4897 3391 
L 4897 4769 
L 3769 4769 
Q 3753 3884 3533 3454 
Q 3313 3025 2925 2778 
L 2675 3009 
Q 3056 3250 3261 3670 
Q 3466 4091 3450 5088 
L 5216 5088 
L 5216 3488 
Q 5216 3272 5428 3272 
L 5978 3272 
L 5978 2950 
z
M 2528 3366 
L 563 3366 
L 563 3688 
L 2528 3688 
L 2528 3366 
z
M 2522 2425 
L 556 2425 
L 556 2747 
L 2522 2747 
L 2522 2425 
z
M 6003 -72 
L 5813 -347 
Q 4841 -25 4313 391 
Q 3697 -47 2778 -313 
L 2578 -38 
Q 3544 247 4031 616 
Q 3369 1225 3066 2247 
L 2847 2247 
L 2847 2572 
L 5528 2572 
L 5528 2247 
Q 5116 1125 4569 609 
Q 5113 219 6003 -72 
z
M 5166 2247 
L 3406 2247 
Q 3738 1303 4306 825 
Q 4878 1353 5166 2247 
z
M 2431 -191 
L 2100 -191 
L 2100 159 
L 941 159 
L 941 -313 
L 609 -313 
L 609 1819 
L 2431 1819 
L 2431 -191 
z
M 2100 488 
L 2100 1478 
L 941 1478 
L 941 488 
L 2100 488 
z
" transform="scale(0.015625)"/>
      <path id="MicrosoftJhengHeiRegular-5099" d="M 1825 5241 
L 1472 4056 
L 1472 -325 
L 1141 -325 
L 1141 3263 
Q 856 2681 616 2328 
L 384 2591 
Q 1094 3663 1509 5356 
L 1825 5241 
z
M 5991 3378 
L 3163 3378 
Q 2984 3059 2834 2859 
L 5613 2859 
L 5613 159 
Q 5613 16 5531 -118 
Q 5450 -253 5314 -300 
Q 5178 -347 4763 -331 
L 4628 -13 
Q 4841 -22 4991 -22 
Q 5300 -22 5300 197 
L 5300 850 
L 4250 850 
L 4250 -256 
L 3928 -256 
L 3928 850 
L 2747 850 
Q 2541 144 2075 -359 
L 1844 -141 
Q 2578 672 2578 1850 
L 2578 2541 
Q 2241 2100 1825 1747 
L 1606 1978 
Q 2309 2578 2816 3378 
L 1759 3378 
L 1759 3694 
L 2963 3694 
L 2963 4325 
L 1900 4325 
L 1900 4647 
L 2963 4647 
L 2963 5269 
L 3291 5269 
L 3291 4647 
L 4513 4647 
L 4513 5269 
L 4844 5269 
L 4844 4647 
L 5856 4647 
L 5856 4325 
L 4844 4325 
L 4844 3694 
L 5991 3694 
L 5991 3378 
z
M 4513 3694 
L 4513 4325 
L 3291 4325 
L 3291 3694 
L 4513 3694 
z
M 5300 2022 
L 5300 2553 
L 4250 2553 
L 4250 2022 
L 5300 2022 
z
M 3928 2022 
L 3928 2553 
L 2900 2553 
L 2900 2022 
L 3928 2022 
z
M 5300 1166 
L 5300 1709 
L 4250 1709 
L 4250 1166 
L 5300 1166 
z
M 3928 1166 
L 3928 1709 
L 2888 1709 
Q 2875 1400 2822 1166 
L 3928 1166 
z
" transform="scale(0.015625)"/>
      <path id="MicrosoftJhengHeiRegular-6545" d="M 6053 -72 
L 5838 -372 
Q 4972 122 4525 684 
Q 3984 81 3169 -359 
L 2925 -91 
Q 3828 369 4306 953 
Q 3853 1591 3609 2669 
L 3922 2772 
Q 4131 1806 4506 1234 
Q 5088 2150 5253 3909 
L 3994 3909 
Q 3728 3138 3250 2419 
L 2981 2619 
Q 3744 3775 4019 5288 
L 4366 5269 
Q 4266 4769 4109 4238 
L 5966 4238 
L 5966 3909 
L 5594 3909 
Q 5372 1900 4709 947 
Q 5228 350 6053 -72 
z
M 3097 3878 
L 1919 3878 
L 1919 2559 
L 2797 2559 
L 2797 -6 
L 2463 -6 
L 2463 403 
L 1050 403 
L 1050 -172 
L 716 -172 
L 716 2559 
L 1606 2559 
L 1606 3878 
L 453 3878 
L 453 4213 
L 1606 4213 
L 1606 5275 
L 1919 5275 
L 1919 4213 
L 3097 4213 
L 3097 3878 
z
M 2463 738 
L 2463 2228 
L 1050 2228 
L 1050 738 
L 2463 738 
z
" transform="scale(0.015625)"/>
      <path id="MicrosoftJhengHeiRegular-969c" d="M 5984 3584 
L 2266 3584 
L 2266 3891 
L 3309 3891 
Q 3175 4238 2994 4506 
L 2472 4506 
L 2472 4819 
L 3916 4819 
Q 3828 4966 3700 5141 
L 4000 5306 
Q 4194 5063 4306 4819 
L 5850 4819 
L 5850 4506 
L 5288 4506 
Q 5097 4094 4978 3891 
L 5984 3891 
L 5984 3584 
z
M 4928 4506 
L 3347 4506 
Q 3506 4222 3647 3891 
L 4634 3891 
Q 4822 4206 4928 4506 
z
M 1697 3291 
Q 2234 2550 2234 1863 
Q 2234 1556 2054 1331 
Q 1875 1106 1209 1147 
L 1088 1478 
Q 1331 1466 1466 1466 
Q 1716 1466 1819 1583 
Q 1922 1700 1922 1894 
Q 1922 2159 1764 2545 
Q 1606 2931 1356 3238 
Q 1616 3994 1850 4813 
L 953 4813 
L 953 -306 
L 634 -306 
L 634 5131 
L 2194 5131 
L 2194 4813 
Q 1997 4150 1697 3291 
z
M 5997 550 
L 4256 550 
L 4256 -331 
L 3938 -331 
L 3938 550 
L 2259 550 
L 2259 872 
L 3938 872 
L 3938 1319 
L 2644 1319 
L 2644 3156 
L 5656 3156 
L 5656 1319 
L 4256 1319 
L 4256 872 
L 5997 872 
L 5997 550 
z
M 5319 2400 
L 5319 2853 
L 2956 2853 
L 2956 2400 
L 5319 2400 
z
M 5319 1631 
L 5319 2113 
L 2956 2113 
L 2956 1631 
L 5319 1631 
z
" transform="scale(0.015625)"/>
      <path id="MicrosoftJhengHeiRegular-25" d="M 266 3625 
Q 266 4219 580 4566 
Q 894 4913 1425 4913 
Q 1938 4913 2223 4589 
Q 2509 4266 2509 3694 
Q 2509 3125 2192 2770 
Q 1875 2416 1356 2416 
Q 856 2416 561 2748 
Q 266 3081 266 3625 
z
M 700 3656 
Q 700 3241 886 3008 
Q 1072 2775 1391 2775 
Q 1716 2775 1897 3014 
Q 2078 3253 2078 3678 
Q 2078 4097 1898 4328 
Q 1719 4559 1403 4559 
Q 1081 4559 890 4312 
Q 700 4066 700 3656 
z
M 4578 4841 
L 1478 -38 
L 1016 -38 
L 4116 4841 
L 4578 4841 
z
M 3144 1134 
Q 3144 1725 3456 2079 
Q 3769 2434 4297 2434 
Q 4806 2434 5093 2106 
Q 5381 1778 5381 1197 
Q 5381 625 5061 275 
Q 4741 -75 4231 -75 
Q 3741 -75 3442 256 
Q 3144 588 3144 1134 
z
M 3572 1163 
Q 3572 756 3761 522 
Q 3950 288 4263 288 
Q 4588 288 4769 530 
Q 4950 772 4950 1194 
Q 4950 1616 4772 1841 
Q 4594 2066 4278 2066 
Q 3947 2066 3759 1823 
Q 3572 1581 3572 1163 
z
" transform="scale(0.015625)"/>
     </defs>
     <use xlink:href="#MicrosoftJhengHeiRegular-4f4d"/>
     <use xlink:href="#MicrosoftJhengHeiRegular-7f6e" x="100"/>
     <use xlink:href="#MicrosoftJhengHeiRegular-9810" x="200"/>
     <use xlink:href="#MicrosoftJhengHeiRegular-6e2c" x="300"/>
     <use xlink:href="#MicrosoftJhengHeiRegular-8aa4" x="400"/>
     <use xlink:href="#MicrosoftJhengHeiRegular-5dee" x="500"/>
     <use xlink:href="#MicrosoftJhengHeiRegular-5bc6" x="600"/>
     <use xlink:href="#MicrosoftJhengHeiRegular-5ea6" x="700"/>
     <use xlink:href="#MicrosoftJhengHeiRegular-5206" x="800"/>
     <use xlink:href="#MicrosoftJhengHeiRegular-5e03" x="900"/>
     <use xlink:href="#MicrosoftJhengHeiRegular-20" x="1000"/>
     <use xlink:href="#MicrosoftJhengHeiRegular-2d" x="1025"/>
     <use xlink:href="#MicrosoftJhengHeiRegular-20" x="1068.164062"/>
     <use xlink:href="#MicrosoftJhengHeiRegular-8a2d" x="1093.164062"/>
     <use xlink:href="#MicrosoftJhengHeiRegular-5099" x="1193.164062"/>
     <use xlink:href="#MicrosoftJhengHeiRegular-6545" x="1293.164062"/>
     <use xlink:href="#MicrosoftJhengHeiRegular-969c" x="1393.164062"/>
     <use xlink:href="#MicrosoftJhengHeiRegular-20" x="1493.164062"/>
     <use xlink:href="#MicrosoftJhengHeiRegular-31" x="1518.164062"/>
     <use xlink:href="#MicrosoftJhengHeiRegular-35" x="1576.123047"/>
     <use xlink:href="#MicrosoftJhengHeiRegular-25" x="1634.082031"/>
    </g>
   </g>
  </g>
 </g>
 <defs>
  <clipPath id="pfa13a79453">
   <rect x="42.575" y="22.7925" width="949.93" height="484.896171"/>
  </clipPath>
 </defs>
</svg>
