<?xml version="1.0" encoding="utf-8" standalone="no"?>
<!DOCTYPE svg PUBLIC "-//W3C//DTD SVG 1.1//EN"
  "http://www.w3.org/Graphics/SVG/1.1/DTD/svg11.dtd">
<svg xmlns:xlink="http://www.w3.org/1999/xlink" width="855.740312pt" height="566.322599pt" viewBox="0 0 855.740312 566.322599" xmlns="http://www.w3.org/2000/svg" version="1.1">
 <metadata>
  <rdf:RDF xmlns:dc="http://purl.org/dc/elements/1.1/" xmlns:cc="http://creativecommons.org/ns#" xmlns:rdf="http://www.w3.org/1999/02/22-rdf-syntax-ns#">
   <cc:Work>
    <dc:type rdf:resource="http://purl.org/dc/dcmitype/StillImage"/>
    <dc:date>2025-09-01T07:40:28.013264</dc:date>
    <dc:format>image/svg+xml</dc:format>
    <dc:creator>
     <cc:Agent>
      <dc:title>Matplotlib v3.7.1, https://matplotlib.org/</dc:title>
     </cc:Agent>
    </dc:creator>
   </cc:Work>
  </rdf:RDF>
 </metadata>
 <defs>
  <style type="text/css">*{stroke-linejoin: round; stroke-linecap: butt}</style>
 </defs>
 <g id="figure_1">
  <g id="patch_1">
   <path d="M 0 566.322599 
L 855.740312 566.322599 
L 855.740312 0 
L 0 0 
z
" style="fill: #ffffff"/>
  </g>
  <g id="axes_1">
   <g id="patch_2">
    <path d="M 48.370313 507.688671 
L 848.540313 507.688671 
L 848.540313 22.7925 
L 48.370313 22.7925 
z
" style="fill: #ffffff"/>
   </g>
   <g id="patch_3">
    <path d="M 84.741676 507.688671 
L 292.57804 507.688671 
L 292.57804 45.882794 
L 84.741676 45.882794 
z
" clip-path="url(#p31210f44b2)" style="fill: #87ceeb"/>
   </g>
   <g id="patch_4">
    <path d="M 344.537131 507.688671 
L 552.373494 507.688671 
L 552.373494 181.656914 
L 344.537131 181.656914 
z
" clip-path="url(#p31210f44b2)" style="fill: #87ceeb"/>
   </g>
   <g id="patch_5">
    <path d="M 604.332585 507.688671 
L 812.168949 507.688671 
L 812.168949 189.433046 
L 604.332585 189.433046 
z
" clip-path="url(#p31210f44b2)" style="fill: #87ceeb"/>
   </g>
   <g id="matplotlib.axis_1">
    <g id="xtick_1">
     <g id="line2d_1">
      <defs>
       <path id="m83d1e4a423" d="M 0 0 
L 0 3.5 
" style="stroke: #000000; stroke-width: 0.8"/>
      </defs>
      <g>
       <use xlink:href="#m83d1e4a423" x="188.659858" y="507.688671" style="stroke: #000000; stroke-width: 0.8"/>
      </g>
     </g>
     <g id="text_1">
      <!-- original HADNN -->
      <g transform="translate(152.463 542.185838) rotate(-15) scale(0.1 -0.1)">
       <defs>
        <path id="MicrosoftJhengHeiRegular-6f" d="M 331 1684 
Q 331 2547 801 3042 
Q 1272 3538 2081 3538 
Q 2844 3538 3276 3059 
Q 3709 2581 3709 1738 
Q 3709 919 3240 419 
Q 2772 -81 2000 -81 
Q 1253 -81 792 400 
Q 331 881 331 1684 
z
M 863 1706 
Q 863 1094 1183 728 
Q 1503 363 2038 363 
Q 2581 363 2879 719 
Q 3178 1075 3178 1719 
Q 3178 2378 2883 2736 
Q 2588 3094 2038 3094 
Q 1500 3094 1181 2723 
Q 863 2353 863 1706 
z
" transform="scale(0.015625)"/>
        <path id="MicrosoftJhengHeiRegular-72" d="M 2341 2922 
Q 2197 3031 1925 3031 
Q 1559 3031 1323 2682 
Q 1088 2334 1088 1769 
L 1088 0 
L 566 0 
L 566 3456 
L 1088 3456 
L 1088 2741 
L 1103 2741 
Q 1222 3109 1465 3312 
Q 1709 3516 2003 3516 
Q 2225 3516 2341 3469 
L 2341 2922 
z
" transform="scale(0.015625)"/>
        <path id="MicrosoftJhengHeiRegular-69" d="M 497 4700 
Q 497 4847 595 4948 
Q 694 5050 834 5050 
Q 981 5050 1082 4947 
Q 1184 4844 1184 4700 
Q 1184 4563 1082 4459 
Q 981 4356 834 4356 
Q 688 4356 592 4456 
Q 497 4556 497 4700 
z
M 569 0 
L 569 3456 
L 1088 3456 
L 1088 0 
L 569 0 
z
" transform="scale(0.015625)"/>
        <path id="MicrosoftJhengHeiRegular-67" d="M 3488 272 
Q 3488 -1628 1688 -1628 
Q 1050 -1628 566 -1381 
L 566 -850 
Q 1150 -1175 1684 -1175 
Q 2969 -1175 2969 203 
L 2969 588 
L 2956 588 
Q 2550 -81 1763 -81 
Q 1113 -81 722 384 
Q 331 850 331 1616 
Q 331 2500 759 3019 
Q 1188 3538 1913 3538 
Q 2616 3538 2956 2972 
L 2969 2972 
L 2969 3456 
L 3488 3456 
L 3488 272 
z
M 2969 2081 
Q 2969 2503 2678 2798 
Q 2388 3094 1978 3094 
Q 1459 3094 1161 2712 
Q 863 2331 863 1653 
Q 863 1066 1150 714 
Q 1438 363 1897 363 
Q 2363 363 2666 698 
Q 2969 1034 2969 1556 
L 2969 2081 
z
" transform="scale(0.015625)"/>
        <path id="MicrosoftJhengHeiRegular-6e" d="M 3406 0 
L 2884 0 
L 2884 1975 
Q 2884 3094 2066 3094 
Q 1638 3094 1363 2773 
Q 1088 2453 1088 1972 
L 1088 0 
L 566 0 
L 566 3456 
L 1088 3456 
L 1088 2878 
L 1103 2878 
Q 1491 3538 2238 3538 
Q 2806 3538 3106 3172 
Q 3406 2806 3406 2113 
L 3406 0 
z
" transform="scale(0.015625)"/>
        <path id="MicrosoftJhengHeiRegular-61" d="M 647 3209 
Q 1156 3538 1813 3538 
Q 3016 3538 3016 2259 
L 3016 0 
L 2494 0 
L 2494 544 
L 2475 544 
Q 2116 -81 1413 -81 
Q 900 -81 604 192 
Q 309 466 309 916 
Q 309 1875 1447 2038 
L 2491 2188 
Q 2491 3088 1772 3088 
Q 1144 3088 647 2659 
L 647 3209 
z
M 1644 1641 
Q 1200 1581 1026 1426 
Q 853 1272 853 950 
Q 853 691 1039 528 
Q 1225 366 1525 366 
Q 1941 366 2216 662 
Q 2491 959 2491 1403 
L 2491 1753 
L 1644 1641 
z
" transform="scale(0.015625)"/>
        <path id="MicrosoftJhengHeiRegular-6c" d="M 569 0 
L 569 5116 
L 1088 5116 
L 1088 0 
L 569 0 
z
" transform="scale(0.015625)"/>
        <path id="MicrosoftJhengHeiRegular-20" transform="scale(0.015625)"/>
        <path id="MicrosoftJhengHeiRegular-48" d="M 4241 0 
L 3709 0 
L 3709 2222 
L 1172 2222 
L 1172 0 
L 641 0 
L 641 4841 
L 1172 4841 
L 1172 2703 
L 3709 2703 
L 3709 4841 
L 4241 4841 
L 4241 0 
z
" transform="scale(0.015625)"/>
        <path id="MicrosoftJhengHeiRegular-41" d="M 4353 0 
L 3763 0 
L 3238 1375 
L 1163 1375 
L 672 0 
L 78 0 
L 1941 4841 
L 2481 4841 
L 4353 0 
z
M 3056 1863 
L 2281 3953 
Q 2250 4041 2209 4272 
L 2194 4272 
Q 2159 4059 2116 3953 
L 1350 1863 
L 3056 1863 
z
" transform="scale(0.015625)"/>
        <path id="MicrosoftJhengHeiRegular-44" d="M 641 0 
L 641 4841 
L 1953 4841 
Q 4506 4841 4506 2481 
Q 4506 1350 3818 675 
Q 3131 0 1903 0 
L 641 0 
z
M 1172 4353 
L 1172 488 
L 1909 488 
Q 2875 488 3412 1006 
Q 3950 1525 3950 2466 
Q 3950 4353 1941 4353 
L 1172 4353 
z
" transform="scale(0.015625)"/>
        <path id="MicrosoftJhengHeiRegular-4e" d="M 4513 0 
L 3844 0 
L 1319 3909 
Q 1234 4047 1169 4200 
L 1150 4200 
Q 1175 4050 1175 3550 
L 1175 0 
L 641 0 
L 641 4841 
L 1347 4841 
L 3803 972 
Q 3991 672 4000 641 
L 4013 641 
Q 3978 881 3978 1369 
L 3978 4841 
L 4513 4841 
L 4513 0 
z
" transform="scale(0.015625)"/>
       </defs>
       <use xlink:href="#MicrosoftJhengHeiRegular-6f"/>
       <use xlink:href="#MicrosoftJhengHeiRegular-72" x="63.085938"/>
       <use xlink:href="#MicrosoftJhengHeiRegular-69" x="100.292969"/>
       <use xlink:href="#MicrosoftJhengHeiRegular-67" x="126.220703"/>
       <use xlink:href="#MicrosoftJhengHeiRegular-69" x="189.599609"/>
       <use xlink:href="#MicrosoftJhengHeiRegular-6e" x="215.527344"/>
       <use xlink:href="#MicrosoftJhengHeiRegular-61" x="276.367188"/>
       <use xlink:href="#MicrosoftJhengHeiRegular-6c" x="331.103516"/>
       <use xlink:href="#MicrosoftJhengHeiRegular-20" x="357.03125"/>
       <use xlink:href="#MicrosoftJhengHeiRegular-48" x="382.03125"/>
       <use xlink:href="#MicrosoftJhengHeiRegular-41" x="458.300781"/>
       <use xlink:href="#MicrosoftJhengHeiRegular-44" x="527.587891"/>
       <use xlink:href="#MicrosoftJhengHeiRegular-4e" x="603.076172"/>
       <use xlink:href="#MicrosoftJhengHeiRegular-4e" x="683.59375"/>
      </g>
     </g>
    </g>
    <g id="xtick_2">
     <g id="line2d_2">
      <g>
       <use xlink:href="#m83d1e4a423" x="448.455312" y="507.688671" style="stroke: #000000; stroke-width: 0.8"/>
      </g>
     </g>
     <g id="text_2">
      <!-- mlp -->
      <g transform="translate(440.388716 527.114886) rotate(-15) scale(0.1 -0.1)">
       <defs>
        <path id="MicrosoftJhengHeiRegular-6d" d="M 5438 0 
L 4916 0 
L 4916 1984 
Q 4916 2588 4733 2841 
Q 4550 3094 4128 3094 
Q 3775 3094 3519 2762 
Q 3263 2431 3263 1975 
L 3263 0 
L 2744 0 
L 2744 2056 
Q 2744 3094 1941 3094 
Q 1572 3094 1330 2778 
Q 1088 2463 1088 1975 
L 1088 0 
L 566 0 
L 566 3456 
L 1088 3456 
L 1088 2909 
L 1103 2909 
Q 1466 3538 2172 3538 
Q 2509 3538 2779 3339 
Q 3050 3141 3147 2816 
Q 3531 3538 4297 3538 
Q 5438 3538 5438 2128 
L 5438 0 
z
" transform="scale(0.015625)"/>
        <path id="MicrosoftJhengHeiRegular-70" d="M 1088 506 
L 1088 -1591 
L 566 -1591 
L 566 3456 
L 1088 3456 
L 1088 2844 
L 1103 2844 
Q 1513 3538 2300 3538 
Q 2959 3538 3340 3077 
Q 3722 2616 3722 1828 
Q 3722 966 3295 442 
Q 2869 -81 2141 -81 
Q 1466 -81 1103 506 
L 1088 506 
z
M 1088 1400 
Q 1088 966 1378 664 
Q 1669 363 2094 363 
Q 2603 363 2895 756 
Q 3188 1150 3188 1844 
Q 3188 2428 2913 2761 
Q 2638 3094 2181 3094 
Q 1706 3094 1397 2758 
Q 1088 2422 1088 1900 
L 1088 1400 
z
" transform="scale(0.015625)"/>
       </defs>
       <use xlink:href="#MicrosoftJhengHeiRegular-6d"/>
       <use xlink:href="#MicrosoftJhengHeiRegular-6c" x="92.626953"/>
       <use xlink:href="#MicrosoftJhengHeiRegular-70" x="118.554688"/>
      </g>
     </g>
    </g>
    <g id="xtick_3">
     <g id="line2d_3">
      <g>
       <use xlink:href="#m83d1e4a423" x="708.250767" y="507.688671" style="stroke: #000000; stroke-width: 0.8"/>
      </g>
     </g>
     <g id="text_3">
      <!-- hadnn+rf -->
      <g transform="translate(687.378861 533.97723) rotate(-15) scale(0.1 -0.1)">
       <defs>
        <path id="MicrosoftJhengHeiRegular-68" d="M 3406 0 
L 2888 0 
L 2888 1994 
Q 2888 3094 2066 3094 
Q 1650 3094 1369 2775 
Q 1088 2456 1088 1956 
L 1088 0 
L 566 0 
L 566 5116 
L 1088 5116 
L 1088 2878 
L 1103 2878 
Q 1500 3538 2241 3538 
Q 3406 3538 3406 2128 
L 3406 0 
z
" transform="scale(0.015625)"/>
        <path id="MicrosoftJhengHeiRegular-64" d="M 3488 0 
L 2969 0 
L 2969 594 
L 2956 594 
Q 2572 -81 1763 -81 
Q 1106 -81 718 386 
Q 331 853 331 1647 
Q 331 2497 765 3017 
Q 1200 3538 1913 3538 
Q 2625 3538 2956 2972 
L 2969 2972 
L 2969 5116 
L 3488 5116 
L 3488 0 
z
M 2969 2081 
Q 2969 2506 2680 2800 
Q 2391 3094 1972 3094 
Q 1453 3094 1158 2711 
Q 863 2328 863 1675 
Q 863 1078 1145 720 
Q 1428 363 1906 363 
Q 2366 363 2667 698 
Q 2969 1034 2969 1556 
L 2969 2081 
z
" transform="scale(0.015625)"/>
        <path id="MicrosoftJhengHeiRegular-2b" d="M 3947 1797 
L 2578 1797 
L 2578 434 
L 2147 434 
L 2147 1797 
L 784 1797 
L 784 2234 
L 2147 2234 
L 2147 3597 
L 2578 3597 
L 2578 2234 
L 3947 2234 
L 3947 1797 
z
" transform="scale(0.015625)"/>
        <path id="MicrosoftJhengHeiRegular-66" d="M 2241 4653 
Q 2075 4744 1872 4744 
Q 1288 4744 1288 4000 
L 1288 3456 
L 2097 3456 
L 2097 3006 
L 1288 3006 
L 1288 0 
L 772 0 
L 772 3006 
L 181 3006 
L 181 3456 
L 772 3456 
L 772 4025 
Q 772 4572 1083 4881 
Q 1394 5191 1847 5191 
Q 2100 5191 2241 5131 
L 2241 4653 
z
" transform="scale(0.015625)"/>
       </defs>
       <use xlink:href="#MicrosoftJhengHeiRegular-68"/>
       <use xlink:href="#MicrosoftJhengHeiRegular-61" x="60.888672"/>
       <use xlink:href="#MicrosoftJhengHeiRegular-64" x="115.625"/>
       <use xlink:href="#MicrosoftJhengHeiRegular-6e" x="179.003906"/>
       <use xlink:href="#MicrosoftJhengHeiRegular-6e" x="239.84375"/>
       <use xlink:href="#MicrosoftJhengHeiRegular-2b" x="300.683594"/>
       <use xlink:href="#MicrosoftJhengHeiRegular-72" x="374.414062"/>
       <use xlink:href="#MicrosoftJhengHeiRegular-66" x="413.621094"/>
      </g>
     </g>
    </g>
    <g id="text_4">
     <!-- 模型 -->
     <g transform="translate(438.455313 556.636662) scale(0.1 -0.1)">
      <defs>
       <path id="MicrosoftJhengHeiRegular-6a21" d="M 5978 4441 
L 5063 4441 
L 5063 4078 
L 4744 4078 
L 4744 4441 
L 4269 4441 
L 4269 4744 
L 4744 4744 
L 4744 5275 
L 5063 5275 
L 5063 4744 
L 5978 4744 
L 5978 4441 
z
M 4025 4441 
L 3603 4441 
L 3603 4078 
L 3263 4078 
L 3263 4441 
L 2322 4441 
L 2322 4744 
L 3263 4744 
L 3263 5275 
L 3603 5275 
L 3603 4744 
L 4025 4744 
L 4025 4441 
z
M 2431 2444 
L 2181 2234 
Q 1878 2763 1703 2994 
L 1703 -341 
L 1375 -341 
L 1375 2816 
Q 1056 2041 628 1422 
L 403 1672 
Q 984 2497 1369 3634 
L 500 3634 
L 500 3950 
L 1375 3950 
L 1375 5275 
L 1703 5275 
L 1703 3950 
L 2344 3950 
L 2344 3634 
L 1703 3634 
L 1703 3494 
Q 2128 2969 2431 2444 
z
M 5947 991 
L 4109 991 
Q 3838 -25 2369 -341 
L 2181 -44 
Q 3481 191 3775 991 
L 2247 991 
L 2247 1300 
L 3847 1300 
Q 3909 1647 3909 1856 
L 2747 1856 
L 2747 3834 
L 5569 3834 
L 5569 1856 
L 4244 1856 
Q 4234 1619 4184 1300 
L 5947 1300 
L 5947 991 
z
M 5253 3016 
L 5253 3531 
L 3059 3531 
L 3059 3016 
L 5253 3016 
z
M 5253 2156 
L 5253 2719 
L 3059 2719 
L 3059 2156 
L 5253 2156 
z
M 6028 -63 
L 5825 -325 
Q 5241 103 4319 531 
L 4531 788 
Q 5369 400 6028 -63 
z
" transform="scale(0.015625)"/>
       <path id="MicrosoftJhengHeiRegular-578b" d="M 5703 2291 
Q 5703 2109 5600 1992 
Q 5497 1875 5369 1842 
Q 5241 1809 4888 1809 
Q 4700 1809 4422 1819 
L 4281 2169 
Q 4603 2141 4881 2141 
Q 5147 2141 5215 2158 
Q 5284 2175 5329 2256 
Q 5375 2338 5375 2444 
L 5375 5234 
L 5703 5234 
L 5703 2291 
z
M 3834 3406 
L 2919 3406 
L 2919 1959 
L 2591 1959 
L 2591 3406 
L 1734 3406 
Q 1663 2456 819 1791 
L 550 2016 
Q 1347 2647 1409 3406 
L 469 3406 
L 469 3731 
L 1428 3731 
Q 1459 4306 1459 4775 
L 659 4775 
L 659 5088 
L 3750 5088 
L 3750 4775 
L 2919 4775 
L 2919 3731 
L 3834 3731 
L 3834 3406 
z
M 2591 3731 
L 2591 4775 
L 1791 4775 
Q 1791 4397 1753 3731 
L 2591 3731 
z
M 4594 2816 
L 4269 2816 
L 4269 4953 
L 4594 4953 
L 4594 2816 
z
M 5991 -184 
L 428 -184 
L 428 134 
L 3059 134 
L 3059 1038 
L 844 1038 
L 844 1350 
L 3059 1350 
L 3059 2022 
L 3391 2022 
L 3391 1350 
L 5563 1350 
L 5563 1038 
L 3391 1038 
L 3391 134 
L 5991 134 
L 5991 -184 
z
" transform="scale(0.015625)"/>
      </defs>
      <use xlink:href="#MicrosoftJhengHeiRegular-6a21"/>
      <use xlink:href="#MicrosoftJhengHeiRegular-578b" x="100"/>
     </g>
    </g>
   </g>
   <g id="matplotlib.axis_2">
    <g id="ytick_1">
     <g id="line2d_4">
      <path d="M 48.370313 507.688671 
L 848.540313 507.688671 
" clip-path="url(#p31210f44b2)" style="fill: none; stroke-dasharray: 2.96,1.28; stroke-dashoffset: 0; stroke: #b0b0b0; stroke-opacity: 0.7; stroke-width: 0.8"/>
     </g>
     <g id="line2d_5">
      <defs>
       <path id="m972b0a19a7" d="M 0 0 
L -3.5 0 
" style="stroke: #000000; stroke-width: 0.8"/>
      </defs>
      <g>
       <use xlink:href="#m972b0a19a7" x="48.370313" y="507.688671" style="stroke: #000000; stroke-width: 0.8"/>
      </g>
     </g>
     <g id="text_5">
      <!-- 0.00 -->
      <g transform="translate(21.679688 511.685546) scale(0.1 -0.1)">
       <defs>
        <path id="MicrosoftJhengHeiRegular-30" d="M 294 2322 
Q 294 3603 711 4262 
Q 1128 4922 1916 4922 
Q 3425 4922 3425 2441 
Q 3425 1234 3011 576 
Q 2597 -81 1806 -81 
Q 1069 -81 681 550 
Q 294 1181 294 2322 
z
M 825 2350 
Q 825 363 1863 363 
Q 2891 363 2891 2378 
Q 2891 4475 1888 4475 
Q 825 4475 825 2350 
z
" transform="scale(0.015625)"/>
        <path id="MicrosoftJhengHeiRegular-2e" d="M 375 291 
Q 375 444 484 551 
Q 594 659 738 659 
Q 888 659 994 551 
Q 1100 444 1100 291 
Q 1100 141 992 33 
Q 884 -75 738 -75 
Q 594 -75 484 29 
Q 375 134 375 291 
z
" transform="scale(0.015625)"/>
       </defs>
       <use xlink:href="#MicrosoftJhengHeiRegular-30"/>
       <use xlink:href="#MicrosoftJhengHeiRegular-2e" x="57.958984"/>
       <use xlink:href="#MicrosoftJhengHeiRegular-30" x="81.005859"/>
       <use xlink:href="#MicrosoftJhengHeiRegular-30" x="138.964844"/>
      </g>
     </g>
    </g>
    <g id="ytick_2">
     <g id="line2d_6">
      <path d="M 48.370313 448.675389 
L 848.540313 448.675389 
" clip-path="url(#p31210f44b2)" style="fill: none; stroke-dasharray: 2.96,1.28; stroke-dashoffset: 0; stroke: #b0b0b0; stroke-opacity: 0.7; stroke-width: 0.8"/>
     </g>
     <g id="line2d_7">
      <g>
       <use xlink:href="#m972b0a19a7" x="48.370313" y="448.675389" style="stroke: #000000; stroke-width: 0.8"/>
      </g>
     </g>
     <g id="text_6">
      <!-- 0.25 -->
      <g transform="translate(21.679688 452.672264) scale(0.1 -0.1)">
       <defs>
        <path id="MicrosoftJhengHeiRegular-32" d="M 3219 0 
L 322 0 
L 322 472 
L 1731 1891 
Q 2431 2597 2592 2914 
Q 2753 3231 2753 3588 
Q 2753 4016 2511 4247 
Q 2269 4478 1816 4478 
Q 1169 4478 572 3919 
L 572 4475 
Q 1131 4922 1884 4922 
Q 2509 4922 2886 4575 
Q 3263 4228 3263 3634 
Q 3263 3178 3014 2736 
Q 2766 2294 2075 1603 
L 947 488 
L 947 475 
L 3219 475 
L 3219 0 
z
" transform="scale(0.015625)"/>
        <path id="MicrosoftJhengHeiRegular-35" d="M 553 684 
Q 1047 363 1559 363 
Q 2072 363 2394 658 
Q 2716 953 2716 1441 
Q 2716 1931 2394 2200 
Q 2072 2469 1466 2469 
Q 1275 2469 706 2431 
L 706 4841 
L 3025 4841 
L 3025 4366 
L 1203 4366 
L 1203 2916 
Q 1475 2931 1616 2931 
Q 2378 2931 2811 2548 
Q 3244 2166 3244 1472 
Q 3244 750 2775 334 
Q 2306 -81 1544 -81 
Q 875 -81 553 119 
L 553 684 
z
" transform="scale(0.015625)"/>
       </defs>
       <use xlink:href="#MicrosoftJhengHeiRegular-30"/>
       <use xlink:href="#MicrosoftJhengHeiRegular-2e" x="57.958984"/>
       <use xlink:href="#MicrosoftJhengHeiRegular-32" x="81.005859"/>
       <use xlink:href="#MicrosoftJhengHeiRegular-35" x="138.964844"/>
      </g>
     </g>
    </g>
    <g id="ytick_3">
     <g id="line2d_8">
      <path d="M 48.370313 389.662107 
L 848.540313 389.662107 
" clip-path="url(#p31210f44b2)" style="fill: none; stroke-dasharray: 2.96,1.28; stroke-dashoffset: 0; stroke: #b0b0b0; stroke-opacity: 0.7; stroke-width: 0.8"/>
     </g>
     <g id="line2d_9">
      <g>
       <use xlink:href="#m972b0a19a7" x="48.370313" y="389.662107" style="stroke: #000000; stroke-width: 0.8"/>
      </g>
     </g>
     <g id="text_7">
      <!-- 0.50 -->
      <g transform="translate(21.679688 393.658982) scale(0.1 -0.1)">
       <use xlink:href="#MicrosoftJhengHeiRegular-30"/>
       <use xlink:href="#MicrosoftJhengHeiRegular-2e" x="57.958984"/>
       <use xlink:href="#MicrosoftJhengHeiRegular-35" x="81.005859"/>
       <use xlink:href="#MicrosoftJhengHeiRegular-30" x="138.964844"/>
      </g>
     </g>
    </g>
    <g id="ytick_4">
     <g id="line2d_10">
      <path d="M 48.370313 330.648826 
L 848.540313 330.648826 
" clip-path="url(#p31210f44b2)" style="fill: none; stroke-dasharray: 2.96,1.28; stroke-dashoffset: 0; stroke: #b0b0b0; stroke-opacity: 0.7; stroke-width: 0.8"/>
     </g>
     <g id="line2d_11">
      <g>
       <use xlink:href="#m972b0a19a7" x="48.370313" y="330.648826" style="stroke: #000000; stroke-width: 0.8"/>
      </g>
     </g>
     <g id="text_8">
      <!-- 0.75 -->
      <g transform="translate(21.679688 334.645701) scale(0.1 -0.1)">
       <defs>
        <path id="MicrosoftJhengHeiRegular-37" d="M 3391 4688 
L 1459 0 
L 922 0 
L 2741 4366 
L 288 4366 
L 288 4841 
L 3391 4841 
L 3391 4688 
z
" transform="scale(0.015625)"/>
       </defs>
       <use xlink:href="#MicrosoftJhengHeiRegular-30"/>
       <use xlink:href="#MicrosoftJhengHeiRegular-2e" x="57.958984"/>
       <use xlink:href="#MicrosoftJhengHeiRegular-37" x="81.005859"/>
       <use xlink:href="#MicrosoftJhengHeiRegular-35" x="138.964844"/>
      </g>
     </g>
    </g>
    <g id="ytick_5">
     <g id="line2d_12">
      <path d="M 48.370313 271.635544 
L 848.540313 271.635544 
" clip-path="url(#p31210f44b2)" style="fill: none; stroke-dasharray: 2.96,1.28; stroke-dashoffset: 0; stroke: #b0b0b0; stroke-opacity: 0.7; stroke-width: 0.8"/>
     </g>
     <g id="line2d_13">
      <g>
       <use xlink:href="#m972b0a19a7" x="48.370313" y="271.635544" style="stroke: #000000; stroke-width: 0.8"/>
      </g>
     </g>
     <g id="text_9">
      <!-- 1.00 -->
      <g transform="translate(21.679688 275.632419) scale(0.1 -0.1)">
       <defs>
        <path id="MicrosoftJhengHeiRegular-31" d="M 3313 0 
L 594 0 
L 594 466 
L 1694 466 
L 1694 4272 
L 566 3931 
L 566 4434 
L 2216 4950 
L 2216 466 
L 3313 466 
L 3313 0 
z
" transform="scale(0.015625)"/>
       </defs>
       <use xlink:href="#MicrosoftJhengHeiRegular-31"/>
       <use xlink:href="#MicrosoftJhengHeiRegular-2e" x="57.958984"/>
       <use xlink:href="#MicrosoftJhengHeiRegular-30" x="81.005859"/>
       <use xlink:href="#MicrosoftJhengHeiRegular-30" x="138.964844"/>
      </g>
     </g>
    </g>
    <g id="ytick_6">
     <g id="line2d_14">
      <path d="M 48.370313 212.622262 
L 848.540313 212.622262 
" clip-path="url(#p31210f44b2)" style="fill: none; stroke-dasharray: 2.96,1.28; stroke-dashoffset: 0; stroke: #b0b0b0; stroke-opacity: 0.7; stroke-width: 0.8"/>
     </g>
     <g id="line2d_15">
      <g>
       <use xlink:href="#m972b0a19a7" x="48.370313" y="212.622262" style="stroke: #000000; stroke-width: 0.8"/>
      </g>
     </g>
     <g id="text_10">
      <!-- 1.25 -->
      <g transform="translate(21.679688 216.619137) scale(0.1 -0.1)">
       <use xlink:href="#MicrosoftJhengHeiRegular-31"/>
       <use xlink:href="#MicrosoftJhengHeiRegular-2e" x="57.958984"/>
       <use xlink:href="#MicrosoftJhengHeiRegular-32" x="81.005859"/>
       <use xlink:href="#MicrosoftJhengHeiRegular-35" x="138.964844"/>
      </g>
     </g>
    </g>
    <g id="ytick_7">
     <g id="line2d_16">
      <path d="M 48.370313 153.60898 
L 848.540313 153.60898 
" clip-path="url(#p31210f44b2)" style="fill: none; stroke-dasharray: 2.96,1.28; stroke-dashoffset: 0; stroke: #b0b0b0; stroke-opacity: 0.7; stroke-width: 0.8"/>
     </g>
     <g id="line2d_17">
      <g>
       <use xlink:href="#m972b0a19a7" x="48.370313" y="153.60898" style="stroke: #000000; stroke-width: 0.8"/>
      </g>
     </g>
     <g id="text_11">
      <!-- 1.50 -->
      <g transform="translate(21.679688 157.605855) scale(0.1 -0.1)">
       <use xlink:href="#MicrosoftJhengHeiRegular-31"/>
       <use xlink:href="#MicrosoftJhengHeiRegular-2e" x="57.958984"/>
       <use xlink:href="#MicrosoftJhengHeiRegular-35" x="81.005859"/>
       <use xlink:href="#MicrosoftJhengHeiRegular-30" x="138.964844"/>
      </g>
     </g>
    </g>
    <g id="ytick_8">
     <g id="line2d_18">
      <path d="M 48.370313 94.595698 
L 848.540313 94.595698 
" clip-path="url(#p31210f44b2)" style="fill: none; stroke-dasharray: 2.96,1.28; stroke-dashoffset: 0; stroke: #b0b0b0; stroke-opacity: 0.7; stroke-width: 0.8"/>
     </g>
     <g id="line2d_19">
      <g>
       <use xlink:href="#m972b0a19a7" x="48.370313" y="94.595698" style="stroke: #000000; stroke-width: 0.8"/>
      </g>
     </g>
     <g id="text_12">
      <!-- 1.75 -->
      <g transform="translate(21.679688 98.592573) scale(0.1 -0.1)">
       <use xlink:href="#MicrosoftJhengHeiRegular-31"/>
       <use xlink:href="#MicrosoftJhengHeiRegular-2e" x="57.958984"/>
       <use xlink:href="#MicrosoftJhengHeiRegular-37" x="81.005859"/>
       <use xlink:href="#MicrosoftJhengHeiRegular-35" x="138.964844"/>
      </g>
     </g>
    </g>
    <g id="ytick_9">
     <g id="line2d_20">
      <path d="M 48.370313 35.582416 
L 848.540313 35.582416 
" clip-path="url(#p31210f44b2)" style="fill: none; stroke-dasharray: 2.96,1.28; stroke-dashoffset: 0; stroke: #b0b0b0; stroke-opacity: 0.7; stroke-width: 0.8"/>
     </g>
     <g id="line2d_21">
      <g>
       <use xlink:href="#m972b0a19a7" x="48.370313" y="35.582416" style="stroke: #000000; stroke-width: 0.8"/>
      </g>
     </g>
     <g id="text_13">
      <!-- 2.00 -->
      <g transform="translate(21.679688 39.579291) scale(0.1 -0.1)">
       <use xlink:href="#MicrosoftJhengHeiRegular-32"/>
       <use xlink:href="#MicrosoftJhengHeiRegular-2e" x="57.958984"/>
       <use xlink:href="#MicrosoftJhengHeiRegular-30" x="81.005859"/>
       <use xlink:href="#MicrosoftJhengHeiRegular-30" x="138.964844"/>
      </g>
     </g>
    </g>
    <g id="text_14">
     <!-- 平均誤差 (公尺) -->
     <g transform="translate(15.19375 299.698398) rotate(-90) scale(0.1 -0.1)">
      <defs>
       <path id="MicrosoftJhengHeiRegular-5e73" d="M 6003 1741 
L 3391 1741 
L 3391 -359 
L 3047 -359 
L 3047 1741 
L 428 1741 
L 428 2081 
L 3047 2081 
L 3047 4769 
L 588 4769 
L 588 5106 
L 5856 5106 
L 5856 4769 
L 3391 4769 
L 3391 2081 
L 6003 2081 
L 6003 1741 
z
M 5478 4050 
Q 5188 3253 4575 2547 
L 4256 2719 
Q 4847 3369 5166 4178 
L 5478 4050 
z
M 2138 2681 
L 1825 2522 
Q 1634 3131 1019 4025 
L 1294 4178 
Q 1881 3422 2138 2681 
z
" transform="scale(0.015625)"/>
       <path id="MicrosoftJhengHeiRegular-5747" d="M 5772 4306 
Q 5772 3850 5772 2913 
L 5753 2047 
Q 5697 638 5622 291 
Q 5578 91 5440 -61 
Q 5303 -213 5090 -269 
Q 4878 -325 4078 -325 
L 3956 19 
Q 4144 0 4756 0 
Q 4981 0 5136 117 
Q 5291 234 5306 466 
L 5381 1444 
Q 5441 2194 5441 3125 
Q 5441 3422 5434 3969 
L 3378 3969 
Q 3066 3347 2753 2950 
L 2497 3200 
Q 3184 4125 3494 5331 
L 3816 5222 
Q 3703 4747 3519 4306 
L 5772 4306 
z
M 2472 1172 
Q 1581 719 494 306 
L 428 641 
Q 1028 866 1300 1013 
L 1300 3238 
L 525 3238 
L 525 3572 
L 1300 3572 
L 1300 5288 
L 1638 5288 
L 1638 3572 
L 2350 3572 
L 2350 3238 
L 1638 3238 
L 1638 1153 
Q 1909 1259 2472 1538 
L 2472 1172 
z
M 4738 2650 
L 3066 2650 
L 3066 2981 
L 4738 2981 
L 4738 2650 
z
M 4928 1281 
L 2753 1281 
L 2753 1613 
L 4928 1613 
L 4928 1281 
z
" transform="scale(0.015625)"/>
       <path id="MicrosoftJhengHeiRegular-8aa4" d="M 2463 4294 
L 441 4294 
L 441 4609 
L 1325 4609 
Q 1238 4888 1075 5222 
L 1394 5331 
Q 1591 4931 1691 4609 
L 2463 4609 
L 2463 4294 
z
M 5484 3469 
L 3572 3469 
L 3572 5131 
L 5484 5131 
L 5484 3469 
z
M 5172 3775 
L 5172 4813 
L 3891 4813 
L 3891 3775 
L 5172 3775 
z
M 6009 1394 
L 4269 1394 
Q 4038 75 2650 -313 
L 2456 -38 
Q 3716 225 3938 1394 
L 2497 1394 
L 2497 1709 
L 3988 1709 
Q 4028 1994 4050 2606 
L 2741 2606 
L 2741 4697 
L 3066 4697 
L 3066 2925 
L 5703 2925 
L 5703 1709 
L 6009 1709 
L 6009 1394 
z
M 5369 1709 
L 5369 2606 
L 4384 2606 
Q 4359 2109 4325 1709 
L 5369 1709 
z
M 2322 3366 
L 569 3366 
L 569 3681 
L 2322 3681 
L 2322 3366 
z
M 2322 2438 
L 575 2438 
L 575 2753 
L 2322 2753 
L 2322 2438 
z
M 2216 -184 
L 1894 -184 
L 1894 172 
L 959 172 
L 959 -306 
L 641 -306 
L 641 1831 
L 2216 1831 
L 2216 -184 
z
M 1894 494 
L 1894 1509 
L 959 1509 
L 959 494 
L 1894 494 
z
M 5966 -109 
L 5728 -331 
Q 5384 72 4494 775 
L 4684 1019 
Q 5438 478 5966 -109 
z
" transform="scale(0.015625)"/>
       <path id="MicrosoftJhengHeiRegular-5dee" d="M 4916 5113 
Q 4613 4759 4281 4556 
L 4006 4769 
Q 4378 5009 4634 5319 
L 4916 5113 
z
M 2566 4728 
L 2284 4538 
Q 2078 4813 1703 5106 
L 1978 5313 
Q 2378 4997 2566 4728 
z
M 5997 2138 
L 2094 2138 
Q 2009 684 678 -166 
L 434 97 
Q 1688 828 1753 2138 
L 488 2138 
L 488 2444 
L 3072 2444 
L 3072 3116 
L 878 3116 
L 878 3431 
L 3072 3431 
L 3072 4103 
L 684 4103 
L 684 4409 
L 5819 4409 
L 5819 4103 
L 3406 4103 
L 3406 3431 
L 5569 3431 
L 5569 3116 
L 3406 3116 
L 3406 2444 
L 5997 2444 
L 5997 2138 
z
M 6009 -213 
L 1684 -213 
L 1684 103 
L 3681 103 
L 3681 1131 
L 2228 1131 
L 2228 1453 
L 5703 1453 
L 5703 1131 
L 4031 1131 
L 4031 103 
L 6009 103 
L 6009 -213 
z
" transform="scale(0.015625)"/>
       <path id="MicrosoftJhengHeiRegular-28" d="M 1513 -1100 
Q 469 94 469 1847 
Q 469 3609 1513 4841 
L 1988 4841 
Q 925 3556 925 1853 
Q 925 159 1981 -1100 
L 1513 -1100 
z
" transform="scale(0.015625)"/>
       <path id="MicrosoftJhengHeiRegular-516c" d="M 2663 5153 
Q 2097 3406 628 2350 
L 372 2606 
Q 1781 3563 2328 5269 
L 2663 5153 
z
M 6047 2656 
L 5831 2375 
Q 4681 3125 3994 4844 
L 3566 4844 
L 3566 5191 
L 4256 5191 
Q 4819 3456 6047 2656 
z
M 5569 -213 
L 5269 -384 
Q 5069 109 4872 428 
Q 3059 -41 1269 -197 
L 1172 128 
Q 2150 1278 3041 3419 
L 3366 3278 
Q 2556 1356 1672 184 
Q 2909 272 4703 728 
Q 4416 1238 3922 1913 
L 4219 2088 
Q 5106 866 5569 -213 
z
" transform="scale(0.015625)"/>
       <path id="MicrosoftJhengHeiRegular-5c3a" d="M 6053 -31 
L 5856 -366 
Q 4309 13 3332 755 
Q 2356 1497 1797 2772 
L 1656 2772 
Q 1609 656 666 -306 
L 409 -63 
Q 1313 831 1313 3066 
L 1313 5125 
L 5581 5125 
L 5581 2772 
L 2169 2772 
Q 2891 1341 3995 739 
Q 5100 138 6053 -31 
z
M 5228 3116 
L 5228 4788 
L 1678 4788 
L 1678 3116 
L 5228 3116 
z
" transform="scale(0.015625)"/>
       <path id="MicrosoftJhengHeiRegular-29" d="M 84 -1100 
Q 1138 153 1138 1853 
Q 1138 3563 75 4841 
L 553 4841 
Q 1603 3609 1603 1847 
Q 1603 97 553 -1100 
L 84 -1100 
z
" transform="scale(0.015625)"/>
      </defs>
      <use xlink:href="#MicrosoftJhengHeiRegular-5e73"/>
      <use xlink:href="#MicrosoftJhengHeiRegular-5747" x="100"/>
      <use xlink:href="#MicrosoftJhengHeiRegular-8aa4" x="200"/>
      <use xlink:href="#MicrosoftJhengHeiRegular-5dee" x="300"/>
      <use xlink:href="#MicrosoftJhengHeiRegular-20" x="400"/>
      <use xlink:href="#MicrosoftJhengHeiRegular-28" x="425"/>
      <use xlink:href="#MicrosoftJhengHeiRegular-516c" x="457.080078"/>
      <use xlink:href="#MicrosoftJhengHeiRegular-5c3a" x="557.080078"/>
      <use xlink:href="#MicrosoftJhengHeiRegular-29" x="657.080078"/>
     </g>
    </g>
   </g>
   <g id="patch_6">
    <path d="M 48.370313 507.688671 
L 48.370313 22.7925 
" style="fill: none; stroke: #000000; stroke-width: 0.8; stroke-linejoin: miter; stroke-linecap: square"/>
   </g>
   <g id="patch_7">
    <path d="M 848.540313 507.688671 
L 848.540313 22.7925 
" style="fill: none; stroke: #000000; stroke-width: 0.8; stroke-linejoin: miter; stroke-linecap: square"/>
   </g>
   <g id="patch_8">
    <path d="M 48.370313 507.688671 
L 848.540313 507.688671 
" style="fill: none; stroke: #000000; stroke-width: 0.8; stroke-linejoin: miter; stroke-linecap: square"/>
   </g>
   <g id="patch_9">
    <path d="M 48.370313 22.7925 
L 848.540313 22.7925 
" style="fill: none; stroke: #000000; stroke-width: 0.8; stroke-linejoin: miter; stroke-linecap: square"/>
   </g>
   <g id="text_15">
    <!-- 不同模型的位置預測平均誤差對比 - 高斯雜訊 8dB -->
    <g transform="translate(316.4 16.7925) scale(0.12 -0.12)">
     <defs>
      <path id="MicrosoftJhengHeiRegular-4e0d" d="M 6100 1422 
L 5888 1147 
Q 4453 2288 3413 2822 
L 3413 -359 
L 3053 -359 
L 3053 3244 
Q 2147 2163 616 1153 
L 391 1447 
Q 2747 2853 3591 4775 
L 519 4775 
L 519 5119 
L 5959 5119 
L 5959 4775 
L 3981 4775 
Q 3750 4278 3413 3731 
L 3413 3219 
Q 5203 2181 6100 1422 
z
" transform="scale(0.015625)"/>
      <path id="MicrosoftJhengHeiRegular-540c" d="M 5722 159 
Q 5722 -156 5500 -247 
Q 5322 -297 5042 -305 
Q 4763 -313 4306 -313 
L 4172 25 
Q 4341 13 5222 13 
Q 5394 13 5394 178 
L 5394 4800 
L 1088 4800 
L 1088 -325 
L 763 -325 
L 763 5119 
L 5722 5119 
L 5722 159 
z
M 4856 3688 
L 1631 3688 
L 1631 4013 
L 4856 4013 
L 4856 3688 
z
M 4494 984 
L 1991 984 
L 1991 2881 
L 4494 2881 
L 4494 984 
z
M 4147 1325 
L 4147 2553 
L 2338 2553 
L 2338 1325 
L 4147 1325 
z
" transform="scale(0.015625)"/>
      <path id="MicrosoftJhengHeiRegular-7684" d="M 2650 -197 
L 2328 -197 
L 2328 353 
L 947 353 
L 947 -325 
L 622 -325 
L 622 4213 
L 1216 4213 
Q 1456 4641 1672 5313 
L 1991 5247 
Q 1878 4909 1556 4213 
L 2650 4213 
L 2650 -197 
z
M 2328 2516 
L 2328 3891 
L 947 3891 
L 947 2516 
L 2328 2516 
z
M 2328 678 
L 2328 2194 
L 947 2194 
L 947 678 
L 2328 678 
z
M 5856 4206 
Q 5819 2769 5717 1534 
Q 5616 300 5512 81 
Q 5409 -138 5248 -230 
Q 5088 -322 4638 -322 
Q 4441 -322 4122 -313 
L 4019 13 
Q 4281 3 4584 3 
Q 4869 3 4948 9 
Q 5028 16 5115 89 
Q 5203 163 5240 261 
Q 5278 359 5340 996 
Q 5403 1634 5443 2401 
Q 5484 3169 5503 3891 
L 3834 3891 
Q 3500 3225 3059 2625 
L 2797 2809 
Q 3638 3913 3988 5269 
L 4313 5184 
Q 4156 4672 3963 4206 
L 5856 4206 
z
M 4678 1338 
L 4409 1147 
Q 4100 1859 3481 2638 
L 3756 2816 
Q 4331 2122 4678 1338 
z
" transform="scale(0.015625)"/>
      <path id="MicrosoftJhengHeiRegular-4f4d" d="M 6016 -172 
L 1900 -172 
L 1900 159 
L 3194 159 
Q 3031 1716 2478 3597 
L 2700 3719 
L 1984 3719 
L 1984 4050 
L 3884 4050 
Q 3750 4634 3500 5178 
L 3822 5288 
Q 4053 4759 4244 4050 
L 5913 4050 
L 5913 3719 
L 5269 3719 
L 5472 3641 
Q 5191 1675 4716 159 
L 6016 159 
L 6016 -172 
z
M 5125 3719 
L 2816 3719 
Q 3334 1778 3547 159 
L 4372 159 
Q 4925 1928 5125 3719 
z
M 2131 5147 
Q 2009 4856 1803 4447 
L 1594 4044 
L 1594 -325 
L 1253 -325 
L 1253 3425 
Q 966 2963 544 2456 
L 331 2772 
Q 1222 3825 1791 5269 
L 2131 5147 
z
" transform="scale(0.015625)"/>
      <path id="MicrosoftJhengHeiRegular-7f6e" d="M 5991 -184 
L 453 -184 
L 453 97 
L 1203 97 
L 1203 2803 
L 2694 2803 
L 2853 3256 
L 500 3256 
L 500 3547 
L 2956 3547 
L 3078 3969 
L 756 3969 
L 756 5119 
L 5663 5119 
L 5663 3969 
L 3425 3969 
L 3297 3547 
L 5894 3547 
L 5894 3256 
L 3194 3256 
L 3047 2803 
L 5228 2803 
L 5228 97 
L 5991 97 
L 5991 -184 
z
M 5331 4231 
L 5331 4844 
L 4147 4844 
L 4147 4231 
L 5331 4231 
z
M 3816 4231 
L 3816 4844 
L 2613 4844 
L 2613 4231 
L 3816 4231 
z
M 2278 4231 
L 2278 4844 
L 1081 4844 
L 1081 4231 
L 2278 4231 
z
M 4903 2138 
L 4903 2534 
L 1538 2534 
L 1538 2138 
L 4903 2138 
z
M 4903 1478 
L 4903 1875 
L 1538 1875 
L 1538 1478 
L 4903 1478 
z
M 4903 781 
L 4903 1222 
L 1538 1222 
L 1538 781 
L 4903 781 
z
M 4903 97 
L 4903 513 
L 1538 513 
L 1538 97 
L 4903 97 
z
" transform="scale(0.015625)"/>
      <path id="MicrosoftJhengHeiRegular-9810" d="M 6009 4794 
L 4588 4794 
Q 4519 4447 4384 4063 
L 5703 4063 
L 5703 947 
L 4031 947 
L 4231 744 
Q 3759 156 2894 -378 
L 2675 -91 
Q 3456 341 3969 947 
L 3150 947 
L 3150 4063 
L 4038 4063 
Q 4166 4381 4250 4794 
L 2925 4794 
L 2925 5119 
L 6009 5119 
L 6009 4794 
z
M 5375 3163 
L 5375 3744 
L 3475 3744 
L 3475 3163 
L 5375 3163 
z
M 5375 2234 
L 5375 2853 
L 3475 2853 
L 3475 2234 
L 5375 2234 
z
M 5375 1269 
L 5375 1931 
L 3475 1931 
L 3475 1269 
L 5375 1269 
z
M 2881 3084 
Q 2719 2138 2369 1631 
L 2081 1831 
Q 2366 2228 2478 2753 
L 1753 2753 
L 1753 122 
Q 1753 -56 1608 -197 
Q 1463 -338 703 -306 
L 609 19 
Q 1219 19 1283 26 
Q 1347 34 1397 96 
Q 1447 159 1447 213 
L 1447 2753 
L 441 2753 
L 441 3084 
L 1838 3084 
Q 1450 3513 666 4072 
L 844 4319 
Q 1059 4184 1478 3853 
Q 1991 4363 2234 4728 
L 594 4728 
L 594 5044 
L 2644 5044 
L 2644 4728 
Q 2175 4094 1734 3641 
Q 2006 3403 2150 3219 
L 2041 3084 
L 2881 3084 
z
M 5991 -78 
L 5778 -341 
Q 5194 175 4569 513 
L 4775 763 
Q 5513 338 5991 -78 
z
" transform="scale(0.015625)"/>
      <path id="MicrosoftJhengHeiRegular-6e2c" d="M 5797 128 
Q 5797 -150 5633 -242 
Q 5469 -334 5038 -334 
Q 4800 -334 4563 -319 
L 4481 0 
Q 5288 0 5383 28 
Q 5478 56 5478 225 
L 5478 5253 
L 5797 5253 
L 5797 128 
z
M 1813 4453 
L 1581 4206 
Q 1156 4666 609 5013 
L 794 5253 
Q 1409 4906 1813 4453 
z
M 3853 1075 
L 2578 1075 
L 2766 947 
Q 2406 209 1863 -353 
L 1600 -134 
Q 2138 397 2463 1075 
L 2016 1075 
L 2016 5125 
L 3853 5125 
L 3853 1075 
z
M 3541 3928 
L 3541 4813 
L 2338 4813 
L 2338 3928 
L 3541 3928 
z
M 3541 2681 
L 3541 3609 
L 2338 3609 
L 2338 2681 
L 3541 2681 
z
M 3541 1394 
L 3541 2369 
L 2338 2369 
L 2338 1394 
L 3541 1394 
z
M 4769 825 
L 4447 825 
L 4447 4844 
L 4769 4844 
L 4769 825 
z
M 1594 2803 
L 1356 2572 
Q 994 3019 403 3456 
L 622 3713 
Q 1266 3209 1594 2803 
z
M 1631 1747 
Q 1059 238 678 -325 
L 428 -109 
Q 959 753 1338 1906 
L 1631 1747 
z
M 4019 -25 
L 3744 -191 
Q 3513 350 3116 813 
L 3378 991 
Q 3816 463 4019 -25 
z
" transform="scale(0.015625)"/>
      <path id="MicrosoftJhengHeiRegular-5c0d" d="M 3531 197 
Q 2266 -25 544 -172 
L 447 153 
Q 1100 191 1894 275 
L 1894 1131 
L 653 1131 
L 653 1453 
L 1894 1453 
L 1894 2181 
L 531 2181 
L 531 2497 
L 1369 2497 
Q 1225 2981 1044 3353 
L 525 3353 
L 525 3653 
L 1459 3653 
L 1459 5253 
L 1784 5253 
L 1784 3653 
L 2350 3653 
L 2350 5253 
L 2675 5253 
L 2675 3653 
L 3494 3653 
L 3494 3353 
L 3009 3353 
Q 2866 2916 2675 2497 
L 3438 2497 
L 3438 2181 
L 2216 2181 
L 2216 1453 
L 3297 1453 
L 3297 1131 
L 2216 1131 
L 2216 319 
Q 2834 388 3531 525 
L 3531 197 
z
M 2656 3353 
L 1409 3353 
Q 1575 2969 1716 2497 
L 2322 2497 
Q 2547 3000 2656 3353 
z
M 6009 3531 
L 5422 3531 
L 5422 244 
Q 5422 19 5315 -112 
Q 5209 -244 5075 -286 
Q 4941 -328 4528 -328 
Q 4309 -328 4122 -313 
L 3994 19 
Q 4328 0 4831 0 
Q 5094 0 5094 269 
L 5094 3531 
L 3694 3531 
L 3694 3853 
L 5094 3853 
L 5094 5247 
L 5422 5247 
L 5422 3853 
L 6009 3853 
L 6009 3531 
z
M 3725 4934 
Q 3516 4350 3219 3903 
L 2950 4072 
Q 3309 4656 3425 5063 
L 3725 4934 
z
M 1197 4044 
L 909 3909 
Q 766 4428 506 4891 
L 775 5025 
Q 1038 4572 1197 4044 
z
M 4653 1388 
L 4341 1234 
Q 4109 1997 3694 2753 
L 3969 2913 
Q 4325 2319 4653 1388 
z
" transform="scale(0.015625)"/>
      <path id="MicrosoftJhengHeiRegular-6bd4" d="M 6009 1556 
Q 6009 1166 5948 714 
Q 5888 263 5820 131 
Q 5753 0 5609 -111 
Q 5466 -222 4983 -233 
Q 4500 -244 4366 -244 
Q 3959 -244 3787 -226 
Q 3616 -209 3497 -71 
Q 3378 66 3378 263 
L 3378 5275 
L 3719 5275 
L 3719 3391 
L 5791 3391 
L 5791 3053 
L 3719 3053 
L 3719 288 
Q 3719 184 3795 140 
Q 3872 97 4438 97 
Q 5050 97 5294 125 
Q 5538 153 5600 573 
Q 5663 994 5663 1663 
L 6009 1556 
z
M 3047 581 
Q 1769 -13 794 -347 
L 641 25 
Q 738 116 738 213 
L 738 5275 
L 1081 5275 
L 1081 3391 
L 2950 3391 
L 2950 3053 
L 1081 3053 
L 1081 128 
Q 1753 341 2950 922 
L 3047 581 
z
" transform="scale(0.015625)"/>
      <path id="MicrosoftJhengHeiRegular-2d" d="M 2328 1722 
L 488 1722 
L 488 2138 
L 2328 2138 
L 2328 1722 
z
" transform="scale(0.015625)"/>
      <path id="MicrosoftJhengHeiRegular-9ad8" d="M 5913 4391 
L 525 4391 
L 525 4697 
L 3059 4697 
Q 3034 4881 2875 5209 
L 3200 5313 
Q 3309 5094 3406 4697 
L 5913 4697 
L 5913 4391 
z
M 5013 2766 
L 1428 2766 
L 1428 3981 
L 5013 3981 
L 5013 2766 
z
M 4659 3078 
L 4659 3659 
L 1772 3659 
L 1772 3078 
L 4659 3078 
z
M 5638 178 
Q 5638 -47 5522 -184 
Q 5406 -322 4966 -322 
Q 4822 -322 4616 -313 
L 4506 19 
Q 4894 3 5025 3 
Q 5306 3 5306 238 
L 5306 2016 
L 1147 2016 
L 1147 -319 
L 819 -319 
L 819 2338 
L 5638 2338 
L 5638 178 
z
M 4531 331 
L 1906 331 
L 1906 1581 
L 4531 1581 
L 4531 331 
z
M 4191 641 
L 4191 1269 
L 2253 1269 
L 2253 641 
L 4191 641 
z
" transform="scale(0.015625)"/>
      <path id="MicrosoftJhengHeiRegular-65af" d="M 3450 4238 
L 2994 4238 
L 2994 1606 
L 3438 1606 
L 3438 1294 
L 441 1294 
L 441 1606 
L 997 1606 
L 997 4238 
L 538 4238 
L 538 4544 
L 997 4544 
L 997 5275 
L 1319 5275 
L 1319 4544 
L 2669 4544 
L 2669 5275 
L 2994 5275 
L 2994 4544 
L 3450 4544 
L 3450 4238 
z
M 2669 3616 
L 2669 4238 
L 1319 4238 
L 1319 3616 
L 2669 3616 
z
M 2669 2625 
L 2669 3291 
L 1319 3291 
L 1319 2625 
L 2669 2625 
z
M 2669 1606 
L 2669 2303 
L 1319 2303 
L 1319 1606 
L 2669 1606 
z
M 5997 2925 
L 5288 2925 
L 5288 -319 
L 4959 -319 
L 4959 2925 
L 4097 2925 
Q 4131 794 3366 -325 
L 3059 -147 
Q 3788 891 3788 2741 
L 3788 4744 
Q 4863 4875 5716 5259 
L 5919 4991 
Q 5075 4622 4109 4475 
L 4109 3244 
L 5997 3244 
L 5997 2925 
z
M 1650 891 
Q 1200 169 697 -300 
L 416 -56 
Q 931 334 1375 1081 
L 1650 891 
z
M 3009 250 
L 2725 72 
Q 2559 450 2188 884 
L 2450 1050 
Q 2825 631 3009 250 
z
" transform="scale(0.015625)"/>
      <path id="MicrosoftJhengHeiRegular-96dc" d="M 6003 -44 
L 3922 -44 
L 3922 -319 
L 3609 -319 
L 3609 3284 
Q 3522 3109 3372 2900 
L 3156 3156 
Q 3769 4122 4025 5319 
L 4325 5209 
Q 4228 4763 4013 4159 
L 4959 4159 
Q 4822 4647 4641 5094 
L 4947 5216 
Q 5119 4759 5281 4159 
L 5919 4159 
L 5919 3853 
L 5119 3853 
L 5119 2913 
L 5900 2913 
L 5900 2613 
L 5119 2613 
L 5119 1613 
L 5900 1613 
L 5900 1313 
L 5119 1313 
L 5119 275 
L 6003 275 
L 6003 -44 
z
M 4800 2913 
L 4800 3853 
L 3922 3853 
L 3922 2913 
L 4800 2913 
z
M 4800 1613 
L 4800 2613 
L 3922 2613 
L 3922 1613 
L 4800 1613 
z
M 4800 275 
L 4800 1313 
L 3922 1313 
L 3922 275 
L 4800 275 
z
M 3256 4416 
L 525 4416 
L 525 4716 
L 1778 4716 
Q 1716 4856 1538 5172 
L 1825 5313 
Q 1981 5056 2113 4716 
L 3256 4716 
L 3256 4416 
z
M 1753 3244 
L 1575 2981 
Q 1356 3228 1228 3316 
Q 975 2838 728 2572 
L 481 2753 
Q 1003 3350 1241 4231 
L 1538 4134 
Q 1481 3897 1356 3603 
Q 1591 3416 1753 3244 
z
M 3072 2944 
L 2859 2688 
Q 2572 3097 2369 3297 
Q 2247 3034 1972 2644 
L 1709 2803 
Q 2134 3381 2400 4225 
L 2688 4134 
Q 2613 3897 2491 3578 
Q 2809 3294 3072 2944 
z
M 3256 1747 
L 2053 1747 
L 2053 1472 
Q 2797 981 3181 609 
L 2975 331 
Q 2456 856 2053 1113 
L 2053 -319 
L 1734 -319 
L 1734 1241 
Q 1272 681 609 178 
L 403 434 
Q 1319 1106 1703 1747 
L 441 1747 
L 441 2059 
L 1734 2059 
L 1734 2463 
L 2053 2463 
L 2053 2059 
L 3256 2059 
L 3256 1747 
z
" transform="scale(0.015625)"/>
      <path id="MicrosoftJhengHeiRegular-8a0a" d="M 2541 4300 
L 416 4300 
L 416 4616 
L 1409 4616 
Q 1322 4853 1131 5191 
L 1422 5331 
Q 1613 4994 1753 4616 
L 2541 4616 
L 2541 4300 
z
M 6181 1119 
Q 6113 506 5942 106 
Q 5772 -294 5556 -294 
Q 5222 -294 5100 376 
Q 4978 1047 4978 1491 
L 4978 4788 
L 3700 4788 
L 3700 2778 
L 4709 2778 
L 4709 2472 
L 3700 2472 
L 3700 -341 
L 3366 -341 
L 3366 2472 
L 2625 2472 
L 2625 2778 
L 3366 2778 
L 3366 4788 
L 2675 4788 
L 2675 5094 
L 5306 5094 
L 5306 1716 
Q 5306 891 5404 475 
Q 5503 59 5547 59 
Q 5591 59 5709 465 
Q 5828 872 5869 1300 
L 6181 1119 
z
M 2356 3366 
L 569 3366 
L 569 3681 
L 2356 3681 
L 2356 3366 
z
M 2338 2450 
L 569 2450 
L 569 2753 
L 2338 2753 
L 2338 2450 
z
M 2338 -225 
L 1997 -225 
L 1997 159 
L 959 159 
L 959 -325 
L 622 -325 
L 622 1819 
L 2338 1819 
L 2338 -225 
z
M 1997 469 
L 1997 1503 
L 959 1503 
L 959 469 
L 1997 469 
z
" transform="scale(0.015625)"/>
      <path id="MicrosoftJhengHeiRegular-38" d="M 1394 2550 
Q 519 2963 519 3731 
Q 519 4263 925 4592 
Q 1331 4922 1931 4922 
Q 2469 4922 2841 4614 
Q 3213 4306 3213 3806 
Q 3213 3000 2313 2550 
L 2313 2538 
Q 3372 2138 3372 1225 
Q 3372 606 2931 262 
Q 2491 -81 1753 -81 
Q 1150 -81 745 267 
Q 341 616 341 1178 
Q 341 2109 1394 2538 
L 1394 2550 
z
M 2672 3738 
Q 2672 4081 2455 4276 
Q 2238 4472 1878 4472 
Q 1547 4472 1303 4267 
Q 1059 4063 1059 3750 
Q 1059 3106 1856 2778 
Q 2672 3122 2672 3738 
z
M 1819 2284 
Q 878 1909 878 1203 
Q 878 813 1159 589 
Q 1441 366 1875 366 
Q 2294 366 2566 589 
Q 2838 813 2838 1181 
Q 2838 1919 1819 2284 
z
" transform="scale(0.015625)"/>
      <path id="MicrosoftJhengHeiRegular-42" d="M 641 0 
L 641 4841 
L 1994 4841 
Q 2597 4841 2965 4537 
Q 3334 4234 3334 3734 
Q 3334 3328 3117 3022 
Q 2900 2716 2503 2581 
L 2503 2569 
Q 2988 2522 3283 2206 
Q 3578 1891 3578 1388 
Q 3578 772 3136 386 
Q 2694 0 2019 0 
L 641 0 
z
M 1172 4347 
L 1172 2756 
L 1759 2756 
Q 2241 2756 2509 2986 
Q 2778 3216 2778 3628 
Q 2778 4347 1841 4347 
L 1172 4347 
z
M 1172 2266 
L 1172 494 
L 1956 494 
Q 2456 494 2739 733 
Q 3022 972 3022 1394 
Q 3022 2266 1828 2266 
L 1172 2266 
z
" transform="scale(0.015625)"/>
     </defs>
     <use xlink:href="#MicrosoftJhengHeiRegular-4e0d"/>
     <use xlink:href="#MicrosoftJhengHeiRegular-540c" x="100"/>
     <use xlink:href="#MicrosoftJhengHeiRegular-6a21" x="200"/>
     <use xlink:href="#MicrosoftJhengHeiRegular-578b" x="300"/>
     <use xlink:href="#MicrosoftJhengHeiRegular-7684" x="400"/>
     <use xlink:href="#MicrosoftJhengHeiRegular-4f4d" x="500"/>
     <use xlink:href="#MicrosoftJhengHeiRegular-7f6e" x="600"/>
     <use xlink:href="#MicrosoftJhengHeiRegular-9810" x="700"/>
     <use xlink:href="#MicrosoftJhengHeiRegular-6e2c" x="800"/>
     <use xlink:href="#MicrosoftJhengHeiRegular-5e73" x="900"/>
     <use xlink:href="#MicrosoftJhengHeiRegular-5747" x="1000"/>
     <use xlink:href="#MicrosoftJhengHeiRegular-8aa4" x="1100"/>
     <use xlink:href="#MicrosoftJhengHeiRegular-5dee" x="1200"/>
     <use xlink:href="#MicrosoftJhengHeiRegular-5c0d" x="1300"/>
     <use xlink:href="#MicrosoftJhengHeiRegular-6bd4" x="1400"/>
     <use xlink:href="#MicrosoftJhengHeiRegular-20" x="1500"/>
     <use xlink:href="#MicrosoftJhengHeiRegular-2d" x="1525"/>
     <use xlink:href="#MicrosoftJhengHeiRegular-20" x="1568.164062"/>
     <use xlink:href="#MicrosoftJhengHeiRegular-9ad8" x="1593.164062"/>
     <use xlink:href="#MicrosoftJhengHeiRegular-65af" x="1693.164062"/>
     <use xlink:href="#MicrosoftJhengHeiRegular-96dc" x="1793.164062"/>
     <use xlink:href="#MicrosoftJhengHeiRegular-8a0a" x="1893.164062"/>
     <use xlink:href="#MicrosoftJhengHeiRegular-20" x="1993.164062"/>
     <use xlink:href="#MicrosoftJhengHeiRegular-38" x="2018.164062"/>
     <use xlink:href="#MicrosoftJhengHeiRegular-64" x="2076.123047"/>
     <use xlink:href="#MicrosoftJhengHeiRegular-42" x="2139.501953"/>
    </g>
   </g>
  </g>
 </g>
 <defs>
  <clipPath id="p31210f44b2">
   <rect x="48.370313" y="22.7925" width="800.17" height="484.896171"/>
  </clipPath>
 </defs>
</svg>
